M48
; DRILL file {KiCad 7.0.6-7.0.6~ubuntu20.04.1} date Tue Jul 11 09:35:53 2023
; FORMAT={-:-/ absolute / metric / decimal}
; #@! TF.CreationDate,2023-07-11T09:35:53+02:00
; #@! TF.GenerationSoftware,Kicad,Pcbnew,7.0.6-7.0.6~ubuntu20.04.1
; #@! TF.FileFunction,MixedPlating,1,2
FMAT,2
METRIC
; #@! TA.AperFunction,Plated,PTH,ViaDrill
T1C0.400
; #@! TA.AperFunction,Plated,PTH,ViaDrill
T2C0.800
; #@! TA.AperFunction,Plated,PTH,ComponentDrill
T3C0.950
; #@! TA.AperFunction,Plated,PTH,ComponentDrill
T4C1.000
; #@! TA.AperFunction,Plated,PTH,ComponentDrill
T5C3.200
%
G90
G05
T1
X4.762Y-34.426
X6.54Y-19.186
X7.048Y-43.57
X9.842Y-10.55
X31.94Y-29.346
X31.94Y-33.156
X39.052Y-54.746
X40.068Y-41.03
X43.878Y-8.264
X48.958Y-38.49
X50.736Y-8.264
X54.292Y-8.01
X54.292Y-55.254
X56.832Y-7.502
X58.7Y-6.3
X61.658Y-6.994
X63.69Y-38.998
X64.706Y-43.316
X68.5Y-29.9
X68.807Y-35.696
X69.278Y-11.058
X69.532Y-34.68
X71.3Y-35.9
X71.5Y-31.5
X72.834Y-47.888
X73.0Y-30.0
X73.342Y-45.856
X73.5Y-40.9
X73.655Y-37.291
X73.9Y-33.9
X74.612Y-36.966
X74.876Y-29.9
X75.12Y-16.138
X75.12Y-45.348
X75.5Y-31.3
X76.136Y-10.55
X76.898Y-18.17
X76.898Y-22.996
X77.148Y-37.978
X77.152Y-38.998
X77.575Y-33.985
X77.7Y-32.5
X78.9Y-19.3
X79.692Y-8.772
X80.3Y-20.9
X80.454Y-31.632
X80.7Y-28.9
X81.47Y-23.25
X81.47Y-48.142
X82.994Y-17.408
X83.1Y-34.1
X83.242Y-38.484
X83.248Y-26.806
X83.502Y-32.648
X83.502Y-43.824
X83.7Y-14.9
X83.756Y-44.84
X83.756Y-56.524
X83.793Y-37.474
X84.01Y-23.25
X84.588Y-45.394
X85.28Y-23.25
X85.543Y-42.808
X86.142Y-38.49
X86.296Y-32.648
X86.296Y-35.188
X86.736Y-23.181
X87.312Y-26.806
X87.566Y-9.788
X88.074Y-18.424
X88.074Y-31.923
X88.074Y-44.332
X88.1Y-34.9
X88.328Y-40.776
X89.09Y-29.6
X89.454Y-37.321
X89.852Y-18.678
X90.614Y-8.518
X90.904Y-37.22
X91.63Y-41.792
X91.884Y-8.518
X91.884Y-17.408
X93.154Y-8.518
X93.3Y-12.5
X93.662Y-47.221
X94.424Y-8.518
X94.424Y-13.889
X95.44Y-14.614
X95.694Y-19.44
X96.202Y-36.966
X96.5Y-30.7
X97.3Y-28.3
X97.976Y-15.634
X98.992Y-15.38
X100.012Y-22.234
X100.135Y-15.253
X101.536Y-52.206
X101.79Y-13.852
X101.79Y-15.884
X101.79Y-47.126
X101.79Y-48.396
X102.5Y-30.7
X104.1Y-23.9
X104.584Y-13.598
X105.854Y-33.41
X106.394Y-17.916
X106.87Y-10.55
X107.124Y-36.712
X110.426Y-48.396
X110.5Y-20.9
X111.188Y-37.474
X111.7Y-25.3
X113.9Y-46.1
X117.03Y-56.778
X119.824Y-10.55
X121.094Y-39.252
X123.126Y-12.074
X126.174Y-7.756
X131.0Y-28.584
X132.778Y-56.27
X140.144Y-3.692
X150.05Y-12.328
X153.86Y-42.808
X154.114Y-17.662
X155.384Y-34.426
T2
X2.0Y-328.18
X2.0Y-363.18
X2.25Y-313.18
X2.25Y-348.18
X11.25Y-321.93
X11.25Y-356.93
X11.362Y-325.33
X11.362Y-360.33
X12.987Y-332.68
X12.987Y-367.68
X14.812Y-325.33
X14.812Y-360.33
X14.85Y-309.08
X14.85Y-344.08
X15.85Y-316.93
X15.85Y-351.93
X16.35Y-310.83
X16.35Y-345.83
X16.438Y-332.68
X16.438Y-367.68
X16.5Y-319.18
X16.5Y-354.18
X17.35Y-315.33
X17.35Y-350.33
X18.262Y-325.33
X18.262Y-360.33
X19.1Y-317.58
X19.1Y-352.58
X19.887Y-332.68
X19.887Y-367.68
X21.712Y-325.33
X21.712Y-360.33
X21.958Y-82.84
X23.228Y-87.44
X23.337Y-332.68
X23.337Y-367.68
X24.706Y-82.715
X25.162Y-325.33
X25.162Y-360.33
X25.649Y-314.08
X25.649Y-316.08
X25.649Y-318.08
X25.649Y-349.08
X25.649Y-351.08
X25.649Y-353.08
X25.649Y-355.08
X25.75Y-309.43
X25.75Y-344.43
X26.128Y-80.96
X26.787Y-324.08
X26.787Y-359.08
X27.071Y-319.34
X27.308Y-92.61
X30.25Y-332.68
X30.25Y-367.68
X30.374Y-80.383
X31.25Y-327.43
X31.25Y-362.43
X34.5Y-327.43
X34.5Y-362.43
X35.618Y-81.06
X37.498Y-93.52
X49.898Y-68.14
X53.448Y-68.05
X58.618Y-67.74
X62.948Y-72.889
X66.955Y-96.417
X71.428Y-117.39
X71.968Y-91.21
X72.164Y-102.2
X72.938Y-100.52
X73.628Y-90.32
X74.028Y-88.12
X74.188Y-85.67
X74.557Y-98.173
X74.868Y-70.6
X75.788Y-100.94
X78.008Y-81.9
X79.508Y-83.17
X79.778Y-87.31
X81.688Y-84.709
X81.908Y-79.13
X82.148Y-95.48
X83.158Y-77.436
X83.158Y-74.49
X83.448Y-99.9
X84.248Y-90.2
X84.389Y-80.371
X84.598Y-86.02
X86.568Y-89.92
X88.023Y-70.047
X88.208Y-88.22
X89.218Y-78.94
X89.384Y-76.047
X89.428Y-71.25
X89.658Y-86.09
X91.108Y-69.96
X91.458Y-108.37
X91.718Y-83.45
X92.208Y-80.9
X92.828Y-76.66
X92.998Y-70.53
X94.088Y-83.69
X95.628Y-86.11
X97.328Y-75.96
X97.618Y-85.09
X97.998Y-82.64
X99.598Y-84.54
X100.768Y-82.76
X101.238Y-92.99
X102.048Y-84.74
X102.738Y-113.68
X103.098Y-104.75
X103.248Y-118.4
X104.098Y-107.34
X107.578Y-70.92
X108.548Y-76.4
X108.848Y-78.9
X110.288Y-92.43
X112.348Y-79.9
X114.548Y-80.0
X119.228Y-74.98
X121.588Y-83.09
X123.838Y-91.04
X124.708Y-75.02
X128.948Y-91.84
X129.178Y-87.43
X132.148Y-80.45
X132.928Y-96.38
X136.198Y-87.13
T3
X31.988Y-65.725
X33.25Y-4.725
X34.488Y-65.725
X35.75Y-4.725
X36.988Y-65.725
X38.25Y-4.725
X121.142Y-65.962
X122.404Y-4.962
X123.642Y-65.962
X124.904Y-4.962
X126.142Y-65.962
X127.404Y-4.962
T4
X11.75Y-337.08
X11.75Y-372.08
X14.29Y-337.08
X14.29Y-372.08
X16.83Y-337.08
X16.83Y-372.08
X19.37Y-337.08
X19.37Y-372.08
X21.91Y-337.08
X21.91Y-372.08
X24.45Y-337.08
X24.45Y-372.08
X26.99Y-337.08
X26.99Y-372.08
X81.438Y-63.76
X81.438Y-66.3
X81.438Y-68.84
X81.438Y-71.38
X82.7Y-2.76
X82.7Y-5.3
X82.7Y-7.84
X82.7Y-10.38
X83.978Y-63.76
X83.978Y-66.3
X83.978Y-68.84
X83.978Y-71.38
X85.24Y-2.76
X85.24Y-5.3
X85.24Y-7.84
X85.24Y-10.38
X116.513Y-110.1
X116.513Y-112.6
X116.9Y-49.1
X116.9Y-51.6
T5
X4.5Y-309.18
X4.5Y-335.18
X4.5Y-344.18
X4.5Y-370.18
X7.238Y-88.7
X8.5Y-27.7
X17.238Y-68.7
X17.238Y-110.7
X18.5Y-7.7
X18.5Y-49.7
X34.5Y-309.18
X34.5Y-335.18
X34.5Y-344.18
X34.5Y-370.18
X142.238Y-68.7
X142.238Y-110.7
X143.5Y-7.7
X143.5Y-49.7
X152.238Y-88.7
X153.5Y-27.7
T0
M30
