M48
; DRILL file {KiCad 7.0.6-7.0.6~ubuntu20.04.1} date Tue Jul 11 09:09:46 2023
; FORMAT={-:-/ absolute / metric / decimal}
; #@! TF.CreationDate,2023-07-11T09:09:46+02:00
; #@! TF.GenerationSoftware,Kicad,Pcbnew,7.0.6-7.0.6~ubuntu20.04.1
; #@! TF.FileFunction,MixedPlating,1,2
FMAT,2
METRIC
; #@! TA.AperFunction,Plated,PTH,ViaDrill
T1C0.400
; #@! TA.AperFunction,Plated,PTH,ComponentDrill
T2C0.950
; #@! TA.AperFunction,Plated,PTH,ComponentDrill
T3C1.000
; #@! TA.AperFunction,Plated,PTH,ComponentDrill
T4C3.200
%
G90
G05
T1
X4.762Y-34.426
X4.762Y-95.626
X4.762Y-156.826
X6.54Y-19.186
X6.54Y-80.386
X6.54Y-141.586
X7.048Y-43.57
X7.048Y-104.77
X7.048Y-165.97
X9.842Y-10.55
X9.842Y-71.75
X9.842Y-132.95
X31.94Y-29.346
X31.94Y-33.156
X31.94Y-90.546
X31.94Y-94.356
X31.94Y-151.746
X31.94Y-155.556
X39.052Y-54.746
X39.052Y-115.946
X39.052Y-177.146
X40.068Y-41.03
X40.068Y-102.23
X40.068Y-163.43
X43.878Y-8.264
X43.878Y-69.464
X43.878Y-130.664
X48.958Y-38.49
X48.958Y-99.69
X48.958Y-160.89
X50.736Y-8.264
X50.736Y-69.464
X50.736Y-130.664
X54.292Y-8.01
X54.292Y-55.254
X54.292Y-69.21
X54.292Y-116.454
X54.292Y-130.41
X54.292Y-177.654
X56.832Y-7.502
X56.832Y-68.702
X56.832Y-129.902
X58.7Y-6.3
X58.7Y-67.5
X58.7Y-128.7
X61.658Y-6.994
X61.658Y-68.194
X61.658Y-129.394
X63.69Y-38.998
X63.69Y-100.198
X63.69Y-161.398
X64.706Y-43.316
X64.706Y-104.516
X64.706Y-165.716
X68.5Y-29.9
X68.5Y-91.1
X68.5Y-152.3
X68.807Y-35.696
X68.807Y-96.896
X68.807Y-158.096
X69.278Y-11.058
X69.278Y-72.258
X69.278Y-133.458
X69.532Y-34.68
X69.532Y-95.88
X69.532Y-157.08
X71.3Y-35.9
X71.3Y-97.1
X71.3Y-158.3
X71.5Y-31.5
X71.5Y-92.7
X71.5Y-153.9
X72.834Y-47.888
X72.834Y-109.088
X72.834Y-170.288
X73.0Y-30.0
X73.0Y-91.2
X73.0Y-152.4
X73.342Y-45.856
X73.342Y-107.056
X73.342Y-168.256
X73.5Y-40.9
X73.5Y-102.1
X73.5Y-163.3
X73.655Y-37.291
X73.655Y-98.491
X73.655Y-159.691
X73.9Y-33.9
X73.9Y-95.1
X73.9Y-156.3
X74.612Y-36.966
X74.612Y-98.166
X74.612Y-159.366
X74.876Y-29.9
X74.876Y-91.1
X74.876Y-152.3
X75.12Y-16.138
X75.12Y-45.348
X75.12Y-77.338
X75.12Y-106.548
X75.12Y-138.538
X75.12Y-167.748
X75.5Y-31.3
X75.5Y-92.5
X75.5Y-153.7
X76.136Y-10.55
X76.136Y-71.75
X76.136Y-132.95
X76.898Y-18.17
X76.898Y-22.996
X76.898Y-79.37
X76.898Y-84.196
X76.898Y-140.57
X76.898Y-145.396
X77.148Y-37.978
X77.148Y-99.178
X77.148Y-160.378
X77.152Y-38.998
X77.152Y-100.198
X77.152Y-161.398
X77.575Y-33.985
X77.575Y-95.185
X77.575Y-156.385
X77.7Y-32.5
X77.7Y-93.7
X77.7Y-154.9
X78.9Y-19.3
X78.9Y-80.5
X78.9Y-141.7
X79.692Y-8.772
X79.692Y-69.972
X79.692Y-131.172
X80.3Y-20.9
X80.3Y-82.1
X80.3Y-143.3
X80.454Y-31.632
X80.454Y-92.832
X80.454Y-154.032
X80.7Y-28.9
X80.7Y-90.1
X80.7Y-151.3
X81.47Y-23.25
X81.47Y-48.142
X81.47Y-84.45
X81.47Y-109.342
X81.47Y-145.65
X81.47Y-170.542
X82.994Y-17.408
X82.994Y-78.608
X82.994Y-139.808
X83.1Y-34.1
X83.1Y-95.3
X83.1Y-156.5
X83.242Y-38.484
X83.242Y-99.684
X83.242Y-160.884
X83.248Y-26.806
X83.248Y-88.006
X83.248Y-149.206
X83.502Y-32.648
X83.502Y-43.824
X83.502Y-93.848
X83.502Y-105.024
X83.502Y-155.048
X83.502Y-166.224
X83.7Y-14.9
X83.7Y-76.1
X83.7Y-137.3
X83.756Y-44.84
X83.756Y-56.524
X83.756Y-106.04
X83.756Y-117.724
X83.756Y-167.24
X83.756Y-178.924
X83.793Y-37.474
X83.793Y-98.674
X83.793Y-159.874
X84.01Y-23.25
X84.01Y-84.45
X84.01Y-145.65
X84.588Y-45.394
X84.588Y-106.594
X84.588Y-167.794
X85.28Y-23.25
X85.28Y-84.45
X85.28Y-145.65
X85.543Y-42.808
X85.543Y-104.008
X85.543Y-165.208
X86.142Y-38.49
X86.142Y-99.69
X86.142Y-160.89
X86.296Y-32.648
X86.296Y-35.188
X86.296Y-93.848
X86.296Y-96.388
X86.296Y-155.048
X86.296Y-157.588
X86.736Y-23.181
X86.736Y-84.381
X86.736Y-145.581
X87.312Y-26.806
X87.312Y-88.006
X87.312Y-149.206
X87.566Y-9.788
X87.566Y-70.988
X87.566Y-132.188
X88.074Y-18.424
X88.074Y-31.923
X88.074Y-44.332
X88.074Y-79.624
X88.074Y-93.123
X88.074Y-105.532
X88.074Y-140.824
X88.074Y-154.323
X88.074Y-166.732
X88.1Y-34.9
X88.1Y-96.1
X88.1Y-157.3
X88.328Y-40.776
X88.328Y-101.976
X88.328Y-163.176
X89.09Y-29.6
X89.09Y-90.8
X89.09Y-152.0
X89.454Y-37.321
X89.454Y-98.521
X89.454Y-159.721
X89.852Y-18.678
X89.852Y-79.878
X89.852Y-141.078
X90.614Y-8.518
X90.614Y-69.718
X90.614Y-130.918
X90.904Y-37.22
X90.904Y-98.42
X90.904Y-159.62
X91.63Y-41.792
X91.63Y-102.992
X91.63Y-164.192
X91.884Y-8.518
X91.884Y-17.408
X91.884Y-69.718
X91.884Y-78.608
X91.884Y-130.918
X91.884Y-139.808
X93.154Y-8.518
X93.154Y-69.718
X93.154Y-130.918
X93.3Y-12.5
X93.3Y-73.7
X93.3Y-134.9
X93.662Y-47.221
X93.662Y-108.421
X93.662Y-169.621
X94.424Y-8.518
X94.424Y-13.889
X94.424Y-69.718
X94.424Y-75.089
X94.424Y-130.918
X94.424Y-136.289
X95.44Y-14.614
X95.44Y-75.814
X95.44Y-137.014
X95.694Y-19.44
X95.694Y-80.64
X95.694Y-141.84
X96.202Y-36.966
X96.202Y-98.166
X96.202Y-159.366
X96.5Y-30.7
X96.5Y-91.9
X96.5Y-153.1
X97.3Y-28.3
X97.3Y-89.5
X97.3Y-150.7
X97.976Y-15.634
X97.976Y-76.834
X97.976Y-138.034
X98.992Y-15.38
X98.992Y-76.58
X98.992Y-137.78
X100.012Y-22.234
X100.012Y-83.434
X100.012Y-144.634
X100.135Y-15.253
X100.135Y-76.453
X100.135Y-137.653
X101.536Y-52.206
X101.536Y-113.406
X101.536Y-174.606
X101.79Y-13.852
X101.79Y-15.884
X101.79Y-47.126
X101.79Y-48.396
X101.79Y-75.052
X101.79Y-77.084
X101.79Y-108.326
X101.79Y-109.596
X101.79Y-136.252
X101.79Y-138.284
X101.79Y-169.526
X101.79Y-170.796
X102.5Y-30.7
X102.5Y-91.9
X102.5Y-153.1
X104.1Y-23.9
X104.1Y-85.1
X104.1Y-146.3
X104.584Y-13.598
X104.584Y-74.798
X104.584Y-135.998
X105.854Y-33.41
X105.854Y-94.61
X105.854Y-155.81
X106.394Y-17.916
X106.394Y-79.116
X106.394Y-140.316
X106.87Y-10.55
X106.87Y-71.75
X106.87Y-132.95
X107.124Y-36.712
X107.124Y-97.912
X107.124Y-159.112
X110.426Y-48.396
X110.426Y-109.596
X110.426Y-170.796
X110.5Y-20.9
X110.5Y-82.1
X110.5Y-143.3
X111.188Y-37.474
X111.188Y-98.674
X111.188Y-159.874
X111.7Y-25.3
X111.7Y-86.5
X111.7Y-147.7
X113.9Y-46.1
X113.9Y-107.3
X113.9Y-168.5
X117.03Y-56.778
X117.03Y-117.978
X117.03Y-179.178
X119.824Y-10.55
X119.824Y-71.75
X119.824Y-132.95
X121.094Y-39.252
X121.094Y-100.452
X121.094Y-161.652
X123.126Y-12.074
X123.126Y-73.274
X123.126Y-134.474
X126.174Y-7.756
X126.174Y-68.956
X126.174Y-130.156
X131.0Y-28.584
X131.0Y-89.784
X131.0Y-150.984
X132.778Y-56.27
X132.778Y-117.47
X132.778Y-178.67
X140.144Y-3.692
X140.144Y-64.892
X140.144Y-126.092
X150.05Y-12.328
X150.05Y-73.528
X150.05Y-134.728
X153.86Y-42.808
X153.86Y-104.008
X153.86Y-165.208
X154.114Y-17.662
X154.114Y-78.862
X154.114Y-140.062
X155.384Y-34.426
X155.384Y-95.626
X155.384Y-156.826
X165.962Y-34.426
X165.962Y-95.626
X165.962Y-156.826
X167.74Y-19.186
X167.74Y-80.386
X167.74Y-141.586
X168.248Y-43.57
X168.248Y-104.77
X168.248Y-165.97
X171.042Y-10.55
X171.042Y-71.75
X171.042Y-132.95
X193.14Y-29.346
X193.14Y-33.156
X193.14Y-90.546
X193.14Y-94.356
X193.14Y-151.746
X193.14Y-155.556
X200.252Y-54.746
X200.252Y-115.946
X200.252Y-177.146
X201.268Y-41.03
X201.268Y-102.23
X201.268Y-163.43
X205.078Y-8.264
X205.078Y-69.464
X205.078Y-130.664
X210.158Y-38.49
X210.158Y-99.69
X210.158Y-160.89
X211.936Y-8.264
X211.936Y-69.464
X211.936Y-130.664
X215.492Y-8.01
X215.492Y-55.254
X215.492Y-69.21
X215.492Y-116.454
X215.492Y-130.41
X215.492Y-177.654
X218.032Y-7.502
X218.032Y-68.702
X218.032Y-129.902
X219.9Y-6.3
X219.9Y-67.5
X219.9Y-128.7
X222.858Y-6.994
X222.858Y-68.194
X222.858Y-129.394
X224.89Y-38.998
X224.89Y-100.198
X224.89Y-161.398
X225.906Y-43.316
X225.906Y-104.516
X225.906Y-165.716
X229.7Y-29.9
X229.7Y-91.1
X229.7Y-152.3
X230.007Y-35.696
X230.007Y-96.896
X230.007Y-158.096
X230.478Y-11.058
X230.478Y-72.258
X230.478Y-133.458
X230.732Y-34.68
X230.732Y-95.88
X230.732Y-157.08
X232.5Y-35.9
X232.5Y-97.1
X232.5Y-158.3
X232.7Y-31.5
X232.7Y-92.7
X232.7Y-153.9
X234.034Y-47.888
X234.034Y-109.088
X234.034Y-170.288
X234.2Y-30.0
X234.2Y-91.2
X234.2Y-152.4
X234.542Y-45.856
X234.542Y-107.056
X234.542Y-168.256
X234.7Y-40.9
X234.7Y-102.1
X234.7Y-163.3
X234.855Y-37.291
X234.855Y-98.491
X234.855Y-159.691
X235.1Y-33.9
X235.1Y-95.1
X235.1Y-156.3
X235.812Y-36.966
X235.812Y-98.166
X235.812Y-159.366
X236.075Y-29.9
X236.075Y-91.1
X236.075Y-152.3
X236.32Y-16.138
X236.32Y-45.348
X236.32Y-77.338
X236.32Y-106.548
X236.32Y-138.538
X236.32Y-167.748
X236.7Y-31.3
X236.7Y-92.5
X236.7Y-153.7
X237.336Y-10.55
X237.336Y-71.75
X237.336Y-132.95
X238.098Y-18.17
X238.098Y-22.996
X238.098Y-79.37
X238.098Y-84.196
X238.098Y-140.57
X238.098Y-145.396
X238.348Y-37.978
X238.348Y-99.178
X238.348Y-160.378
X238.352Y-38.998
X238.352Y-100.198
X238.352Y-161.398
X238.775Y-33.985
X238.775Y-95.185
X238.775Y-156.385
X238.9Y-32.5
X238.9Y-93.7
X238.9Y-154.9
X240.1Y-19.3
X240.1Y-80.5
X240.1Y-141.7
X240.892Y-8.772
X240.892Y-69.972
X240.892Y-131.172
X241.5Y-20.9
X241.5Y-82.1
X241.5Y-143.3
X241.654Y-31.632
X241.654Y-92.832
X241.654Y-154.032
X241.9Y-28.9
X241.9Y-90.1
X241.9Y-151.3
X242.67Y-23.25
X242.67Y-48.142
X242.67Y-84.45
X242.67Y-109.342
X242.67Y-145.65
X242.67Y-170.542
X244.194Y-17.408
X244.194Y-78.608
X244.194Y-139.808
X244.3Y-34.1
X244.3Y-95.3
X244.3Y-156.5
X244.442Y-38.484
X244.442Y-99.684
X244.442Y-160.884
X244.448Y-26.806
X244.448Y-88.006
X244.448Y-149.206
X244.702Y-32.648
X244.702Y-43.824
X244.702Y-93.848
X244.702Y-105.024
X244.702Y-155.048
X244.702Y-166.224
X244.9Y-14.9
X244.9Y-76.1
X244.9Y-137.3
X244.956Y-44.84
X244.956Y-56.524
X244.956Y-106.04
X244.956Y-117.724
X244.956Y-167.24
X244.956Y-178.924
X244.993Y-37.474
X244.993Y-98.674
X244.993Y-159.874
X245.21Y-23.25
X245.21Y-84.45
X245.21Y-145.65
X245.788Y-45.394
X245.788Y-106.594
X245.788Y-167.794
X246.48Y-23.25
X246.48Y-84.45
X246.48Y-145.65
X246.743Y-42.808
X246.743Y-104.008
X246.743Y-165.208
X247.342Y-38.49
X247.342Y-99.69
X247.342Y-160.89
X247.496Y-32.648
X247.496Y-35.188
X247.496Y-93.848
X247.496Y-96.388
X247.496Y-155.048
X247.496Y-157.588
X247.935Y-23.181
X247.935Y-84.381
X247.935Y-145.581
X248.512Y-26.806
X248.512Y-88.006
X248.512Y-149.206
X248.766Y-9.788
X248.766Y-70.988
X248.766Y-132.188
X249.274Y-18.424
X249.274Y-31.923
X249.274Y-44.332
X249.274Y-79.624
X249.274Y-93.123
X249.274Y-105.532
X249.274Y-140.824
X249.274Y-154.323
X249.274Y-166.732
X249.3Y-34.9
X249.3Y-96.1
X249.3Y-157.3
X249.528Y-40.776
X249.528Y-101.976
X249.528Y-163.176
X250.29Y-29.6
X250.29Y-90.8
X250.29Y-152.0
X250.654Y-37.321
X250.654Y-98.521
X250.654Y-159.721
X251.052Y-18.678
X251.052Y-79.878
X251.052Y-141.078
X251.814Y-8.518
X251.814Y-69.718
X251.814Y-130.918
X252.104Y-37.22
X252.104Y-98.42
X252.104Y-159.62
X252.83Y-41.792
X252.83Y-102.992
X252.83Y-164.192
X253.084Y-8.518
X253.084Y-17.408
X253.084Y-69.718
X253.084Y-78.608
X253.084Y-130.918
X253.084Y-139.808
X254.354Y-8.518
X254.354Y-69.718
X254.354Y-130.918
X254.5Y-12.5
X254.5Y-73.7
X254.5Y-134.9
X254.862Y-47.221
X254.862Y-108.421
X254.862Y-169.621
X255.624Y-8.518
X255.624Y-13.889
X255.624Y-69.718
X255.624Y-75.089
X255.624Y-130.918
X255.624Y-136.289
X256.64Y-14.614
X256.64Y-75.814
X256.64Y-137.014
X256.894Y-19.44
X256.894Y-80.64
X256.894Y-141.84
X257.402Y-36.966
X257.402Y-98.166
X257.402Y-159.366
X257.7Y-30.7
X257.7Y-91.9
X257.7Y-153.1
X258.5Y-28.3
X258.5Y-89.5
X258.5Y-150.7
X259.176Y-15.634
X259.176Y-76.834
X259.176Y-138.034
X260.192Y-15.38
X260.192Y-76.58
X260.192Y-137.78
X261.212Y-22.234
X261.212Y-83.434
X261.212Y-144.634
X261.335Y-15.253
X261.335Y-76.453
X261.335Y-137.653
X262.736Y-52.206
X262.736Y-113.406
X262.736Y-174.606
X262.99Y-13.852
X262.99Y-15.884
X262.99Y-47.126
X262.99Y-48.396
X262.99Y-75.052
X262.99Y-77.084
X262.99Y-108.326
X262.99Y-109.596
X262.99Y-136.252
X262.99Y-138.284
X262.99Y-169.526
X262.99Y-170.796
X263.7Y-30.7
X263.7Y-91.9
X263.7Y-153.1
X265.3Y-23.9
X265.3Y-85.1
X265.3Y-146.3
X265.784Y-13.598
X265.784Y-74.798
X265.784Y-135.998
X267.054Y-33.41
X267.054Y-94.61
X267.054Y-155.81
X267.594Y-17.916
X267.594Y-79.116
X267.594Y-140.316
X268.07Y-10.55
X268.07Y-71.75
X268.07Y-132.95
X268.324Y-36.712
X268.324Y-97.912
X268.324Y-159.112
X271.626Y-48.396
X271.626Y-109.596
X271.626Y-170.796
X271.7Y-20.9
X271.7Y-82.1
X271.7Y-143.3
X272.388Y-37.474
X272.388Y-98.674
X272.388Y-159.874
X272.9Y-25.3
X272.9Y-86.5
X272.9Y-147.7
X275.1Y-46.1
X275.1Y-107.3
X275.1Y-168.5
X278.23Y-56.778
X278.23Y-117.978
X278.23Y-179.178
X281.024Y-10.55
X281.024Y-71.75
X281.024Y-132.95
X282.294Y-39.252
X282.294Y-100.452
X282.294Y-161.652
X284.326Y-12.074
X284.326Y-73.274
X284.326Y-134.474
X287.374Y-7.756
X287.374Y-68.956
X287.374Y-130.156
X292.2Y-28.584
X292.2Y-89.784
X292.2Y-150.984
X293.978Y-56.27
X293.978Y-117.47
X293.978Y-178.67
X301.344Y-3.692
X301.344Y-64.892
X301.344Y-126.092
X311.25Y-12.328
X311.25Y-73.528
X311.25Y-134.728
X315.06Y-42.808
X315.06Y-104.008
X315.06Y-165.208
X315.314Y-17.662
X315.314Y-78.862
X315.314Y-140.062
X316.584Y-34.426
X316.584Y-95.626
X316.584Y-156.826
T2
X33.25Y-4.725
X33.25Y-65.925
X33.25Y-127.125
X35.75Y-4.725
X35.75Y-65.925
X35.75Y-127.125
X38.25Y-4.725
X38.25Y-65.925
X38.25Y-127.125
X122.404Y-4.962
X122.404Y-66.162
X122.404Y-127.362
X124.904Y-4.962
X124.904Y-66.162
X124.904Y-127.362
X127.404Y-4.962
X127.404Y-66.162
X127.404Y-127.362
X194.45Y-4.725
X194.45Y-65.925
X194.45Y-127.125
X196.95Y-4.725
X196.95Y-65.925
X196.95Y-127.125
X199.45Y-4.725
X199.45Y-65.925
X199.45Y-127.125
X283.604Y-4.962
X283.604Y-66.162
X283.604Y-127.362
X286.104Y-4.962
X286.104Y-66.162
X286.104Y-127.362
X288.604Y-4.962
X288.604Y-66.162
X288.604Y-127.362
T3
X82.7Y-2.76
X82.7Y-5.3
X82.7Y-7.84
X82.7Y-10.38
X82.7Y-63.96
X82.7Y-66.5
X82.7Y-69.04
X82.7Y-71.58
X82.7Y-125.16
X82.7Y-127.7
X82.7Y-130.24
X82.7Y-132.78
X85.24Y-2.76
X85.24Y-5.3
X85.24Y-7.84
X85.24Y-10.38
X85.24Y-63.96
X85.24Y-66.5
X85.24Y-69.04
X85.24Y-71.58
X85.24Y-125.16
X85.24Y-127.7
X85.24Y-130.24
X85.24Y-132.78
X116.9Y-49.1
X116.9Y-51.6
X116.9Y-110.3
X116.9Y-112.8
X116.9Y-171.5
X116.9Y-174.0
X243.9Y-2.76
X243.9Y-5.3
X243.9Y-7.84
X243.9Y-10.38
X243.9Y-63.96
X243.9Y-66.5
X243.9Y-69.04
X243.9Y-71.58
X243.9Y-125.16
X243.9Y-127.7
X243.9Y-130.24
X243.9Y-132.78
X246.44Y-2.76
X246.44Y-5.3
X246.44Y-7.84
X246.44Y-10.38
X246.44Y-63.96
X246.44Y-66.5
X246.44Y-69.04
X246.44Y-71.58
X246.44Y-125.16
X246.44Y-127.7
X246.44Y-130.24
X246.44Y-132.78
X278.1Y-49.1
X278.1Y-51.6
X278.1Y-110.3
X278.1Y-112.8
X278.1Y-171.5
X278.1Y-174.0
T4
X8.5Y-27.7
X8.5Y-88.9
X8.5Y-150.1
X18.5Y-7.7
X18.5Y-49.7
X18.5Y-68.9
X18.5Y-110.9
X18.5Y-130.1
X18.5Y-172.1
X143.5Y-7.7
X143.5Y-49.7
X143.5Y-68.9
X143.5Y-110.9
X143.5Y-130.1
X143.5Y-172.1
X153.5Y-27.7
X153.5Y-88.9
X153.5Y-150.1
X169.7Y-27.7
X169.7Y-88.9
X169.7Y-150.1
X179.7Y-7.7
X179.7Y-49.7
X179.7Y-68.9
X179.7Y-110.9
X179.7Y-130.1
X179.7Y-172.1
X304.7Y-7.7
X304.7Y-49.7
X304.7Y-68.9
X304.7Y-110.9
X304.7Y-130.1
X304.7Y-172.1
X314.7Y-27.7
X314.7Y-88.9
X314.7Y-150.1
T0
M30
