M48
; DRILL file {KiCad 7.0.6-7.0.6~ubuntu20.04.1} date Tue Jul 11 09:29:22 2023
; FORMAT={-:-/ absolute / metric / decimal}
; #@! TF.CreationDate,2023-07-11T09:29:22+02:00
; #@! TF.GenerationSoftware,Kicad,Pcbnew,7.0.6-7.0.6~ubuntu20.04.1
; #@! TF.FileFunction,MixedPlating,1,2
FMAT,2
METRIC
; #@! TA.AperFunction,Plated,PTH,ViaDrill
T1C0.400
; #@! TA.AperFunction,Plated,PTH,ViaDrill
T2C0.800
; #@! TA.AperFunction,Plated,PTH,ComponentDrill
T3C0.950
; #@! TA.AperFunction,Plated,PTH,ComponentDrill
T4C1.000
; #@! TA.AperFunction,Plated,PTH,ComponentDrill
T5C3.200
%
G90
G05
T1
X4.762Y-34.426
X6.54Y-19.186
X7.048Y-43.57
X9.842Y-10.55
X31.94Y-29.346
X31.94Y-33.156
X39.052Y-54.746
X40.068Y-41.03
X43.878Y-8.264
X48.958Y-38.49
X50.736Y-8.264
X54.292Y-8.01
X54.292Y-55.254
X56.832Y-7.502
X58.7Y-6.3
X61.658Y-6.994
X63.69Y-38.998
X64.706Y-43.316
X68.5Y-29.9
X68.807Y-35.696
X69.278Y-11.058
X69.532Y-34.68
X71.3Y-35.9
X71.5Y-31.5
X72.834Y-47.888
X73.0Y-30.0
X73.342Y-45.856
X73.5Y-40.9
X73.655Y-37.291
X73.9Y-33.9
X74.612Y-36.966
X74.876Y-29.9
X75.12Y-16.138
X75.12Y-45.348
X75.5Y-31.3
X76.136Y-10.55
X76.898Y-18.17
X76.898Y-22.996
X77.148Y-37.978
X77.152Y-38.998
X77.575Y-33.985
X77.7Y-32.5
X78.9Y-19.3
X79.692Y-8.772
X80.3Y-20.9
X80.454Y-31.632
X80.7Y-28.9
X81.47Y-23.25
X81.47Y-48.142
X82.994Y-17.408
X83.1Y-34.1
X83.242Y-38.484
X83.248Y-26.806
X83.502Y-32.648
X83.502Y-43.824
X83.7Y-14.9
X83.756Y-44.84
X83.756Y-56.524
X83.793Y-37.474
X84.01Y-23.25
X84.588Y-45.394
X85.28Y-23.25
X85.543Y-42.808
X86.142Y-38.49
X86.296Y-32.648
X86.296Y-35.188
X86.736Y-23.181
X87.312Y-26.806
X87.566Y-9.788
X88.074Y-18.424
X88.074Y-31.923
X88.074Y-44.332
X88.1Y-34.9
X88.328Y-40.776
X89.09Y-29.6
X89.454Y-37.321
X89.852Y-18.678
X90.614Y-8.518
X90.904Y-37.22
X91.63Y-41.792
X91.884Y-8.518
X91.884Y-17.408
X93.154Y-8.518
X93.3Y-12.5
X93.662Y-47.221
X94.424Y-8.518
X94.424Y-13.889
X95.44Y-14.614
X95.694Y-19.44
X96.202Y-36.966
X96.5Y-30.7
X97.3Y-28.3
X97.976Y-15.634
X98.992Y-15.38
X100.012Y-22.234
X100.135Y-15.253
X101.536Y-52.206
X101.79Y-13.852
X101.79Y-15.884
X101.79Y-47.126
X101.79Y-48.396
X102.5Y-30.7
X104.1Y-23.9
X104.584Y-13.598
X105.854Y-33.41
X106.394Y-17.916
X106.87Y-10.55
X107.124Y-36.712
X110.426Y-48.396
X110.5Y-20.9
X111.188Y-37.474
X111.7Y-25.3
X113.9Y-46.1
X117.03Y-56.778
X119.824Y-10.55
X121.094Y-39.252
X123.126Y-12.074
X126.174Y-7.756
X131.0Y-28.584
X132.778Y-56.27
X140.144Y-3.692
X150.05Y-12.328
X153.86Y-42.808
X154.114Y-17.662
X155.384Y-34.426
T2
X21.958Y-82.84
X21.958Y-141.84
X23.228Y-87.44
X23.228Y-146.44
X24.706Y-82.715
X24.706Y-141.715
X26.128Y-80.96
X26.128Y-139.96
X27.308Y-92.61
X27.308Y-151.61
X30.374Y-80.383
X30.374Y-139.383
X35.618Y-81.06
X35.618Y-140.06
X37.498Y-93.52
X37.498Y-152.52
X49.898Y-68.14
X49.898Y-127.14
X53.448Y-68.05
X53.448Y-127.05
X58.618Y-67.74
X58.618Y-126.74
X62.948Y-72.889
X62.948Y-131.889
X66.955Y-96.417
X66.955Y-155.417
X71.428Y-117.39
X71.428Y-176.39
X71.968Y-91.21
X71.968Y-150.21
X72.164Y-102.2
X72.164Y-161.2
X72.938Y-100.52
X72.938Y-159.52
X73.628Y-90.32
X73.628Y-149.32
X74.028Y-88.12
X74.028Y-147.12
X74.188Y-85.67
X74.188Y-144.67
X74.557Y-98.173
X74.557Y-157.173
X74.868Y-70.6
X74.868Y-129.6
X75.788Y-100.94
X75.788Y-159.94
X78.008Y-81.9
X78.008Y-140.9
X79.508Y-83.17
X79.508Y-142.17
X79.778Y-87.31
X79.778Y-146.31
X81.688Y-84.709
X81.688Y-143.709
X81.908Y-79.13
X81.908Y-138.13
X82.148Y-95.48
X82.148Y-154.48
X83.158Y-77.436
X83.158Y-136.436
X83.158Y-74.49
X83.158Y-133.49
X83.448Y-99.9
X83.448Y-158.9
X84.248Y-90.2
X84.248Y-149.2
X84.389Y-80.371
X84.389Y-139.371
X84.598Y-86.02
X84.598Y-145.02
X86.568Y-89.92
X86.568Y-148.92
X88.023Y-70.047
X88.023Y-129.047
X88.208Y-88.22
X88.208Y-147.22
X89.218Y-78.94
X89.218Y-137.94
X89.384Y-76.047
X89.384Y-135.047
X89.428Y-71.25
X89.428Y-130.25
X89.658Y-86.09
X89.658Y-145.09
X91.108Y-69.96
X91.108Y-128.96
X91.458Y-108.37
X91.458Y-167.37
X91.718Y-83.45
X91.718Y-142.45
X92.208Y-80.9
X92.208Y-139.9
X92.828Y-76.66
X92.828Y-135.66
X92.998Y-70.53
X92.998Y-129.53
X94.088Y-83.69
X94.088Y-142.69
X95.628Y-86.11
X95.628Y-145.11
X96.5Y-299.197
X96.5Y-334.197
X96.5Y-369.197
X96.5Y-404.197
X96.75Y-284.197
X96.75Y-319.197
X96.75Y-354.197
X96.75Y-389.197
X97.328Y-75.96
X97.328Y-134.96
X97.618Y-85.09
X97.618Y-144.09
X97.998Y-82.64
X97.998Y-141.64
X99.598Y-84.54
X99.598Y-143.54
X100.768Y-82.76
X100.768Y-141.76
X101.238Y-92.99
X101.238Y-151.99
X102.048Y-84.74
X102.048Y-143.74
X102.738Y-113.68
X102.738Y-172.68
X103.098Y-104.75
X103.098Y-163.75
X103.248Y-118.4
X103.248Y-177.4
X104.098Y-107.34
X104.098Y-166.34
X105.75Y-292.947
X105.75Y-327.947
X105.75Y-362.947
X105.75Y-397.947
X105.862Y-296.347
X105.862Y-331.347
X105.862Y-366.347
X105.862Y-401.347
X107.487Y-303.697
X107.487Y-338.697
X107.487Y-373.697
X107.487Y-408.697
X107.578Y-70.92
X107.578Y-129.92
X108.548Y-76.4
X108.548Y-135.4
X108.848Y-78.9
X108.848Y-137.9
X109.312Y-296.347
X109.312Y-331.347
X109.312Y-366.347
X109.312Y-401.347
X109.35Y-280.097
X109.35Y-315.097
X109.35Y-350.097
X109.35Y-385.097
X110.288Y-92.43
X110.288Y-151.43
X110.35Y-287.947
X110.35Y-322.947
X110.35Y-357.947
X110.35Y-392.947
X110.85Y-281.847
X110.85Y-316.847
X110.85Y-351.847
X110.85Y-386.847
X110.937Y-303.697
X110.937Y-338.697
X110.937Y-373.697
X110.937Y-408.697
X111.0Y-290.197
X111.0Y-325.197
X111.0Y-360.197
X111.0Y-395.197
X111.85Y-286.347
X111.85Y-321.347
X111.85Y-356.347
X111.85Y-391.347
X112.348Y-79.9
X112.348Y-138.9
X112.762Y-296.347
X112.762Y-331.347
X112.762Y-366.347
X112.762Y-401.347
X113.6Y-288.597
X113.6Y-323.597
X113.6Y-358.597
X113.6Y-393.597
X114.387Y-303.697
X114.387Y-338.697
X114.387Y-373.697
X114.387Y-408.697
X114.548Y-80.0
X114.548Y-139.0
X116.212Y-296.347
X116.212Y-331.347
X116.212Y-366.347
X116.212Y-401.347
X117.837Y-303.697
X117.837Y-338.697
X117.837Y-373.697
X117.837Y-408.697
X119.228Y-74.98
X119.228Y-133.98
X119.662Y-296.347
X119.662Y-331.347
X119.662Y-366.347
X119.662Y-401.347
X120.149Y-285.097
X120.149Y-287.097
X120.149Y-289.097
X120.149Y-320.097
X120.149Y-322.097
X120.149Y-324.097
X120.149Y-355.097
X120.149Y-357.097
X120.149Y-359.097
X120.149Y-361.097
X120.149Y-390.097
X120.149Y-392.097
X120.149Y-394.097
X120.149Y-396.097
X120.25Y-280.447
X120.25Y-315.447
X120.25Y-350.447
X120.25Y-385.447
X121.287Y-295.097
X121.287Y-330.097
X121.287Y-365.097
X121.287Y-400.097
X121.571Y-290.357
X121.571Y-325.357
X121.588Y-83.09
X121.588Y-142.09
X123.838Y-91.04
X123.838Y-150.04
X124.708Y-75.02
X124.708Y-134.02
X124.75Y-303.697
X124.75Y-338.697
X124.75Y-373.697
X124.75Y-408.697
X125.75Y-298.447
X125.75Y-333.447
X125.75Y-368.447
X125.75Y-403.447
X128.948Y-91.84
X128.948Y-150.84
X129.0Y-298.447
X129.0Y-333.447
X129.0Y-368.447
X129.0Y-403.447
X129.178Y-87.43
X129.178Y-146.43
X132.148Y-80.45
X132.148Y-139.45
X132.928Y-96.38
X132.928Y-155.38
X136.198Y-87.13
X136.198Y-146.13
T3
X31.988Y-65.725
X31.988Y-124.725
X33.25Y-4.725
X34.488Y-65.725
X34.488Y-124.725
X35.75Y-4.725
X36.988Y-65.725
X36.988Y-124.725
X38.25Y-4.725
X121.142Y-65.962
X121.142Y-124.962
X122.404Y-4.962
X123.642Y-65.962
X123.642Y-124.962
X124.904Y-4.962
X126.142Y-65.962
X126.142Y-124.962
X127.404Y-4.962
T4
X81.438Y-63.76
X81.438Y-66.3
X81.438Y-68.84
X81.438Y-71.38
X81.438Y-122.76
X81.438Y-125.3
X81.438Y-127.84
X81.438Y-130.38
X82.7Y-2.76
X82.7Y-5.3
X82.7Y-7.84
X82.7Y-10.38
X83.978Y-63.76
X83.978Y-66.3
X83.978Y-68.84
X83.978Y-71.38
X83.978Y-122.76
X83.978Y-125.3
X83.978Y-127.84
X83.978Y-130.38
X85.24Y-2.76
X85.24Y-5.3
X85.24Y-7.84
X85.24Y-10.38
X106.25Y-308.097
X106.25Y-343.097
X106.25Y-378.097
X106.25Y-413.097
X108.79Y-308.097
X108.79Y-343.097
X108.79Y-378.097
X108.79Y-413.097
X111.33Y-308.097
X111.33Y-343.097
X111.33Y-378.097
X111.33Y-413.097
X113.87Y-308.097
X113.87Y-343.097
X113.87Y-378.097
X113.87Y-413.097
X116.41Y-308.097
X116.41Y-343.097
X116.41Y-378.097
X116.41Y-413.097
X116.513Y-110.1
X116.513Y-112.6
X116.513Y-169.1
X116.513Y-171.6
X116.9Y-49.1
X116.9Y-51.6
X118.95Y-308.097
X118.95Y-343.097
X118.95Y-378.097
X118.95Y-413.097
X121.49Y-308.097
X121.49Y-343.097
X121.49Y-378.097
X121.49Y-413.097
T5
X7.238Y-88.7
X7.238Y-147.7
X8.5Y-27.7
X17.238Y-68.7
X17.238Y-110.7
X17.238Y-127.7
X17.238Y-169.7
X18.5Y-7.7
X18.5Y-49.7
X99.0Y-280.197
X99.0Y-306.197
X99.0Y-315.197
X99.0Y-341.197
X99.0Y-350.197
X99.0Y-376.197
X99.0Y-385.197
X99.0Y-411.197
X129.0Y-280.197
X129.0Y-306.197
X129.0Y-315.197
X129.0Y-341.197
X129.0Y-350.197
X129.0Y-376.197
X129.0Y-385.197
X129.0Y-411.197
X142.238Y-68.7
X142.238Y-110.7
X142.238Y-127.7
X142.238Y-169.7
X143.5Y-7.7
X143.5Y-49.7
X152.238Y-88.7
X152.238Y-147.7
X153.5Y-27.7
T0
M30
