M48
; DRILL file {KiCad 7.0.6-7.0.6~ubuntu20.04.1} date Tue Jul 11 09:11:54 2023
; FORMAT={-:-/ absolute / metric / decimal}
; #@! TF.CreationDate,2023-07-11T09:11:54+02:00
; #@! TF.GenerationSoftware,Kicad,Pcbnew,7.0.6-7.0.6~ubuntu20.04.1
; #@! TF.FileFunction,MixedPlating,1,2
FMAT,2
METRIC
; #@! TA.AperFunction,Plated,PTH,ViaDrill
T1C0.400
; #@! TA.AperFunction,Plated,PTH,ViaDrill
T2C0.800
; #@! TA.AperFunction,Plated,PTH,ComponentDrill
T3C0.950
; #@! TA.AperFunction,Plated,PTH,ComponentDrill
T4C1.000
; #@! TA.AperFunction,Plated,PTH,ComponentDrill
T5C3.200
%
G90
G05
T1
X4.762Y-34.426
X4.762Y-95.626
X4.762Y-156.826
X4.762Y-218.026
X6.54Y-19.186
X6.54Y-80.386
X6.54Y-141.586
X6.54Y-202.786
X7.048Y-43.57
X7.048Y-104.77
X7.048Y-165.97
X7.048Y-227.17
X9.842Y-10.55
X9.842Y-71.75
X9.842Y-132.95
X9.842Y-194.15
X31.94Y-29.346
X31.94Y-33.156
X31.94Y-90.546
X31.94Y-94.356
X31.94Y-151.746
X31.94Y-155.556
X31.94Y-212.946
X31.94Y-216.756
X39.052Y-54.746
X39.052Y-115.946
X39.052Y-177.146
X39.052Y-238.346
X40.068Y-41.03
X40.068Y-102.23
X40.068Y-163.43
X40.068Y-224.63
X43.878Y-8.264
X43.878Y-69.464
X43.878Y-130.664
X43.878Y-191.864
X48.958Y-38.49
X48.958Y-99.69
X48.958Y-160.89
X48.958Y-222.09
X50.736Y-8.264
X50.736Y-69.464
X50.736Y-130.664
X50.736Y-191.864
X54.292Y-8.01
X54.292Y-55.254
X54.292Y-69.21
X54.292Y-116.454
X54.292Y-130.41
X54.292Y-177.654
X54.292Y-191.61
X54.292Y-238.854
X56.832Y-7.502
X56.832Y-68.702
X56.832Y-129.902
X56.832Y-191.102
X58.7Y-6.3
X58.7Y-67.5
X58.7Y-128.7
X58.7Y-189.9
X61.658Y-6.994
X61.658Y-68.194
X61.658Y-129.394
X61.658Y-190.594
X63.69Y-38.998
X63.69Y-100.198
X63.69Y-161.398
X63.69Y-222.598
X64.706Y-43.316
X64.706Y-104.516
X64.706Y-165.716
X64.706Y-226.916
X68.5Y-29.9
X68.5Y-91.1
X68.5Y-152.3
X68.5Y-213.5
X68.807Y-35.696
X68.807Y-96.896
X68.807Y-158.096
X68.807Y-219.296
X69.278Y-11.058
X69.278Y-72.258
X69.278Y-133.458
X69.278Y-194.658
X69.532Y-34.68
X69.532Y-95.88
X69.532Y-157.08
X69.532Y-218.28
X71.3Y-35.9
X71.3Y-97.1
X71.3Y-158.3
X71.3Y-219.5
X71.5Y-31.5
X71.5Y-92.7
X71.5Y-153.9
X71.5Y-215.1
X72.834Y-47.888
X72.834Y-109.088
X72.834Y-170.288
X72.834Y-231.488
X73.0Y-30.0
X73.0Y-91.2
X73.0Y-152.4
X73.0Y-213.6
X73.342Y-45.856
X73.342Y-107.056
X73.342Y-168.256
X73.342Y-229.456
X73.5Y-40.9
X73.5Y-102.1
X73.5Y-163.3
X73.5Y-224.5
X73.655Y-37.291
X73.655Y-98.491
X73.655Y-159.691
X73.655Y-220.891
X73.9Y-33.9
X73.9Y-95.1
X73.9Y-156.3
X73.9Y-217.5
X74.612Y-36.966
X74.612Y-98.166
X74.612Y-159.366
X74.612Y-220.566
X74.876Y-29.9
X74.876Y-91.1
X74.876Y-152.3
X74.876Y-213.5
X75.12Y-16.138
X75.12Y-45.348
X75.12Y-77.338
X75.12Y-106.548
X75.12Y-138.538
X75.12Y-167.748
X75.12Y-199.738
X75.12Y-228.948
X75.5Y-31.3
X75.5Y-92.5
X75.5Y-153.7
X75.5Y-214.9
X76.136Y-10.55
X76.136Y-71.75
X76.136Y-132.95
X76.136Y-194.15
X76.898Y-18.17
X76.898Y-22.996
X76.898Y-79.37
X76.898Y-84.196
X76.898Y-140.57
X76.898Y-145.396
X76.898Y-201.77
X76.898Y-206.596
X77.148Y-37.978
X77.148Y-99.178
X77.148Y-160.378
X77.148Y-221.578
X77.152Y-38.998
X77.152Y-100.198
X77.152Y-161.398
X77.152Y-222.598
X77.575Y-33.985
X77.575Y-95.185
X77.575Y-156.385
X77.575Y-217.585
X77.7Y-32.5
X77.7Y-93.7
X77.7Y-154.9
X77.7Y-216.1
X78.9Y-19.3
X78.9Y-80.5
X78.9Y-141.7
X78.9Y-202.9
X79.692Y-8.772
X79.692Y-69.972
X79.692Y-131.172
X79.692Y-192.372
X80.3Y-20.9
X80.3Y-82.1
X80.3Y-143.3
X80.3Y-204.5
X80.454Y-31.632
X80.454Y-92.832
X80.454Y-154.032
X80.454Y-215.232
X80.7Y-28.9
X80.7Y-90.1
X80.7Y-151.3
X80.7Y-212.5
X81.47Y-23.25
X81.47Y-48.142
X81.47Y-84.45
X81.47Y-109.342
X81.47Y-145.65
X81.47Y-170.542
X81.47Y-206.85
X81.47Y-231.742
X82.994Y-17.408
X82.994Y-78.608
X82.994Y-139.808
X82.994Y-201.008
X83.1Y-34.1
X83.1Y-95.3
X83.1Y-156.5
X83.1Y-217.7
X83.242Y-38.484
X83.242Y-99.684
X83.242Y-160.884
X83.242Y-222.084
X83.248Y-26.806
X83.248Y-88.006
X83.248Y-149.206
X83.248Y-210.406
X83.502Y-32.648
X83.502Y-43.824
X83.502Y-93.848
X83.502Y-105.024
X83.502Y-155.048
X83.502Y-166.224
X83.502Y-216.248
X83.502Y-227.424
X83.7Y-14.9
X83.7Y-76.1
X83.7Y-137.3
X83.7Y-198.5
X83.756Y-44.84
X83.756Y-56.524
X83.756Y-106.04
X83.756Y-117.724
X83.756Y-167.24
X83.756Y-178.924
X83.756Y-228.44
X83.756Y-240.124
X83.793Y-37.474
X83.793Y-98.674
X83.793Y-159.874
X83.793Y-221.074
X84.01Y-23.25
X84.01Y-84.45
X84.01Y-145.65
X84.01Y-206.85
X84.588Y-45.394
X84.588Y-106.594
X84.588Y-167.794
X84.588Y-228.994
X85.28Y-23.25
X85.28Y-84.45
X85.28Y-145.65
X85.28Y-206.85
X85.543Y-42.808
X85.543Y-104.008
X85.543Y-165.208
X85.543Y-226.408
X86.142Y-38.49
X86.142Y-99.69
X86.142Y-160.89
X86.142Y-222.09
X86.296Y-32.648
X86.296Y-35.188
X86.296Y-93.848
X86.296Y-96.388
X86.296Y-155.048
X86.296Y-157.588
X86.296Y-216.248
X86.296Y-218.788
X86.736Y-23.181
X86.736Y-84.381
X86.736Y-145.581
X86.736Y-206.781
X87.312Y-26.806
X87.312Y-88.006
X87.312Y-149.206
X87.312Y-210.406
X87.566Y-9.788
X87.566Y-70.988
X87.566Y-132.188
X87.566Y-193.388
X88.074Y-18.424
X88.074Y-31.923
X88.074Y-44.332
X88.074Y-79.624
X88.074Y-93.123
X88.074Y-105.532
X88.074Y-140.824
X88.074Y-154.323
X88.074Y-166.732
X88.074Y-202.024
X88.074Y-215.523
X88.074Y-227.932
X88.1Y-34.9
X88.1Y-96.1
X88.1Y-157.3
X88.1Y-218.5
X88.328Y-40.776
X88.328Y-101.976
X88.328Y-163.176
X88.328Y-224.376
X89.09Y-29.6
X89.09Y-90.8
X89.09Y-152.0
X89.09Y-213.2
X89.454Y-37.321
X89.454Y-98.521
X89.454Y-159.721
X89.454Y-220.921
X89.852Y-18.678
X89.852Y-79.878
X89.852Y-141.078
X89.852Y-202.278
X90.614Y-8.518
X90.614Y-69.718
X90.614Y-130.918
X90.614Y-192.118
X90.904Y-37.22
X90.904Y-98.42
X90.904Y-159.62
X90.904Y-220.82
X91.63Y-41.792
X91.63Y-102.992
X91.63Y-164.192
X91.63Y-225.392
X91.884Y-8.518
X91.884Y-17.408
X91.884Y-69.718
X91.884Y-78.608
X91.884Y-130.918
X91.884Y-139.808
X91.884Y-192.118
X91.884Y-201.008
X93.154Y-8.518
X93.154Y-69.718
X93.154Y-130.918
X93.154Y-192.118
X93.3Y-12.5
X93.3Y-73.7
X93.3Y-134.9
X93.3Y-196.1
X93.662Y-47.221
X93.662Y-108.421
X93.662Y-169.621
X93.662Y-230.821
X94.424Y-8.518
X94.424Y-13.889
X94.424Y-69.718
X94.424Y-75.089
X94.424Y-130.918
X94.424Y-136.289
X94.424Y-192.118
X94.424Y-197.489
X95.44Y-14.614
X95.44Y-75.814
X95.44Y-137.014
X95.44Y-198.214
X95.694Y-19.44
X95.694Y-80.64
X95.694Y-141.84
X95.694Y-203.04
X96.202Y-36.966
X96.202Y-98.166
X96.202Y-159.366
X96.202Y-220.566
X96.5Y-30.7
X96.5Y-91.9
X96.5Y-153.1
X96.5Y-214.3
X97.3Y-28.3
X97.3Y-89.5
X97.3Y-150.7
X97.3Y-211.9
X97.976Y-15.634
X97.976Y-76.834
X97.976Y-138.034
X97.976Y-199.234
X98.992Y-15.38
X98.992Y-76.58
X98.992Y-137.78
X98.992Y-198.98
X100.012Y-22.234
X100.012Y-83.434
X100.012Y-144.634
X100.012Y-205.834
X100.135Y-15.253
X100.135Y-76.453
X100.135Y-137.653
X100.135Y-198.853
X101.536Y-52.206
X101.536Y-113.406
X101.536Y-174.606
X101.536Y-235.806
X101.79Y-13.852
X101.79Y-15.884
X101.79Y-47.126
X101.79Y-48.396
X101.79Y-75.052
X101.79Y-77.084
X101.79Y-108.326
X101.79Y-109.596
X101.79Y-136.252
X101.79Y-138.284
X101.79Y-169.526
X101.79Y-170.796
X101.79Y-197.452
X101.79Y-199.484
X101.79Y-230.726
X101.79Y-231.996
X102.5Y-30.7
X102.5Y-91.9
X102.5Y-153.1
X102.5Y-214.3
X104.1Y-23.9
X104.1Y-85.1
X104.1Y-146.3
X104.1Y-207.5
X104.584Y-13.598
X104.584Y-74.798
X104.584Y-135.998
X104.584Y-197.198
X105.854Y-33.41
X105.854Y-94.61
X105.854Y-155.81
X105.854Y-217.01
X106.394Y-17.916
X106.394Y-79.116
X106.394Y-140.316
X106.394Y-201.516
X106.87Y-10.55
X106.87Y-71.75
X106.87Y-132.95
X106.87Y-194.15
X107.124Y-36.712
X107.124Y-97.912
X107.124Y-159.112
X107.124Y-220.312
X110.426Y-48.396
X110.426Y-109.596
X110.426Y-170.796
X110.426Y-231.996
X110.5Y-20.9
X110.5Y-82.1
X110.5Y-143.3
X110.5Y-204.5
X111.188Y-37.474
X111.188Y-98.674
X111.188Y-159.874
X111.188Y-221.074
X111.7Y-25.3
X111.7Y-86.5
X111.7Y-147.7
X111.7Y-208.9
X113.9Y-46.1
X113.9Y-107.3
X113.9Y-168.5
X113.9Y-229.7
X117.03Y-56.778
X117.03Y-117.978
X117.03Y-179.178
X117.03Y-240.378
X119.824Y-10.55
X119.824Y-71.75
X119.824Y-132.95
X119.824Y-194.15
X121.094Y-39.252
X121.094Y-100.452
X121.094Y-161.652
X121.094Y-222.852
X123.126Y-12.074
X123.126Y-73.274
X123.126Y-134.474
X123.126Y-195.674
X126.174Y-7.756
X126.174Y-68.956
X126.174Y-130.156
X126.174Y-191.356
X131.0Y-28.584
X131.0Y-89.784
X131.0Y-150.984
X131.0Y-212.184
X132.778Y-56.27
X132.778Y-117.47
X132.778Y-178.67
X132.778Y-239.87
X140.144Y-3.692
X140.144Y-64.892
X140.144Y-126.092
X140.144Y-187.292
X150.05Y-12.328
X150.05Y-73.528
X150.05Y-134.728
X150.05Y-195.928
X153.86Y-42.808
X153.86Y-104.008
X153.86Y-165.208
X153.86Y-226.408
X154.114Y-17.662
X154.114Y-78.862
X154.114Y-140.062
X154.114Y-201.262
X155.384Y-34.426
X155.384Y-95.626
X155.384Y-156.826
X155.384Y-218.026
T2
X21.958Y-266.44
X23.228Y-271.04
X24.706Y-266.315
X26.128Y-264.56
X27.308Y-276.21
X30.374Y-263.983
X35.618Y-264.66
X37.498Y-277.12
X49.898Y-251.74
X53.448Y-251.65
X58.618Y-251.34
X62.948Y-256.489
X66.955Y-280.017
X71.428Y-300.99
X71.968Y-274.81
X72.164Y-285.8
X72.938Y-284.12
X73.628Y-273.92
X74.028Y-271.72
X74.188Y-269.27
X74.557Y-281.773
X74.868Y-254.2
X75.788Y-284.54
X78.008Y-265.5
X79.508Y-266.77
X79.778Y-270.91
X81.688Y-268.309
X81.908Y-262.73
X82.148Y-279.08
X83.158Y-261.036
X83.158Y-258.09
X83.448Y-283.5
X84.248Y-273.8
X84.389Y-263.971
X84.598Y-269.62
X86.568Y-273.52
X88.023Y-253.647
X88.208Y-271.82
X89.218Y-262.54
X89.384Y-259.647
X89.428Y-254.85
X89.658Y-269.69
X91.108Y-253.56
X91.458Y-291.97
X91.718Y-267.05
X92.208Y-264.5
X92.828Y-260.26
X92.998Y-254.13
X94.088Y-267.29
X95.628Y-269.71
X97.328Y-259.56
X97.618Y-268.69
X97.998Y-266.24
X99.598Y-268.14
X100.768Y-266.36
X101.238Y-276.59
X102.048Y-268.34
X102.738Y-297.28
X103.098Y-288.35
X103.248Y-302.0
X104.098Y-290.94
X107.578Y-254.52
X108.548Y-260.0
X108.848Y-262.5
X110.288Y-276.03
X112.348Y-263.5
X114.548Y-263.6
X119.228Y-258.58
X121.588Y-266.69
X123.838Y-274.64
X124.708Y-258.62
X128.948Y-275.44
X129.178Y-271.03
X132.148Y-264.05
X132.928Y-279.98
X136.198Y-270.73
T3
X31.988Y-249.325
X33.25Y-4.725
X33.25Y-65.925
X33.25Y-127.125
X33.25Y-188.325
X34.488Y-249.325
X35.75Y-4.725
X35.75Y-65.925
X35.75Y-127.125
X35.75Y-188.325
X36.988Y-249.325
X38.25Y-4.725
X38.25Y-65.925
X38.25Y-127.125
X38.25Y-188.325
X121.142Y-249.562
X122.404Y-4.962
X122.404Y-66.162
X122.404Y-127.362
X122.404Y-188.562
X123.642Y-249.562
X124.904Y-4.962
X124.904Y-66.162
X124.904Y-127.362
X124.904Y-188.562
X126.142Y-249.562
X127.404Y-4.962
X127.404Y-66.162
X127.404Y-127.362
X127.404Y-188.562
T4
X81.438Y-247.36
X81.438Y-249.9
X81.438Y-252.44
X81.438Y-254.98
X82.7Y-2.76
X82.7Y-5.3
X82.7Y-7.84
X82.7Y-10.38
X82.7Y-63.96
X82.7Y-66.5
X82.7Y-69.04
X82.7Y-71.58
X82.7Y-125.16
X82.7Y-127.7
X82.7Y-130.24
X82.7Y-132.78
X82.7Y-186.36
X82.7Y-188.9
X82.7Y-191.44
X82.7Y-193.98
X83.978Y-247.36
X83.978Y-249.9
X83.978Y-252.44
X83.978Y-254.98
X85.24Y-2.76
X85.24Y-5.3
X85.24Y-7.84
X85.24Y-10.38
X85.24Y-63.96
X85.24Y-66.5
X85.24Y-69.04
X85.24Y-71.58
X85.24Y-125.16
X85.24Y-127.7
X85.24Y-130.24
X85.24Y-132.78
X85.24Y-186.36
X85.24Y-188.9
X85.24Y-191.44
X85.24Y-193.98
X116.513Y-293.7
X116.513Y-296.2
X116.9Y-49.1
X116.9Y-51.6
X116.9Y-110.3
X116.9Y-112.8
X116.9Y-171.5
X116.9Y-174.0
X116.9Y-232.7
X116.9Y-235.2
T5
X7.238Y-272.3
X8.5Y-27.7
X8.5Y-88.9
X8.5Y-150.1
X8.5Y-211.3
X17.238Y-252.3
X17.238Y-294.3
X18.5Y-7.7
X18.5Y-49.7
X18.5Y-68.9
X18.5Y-110.9
X18.5Y-130.1
X18.5Y-172.1
X18.5Y-191.3
X18.5Y-233.3
X142.238Y-252.3
X142.238Y-294.3
X143.5Y-7.7
X143.5Y-49.7
X143.5Y-68.9
X143.5Y-110.9
X143.5Y-130.1
X143.5Y-172.1
X143.5Y-191.3
X143.5Y-233.3
X152.238Y-272.3
X153.5Y-27.7
X153.5Y-88.9
X153.5Y-150.1
X153.5Y-211.3
T0
M30
