M48
; DRILL file {KiCad 7.0.6-7.0.6~ubuntu20.04.1} date Tue Jul 11 09:00:34 2023
; FORMAT={-:-/ absolute / metric / decimal}
; #@! TF.CreationDate,2023-07-11T09:00:34+02:00
; #@! TF.GenerationSoftware,Kicad,Pcbnew,7.0.6-7.0.6~ubuntu20.04.1
; #@! TF.FileFunction,MixedPlating,1,2
FMAT,2
METRIC
; #@! TA.AperFunction,Plated,PTH,ViaDrill
T1C0.800
; #@! TA.AperFunction,Plated,PTH,ComponentDrill
T2C1.000
; #@! TA.AperFunction,Plated,PTH,ComponentDrill
T3C3.200
%
G90
G05
T1
X96.5Y-119.997
X96.5Y-154.997
X96.5Y-189.997
X96.5Y-224.997
X96.5Y-259.997
X96.5Y-294.997
X96.5Y-329.997
X96.5Y-364.997
X96.5Y-399.997
X96.5Y-434.997
X96.5Y-469.997
X96.75Y-104.997
X96.75Y-139.997
X96.75Y-174.997
X96.75Y-209.997
X96.75Y-244.997
X96.75Y-279.997
X96.75Y-314.997
X96.75Y-349.997
X96.75Y-384.997
X96.75Y-419.997
X96.75Y-454.997
X105.75Y-113.747
X105.75Y-148.747
X105.75Y-183.747
X105.75Y-218.747
X105.75Y-253.747
X105.75Y-288.747
X105.75Y-323.747
X105.75Y-358.747
X105.75Y-393.747
X105.75Y-428.747
X105.75Y-463.747
X105.862Y-117.147
X105.862Y-152.147
X105.862Y-187.147
X105.862Y-222.147
X105.862Y-257.147
X105.862Y-292.147
X105.862Y-327.147
X105.862Y-362.147
X105.862Y-397.147
X105.862Y-432.147
X105.862Y-467.147
X107.487Y-124.497
X107.487Y-159.497
X107.487Y-194.497
X107.487Y-229.497
X107.487Y-264.497
X107.487Y-299.497
X107.487Y-334.497
X107.487Y-369.497
X107.487Y-404.497
X107.487Y-439.497
X107.487Y-474.497
X109.312Y-117.147
X109.312Y-152.147
X109.312Y-187.147
X109.312Y-222.147
X109.312Y-257.147
X109.312Y-292.147
X109.312Y-327.147
X109.312Y-362.147
X109.312Y-397.147
X109.312Y-432.147
X109.312Y-467.147
X109.35Y-100.897
X109.35Y-135.897
X109.35Y-170.897
X109.35Y-205.897
X109.35Y-240.897
X109.35Y-275.897
X109.35Y-310.897
X109.35Y-345.897
X109.35Y-380.897
X109.35Y-415.897
X109.35Y-450.897
X110.35Y-108.747
X110.35Y-143.747
X110.35Y-178.747
X110.35Y-213.747
X110.35Y-248.747
X110.35Y-283.747
X110.35Y-318.747
X110.35Y-353.747
X110.35Y-388.747
X110.35Y-423.747
X110.35Y-458.747
X110.85Y-102.647
X110.85Y-137.647
X110.85Y-172.647
X110.85Y-207.647
X110.85Y-242.647
X110.85Y-277.647
X110.85Y-312.647
X110.85Y-347.647
X110.85Y-382.647
X110.85Y-417.647
X110.85Y-452.647
X110.937Y-124.497
X110.937Y-159.497
X110.937Y-194.497
X110.937Y-229.497
X110.937Y-264.497
X110.937Y-299.497
X110.937Y-334.497
X110.937Y-369.497
X110.937Y-404.497
X110.937Y-439.497
X110.937Y-474.497
X111.0Y-110.997
X111.0Y-145.997
X111.0Y-180.997
X111.0Y-215.997
X111.0Y-250.997
X111.0Y-285.997
X111.0Y-320.997
X111.0Y-355.997
X111.0Y-390.997
X111.0Y-425.997
X111.0Y-460.997
X111.85Y-107.147
X111.85Y-142.147
X111.85Y-177.147
X111.85Y-212.147
X111.85Y-247.147
X111.85Y-282.147
X111.85Y-317.147
X111.85Y-352.147
X111.85Y-387.147
X111.85Y-422.147
X111.85Y-457.147
X112.762Y-117.147
X112.762Y-152.147
X112.762Y-187.147
X112.762Y-222.147
X112.762Y-257.147
X112.762Y-292.147
X112.762Y-327.147
X112.762Y-362.147
X112.762Y-397.147
X112.762Y-432.147
X112.762Y-467.147
X113.6Y-109.397
X113.6Y-144.397
X113.6Y-179.397
X113.6Y-214.397
X113.6Y-249.397
X113.6Y-284.397
X113.6Y-319.397
X113.6Y-354.397
X113.6Y-389.397
X113.6Y-424.397
X113.6Y-459.397
X114.387Y-124.497
X114.387Y-159.497
X114.387Y-194.497
X114.387Y-229.497
X114.387Y-264.497
X114.387Y-299.497
X114.387Y-334.497
X114.387Y-369.497
X114.387Y-404.497
X114.387Y-439.497
X114.387Y-474.497
X116.212Y-117.147
X116.212Y-152.147
X116.212Y-187.147
X116.212Y-222.147
X116.212Y-257.147
X116.212Y-292.147
X116.212Y-327.147
X116.212Y-362.147
X116.212Y-397.147
X116.212Y-432.147
X116.212Y-467.147
X117.837Y-124.497
X117.837Y-159.497
X117.837Y-194.497
X117.837Y-229.497
X117.837Y-264.497
X117.837Y-299.497
X117.837Y-334.497
X117.837Y-369.497
X117.837Y-404.497
X117.837Y-439.497
X117.837Y-474.497
X119.662Y-117.147
X119.662Y-152.147
X119.662Y-187.147
X119.662Y-222.147
X119.662Y-257.147
X119.662Y-292.147
X119.662Y-327.147
X119.662Y-362.147
X119.662Y-397.147
X119.662Y-432.147
X119.662Y-467.147
X120.149Y-105.897
X120.149Y-107.897
X120.149Y-109.897
X120.149Y-140.897
X120.149Y-142.897
X120.149Y-144.897
X120.149Y-175.897
X120.149Y-177.897
X120.149Y-179.897
X120.149Y-210.897
X120.149Y-212.897
X120.149Y-214.897
X120.149Y-245.897
X120.149Y-247.897
X120.149Y-249.897
X120.149Y-280.897
X120.149Y-282.897
X120.149Y-284.897
X120.149Y-315.897
X120.149Y-317.897
X120.149Y-319.897
X120.149Y-321.897
X120.149Y-350.897
X120.149Y-352.897
X120.149Y-354.897
X120.149Y-356.897
X120.149Y-385.897
X120.149Y-387.897
X120.149Y-389.897
X120.149Y-391.897
X120.149Y-420.897
X120.149Y-422.897
X120.149Y-424.897
X120.149Y-426.897
X120.149Y-455.897
X120.149Y-457.897
X120.149Y-459.897
X120.149Y-461.897
X120.25Y-101.247
X120.25Y-136.247
X120.25Y-171.247
X120.25Y-206.247
X120.25Y-241.247
X120.25Y-276.247
X120.25Y-311.247
X120.25Y-346.247
X120.25Y-381.247
X120.25Y-416.247
X120.25Y-451.247
X121.287Y-115.897
X121.287Y-150.897
X121.287Y-185.897
X121.287Y-220.897
X121.287Y-255.897
X121.287Y-290.897
X121.287Y-325.897
X121.287Y-360.897
X121.287Y-395.897
X121.287Y-430.897
X121.287Y-465.897
X121.571Y-111.157
X121.571Y-146.157
X121.571Y-181.157
X121.571Y-216.157
X121.571Y-251.157
X121.571Y-286.157
X124.75Y-124.497
X124.75Y-159.497
X124.75Y-194.497
X124.75Y-229.497
X124.75Y-264.497
X124.75Y-299.497
X124.75Y-334.497
X124.75Y-369.497
X124.75Y-404.497
X124.75Y-439.497
X124.75Y-474.497
X125.75Y-119.247
X125.75Y-154.247
X125.75Y-189.247
X125.75Y-224.247
X125.75Y-259.247
X125.75Y-294.247
X125.75Y-329.247
X125.75Y-364.247
X125.75Y-399.247
X125.75Y-434.247
X125.75Y-469.247
X129.0Y-119.247
X129.0Y-154.247
X129.0Y-189.247
X129.0Y-224.247
X129.0Y-259.247
X129.0Y-294.247
X129.0Y-329.247
X129.0Y-364.247
X129.0Y-399.247
X129.0Y-434.247
X129.0Y-469.247
X135.5Y-119.997
X135.75Y-104.997
X144.75Y-113.747
X144.862Y-117.147
X146.487Y-124.497
X148.312Y-117.147
X148.35Y-100.897
X149.35Y-108.747
X149.85Y-102.647
X149.937Y-124.497
X150.0Y-110.997
X150.85Y-107.147
X151.762Y-117.147
X152.6Y-109.397
X153.387Y-124.497
X155.212Y-117.147
X156.837Y-124.497
X158.662Y-117.147
X159.149Y-105.897
X159.149Y-107.897
X159.149Y-109.897
X159.149Y-111.897
X159.25Y-101.247
X160.287Y-115.897
X163.75Y-124.497
X164.75Y-119.247
X168.0Y-119.247
X174.5Y-119.997
X174.75Y-104.997
X183.75Y-113.747
X183.862Y-117.147
X185.487Y-124.497
X187.312Y-117.147
X187.35Y-100.897
X188.35Y-108.747
X188.85Y-102.647
X188.937Y-124.497
X189.0Y-110.997
X189.85Y-107.147
X190.762Y-117.147
X191.6Y-109.397
X192.387Y-124.497
X194.212Y-117.147
X195.837Y-124.497
X197.662Y-117.147
X198.149Y-105.897
X198.149Y-107.897
X198.149Y-109.897
X198.149Y-111.897
X198.25Y-101.247
X199.287Y-115.897
X202.75Y-124.497
X203.75Y-119.247
X207.0Y-119.247
X213.5Y-119.997
X213.75Y-104.997
X222.75Y-113.747
X222.862Y-117.147
X224.487Y-124.497
X226.312Y-117.147
X226.35Y-100.897
X227.35Y-108.747
X227.85Y-102.647
X227.937Y-124.497
X228.0Y-110.997
X228.85Y-107.147
X229.762Y-117.147
X230.6Y-109.397
X231.387Y-124.497
X233.212Y-117.147
X234.837Y-124.497
X236.662Y-117.147
X237.149Y-105.897
X237.149Y-107.897
X237.149Y-109.897
X237.149Y-111.897
X237.25Y-101.247
X238.287Y-115.897
X241.75Y-124.497
X242.75Y-119.247
X246.0Y-119.247
X252.5Y-119.997
X252.75Y-104.997
X261.75Y-113.747
X261.862Y-117.147
X263.487Y-124.497
X265.312Y-117.147
X265.35Y-100.897
X266.35Y-108.747
X266.85Y-102.647
X266.937Y-124.497
X267.0Y-110.997
X267.85Y-107.147
X268.762Y-117.147
X269.6Y-109.397
X270.387Y-124.497
X272.212Y-117.147
X273.837Y-124.497
X275.662Y-117.147
X276.149Y-105.897
X276.149Y-107.897
X276.149Y-109.897
X276.149Y-111.897
X276.25Y-101.247
X277.287Y-115.897
X280.75Y-124.497
X281.75Y-119.247
X285.0Y-119.247
X291.5Y-119.997
X291.75Y-104.997
X300.75Y-113.747
X300.862Y-117.147
X302.487Y-124.497
X304.312Y-117.147
X304.35Y-100.897
X305.35Y-108.747
X305.85Y-102.647
X305.937Y-124.497
X306.0Y-110.997
X306.85Y-107.147
X307.762Y-117.147
X308.6Y-109.397
X309.387Y-124.497
X311.212Y-117.147
X312.837Y-124.497
X314.662Y-117.147
X315.149Y-105.897
X315.149Y-107.897
X315.149Y-109.897
X315.149Y-111.897
X315.25Y-101.247
X316.287Y-115.897
X319.75Y-124.497
X320.75Y-119.247
X324.0Y-119.247
X330.5Y-119.997
X330.75Y-104.997
X339.75Y-113.747
X339.862Y-117.147
X341.487Y-124.497
X343.312Y-117.147
X343.35Y-100.897
X344.35Y-108.747
X344.85Y-102.647
X344.937Y-124.497
X345.0Y-110.997
X345.85Y-107.147
X346.762Y-117.147
X347.6Y-109.397
X348.387Y-124.497
X350.212Y-117.147
X351.837Y-124.497
X353.662Y-117.147
X354.149Y-105.897
X354.149Y-107.897
X354.149Y-109.897
X354.149Y-111.897
X354.25Y-101.247
X355.287Y-115.897
X358.75Y-124.497
X359.75Y-119.247
X363.0Y-119.247
X369.5Y-119.997
X369.75Y-104.997
X378.75Y-113.747
X378.862Y-117.147
X380.487Y-124.497
X382.312Y-117.147
X382.35Y-100.897
X383.35Y-108.747
X383.85Y-102.647
X383.937Y-124.497
X384.0Y-110.997
X384.85Y-107.147
X385.762Y-117.147
X386.6Y-109.397
X387.387Y-124.497
X389.212Y-117.147
X390.837Y-124.497
X392.662Y-117.147
X393.149Y-105.897
X393.149Y-107.897
X393.149Y-109.897
X393.149Y-111.897
X393.25Y-101.247
X394.287Y-115.897
X397.75Y-124.497
X398.75Y-119.247
X402.0Y-119.247
X408.5Y-119.997
X408.75Y-104.997
X417.75Y-113.747
X417.862Y-117.147
X419.487Y-124.497
X421.312Y-117.147
X421.35Y-100.897
X422.35Y-108.747
X422.85Y-102.647
X422.937Y-124.497
X423.0Y-110.997
X423.85Y-107.147
X424.762Y-117.147
X425.6Y-109.397
X426.387Y-124.497
X428.212Y-117.147
X429.837Y-124.497
X431.662Y-117.147
X432.149Y-105.897
X432.149Y-107.897
X432.149Y-109.897
X432.149Y-111.897
X432.25Y-101.247
X433.287Y-115.897
X436.75Y-124.497
X437.75Y-119.247
X441.0Y-119.247
T2
X106.25Y-128.897
X106.25Y-163.897
X106.25Y-198.897
X106.25Y-233.897
X106.25Y-268.897
X106.25Y-303.897
X106.25Y-338.897
X106.25Y-373.897
X106.25Y-408.897
X106.25Y-443.897
X106.25Y-478.897
X108.79Y-128.897
X108.79Y-163.897
X108.79Y-198.897
X108.79Y-233.897
X108.79Y-268.897
X108.79Y-303.897
X108.79Y-338.897
X108.79Y-373.897
X108.79Y-408.897
X108.79Y-443.897
X108.79Y-478.897
X111.33Y-128.897
X111.33Y-163.897
X111.33Y-198.897
X111.33Y-233.897
X111.33Y-268.897
X111.33Y-303.897
X111.33Y-338.897
X111.33Y-373.897
X111.33Y-408.897
X111.33Y-443.897
X111.33Y-478.897
X113.87Y-128.897
X113.87Y-163.897
X113.87Y-198.897
X113.87Y-233.897
X113.87Y-268.897
X113.87Y-303.897
X113.87Y-338.897
X113.87Y-373.897
X113.87Y-408.897
X113.87Y-443.897
X113.87Y-478.897
X116.41Y-128.897
X116.41Y-163.897
X116.41Y-198.897
X116.41Y-233.897
X116.41Y-268.897
X116.41Y-303.897
X116.41Y-338.897
X116.41Y-373.897
X116.41Y-408.897
X116.41Y-443.897
X116.41Y-478.897
X118.95Y-128.897
X118.95Y-163.897
X118.95Y-198.897
X118.95Y-233.897
X118.95Y-268.897
X118.95Y-303.897
X118.95Y-338.897
X118.95Y-373.897
X118.95Y-408.897
X118.95Y-443.897
X118.95Y-478.897
X121.49Y-128.897
X121.49Y-163.897
X121.49Y-198.897
X121.49Y-233.897
X121.49Y-268.897
X121.49Y-303.897
X121.49Y-338.897
X121.49Y-373.897
X121.49Y-408.897
X121.49Y-443.897
X121.49Y-478.897
X145.25Y-128.897
X147.79Y-128.897
X150.33Y-128.897
X152.87Y-128.897
X155.41Y-128.897
X157.95Y-128.897
X160.49Y-128.897
X184.25Y-128.897
X186.79Y-128.897
X189.33Y-128.897
X191.87Y-128.897
X194.41Y-128.897
X196.95Y-128.897
X199.49Y-128.897
X223.25Y-128.897
X225.79Y-128.897
X228.33Y-128.897
X230.87Y-128.897
X233.41Y-128.897
X235.95Y-128.897
X238.49Y-128.897
X262.25Y-128.897
X264.79Y-128.897
X267.33Y-128.897
X269.87Y-128.897
X272.41Y-128.897
X274.95Y-128.897
X277.49Y-128.897
X301.25Y-128.897
X303.79Y-128.897
X306.33Y-128.897
X308.87Y-128.897
X311.41Y-128.897
X313.95Y-128.897
X316.49Y-128.897
X340.25Y-128.897
X342.79Y-128.897
X345.33Y-128.897
X347.87Y-128.897
X350.41Y-128.897
X352.95Y-128.897
X355.49Y-128.897
X379.25Y-128.897
X381.79Y-128.897
X384.33Y-128.897
X386.87Y-128.897
X389.41Y-128.897
X391.95Y-128.897
X394.49Y-128.897
X418.25Y-128.897
X420.79Y-128.897
X423.33Y-128.897
X425.87Y-128.897
X428.41Y-128.897
X430.95Y-128.897
X433.49Y-128.897
T3
X99.0Y-100.997
X99.0Y-126.997
X99.0Y-135.997
X99.0Y-161.997
X99.0Y-170.997
X99.0Y-196.997
X99.0Y-205.997
X99.0Y-231.997
X99.0Y-240.997
X99.0Y-266.997
X99.0Y-275.997
X99.0Y-301.997
X99.0Y-310.997
X99.0Y-336.997
X99.0Y-345.997
X99.0Y-371.997
X99.0Y-380.997
X99.0Y-406.997
X99.0Y-415.997
X99.0Y-441.997
X99.0Y-450.997
X99.0Y-476.997
X129.0Y-100.997
X129.0Y-126.997
X129.0Y-135.997
X129.0Y-161.997
X129.0Y-170.997
X129.0Y-196.997
X129.0Y-205.997
X129.0Y-231.997
X129.0Y-240.997
X129.0Y-266.997
X129.0Y-275.997
X129.0Y-301.997
X129.0Y-310.997
X129.0Y-336.997
X129.0Y-345.997
X129.0Y-371.997
X129.0Y-380.997
X129.0Y-406.997
X129.0Y-415.997
X129.0Y-441.997
X129.0Y-450.997
X129.0Y-476.997
X138.0Y-100.997
X138.0Y-126.997
X168.0Y-100.997
X168.0Y-126.997
X177.0Y-100.997
X177.0Y-126.997
X207.0Y-100.997
X207.0Y-126.997
X216.0Y-100.997
X216.0Y-126.997
X246.0Y-100.997
X246.0Y-126.997
X255.0Y-100.997
X255.0Y-126.997
X285.0Y-100.997
X285.0Y-126.997
X294.0Y-100.997
X294.0Y-126.997
X324.0Y-100.997
X324.0Y-126.997
X333.0Y-100.997
X333.0Y-126.997
X363.0Y-100.997
X363.0Y-126.997
X372.0Y-100.997
X372.0Y-126.997
X402.0Y-100.997
X402.0Y-126.997
X411.0Y-100.997
X411.0Y-126.997
X441.0Y-100.997
X441.0Y-126.997
T0
M30
