M48
; DRILL file {KiCad 7.0.6-7.0.6~ubuntu20.04.1} date Tue Jul 11 10:17:37 2023
; FORMAT={-:-/ absolute / metric / decimal}
; #@! TF.CreationDate,2023-07-11T10:17:37+02:00
; #@! TF.GenerationSoftware,Kicad,Pcbnew,7.0.6-7.0.6~ubuntu20.04.1
; #@! TF.FileFunction,MixedPlating,1,2
FMAT,2
METRIC
; #@! TA.AperFunction,Plated,PTH,ViaDrill
T1C0.400
; #@! TA.AperFunction,Plated,PTH,ComponentDrill
T2C0.950
; #@! TA.AperFunction,Plated,PTH,ComponentDrill
T3C1.000
; #@! TA.AperFunction,Plated,PTH,ComponentDrill
T4C3.200
%
G90
G05
T1
X4.762Y-34.426
X6.54Y-19.186
X7.048Y-43.57
X9.842Y-10.55
X31.94Y-29.346
X31.94Y-33.156
X39.052Y-54.746
X40.068Y-41.03
X43.878Y-8.264
X48.958Y-38.49
X50.736Y-8.264
X54.292Y-8.01
X54.292Y-55.254
X56.832Y-7.502
X58.7Y-6.3
X61.658Y-6.994
X63.69Y-38.998
X64.706Y-43.316
X68.5Y-29.9
X68.807Y-35.696
X69.278Y-11.058
X69.532Y-34.68
X71.3Y-35.9
X71.5Y-31.5
X72.834Y-47.888
X73.0Y-30.0
X73.342Y-45.856
X73.5Y-40.9
X73.655Y-37.291
X73.9Y-33.9
X74.612Y-36.966
X74.876Y-29.9
X75.12Y-16.138
X75.12Y-45.348
X75.5Y-31.3
X76.136Y-10.55
X76.898Y-18.17
X76.898Y-22.996
X77.148Y-37.978
X77.152Y-38.998
X77.575Y-33.985
X77.7Y-32.5
X78.9Y-19.3
X79.692Y-8.772
X80.3Y-20.9
X80.454Y-31.632
X80.7Y-28.9
X81.47Y-23.25
X81.47Y-48.142
X82.994Y-17.408
X83.1Y-34.1
X83.242Y-38.484
X83.248Y-26.806
X83.502Y-32.648
X83.502Y-43.824
X83.7Y-14.9
X83.756Y-44.84
X83.756Y-56.524
X83.793Y-37.474
X84.01Y-23.25
X84.588Y-45.394
X85.28Y-23.25
X85.543Y-42.808
X86.142Y-38.49
X86.296Y-32.648
X86.296Y-35.188
X86.736Y-23.181
X87.312Y-26.806
X87.566Y-9.788
X88.074Y-18.424
X88.074Y-31.923
X88.074Y-44.332
X88.1Y-34.9
X88.328Y-40.776
X89.09Y-29.6
X89.454Y-37.321
X89.852Y-18.678
X90.614Y-8.518
X90.904Y-37.22
X91.63Y-41.792
X91.884Y-8.518
X91.884Y-17.408
X93.154Y-8.518
X93.3Y-12.5
X93.662Y-47.221
X94.424Y-8.518
X94.424Y-13.889
X95.44Y-14.614
X95.694Y-19.44
X96.202Y-36.966
X96.5Y-30.7
X97.3Y-28.3
X97.976Y-15.634
X98.992Y-15.38
X100.012Y-22.234
X100.135Y-15.253
X101.536Y-52.206
X101.79Y-13.852
X101.79Y-15.884
X101.79Y-47.126
X101.79Y-48.396
X102.5Y-30.7
X104.1Y-23.9
X104.584Y-13.598
X105.854Y-33.41
X106.394Y-17.916
X106.87Y-10.55
X107.124Y-36.712
X110.426Y-48.396
X110.5Y-20.9
X111.188Y-37.474
X111.7Y-25.3
X113.9Y-46.1
X117.03Y-56.778
X119.824Y-10.55
X121.094Y-39.252
X123.126Y-12.074
X126.174Y-7.756
X131.0Y-28.584
X132.778Y-56.27
X140.144Y-3.692
X150.05Y-12.328
X153.86Y-42.808
X154.114Y-17.662
X155.384Y-34.426
T2
X33.25Y-4.725
X35.75Y-4.725
X38.25Y-4.725
X122.404Y-4.962
X124.904Y-4.962
X127.404Y-4.962
T3
X82.7Y-2.76
X82.7Y-5.3
X82.7Y-7.84
X82.7Y-10.38
X85.24Y-2.76
X85.24Y-5.3
X85.24Y-7.84
X85.24Y-10.38
X116.9Y-49.1
X116.9Y-51.6
T4
X8.5Y-27.7
X18.5Y-7.7
X18.5Y-49.7
X143.5Y-7.7
X143.5Y-49.7
X153.5Y-27.7
T0
M30
