M48
; DRILL file {KiCad 7.0.6-7.0.6~ubuntu20.04.1} date Tue Jul 11 09:00:17 2023
; FORMAT={-:-/ absolute / metric / decimal}
; #@! TF.CreationDate,2023-07-11T09:00:17+02:00
; #@! TF.GenerationSoftware,Kicad,Pcbnew,7.0.6-7.0.6~ubuntu20.04.1
; #@! TF.FileFunction,MixedPlating,1,2
FMAT,2
METRIC
; #@! TA.AperFunction,Plated,PTH,ViaDrill
T1C0.400
; #@! TA.AperFunction,Plated,PTH,ViaDrill
T2C0.800
; #@! TA.AperFunction,Plated,PTH,ComponentDrill
T3C0.950
; #@! TA.AperFunction,Plated,PTH,ComponentDrill
T4C1.000
; #@! TA.AperFunction,Plated,PTH,ComponentDrill
T5C3.200
%
G90
G05
T1
X4.762Y-34.426
X6.54Y-19.186
X7.048Y-43.57
X9.842Y-10.55
X31.94Y-29.346
X31.94Y-33.156
X39.052Y-54.746
X40.068Y-41.03
X43.878Y-8.264
X48.958Y-38.49
X50.736Y-8.264
X54.292Y-8.01
X54.292Y-55.254
X56.832Y-7.502
X58.7Y-6.3
X61.658Y-6.994
X63.69Y-38.998
X64.706Y-43.316
X68.5Y-29.9
X68.807Y-35.696
X69.278Y-11.058
X69.532Y-34.68
X71.3Y-35.9
X71.5Y-31.5
X72.834Y-47.888
X73.0Y-30.0
X73.342Y-45.856
X73.5Y-40.9
X73.655Y-37.291
X73.9Y-33.9
X74.612Y-36.966
X74.876Y-29.9
X75.12Y-16.138
X75.12Y-45.348
X75.5Y-31.3
X76.136Y-10.55
X76.898Y-18.17
X76.898Y-22.996
X77.148Y-37.978
X77.152Y-38.998
X77.575Y-33.985
X77.7Y-32.5
X78.9Y-19.3
X79.692Y-8.772
X80.3Y-20.9
X80.454Y-31.632
X80.7Y-28.9
X81.47Y-23.25
X81.47Y-48.142
X82.994Y-17.408
X83.1Y-34.1
X83.242Y-38.484
X83.248Y-26.806
X83.502Y-32.648
X83.502Y-43.824
X83.7Y-14.9
X83.756Y-44.84
X83.756Y-56.524
X83.793Y-37.474
X84.01Y-23.25
X84.588Y-45.394
X85.28Y-23.25
X85.543Y-42.808
X86.142Y-38.49
X86.296Y-32.648
X86.296Y-35.188
X86.736Y-23.181
X87.312Y-26.806
X87.566Y-9.788
X88.074Y-18.424
X88.074Y-31.923
X88.074Y-44.332
X88.1Y-34.9
X88.328Y-40.776
X89.09Y-29.6
X89.454Y-37.321
X89.852Y-18.678
X90.614Y-8.518
X90.904Y-37.22
X91.63Y-41.792
X91.884Y-8.518
X91.884Y-17.408
X93.154Y-8.518
X93.3Y-12.5
X93.662Y-47.221
X94.424Y-8.518
X94.424Y-13.889
X95.44Y-14.614
X95.694Y-19.44
X96.202Y-36.966
X96.5Y-30.7
X97.3Y-28.3
X97.976Y-15.634
X98.992Y-15.38
X100.012Y-22.234
X100.135Y-15.253
X101.536Y-52.206
X101.79Y-13.852
X101.79Y-15.884
X101.79Y-47.126
X101.79Y-48.396
X102.5Y-30.7
X104.1Y-23.9
X104.584Y-13.598
X105.854Y-33.41
X106.394Y-17.916
X106.87Y-10.55
X107.124Y-36.712
X110.426Y-48.396
X110.5Y-20.9
X111.188Y-37.474
X111.7Y-25.3
X113.9Y-46.1
X117.03Y-56.778
X119.824Y-10.55
X121.094Y-39.252
X123.126Y-12.074
X126.174Y-7.756
X131.0Y-28.584
X132.778Y-56.27
X140.144Y-3.692
X150.05Y-12.328
X153.86Y-42.808
X154.114Y-17.662
X155.384Y-34.426
T2
X21.958Y-82.84
X21.958Y-141.84
X21.958Y-200.84
X21.958Y-259.84
X21.958Y-318.84
X21.958Y-377.84
X21.958Y-436.84
X23.228Y-87.44
X23.228Y-146.44
X23.228Y-205.44
X23.228Y-264.44
X23.228Y-323.44
X23.228Y-382.44
X23.228Y-441.44
X24.706Y-82.715
X24.706Y-141.715
X24.706Y-200.715
X24.706Y-259.715
X24.706Y-318.715
X24.706Y-377.715
X24.706Y-436.715
X26.128Y-80.96
X26.128Y-139.96
X26.128Y-198.96
X26.128Y-257.96
X26.128Y-316.96
X26.128Y-375.96
X26.128Y-434.96
X27.308Y-92.61
X27.308Y-151.61
X27.308Y-210.61
X27.308Y-269.61
X27.308Y-328.61
X27.308Y-387.61
X27.308Y-446.61
X30.374Y-80.383
X30.374Y-139.383
X30.374Y-198.383
X30.374Y-257.383
X30.374Y-316.383
X30.374Y-375.383
X30.374Y-434.383
X35.618Y-81.06
X35.618Y-140.06
X35.618Y-199.06
X35.618Y-258.06
X35.618Y-317.06
X35.618Y-376.06
X35.618Y-435.06
X37.498Y-93.52
X37.498Y-152.52
X37.498Y-211.52
X37.498Y-270.52
X37.498Y-329.52
X37.498Y-388.52
X37.498Y-447.52
X49.898Y-68.14
X49.898Y-127.14
X49.898Y-186.14
X49.898Y-245.14
X49.898Y-304.14
X49.898Y-363.14
X49.898Y-422.14
X53.448Y-68.05
X53.448Y-127.05
X53.448Y-186.05
X53.448Y-245.05
X53.448Y-304.05
X53.448Y-363.05
X53.448Y-422.05
X58.618Y-67.74
X58.618Y-126.74
X58.618Y-185.74
X58.618Y-244.74
X58.618Y-303.74
X58.618Y-362.74
X58.618Y-421.74
X62.948Y-72.889
X62.948Y-131.889
X62.948Y-190.889
X62.948Y-249.889
X62.948Y-308.889
X62.948Y-367.889
X62.948Y-426.889
X66.955Y-96.417
X66.955Y-155.417
X66.955Y-214.417
X66.955Y-273.417
X66.955Y-332.417
X66.955Y-391.417
X66.955Y-450.417
X71.428Y-117.39
X71.428Y-176.39
X71.428Y-235.39
X71.428Y-294.39
X71.428Y-353.39
X71.428Y-412.39
X71.428Y-471.39
X71.968Y-91.21
X71.968Y-150.21
X71.968Y-209.21
X71.968Y-268.21
X71.968Y-327.21
X71.968Y-386.21
X71.968Y-445.21
X72.164Y-102.2
X72.164Y-161.2
X72.164Y-220.2
X72.164Y-279.2
X72.164Y-338.2
X72.164Y-397.2
X72.164Y-456.2
X72.938Y-100.52
X72.938Y-159.52
X72.938Y-218.52
X72.938Y-277.52
X72.938Y-336.52
X72.938Y-395.52
X72.938Y-454.52
X73.628Y-90.32
X73.628Y-149.32
X73.628Y-208.32
X73.628Y-267.32
X73.628Y-326.32
X73.628Y-385.32
X73.628Y-444.32
X74.028Y-88.12
X74.028Y-147.12
X74.028Y-206.12
X74.028Y-265.12
X74.028Y-324.12
X74.028Y-383.12
X74.028Y-442.12
X74.188Y-85.67
X74.188Y-144.67
X74.188Y-203.67
X74.188Y-262.67
X74.188Y-321.67
X74.188Y-380.67
X74.188Y-439.67
X74.557Y-98.173
X74.557Y-157.173
X74.557Y-216.173
X74.557Y-275.173
X74.557Y-334.173
X74.557Y-393.173
X74.557Y-452.173
X74.868Y-70.6
X74.868Y-129.6
X74.868Y-188.6
X74.868Y-247.6
X74.868Y-306.6
X74.868Y-365.6
X74.868Y-424.6
X75.788Y-100.94
X75.788Y-159.94
X75.788Y-218.94
X75.788Y-277.94
X75.788Y-336.94
X75.788Y-395.94
X75.788Y-454.94
X78.008Y-81.9
X78.008Y-140.9
X78.008Y-199.9
X78.008Y-258.9
X78.008Y-317.9
X78.008Y-376.9
X78.008Y-435.9
X79.508Y-83.17
X79.508Y-142.17
X79.508Y-201.17
X79.508Y-260.17
X79.508Y-319.17
X79.508Y-378.17
X79.508Y-437.17
X79.778Y-87.31
X79.778Y-146.31
X79.778Y-205.31
X79.778Y-264.31
X79.778Y-323.31
X79.778Y-382.31
X79.778Y-441.31
X81.688Y-84.709
X81.688Y-143.709
X81.688Y-202.709
X81.688Y-261.709
X81.688Y-320.709
X81.688Y-379.709
X81.688Y-438.709
X81.908Y-79.13
X81.908Y-138.13
X81.908Y-197.13
X81.908Y-256.13
X81.908Y-315.13
X81.908Y-374.13
X81.908Y-433.13
X82.148Y-95.48
X82.148Y-154.48
X82.148Y-213.48
X82.148Y-272.48
X82.148Y-331.48
X82.148Y-390.48
X82.148Y-449.48
X83.158Y-77.436
X83.158Y-136.436
X83.158Y-195.436
X83.158Y-254.436
X83.158Y-313.436
X83.158Y-372.436
X83.158Y-431.436
X83.158Y-74.49
X83.158Y-133.49
X83.158Y-192.49
X83.158Y-251.49
X83.158Y-310.49
X83.158Y-369.49
X83.158Y-428.49
X83.448Y-99.9
X83.448Y-158.9
X83.448Y-217.9
X83.448Y-276.9
X83.448Y-335.9
X83.448Y-394.9
X83.448Y-453.9
X84.248Y-90.2
X84.248Y-149.2
X84.248Y-208.2
X84.248Y-267.2
X84.248Y-326.2
X84.248Y-385.2
X84.248Y-444.2
X84.389Y-80.371
X84.389Y-139.371
X84.389Y-198.371
X84.389Y-257.371
X84.389Y-316.371
X84.389Y-375.371
X84.389Y-434.371
X84.598Y-86.02
X84.598Y-145.02
X84.598Y-204.02
X84.598Y-263.02
X84.598Y-322.02
X84.598Y-381.02
X84.598Y-440.02
X86.568Y-89.92
X86.568Y-148.92
X86.568Y-207.92
X86.568Y-266.92
X86.568Y-325.92
X86.568Y-384.92
X86.568Y-443.92
X88.023Y-70.047
X88.023Y-129.047
X88.023Y-188.047
X88.023Y-247.047
X88.023Y-306.047
X88.023Y-365.047
X88.023Y-424.047
X88.208Y-88.22
X88.208Y-147.22
X88.208Y-206.22
X88.208Y-265.22
X88.208Y-324.22
X88.208Y-383.22
X88.208Y-442.22
X89.218Y-78.94
X89.218Y-137.94
X89.218Y-196.94
X89.218Y-255.94
X89.218Y-314.94
X89.218Y-373.94
X89.218Y-432.94
X89.384Y-76.047
X89.384Y-135.047
X89.384Y-194.047
X89.384Y-253.047
X89.384Y-312.047
X89.384Y-371.047
X89.384Y-430.047
X89.428Y-71.25
X89.428Y-130.25
X89.428Y-189.25
X89.428Y-248.25
X89.428Y-307.25
X89.428Y-366.25
X89.428Y-425.25
X89.658Y-86.09
X89.658Y-145.09
X89.658Y-204.09
X89.658Y-263.09
X89.658Y-322.09
X89.658Y-381.09
X89.658Y-440.09
X91.108Y-69.96
X91.108Y-128.96
X91.108Y-187.96
X91.108Y-246.96
X91.108Y-305.96
X91.108Y-364.96
X91.108Y-423.96
X91.458Y-108.37
X91.458Y-167.37
X91.458Y-226.37
X91.458Y-285.37
X91.458Y-344.37
X91.458Y-403.37
X91.458Y-462.37
X91.718Y-83.45
X91.718Y-142.45
X91.718Y-201.45
X91.718Y-260.45
X91.718Y-319.45
X91.718Y-378.45
X91.718Y-437.45
X92.208Y-80.9
X92.208Y-139.9
X92.208Y-198.9
X92.208Y-257.9
X92.208Y-316.9
X92.208Y-375.9
X92.208Y-434.9
X92.828Y-76.66
X92.828Y-135.66
X92.828Y-194.66
X92.828Y-253.66
X92.828Y-312.66
X92.828Y-371.66
X92.828Y-430.66
X92.998Y-70.53
X92.998Y-129.53
X92.998Y-188.53
X92.998Y-247.53
X92.998Y-306.53
X92.998Y-365.53
X92.998Y-424.53
X94.088Y-83.69
X94.088Y-142.69
X94.088Y-201.69
X94.088Y-260.69
X94.088Y-319.69
X94.088Y-378.69
X94.088Y-437.69
X95.628Y-86.11
X95.628Y-145.11
X95.628Y-204.11
X95.628Y-263.11
X95.628Y-322.11
X95.628Y-381.11
X95.628Y-440.11
X97.328Y-75.96
X97.328Y-134.96
X97.328Y-193.96
X97.328Y-252.96
X97.328Y-311.96
X97.328Y-370.96
X97.328Y-429.96
X97.618Y-85.09
X97.618Y-144.09
X97.618Y-203.09
X97.618Y-262.09
X97.618Y-321.09
X97.618Y-380.09
X97.618Y-439.09
X97.998Y-82.64
X97.998Y-141.64
X97.998Y-200.64
X97.998Y-259.64
X97.998Y-318.64
X97.998Y-377.64
X97.998Y-436.64
X99.598Y-84.54
X99.598Y-143.54
X99.598Y-202.54
X99.598Y-261.54
X99.598Y-320.54
X99.598Y-379.54
X99.598Y-438.54
X100.768Y-82.76
X100.768Y-141.76
X100.768Y-200.76
X100.768Y-259.76
X100.768Y-318.76
X100.768Y-377.76
X100.768Y-436.76
X101.238Y-92.99
X101.238Y-151.99
X101.238Y-210.99
X101.238Y-269.99
X101.238Y-328.99
X101.238Y-387.99
X101.238Y-446.99
X102.048Y-84.74
X102.048Y-143.74
X102.048Y-202.74
X102.048Y-261.74
X102.048Y-320.74
X102.048Y-379.74
X102.048Y-438.74
X102.738Y-113.68
X102.738Y-172.68
X102.738Y-231.68
X102.738Y-290.68
X102.738Y-349.68
X102.738Y-408.68
X102.738Y-467.68
X103.098Y-104.75
X103.098Y-163.75
X103.098Y-222.75
X103.098Y-281.75
X103.098Y-340.75
X103.098Y-399.75
X103.098Y-458.75
X103.248Y-118.4
X103.248Y-177.4
X103.248Y-236.4
X103.248Y-295.4
X103.248Y-354.4
X103.248Y-413.4
X103.248Y-472.4
X104.098Y-107.34
X104.098Y-166.34
X104.098Y-225.34
X104.098Y-284.34
X104.098Y-343.34
X104.098Y-402.34
X104.098Y-461.34
X107.578Y-70.92
X107.578Y-129.92
X107.578Y-188.92
X107.578Y-247.92
X107.578Y-306.92
X107.578Y-365.92
X107.578Y-424.92
X108.548Y-76.4
X108.548Y-135.4
X108.548Y-194.4
X108.548Y-253.4
X108.548Y-312.4
X108.548Y-371.4
X108.548Y-430.4
X108.848Y-78.9
X108.848Y-137.9
X108.848Y-196.9
X108.848Y-255.9
X108.848Y-314.9
X108.848Y-373.9
X108.848Y-432.9
X110.288Y-92.43
X110.288Y-151.43
X110.288Y-210.43
X110.288Y-269.43
X110.288Y-328.43
X110.288Y-387.43
X110.288Y-446.43
X112.348Y-79.9
X112.348Y-138.9
X112.348Y-197.9
X112.348Y-256.9
X112.348Y-315.9
X112.348Y-374.9
X112.348Y-433.9
X114.548Y-80.0
X114.548Y-139.0
X114.548Y-198.0
X114.548Y-257.0
X114.548Y-316.0
X114.548Y-375.0
X114.548Y-434.0
X119.228Y-74.98
X119.228Y-133.98
X119.228Y-192.98
X119.228Y-251.98
X119.228Y-310.98
X119.228Y-369.98
X119.228Y-428.98
X121.588Y-83.09
X121.588Y-142.09
X121.588Y-201.09
X121.588Y-260.09
X121.588Y-319.09
X121.588Y-378.09
X121.588Y-437.09
X123.838Y-91.04
X123.838Y-150.04
X123.838Y-209.04
X123.838Y-268.04
X123.838Y-327.04
X123.838Y-386.04
X123.838Y-445.04
X124.708Y-75.02
X124.708Y-134.02
X124.708Y-193.02
X124.708Y-252.02
X124.708Y-311.02
X124.708Y-370.02
X124.708Y-429.02
X128.948Y-91.84
X128.948Y-150.84
X128.948Y-209.84
X128.948Y-268.84
X128.948Y-327.84
X128.948Y-386.84
X128.948Y-445.84
X129.178Y-87.43
X129.178Y-146.43
X129.178Y-205.43
X129.178Y-264.43
X129.178Y-323.43
X129.178Y-382.43
X129.178Y-441.43
X132.148Y-80.45
X132.148Y-139.45
X132.148Y-198.45
X132.148Y-257.45
X132.148Y-316.45
X132.148Y-375.45
X132.148Y-434.45
X132.928Y-96.38
X132.928Y-155.38
X132.928Y-214.38
X132.928Y-273.38
X132.928Y-332.38
X132.928Y-391.38
X132.928Y-450.38
X136.198Y-87.13
X136.198Y-146.13
X136.198Y-205.13
X136.198Y-264.13
X136.198Y-323.13
X136.198Y-382.13
X136.198Y-441.13
X183.158Y-21.64
X183.158Y-82.84
X184.428Y-26.24
X184.428Y-87.44
X185.906Y-21.515
X185.906Y-82.715
X187.328Y-19.76
X187.328Y-80.96
X188.508Y-31.41
X188.508Y-92.61
X191.573Y-19.183
X191.573Y-80.383
X196.818Y-19.86
X196.818Y-81.06
X198.698Y-32.32
X198.698Y-93.52
X211.098Y-6.94
X211.098Y-68.14
X214.648Y-6.85
X214.648Y-68.05
X219.818Y-6.54
X219.818Y-67.74
X224.148Y-11.689
X224.148Y-72.889
X228.155Y-35.217
X228.155Y-96.417
X232.628Y-56.19
X232.628Y-117.39
X233.168Y-30.01
X233.168Y-91.21
X233.364Y-41.0
X233.364Y-102.2
X234.138Y-39.32
X234.138Y-100.52
X234.828Y-29.12
X234.828Y-90.32
X235.228Y-26.92
X235.228Y-88.12
X235.388Y-24.47
X235.388Y-85.67
X235.757Y-36.973
X235.757Y-98.173
X236.068Y-9.4
X236.068Y-70.6
X236.988Y-39.74
X236.988Y-100.94
X239.208Y-20.7
X239.208Y-81.9
X240.708Y-21.97
X240.708Y-83.17
X240.978Y-26.11
X240.978Y-87.31
X242.888Y-23.509
X242.888Y-84.709
X243.108Y-17.93
X243.108Y-79.13
X243.348Y-34.28
X243.348Y-95.48
X244.358Y-16.236
X244.358Y-77.436
X244.358Y-13.29
X244.358Y-74.49
X244.648Y-38.7
X244.648Y-99.9
X245.448Y-29.0
X245.448Y-90.2
X245.589Y-19.171
X245.589Y-80.371
X245.798Y-24.82
X245.798Y-86.02
X247.768Y-28.72
X247.768Y-89.92
X249.223Y-8.847
X249.223Y-70.047
X249.408Y-27.02
X249.408Y-88.22
X250.418Y-17.74
X250.418Y-78.94
X250.584Y-14.847
X250.584Y-76.047
X250.628Y-10.05
X250.628Y-71.25
X250.858Y-24.89
X250.858Y-86.09
X252.308Y-8.76
X252.308Y-69.96
X252.658Y-47.17
X252.658Y-108.37
X252.918Y-22.25
X252.918Y-83.45
X253.408Y-19.7
X253.408Y-80.9
X254.028Y-15.46
X254.028Y-76.66
X254.198Y-9.33
X254.198Y-70.53
X255.288Y-22.49
X255.288Y-83.69
X256.828Y-24.91
X256.828Y-86.11
X258.528Y-14.76
X258.528Y-75.96
X258.818Y-23.89
X258.818Y-85.09
X259.198Y-21.44
X259.198Y-82.64
X260.798Y-23.34
X260.798Y-84.54
X261.968Y-21.56
X261.968Y-82.76
X262.438Y-31.79
X262.438Y-92.99
X263.248Y-23.54
X263.248Y-84.74
X263.938Y-52.48
X263.938Y-113.68
X264.298Y-43.55
X264.298Y-104.75
X264.448Y-57.2
X264.448Y-118.4
X265.298Y-46.14
X265.298Y-107.34
X268.778Y-9.72
X268.778Y-70.92
X269.748Y-15.2
X269.748Y-76.4
X270.048Y-17.7
X270.048Y-78.9
X271.488Y-31.23
X271.488Y-92.43
X273.548Y-18.7
X273.548Y-79.9
X275.748Y-18.8
X275.748Y-80.0
X280.428Y-13.78
X280.428Y-74.98
X282.788Y-21.89
X282.788Y-83.09
X285.038Y-29.84
X285.038Y-91.04
X285.908Y-13.82
X285.908Y-75.02
X290.148Y-30.64
X290.148Y-91.84
X290.378Y-26.23
X290.378Y-87.43
X293.348Y-19.25
X293.348Y-80.45
X294.128Y-35.18
X294.128Y-96.38
X297.398Y-25.93
X297.398Y-87.13
X321.676Y-84.7
X321.926Y-69.7
X330.926Y-78.45
X331.039Y-81.85
X332.664Y-89.2
X334.489Y-81.85
X334.526Y-65.6
X335.526Y-73.45
X336.026Y-67.35
X336.114Y-89.2
X336.176Y-75.7
X337.026Y-71.85
X337.939Y-81.85
X338.776Y-74.1
X339.564Y-89.2
X341.389Y-81.85
X341.635Y-21.64
X342.905Y-26.24
X343.014Y-89.2
X344.383Y-21.515
X344.839Y-81.85
X345.326Y-70.6
X345.326Y-72.6
X345.326Y-74.6
X345.426Y-65.95
X345.805Y-19.76
X346.464Y-80.6
X346.747Y-75.86
X346.985Y-31.41
X349.926Y-89.2
X350.05Y-19.183
X350.926Y-83.95
X354.176Y-83.95
X355.295Y-19.86
X357.175Y-32.32
X360.676Y-84.7
X360.926Y-69.7
X369.575Y-6.94
X369.926Y-78.45
X370.039Y-81.85
X371.664Y-89.2
X373.125Y-6.85
X373.489Y-81.85
X373.526Y-65.6
X374.526Y-73.45
X375.026Y-67.35
X375.114Y-89.2
X375.176Y-75.7
X376.026Y-71.85
X376.939Y-81.85
X377.776Y-74.1
X378.295Y-6.54
X378.564Y-89.2
X380.389Y-81.85
X382.014Y-89.2
X382.625Y-11.689
X383.839Y-81.85
X384.326Y-70.6
X384.326Y-72.6
X384.326Y-74.6
X384.426Y-65.95
X385.464Y-80.6
X385.747Y-75.86
X386.632Y-35.217
X388.926Y-89.2
X389.926Y-83.95
X391.105Y-56.19
X391.645Y-30.01
X391.84Y-41.0
X392.615Y-39.32
X393.176Y-83.95
X393.305Y-29.12
X393.705Y-26.92
X393.865Y-24.47
X394.233Y-36.973
X394.545Y-9.4
X395.465Y-39.74
X397.685Y-20.7
X399.185Y-21.97
X399.455Y-26.11
X399.676Y-84.7
X399.926Y-69.7
X401.365Y-23.509
X401.585Y-17.93
X401.825Y-34.28
X402.834Y-16.236
X402.835Y-13.29
X403.125Y-38.7
X403.925Y-29.0
X404.066Y-19.171
X404.275Y-24.82
X406.245Y-28.72
X407.7Y-8.847
X407.885Y-27.02
X408.895Y-17.74
X408.926Y-78.45
X409.039Y-81.85
X409.061Y-14.847
X409.105Y-10.05
X409.335Y-24.89
X410.664Y-89.2
X410.785Y-8.76
X411.135Y-47.17
X411.395Y-22.25
X411.885Y-19.7
X412.489Y-81.85
X412.505Y-15.46
X412.526Y-65.6
X412.675Y-9.33
X413.526Y-73.45
X413.765Y-22.49
X414.026Y-67.35
X414.114Y-89.2
X414.176Y-75.7
X415.026Y-71.85
X415.305Y-24.91
X415.939Y-81.85
X416.776Y-74.1
X417.005Y-14.76
X417.295Y-23.89
X417.564Y-89.2
X417.674Y-21.44
X419.275Y-23.34
X419.389Y-81.85
X420.445Y-21.56
X420.915Y-31.79
X421.014Y-89.2
X421.725Y-23.54
X422.415Y-52.48
X422.775Y-43.55
X422.839Y-81.85
X422.925Y-57.2
X423.326Y-70.6
X423.326Y-72.6
X423.326Y-74.6
X423.426Y-65.95
X423.775Y-46.14
X424.464Y-80.6
X424.747Y-75.86
X427.255Y-9.72
X427.926Y-89.2
X428.225Y-15.2
X428.525Y-17.7
X428.926Y-83.95
X429.965Y-31.23
X432.025Y-18.7
X432.176Y-83.95
X434.225Y-18.8
X438.676Y-84.7
X438.905Y-13.78
X438.926Y-69.7
X441.265Y-21.89
X443.515Y-29.84
X444.385Y-13.82
X447.926Y-78.45
X448.039Y-81.85
X448.625Y-30.64
X448.855Y-26.23
X449.664Y-89.2
X451.489Y-81.85
X451.526Y-65.6
X451.825Y-19.25
X452.526Y-73.45
X452.605Y-35.18
X453.026Y-67.35
X453.114Y-89.2
X453.176Y-75.7
X454.026Y-71.85
X454.939Y-81.85
X455.776Y-74.1
X455.875Y-25.93
X456.564Y-89.2
X458.389Y-81.85
X460.014Y-89.2
X461.839Y-81.85
X462.326Y-70.6
X462.326Y-72.6
X462.326Y-74.6
X462.426Y-65.95
X463.464Y-80.6
X463.747Y-75.86
X466.926Y-89.2
X467.926Y-83.95
X471.176Y-83.95
T3
X31.988Y-65.725
X31.988Y-124.725
X31.988Y-183.725
X31.988Y-242.725
X31.988Y-301.725
X31.988Y-360.725
X31.988Y-419.725
X33.25Y-4.725
X34.488Y-65.725
X34.488Y-124.725
X34.488Y-183.725
X34.488Y-242.725
X34.488Y-301.725
X34.488Y-360.725
X34.488Y-419.725
X35.75Y-4.725
X36.988Y-65.725
X36.988Y-124.725
X36.988Y-183.725
X36.988Y-242.725
X36.988Y-301.725
X36.988Y-360.725
X36.988Y-419.725
X38.25Y-4.725
X121.142Y-65.962
X121.142Y-124.962
X121.142Y-183.962
X121.142Y-242.962
X121.142Y-301.962
X121.142Y-360.962
X121.142Y-419.962
X122.404Y-4.962
X123.642Y-65.962
X123.642Y-124.962
X123.642Y-183.962
X123.642Y-242.962
X123.642Y-301.962
X123.642Y-360.962
X123.642Y-419.962
X124.904Y-4.962
X126.142Y-65.962
X126.142Y-124.962
X126.142Y-183.962
X126.142Y-242.962
X126.142Y-301.962
X126.142Y-360.962
X126.142Y-419.962
X127.404Y-4.962
X193.188Y-4.525
X193.188Y-65.725
X195.688Y-4.525
X195.688Y-65.725
X198.188Y-4.525
X198.188Y-65.725
X282.342Y-4.762
X282.342Y-65.962
X284.842Y-4.762
X284.842Y-65.962
X287.342Y-4.762
X287.342Y-65.962
X351.665Y-4.525
X354.165Y-4.525
X356.665Y-4.525
X440.819Y-4.762
X443.319Y-4.762
X445.819Y-4.762
T4
X81.438Y-63.76
X81.438Y-66.3
X81.438Y-68.84
X81.438Y-71.38
X81.438Y-122.76
X81.438Y-125.3
X81.438Y-127.84
X81.438Y-130.38
X81.438Y-181.76
X81.438Y-184.3
X81.438Y-186.84
X81.438Y-189.38
X81.438Y-240.76
X81.438Y-243.3
X81.438Y-245.84
X81.438Y-248.38
X81.438Y-299.76
X81.438Y-302.3
X81.438Y-304.84
X81.438Y-307.38
X81.438Y-358.76
X81.438Y-361.3
X81.438Y-363.84
X81.438Y-366.38
X81.438Y-417.76
X81.438Y-420.3
X81.438Y-422.84
X81.438Y-425.38
X82.7Y-2.76
X82.7Y-5.3
X82.7Y-7.84
X82.7Y-10.38
X83.978Y-63.76
X83.978Y-66.3
X83.978Y-68.84
X83.978Y-71.38
X83.978Y-122.76
X83.978Y-125.3
X83.978Y-127.84
X83.978Y-130.38
X83.978Y-181.76
X83.978Y-184.3
X83.978Y-186.84
X83.978Y-189.38
X83.978Y-240.76
X83.978Y-243.3
X83.978Y-245.84
X83.978Y-248.38
X83.978Y-299.76
X83.978Y-302.3
X83.978Y-304.84
X83.978Y-307.38
X83.978Y-358.76
X83.978Y-361.3
X83.978Y-363.84
X83.978Y-366.38
X83.978Y-417.76
X83.978Y-420.3
X83.978Y-422.84
X83.978Y-425.38
X85.24Y-2.76
X85.24Y-5.3
X85.24Y-7.84
X85.24Y-10.38
X116.513Y-110.1
X116.513Y-112.6
X116.513Y-169.1
X116.513Y-171.6
X116.513Y-228.1
X116.513Y-230.6
X116.513Y-287.1
X116.513Y-289.6
X116.513Y-346.1
X116.513Y-348.6
X116.513Y-405.1
X116.513Y-407.6
X116.513Y-464.1
X116.513Y-466.6
X116.9Y-49.1
X116.9Y-51.6
X242.638Y-2.56
X242.638Y-5.1
X242.638Y-7.64
X242.638Y-10.18
X242.638Y-63.76
X242.638Y-66.3
X242.638Y-68.84
X242.638Y-71.38
X245.178Y-2.56
X245.178Y-5.1
X245.178Y-7.64
X245.178Y-10.18
X245.178Y-63.76
X245.178Y-66.3
X245.178Y-68.84
X245.178Y-71.38
X277.713Y-48.9
X277.713Y-51.4
X277.713Y-110.1
X277.713Y-112.6
X331.426Y-93.6
X333.966Y-93.6
X336.506Y-93.6
X339.046Y-93.6
X341.586Y-93.6
X344.126Y-93.6
X346.666Y-93.6
X370.426Y-93.6
X372.966Y-93.6
X375.506Y-93.6
X378.046Y-93.6
X380.586Y-93.6
X383.126Y-93.6
X385.666Y-93.6
X401.115Y-2.56
X401.115Y-5.1
X401.115Y-7.64
X401.115Y-10.18
X403.655Y-2.56
X403.655Y-5.1
X403.655Y-7.64
X403.655Y-10.18
X409.426Y-93.6
X411.966Y-93.6
X414.506Y-93.6
X417.046Y-93.6
X419.586Y-93.6
X422.126Y-93.6
X424.666Y-93.6
X436.19Y-48.9
X436.19Y-51.4
X448.426Y-93.6
X450.966Y-93.6
X453.506Y-93.6
X456.046Y-93.6
X458.586Y-93.6
X461.126Y-93.6
X463.666Y-93.6
T5
X7.238Y-88.7
X7.238Y-147.7
X7.238Y-206.7
X7.238Y-265.7
X7.238Y-324.7
X7.238Y-383.7
X7.238Y-442.7
X8.5Y-27.7
X17.238Y-68.7
X17.238Y-110.7
X17.238Y-127.7
X17.238Y-169.7
X17.238Y-186.7
X17.238Y-228.7
X17.238Y-245.7
X17.238Y-287.7
X17.238Y-304.7
X17.238Y-346.7
X17.238Y-363.7
X17.238Y-405.7
X17.238Y-422.7
X17.238Y-464.7
X18.5Y-7.7
X18.5Y-49.7
X142.238Y-68.7
X142.238Y-110.7
X142.238Y-127.7
X142.238Y-169.7
X142.238Y-186.7
X142.238Y-228.7
X142.238Y-245.7
X142.238Y-287.7
X142.238Y-304.7
X142.238Y-346.7
X142.238Y-363.7
X142.238Y-405.7
X142.238Y-422.7
X142.238Y-464.7
X143.5Y-7.7
X143.5Y-49.7
X152.238Y-88.7
X152.238Y-147.7
X152.238Y-206.7
X152.238Y-265.7
X152.238Y-324.7
X152.238Y-383.7
X152.238Y-442.7
X153.5Y-27.7
X168.438Y-27.5
X168.438Y-88.7
X178.438Y-7.5
X178.438Y-49.5
X178.438Y-68.7
X178.438Y-110.7
X303.438Y-7.5
X303.438Y-49.5
X303.438Y-68.7
X303.438Y-110.7
X313.438Y-27.5
X313.438Y-88.7
X324.176Y-65.7
X324.176Y-91.7
X326.915Y-27.5
X336.915Y-7.5
X336.915Y-49.5
X354.176Y-65.7
X354.176Y-91.7
X363.176Y-65.7
X363.176Y-91.7
X393.176Y-65.7
X393.176Y-91.7
X402.176Y-65.7
X402.176Y-91.7
X432.176Y-65.7
X432.176Y-91.7
X441.176Y-65.7
X441.176Y-91.7
X461.915Y-7.5
X461.915Y-49.5
X471.176Y-65.7
X471.176Y-91.7
X471.915Y-27.5
T0
M30
