%TF.GenerationSoftware,KiCad,Pcbnew,7.0.5-7.0.5~ubuntu20.04.1*%
%TF.CreationDate,2023-06-15T15:06:09+02:00*%
%TF.ProjectId,Controler_NRF24L01_Exclude_v3,436f6e74-726f-46c6-9572-5f4e52463234,rev?*%
%TF.SameCoordinates,Original*%
%TF.FileFunction,Paste,Top*%
%TF.FilePolarity,Positive*%
%FSLAX45Y45*%
G04 Gerber Fmt 4.5, Leading zero omitted, Abs format (unit mm)*
G04 Created by KiCad (PCBNEW 7.0.5-7.0.5~ubuntu20.04.1) date 2023-06-15 15:06:09*
%MOMM*%
%LPD*%
G01*
G04 APERTURE LIST*
G04 Aperture macros list*
%AMRoundRect*
0 Rectangle with rounded corners*
0 $1 Rounding radius*
0 $2 $3 $4 $5 $6 $7 $8 $9 X,Y pos of 4 corners*
0 Add a 4 corners polygon primitive as box body*
4,1,4,$2,$3,$4,$5,$6,$7,$8,$9,$2,$3,0*
0 Add four circle primitives for the rounded corners*
1,1,$1+$1,$2,$3*
1,1,$1+$1,$4,$5*
1,1,$1+$1,$6,$7*
1,1,$1+$1,$8,$9*
0 Add four rect primitives between the rounded corners*
20,1,$1+$1,$2,$3,$4,$5,0*
20,1,$1+$1,$4,$5,$6,$7,0*
20,1,$1+$1,$6,$7,$8,$9,0*
20,1,$1+$1,$8,$9,$2,$3,0*%
G04 Aperture macros list end*
%TA.AperFunction,Profile*%
%ADD10C,0.050000*%
%TD*%
%TA.AperFunction,Profile*%
%ADD11C,0.100000*%
%TD*%
%ADD12RoundRect,0.237500X-0.237500X0.287500X-0.237500X-0.287500X0.237500X-0.287500X0.237500X0.287500X0*%
%ADD13RoundRect,0.237500X-0.287500X-0.237500X0.287500X-0.237500X0.287500X0.237500X-0.287500X0.237500X0*%
%ADD14RoundRect,0.237500X-0.250000X-0.237500X0.250000X-0.237500X0.250000X0.237500X-0.250000X0.237500X0*%
%ADD15R,0.760000X1.600000*%
%ADD16RoundRect,0.237500X0.237500X-0.250000X0.237500X0.250000X-0.237500X0.250000X-0.237500X-0.250000X0*%
%ADD17RoundRect,0.237500X0.250000X0.237500X-0.250000X0.237500X-0.250000X-0.237500X0.250000X-0.237500X0*%
%ADD18RoundRect,0.237500X-0.300000X-0.237500X0.300000X-0.237500X0.300000X0.237500X-0.300000X0.237500X0*%
%ADD19R,1.550000X1.300000*%
%ADD20RoundRect,0.125000X0.125000X-0.625000X0.125000X0.625000X-0.125000X0.625000X-0.125000X-0.625000X0*%
%ADD21RoundRect,0.125000X0.625000X-0.125000X0.625000X0.125000X-0.625000X0.125000X-0.625000X-0.125000X0*%
%ADD22RoundRect,0.237500X-0.237500X0.250000X-0.237500X-0.250000X0.237500X-0.250000X0.237500X0.250000X0*%
%ADD23RoundRect,0.237500X-0.237500X0.300000X-0.237500X-0.300000X0.237500X-0.300000X0.237500X0.300000X0*%
%ADD24RoundRect,0.100000X-0.712500X-0.100000X0.712500X-0.100000X0.712500X0.100000X-0.712500X0.100000X0*%
%ADD25RoundRect,0.237500X0.300000X0.237500X-0.300000X0.237500X-0.300000X-0.237500X0.300000X-0.237500X0*%
%ADD26R,2.400000X0.740000*%
%ADD27RoundRect,0.100000X0.100000X-0.637500X0.100000X0.637500X-0.100000X0.637500X-0.100000X-0.637500X0*%
G04 APERTURE END LIST*
D10*
X20569000Y-12290000D02*
G75*
G03*
X20569000Y-6490000I-1674316J2900000D01*
G01*
D11*
X8169000Y-6490000D02*
X20569000Y-6490000D01*
X8169000Y-12290000D02*
X20569000Y-12290000D01*
D10*
X8169000Y-6490000D02*
G75*
G03*
X8169000Y-12290000I1674316J-2900000D01*
G01*
D12*
X16706500Y-6982500D03*
X16706500Y-7157500D03*
D13*
X17807500Y-8110000D03*
X17982500Y-8110000D03*
D12*
X15581500Y-6985000D03*
X15581500Y-7160000D03*
D14*
X17803750Y-7957600D03*
X17986250Y-7957600D03*
D15*
X12469000Y-8371000D03*
X12469000Y-7609000D03*
D12*
X16866500Y-6982500D03*
X16866500Y-7157500D03*
D16*
X16809000Y-6812500D03*
X16809000Y-6630000D03*
D12*
X16226500Y-6982500D03*
X16226500Y-7157500D03*
D17*
X15141250Y-8050000D03*
X14958750Y-8050000D03*
D13*
X11431500Y-6590000D03*
X11606500Y-6590000D03*
D18*
X16892250Y-8560000D03*
X17064750Y-8560000D03*
D16*
X16059000Y-6812500D03*
X16059000Y-6630000D03*
X15459000Y-6812500D03*
X15459000Y-6630000D03*
X15606000Y-6812500D03*
X15606000Y-6630000D03*
X16659000Y-6812500D03*
X16659000Y-6630000D03*
D17*
X8811048Y-9845000D03*
X8628548Y-9845000D03*
D19*
X8921500Y-7635000D03*
X9716500Y-7635000D03*
X8921500Y-8085000D03*
X9716500Y-8085000D03*
X12192500Y-9165000D03*
X12987500Y-9165000D03*
X12192500Y-9615000D03*
X12987500Y-9615000D03*
D14*
X14858750Y-8200000D03*
X15041250Y-8200000D03*
D16*
X16209000Y-6812500D03*
X16209000Y-6630000D03*
D20*
X13589000Y-10807500D03*
X13669000Y-10807500D03*
X13749000Y-10807500D03*
X13829000Y-10807500D03*
X13909000Y-10807500D03*
X13989000Y-10807500D03*
X14069000Y-10807500D03*
X14149000Y-10807500D03*
D21*
X14286500Y-10670000D03*
X14286500Y-10590000D03*
X14286500Y-10510000D03*
X14286500Y-10430000D03*
X14286500Y-10350000D03*
X14286500Y-10270000D03*
X14286500Y-10190000D03*
X14286500Y-10110000D03*
D20*
X14149000Y-9972500D03*
X14069000Y-9972500D03*
X13989000Y-9972500D03*
X13909000Y-9972500D03*
X13829000Y-9972500D03*
X13749000Y-9972500D03*
X13669000Y-9972500D03*
X13589000Y-9972500D03*
D21*
X13451500Y-10110000D03*
X13451500Y-10190000D03*
X13451500Y-10270000D03*
X13451500Y-10350000D03*
X13451500Y-10430000D03*
X13451500Y-10510000D03*
X13451500Y-10590000D03*
X13451500Y-10670000D03*
D12*
X15421400Y-6985000D03*
X15421400Y-7160000D03*
D19*
X17221500Y-6715000D03*
X18016500Y-6715000D03*
X17221500Y-7165000D03*
X18016500Y-7165000D03*
D22*
X17509000Y-11632500D03*
X17509000Y-11815000D03*
D19*
X7671500Y-8965000D03*
X8466500Y-8965000D03*
X7671500Y-9415000D03*
X8466500Y-9415000D03*
D16*
X15309000Y-6812500D03*
X15309000Y-6630000D03*
D12*
X15741500Y-6985000D03*
X15741500Y-7160000D03*
X17029000Y-6982500D03*
X17029000Y-7157500D03*
D19*
X17871500Y-8965000D03*
X18666500Y-8965000D03*
X17871500Y-9415000D03*
X18666500Y-9415000D03*
D17*
X15241250Y-7800000D03*
X15058750Y-7800000D03*
D16*
X16509000Y-6812500D03*
X16509000Y-6630000D03*
X16359000Y-6812500D03*
X16359000Y-6630000D03*
D12*
X16546500Y-6982500D03*
X16546500Y-7157500D03*
D19*
X15571500Y-9165000D03*
X16366500Y-9165000D03*
X15571500Y-9615000D03*
X16366500Y-9615000D03*
D22*
X11421500Y-6748750D03*
X11421500Y-6931250D03*
D23*
X13399200Y-10843150D03*
X13399200Y-11015650D03*
D13*
X11781500Y-6590000D03*
X11956500Y-6590000D03*
D14*
X12462750Y-8560000D03*
X12645250Y-8560000D03*
D18*
X8973548Y-9845000D03*
X9146048Y-9845000D03*
D19*
X8921500Y-10135000D03*
X9716500Y-10135000D03*
X8921500Y-10585000D03*
X9716500Y-10585000D03*
D23*
X14339000Y-9750950D03*
X14339000Y-9923450D03*
D12*
X16065000Y-6983750D03*
X16065000Y-7158750D03*
D22*
X12129000Y-6741250D03*
X12129000Y-6923750D03*
D23*
X14491400Y-9750950D03*
X14491400Y-9923450D03*
D19*
X19121500Y-7715000D03*
X19916500Y-7715000D03*
X19121500Y-8165000D03*
X19916500Y-8165000D03*
D12*
X16386500Y-6982500D03*
X16386500Y-7157500D03*
D22*
X11071500Y-6746250D03*
X11071500Y-6928750D03*
D14*
X10377750Y-7440000D03*
X10560250Y-7440000D03*
D22*
X11774000Y-6746250D03*
X11774000Y-6928750D03*
D13*
X11081500Y-6590000D03*
X11256500Y-6590000D03*
D15*
X16886000Y-8371000D03*
X16886000Y-7609000D03*
D24*
X17657750Y-7592500D03*
X17657750Y-7657500D03*
X17657750Y-7722500D03*
X17657750Y-7787500D03*
X18080250Y-7787500D03*
X18080250Y-7722500D03*
X18080250Y-7657500D03*
X18080250Y-7592500D03*
D25*
X20186452Y-9845000D03*
X20013952Y-9845000D03*
D12*
X15901500Y-6985000D03*
X15901500Y-7160000D03*
D14*
X20358952Y-9845000D03*
X20541452Y-9845000D03*
D23*
X17709000Y-11637500D03*
X17709000Y-11810000D03*
D26*
X15886500Y-11003000D03*
X16276500Y-11003000D03*
X15886500Y-11130000D03*
X16276500Y-11130000D03*
X15886500Y-11257000D03*
X16276500Y-11257000D03*
X15886500Y-11384000D03*
X16276500Y-11384000D03*
X15886500Y-11511000D03*
X16276500Y-11511000D03*
X15886500Y-11638000D03*
X16276500Y-11638000D03*
X15886500Y-11765000D03*
X16276500Y-11765000D03*
D23*
X17474000Y-7893750D03*
X17474000Y-8066250D03*
D27*
X15719900Y-8167650D03*
X15784900Y-8167650D03*
X15849900Y-8167650D03*
X15914900Y-8167650D03*
X15979900Y-8167650D03*
X16044900Y-8167650D03*
X16109900Y-8167650D03*
X16174900Y-8167650D03*
X16239900Y-8167650D03*
X16304900Y-8167650D03*
X16369900Y-8167650D03*
X16434900Y-8167650D03*
X16499900Y-8167650D03*
X16564900Y-8167650D03*
X16564900Y-7595150D03*
X16499900Y-7595150D03*
X16434900Y-7595150D03*
X16369900Y-7595150D03*
X16304900Y-7595150D03*
X16239900Y-7595150D03*
X16174900Y-7595150D03*
X16109900Y-7595150D03*
X16044900Y-7595150D03*
X15979900Y-7595150D03*
X15914900Y-7595150D03*
X15849900Y-7595150D03*
X15784900Y-7595150D03*
X15719900Y-7595150D03*
D12*
X15261500Y-6985000D03*
X15261500Y-7160000D03*
D16*
X15909000Y-6812500D03*
X15909000Y-6630000D03*
D19*
X19121500Y-10215000D03*
X19916500Y-10215000D03*
X19121500Y-10665000D03*
X19916500Y-10665000D03*
D22*
X17709000Y-11278750D03*
X17709000Y-11461250D03*
D19*
X10171500Y-8965000D03*
X10966500Y-8965000D03*
X10171500Y-9415000D03*
X10966500Y-9415000D03*
D16*
X15759000Y-6812500D03*
X15759000Y-6630000D03*
D19*
X20371500Y-8965000D03*
X21166500Y-8965000D03*
X20371500Y-9415000D03*
X21166500Y-9415000D03*
D14*
X18777750Y-7390000D03*
X18960250Y-7390000D03*
D23*
X17268500Y-8952000D03*
X17268500Y-9124500D03*
D13*
X12131500Y-6590000D03*
X12306500Y-6590000D03*
D16*
X16959000Y-6812500D03*
X16959000Y-6630000D03*
M02*
