%TF.GenerationSoftware,KiCad,Pcbnew,7.0.5-7.0.5~ubuntu20.04.1*%
%TF.CreationDate,2023-06-15T15:06:09+02:00*%
%TF.ProjectId,Controler_NRF24L01_Exclude_v3,436f6e74-726f-46c6-9572-5f4e52463234,rev?*%
%TF.SameCoordinates,Original*%
%TF.FileFunction,AssemblyDrawing,Bot*%
%FSLAX45Y45*%
G04 Gerber Fmt 4.5, Leading zero omitted, Abs format (unit mm)*
G04 Created by KiCad (PCBNEW 7.0.5-7.0.5~ubuntu20.04.1) date 2023-06-15 15:06:09*
%MOMM*%
%LPD*%
G01*
G04 APERTURE LIST*
%TA.AperFunction,Profile*%
%ADD10C,0.050000*%
%TD*%
%TA.AperFunction,Profile*%
%ADD11C,0.100000*%
%TD*%
%ADD12C,0.150000*%
%ADD13C,0.060000*%
%ADD14C,0.100000*%
G04 APERTURE END LIST*
D10*
X20569000Y-12290000D02*
G75*
G03*
X20569000Y-6490000I-1674316J2900000D01*
G01*
D11*
X8169000Y-6490000D02*
X20569000Y-6490000D01*
X8169000Y-12290000D02*
X20569000Y-12290000D01*
D10*
X8169000Y-6490000D02*
G75*
G03*
X8169000Y-12290000I1674316J-2900000D01*
G01*
D12*
X8915482Y-8604762D02*
X8815482Y-8604762D01*
X8815482Y-8604762D02*
X8815482Y-8642857D01*
X8815482Y-8642857D02*
X8820244Y-8652381D01*
X8820244Y-8652381D02*
X8825006Y-8657143D01*
X8825006Y-8657143D02*
X8834530Y-8661905D01*
X8834530Y-8661905D02*
X8848815Y-8661905D01*
X8848815Y-8661905D02*
X8858339Y-8657143D01*
X8858339Y-8657143D02*
X8863101Y-8652381D01*
X8863101Y-8652381D02*
X8867863Y-8642857D01*
X8867863Y-8642857D02*
X8867863Y-8604762D01*
X8905958Y-8761905D02*
X8910720Y-8757143D01*
X8910720Y-8757143D02*
X8915482Y-8742857D01*
X8915482Y-8742857D02*
X8915482Y-8733333D01*
X8915482Y-8733333D02*
X8910720Y-8719048D01*
X8910720Y-8719048D02*
X8901196Y-8709524D01*
X8901196Y-8709524D02*
X8891672Y-8704762D01*
X8891672Y-8704762D02*
X8872625Y-8700000D01*
X8872625Y-8700000D02*
X8858339Y-8700000D01*
X8858339Y-8700000D02*
X8839291Y-8704762D01*
X8839291Y-8704762D02*
X8829768Y-8709524D01*
X8829768Y-8709524D02*
X8820244Y-8719048D01*
X8820244Y-8719048D02*
X8815482Y-8733333D01*
X8815482Y-8733333D02*
X8815482Y-8742857D01*
X8815482Y-8742857D02*
X8820244Y-8757143D01*
X8820244Y-8757143D02*
X8825006Y-8761905D01*
X8863101Y-8838095D02*
X8863101Y-8804762D01*
X8915482Y-8804762D02*
X8815482Y-8804762D01*
X8815482Y-8804762D02*
X8815482Y-8852381D01*
X8858339Y-8904762D02*
X8853577Y-8895238D01*
X8853577Y-8895238D02*
X8848815Y-8890476D01*
X8848815Y-8890476D02*
X8839291Y-8885714D01*
X8839291Y-8885714D02*
X8834530Y-8885714D01*
X8834530Y-8885714D02*
X8825006Y-8890476D01*
X8825006Y-8890476D02*
X8820244Y-8895238D01*
X8820244Y-8895238D02*
X8815482Y-8904762D01*
X8815482Y-8904762D02*
X8815482Y-8923810D01*
X8815482Y-8923810D02*
X8820244Y-8933333D01*
X8820244Y-8933333D02*
X8825006Y-8938095D01*
X8825006Y-8938095D02*
X8834530Y-8942857D01*
X8834530Y-8942857D02*
X8839291Y-8942857D01*
X8839291Y-8942857D02*
X8848815Y-8938095D01*
X8848815Y-8938095D02*
X8853577Y-8933333D01*
X8853577Y-8933333D02*
X8858339Y-8923810D01*
X8858339Y-8923810D02*
X8858339Y-8904762D01*
X8858339Y-8904762D02*
X8863101Y-8895238D01*
X8863101Y-8895238D02*
X8867863Y-8890476D01*
X8867863Y-8890476D02*
X8877387Y-8885714D01*
X8877387Y-8885714D02*
X8896434Y-8885714D01*
X8896434Y-8885714D02*
X8905958Y-8890476D01*
X8905958Y-8890476D02*
X8910720Y-8895238D01*
X8910720Y-8895238D02*
X8915482Y-8904762D01*
X8915482Y-8904762D02*
X8915482Y-8923810D01*
X8915482Y-8923810D02*
X8910720Y-8933333D01*
X8910720Y-8933333D02*
X8905958Y-8938095D01*
X8905958Y-8938095D02*
X8896434Y-8942857D01*
X8896434Y-8942857D02*
X8877387Y-8942857D01*
X8877387Y-8942857D02*
X8867863Y-8938095D01*
X8867863Y-8938095D02*
X8863101Y-8933333D01*
X8863101Y-8933333D02*
X8858339Y-8923810D01*
X8815482Y-9033333D02*
X8815482Y-8985714D01*
X8815482Y-8985714D02*
X8863101Y-8980952D01*
X8863101Y-8980952D02*
X8858339Y-8985714D01*
X8858339Y-8985714D02*
X8853577Y-8995238D01*
X8853577Y-8995238D02*
X8853577Y-9019048D01*
X8853577Y-9019048D02*
X8858339Y-9028571D01*
X8858339Y-9028571D02*
X8863101Y-9033333D01*
X8863101Y-9033333D02*
X8872625Y-9038095D01*
X8872625Y-9038095D02*
X8896434Y-9038095D01*
X8896434Y-9038095D02*
X8905958Y-9033333D01*
X8905958Y-9033333D02*
X8910720Y-9028571D01*
X8910720Y-9028571D02*
X8915482Y-9019048D01*
X8915482Y-9019048D02*
X8915482Y-8995238D01*
X8915482Y-8995238D02*
X8910720Y-8985714D01*
X8910720Y-8985714D02*
X8905958Y-8980952D01*
X8815482Y-9071429D02*
X8815482Y-9138095D01*
X8815482Y-9138095D02*
X8915482Y-9095238D01*
X8848815Y-9219048D02*
X8915482Y-9219048D01*
X8810720Y-9195238D02*
X8882149Y-9171429D01*
X8882149Y-9171429D02*
X8882149Y-9233333D01*
X8815482Y-9257143D02*
X8815482Y-9314286D01*
X8915482Y-9285714D02*
X8815482Y-9285714D01*
X8910720Y-9342857D02*
X8915482Y-9357143D01*
X8915482Y-9357143D02*
X8915482Y-9380952D01*
X8915482Y-9380952D02*
X8910720Y-9390476D01*
X8910720Y-9390476D02*
X8905958Y-9395238D01*
X8905958Y-9395238D02*
X8896434Y-9400000D01*
X8896434Y-9400000D02*
X8886910Y-9400000D01*
X8886910Y-9400000D02*
X8877387Y-9395238D01*
X8877387Y-9395238D02*
X8872625Y-9390476D01*
X8872625Y-9390476D02*
X8867863Y-9380952D01*
X8867863Y-9380952D02*
X8863101Y-9361905D01*
X8863101Y-9361905D02*
X8858339Y-9352381D01*
X8858339Y-9352381D02*
X8853577Y-9347619D01*
X8853577Y-9347619D02*
X8844053Y-9342857D01*
X8844053Y-9342857D02*
X8834530Y-9342857D01*
X8834530Y-9342857D02*
X8825006Y-9347619D01*
X8825006Y-9347619D02*
X8820244Y-9352381D01*
X8820244Y-9352381D02*
X8815482Y-9361905D01*
X8815482Y-9361905D02*
X8815482Y-9385714D01*
X8815482Y-9385714D02*
X8820244Y-9400000D01*
X9256230Y-8939048D02*
X9320991Y-8939048D01*
X9320991Y-8939048D02*
X9328610Y-8942857D01*
X9328610Y-8942857D02*
X9332420Y-8946667D01*
X9332420Y-8946667D02*
X9336230Y-8954286D01*
X9336230Y-8954286D02*
X9336230Y-8969524D01*
X9336230Y-8969524D02*
X9332420Y-8977143D01*
X9332420Y-8977143D02*
X9328610Y-8980952D01*
X9328610Y-8980952D02*
X9320991Y-8984762D01*
X9320991Y-8984762D02*
X9256230Y-8984762D01*
X9256230Y-9060952D02*
X9256230Y-9022857D01*
X9256230Y-9022857D02*
X9294325Y-9019048D01*
X9294325Y-9019048D02*
X9290515Y-9022857D01*
X9290515Y-9022857D02*
X9286706Y-9030476D01*
X9286706Y-9030476D02*
X9286706Y-9049524D01*
X9286706Y-9049524D02*
X9290515Y-9057143D01*
X9290515Y-9057143D02*
X9294325Y-9060952D01*
X9294325Y-9060952D02*
X9301944Y-9064762D01*
X9301944Y-9064762D02*
X9320991Y-9064762D01*
X9320991Y-9064762D02*
X9328610Y-9060952D01*
X9328610Y-9060952D02*
X9332420Y-9057143D01*
X9332420Y-9057143D02*
X9336230Y-9049524D01*
X9336230Y-9049524D02*
X9336230Y-9030476D01*
X9336230Y-9030476D02*
X9332420Y-9022857D01*
X9332420Y-9022857D02*
X9328610Y-9019048D01*
X9969048Y-9708482D02*
X10026190Y-9708482D01*
X9997619Y-9708482D02*
X9997619Y-9608482D01*
X9997619Y-9608482D02*
X10007143Y-9622768D01*
X10007143Y-9622768D02*
X10016667Y-9632291D01*
X10016667Y-9632291D02*
X10026190Y-9637053D01*
X9907143Y-9608482D02*
X9897619Y-9608482D01*
X9897619Y-9608482D02*
X9888095Y-9613244D01*
X9888095Y-9613244D02*
X9883333Y-9618006D01*
X9883333Y-9618006D02*
X9878571Y-9627530D01*
X9878571Y-9627530D02*
X9873810Y-9646577D01*
X9873810Y-9646577D02*
X9873810Y-9670387D01*
X9873810Y-9670387D02*
X9878571Y-9689434D01*
X9878571Y-9689434D02*
X9883333Y-9698958D01*
X9883333Y-9698958D02*
X9888095Y-9703720D01*
X9888095Y-9703720D02*
X9897619Y-9708482D01*
X9897619Y-9708482D02*
X9907143Y-9708482D01*
X9907143Y-9708482D02*
X9916667Y-9703720D01*
X9916667Y-9703720D02*
X9921429Y-9698958D01*
X9921429Y-9698958D02*
X9926190Y-9689434D01*
X9926190Y-9689434D02*
X9930952Y-9670387D01*
X9930952Y-9670387D02*
X9930952Y-9646577D01*
X9930952Y-9646577D02*
X9926190Y-9627530D01*
X9926190Y-9627530D02*
X9921429Y-9618006D01*
X9921429Y-9618006D02*
X9916667Y-9613244D01*
X9916667Y-9613244D02*
X9907143Y-9608482D01*
X9830952Y-9708482D02*
X9830952Y-9608482D01*
X9773810Y-9708482D02*
X9816667Y-9651339D01*
X9773810Y-9608482D02*
X9830952Y-9665625D01*
D13*
X9925714Y-9538193D02*
X9939048Y-9519145D01*
X9948571Y-9538193D02*
X9948571Y-9498193D01*
X9948571Y-9498193D02*
X9933333Y-9498193D01*
X9933333Y-9498193D02*
X9929524Y-9500098D01*
X9929524Y-9500098D02*
X9927619Y-9502002D01*
X9927619Y-9502002D02*
X9925714Y-9505812D01*
X9925714Y-9505812D02*
X9925714Y-9511526D01*
X9925714Y-9511526D02*
X9927619Y-9515336D01*
X9927619Y-9515336D02*
X9929524Y-9517240D01*
X9929524Y-9517240D02*
X9933333Y-9519145D01*
X9933333Y-9519145D02*
X9948571Y-9519145D01*
X9887619Y-9538193D02*
X9910476Y-9538193D01*
X9899048Y-9538193D02*
X9899048Y-9498193D01*
X9899048Y-9498193D02*
X9902857Y-9503907D01*
X9902857Y-9503907D02*
X9906667Y-9507717D01*
X9906667Y-9507717D02*
X9910476Y-9509621D01*
X9872381Y-9502002D02*
X9870476Y-9500098D01*
X9870476Y-9500098D02*
X9866667Y-9498193D01*
X9866667Y-9498193D02*
X9857143Y-9498193D01*
X9857143Y-9498193D02*
X9853333Y-9500098D01*
X9853333Y-9500098D02*
X9851429Y-9502002D01*
X9851429Y-9502002D02*
X9849524Y-9505812D01*
X9849524Y-9505812D02*
X9849524Y-9509621D01*
X9849524Y-9509621D02*
X9851429Y-9515336D01*
X9851429Y-9515336D02*
X9874286Y-9538193D01*
X9874286Y-9538193D02*
X9849524Y-9538193D01*
D12*
X19752482Y-9680952D02*
X19752482Y-9623810D01*
X19752482Y-9652381D02*
X19652482Y-9652381D01*
X19652482Y-9652381D02*
X19666768Y-9642857D01*
X19666768Y-9642857D02*
X19676291Y-9633333D01*
X19676291Y-9633333D02*
X19681053Y-9623810D01*
X19652482Y-9742857D02*
X19652482Y-9752381D01*
X19652482Y-9752381D02*
X19657244Y-9761905D01*
X19657244Y-9761905D02*
X19662006Y-9766667D01*
X19662006Y-9766667D02*
X19671530Y-9771429D01*
X19671530Y-9771429D02*
X19690577Y-9776190D01*
X19690577Y-9776190D02*
X19714387Y-9776190D01*
X19714387Y-9776190D02*
X19733434Y-9771429D01*
X19733434Y-9771429D02*
X19742958Y-9766667D01*
X19742958Y-9766667D02*
X19747720Y-9761905D01*
X19747720Y-9761905D02*
X19752482Y-9752381D01*
X19752482Y-9752381D02*
X19752482Y-9742857D01*
X19752482Y-9742857D02*
X19747720Y-9733333D01*
X19747720Y-9733333D02*
X19742958Y-9728571D01*
X19742958Y-9728571D02*
X19733434Y-9723810D01*
X19733434Y-9723810D02*
X19714387Y-9719048D01*
X19714387Y-9719048D02*
X19690577Y-9719048D01*
X19690577Y-9719048D02*
X19671530Y-9723810D01*
X19671530Y-9723810D02*
X19662006Y-9728571D01*
X19662006Y-9728571D02*
X19657244Y-9733333D01*
X19657244Y-9733333D02*
X19652482Y-9742857D01*
X19752482Y-9819048D02*
X19652482Y-9819048D01*
X19752482Y-9876190D02*
X19695339Y-9833333D01*
X19652482Y-9876190D02*
X19709625Y-9819048D01*
D13*
X19868193Y-9743333D02*
X19849145Y-9730000D01*
X19868193Y-9720476D02*
X19828193Y-9720476D01*
X19828193Y-9720476D02*
X19828193Y-9735714D01*
X19828193Y-9735714D02*
X19830098Y-9739524D01*
X19830098Y-9739524D02*
X19832002Y-9741429D01*
X19832002Y-9741429D02*
X19835812Y-9743333D01*
X19835812Y-9743333D02*
X19841526Y-9743333D01*
X19841526Y-9743333D02*
X19845336Y-9741429D01*
X19845336Y-9741429D02*
X19847240Y-9739524D01*
X19847240Y-9739524D02*
X19849145Y-9735714D01*
X19849145Y-9735714D02*
X19849145Y-9720476D01*
X19828193Y-9779524D02*
X19828193Y-9760476D01*
X19828193Y-9760476D02*
X19847240Y-9758571D01*
X19847240Y-9758571D02*
X19845336Y-9760476D01*
X19845336Y-9760476D02*
X19843431Y-9764286D01*
X19843431Y-9764286D02*
X19843431Y-9773810D01*
X19843431Y-9773810D02*
X19845336Y-9777619D01*
X19845336Y-9777619D02*
X19847240Y-9779524D01*
X19847240Y-9779524D02*
X19851050Y-9781429D01*
X19851050Y-9781429D02*
X19860574Y-9781429D01*
X19860574Y-9781429D02*
X19864383Y-9779524D01*
X19864383Y-9779524D02*
X19866288Y-9777619D01*
X19866288Y-9777619D02*
X19868193Y-9773810D01*
X19868193Y-9773810D02*
X19868193Y-9764286D01*
X19868193Y-9764286D02*
X19866288Y-9760476D01*
X19866288Y-9760476D02*
X19864383Y-9758571D01*
D12*
X18592458Y-11081190D02*
X18597220Y-11076429D01*
X18597220Y-11076429D02*
X18601982Y-11062143D01*
X18601982Y-11062143D02*
X18601982Y-11052619D01*
X18601982Y-11052619D02*
X18597220Y-11038333D01*
X18597220Y-11038333D02*
X18587696Y-11028810D01*
X18587696Y-11028810D02*
X18578172Y-11024048D01*
X18578172Y-11024048D02*
X18559125Y-11019286D01*
X18559125Y-11019286D02*
X18544839Y-11019286D01*
X18544839Y-11019286D02*
X18525791Y-11024048D01*
X18525791Y-11024048D02*
X18516268Y-11028810D01*
X18516268Y-11028810D02*
X18506744Y-11038333D01*
X18506744Y-11038333D02*
X18501982Y-11052619D01*
X18501982Y-11052619D02*
X18501982Y-11062143D01*
X18501982Y-11062143D02*
X18506744Y-11076429D01*
X18506744Y-11076429D02*
X18511506Y-11081190D01*
X18601982Y-11138333D02*
X18597220Y-11128810D01*
X18597220Y-11128810D02*
X18592458Y-11124048D01*
X18592458Y-11124048D02*
X18582934Y-11119286D01*
X18582934Y-11119286D02*
X18554363Y-11119286D01*
X18554363Y-11119286D02*
X18544839Y-11124048D01*
X18544839Y-11124048D02*
X18540077Y-11128810D01*
X18540077Y-11128810D02*
X18535315Y-11138333D01*
X18535315Y-11138333D02*
X18535315Y-11152619D01*
X18535315Y-11152619D02*
X18540077Y-11162143D01*
X18540077Y-11162143D02*
X18544839Y-11166905D01*
X18544839Y-11166905D02*
X18554363Y-11171667D01*
X18554363Y-11171667D02*
X18582934Y-11171667D01*
X18582934Y-11171667D02*
X18592458Y-11166905D01*
X18592458Y-11166905D02*
X18597220Y-11162143D01*
X18597220Y-11162143D02*
X18601982Y-11152619D01*
X18601982Y-11152619D02*
X18601982Y-11138333D01*
X18535315Y-11214524D02*
X18601982Y-11214524D01*
X18544839Y-11214524D02*
X18540077Y-11219286D01*
X18540077Y-11219286D02*
X18535315Y-11228809D01*
X18535315Y-11228809D02*
X18535315Y-11243095D01*
X18535315Y-11243095D02*
X18540077Y-11252619D01*
X18540077Y-11252619D02*
X18549601Y-11257381D01*
X18549601Y-11257381D02*
X18601982Y-11257381D01*
X18535315Y-11305000D02*
X18601982Y-11305000D01*
X18544839Y-11305000D02*
X18540077Y-11309762D01*
X18540077Y-11309762D02*
X18535315Y-11319286D01*
X18535315Y-11319286D02*
X18535315Y-11333571D01*
X18535315Y-11333571D02*
X18540077Y-11343095D01*
X18540077Y-11343095D02*
X18549601Y-11347857D01*
X18549601Y-11347857D02*
X18601982Y-11347857D01*
X18611506Y-11371667D02*
X18611506Y-11447857D01*
X18501982Y-11490714D02*
X18501982Y-11500238D01*
X18501982Y-11500238D02*
X18506744Y-11509762D01*
X18506744Y-11509762D02*
X18511506Y-11514524D01*
X18511506Y-11514524D02*
X18521030Y-11519286D01*
X18521030Y-11519286D02*
X18540077Y-11524048D01*
X18540077Y-11524048D02*
X18563887Y-11524048D01*
X18563887Y-11524048D02*
X18582934Y-11519286D01*
X18582934Y-11519286D02*
X18592458Y-11514524D01*
X18592458Y-11514524D02*
X18597220Y-11509762D01*
X18597220Y-11509762D02*
X18601982Y-11500238D01*
X18601982Y-11500238D02*
X18601982Y-11490714D01*
X18601982Y-11490714D02*
X18597220Y-11481190D01*
X18597220Y-11481190D02*
X18592458Y-11476429D01*
X18592458Y-11476429D02*
X18582934Y-11471667D01*
X18582934Y-11471667D02*
X18563887Y-11466905D01*
X18563887Y-11466905D02*
X18540077Y-11466905D01*
X18540077Y-11466905D02*
X18521030Y-11471667D01*
X18521030Y-11471667D02*
X18511506Y-11476429D01*
X18511506Y-11476429D02*
X18506744Y-11481190D01*
X18506744Y-11481190D02*
X18501982Y-11490714D01*
X18601982Y-11619286D02*
X18601982Y-11562143D01*
X18601982Y-11590714D02*
X18501982Y-11590714D01*
X18501982Y-11590714D02*
X18516268Y-11581190D01*
X18516268Y-11581190D02*
X18525791Y-11571667D01*
X18525791Y-11571667D02*
X18530553Y-11562143D01*
X18601982Y-11652619D02*
X18535315Y-11705000D01*
X18535315Y-11652619D02*
X18601982Y-11705000D01*
X18501982Y-11762143D02*
X18501982Y-11771667D01*
X18501982Y-11771667D02*
X18506744Y-11781190D01*
X18506744Y-11781190D02*
X18511506Y-11785952D01*
X18511506Y-11785952D02*
X18521030Y-11790714D01*
X18521030Y-11790714D02*
X18540077Y-11795476D01*
X18540077Y-11795476D02*
X18563887Y-11795476D01*
X18563887Y-11795476D02*
X18582934Y-11790714D01*
X18582934Y-11790714D02*
X18592458Y-11785952D01*
X18592458Y-11785952D02*
X18597220Y-11781190D01*
X18597220Y-11781190D02*
X18601982Y-11771667D01*
X18601982Y-11771667D02*
X18601982Y-11762143D01*
X18601982Y-11762143D02*
X18597220Y-11752619D01*
X18597220Y-11752619D02*
X18592458Y-11747857D01*
X18592458Y-11747857D02*
X18582934Y-11743095D01*
X18582934Y-11743095D02*
X18563887Y-11738333D01*
X18563887Y-11738333D02*
X18540077Y-11738333D01*
X18540077Y-11738333D02*
X18521030Y-11743095D01*
X18521030Y-11743095D02*
X18511506Y-11747857D01*
X18511506Y-11747857D02*
X18506744Y-11752619D01*
X18506744Y-11752619D02*
X18501982Y-11762143D01*
X18511506Y-11833571D02*
X18506744Y-11838333D01*
X18506744Y-11838333D02*
X18501982Y-11847857D01*
X18501982Y-11847857D02*
X18501982Y-11871667D01*
X18501982Y-11871667D02*
X18506744Y-11881190D01*
X18506744Y-11881190D02*
X18511506Y-11885952D01*
X18511506Y-11885952D02*
X18521030Y-11890714D01*
X18521030Y-11890714D02*
X18530553Y-11890714D01*
X18530553Y-11890714D02*
X18544839Y-11885952D01*
X18544839Y-11885952D02*
X18601982Y-11828810D01*
X18601982Y-11828810D02*
X18601982Y-11890714D01*
X18311982Y-11421667D02*
X18383410Y-11421667D01*
X18383410Y-11421667D02*
X18397696Y-11416905D01*
X18397696Y-11416905D02*
X18407220Y-11407381D01*
X18407220Y-11407381D02*
X18411982Y-11393095D01*
X18411982Y-11393095D02*
X18411982Y-11383571D01*
X18411982Y-11521667D02*
X18411982Y-11464524D01*
X18411982Y-11493095D02*
X18311982Y-11493095D01*
X18311982Y-11493095D02*
X18326268Y-11483571D01*
X18326268Y-11483571D02*
X18335791Y-11474048D01*
X18335791Y-11474048D02*
X18340553Y-11464524D01*
X19215482Y-8604762D02*
X19115482Y-8604762D01*
X19115482Y-8604762D02*
X19115482Y-8642857D01*
X19115482Y-8642857D02*
X19120244Y-8652381D01*
X19120244Y-8652381D02*
X19125006Y-8657143D01*
X19125006Y-8657143D02*
X19134530Y-8661905D01*
X19134530Y-8661905D02*
X19148815Y-8661905D01*
X19148815Y-8661905D02*
X19158339Y-8657143D01*
X19158339Y-8657143D02*
X19163101Y-8652381D01*
X19163101Y-8652381D02*
X19167863Y-8642857D01*
X19167863Y-8642857D02*
X19167863Y-8604762D01*
X19205958Y-8761905D02*
X19210720Y-8757143D01*
X19210720Y-8757143D02*
X19215482Y-8742857D01*
X19215482Y-8742857D02*
X19215482Y-8733333D01*
X19215482Y-8733333D02*
X19210720Y-8719048D01*
X19210720Y-8719048D02*
X19201196Y-8709524D01*
X19201196Y-8709524D02*
X19191672Y-8704762D01*
X19191672Y-8704762D02*
X19172625Y-8700000D01*
X19172625Y-8700000D02*
X19158339Y-8700000D01*
X19158339Y-8700000D02*
X19139291Y-8704762D01*
X19139291Y-8704762D02*
X19129768Y-8709524D01*
X19129768Y-8709524D02*
X19120244Y-8719048D01*
X19120244Y-8719048D02*
X19115482Y-8733333D01*
X19115482Y-8733333D02*
X19115482Y-8742857D01*
X19115482Y-8742857D02*
X19120244Y-8757143D01*
X19120244Y-8757143D02*
X19125006Y-8761905D01*
X19163101Y-8838095D02*
X19163101Y-8804762D01*
X19215482Y-8804762D02*
X19115482Y-8804762D01*
X19115482Y-8804762D02*
X19115482Y-8852381D01*
X19158339Y-8904762D02*
X19153577Y-8895238D01*
X19153577Y-8895238D02*
X19148815Y-8890476D01*
X19148815Y-8890476D02*
X19139291Y-8885714D01*
X19139291Y-8885714D02*
X19134530Y-8885714D01*
X19134530Y-8885714D02*
X19125006Y-8890476D01*
X19125006Y-8890476D02*
X19120244Y-8895238D01*
X19120244Y-8895238D02*
X19115482Y-8904762D01*
X19115482Y-8904762D02*
X19115482Y-8923810D01*
X19115482Y-8923810D02*
X19120244Y-8933333D01*
X19120244Y-8933333D02*
X19125006Y-8938095D01*
X19125006Y-8938095D02*
X19134530Y-8942857D01*
X19134530Y-8942857D02*
X19139291Y-8942857D01*
X19139291Y-8942857D02*
X19148815Y-8938095D01*
X19148815Y-8938095D02*
X19153577Y-8933333D01*
X19153577Y-8933333D02*
X19158339Y-8923810D01*
X19158339Y-8923810D02*
X19158339Y-8904762D01*
X19158339Y-8904762D02*
X19163101Y-8895238D01*
X19163101Y-8895238D02*
X19167863Y-8890476D01*
X19167863Y-8890476D02*
X19177387Y-8885714D01*
X19177387Y-8885714D02*
X19196434Y-8885714D01*
X19196434Y-8885714D02*
X19205958Y-8890476D01*
X19205958Y-8890476D02*
X19210720Y-8895238D01*
X19210720Y-8895238D02*
X19215482Y-8904762D01*
X19215482Y-8904762D02*
X19215482Y-8923810D01*
X19215482Y-8923810D02*
X19210720Y-8933333D01*
X19210720Y-8933333D02*
X19205958Y-8938095D01*
X19205958Y-8938095D02*
X19196434Y-8942857D01*
X19196434Y-8942857D02*
X19177387Y-8942857D01*
X19177387Y-8942857D02*
X19167863Y-8938095D01*
X19167863Y-8938095D02*
X19163101Y-8933333D01*
X19163101Y-8933333D02*
X19158339Y-8923810D01*
X19115482Y-9033333D02*
X19115482Y-8985714D01*
X19115482Y-8985714D02*
X19163101Y-8980952D01*
X19163101Y-8980952D02*
X19158339Y-8985714D01*
X19158339Y-8985714D02*
X19153577Y-8995238D01*
X19153577Y-8995238D02*
X19153577Y-9019048D01*
X19153577Y-9019048D02*
X19158339Y-9028571D01*
X19158339Y-9028571D02*
X19163101Y-9033333D01*
X19163101Y-9033333D02*
X19172625Y-9038095D01*
X19172625Y-9038095D02*
X19196434Y-9038095D01*
X19196434Y-9038095D02*
X19205958Y-9033333D01*
X19205958Y-9033333D02*
X19210720Y-9028571D01*
X19210720Y-9028571D02*
X19215482Y-9019048D01*
X19215482Y-9019048D02*
X19215482Y-8995238D01*
X19215482Y-8995238D02*
X19210720Y-8985714D01*
X19210720Y-8985714D02*
X19205958Y-8980952D01*
X19115482Y-9071429D02*
X19115482Y-9138095D01*
X19115482Y-9138095D02*
X19215482Y-9095238D01*
X19148815Y-9219048D02*
X19215482Y-9219048D01*
X19110720Y-9195238D02*
X19182149Y-9171429D01*
X19182149Y-9171429D02*
X19182149Y-9233333D01*
X19115482Y-9257143D02*
X19115482Y-9314286D01*
X19215482Y-9285714D02*
X19115482Y-9285714D01*
X19210720Y-9342857D02*
X19215482Y-9357143D01*
X19215482Y-9357143D02*
X19215482Y-9380952D01*
X19215482Y-9380952D02*
X19210720Y-9390476D01*
X19210720Y-9390476D02*
X19205958Y-9395238D01*
X19205958Y-9395238D02*
X19196434Y-9400000D01*
X19196434Y-9400000D02*
X19186910Y-9400000D01*
X19186910Y-9400000D02*
X19177387Y-9395238D01*
X19177387Y-9395238D02*
X19172625Y-9390476D01*
X19172625Y-9390476D02*
X19167863Y-9380952D01*
X19167863Y-9380952D02*
X19163101Y-9361905D01*
X19163101Y-9361905D02*
X19158339Y-9352381D01*
X19158339Y-9352381D02*
X19153577Y-9347619D01*
X19153577Y-9347619D02*
X19144053Y-9342857D01*
X19144053Y-9342857D02*
X19134530Y-9342857D01*
X19134530Y-9342857D02*
X19125006Y-9347619D01*
X19125006Y-9347619D02*
X19120244Y-9352381D01*
X19120244Y-9352381D02*
X19115482Y-9361905D01*
X19115482Y-9361905D02*
X19115482Y-9385714D01*
X19115482Y-9385714D02*
X19120244Y-9400000D01*
X19556230Y-8939048D02*
X19620991Y-8939048D01*
X19620991Y-8939048D02*
X19628610Y-8942857D01*
X19628610Y-8942857D02*
X19632420Y-8946667D01*
X19632420Y-8946667D02*
X19636230Y-8954286D01*
X19636230Y-8954286D02*
X19636230Y-8969524D01*
X19636230Y-8969524D02*
X19632420Y-8977143D01*
X19632420Y-8977143D02*
X19628610Y-8980952D01*
X19628610Y-8980952D02*
X19620991Y-8984762D01*
X19620991Y-8984762D02*
X19556230Y-8984762D01*
X19556230Y-9057143D02*
X19556230Y-9041905D01*
X19556230Y-9041905D02*
X19560039Y-9034286D01*
X19560039Y-9034286D02*
X19563849Y-9030476D01*
X19563849Y-9030476D02*
X19575277Y-9022857D01*
X19575277Y-9022857D02*
X19590515Y-9019048D01*
X19590515Y-9019048D02*
X19620991Y-9019048D01*
X19620991Y-9019048D02*
X19628610Y-9022857D01*
X19628610Y-9022857D02*
X19632420Y-9026667D01*
X19632420Y-9026667D02*
X19636230Y-9034286D01*
X19636230Y-9034286D02*
X19636230Y-9049524D01*
X19636230Y-9049524D02*
X19632420Y-9057143D01*
X19632420Y-9057143D02*
X19628610Y-9060952D01*
X19628610Y-9060952D02*
X19620991Y-9064762D01*
X19620991Y-9064762D02*
X19601944Y-9064762D01*
X19601944Y-9064762D02*
X19594325Y-9060952D01*
X19594325Y-9060952D02*
X19590515Y-9057143D01*
X19590515Y-9057143D02*
X19586706Y-9049524D01*
X19586706Y-9049524D02*
X19586706Y-9034286D01*
X19586706Y-9034286D02*
X19590515Y-9026667D01*
X19590515Y-9026667D02*
X19594325Y-9022857D01*
X19594325Y-9022857D02*
X19601944Y-9019048D01*
X9402482Y-9680952D02*
X9402482Y-9623810D01*
X9402482Y-9652381D02*
X9302482Y-9652381D01*
X9302482Y-9652381D02*
X9316768Y-9642857D01*
X9316768Y-9642857D02*
X9326291Y-9633333D01*
X9326291Y-9633333D02*
X9331053Y-9623810D01*
X9302482Y-9742857D02*
X9302482Y-9752381D01*
X9302482Y-9752381D02*
X9307244Y-9761905D01*
X9307244Y-9761905D02*
X9312006Y-9766667D01*
X9312006Y-9766667D02*
X9321530Y-9771429D01*
X9321530Y-9771429D02*
X9340577Y-9776190D01*
X9340577Y-9776190D02*
X9364387Y-9776190D01*
X9364387Y-9776190D02*
X9383434Y-9771429D01*
X9383434Y-9771429D02*
X9392958Y-9766667D01*
X9392958Y-9766667D02*
X9397720Y-9761905D01*
X9397720Y-9761905D02*
X9402482Y-9752381D01*
X9402482Y-9752381D02*
X9402482Y-9742857D01*
X9402482Y-9742857D02*
X9397720Y-9733333D01*
X9397720Y-9733333D02*
X9392958Y-9728571D01*
X9392958Y-9728571D02*
X9383434Y-9723810D01*
X9383434Y-9723810D02*
X9364387Y-9719048D01*
X9364387Y-9719048D02*
X9340577Y-9719048D01*
X9340577Y-9719048D02*
X9321530Y-9723810D01*
X9321530Y-9723810D02*
X9312006Y-9728571D01*
X9312006Y-9728571D02*
X9307244Y-9733333D01*
X9307244Y-9733333D02*
X9302482Y-9742857D01*
X9402482Y-9819048D02*
X9302482Y-9819048D01*
X9402482Y-9876190D02*
X9345339Y-9833333D01*
X9302482Y-9876190D02*
X9359625Y-9819048D01*
D13*
X9518193Y-9743333D02*
X9499145Y-9730000D01*
X9518193Y-9720476D02*
X9478193Y-9720476D01*
X9478193Y-9720476D02*
X9478193Y-9735714D01*
X9478193Y-9735714D02*
X9480098Y-9739524D01*
X9480098Y-9739524D02*
X9482002Y-9741429D01*
X9482002Y-9741429D02*
X9485812Y-9743333D01*
X9485812Y-9743333D02*
X9491526Y-9743333D01*
X9491526Y-9743333D02*
X9495336Y-9741429D01*
X9495336Y-9741429D02*
X9497240Y-9739524D01*
X9497240Y-9739524D02*
X9499145Y-9735714D01*
X9499145Y-9735714D02*
X9499145Y-9720476D01*
X9495336Y-9766190D02*
X9493431Y-9762381D01*
X9493431Y-9762381D02*
X9491526Y-9760476D01*
X9491526Y-9760476D02*
X9487717Y-9758571D01*
X9487717Y-9758571D02*
X9485812Y-9758571D01*
X9485812Y-9758571D02*
X9482002Y-9760476D01*
X9482002Y-9760476D02*
X9480098Y-9762381D01*
X9480098Y-9762381D02*
X9478193Y-9766190D01*
X9478193Y-9766190D02*
X9478193Y-9773810D01*
X9478193Y-9773810D02*
X9480098Y-9777619D01*
X9480098Y-9777619D02*
X9482002Y-9779524D01*
X9482002Y-9779524D02*
X9485812Y-9781429D01*
X9485812Y-9781429D02*
X9487717Y-9781429D01*
X9487717Y-9781429D02*
X9491526Y-9779524D01*
X9491526Y-9779524D02*
X9493431Y-9777619D01*
X9493431Y-9777619D02*
X9495336Y-9773810D01*
X9495336Y-9773810D02*
X9495336Y-9766190D01*
X9495336Y-9766190D02*
X9497240Y-9762381D01*
X9497240Y-9762381D02*
X9499145Y-9760476D01*
X9499145Y-9760476D02*
X9502955Y-9758571D01*
X9502955Y-9758571D02*
X9510574Y-9758571D01*
X9510574Y-9758571D02*
X9514383Y-9760476D01*
X9514383Y-9760476D02*
X9516288Y-9762381D01*
X9516288Y-9762381D02*
X9518193Y-9766190D01*
X9518193Y-9766190D02*
X9518193Y-9773810D01*
X9518193Y-9773810D02*
X9516288Y-9777619D01*
X9516288Y-9777619D02*
X9514383Y-9779524D01*
X9514383Y-9779524D02*
X9510574Y-9781429D01*
X9510574Y-9781429D02*
X9502955Y-9781429D01*
X9502955Y-9781429D02*
X9499145Y-9779524D01*
X9499145Y-9779524D02*
X9497240Y-9777619D01*
X9497240Y-9777619D02*
X9495336Y-9773810D01*
D12*
X14437006Y-6722714D02*
X14432244Y-6727476D01*
X14432244Y-6727476D02*
X14427482Y-6737000D01*
X14427482Y-6737000D02*
X14427482Y-6760809D01*
X14427482Y-6760809D02*
X14432244Y-6770333D01*
X14432244Y-6770333D02*
X14437006Y-6775095D01*
X14437006Y-6775095D02*
X14446529Y-6779857D01*
X14446529Y-6779857D02*
X14456053Y-6779857D01*
X14456053Y-6779857D02*
X14470339Y-6775095D01*
X14470339Y-6775095D02*
X14527482Y-6717952D01*
X14527482Y-6717952D02*
X14527482Y-6779857D01*
X14437006Y-6817952D02*
X14432244Y-6822714D01*
X14432244Y-6822714D02*
X14427482Y-6832238D01*
X14427482Y-6832238D02*
X14427482Y-6856048D01*
X14427482Y-6856048D02*
X14432244Y-6865571D01*
X14432244Y-6865571D02*
X14437006Y-6870333D01*
X14437006Y-6870333D02*
X14446529Y-6875095D01*
X14446529Y-6875095D02*
X14456053Y-6875095D01*
X14456053Y-6875095D02*
X14470339Y-6870333D01*
X14470339Y-6870333D02*
X14527482Y-6813190D01*
X14527482Y-6813190D02*
X14527482Y-6875095D01*
X14460815Y-6960809D02*
X14527482Y-6960809D01*
X14460815Y-6917952D02*
X14513196Y-6917952D01*
X14513196Y-6917952D02*
X14522720Y-6922714D01*
X14522720Y-6922714D02*
X14527482Y-6932238D01*
X14527482Y-6932238D02*
X14527482Y-6946524D01*
X14527482Y-6946524D02*
X14522720Y-6956048D01*
X14522720Y-6956048D02*
X14517958Y-6960809D01*
X14475101Y-7041762D02*
X14475101Y-7008429D01*
X14527482Y-7008429D02*
X14427482Y-7008429D01*
X14427482Y-7008429D02*
X14427482Y-7056048D01*
X14147958Y-6870333D02*
X14152720Y-6865571D01*
X14152720Y-6865571D02*
X14157482Y-6851286D01*
X14157482Y-6851286D02*
X14157482Y-6841762D01*
X14157482Y-6841762D02*
X14152720Y-6827476D01*
X14152720Y-6827476D02*
X14143196Y-6817952D01*
X14143196Y-6817952D02*
X14133672Y-6813190D01*
X14133672Y-6813190D02*
X14114625Y-6808429D01*
X14114625Y-6808429D02*
X14100339Y-6808429D01*
X14100339Y-6808429D02*
X14081291Y-6813190D01*
X14081291Y-6813190D02*
X14071768Y-6817952D01*
X14071768Y-6817952D02*
X14062244Y-6827476D01*
X14062244Y-6827476D02*
X14057482Y-6841762D01*
X14057482Y-6841762D02*
X14057482Y-6851286D01*
X14057482Y-6851286D02*
X14062244Y-6865571D01*
X14062244Y-6865571D02*
X14067006Y-6870333D01*
X14157482Y-6965571D02*
X14157482Y-6908429D01*
X14157482Y-6937000D02*
X14057482Y-6937000D01*
X14057482Y-6937000D02*
X14071768Y-6927476D01*
X14071768Y-6927476D02*
X14081291Y-6917952D01*
X14081291Y-6917952D02*
X14086053Y-6908429D01*
X19679048Y-9402482D02*
X19736190Y-9402482D01*
X19707619Y-9402482D02*
X19707619Y-9302482D01*
X19707619Y-9302482D02*
X19717143Y-9316768D01*
X19717143Y-9316768D02*
X19726667Y-9326291D01*
X19726667Y-9326291D02*
X19736190Y-9331053D01*
X19617143Y-9302482D02*
X19607619Y-9302482D01*
X19607619Y-9302482D02*
X19598095Y-9307244D01*
X19598095Y-9307244D02*
X19593333Y-9312006D01*
X19593333Y-9312006D02*
X19588571Y-9321530D01*
X19588571Y-9321530D02*
X19583810Y-9340577D01*
X19583810Y-9340577D02*
X19583810Y-9364387D01*
X19583810Y-9364387D02*
X19588571Y-9383434D01*
X19588571Y-9383434D02*
X19593333Y-9392958D01*
X19593333Y-9392958D02*
X19598095Y-9397720D01*
X19598095Y-9397720D02*
X19607619Y-9402482D01*
X19607619Y-9402482D02*
X19617143Y-9402482D01*
X19617143Y-9402482D02*
X19626667Y-9397720D01*
X19626667Y-9397720D02*
X19631429Y-9392958D01*
X19631429Y-9392958D02*
X19636190Y-9383434D01*
X19636190Y-9383434D02*
X19640952Y-9364387D01*
X19640952Y-9364387D02*
X19640952Y-9340577D01*
X19640952Y-9340577D02*
X19636190Y-9321530D01*
X19636190Y-9321530D02*
X19631429Y-9312006D01*
X19631429Y-9312006D02*
X19626667Y-9307244D01*
X19626667Y-9307244D02*
X19617143Y-9302482D01*
X19540952Y-9402482D02*
X19540952Y-9302482D01*
X19483810Y-9402482D02*
X19526667Y-9345339D01*
X19483810Y-9302482D02*
X19540952Y-9359625D01*
D13*
X19616667Y-9518193D02*
X19630000Y-9499145D01*
X19639524Y-9518193D02*
X19639524Y-9478193D01*
X19639524Y-9478193D02*
X19624286Y-9478193D01*
X19624286Y-9478193D02*
X19620476Y-9480098D01*
X19620476Y-9480098D02*
X19618571Y-9482002D01*
X19618571Y-9482002D02*
X19616667Y-9485812D01*
X19616667Y-9485812D02*
X19616667Y-9491526D01*
X19616667Y-9491526D02*
X19618571Y-9495336D01*
X19618571Y-9495336D02*
X19620476Y-9497240D01*
X19620476Y-9497240D02*
X19624286Y-9499145D01*
X19624286Y-9499145D02*
X19639524Y-9499145D01*
X19582381Y-9478193D02*
X19590000Y-9478193D01*
X19590000Y-9478193D02*
X19593810Y-9480098D01*
X19593810Y-9480098D02*
X19595714Y-9482002D01*
X19595714Y-9482002D02*
X19599524Y-9487717D01*
X19599524Y-9487717D02*
X19601429Y-9495336D01*
X19601429Y-9495336D02*
X19601429Y-9510574D01*
X19601429Y-9510574D02*
X19599524Y-9514383D01*
X19599524Y-9514383D02*
X19597619Y-9516288D01*
X19597619Y-9516288D02*
X19593810Y-9518193D01*
X19593810Y-9518193D02*
X19586190Y-9518193D01*
X19586190Y-9518193D02*
X19582381Y-9516288D01*
X19582381Y-9516288D02*
X19580476Y-9514383D01*
X19580476Y-9514383D02*
X19578571Y-9510574D01*
X19578571Y-9510574D02*
X19578571Y-9501050D01*
X19578571Y-9501050D02*
X19580476Y-9497240D01*
X19580476Y-9497240D02*
X19582381Y-9495336D01*
X19582381Y-9495336D02*
X19586190Y-9493431D01*
X19586190Y-9493431D02*
X19593810Y-9493431D01*
X19593810Y-9493431D02*
X19597619Y-9495336D01*
X19597619Y-9495336D02*
X19599524Y-9497240D01*
X19599524Y-9497240D02*
X19601429Y-9501050D01*
D12*
X8975000Y-9220000D02*
X9525000Y-9220000D01*
X9525000Y-9220000D02*
X9625000Y-9120000D01*
X9625000Y-9120000D02*
X9625000Y-8780000D01*
X8975000Y-8780000D02*
X8975000Y-9220000D01*
X9625000Y-8780000D02*
X8975000Y-8780000D01*
D14*
X9980000Y-9561250D02*
X9980000Y-9478750D01*
X9980000Y-9478750D02*
X9820000Y-9478750D01*
X9820000Y-9561250D02*
X9980000Y-9561250D01*
X9820000Y-9478750D02*
X9820000Y-9561250D01*
X19808750Y-9830000D02*
X19891250Y-9830000D01*
X19891250Y-9830000D02*
X19891250Y-9670000D01*
X19808750Y-9670000D02*
X19808750Y-9830000D01*
X19891250Y-9670000D02*
X19808750Y-9670000D01*
X18436500Y-11085000D02*
X18436500Y-11825000D01*
X17861500Y-11085000D02*
X18436500Y-11085000D01*
X17861500Y-11267500D02*
X17961500Y-11330000D01*
X17961500Y-11330000D02*
X17861500Y-11392500D01*
X18436500Y-11825000D02*
X17861500Y-11825000D01*
X17861500Y-11825000D02*
X17861500Y-11085000D01*
D12*
X19275000Y-9220000D02*
X19825000Y-9220000D01*
X19825000Y-9220000D02*
X19925000Y-9120000D01*
X19925000Y-9120000D02*
X19925000Y-8780000D01*
X19275000Y-8780000D02*
X19275000Y-9220000D01*
X19925000Y-8780000D02*
X19275000Y-8780000D01*
D14*
X9458750Y-9830000D02*
X9541250Y-9830000D01*
X9541250Y-9830000D02*
X9541250Y-9670000D01*
X9458750Y-9670000D02*
X9458750Y-9830000D01*
X9541250Y-9670000D02*
X9458750Y-9670000D01*
X14277000Y-6622000D02*
X14377000Y-6722000D01*
X13947000Y-6622000D02*
X14277000Y-6622000D01*
X13947000Y-6622000D02*
X13847000Y-6722000D01*
X13992000Y-6683604D02*
X13992000Y-6733604D01*
X13967000Y-6708604D02*
X14017000Y-6708604D01*
X14377000Y-6722000D02*
X14377000Y-7152000D01*
X13847000Y-6722000D02*
X13847000Y-7152000D01*
X13847000Y-7152000D02*
X14377000Y-7152000D01*
X14362000Y-6887000D02*
G75*
G03*
X14362000Y-6887000I-250000J0D01*
G01*
X19530000Y-9458750D02*
X19530000Y-9541250D01*
X19530000Y-9541250D02*
X19690000Y-9541250D01*
X19690000Y-9458750D02*
X19530000Y-9458750D01*
X19690000Y-9541250D02*
X19690000Y-9458750D01*
M02*
