%TF.GenerationSoftware,KiCad,Pcbnew,7.0.5-7.0.5~ubuntu20.04.1*%
%TF.CreationDate,2023-06-15T15:06:09+02:00*%
%TF.ProjectId,Controler_NRF24L01_Exclude_v3,436f6e74-726f-46c6-9572-5f4e52463234,rev?*%
%TF.SameCoordinates,Original*%
%TF.FileFunction,Legend,Top*%
%TF.FilePolarity,Positive*%
%FSLAX45Y45*%
G04 Gerber Fmt 4.5, Leading zero omitted, Abs format (unit mm)*
G04 Created by KiCad (PCBNEW 7.0.5-7.0.5~ubuntu20.04.1) date 2023-06-15 15:06:09*
%MOMM*%
%LPD*%
G01*
G04 APERTURE LIST*
G04 Aperture macros list*
%AMRoundRect*
0 Rectangle with rounded corners*
0 $1 Rounding radius*
0 $2 $3 $4 $5 $6 $7 $8 $9 X,Y pos of 4 corners*
0 Add a 4 corners polygon primitive as box body*
4,1,4,$2,$3,$4,$5,$6,$7,$8,$9,$2,$3,0*
0 Add four circle primitives for the rounded corners*
1,1,$1+$1,$2,$3*
1,1,$1+$1,$4,$5*
1,1,$1+$1,$6,$7*
1,1,$1+$1,$8,$9*
0 Add four rect primitives between the rounded corners*
20,1,$1+$1,$2,$3,$4,$5,0*
20,1,$1+$1,$4,$5,$6,$7,0*
20,1,$1+$1,$6,$7,$8,$9,0*
20,1,$1+$1,$8,$9,$2,$3,0*%
G04 Aperture macros list end*
%TA.AperFunction,Profile*%
%ADD10C,0.050000*%
%TD*%
%TA.AperFunction,Profile*%
%ADD11C,0.100000*%
%TD*%
%ADD12C,0.150000*%
%ADD13C,0.120000*%
%ADD14RoundRect,0.237500X-0.237500X0.287500X-0.237500X-0.287500X0.237500X-0.287500X0.237500X0.287500X0*%
%ADD15RoundRect,0.237500X-0.287500X-0.237500X0.287500X-0.237500X0.287500X0.237500X-0.287500X0.237500X0*%
%ADD16RoundRect,0.237500X-0.250000X-0.237500X0.250000X-0.237500X0.250000X0.237500X-0.250000X0.237500X0*%
%ADD17R,0.760000X1.600000*%
%ADD18RoundRect,0.237500X0.237500X-0.250000X0.237500X0.250000X-0.237500X0.250000X-0.237500X-0.250000X0*%
%ADD19RoundRect,0.237500X0.250000X0.237500X-0.250000X0.237500X-0.250000X-0.237500X0.250000X-0.237500X0*%
%ADD20RoundRect,0.237500X-0.300000X-0.237500X0.300000X-0.237500X0.300000X0.237500X-0.300000X0.237500X0*%
%ADD21C,5.600000*%
%ADD22R,1.550000X1.300000*%
%ADD23RoundRect,0.250000X0.600000X0.725000X-0.600000X0.725000X-0.600000X-0.725000X0.600000X-0.725000X0*%
%ADD24O,1.700000X1.950000*%
%ADD25RoundRect,0.125000X0.125000X-0.625000X0.125000X0.625000X-0.125000X0.625000X-0.125000X-0.625000X0*%
%ADD26RoundRect,0.125000X0.625000X-0.125000X0.625000X0.125000X-0.625000X0.125000X-0.625000X-0.125000X0*%
%ADD27RoundRect,0.237500X-0.237500X0.250000X-0.237500X-0.250000X0.237500X-0.250000X0.237500X0.250000X0*%
%ADD28R,1.700000X1.700000*%
%ADD29O,1.700000X1.700000*%
%ADD30RoundRect,0.237500X-0.237500X0.300000X-0.237500X-0.300000X0.237500X-0.300000X0.237500X0.300000X0*%
%ADD31RoundRect,0.100000X-0.712500X-0.100000X0.712500X-0.100000X0.712500X0.100000X-0.712500X0.100000X0*%
%ADD32RoundRect,0.237500X0.300000X0.237500X-0.300000X0.237500X-0.300000X-0.237500X0.300000X-0.237500X0*%
%ADD33R,2.400000X0.740000*%
%ADD34RoundRect,0.100000X0.100000X-0.637500X0.100000X0.637500X-0.100000X0.637500X-0.100000X-0.637500X0*%
%ADD35RoundRect,0.250000X-0.750000X0.600000X-0.750000X-0.600000X0.750000X-0.600000X0.750000X0.600000X0*%
%ADD36O,2.000000X1.700000*%
G04 APERTURE END LIST*
D10*
X20569000Y-12290000D02*
G75*
G03*
X20569000Y-6490000I-1674316J2900000D01*
G01*
D11*
X8169000Y-6490000D02*
X20569000Y-6490000D01*
X8169000Y-12290000D02*
X20569000Y-12290000D01*
D10*
X8169000Y-6490000D02*
G75*
G03*
X8169000Y-12290000I1674316J-2900000D01*
G01*
D12*
X16894982Y-7191428D02*
X16794982Y-7191428D01*
X16794982Y-7191428D02*
X16794982Y-7167619D01*
X16794982Y-7167619D02*
X16799744Y-7153333D01*
X16799744Y-7153333D02*
X16809268Y-7143809D01*
X16809268Y-7143809D02*
X16818791Y-7139048D01*
X16818791Y-7139048D02*
X16837839Y-7134286D01*
X16837839Y-7134286D02*
X16852125Y-7134286D01*
X16852125Y-7134286D02*
X16871172Y-7139048D01*
X16871172Y-7139048D02*
X16880696Y-7143809D01*
X16880696Y-7143809D02*
X16890220Y-7153333D01*
X16890220Y-7153333D02*
X16894982Y-7167619D01*
X16894982Y-7167619D02*
X16894982Y-7191428D01*
X16894982Y-7039048D02*
X16894982Y-7096190D01*
X16894982Y-7067619D02*
X16794982Y-7067619D01*
X16794982Y-7067619D02*
X16809268Y-7077143D01*
X16809268Y-7077143D02*
X16818791Y-7086667D01*
X16818791Y-7086667D02*
X16823553Y-7096190D01*
X16794982Y-6953333D02*
X16794982Y-6972381D01*
X16794982Y-6972381D02*
X16799744Y-6981905D01*
X16799744Y-6981905D02*
X16804506Y-6986667D01*
X16804506Y-6986667D02*
X16818791Y-6996190D01*
X16818791Y-6996190D02*
X16837839Y-7000952D01*
X16837839Y-7000952D02*
X16875934Y-7000952D01*
X16875934Y-7000952D02*
X16885458Y-6996190D01*
X16885458Y-6996190D02*
X16890220Y-6991428D01*
X16890220Y-6991428D02*
X16894982Y-6981905D01*
X16894982Y-6981905D02*
X16894982Y-6962857D01*
X16894982Y-6962857D02*
X16890220Y-6953333D01*
X16890220Y-6953333D02*
X16885458Y-6948571D01*
X16885458Y-6948571D02*
X16875934Y-6943809D01*
X16875934Y-6943809D02*
X16852125Y-6943809D01*
X16852125Y-6943809D02*
X16842601Y-6948571D01*
X16842601Y-6948571D02*
X16837839Y-6953333D01*
X16837839Y-6953333D02*
X16833077Y-6962857D01*
X16833077Y-6962857D02*
X16833077Y-6981905D01*
X16833077Y-6981905D02*
X16837839Y-6991428D01*
X16837839Y-6991428D02*
X16842601Y-6996190D01*
X16842601Y-6996190D02*
X16852125Y-7000952D01*
X17821191Y-8012482D02*
X17821191Y-7912482D01*
X17821191Y-7912482D02*
X17845000Y-7912482D01*
X17845000Y-7912482D02*
X17859286Y-7917244D01*
X17859286Y-7917244D02*
X17868810Y-7926768D01*
X17868810Y-7926768D02*
X17873571Y-7936291D01*
X17873571Y-7936291D02*
X17878333Y-7955339D01*
X17878333Y-7955339D02*
X17878333Y-7969625D01*
X17878333Y-7969625D02*
X17873571Y-7988672D01*
X17873571Y-7988672D02*
X17868810Y-7998196D01*
X17868810Y-7998196D02*
X17859286Y-8007720D01*
X17859286Y-8007720D02*
X17845000Y-8012482D01*
X17845000Y-8012482D02*
X17821191Y-8012482D01*
X17916429Y-7922006D02*
X17921191Y-7917244D01*
X17921191Y-7917244D02*
X17930714Y-7912482D01*
X17930714Y-7912482D02*
X17954524Y-7912482D01*
X17954524Y-7912482D02*
X17964048Y-7917244D01*
X17964048Y-7917244D02*
X17968810Y-7922006D01*
X17968810Y-7922006D02*
X17973571Y-7931529D01*
X17973571Y-7931529D02*
X17973571Y-7941053D01*
X17973571Y-7941053D02*
X17968810Y-7955339D01*
X17968810Y-7955339D02*
X17911667Y-8012482D01*
X17911667Y-8012482D02*
X17973571Y-8012482D01*
X15769982Y-7146309D02*
X15669982Y-7146309D01*
X15669982Y-7146309D02*
X15669982Y-7122500D01*
X15669982Y-7122500D02*
X15674744Y-7108214D01*
X15674744Y-7108214D02*
X15684268Y-7098690D01*
X15684268Y-7098690D02*
X15693791Y-7093928D01*
X15693791Y-7093928D02*
X15712839Y-7089167D01*
X15712839Y-7089167D02*
X15727125Y-7089167D01*
X15727125Y-7089167D02*
X15746172Y-7093928D01*
X15746172Y-7093928D02*
X15755696Y-7098690D01*
X15755696Y-7098690D02*
X15765220Y-7108214D01*
X15765220Y-7108214D02*
X15769982Y-7122500D01*
X15769982Y-7122500D02*
X15769982Y-7146309D01*
X15769982Y-7041547D02*
X15769982Y-7022500D01*
X15769982Y-7022500D02*
X15765220Y-7012976D01*
X15765220Y-7012976D02*
X15760458Y-7008214D01*
X15760458Y-7008214D02*
X15746172Y-6998690D01*
X15746172Y-6998690D02*
X15727125Y-6993928D01*
X15727125Y-6993928D02*
X15689029Y-6993928D01*
X15689029Y-6993928D02*
X15679506Y-6998690D01*
X15679506Y-6998690D02*
X15674744Y-7003452D01*
X15674744Y-7003452D02*
X15669982Y-7012976D01*
X15669982Y-7012976D02*
X15669982Y-7032024D01*
X15669982Y-7032024D02*
X15674744Y-7041547D01*
X15674744Y-7041547D02*
X15679506Y-7046309D01*
X15679506Y-7046309D02*
X15689029Y-7051071D01*
X15689029Y-7051071D02*
X15712839Y-7051071D01*
X15712839Y-7051071D02*
X15722363Y-7046309D01*
X15722363Y-7046309D02*
X15727125Y-7041547D01*
X15727125Y-7041547D02*
X15731887Y-7032024D01*
X15731887Y-7032024D02*
X15731887Y-7012976D01*
X15731887Y-7012976D02*
X15727125Y-7003452D01*
X15727125Y-7003452D02*
X15722363Y-6998690D01*
X15722363Y-6998690D02*
X15712839Y-6993928D01*
X17878333Y-7860082D02*
X17845000Y-7812463D01*
X17821191Y-7860082D02*
X17821191Y-7760082D01*
X17821191Y-7760082D02*
X17859286Y-7760082D01*
X17859286Y-7760082D02*
X17868810Y-7764844D01*
X17868810Y-7764844D02*
X17873571Y-7769606D01*
X17873571Y-7769606D02*
X17878333Y-7779129D01*
X17878333Y-7779129D02*
X17878333Y-7793415D01*
X17878333Y-7793415D02*
X17873571Y-7802939D01*
X17873571Y-7802939D02*
X17868810Y-7807701D01*
X17868810Y-7807701D02*
X17859286Y-7812463D01*
X17859286Y-7812463D02*
X17821191Y-7812463D01*
X17911667Y-7760082D02*
X17973571Y-7760082D01*
X17973571Y-7760082D02*
X17940238Y-7798177D01*
X17940238Y-7798177D02*
X17954524Y-7798177D01*
X17954524Y-7798177D02*
X17964048Y-7802939D01*
X17964048Y-7802939D02*
X17968810Y-7807701D01*
X17968810Y-7807701D02*
X17973571Y-7817225D01*
X17973571Y-7817225D02*
X17973571Y-7841034D01*
X17973571Y-7841034D02*
X17968810Y-7850558D01*
X17968810Y-7850558D02*
X17964048Y-7855320D01*
X17964048Y-7855320D02*
X17954524Y-7860082D01*
X17954524Y-7860082D02*
X17925952Y-7860082D01*
X17925952Y-7860082D02*
X17916429Y-7855320D01*
X17916429Y-7855320D02*
X17911667Y-7850558D01*
X12276720Y-8170952D02*
X12281482Y-8156667D01*
X12281482Y-8156667D02*
X12281482Y-8132857D01*
X12281482Y-8132857D02*
X12276720Y-8123333D01*
X12276720Y-8123333D02*
X12271958Y-8118571D01*
X12271958Y-8118571D02*
X12262434Y-8113809D01*
X12262434Y-8113809D02*
X12252910Y-8113809D01*
X12252910Y-8113809D02*
X12243387Y-8118571D01*
X12243387Y-8118571D02*
X12238625Y-8123333D01*
X12238625Y-8123333D02*
X12233863Y-8132857D01*
X12233863Y-8132857D02*
X12229101Y-8151905D01*
X12229101Y-8151905D02*
X12224339Y-8161428D01*
X12224339Y-8161428D02*
X12219577Y-8166190D01*
X12219577Y-8166190D02*
X12210053Y-8170952D01*
X12210053Y-8170952D02*
X12200529Y-8170952D01*
X12200529Y-8170952D02*
X12191006Y-8166190D01*
X12191006Y-8166190D02*
X12186244Y-8161428D01*
X12186244Y-8161428D02*
X12181482Y-8151905D01*
X12181482Y-8151905D02*
X12181482Y-8128095D01*
X12181482Y-8128095D02*
X12186244Y-8113809D01*
X12181482Y-8080476D02*
X12281482Y-8056667D01*
X12281482Y-8056667D02*
X12210053Y-8037619D01*
X12210053Y-8037619D02*
X12281482Y-8018571D01*
X12281482Y-8018571D02*
X12181482Y-7994762D01*
X12281482Y-7904286D02*
X12281482Y-7961428D01*
X12281482Y-7932857D02*
X12181482Y-7932857D01*
X12181482Y-7932857D02*
X12195768Y-7942381D01*
X12195768Y-7942381D02*
X12205291Y-7951905D01*
X12205291Y-7951905D02*
X12210053Y-7961428D01*
X12181482Y-7842381D02*
X12181482Y-7832857D01*
X12181482Y-7832857D02*
X12186244Y-7823333D01*
X12186244Y-7823333D02*
X12191006Y-7818571D01*
X12191006Y-7818571D02*
X12200529Y-7813809D01*
X12200529Y-7813809D02*
X12219577Y-7809048D01*
X12219577Y-7809048D02*
X12243387Y-7809048D01*
X12243387Y-7809048D02*
X12262434Y-7813809D01*
X12262434Y-7813809D02*
X12271958Y-7818571D01*
X12271958Y-7818571D02*
X12276720Y-7823333D01*
X12276720Y-7823333D02*
X12281482Y-7832857D01*
X12281482Y-7832857D02*
X12281482Y-7842381D01*
X12281482Y-7842381D02*
X12276720Y-7851905D01*
X12276720Y-7851905D02*
X12271958Y-7856667D01*
X12271958Y-7856667D02*
X12262434Y-7861428D01*
X12262434Y-7861428D02*
X12243387Y-7866190D01*
X12243387Y-7866190D02*
X12219577Y-7866190D01*
X12219577Y-7866190D02*
X12200529Y-7861428D01*
X12200529Y-7861428D02*
X12191006Y-7856667D01*
X12191006Y-7856667D02*
X12186244Y-7851905D01*
X12186244Y-7851905D02*
X12181482Y-7842381D01*
X17054982Y-7191428D02*
X16954982Y-7191428D01*
X16954982Y-7191428D02*
X16954982Y-7167619D01*
X16954982Y-7167619D02*
X16959744Y-7153333D01*
X16959744Y-7153333D02*
X16969268Y-7143809D01*
X16969268Y-7143809D02*
X16978791Y-7139048D01*
X16978791Y-7139048D02*
X16997839Y-7134286D01*
X16997839Y-7134286D02*
X17012125Y-7134286D01*
X17012125Y-7134286D02*
X17031172Y-7139048D01*
X17031172Y-7139048D02*
X17040696Y-7143809D01*
X17040696Y-7143809D02*
X17050220Y-7153333D01*
X17050220Y-7153333D02*
X17054982Y-7167619D01*
X17054982Y-7167619D02*
X17054982Y-7191428D01*
X17054982Y-7039048D02*
X17054982Y-7096190D01*
X17054982Y-7067619D02*
X16954982Y-7067619D01*
X16954982Y-7067619D02*
X16969268Y-7077143D01*
X16969268Y-7077143D02*
X16978791Y-7086667D01*
X16978791Y-7086667D02*
X16983553Y-7096190D01*
X16954982Y-7005714D02*
X16954982Y-6939048D01*
X16954982Y-6939048D02*
X17054982Y-6981905D01*
X16711482Y-6785536D02*
X16663863Y-6818869D01*
X16711482Y-6842678D02*
X16611482Y-6842678D01*
X16611482Y-6842678D02*
X16611482Y-6804583D01*
X16611482Y-6804583D02*
X16616244Y-6795059D01*
X16616244Y-6795059D02*
X16621006Y-6790298D01*
X16621006Y-6790298D02*
X16630529Y-6785536D01*
X16630529Y-6785536D02*
X16644815Y-6785536D01*
X16644815Y-6785536D02*
X16654339Y-6790298D01*
X16654339Y-6790298D02*
X16659101Y-6795059D01*
X16659101Y-6795059D02*
X16663863Y-6804583D01*
X16663863Y-6804583D02*
X16663863Y-6842678D01*
X16611482Y-6752202D02*
X16611482Y-6690298D01*
X16611482Y-6690298D02*
X16649577Y-6723631D01*
X16649577Y-6723631D02*
X16649577Y-6709345D01*
X16649577Y-6709345D02*
X16654339Y-6699821D01*
X16654339Y-6699821D02*
X16659101Y-6695059D01*
X16659101Y-6695059D02*
X16668625Y-6690298D01*
X16668625Y-6690298D02*
X16692434Y-6690298D01*
X16692434Y-6690298D02*
X16701958Y-6695059D01*
X16701958Y-6695059D02*
X16706720Y-6699821D01*
X16706720Y-6699821D02*
X16711482Y-6709345D01*
X16711482Y-6709345D02*
X16711482Y-6737917D01*
X16711482Y-6737917D02*
X16706720Y-6747440D01*
X16706720Y-6747440D02*
X16701958Y-6752202D01*
X16611482Y-6656964D02*
X16611482Y-6595059D01*
X16611482Y-6595059D02*
X16649577Y-6628393D01*
X16649577Y-6628393D02*
X16649577Y-6614107D01*
X16649577Y-6614107D02*
X16654339Y-6604583D01*
X16654339Y-6604583D02*
X16659101Y-6599821D01*
X16659101Y-6599821D02*
X16668625Y-6595059D01*
X16668625Y-6595059D02*
X16692434Y-6595059D01*
X16692434Y-6595059D02*
X16701958Y-6599821D01*
X16701958Y-6599821D02*
X16706720Y-6604583D01*
X16706720Y-6604583D02*
X16711482Y-6614107D01*
X16711482Y-6614107D02*
X16711482Y-6642678D01*
X16711482Y-6642678D02*
X16706720Y-6652202D01*
X16706720Y-6652202D02*
X16701958Y-6656964D01*
X16414982Y-7191428D02*
X16314982Y-7191428D01*
X16314982Y-7191428D02*
X16314982Y-7167619D01*
X16314982Y-7167619D02*
X16319744Y-7153333D01*
X16319744Y-7153333D02*
X16329268Y-7143809D01*
X16329268Y-7143809D02*
X16338791Y-7139048D01*
X16338791Y-7139048D02*
X16357839Y-7134286D01*
X16357839Y-7134286D02*
X16372125Y-7134286D01*
X16372125Y-7134286D02*
X16391172Y-7139048D01*
X16391172Y-7139048D02*
X16400696Y-7143809D01*
X16400696Y-7143809D02*
X16410220Y-7153333D01*
X16410220Y-7153333D02*
X16414982Y-7167619D01*
X16414982Y-7167619D02*
X16414982Y-7191428D01*
X16414982Y-7039048D02*
X16414982Y-7096190D01*
X16414982Y-7067619D02*
X16314982Y-7067619D01*
X16314982Y-7067619D02*
X16329268Y-7077143D01*
X16329268Y-7077143D02*
X16338791Y-7086667D01*
X16338791Y-7086667D02*
X16343553Y-7096190D01*
X16314982Y-7005714D02*
X16314982Y-6943809D01*
X16314982Y-6943809D02*
X16353077Y-6977143D01*
X16353077Y-6977143D02*
X16353077Y-6962857D01*
X16353077Y-6962857D02*
X16357839Y-6953333D01*
X16357839Y-6953333D02*
X16362601Y-6948571D01*
X16362601Y-6948571D02*
X16372125Y-6943809D01*
X16372125Y-6943809D02*
X16395934Y-6943809D01*
X16395934Y-6943809D02*
X16405458Y-6948571D01*
X16405458Y-6948571D02*
X16410220Y-6953333D01*
X16410220Y-6953333D02*
X16414982Y-6962857D01*
X16414982Y-6962857D02*
X16414982Y-6991428D01*
X16414982Y-6991428D02*
X16410220Y-7000952D01*
X16410220Y-7000952D02*
X16405458Y-7005714D01*
X14985714Y-8238482D02*
X14952381Y-8190863D01*
X14928571Y-8238482D02*
X14928571Y-8138482D01*
X14928571Y-8138482D02*
X14966667Y-8138482D01*
X14966667Y-8138482D02*
X14976190Y-8143244D01*
X14976190Y-8143244D02*
X14980952Y-8148006D01*
X14980952Y-8148006D02*
X14985714Y-8157529D01*
X14985714Y-8157529D02*
X14985714Y-8171815D01*
X14985714Y-8171815D02*
X14980952Y-8181339D01*
X14980952Y-8181339D02*
X14976190Y-8186101D01*
X14976190Y-8186101D02*
X14966667Y-8190863D01*
X14966667Y-8190863D02*
X14928571Y-8190863D01*
X15080952Y-8238482D02*
X15023809Y-8238482D01*
X15052381Y-8238482D02*
X15052381Y-8138482D01*
X15052381Y-8138482D02*
X15042857Y-8152768D01*
X15042857Y-8152768D02*
X15033333Y-8162291D01*
X15033333Y-8162291D02*
X15023809Y-8167053D01*
X15176190Y-8238482D02*
X15119048Y-8238482D01*
X15147619Y-8238482D02*
X15147619Y-8138482D01*
X15147619Y-8138482D02*
X15138095Y-8152768D01*
X15138095Y-8152768D02*
X15128571Y-8162291D01*
X15128571Y-8162291D02*
X15119048Y-8167053D01*
X11445190Y-6492482D02*
X11445190Y-6392482D01*
X11445190Y-6392482D02*
X11469000Y-6392482D01*
X11469000Y-6392482D02*
X11483286Y-6397244D01*
X11483286Y-6397244D02*
X11492809Y-6406768D01*
X11492809Y-6406768D02*
X11497571Y-6416291D01*
X11497571Y-6416291D02*
X11502333Y-6435339D01*
X11502333Y-6435339D02*
X11502333Y-6449625D01*
X11502333Y-6449625D02*
X11497571Y-6468672D01*
X11497571Y-6468672D02*
X11492809Y-6478196D01*
X11492809Y-6478196D02*
X11483286Y-6487720D01*
X11483286Y-6487720D02*
X11469000Y-6492482D01*
X11469000Y-6492482D02*
X11445190Y-6492482D01*
X11588048Y-6425815D02*
X11588048Y-6492482D01*
X11564238Y-6387720D02*
X11540429Y-6459148D01*
X11540429Y-6459148D02*
X11602333Y-6459148D01*
X16961833Y-8452958D02*
X16957071Y-8457720D01*
X16957071Y-8457720D02*
X16942786Y-8462482D01*
X16942786Y-8462482D02*
X16933262Y-8462482D01*
X16933262Y-8462482D02*
X16918976Y-8457720D01*
X16918976Y-8457720D02*
X16909452Y-8448196D01*
X16909452Y-8448196D02*
X16904691Y-8438672D01*
X16904691Y-8438672D02*
X16899929Y-8419625D01*
X16899929Y-8419625D02*
X16899929Y-8405339D01*
X16899929Y-8405339D02*
X16904691Y-8386291D01*
X16904691Y-8386291D02*
X16909452Y-8376768D01*
X16909452Y-8376768D02*
X16918976Y-8367244D01*
X16918976Y-8367244D02*
X16933262Y-8362482D01*
X16933262Y-8362482D02*
X16942786Y-8362482D01*
X16942786Y-8362482D02*
X16957071Y-8367244D01*
X16957071Y-8367244D02*
X16961833Y-8372006D01*
X17047548Y-8395815D02*
X17047548Y-8462482D01*
X17023738Y-8357720D02*
X16999929Y-8429149D01*
X16999929Y-8429149D02*
X17061833Y-8429149D01*
X15961482Y-6785536D02*
X15913863Y-6818869D01*
X15961482Y-6842678D02*
X15861482Y-6842678D01*
X15861482Y-6842678D02*
X15861482Y-6804583D01*
X15861482Y-6804583D02*
X15866244Y-6795059D01*
X15866244Y-6795059D02*
X15871006Y-6790298D01*
X15871006Y-6790298D02*
X15880529Y-6785536D01*
X15880529Y-6785536D02*
X15894815Y-6785536D01*
X15894815Y-6785536D02*
X15904339Y-6790298D01*
X15904339Y-6790298D02*
X15909101Y-6795059D01*
X15909101Y-6795059D02*
X15913863Y-6804583D01*
X15913863Y-6804583D02*
X15913863Y-6842678D01*
X15871006Y-6747440D02*
X15866244Y-6742678D01*
X15866244Y-6742678D02*
X15861482Y-6733155D01*
X15861482Y-6733155D02*
X15861482Y-6709345D01*
X15861482Y-6709345D02*
X15866244Y-6699821D01*
X15866244Y-6699821D02*
X15871006Y-6695059D01*
X15871006Y-6695059D02*
X15880529Y-6690298D01*
X15880529Y-6690298D02*
X15890053Y-6690298D01*
X15890053Y-6690298D02*
X15904339Y-6695059D01*
X15904339Y-6695059D02*
X15961482Y-6752202D01*
X15961482Y-6752202D02*
X15961482Y-6690298D01*
X15904339Y-6633155D02*
X15899577Y-6642678D01*
X15899577Y-6642678D02*
X15894815Y-6647440D01*
X15894815Y-6647440D02*
X15885291Y-6652202D01*
X15885291Y-6652202D02*
X15880529Y-6652202D01*
X15880529Y-6652202D02*
X15871006Y-6647440D01*
X15871006Y-6647440D02*
X15866244Y-6642678D01*
X15866244Y-6642678D02*
X15861482Y-6633155D01*
X15861482Y-6633155D02*
X15861482Y-6614107D01*
X15861482Y-6614107D02*
X15866244Y-6604583D01*
X15866244Y-6604583D02*
X15871006Y-6599821D01*
X15871006Y-6599821D02*
X15880529Y-6595059D01*
X15880529Y-6595059D02*
X15885291Y-6595059D01*
X15885291Y-6595059D02*
X15894815Y-6599821D01*
X15894815Y-6599821D02*
X15899577Y-6604583D01*
X15899577Y-6604583D02*
X15904339Y-6614107D01*
X15904339Y-6614107D02*
X15904339Y-6633155D01*
X15904339Y-6633155D02*
X15909101Y-6642678D01*
X15909101Y-6642678D02*
X15913863Y-6647440D01*
X15913863Y-6647440D02*
X15923387Y-6652202D01*
X15923387Y-6652202D02*
X15942434Y-6652202D01*
X15942434Y-6652202D02*
X15951958Y-6647440D01*
X15951958Y-6647440D02*
X15956720Y-6642678D01*
X15956720Y-6642678D02*
X15961482Y-6633155D01*
X15961482Y-6633155D02*
X15961482Y-6614107D01*
X15961482Y-6614107D02*
X15956720Y-6604583D01*
X15956720Y-6604583D02*
X15951958Y-6599821D01*
X15951958Y-6599821D02*
X15942434Y-6595059D01*
X15942434Y-6595059D02*
X15923387Y-6595059D01*
X15923387Y-6595059D02*
X15913863Y-6599821D01*
X15913863Y-6599821D02*
X15909101Y-6604583D01*
X15909101Y-6604583D02*
X15904339Y-6614107D01*
X8092809Y-6855482D02*
X8092809Y-6755482D01*
X8092809Y-6803101D02*
X8149952Y-6803101D01*
X8149952Y-6855482D02*
X8149952Y-6755482D01*
X8249952Y-6855482D02*
X8192809Y-6855482D01*
X8221381Y-6855482D02*
X8221381Y-6755482D01*
X8221381Y-6755482D02*
X8211857Y-6769768D01*
X8211857Y-6769768D02*
X8202333Y-6779291D01*
X8202333Y-6779291D02*
X8192809Y-6784053D01*
X15361482Y-6785536D02*
X15313863Y-6818869D01*
X15361482Y-6842678D02*
X15261482Y-6842678D01*
X15261482Y-6842678D02*
X15261482Y-6804583D01*
X15261482Y-6804583D02*
X15266244Y-6795059D01*
X15266244Y-6795059D02*
X15271006Y-6790298D01*
X15271006Y-6790298D02*
X15280529Y-6785536D01*
X15280529Y-6785536D02*
X15294815Y-6785536D01*
X15294815Y-6785536D02*
X15304339Y-6790298D01*
X15304339Y-6790298D02*
X15309101Y-6795059D01*
X15309101Y-6795059D02*
X15313863Y-6804583D01*
X15313863Y-6804583D02*
X15313863Y-6842678D01*
X15271006Y-6747440D02*
X15266244Y-6742678D01*
X15266244Y-6742678D02*
X15261482Y-6733155D01*
X15261482Y-6733155D02*
X15261482Y-6709345D01*
X15261482Y-6709345D02*
X15266244Y-6699821D01*
X15266244Y-6699821D02*
X15271006Y-6695059D01*
X15271006Y-6695059D02*
X15280529Y-6690298D01*
X15280529Y-6690298D02*
X15290053Y-6690298D01*
X15290053Y-6690298D02*
X15304339Y-6695059D01*
X15304339Y-6695059D02*
X15361482Y-6752202D01*
X15361482Y-6752202D02*
X15361482Y-6690298D01*
X15294815Y-6604583D02*
X15361482Y-6604583D01*
X15256720Y-6628393D02*
X15328148Y-6652202D01*
X15328148Y-6652202D02*
X15328148Y-6590298D01*
X8092809Y-11055482D02*
X8092809Y-10955482D01*
X8092809Y-11003101D02*
X8149952Y-11003101D01*
X8149952Y-11055482D02*
X8149952Y-10955482D01*
X8188048Y-10955482D02*
X8249952Y-10955482D01*
X8249952Y-10955482D02*
X8216619Y-10993577D01*
X8216619Y-10993577D02*
X8230905Y-10993577D01*
X8230905Y-10993577D02*
X8240428Y-10998339D01*
X8240428Y-10998339D02*
X8245190Y-11003101D01*
X8245190Y-11003101D02*
X8249952Y-11012625D01*
X8249952Y-11012625D02*
X8249952Y-11036434D01*
X8249952Y-11036434D02*
X8245190Y-11045958D01*
X8245190Y-11045958D02*
X8240428Y-11050720D01*
X8240428Y-11050720D02*
X8230905Y-11055482D01*
X8230905Y-11055482D02*
X8202333Y-11055482D01*
X8202333Y-11055482D02*
X8192809Y-11050720D01*
X8192809Y-11050720D02*
X8188048Y-11045958D01*
X15508482Y-6785536D02*
X15460863Y-6818869D01*
X15508482Y-6842678D02*
X15408482Y-6842678D01*
X15408482Y-6842678D02*
X15408482Y-6804583D01*
X15408482Y-6804583D02*
X15413244Y-6795059D01*
X15413244Y-6795059D02*
X15418006Y-6790298D01*
X15418006Y-6790298D02*
X15427529Y-6785536D01*
X15427529Y-6785536D02*
X15441815Y-6785536D01*
X15441815Y-6785536D02*
X15451339Y-6790298D01*
X15451339Y-6790298D02*
X15456101Y-6795059D01*
X15456101Y-6795059D02*
X15460863Y-6804583D01*
X15460863Y-6804583D02*
X15460863Y-6842678D01*
X15418006Y-6747440D02*
X15413244Y-6742678D01*
X15413244Y-6742678D02*
X15408482Y-6733155D01*
X15408482Y-6733155D02*
X15408482Y-6709345D01*
X15408482Y-6709345D02*
X15413244Y-6699821D01*
X15413244Y-6699821D02*
X15418006Y-6695059D01*
X15418006Y-6695059D02*
X15427529Y-6690298D01*
X15427529Y-6690298D02*
X15437053Y-6690298D01*
X15437053Y-6690298D02*
X15451339Y-6695059D01*
X15451339Y-6695059D02*
X15508482Y-6752202D01*
X15508482Y-6752202D02*
X15508482Y-6690298D01*
X15408482Y-6599821D02*
X15408482Y-6647440D01*
X15408482Y-6647440D02*
X15456101Y-6652202D01*
X15456101Y-6652202D02*
X15451339Y-6647440D01*
X15451339Y-6647440D02*
X15446577Y-6637917D01*
X15446577Y-6637917D02*
X15446577Y-6614107D01*
X15446577Y-6614107D02*
X15451339Y-6604583D01*
X15451339Y-6604583D02*
X15456101Y-6599821D01*
X15456101Y-6599821D02*
X15465625Y-6595059D01*
X15465625Y-6595059D02*
X15489434Y-6595059D01*
X15489434Y-6595059D02*
X15498958Y-6599821D01*
X15498958Y-6599821D02*
X15503720Y-6604583D01*
X15503720Y-6604583D02*
X15508482Y-6614107D01*
X15508482Y-6614107D02*
X15508482Y-6637917D01*
X15508482Y-6637917D02*
X15503720Y-6647440D01*
X15503720Y-6647440D02*
X15498958Y-6652202D01*
X16561482Y-6785536D02*
X16513863Y-6818869D01*
X16561482Y-6842678D02*
X16461482Y-6842678D01*
X16461482Y-6842678D02*
X16461482Y-6804583D01*
X16461482Y-6804583D02*
X16466244Y-6795059D01*
X16466244Y-6795059D02*
X16471006Y-6790298D01*
X16471006Y-6790298D02*
X16480529Y-6785536D01*
X16480529Y-6785536D02*
X16494815Y-6785536D01*
X16494815Y-6785536D02*
X16504339Y-6790298D01*
X16504339Y-6790298D02*
X16509101Y-6795059D01*
X16509101Y-6795059D02*
X16513863Y-6804583D01*
X16513863Y-6804583D02*
X16513863Y-6842678D01*
X16461482Y-6752202D02*
X16461482Y-6690298D01*
X16461482Y-6690298D02*
X16499577Y-6723631D01*
X16499577Y-6723631D02*
X16499577Y-6709345D01*
X16499577Y-6709345D02*
X16504339Y-6699821D01*
X16504339Y-6699821D02*
X16509101Y-6695059D01*
X16509101Y-6695059D02*
X16518625Y-6690298D01*
X16518625Y-6690298D02*
X16542434Y-6690298D01*
X16542434Y-6690298D02*
X16551958Y-6695059D01*
X16551958Y-6695059D02*
X16556720Y-6699821D01*
X16556720Y-6699821D02*
X16561482Y-6709345D01*
X16561482Y-6709345D02*
X16561482Y-6737917D01*
X16561482Y-6737917D02*
X16556720Y-6747440D01*
X16556720Y-6747440D02*
X16551958Y-6752202D01*
X16471006Y-6652202D02*
X16466244Y-6647440D01*
X16466244Y-6647440D02*
X16461482Y-6637917D01*
X16461482Y-6637917D02*
X16461482Y-6614107D01*
X16461482Y-6614107D02*
X16466244Y-6604583D01*
X16466244Y-6604583D02*
X16471006Y-6599821D01*
X16471006Y-6599821D02*
X16480529Y-6595059D01*
X16480529Y-6595059D02*
X16490053Y-6595059D01*
X16490053Y-6595059D02*
X16504339Y-6599821D01*
X16504339Y-6599821D02*
X16561482Y-6656964D01*
X16561482Y-6656964D02*
X16561482Y-6595059D01*
X8703131Y-10033482D02*
X8669798Y-9985863D01*
X8645988Y-10033482D02*
X8645988Y-9933482D01*
X8645988Y-9933482D02*
X8684083Y-9933482D01*
X8684083Y-9933482D02*
X8693607Y-9938244D01*
X8693607Y-9938244D02*
X8698369Y-9943006D01*
X8698369Y-9943006D02*
X8703131Y-9952530D01*
X8703131Y-9952530D02*
X8703131Y-9966815D01*
X8703131Y-9966815D02*
X8698369Y-9976339D01*
X8698369Y-9976339D02*
X8693607Y-9981101D01*
X8693607Y-9981101D02*
X8684083Y-9985863D01*
X8684083Y-9985863D02*
X8645988Y-9985863D01*
X8736464Y-9933482D02*
X8803131Y-9933482D01*
X8803131Y-9933482D02*
X8760274Y-10033482D01*
X9185667Y-7450720D02*
X9199952Y-7455482D01*
X9199952Y-7455482D02*
X9223762Y-7455482D01*
X9223762Y-7455482D02*
X9233286Y-7450720D01*
X9233286Y-7450720D02*
X9238048Y-7445958D01*
X9238048Y-7445958D02*
X9242810Y-7436434D01*
X9242810Y-7436434D02*
X9242810Y-7426910D01*
X9242810Y-7426910D02*
X9238048Y-7417387D01*
X9238048Y-7417387D02*
X9233286Y-7412625D01*
X9233286Y-7412625D02*
X9223762Y-7407863D01*
X9223762Y-7407863D02*
X9204714Y-7403101D01*
X9204714Y-7403101D02*
X9195191Y-7398339D01*
X9195191Y-7398339D02*
X9190429Y-7393577D01*
X9190429Y-7393577D02*
X9185667Y-7384053D01*
X9185667Y-7384053D02*
X9185667Y-7374529D01*
X9185667Y-7374529D02*
X9190429Y-7365006D01*
X9190429Y-7365006D02*
X9195191Y-7360244D01*
X9195191Y-7360244D02*
X9204714Y-7355482D01*
X9204714Y-7355482D02*
X9228524Y-7355482D01*
X9228524Y-7355482D02*
X9242810Y-7360244D01*
X9276143Y-7355482D02*
X9299952Y-7455482D01*
X9299952Y-7455482D02*
X9319000Y-7384053D01*
X9319000Y-7384053D02*
X9338048Y-7455482D01*
X9338048Y-7455482D02*
X9361857Y-7355482D01*
X9442810Y-7355482D02*
X9423762Y-7355482D01*
X9423762Y-7355482D02*
X9414238Y-7360244D01*
X9414238Y-7360244D02*
X9409476Y-7365006D01*
X9409476Y-7365006D02*
X9399952Y-7379291D01*
X9399952Y-7379291D02*
X9395191Y-7398339D01*
X9395191Y-7398339D02*
X9395191Y-7436434D01*
X9395191Y-7436434D02*
X9399952Y-7445958D01*
X9399952Y-7445958D02*
X9404714Y-7450720D01*
X9404714Y-7450720D02*
X9414238Y-7455482D01*
X9414238Y-7455482D02*
X9433286Y-7455482D01*
X9433286Y-7455482D02*
X9442810Y-7450720D01*
X9442810Y-7450720D02*
X9447571Y-7445958D01*
X9447571Y-7445958D02*
X9452333Y-7436434D01*
X9452333Y-7436434D02*
X9452333Y-7412625D01*
X9452333Y-7412625D02*
X9447571Y-7403101D01*
X9447571Y-7403101D02*
X9442810Y-7398339D01*
X9442810Y-7398339D02*
X9433286Y-7393577D01*
X9433286Y-7393577D02*
X9414238Y-7393577D01*
X9414238Y-7393577D02*
X9404714Y-7398339D01*
X9404714Y-7398339D02*
X9399952Y-7403101D01*
X9399952Y-7403101D02*
X9395191Y-7412625D01*
X12409048Y-8980720D02*
X12423333Y-8985482D01*
X12423333Y-8985482D02*
X12447143Y-8985482D01*
X12447143Y-8985482D02*
X12456667Y-8980720D01*
X12456667Y-8980720D02*
X12461428Y-8975958D01*
X12461428Y-8975958D02*
X12466190Y-8966434D01*
X12466190Y-8966434D02*
X12466190Y-8956910D01*
X12466190Y-8956910D02*
X12461428Y-8947387D01*
X12461428Y-8947387D02*
X12456667Y-8942625D01*
X12456667Y-8942625D02*
X12447143Y-8937863D01*
X12447143Y-8937863D02*
X12428095Y-8933101D01*
X12428095Y-8933101D02*
X12418571Y-8928339D01*
X12418571Y-8928339D02*
X12413809Y-8923577D01*
X12413809Y-8923577D02*
X12409048Y-8914053D01*
X12409048Y-8914053D02*
X12409048Y-8904530D01*
X12409048Y-8904530D02*
X12413809Y-8895006D01*
X12413809Y-8895006D02*
X12418571Y-8890244D01*
X12418571Y-8890244D02*
X12428095Y-8885482D01*
X12428095Y-8885482D02*
X12451905Y-8885482D01*
X12451905Y-8885482D02*
X12466190Y-8890244D01*
X12499524Y-8885482D02*
X12523333Y-8985482D01*
X12523333Y-8985482D02*
X12542381Y-8914053D01*
X12542381Y-8914053D02*
X12561428Y-8985482D01*
X12561428Y-8985482D02*
X12585238Y-8885482D01*
X12675714Y-8985482D02*
X12618571Y-8985482D01*
X12647143Y-8985482D02*
X12647143Y-8885482D01*
X12647143Y-8885482D02*
X12637619Y-8899768D01*
X12637619Y-8899768D02*
X12628095Y-8909291D01*
X12628095Y-8909291D02*
X12618571Y-8914053D01*
X12713809Y-8895006D02*
X12718571Y-8890244D01*
X12718571Y-8890244D02*
X12728095Y-8885482D01*
X12728095Y-8885482D02*
X12751905Y-8885482D01*
X12751905Y-8885482D02*
X12761428Y-8890244D01*
X12761428Y-8890244D02*
X12766190Y-8895006D01*
X12766190Y-8895006D02*
X12770952Y-8904530D01*
X12770952Y-8904530D02*
X12770952Y-8914053D01*
X12770952Y-8914053D02*
X12766190Y-8928339D01*
X12766190Y-8928339D02*
X12709048Y-8985482D01*
X12709048Y-8985482D02*
X12770952Y-8985482D01*
X14885714Y-8102482D02*
X14852381Y-8054863D01*
X14828571Y-8102482D02*
X14828571Y-8002482D01*
X14828571Y-8002482D02*
X14866667Y-8002482D01*
X14866667Y-8002482D02*
X14876190Y-8007244D01*
X14876190Y-8007244D02*
X14880952Y-8012006D01*
X14880952Y-8012006D02*
X14885714Y-8021529D01*
X14885714Y-8021529D02*
X14885714Y-8035815D01*
X14885714Y-8035815D02*
X14880952Y-8045339D01*
X14880952Y-8045339D02*
X14876190Y-8050101D01*
X14876190Y-8050101D02*
X14866667Y-8054863D01*
X14866667Y-8054863D02*
X14828571Y-8054863D01*
X14980952Y-8102482D02*
X14923809Y-8102482D01*
X14952381Y-8102482D02*
X14952381Y-8002482D01*
X14952381Y-8002482D02*
X14942857Y-8016768D01*
X14942857Y-8016768D02*
X14933333Y-8026291D01*
X14933333Y-8026291D02*
X14923809Y-8031053D01*
X15066667Y-8035815D02*
X15066667Y-8102482D01*
X15042857Y-7997720D02*
X15019048Y-8069148D01*
X15019048Y-8069148D02*
X15080952Y-8069148D01*
X18776067Y-7216682D02*
X18776067Y-7288110D01*
X18776067Y-7288110D02*
X18771305Y-7302396D01*
X18771305Y-7302396D02*
X18761781Y-7311920D01*
X18761781Y-7311920D02*
X18747495Y-7316682D01*
X18747495Y-7316682D02*
X18737971Y-7316682D01*
X18866543Y-7250015D02*
X18866543Y-7316682D01*
X18842733Y-7211920D02*
X18818924Y-7283348D01*
X18818924Y-7283348D02*
X18880829Y-7283348D01*
X18554810Y-7400982D02*
X18554810Y-7300982D01*
X18554810Y-7348601D02*
X18611952Y-7348601D01*
X18611952Y-7400982D02*
X18611952Y-7300982D01*
X18702429Y-7334315D02*
X18702429Y-7400982D01*
X18678619Y-7296220D02*
X18654810Y-7367648D01*
X18654810Y-7367648D02*
X18716714Y-7367648D01*
X16111482Y-6785536D02*
X16063863Y-6818869D01*
X16111482Y-6842678D02*
X16011482Y-6842678D01*
X16011482Y-6842678D02*
X16011482Y-6804583D01*
X16011482Y-6804583D02*
X16016244Y-6795059D01*
X16016244Y-6795059D02*
X16021006Y-6790298D01*
X16021006Y-6790298D02*
X16030529Y-6785536D01*
X16030529Y-6785536D02*
X16044815Y-6785536D01*
X16044815Y-6785536D02*
X16054339Y-6790298D01*
X16054339Y-6790298D02*
X16059101Y-6795059D01*
X16059101Y-6795059D02*
X16063863Y-6804583D01*
X16063863Y-6804583D02*
X16063863Y-6842678D01*
X16021006Y-6747440D02*
X16016244Y-6742678D01*
X16016244Y-6742678D02*
X16011482Y-6733155D01*
X16011482Y-6733155D02*
X16011482Y-6709345D01*
X16011482Y-6709345D02*
X16016244Y-6699821D01*
X16016244Y-6699821D02*
X16021006Y-6695059D01*
X16021006Y-6695059D02*
X16030529Y-6690298D01*
X16030529Y-6690298D02*
X16040053Y-6690298D01*
X16040053Y-6690298D02*
X16054339Y-6695059D01*
X16054339Y-6695059D02*
X16111482Y-6752202D01*
X16111482Y-6752202D02*
X16111482Y-6690298D01*
X16111482Y-6642678D02*
X16111482Y-6623631D01*
X16111482Y-6623631D02*
X16106720Y-6614107D01*
X16106720Y-6614107D02*
X16101958Y-6609345D01*
X16101958Y-6609345D02*
X16087672Y-6599821D01*
X16087672Y-6599821D02*
X16068625Y-6595059D01*
X16068625Y-6595059D02*
X16030529Y-6595059D01*
X16030529Y-6595059D02*
X16021006Y-6599821D01*
X16021006Y-6599821D02*
X16016244Y-6604583D01*
X16016244Y-6604583D02*
X16011482Y-6614107D01*
X16011482Y-6614107D02*
X16011482Y-6633155D01*
X16011482Y-6633155D02*
X16016244Y-6642678D01*
X16016244Y-6642678D02*
X16021006Y-6647440D01*
X16021006Y-6647440D02*
X16030529Y-6652202D01*
X16030529Y-6652202D02*
X16054339Y-6652202D01*
X16054339Y-6652202D02*
X16063863Y-6647440D01*
X16063863Y-6647440D02*
X16068625Y-6642678D01*
X16068625Y-6642678D02*
X16073387Y-6633155D01*
X16073387Y-6633155D02*
X16073387Y-6614107D01*
X16073387Y-6614107D02*
X16068625Y-6604583D01*
X16068625Y-6604583D02*
X16063863Y-6599821D01*
X16063863Y-6599821D02*
X16054339Y-6595059D01*
X13226482Y-10466190D02*
X13307434Y-10466190D01*
X13307434Y-10466190D02*
X13316958Y-10461429D01*
X13316958Y-10461429D02*
X13321720Y-10456667D01*
X13321720Y-10456667D02*
X13326482Y-10447143D01*
X13326482Y-10447143D02*
X13326482Y-10428095D01*
X13326482Y-10428095D02*
X13321720Y-10418571D01*
X13321720Y-10418571D02*
X13316958Y-10413810D01*
X13316958Y-10413810D02*
X13307434Y-10409048D01*
X13307434Y-10409048D02*
X13226482Y-10409048D01*
X13326482Y-10309048D02*
X13326482Y-10366190D01*
X13326482Y-10337619D02*
X13226482Y-10337619D01*
X13226482Y-10337619D02*
X13240768Y-10347143D01*
X13240768Y-10347143D02*
X13250291Y-10356667D01*
X13250291Y-10356667D02*
X13255053Y-10366190D01*
X15609882Y-7146309D02*
X15509882Y-7146309D01*
X15509882Y-7146309D02*
X15509882Y-7122500D01*
X15509882Y-7122500D02*
X15514644Y-7108214D01*
X15514644Y-7108214D02*
X15524168Y-7098690D01*
X15524168Y-7098690D02*
X15533691Y-7093928D01*
X15533691Y-7093928D02*
X15552739Y-7089167D01*
X15552739Y-7089167D02*
X15567025Y-7089167D01*
X15567025Y-7089167D02*
X15586072Y-7093928D01*
X15586072Y-7093928D02*
X15595596Y-7098690D01*
X15595596Y-7098690D02*
X15605120Y-7108214D01*
X15605120Y-7108214D02*
X15609882Y-7122500D01*
X15609882Y-7122500D02*
X15609882Y-7146309D01*
X15552739Y-7032024D02*
X15547977Y-7041547D01*
X15547977Y-7041547D02*
X15543215Y-7046309D01*
X15543215Y-7046309D02*
X15533691Y-7051071D01*
X15533691Y-7051071D02*
X15528929Y-7051071D01*
X15528929Y-7051071D02*
X15519406Y-7046309D01*
X15519406Y-7046309D02*
X15514644Y-7041547D01*
X15514644Y-7041547D02*
X15509882Y-7032024D01*
X15509882Y-7032024D02*
X15509882Y-7012976D01*
X15509882Y-7012976D02*
X15514644Y-7003452D01*
X15514644Y-7003452D02*
X15519406Y-6998690D01*
X15519406Y-6998690D02*
X15528929Y-6993928D01*
X15528929Y-6993928D02*
X15533691Y-6993928D01*
X15533691Y-6993928D02*
X15543215Y-6998690D01*
X15543215Y-6998690D02*
X15547977Y-7003452D01*
X15547977Y-7003452D02*
X15552739Y-7012976D01*
X15552739Y-7012976D02*
X15552739Y-7032024D01*
X15552739Y-7032024D02*
X15557501Y-7041547D01*
X15557501Y-7041547D02*
X15562263Y-7046309D01*
X15562263Y-7046309D02*
X15571787Y-7051071D01*
X15571787Y-7051071D02*
X15590834Y-7051071D01*
X15590834Y-7051071D02*
X15600358Y-7046309D01*
X15600358Y-7046309D02*
X15605120Y-7041547D01*
X15605120Y-7041547D02*
X15609882Y-7032024D01*
X15609882Y-7032024D02*
X15609882Y-7012976D01*
X15609882Y-7012976D02*
X15605120Y-7003452D01*
X15605120Y-7003452D02*
X15600358Y-6998690D01*
X15600358Y-6998690D02*
X15590834Y-6993928D01*
X15590834Y-6993928D02*
X15571787Y-6993928D01*
X15571787Y-6993928D02*
X15562263Y-6998690D01*
X15562263Y-6998690D02*
X15557501Y-7003452D01*
X15557501Y-7003452D02*
X15552739Y-7012976D01*
X17485667Y-6530720D02*
X17499952Y-6535482D01*
X17499952Y-6535482D02*
X17523762Y-6535482D01*
X17523762Y-6535482D02*
X17533286Y-6530720D01*
X17533286Y-6530720D02*
X17538048Y-6525958D01*
X17538048Y-6525958D02*
X17542810Y-6516434D01*
X17542810Y-6516434D02*
X17542810Y-6506910D01*
X17542810Y-6506910D02*
X17538048Y-6497387D01*
X17538048Y-6497387D02*
X17533286Y-6492625D01*
X17533286Y-6492625D02*
X17523762Y-6487863D01*
X17523762Y-6487863D02*
X17504714Y-6483101D01*
X17504714Y-6483101D02*
X17495191Y-6478339D01*
X17495191Y-6478339D02*
X17490429Y-6473577D01*
X17490429Y-6473577D02*
X17485667Y-6464053D01*
X17485667Y-6464053D02*
X17485667Y-6454529D01*
X17485667Y-6454529D02*
X17490429Y-6445006D01*
X17490429Y-6445006D02*
X17495191Y-6440244D01*
X17495191Y-6440244D02*
X17504714Y-6435482D01*
X17504714Y-6435482D02*
X17528524Y-6435482D01*
X17528524Y-6435482D02*
X17542810Y-6440244D01*
X17576143Y-6435482D02*
X17599952Y-6535482D01*
X17599952Y-6535482D02*
X17619000Y-6464053D01*
X17619000Y-6464053D02*
X17638048Y-6535482D01*
X17638048Y-6535482D02*
X17661857Y-6435482D01*
X17690429Y-6435482D02*
X17757095Y-6435482D01*
X17757095Y-6435482D02*
X17714238Y-6535482D01*
X17697482Y-11788036D02*
X17649863Y-11821369D01*
X17697482Y-11845178D02*
X17597482Y-11845178D01*
X17597482Y-11845178D02*
X17597482Y-11807083D01*
X17597482Y-11807083D02*
X17602244Y-11797559D01*
X17602244Y-11797559D02*
X17607006Y-11792798D01*
X17607006Y-11792798D02*
X17616530Y-11788036D01*
X17616530Y-11788036D02*
X17630815Y-11788036D01*
X17630815Y-11788036D02*
X17640339Y-11792798D01*
X17640339Y-11792798D02*
X17645101Y-11797559D01*
X17645101Y-11797559D02*
X17649863Y-11807083D01*
X17649863Y-11807083D02*
X17649863Y-11845178D01*
X17697482Y-11692798D02*
X17697482Y-11749940D01*
X17697482Y-11721369D02*
X17597482Y-11721369D01*
X17597482Y-11721369D02*
X17611768Y-11730893D01*
X17611768Y-11730893D02*
X17621291Y-11740417D01*
X17621291Y-11740417D02*
X17626053Y-11749940D01*
X17597482Y-11630893D02*
X17597482Y-11621369D01*
X17597482Y-11621369D02*
X17602244Y-11611845D01*
X17602244Y-11611845D02*
X17607006Y-11607083D01*
X17607006Y-11607083D02*
X17616530Y-11602321D01*
X17616530Y-11602321D02*
X17635577Y-11597559D01*
X17635577Y-11597559D02*
X17659387Y-11597559D01*
X17659387Y-11597559D02*
X17678434Y-11602321D01*
X17678434Y-11602321D02*
X17687958Y-11607083D01*
X17687958Y-11607083D02*
X17692720Y-11611845D01*
X17692720Y-11611845D02*
X17697482Y-11621369D01*
X17697482Y-11621369D02*
X17697482Y-11630893D01*
X17697482Y-11630893D02*
X17692720Y-11640417D01*
X17692720Y-11640417D02*
X17687958Y-11645178D01*
X17687958Y-11645178D02*
X17678434Y-11649940D01*
X17678434Y-11649940D02*
X17659387Y-11654702D01*
X17659387Y-11654702D02*
X17635577Y-11654702D01*
X17635577Y-11654702D02*
X17616530Y-11649940D01*
X17616530Y-11649940D02*
X17607006Y-11645178D01*
X17607006Y-11645178D02*
X17602244Y-11640417D01*
X17602244Y-11640417D02*
X17597482Y-11630893D01*
X7935667Y-8780720D02*
X7949952Y-8785482D01*
X7949952Y-8785482D02*
X7973762Y-8785482D01*
X7973762Y-8785482D02*
X7983286Y-8780720D01*
X7983286Y-8780720D02*
X7988048Y-8775958D01*
X7988048Y-8775958D02*
X7992809Y-8766434D01*
X7992809Y-8766434D02*
X7992809Y-8756910D01*
X7992809Y-8756910D02*
X7988048Y-8747387D01*
X7988048Y-8747387D02*
X7983286Y-8742625D01*
X7983286Y-8742625D02*
X7973762Y-8737863D01*
X7973762Y-8737863D02*
X7954714Y-8733101D01*
X7954714Y-8733101D02*
X7945190Y-8728339D01*
X7945190Y-8728339D02*
X7940429Y-8723577D01*
X7940429Y-8723577D02*
X7935667Y-8714053D01*
X7935667Y-8714053D02*
X7935667Y-8704530D01*
X7935667Y-8704530D02*
X7940429Y-8695006D01*
X7940429Y-8695006D02*
X7945190Y-8690244D01*
X7945190Y-8690244D02*
X7954714Y-8685482D01*
X7954714Y-8685482D02*
X7978524Y-8685482D01*
X7978524Y-8685482D02*
X7992809Y-8690244D01*
X8026143Y-8685482D02*
X8049952Y-8785482D01*
X8049952Y-8785482D02*
X8069000Y-8714053D01*
X8069000Y-8714053D02*
X8088048Y-8785482D01*
X8088048Y-8785482D02*
X8111857Y-8685482D01*
X8154714Y-8785482D02*
X8173762Y-8785482D01*
X8173762Y-8785482D02*
X8183286Y-8780720D01*
X8183286Y-8780720D02*
X8188048Y-8775958D01*
X8188048Y-8775958D02*
X8197571Y-8761672D01*
X8197571Y-8761672D02*
X8202333Y-8742625D01*
X8202333Y-8742625D02*
X8202333Y-8704530D01*
X8202333Y-8704530D02*
X8197571Y-8695006D01*
X8197571Y-8695006D02*
X8192809Y-8690244D01*
X8192809Y-8690244D02*
X8183286Y-8685482D01*
X8183286Y-8685482D02*
X8164238Y-8685482D01*
X8164238Y-8685482D02*
X8154714Y-8690244D01*
X8154714Y-8690244D02*
X8149952Y-8695006D01*
X8149952Y-8695006D02*
X8145190Y-8704530D01*
X8145190Y-8704530D02*
X8145190Y-8728339D01*
X8145190Y-8728339D02*
X8149952Y-8737863D01*
X8149952Y-8737863D02*
X8154714Y-8742625D01*
X8154714Y-8742625D02*
X8164238Y-8747387D01*
X8164238Y-8747387D02*
X8183286Y-8747387D01*
X8183286Y-8747387D02*
X8192809Y-8742625D01*
X8192809Y-8742625D02*
X8197571Y-8737863D01*
X8197571Y-8737863D02*
X8202333Y-8728339D01*
X9860667Y-7192982D02*
X9860667Y-7264410D01*
X9860667Y-7264410D02*
X9855905Y-7278696D01*
X9855905Y-7278696D02*
X9846381Y-7288220D01*
X9846381Y-7288220D02*
X9832095Y-7292982D01*
X9832095Y-7292982D02*
X9822571Y-7292982D01*
X9898762Y-7192982D02*
X9960667Y-7192982D01*
X9960667Y-7192982D02*
X9927333Y-7231077D01*
X9927333Y-7231077D02*
X9941619Y-7231077D01*
X9941619Y-7231077D02*
X9951143Y-7235839D01*
X9951143Y-7235839D02*
X9955905Y-7240601D01*
X9955905Y-7240601D02*
X9960667Y-7250125D01*
X9960667Y-7250125D02*
X9960667Y-7273934D01*
X9960667Y-7273934D02*
X9955905Y-7283458D01*
X9955905Y-7283458D02*
X9951143Y-7288220D01*
X9951143Y-7288220D02*
X9941619Y-7292982D01*
X9941619Y-7292982D02*
X9913048Y-7292982D01*
X9913048Y-7292982D02*
X9903524Y-7288220D01*
X9903524Y-7288220D02*
X9898762Y-7283458D01*
X15211482Y-6785536D02*
X15163863Y-6818869D01*
X15211482Y-6842678D02*
X15111482Y-6842678D01*
X15111482Y-6842678D02*
X15111482Y-6804583D01*
X15111482Y-6804583D02*
X15116244Y-6795059D01*
X15116244Y-6795059D02*
X15121006Y-6790298D01*
X15121006Y-6790298D02*
X15130529Y-6785536D01*
X15130529Y-6785536D02*
X15144815Y-6785536D01*
X15144815Y-6785536D02*
X15154339Y-6790298D01*
X15154339Y-6790298D02*
X15159101Y-6795059D01*
X15159101Y-6795059D02*
X15163863Y-6804583D01*
X15163863Y-6804583D02*
X15163863Y-6842678D01*
X15121006Y-6747440D02*
X15116244Y-6742678D01*
X15116244Y-6742678D02*
X15111482Y-6733155D01*
X15111482Y-6733155D02*
X15111482Y-6709345D01*
X15111482Y-6709345D02*
X15116244Y-6699821D01*
X15116244Y-6699821D02*
X15121006Y-6695059D01*
X15121006Y-6695059D02*
X15130529Y-6690298D01*
X15130529Y-6690298D02*
X15140053Y-6690298D01*
X15140053Y-6690298D02*
X15154339Y-6695059D01*
X15154339Y-6695059D02*
X15211482Y-6752202D01*
X15211482Y-6752202D02*
X15211482Y-6690298D01*
X15111482Y-6656964D02*
X15111482Y-6595059D01*
X15111482Y-6595059D02*
X15149577Y-6628393D01*
X15149577Y-6628393D02*
X15149577Y-6614107D01*
X15149577Y-6614107D02*
X15154339Y-6604583D01*
X15154339Y-6604583D02*
X15159101Y-6599821D01*
X15159101Y-6599821D02*
X15168625Y-6595059D01*
X15168625Y-6595059D02*
X15192434Y-6595059D01*
X15192434Y-6595059D02*
X15201958Y-6599821D01*
X15201958Y-6599821D02*
X15206720Y-6604583D01*
X15206720Y-6604583D02*
X15211482Y-6614107D01*
X15211482Y-6614107D02*
X15211482Y-6642678D01*
X15211482Y-6642678D02*
X15206720Y-6652202D01*
X15206720Y-6652202D02*
X15201958Y-6656964D01*
X15929982Y-7193928D02*
X15829982Y-7193928D01*
X15829982Y-7193928D02*
X15829982Y-7170119D01*
X15829982Y-7170119D02*
X15834744Y-7155833D01*
X15834744Y-7155833D02*
X15844268Y-7146309D01*
X15844268Y-7146309D02*
X15853791Y-7141548D01*
X15853791Y-7141548D02*
X15872839Y-7136786D01*
X15872839Y-7136786D02*
X15887125Y-7136786D01*
X15887125Y-7136786D02*
X15906172Y-7141548D01*
X15906172Y-7141548D02*
X15915696Y-7146309D01*
X15915696Y-7146309D02*
X15925220Y-7155833D01*
X15925220Y-7155833D02*
X15929982Y-7170119D01*
X15929982Y-7170119D02*
X15929982Y-7193928D01*
X15929982Y-7041548D02*
X15929982Y-7098690D01*
X15929982Y-7070119D02*
X15829982Y-7070119D01*
X15829982Y-7070119D02*
X15844268Y-7079643D01*
X15844268Y-7079643D02*
X15853791Y-7089167D01*
X15853791Y-7089167D02*
X15858553Y-7098690D01*
X15829982Y-6979643D02*
X15829982Y-6970119D01*
X15829982Y-6970119D02*
X15834744Y-6960595D01*
X15834744Y-6960595D02*
X15839506Y-6955833D01*
X15839506Y-6955833D02*
X15849029Y-6951071D01*
X15849029Y-6951071D02*
X15868077Y-6946309D01*
X15868077Y-6946309D02*
X15891887Y-6946309D01*
X15891887Y-6946309D02*
X15910934Y-6951071D01*
X15910934Y-6951071D02*
X15920458Y-6955833D01*
X15920458Y-6955833D02*
X15925220Y-6960595D01*
X15925220Y-6960595D02*
X15929982Y-6970119D01*
X15929982Y-6970119D02*
X15929982Y-6979643D01*
X15929982Y-6979643D02*
X15925220Y-6989167D01*
X15925220Y-6989167D02*
X15920458Y-6993928D01*
X15920458Y-6993928D02*
X15910934Y-6998690D01*
X15910934Y-6998690D02*
X15891887Y-7003452D01*
X15891887Y-7003452D02*
X15868077Y-7003452D01*
X15868077Y-7003452D02*
X15849029Y-6998690D01*
X15849029Y-6998690D02*
X15839506Y-6993928D01*
X15839506Y-6993928D02*
X15834744Y-6989167D01*
X15834744Y-6989167D02*
X15829982Y-6979643D01*
X17217482Y-7191428D02*
X17117482Y-7191428D01*
X17117482Y-7191428D02*
X17117482Y-7167619D01*
X17117482Y-7167619D02*
X17122244Y-7153333D01*
X17122244Y-7153333D02*
X17131768Y-7143809D01*
X17131768Y-7143809D02*
X17141291Y-7139048D01*
X17141291Y-7139048D02*
X17160339Y-7134286D01*
X17160339Y-7134286D02*
X17174625Y-7134286D01*
X17174625Y-7134286D02*
X17193672Y-7139048D01*
X17193672Y-7139048D02*
X17203196Y-7143809D01*
X17203196Y-7143809D02*
X17212720Y-7153333D01*
X17212720Y-7153333D02*
X17217482Y-7167619D01*
X17217482Y-7167619D02*
X17217482Y-7191428D01*
X17217482Y-7039048D02*
X17217482Y-7096190D01*
X17217482Y-7067619D02*
X17117482Y-7067619D01*
X17117482Y-7067619D02*
X17131768Y-7077143D01*
X17131768Y-7077143D02*
X17141291Y-7086667D01*
X17141291Y-7086667D02*
X17146053Y-7096190D01*
X17160339Y-6981905D02*
X17155577Y-6991428D01*
X17155577Y-6991428D02*
X17150815Y-6996190D01*
X17150815Y-6996190D02*
X17141291Y-7000952D01*
X17141291Y-7000952D02*
X17136530Y-7000952D01*
X17136530Y-7000952D02*
X17127006Y-6996190D01*
X17127006Y-6996190D02*
X17122244Y-6991428D01*
X17122244Y-6991428D02*
X17117482Y-6981905D01*
X17117482Y-6981905D02*
X17117482Y-6962857D01*
X17117482Y-6962857D02*
X17122244Y-6953333D01*
X17122244Y-6953333D02*
X17127006Y-6948571D01*
X17127006Y-6948571D02*
X17136530Y-6943809D01*
X17136530Y-6943809D02*
X17141291Y-6943809D01*
X17141291Y-6943809D02*
X17150815Y-6948571D01*
X17150815Y-6948571D02*
X17155577Y-6953333D01*
X17155577Y-6953333D02*
X17160339Y-6962857D01*
X17160339Y-6962857D02*
X17160339Y-6981905D01*
X17160339Y-6981905D02*
X17165101Y-6991428D01*
X17165101Y-6991428D02*
X17169863Y-6996190D01*
X17169863Y-6996190D02*
X17179387Y-7000952D01*
X17179387Y-7000952D02*
X17198434Y-7000952D01*
X17198434Y-7000952D02*
X17207958Y-6996190D01*
X17207958Y-6996190D02*
X17212720Y-6991428D01*
X17212720Y-6991428D02*
X17217482Y-6981905D01*
X17217482Y-6981905D02*
X17217482Y-6962857D01*
X17217482Y-6962857D02*
X17212720Y-6953333D01*
X17212720Y-6953333D02*
X17207958Y-6948571D01*
X17207958Y-6948571D02*
X17198434Y-6943809D01*
X17198434Y-6943809D02*
X17179387Y-6943809D01*
X17179387Y-6943809D02*
X17169863Y-6948571D01*
X17169863Y-6948571D02*
X17165101Y-6953333D01*
X17165101Y-6953333D02*
X17160339Y-6962857D01*
X18135667Y-8780720D02*
X18149952Y-8785482D01*
X18149952Y-8785482D02*
X18173762Y-8785482D01*
X18173762Y-8785482D02*
X18183286Y-8780720D01*
X18183286Y-8780720D02*
X18188048Y-8775958D01*
X18188048Y-8775958D02*
X18192810Y-8766434D01*
X18192810Y-8766434D02*
X18192810Y-8756910D01*
X18192810Y-8756910D02*
X18188048Y-8747387D01*
X18188048Y-8747387D02*
X18183286Y-8742625D01*
X18183286Y-8742625D02*
X18173762Y-8737863D01*
X18173762Y-8737863D02*
X18154714Y-8733101D01*
X18154714Y-8733101D02*
X18145191Y-8728339D01*
X18145191Y-8728339D02*
X18140429Y-8723577D01*
X18140429Y-8723577D02*
X18135667Y-8714053D01*
X18135667Y-8714053D02*
X18135667Y-8704530D01*
X18135667Y-8704530D02*
X18140429Y-8695006D01*
X18140429Y-8695006D02*
X18145191Y-8690244D01*
X18145191Y-8690244D02*
X18154714Y-8685482D01*
X18154714Y-8685482D02*
X18178524Y-8685482D01*
X18178524Y-8685482D02*
X18192810Y-8690244D01*
X18226143Y-8685482D02*
X18249952Y-8785482D01*
X18249952Y-8785482D02*
X18269000Y-8714053D01*
X18269000Y-8714053D02*
X18288048Y-8785482D01*
X18288048Y-8785482D02*
X18311857Y-8685482D01*
X18397571Y-8685482D02*
X18349952Y-8685482D01*
X18349952Y-8685482D02*
X18345191Y-8733101D01*
X18345191Y-8733101D02*
X18349952Y-8728339D01*
X18349952Y-8728339D02*
X18359476Y-8723577D01*
X18359476Y-8723577D02*
X18383286Y-8723577D01*
X18383286Y-8723577D02*
X18392810Y-8728339D01*
X18392810Y-8728339D02*
X18397571Y-8733101D01*
X18397571Y-8733101D02*
X18402333Y-8742625D01*
X18402333Y-8742625D02*
X18402333Y-8766434D01*
X18402333Y-8766434D02*
X18397571Y-8775958D01*
X18397571Y-8775958D02*
X18392810Y-8780720D01*
X18392810Y-8780720D02*
X18383286Y-8785482D01*
X18383286Y-8785482D02*
X18359476Y-8785482D01*
X18359476Y-8785482D02*
X18349952Y-8780720D01*
X18349952Y-8780720D02*
X18345191Y-8775958D01*
X15085714Y-7988482D02*
X15052381Y-7940863D01*
X15028571Y-7988482D02*
X15028571Y-7888482D01*
X15028571Y-7888482D02*
X15066667Y-7888482D01*
X15066667Y-7888482D02*
X15076190Y-7893244D01*
X15076190Y-7893244D02*
X15080952Y-7898006D01*
X15080952Y-7898006D02*
X15085714Y-7907529D01*
X15085714Y-7907529D02*
X15085714Y-7921815D01*
X15085714Y-7921815D02*
X15080952Y-7931339D01*
X15080952Y-7931339D02*
X15076190Y-7936101D01*
X15076190Y-7936101D02*
X15066667Y-7940863D01*
X15066667Y-7940863D02*
X15028571Y-7940863D01*
X15180952Y-7988482D02*
X15123809Y-7988482D01*
X15152381Y-7988482D02*
X15152381Y-7888482D01*
X15152381Y-7888482D02*
X15142857Y-7902768D01*
X15142857Y-7902768D02*
X15133333Y-7912291D01*
X15133333Y-7912291D02*
X15123809Y-7917053D01*
X15266667Y-7888482D02*
X15247619Y-7888482D01*
X15247619Y-7888482D02*
X15238095Y-7893244D01*
X15238095Y-7893244D02*
X15233333Y-7898006D01*
X15233333Y-7898006D02*
X15223809Y-7912291D01*
X15223809Y-7912291D02*
X15219048Y-7931339D01*
X15219048Y-7931339D02*
X15219048Y-7969434D01*
X15219048Y-7969434D02*
X15223809Y-7978958D01*
X15223809Y-7978958D02*
X15228571Y-7983720D01*
X15228571Y-7983720D02*
X15238095Y-7988482D01*
X15238095Y-7988482D02*
X15257143Y-7988482D01*
X15257143Y-7988482D02*
X15266667Y-7983720D01*
X15266667Y-7983720D02*
X15271428Y-7978958D01*
X15271428Y-7978958D02*
X15276190Y-7969434D01*
X15276190Y-7969434D02*
X15276190Y-7945625D01*
X15276190Y-7945625D02*
X15271428Y-7936101D01*
X15271428Y-7936101D02*
X15266667Y-7931339D01*
X15266667Y-7931339D02*
X15257143Y-7926577D01*
X15257143Y-7926577D02*
X15238095Y-7926577D01*
X15238095Y-7926577D02*
X15228571Y-7931339D01*
X15228571Y-7931339D02*
X15223809Y-7936101D01*
X15223809Y-7936101D02*
X15219048Y-7945625D01*
X16411482Y-6785536D02*
X16363863Y-6818869D01*
X16411482Y-6842678D02*
X16311482Y-6842678D01*
X16311482Y-6842678D02*
X16311482Y-6804583D01*
X16311482Y-6804583D02*
X16316244Y-6795059D01*
X16316244Y-6795059D02*
X16321006Y-6790298D01*
X16321006Y-6790298D02*
X16330529Y-6785536D01*
X16330529Y-6785536D02*
X16344815Y-6785536D01*
X16344815Y-6785536D02*
X16354339Y-6790298D01*
X16354339Y-6790298D02*
X16359101Y-6795059D01*
X16359101Y-6795059D02*
X16363863Y-6804583D01*
X16363863Y-6804583D02*
X16363863Y-6842678D01*
X16311482Y-6752202D02*
X16311482Y-6690298D01*
X16311482Y-6690298D02*
X16349577Y-6723631D01*
X16349577Y-6723631D02*
X16349577Y-6709345D01*
X16349577Y-6709345D02*
X16354339Y-6699821D01*
X16354339Y-6699821D02*
X16359101Y-6695059D01*
X16359101Y-6695059D02*
X16368625Y-6690298D01*
X16368625Y-6690298D02*
X16392434Y-6690298D01*
X16392434Y-6690298D02*
X16401958Y-6695059D01*
X16401958Y-6695059D02*
X16406720Y-6699821D01*
X16406720Y-6699821D02*
X16411482Y-6709345D01*
X16411482Y-6709345D02*
X16411482Y-6737917D01*
X16411482Y-6737917D02*
X16406720Y-6747440D01*
X16406720Y-6747440D02*
X16401958Y-6752202D01*
X16411482Y-6595059D02*
X16411482Y-6652202D01*
X16411482Y-6623631D02*
X16311482Y-6623631D01*
X16311482Y-6623631D02*
X16325768Y-6633155D01*
X16325768Y-6633155D02*
X16335291Y-6642678D01*
X16335291Y-6642678D02*
X16340053Y-6652202D01*
X16261482Y-6785536D02*
X16213863Y-6818869D01*
X16261482Y-6842678D02*
X16161482Y-6842678D01*
X16161482Y-6842678D02*
X16161482Y-6804583D01*
X16161482Y-6804583D02*
X16166244Y-6795059D01*
X16166244Y-6795059D02*
X16171006Y-6790298D01*
X16171006Y-6790298D02*
X16180529Y-6785536D01*
X16180529Y-6785536D02*
X16194815Y-6785536D01*
X16194815Y-6785536D02*
X16204339Y-6790298D01*
X16204339Y-6790298D02*
X16209101Y-6795059D01*
X16209101Y-6795059D02*
X16213863Y-6804583D01*
X16213863Y-6804583D02*
X16213863Y-6842678D01*
X16161482Y-6752202D02*
X16161482Y-6690298D01*
X16161482Y-6690298D02*
X16199577Y-6723631D01*
X16199577Y-6723631D02*
X16199577Y-6709345D01*
X16199577Y-6709345D02*
X16204339Y-6699821D01*
X16204339Y-6699821D02*
X16209101Y-6695059D01*
X16209101Y-6695059D02*
X16218625Y-6690298D01*
X16218625Y-6690298D02*
X16242434Y-6690298D01*
X16242434Y-6690298D02*
X16251958Y-6695059D01*
X16251958Y-6695059D02*
X16256720Y-6699821D01*
X16256720Y-6699821D02*
X16261482Y-6709345D01*
X16261482Y-6709345D02*
X16261482Y-6737917D01*
X16261482Y-6737917D02*
X16256720Y-6747440D01*
X16256720Y-6747440D02*
X16251958Y-6752202D01*
X16161482Y-6628393D02*
X16161482Y-6618869D01*
X16161482Y-6618869D02*
X16166244Y-6609345D01*
X16166244Y-6609345D02*
X16171006Y-6604583D01*
X16171006Y-6604583D02*
X16180529Y-6599821D01*
X16180529Y-6599821D02*
X16199577Y-6595059D01*
X16199577Y-6595059D02*
X16223387Y-6595059D01*
X16223387Y-6595059D02*
X16242434Y-6599821D01*
X16242434Y-6599821D02*
X16251958Y-6604583D01*
X16251958Y-6604583D02*
X16256720Y-6609345D01*
X16256720Y-6609345D02*
X16261482Y-6618869D01*
X16261482Y-6618869D02*
X16261482Y-6628393D01*
X16261482Y-6628393D02*
X16256720Y-6637917D01*
X16256720Y-6637917D02*
X16251958Y-6642678D01*
X16251958Y-6642678D02*
X16242434Y-6647440D01*
X16242434Y-6647440D02*
X16223387Y-6652202D01*
X16223387Y-6652202D02*
X16199577Y-6652202D01*
X16199577Y-6652202D02*
X16180529Y-6647440D01*
X16180529Y-6647440D02*
X16171006Y-6642678D01*
X16171006Y-6642678D02*
X16166244Y-6637917D01*
X16166244Y-6637917D02*
X16161482Y-6628393D01*
X16734982Y-7191428D02*
X16634982Y-7191428D01*
X16634982Y-7191428D02*
X16634982Y-7167619D01*
X16634982Y-7167619D02*
X16639744Y-7153333D01*
X16639744Y-7153333D02*
X16649268Y-7143809D01*
X16649268Y-7143809D02*
X16658791Y-7139048D01*
X16658791Y-7139048D02*
X16677839Y-7134286D01*
X16677839Y-7134286D02*
X16692125Y-7134286D01*
X16692125Y-7134286D02*
X16711172Y-7139048D01*
X16711172Y-7139048D02*
X16720696Y-7143809D01*
X16720696Y-7143809D02*
X16730220Y-7153333D01*
X16730220Y-7153333D02*
X16734982Y-7167619D01*
X16734982Y-7167619D02*
X16734982Y-7191428D01*
X16734982Y-7039048D02*
X16734982Y-7096190D01*
X16734982Y-7067619D02*
X16634982Y-7067619D01*
X16634982Y-7067619D02*
X16649268Y-7077143D01*
X16649268Y-7077143D02*
X16658791Y-7086667D01*
X16658791Y-7086667D02*
X16663553Y-7096190D01*
X16634982Y-6948571D02*
X16634982Y-6996190D01*
X16634982Y-6996190D02*
X16682601Y-7000952D01*
X16682601Y-7000952D02*
X16677839Y-6996190D01*
X16677839Y-6996190D02*
X16673077Y-6986667D01*
X16673077Y-6986667D02*
X16673077Y-6962857D01*
X16673077Y-6962857D02*
X16677839Y-6953333D01*
X16677839Y-6953333D02*
X16682601Y-6948571D01*
X16682601Y-6948571D02*
X16692125Y-6943809D01*
X16692125Y-6943809D02*
X16715934Y-6943809D01*
X16715934Y-6943809D02*
X16725458Y-6948571D01*
X16725458Y-6948571D02*
X16730220Y-6953333D01*
X16730220Y-6953333D02*
X16734982Y-6962857D01*
X16734982Y-6962857D02*
X16734982Y-6986667D01*
X16734982Y-6986667D02*
X16730220Y-6996190D01*
X16730220Y-6996190D02*
X16725458Y-7000952D01*
X15788048Y-8980720D02*
X15802333Y-8985482D01*
X15802333Y-8985482D02*
X15826143Y-8985482D01*
X15826143Y-8985482D02*
X15835667Y-8980720D01*
X15835667Y-8980720D02*
X15840428Y-8975958D01*
X15840428Y-8975958D02*
X15845190Y-8966434D01*
X15845190Y-8966434D02*
X15845190Y-8956910D01*
X15845190Y-8956910D02*
X15840428Y-8947387D01*
X15840428Y-8947387D02*
X15835667Y-8942625D01*
X15835667Y-8942625D02*
X15826143Y-8937863D01*
X15826143Y-8937863D02*
X15807095Y-8933101D01*
X15807095Y-8933101D02*
X15797571Y-8928339D01*
X15797571Y-8928339D02*
X15792809Y-8923577D01*
X15792809Y-8923577D02*
X15788048Y-8914053D01*
X15788048Y-8914053D02*
X15788048Y-8904530D01*
X15788048Y-8904530D02*
X15792809Y-8895006D01*
X15792809Y-8895006D02*
X15797571Y-8890244D01*
X15797571Y-8890244D02*
X15807095Y-8885482D01*
X15807095Y-8885482D02*
X15830905Y-8885482D01*
X15830905Y-8885482D02*
X15845190Y-8890244D01*
X15878524Y-8885482D02*
X15902333Y-8985482D01*
X15902333Y-8985482D02*
X15921381Y-8914053D01*
X15921381Y-8914053D02*
X15940428Y-8985482D01*
X15940428Y-8985482D02*
X15964238Y-8885482D01*
X16054714Y-8985482D02*
X15997571Y-8985482D01*
X16026143Y-8985482D02*
X16026143Y-8885482D01*
X16026143Y-8885482D02*
X16016619Y-8899768D01*
X16016619Y-8899768D02*
X16007095Y-8909291D01*
X16007095Y-8909291D02*
X15997571Y-8914053D01*
X16088048Y-8885482D02*
X16149952Y-8885482D01*
X16149952Y-8885482D02*
X16116619Y-8923577D01*
X16116619Y-8923577D02*
X16130905Y-8923577D01*
X16130905Y-8923577D02*
X16140428Y-8928339D01*
X16140428Y-8928339D02*
X16145190Y-8933101D01*
X16145190Y-8933101D02*
X16149952Y-8942625D01*
X16149952Y-8942625D02*
X16149952Y-8966434D01*
X16149952Y-8966434D02*
X16145190Y-8975958D01*
X16145190Y-8975958D02*
X16140428Y-8980720D01*
X16140428Y-8980720D02*
X16130905Y-8985482D01*
X16130905Y-8985482D02*
X16102333Y-8985482D01*
X16102333Y-8985482D02*
X16092809Y-8980720D01*
X16092809Y-8980720D02*
X16088048Y-8975958D01*
X11609982Y-6904286D02*
X11562363Y-6937619D01*
X11609982Y-6961428D02*
X11509982Y-6961428D01*
X11509982Y-6961428D02*
X11509982Y-6923333D01*
X11509982Y-6923333D02*
X11514744Y-6913809D01*
X11514744Y-6913809D02*
X11519506Y-6909048D01*
X11519506Y-6909048D02*
X11529029Y-6904286D01*
X11529029Y-6904286D02*
X11543315Y-6904286D01*
X11543315Y-6904286D02*
X11552839Y-6909048D01*
X11552839Y-6909048D02*
X11557601Y-6913809D01*
X11557601Y-6913809D02*
X11562363Y-6923333D01*
X11562363Y-6923333D02*
X11562363Y-6961428D01*
X11519506Y-6866190D02*
X11514744Y-6861428D01*
X11514744Y-6861428D02*
X11509982Y-6851905D01*
X11509982Y-6851905D02*
X11509982Y-6828095D01*
X11509982Y-6828095D02*
X11514744Y-6818571D01*
X11514744Y-6818571D02*
X11519506Y-6813809D01*
X11519506Y-6813809D02*
X11529029Y-6809048D01*
X11529029Y-6809048D02*
X11538553Y-6809048D01*
X11538553Y-6809048D02*
X11552839Y-6813809D01*
X11552839Y-6813809D02*
X11609982Y-6870952D01*
X11609982Y-6870952D02*
X11609982Y-6809048D01*
X11509982Y-6747143D02*
X11509982Y-6737619D01*
X11509982Y-6737619D02*
X11514744Y-6728095D01*
X11514744Y-6728095D02*
X11519506Y-6723333D01*
X11519506Y-6723333D02*
X11529029Y-6718571D01*
X11529029Y-6718571D02*
X11548077Y-6713809D01*
X11548077Y-6713809D02*
X11571887Y-6713809D01*
X11571887Y-6713809D02*
X11590934Y-6718571D01*
X11590934Y-6718571D02*
X11600458Y-6723333D01*
X11600458Y-6723333D02*
X11605220Y-6728095D01*
X11605220Y-6728095D02*
X11609982Y-6737619D01*
X11609982Y-6737619D02*
X11609982Y-6747143D01*
X11609982Y-6747143D02*
X11605220Y-6756667D01*
X11605220Y-6756667D02*
X11600458Y-6761428D01*
X11600458Y-6761428D02*
X11590934Y-6766190D01*
X11590934Y-6766190D02*
X11571887Y-6770952D01*
X11571887Y-6770952D02*
X11548077Y-6770952D01*
X11548077Y-6770952D02*
X11529029Y-6766190D01*
X11529029Y-6766190D02*
X11519506Y-6761428D01*
X11519506Y-6761428D02*
X11514744Y-6756667D01*
X11514744Y-6756667D02*
X11509982Y-6747143D01*
X14639809Y-6408482D02*
X14639809Y-6489434D01*
X14639809Y-6489434D02*
X14644571Y-6498958D01*
X14644571Y-6498958D02*
X14649333Y-6503720D01*
X14649333Y-6503720D02*
X14658857Y-6508482D01*
X14658857Y-6508482D02*
X14677905Y-6508482D01*
X14677905Y-6508482D02*
X14687428Y-6503720D01*
X14687428Y-6503720D02*
X14692190Y-6498958D01*
X14692190Y-6498958D02*
X14696952Y-6489434D01*
X14696952Y-6489434D02*
X14696952Y-6408482D01*
X14739809Y-6418006D02*
X14744571Y-6413244D01*
X14744571Y-6413244D02*
X14754095Y-6408482D01*
X14754095Y-6408482D02*
X14777905Y-6408482D01*
X14777905Y-6408482D02*
X14787428Y-6413244D01*
X14787428Y-6413244D02*
X14792190Y-6418006D01*
X14792190Y-6418006D02*
X14796952Y-6427529D01*
X14796952Y-6427529D02*
X14796952Y-6437053D01*
X14796952Y-6437053D02*
X14792190Y-6451339D01*
X14792190Y-6451339D02*
X14735048Y-6508482D01*
X14735048Y-6508482D02*
X14796952Y-6508482D01*
X13578158Y-10946067D02*
X13582920Y-10950829D01*
X13582920Y-10950829D02*
X13587682Y-10965114D01*
X13587682Y-10965114D02*
X13587682Y-10974638D01*
X13587682Y-10974638D02*
X13582920Y-10988924D01*
X13582920Y-10988924D02*
X13573396Y-10998448D01*
X13573396Y-10998448D02*
X13563872Y-11003209D01*
X13563872Y-11003209D02*
X13544825Y-11007971D01*
X13544825Y-11007971D02*
X13530539Y-11007971D01*
X13530539Y-11007971D02*
X13511491Y-11003209D01*
X13511491Y-11003209D02*
X13501968Y-10998448D01*
X13501968Y-10998448D02*
X13492444Y-10988924D01*
X13492444Y-10988924D02*
X13487682Y-10974638D01*
X13487682Y-10974638D02*
X13487682Y-10965114D01*
X13487682Y-10965114D02*
X13492444Y-10950829D01*
X13492444Y-10950829D02*
X13497206Y-10946067D01*
X13487682Y-10855590D02*
X13487682Y-10903209D01*
X13487682Y-10903209D02*
X13535301Y-10907971D01*
X13535301Y-10907971D02*
X13530539Y-10903209D01*
X13530539Y-10903209D02*
X13525777Y-10893686D01*
X13525777Y-10893686D02*
X13525777Y-10869876D01*
X13525777Y-10869876D02*
X13530539Y-10860352D01*
X13530539Y-10860352D02*
X13535301Y-10855590D01*
X13535301Y-10855590D02*
X13544825Y-10850829D01*
X13544825Y-10850829D02*
X13568634Y-10850829D01*
X13568634Y-10850829D02*
X13578158Y-10855590D01*
X13578158Y-10855590D02*
X13582920Y-10860352D01*
X13582920Y-10860352D02*
X13587682Y-10869876D01*
X13587682Y-10869876D02*
X13587682Y-10893686D01*
X13587682Y-10893686D02*
X13582920Y-10903209D01*
X13582920Y-10903209D02*
X13578158Y-10907971D01*
X21592810Y-8855482D02*
X21592810Y-8755482D01*
X21592810Y-8803101D02*
X21649952Y-8803101D01*
X21649952Y-8855482D02*
X21649952Y-8755482D01*
X21745190Y-8755482D02*
X21697571Y-8755482D01*
X21697571Y-8755482D02*
X21692810Y-8803101D01*
X21692810Y-8803101D02*
X21697571Y-8798339D01*
X21697571Y-8798339D02*
X21707095Y-8793577D01*
X21707095Y-8793577D02*
X21730905Y-8793577D01*
X21730905Y-8793577D02*
X21740429Y-8798339D01*
X21740429Y-8798339D02*
X21745190Y-8803101D01*
X21745190Y-8803101D02*
X21749952Y-8812625D01*
X21749952Y-8812625D02*
X21749952Y-8836434D01*
X21749952Y-8836434D02*
X21745190Y-8845958D01*
X21745190Y-8845958D02*
X21740429Y-8850720D01*
X21740429Y-8850720D02*
X21730905Y-8855482D01*
X21730905Y-8855482D02*
X21707095Y-8855482D01*
X21707095Y-8855482D02*
X21697571Y-8850720D01*
X21697571Y-8850720D02*
X21692810Y-8845958D01*
X11795190Y-6492482D02*
X11795190Y-6392482D01*
X11795190Y-6392482D02*
X11819000Y-6392482D01*
X11819000Y-6392482D02*
X11833286Y-6397244D01*
X11833286Y-6397244D02*
X11842809Y-6406768D01*
X11842809Y-6406768D02*
X11847571Y-6416291D01*
X11847571Y-6416291D02*
X11852333Y-6435339D01*
X11852333Y-6435339D02*
X11852333Y-6449625D01*
X11852333Y-6449625D02*
X11847571Y-6468672D01*
X11847571Y-6468672D02*
X11842809Y-6478196D01*
X11842809Y-6478196D02*
X11833286Y-6487720D01*
X11833286Y-6487720D02*
X11819000Y-6492482D01*
X11819000Y-6492482D02*
X11795190Y-6492482D01*
X11942809Y-6392482D02*
X11895190Y-6392482D01*
X11895190Y-6392482D02*
X11890429Y-6440101D01*
X11890429Y-6440101D02*
X11895190Y-6435339D01*
X11895190Y-6435339D02*
X11904714Y-6430577D01*
X11904714Y-6430577D02*
X11928524Y-6430577D01*
X11928524Y-6430577D02*
X11938048Y-6435339D01*
X11938048Y-6435339D02*
X11942809Y-6440101D01*
X11942809Y-6440101D02*
X11947571Y-6449625D01*
X11947571Y-6449625D02*
X11947571Y-6473434D01*
X11947571Y-6473434D02*
X11942809Y-6482958D01*
X11942809Y-6482958D02*
X11938048Y-6487720D01*
X11938048Y-6487720D02*
X11928524Y-6492482D01*
X11928524Y-6492482D02*
X11904714Y-6492482D01*
X11904714Y-6492482D02*
X11895190Y-6487720D01*
X11895190Y-6487720D02*
X11890429Y-6482958D01*
X12537333Y-8462482D02*
X12504000Y-8414863D01*
X12480190Y-8462482D02*
X12480190Y-8362482D01*
X12480190Y-8362482D02*
X12518286Y-8362482D01*
X12518286Y-8362482D02*
X12527809Y-8367244D01*
X12527809Y-8367244D02*
X12532571Y-8372006D01*
X12532571Y-8372006D02*
X12537333Y-8381529D01*
X12537333Y-8381529D02*
X12537333Y-8395815D01*
X12537333Y-8395815D02*
X12532571Y-8405339D01*
X12532571Y-8405339D02*
X12527809Y-8410101D01*
X12527809Y-8410101D02*
X12518286Y-8414863D01*
X12518286Y-8414863D02*
X12480190Y-8414863D01*
X12632571Y-8462482D02*
X12575429Y-8462482D01*
X12604000Y-8462482D02*
X12604000Y-8362482D01*
X12604000Y-8362482D02*
X12594476Y-8376768D01*
X12594476Y-8376768D02*
X12584952Y-8386291D01*
X12584952Y-8386291D02*
X12575429Y-8391053D01*
X9043131Y-9737958D02*
X9038369Y-9742720D01*
X9038369Y-9742720D02*
X9024083Y-9747482D01*
X9024083Y-9747482D02*
X9014560Y-9747482D01*
X9014560Y-9747482D02*
X9000274Y-9742720D01*
X9000274Y-9742720D02*
X8990750Y-9733196D01*
X8990750Y-9733196D02*
X8985988Y-9723672D01*
X8985988Y-9723672D02*
X8981226Y-9704625D01*
X8981226Y-9704625D02*
X8981226Y-9690339D01*
X8981226Y-9690339D02*
X8985988Y-9671291D01*
X8985988Y-9671291D02*
X8990750Y-9661768D01*
X8990750Y-9661768D02*
X9000274Y-9652244D01*
X9000274Y-9652244D02*
X9014560Y-9647482D01*
X9014560Y-9647482D02*
X9024083Y-9647482D01*
X9024083Y-9647482D02*
X9038369Y-9652244D01*
X9038369Y-9652244D02*
X9043131Y-9657006D01*
X9100274Y-9690339D02*
X9090750Y-9685577D01*
X9090750Y-9685577D02*
X9085988Y-9680815D01*
X9085988Y-9680815D02*
X9081226Y-9671291D01*
X9081226Y-9671291D02*
X9081226Y-9666530D01*
X9081226Y-9666530D02*
X9085988Y-9657006D01*
X9085988Y-9657006D02*
X9090750Y-9652244D01*
X9090750Y-9652244D02*
X9100274Y-9647482D01*
X9100274Y-9647482D02*
X9119321Y-9647482D01*
X9119321Y-9647482D02*
X9128845Y-9652244D01*
X9128845Y-9652244D02*
X9133607Y-9657006D01*
X9133607Y-9657006D02*
X9138369Y-9666530D01*
X9138369Y-9666530D02*
X9138369Y-9671291D01*
X9138369Y-9671291D02*
X9133607Y-9680815D01*
X9133607Y-9680815D02*
X9128845Y-9685577D01*
X9128845Y-9685577D02*
X9119321Y-9690339D01*
X9119321Y-9690339D02*
X9100274Y-9690339D01*
X9100274Y-9690339D02*
X9090750Y-9695101D01*
X9090750Y-9695101D02*
X9085988Y-9699863D01*
X9085988Y-9699863D02*
X9081226Y-9709387D01*
X9081226Y-9709387D02*
X9081226Y-9728434D01*
X9081226Y-9728434D02*
X9085988Y-9737958D01*
X9085988Y-9737958D02*
X9090750Y-9742720D01*
X9090750Y-9742720D02*
X9100274Y-9747482D01*
X9100274Y-9747482D02*
X9119321Y-9747482D01*
X9119321Y-9747482D02*
X9128845Y-9742720D01*
X9128845Y-9742720D02*
X9133607Y-9737958D01*
X9133607Y-9737958D02*
X9138369Y-9728434D01*
X9138369Y-9728434D02*
X9138369Y-9709387D01*
X9138369Y-9709387D02*
X9133607Y-9699863D01*
X9133607Y-9699863D02*
X9128845Y-9695101D01*
X9128845Y-9695101D02*
X9119321Y-9690339D01*
X9145048Y-11031720D02*
X9159333Y-11036482D01*
X9159333Y-11036482D02*
X9183143Y-11036482D01*
X9183143Y-11036482D02*
X9192667Y-11031720D01*
X9192667Y-11031720D02*
X9197429Y-11026958D01*
X9197429Y-11026958D02*
X9202190Y-11017434D01*
X9202190Y-11017434D02*
X9202190Y-11007910D01*
X9202190Y-11007910D02*
X9197429Y-10998387D01*
X9197429Y-10998387D02*
X9192667Y-10993625D01*
X9192667Y-10993625D02*
X9183143Y-10988863D01*
X9183143Y-10988863D02*
X9164095Y-10984101D01*
X9164095Y-10984101D02*
X9154571Y-10979339D01*
X9154571Y-10979339D02*
X9149810Y-10974577D01*
X9149810Y-10974577D02*
X9145048Y-10965053D01*
X9145048Y-10965053D02*
X9145048Y-10955530D01*
X9145048Y-10955530D02*
X9149810Y-10946006D01*
X9149810Y-10946006D02*
X9154571Y-10941244D01*
X9154571Y-10941244D02*
X9164095Y-10936482D01*
X9164095Y-10936482D02*
X9187905Y-10936482D01*
X9187905Y-10936482D02*
X9202190Y-10941244D01*
X9235524Y-10936482D02*
X9259333Y-11036482D01*
X9259333Y-11036482D02*
X9278381Y-10965053D01*
X9278381Y-10965053D02*
X9297429Y-11036482D01*
X9297429Y-11036482D02*
X9321238Y-10936482D01*
X9411714Y-11036482D02*
X9354571Y-11036482D01*
X9383143Y-11036482D02*
X9383143Y-10936482D01*
X9383143Y-10936482D02*
X9373619Y-10950768D01*
X9373619Y-10950768D02*
X9364095Y-10960291D01*
X9364095Y-10960291D02*
X9354571Y-10965053D01*
X9506952Y-11036482D02*
X9449810Y-11036482D01*
X9478381Y-11036482D02*
X9478381Y-10936482D01*
X9478381Y-10936482D02*
X9468857Y-10950768D01*
X9468857Y-10950768D02*
X9459333Y-10960291D01*
X9459333Y-10960291D02*
X9449810Y-10965053D01*
X14517958Y-9853867D02*
X14522720Y-9858629D01*
X14522720Y-9858629D02*
X14527482Y-9872914D01*
X14527482Y-9872914D02*
X14527482Y-9882438D01*
X14527482Y-9882438D02*
X14522720Y-9896724D01*
X14522720Y-9896724D02*
X14513196Y-9906248D01*
X14513196Y-9906248D02*
X14503672Y-9911009D01*
X14503672Y-9911009D02*
X14484625Y-9915771D01*
X14484625Y-9915771D02*
X14470339Y-9915771D01*
X14470339Y-9915771D02*
X14451291Y-9911009D01*
X14451291Y-9911009D02*
X14441768Y-9906248D01*
X14441768Y-9906248D02*
X14432244Y-9896724D01*
X14432244Y-9896724D02*
X14427482Y-9882438D01*
X14427482Y-9882438D02*
X14427482Y-9872914D01*
X14427482Y-9872914D02*
X14432244Y-9858629D01*
X14432244Y-9858629D02*
X14437006Y-9853867D01*
X14427482Y-9820533D02*
X14427482Y-9758629D01*
X14427482Y-9758629D02*
X14465577Y-9791962D01*
X14465577Y-9791962D02*
X14465577Y-9777676D01*
X14465577Y-9777676D02*
X14470339Y-9768152D01*
X14470339Y-9768152D02*
X14475101Y-9763390D01*
X14475101Y-9763390D02*
X14484625Y-9758629D01*
X14484625Y-9758629D02*
X14508434Y-9758629D01*
X14508434Y-9758629D02*
X14517958Y-9763390D01*
X14517958Y-9763390D02*
X14522720Y-9768152D01*
X14522720Y-9768152D02*
X14527482Y-9777676D01*
X14527482Y-9777676D02*
X14527482Y-9806248D01*
X14527482Y-9806248D02*
X14522720Y-9815771D01*
X14522720Y-9815771D02*
X14517958Y-9820533D01*
X16253482Y-7192678D02*
X16153482Y-7192678D01*
X16153482Y-7192678D02*
X16153482Y-7168869D01*
X16153482Y-7168869D02*
X16158244Y-7154583D01*
X16158244Y-7154583D02*
X16167768Y-7145059D01*
X16167768Y-7145059D02*
X16177291Y-7140298D01*
X16177291Y-7140298D02*
X16196339Y-7135536D01*
X16196339Y-7135536D02*
X16210625Y-7135536D01*
X16210625Y-7135536D02*
X16229672Y-7140298D01*
X16229672Y-7140298D02*
X16239196Y-7145059D01*
X16239196Y-7145059D02*
X16248720Y-7154583D01*
X16248720Y-7154583D02*
X16253482Y-7168869D01*
X16253482Y-7168869D02*
X16253482Y-7192678D01*
X16253482Y-7040298D02*
X16253482Y-7097440D01*
X16253482Y-7068869D02*
X16153482Y-7068869D01*
X16153482Y-7068869D02*
X16167768Y-7078393D01*
X16167768Y-7078393D02*
X16177291Y-7087917D01*
X16177291Y-7087917D02*
X16182053Y-7097440D01*
X16163006Y-7002202D02*
X16158244Y-6997440D01*
X16158244Y-6997440D02*
X16153482Y-6987917D01*
X16153482Y-6987917D02*
X16153482Y-6964107D01*
X16153482Y-6964107D02*
X16158244Y-6954583D01*
X16158244Y-6954583D02*
X16163006Y-6949821D01*
X16163006Y-6949821D02*
X16172529Y-6945059D01*
X16172529Y-6945059D02*
X16182053Y-6945059D01*
X16182053Y-6945059D02*
X16196339Y-6949821D01*
X16196339Y-6949821D02*
X16253482Y-7006964D01*
X16253482Y-7006964D02*
X16253482Y-6945059D01*
X12317482Y-6896786D02*
X12269863Y-6930119D01*
X12317482Y-6953928D02*
X12217482Y-6953928D01*
X12217482Y-6953928D02*
X12217482Y-6915833D01*
X12217482Y-6915833D02*
X12222244Y-6906309D01*
X12222244Y-6906309D02*
X12227006Y-6901548D01*
X12227006Y-6901548D02*
X12236529Y-6896786D01*
X12236529Y-6896786D02*
X12250815Y-6896786D01*
X12250815Y-6896786D02*
X12260339Y-6901548D01*
X12260339Y-6901548D02*
X12265101Y-6906309D01*
X12265101Y-6906309D02*
X12269863Y-6915833D01*
X12269863Y-6915833D02*
X12269863Y-6953928D01*
X12227006Y-6858690D02*
X12222244Y-6853928D01*
X12222244Y-6853928D02*
X12217482Y-6844405D01*
X12217482Y-6844405D02*
X12217482Y-6820595D01*
X12217482Y-6820595D02*
X12222244Y-6811071D01*
X12222244Y-6811071D02*
X12227006Y-6806309D01*
X12227006Y-6806309D02*
X12236529Y-6801548D01*
X12236529Y-6801548D02*
X12246053Y-6801548D01*
X12246053Y-6801548D02*
X12260339Y-6806309D01*
X12260339Y-6806309D02*
X12317482Y-6863452D01*
X12317482Y-6863452D02*
X12317482Y-6801548D01*
X12227006Y-6763452D02*
X12222244Y-6758690D01*
X12222244Y-6758690D02*
X12217482Y-6749167D01*
X12217482Y-6749167D02*
X12217482Y-6725357D01*
X12217482Y-6725357D02*
X12222244Y-6715833D01*
X12222244Y-6715833D02*
X12227006Y-6711071D01*
X12227006Y-6711071D02*
X12236529Y-6706309D01*
X12236529Y-6706309D02*
X12246053Y-6706309D01*
X12246053Y-6706309D02*
X12260339Y-6711071D01*
X12260339Y-6711071D02*
X12317482Y-6768214D01*
X12317482Y-6768214D02*
X12317482Y-6706309D01*
X14670358Y-9853867D02*
X14675120Y-9858629D01*
X14675120Y-9858629D02*
X14679882Y-9872914D01*
X14679882Y-9872914D02*
X14679882Y-9882438D01*
X14679882Y-9882438D02*
X14675120Y-9896724D01*
X14675120Y-9896724D02*
X14665596Y-9906248D01*
X14665596Y-9906248D02*
X14656072Y-9911009D01*
X14656072Y-9911009D02*
X14637025Y-9915771D01*
X14637025Y-9915771D02*
X14622739Y-9915771D01*
X14622739Y-9915771D02*
X14603691Y-9911009D01*
X14603691Y-9911009D02*
X14594168Y-9906248D01*
X14594168Y-9906248D02*
X14584644Y-9896724D01*
X14584644Y-9896724D02*
X14579882Y-9882438D01*
X14579882Y-9882438D02*
X14579882Y-9872914D01*
X14579882Y-9872914D02*
X14584644Y-9858629D01*
X14584644Y-9858629D02*
X14589406Y-9853867D01*
X14579882Y-9768152D02*
X14579882Y-9787200D01*
X14579882Y-9787200D02*
X14584644Y-9796724D01*
X14584644Y-9796724D02*
X14589406Y-9801486D01*
X14589406Y-9801486D02*
X14603691Y-9811009D01*
X14603691Y-9811009D02*
X14622739Y-9815771D01*
X14622739Y-9815771D02*
X14660834Y-9815771D01*
X14660834Y-9815771D02*
X14670358Y-9811009D01*
X14670358Y-9811009D02*
X14675120Y-9806248D01*
X14675120Y-9806248D02*
X14679882Y-9796724D01*
X14679882Y-9796724D02*
X14679882Y-9777676D01*
X14679882Y-9777676D02*
X14675120Y-9768152D01*
X14675120Y-9768152D02*
X14670358Y-9763390D01*
X14670358Y-9763390D02*
X14660834Y-9758629D01*
X14660834Y-9758629D02*
X14637025Y-9758629D01*
X14637025Y-9758629D02*
X14627501Y-9763390D01*
X14627501Y-9763390D02*
X14622739Y-9768152D01*
X14622739Y-9768152D02*
X14617977Y-9777676D01*
X14617977Y-9777676D02*
X14617977Y-9796724D01*
X14617977Y-9796724D02*
X14622739Y-9806248D01*
X14622739Y-9806248D02*
X14627501Y-9811009D01*
X14627501Y-9811009D02*
X14637025Y-9815771D01*
X19385667Y-7530720D02*
X19399952Y-7535482D01*
X19399952Y-7535482D02*
X19423762Y-7535482D01*
X19423762Y-7535482D02*
X19433286Y-7530720D01*
X19433286Y-7530720D02*
X19438048Y-7525958D01*
X19438048Y-7525958D02*
X19442810Y-7516434D01*
X19442810Y-7516434D02*
X19442810Y-7506910D01*
X19442810Y-7506910D02*
X19438048Y-7497387D01*
X19438048Y-7497387D02*
X19433286Y-7492625D01*
X19433286Y-7492625D02*
X19423762Y-7487863D01*
X19423762Y-7487863D02*
X19404714Y-7483101D01*
X19404714Y-7483101D02*
X19395191Y-7478339D01*
X19395191Y-7478339D02*
X19390429Y-7473577D01*
X19390429Y-7473577D02*
X19385667Y-7464053D01*
X19385667Y-7464053D02*
X19385667Y-7454529D01*
X19385667Y-7454529D02*
X19390429Y-7445006D01*
X19390429Y-7445006D02*
X19395191Y-7440244D01*
X19395191Y-7440244D02*
X19404714Y-7435482D01*
X19404714Y-7435482D02*
X19428524Y-7435482D01*
X19428524Y-7435482D02*
X19442810Y-7440244D01*
X19476143Y-7435482D02*
X19499952Y-7535482D01*
X19499952Y-7535482D02*
X19519000Y-7464053D01*
X19519000Y-7464053D02*
X19538048Y-7535482D01*
X19538048Y-7535482D02*
X19561857Y-7435482D01*
X19642810Y-7468815D02*
X19642810Y-7535482D01*
X19619000Y-7430720D02*
X19595191Y-7502148D01*
X19595191Y-7502148D02*
X19657095Y-7502148D01*
X6725809Y-9091982D02*
X6725809Y-8991982D01*
X6725809Y-9039601D02*
X6782952Y-9039601D01*
X6782952Y-9091982D02*
X6782952Y-8991982D01*
X6825809Y-9001506D02*
X6830571Y-8996744D01*
X6830571Y-8996744D02*
X6840095Y-8991982D01*
X6840095Y-8991982D02*
X6863905Y-8991982D01*
X6863905Y-8991982D02*
X6873428Y-8996744D01*
X6873428Y-8996744D02*
X6878190Y-9001506D01*
X6878190Y-9001506D02*
X6882952Y-9011030D01*
X6882952Y-9011030D02*
X6882952Y-9020553D01*
X6882952Y-9020553D02*
X6878190Y-9034839D01*
X6878190Y-9034839D02*
X6821048Y-9091982D01*
X6821048Y-9091982D02*
X6882952Y-9091982D01*
X16574982Y-7191428D02*
X16474982Y-7191428D01*
X16474982Y-7191428D02*
X16474982Y-7167619D01*
X16474982Y-7167619D02*
X16479744Y-7153333D01*
X16479744Y-7153333D02*
X16489268Y-7143809D01*
X16489268Y-7143809D02*
X16498791Y-7139048D01*
X16498791Y-7139048D02*
X16517839Y-7134286D01*
X16517839Y-7134286D02*
X16532125Y-7134286D01*
X16532125Y-7134286D02*
X16551172Y-7139048D01*
X16551172Y-7139048D02*
X16560696Y-7143809D01*
X16560696Y-7143809D02*
X16570220Y-7153333D01*
X16570220Y-7153333D02*
X16574982Y-7167619D01*
X16574982Y-7167619D02*
X16574982Y-7191428D01*
X16574982Y-7039048D02*
X16574982Y-7096190D01*
X16574982Y-7067619D02*
X16474982Y-7067619D01*
X16474982Y-7067619D02*
X16489268Y-7077143D01*
X16489268Y-7077143D02*
X16498791Y-7086667D01*
X16498791Y-7086667D02*
X16503553Y-7096190D01*
X16508315Y-6953333D02*
X16574982Y-6953333D01*
X16470220Y-6977143D02*
X16541648Y-7000952D01*
X16541648Y-7000952D02*
X16541648Y-6939048D01*
X11259982Y-6901786D02*
X11212363Y-6935119D01*
X11259982Y-6958928D02*
X11159982Y-6958928D01*
X11159982Y-6958928D02*
X11159982Y-6920833D01*
X11159982Y-6920833D02*
X11164744Y-6911309D01*
X11164744Y-6911309D02*
X11169506Y-6906548D01*
X11169506Y-6906548D02*
X11179030Y-6901786D01*
X11179030Y-6901786D02*
X11193315Y-6901786D01*
X11193315Y-6901786D02*
X11202839Y-6906548D01*
X11202839Y-6906548D02*
X11207601Y-6911309D01*
X11207601Y-6911309D02*
X11212363Y-6920833D01*
X11212363Y-6920833D02*
X11212363Y-6958928D01*
X11259982Y-6806548D02*
X11259982Y-6863690D01*
X11259982Y-6835119D02*
X11159982Y-6835119D01*
X11159982Y-6835119D02*
X11174268Y-6844643D01*
X11174268Y-6844643D02*
X11183791Y-6854167D01*
X11183791Y-6854167D02*
X11188553Y-6863690D01*
X11202839Y-6749405D02*
X11198077Y-6758928D01*
X11198077Y-6758928D02*
X11193315Y-6763690D01*
X11193315Y-6763690D02*
X11183791Y-6768452D01*
X11183791Y-6768452D02*
X11179030Y-6768452D01*
X11179030Y-6768452D02*
X11169506Y-6763690D01*
X11169506Y-6763690D02*
X11164744Y-6758928D01*
X11164744Y-6758928D02*
X11159982Y-6749405D01*
X11159982Y-6749405D02*
X11159982Y-6730357D01*
X11159982Y-6730357D02*
X11164744Y-6720833D01*
X11164744Y-6720833D02*
X11169506Y-6716071D01*
X11169506Y-6716071D02*
X11179030Y-6711309D01*
X11179030Y-6711309D02*
X11183791Y-6711309D01*
X11183791Y-6711309D02*
X11193315Y-6716071D01*
X11193315Y-6716071D02*
X11198077Y-6720833D01*
X11198077Y-6720833D02*
X11202839Y-6730357D01*
X11202839Y-6730357D02*
X11202839Y-6749405D01*
X11202839Y-6749405D02*
X11207601Y-6758928D01*
X11207601Y-6758928D02*
X11212363Y-6763690D01*
X11212363Y-6763690D02*
X11221887Y-6768452D01*
X11221887Y-6768452D02*
X11240934Y-6768452D01*
X11240934Y-6768452D02*
X11250458Y-6763690D01*
X11250458Y-6763690D02*
X11255220Y-6758928D01*
X11255220Y-6758928D02*
X11259982Y-6749405D01*
X11259982Y-6749405D02*
X11259982Y-6730357D01*
X11259982Y-6730357D02*
X11255220Y-6720833D01*
X11255220Y-6720833D02*
X11250458Y-6716071D01*
X11250458Y-6716071D02*
X11240934Y-6711309D01*
X11240934Y-6711309D02*
X11221887Y-6711309D01*
X11221887Y-6711309D02*
X11212363Y-6716071D01*
X11212363Y-6716071D02*
X11207601Y-6720833D01*
X11207601Y-6720833D02*
X11202839Y-6730357D01*
X10452333Y-7342482D02*
X10419000Y-7294863D01*
X10395191Y-7342482D02*
X10395191Y-7242482D01*
X10395191Y-7242482D02*
X10433286Y-7242482D01*
X10433286Y-7242482D02*
X10442810Y-7247244D01*
X10442810Y-7247244D02*
X10447571Y-7252006D01*
X10447571Y-7252006D02*
X10452333Y-7261529D01*
X10452333Y-7261529D02*
X10452333Y-7275815D01*
X10452333Y-7275815D02*
X10447571Y-7285339D01*
X10447571Y-7285339D02*
X10442810Y-7290101D01*
X10442810Y-7290101D02*
X10433286Y-7294863D01*
X10433286Y-7294863D02*
X10395191Y-7294863D01*
X10490429Y-7252006D02*
X10495191Y-7247244D01*
X10495191Y-7247244D02*
X10504714Y-7242482D01*
X10504714Y-7242482D02*
X10528524Y-7242482D01*
X10528524Y-7242482D02*
X10538048Y-7247244D01*
X10538048Y-7247244D02*
X10542810Y-7252006D01*
X10542810Y-7252006D02*
X10547571Y-7261529D01*
X10547571Y-7261529D02*
X10547571Y-7271053D01*
X10547571Y-7271053D02*
X10542810Y-7285339D01*
X10542810Y-7285339D02*
X10485667Y-7342482D01*
X10485667Y-7342482D02*
X10547571Y-7342482D01*
X11962482Y-6901786D02*
X11914863Y-6935119D01*
X11962482Y-6958928D02*
X11862482Y-6958928D01*
X11862482Y-6958928D02*
X11862482Y-6920833D01*
X11862482Y-6920833D02*
X11867244Y-6911309D01*
X11867244Y-6911309D02*
X11872006Y-6906548D01*
X11872006Y-6906548D02*
X11881529Y-6901786D01*
X11881529Y-6901786D02*
X11895815Y-6901786D01*
X11895815Y-6901786D02*
X11905339Y-6906548D01*
X11905339Y-6906548D02*
X11910101Y-6911309D01*
X11910101Y-6911309D02*
X11914863Y-6920833D01*
X11914863Y-6920833D02*
X11914863Y-6958928D01*
X11872006Y-6863690D02*
X11867244Y-6858928D01*
X11867244Y-6858928D02*
X11862482Y-6849405D01*
X11862482Y-6849405D02*
X11862482Y-6825595D01*
X11862482Y-6825595D02*
X11867244Y-6816071D01*
X11867244Y-6816071D02*
X11872006Y-6811309D01*
X11872006Y-6811309D02*
X11881529Y-6806548D01*
X11881529Y-6806548D02*
X11891053Y-6806548D01*
X11891053Y-6806548D02*
X11905339Y-6811309D01*
X11905339Y-6811309D02*
X11962482Y-6868452D01*
X11962482Y-6868452D02*
X11962482Y-6806548D01*
X11962482Y-6711309D02*
X11962482Y-6768452D01*
X11962482Y-6739881D02*
X11862482Y-6739881D01*
X11862482Y-6739881D02*
X11876768Y-6749405D01*
X11876768Y-6749405D02*
X11886291Y-6758928D01*
X11886291Y-6758928D02*
X11891053Y-6768452D01*
X11095191Y-6492482D02*
X11095191Y-6392482D01*
X11095191Y-6392482D02*
X11119000Y-6392482D01*
X11119000Y-6392482D02*
X11133286Y-6397244D01*
X11133286Y-6397244D02*
X11142810Y-6406768D01*
X11142810Y-6406768D02*
X11147571Y-6416291D01*
X11147571Y-6416291D02*
X11152333Y-6435339D01*
X11152333Y-6435339D02*
X11152333Y-6449625D01*
X11152333Y-6449625D02*
X11147571Y-6468672D01*
X11147571Y-6468672D02*
X11142810Y-6478196D01*
X11142810Y-6478196D02*
X11133286Y-6487720D01*
X11133286Y-6487720D02*
X11119000Y-6492482D01*
X11119000Y-6492482D02*
X11095191Y-6492482D01*
X11185667Y-6392482D02*
X11247571Y-6392482D01*
X11247571Y-6392482D02*
X11214238Y-6430577D01*
X11214238Y-6430577D02*
X11228524Y-6430577D01*
X11228524Y-6430577D02*
X11238048Y-6435339D01*
X11238048Y-6435339D02*
X11242809Y-6440101D01*
X11242809Y-6440101D02*
X11247571Y-6449625D01*
X11247571Y-6449625D02*
X11247571Y-6473434D01*
X11247571Y-6473434D02*
X11242809Y-6482958D01*
X11242809Y-6482958D02*
X11238048Y-6487720D01*
X11238048Y-6487720D02*
X11228524Y-6492482D01*
X11228524Y-6492482D02*
X11199952Y-6492482D01*
X11199952Y-6492482D02*
X11190429Y-6487720D01*
X11190429Y-6487720D02*
X11185667Y-6482958D01*
X16693720Y-8123333D02*
X16698482Y-8109047D01*
X16698482Y-8109047D02*
X16698482Y-8085238D01*
X16698482Y-8085238D02*
X16693720Y-8075714D01*
X16693720Y-8075714D02*
X16688958Y-8070952D01*
X16688958Y-8070952D02*
X16679434Y-8066190D01*
X16679434Y-8066190D02*
X16669910Y-8066190D01*
X16669910Y-8066190D02*
X16660387Y-8070952D01*
X16660387Y-8070952D02*
X16655625Y-8075714D01*
X16655625Y-8075714D02*
X16650863Y-8085238D01*
X16650863Y-8085238D02*
X16646101Y-8104286D01*
X16646101Y-8104286D02*
X16641339Y-8113809D01*
X16641339Y-8113809D02*
X16636577Y-8118571D01*
X16636577Y-8118571D02*
X16627053Y-8123333D01*
X16627053Y-8123333D02*
X16617529Y-8123333D01*
X16617529Y-8123333D02*
X16608006Y-8118571D01*
X16608006Y-8118571D02*
X16603244Y-8113809D01*
X16603244Y-8113809D02*
X16598482Y-8104286D01*
X16598482Y-8104286D02*
X16598482Y-8080476D01*
X16598482Y-8080476D02*
X16603244Y-8066190D01*
X16598482Y-8032857D02*
X16698482Y-8009047D01*
X16698482Y-8009047D02*
X16627053Y-7990000D01*
X16627053Y-7990000D02*
X16698482Y-7970952D01*
X16698482Y-7970952D02*
X16598482Y-7947143D01*
X16698482Y-7856667D02*
X16698482Y-7913809D01*
X16698482Y-7885238D02*
X16598482Y-7885238D01*
X16598482Y-7885238D02*
X16612768Y-7894762D01*
X16612768Y-7894762D02*
X16622291Y-7904286D01*
X16622291Y-7904286D02*
X16627053Y-7913809D01*
X17792810Y-7390482D02*
X17792810Y-7471434D01*
X17792810Y-7471434D02*
X17797571Y-7480958D01*
X17797571Y-7480958D02*
X17802333Y-7485720D01*
X17802333Y-7485720D02*
X17811857Y-7490482D01*
X17811857Y-7490482D02*
X17830905Y-7490482D01*
X17830905Y-7490482D02*
X17840429Y-7485720D01*
X17840429Y-7485720D02*
X17845190Y-7480958D01*
X17845190Y-7480958D02*
X17849952Y-7471434D01*
X17849952Y-7471434D02*
X17849952Y-7390482D01*
X17888048Y-7390482D02*
X17949952Y-7390482D01*
X17949952Y-7390482D02*
X17916619Y-7428577D01*
X17916619Y-7428577D02*
X17930905Y-7428577D01*
X17930905Y-7428577D02*
X17940429Y-7433339D01*
X17940429Y-7433339D02*
X17945190Y-7438101D01*
X17945190Y-7438101D02*
X17949952Y-7447625D01*
X17949952Y-7447625D02*
X17949952Y-7471434D01*
X17949952Y-7471434D02*
X17945190Y-7480958D01*
X17945190Y-7480958D02*
X17940429Y-7485720D01*
X17940429Y-7485720D02*
X17930905Y-7490482D01*
X17930905Y-7490482D02*
X17902333Y-7490482D01*
X17902333Y-7490482D02*
X17892810Y-7485720D01*
X17892810Y-7485720D02*
X17888048Y-7480958D01*
X20083536Y-10023958D02*
X20078774Y-10028720D01*
X20078774Y-10028720D02*
X20064488Y-10033482D01*
X20064488Y-10033482D02*
X20054964Y-10033482D01*
X20054964Y-10033482D02*
X20040679Y-10028720D01*
X20040679Y-10028720D02*
X20031155Y-10019196D01*
X20031155Y-10019196D02*
X20026393Y-10009672D01*
X20026393Y-10009672D02*
X20021631Y-9990625D01*
X20021631Y-9990625D02*
X20021631Y-9976339D01*
X20021631Y-9976339D02*
X20026393Y-9957291D01*
X20026393Y-9957291D02*
X20031155Y-9947768D01*
X20031155Y-9947768D02*
X20040679Y-9938244D01*
X20040679Y-9938244D02*
X20054964Y-9933482D01*
X20054964Y-9933482D02*
X20064488Y-9933482D01*
X20064488Y-9933482D02*
X20078774Y-9938244D01*
X20078774Y-9938244D02*
X20083536Y-9943006D01*
X20116869Y-9933482D02*
X20183536Y-9933482D01*
X20183536Y-9933482D02*
X20140679Y-10033482D01*
X16089982Y-7193928D02*
X15989982Y-7193928D01*
X15989982Y-7193928D02*
X15989982Y-7170119D01*
X15989982Y-7170119D02*
X15994744Y-7155833D01*
X15994744Y-7155833D02*
X16004268Y-7146309D01*
X16004268Y-7146309D02*
X16013791Y-7141548D01*
X16013791Y-7141548D02*
X16032839Y-7136786D01*
X16032839Y-7136786D02*
X16047125Y-7136786D01*
X16047125Y-7136786D02*
X16066172Y-7141548D01*
X16066172Y-7141548D02*
X16075696Y-7146309D01*
X16075696Y-7146309D02*
X16085220Y-7155833D01*
X16085220Y-7155833D02*
X16089982Y-7170119D01*
X16089982Y-7170119D02*
X16089982Y-7193928D01*
X16089982Y-7041548D02*
X16089982Y-7098690D01*
X16089982Y-7070119D02*
X15989982Y-7070119D01*
X15989982Y-7070119D02*
X16004268Y-7079643D01*
X16004268Y-7079643D02*
X16013791Y-7089167D01*
X16013791Y-7089167D02*
X16018553Y-7098690D01*
X16089982Y-6946309D02*
X16089982Y-7003452D01*
X16089982Y-6974881D02*
X15989982Y-6974881D01*
X15989982Y-6974881D02*
X16004268Y-6984405D01*
X16004268Y-6984405D02*
X16013791Y-6993928D01*
X16013791Y-6993928D02*
X16018553Y-7003452D01*
X20433536Y-9747482D02*
X20400202Y-9699863D01*
X20376393Y-9747482D02*
X20376393Y-9647482D01*
X20376393Y-9647482D02*
X20414488Y-9647482D01*
X20414488Y-9647482D02*
X20424012Y-9652244D01*
X20424012Y-9652244D02*
X20428774Y-9657006D01*
X20428774Y-9657006D02*
X20433536Y-9666530D01*
X20433536Y-9666530D02*
X20433536Y-9680815D01*
X20433536Y-9680815D02*
X20428774Y-9690339D01*
X20428774Y-9690339D02*
X20424012Y-9695101D01*
X20424012Y-9695101D02*
X20414488Y-9699863D01*
X20414488Y-9699863D02*
X20376393Y-9699863D01*
X20519250Y-9680815D02*
X20519250Y-9747482D01*
X20495441Y-9642720D02*
X20471631Y-9714149D01*
X20471631Y-9714149D02*
X20533536Y-9714149D01*
X17887958Y-11740417D02*
X17892720Y-11745178D01*
X17892720Y-11745178D02*
X17897482Y-11759464D01*
X17897482Y-11759464D02*
X17897482Y-11768988D01*
X17897482Y-11768988D02*
X17892720Y-11783274D01*
X17892720Y-11783274D02*
X17883196Y-11792797D01*
X17883196Y-11792797D02*
X17873672Y-11797559D01*
X17873672Y-11797559D02*
X17854625Y-11802321D01*
X17854625Y-11802321D02*
X17840339Y-11802321D01*
X17840339Y-11802321D02*
X17821291Y-11797559D01*
X17821291Y-11797559D02*
X17811768Y-11792797D01*
X17811768Y-11792797D02*
X17802244Y-11783274D01*
X17802244Y-11783274D02*
X17797482Y-11768988D01*
X17797482Y-11768988D02*
X17797482Y-11759464D01*
X17797482Y-11759464D02*
X17802244Y-11745178D01*
X17802244Y-11745178D02*
X17807006Y-11740417D01*
X17807006Y-11702321D02*
X17802244Y-11697559D01*
X17802244Y-11697559D02*
X17797482Y-11688036D01*
X17797482Y-11688036D02*
X17797482Y-11664226D01*
X17797482Y-11664226D02*
X17802244Y-11654702D01*
X17802244Y-11654702D02*
X17807006Y-11649940D01*
X17807006Y-11649940D02*
X17816530Y-11645178D01*
X17816530Y-11645178D02*
X17826053Y-11645178D01*
X17826053Y-11645178D02*
X17840339Y-11649940D01*
X17840339Y-11649940D02*
X17897482Y-11707083D01*
X17897482Y-11707083D02*
X17897482Y-11645178D01*
X16048167Y-10778982D02*
X16048167Y-10850410D01*
X16048167Y-10850410D02*
X16043405Y-10864696D01*
X16043405Y-10864696D02*
X16033881Y-10874220D01*
X16033881Y-10874220D02*
X16019595Y-10878982D01*
X16019595Y-10878982D02*
X16010071Y-10878982D01*
X16091024Y-10788506D02*
X16095786Y-10783744D01*
X16095786Y-10783744D02*
X16105309Y-10778982D01*
X16105309Y-10778982D02*
X16129119Y-10778982D01*
X16129119Y-10778982D02*
X16138643Y-10783744D01*
X16138643Y-10783744D02*
X16143405Y-10788506D01*
X16143405Y-10788506D02*
X16148167Y-10798030D01*
X16148167Y-10798030D02*
X16148167Y-10807553D01*
X16148167Y-10807553D02*
X16143405Y-10821839D01*
X16143405Y-10821839D02*
X16086262Y-10878982D01*
X16086262Y-10878982D02*
X16148167Y-10878982D01*
X17652958Y-7996667D02*
X17657720Y-8001428D01*
X17657720Y-8001428D02*
X17662482Y-8015714D01*
X17662482Y-8015714D02*
X17662482Y-8025238D01*
X17662482Y-8025238D02*
X17657720Y-8039524D01*
X17657720Y-8039524D02*
X17648196Y-8049047D01*
X17648196Y-8049047D02*
X17638672Y-8053809D01*
X17638672Y-8053809D02*
X17619625Y-8058571D01*
X17619625Y-8058571D02*
X17605339Y-8058571D01*
X17605339Y-8058571D02*
X17586291Y-8053809D01*
X17586291Y-8053809D02*
X17576768Y-8049047D01*
X17576768Y-8049047D02*
X17567244Y-8039524D01*
X17567244Y-8039524D02*
X17562482Y-8025238D01*
X17562482Y-8025238D02*
X17562482Y-8015714D01*
X17562482Y-8015714D02*
X17567244Y-8001428D01*
X17567244Y-8001428D02*
X17572006Y-7996667D01*
X17662482Y-7949047D02*
X17662482Y-7930000D01*
X17662482Y-7930000D02*
X17657720Y-7920476D01*
X17657720Y-7920476D02*
X17652958Y-7915714D01*
X17652958Y-7915714D02*
X17638672Y-7906190D01*
X17638672Y-7906190D02*
X17619625Y-7901428D01*
X17619625Y-7901428D02*
X17581530Y-7901428D01*
X17581530Y-7901428D02*
X17572006Y-7906190D01*
X17572006Y-7906190D02*
X17567244Y-7910952D01*
X17567244Y-7910952D02*
X17562482Y-7920476D01*
X17562482Y-7920476D02*
X17562482Y-7939524D01*
X17562482Y-7939524D02*
X17567244Y-7949047D01*
X17567244Y-7949047D02*
X17572006Y-7953809D01*
X17572006Y-7953809D02*
X17581530Y-7958571D01*
X17581530Y-7958571D02*
X17605339Y-7958571D01*
X17605339Y-7958571D02*
X17614863Y-7953809D01*
X17614863Y-7953809D02*
X17619625Y-7949047D01*
X17619625Y-7949047D02*
X17624387Y-7939524D01*
X17624387Y-7939524D02*
X17624387Y-7920476D01*
X17624387Y-7920476D02*
X17619625Y-7910952D01*
X17619625Y-7910952D02*
X17614863Y-7906190D01*
X17614863Y-7906190D02*
X17605339Y-7901428D01*
X20592810Y-11055482D02*
X20592810Y-10955482D01*
X20592810Y-11003101D02*
X20649952Y-11003101D01*
X20649952Y-11055482D02*
X20649952Y-10955482D01*
X20740429Y-10955482D02*
X20721381Y-10955482D01*
X20721381Y-10955482D02*
X20711857Y-10960244D01*
X20711857Y-10960244D02*
X20707095Y-10965006D01*
X20707095Y-10965006D02*
X20697571Y-10979291D01*
X20697571Y-10979291D02*
X20692810Y-10998339D01*
X20692810Y-10998339D02*
X20692810Y-11036434D01*
X20692810Y-11036434D02*
X20697571Y-11045958D01*
X20697571Y-11045958D02*
X20702333Y-11050720D01*
X20702333Y-11050720D02*
X20711857Y-11055482D01*
X20711857Y-11055482D02*
X20730905Y-11055482D01*
X20730905Y-11055482D02*
X20740429Y-11050720D01*
X20740429Y-11050720D02*
X20745190Y-11045958D01*
X20745190Y-11045958D02*
X20749952Y-11036434D01*
X20749952Y-11036434D02*
X20749952Y-11012625D01*
X20749952Y-11012625D02*
X20745190Y-11003101D01*
X20745190Y-11003101D02*
X20740429Y-10998339D01*
X20740429Y-10998339D02*
X20730905Y-10993577D01*
X20730905Y-10993577D02*
X20711857Y-10993577D01*
X20711857Y-10993577D02*
X20702333Y-10998339D01*
X20702333Y-10998339D02*
X20697571Y-11003101D01*
X20697571Y-11003101D02*
X20692810Y-11012625D01*
X15507882Y-7957590D02*
X15588834Y-7957590D01*
X15588834Y-7957590D02*
X15598358Y-7952828D01*
X15598358Y-7952828D02*
X15603120Y-7948067D01*
X15603120Y-7948067D02*
X15607882Y-7938543D01*
X15607882Y-7938543D02*
X15607882Y-7919495D01*
X15607882Y-7919495D02*
X15603120Y-7909971D01*
X15603120Y-7909971D02*
X15598358Y-7905209D01*
X15598358Y-7905209D02*
X15588834Y-7900448D01*
X15588834Y-7900448D02*
X15507882Y-7900448D01*
X15541215Y-7809971D02*
X15607882Y-7809971D01*
X15503120Y-7833781D02*
X15574548Y-7857590D01*
X15574548Y-7857590D02*
X15574548Y-7795686D01*
X15449982Y-7146309D02*
X15349982Y-7146309D01*
X15349982Y-7146309D02*
X15349982Y-7122500D01*
X15349982Y-7122500D02*
X15354744Y-7108214D01*
X15354744Y-7108214D02*
X15364268Y-7098690D01*
X15364268Y-7098690D02*
X15373791Y-7093928D01*
X15373791Y-7093928D02*
X15392839Y-7089167D01*
X15392839Y-7089167D02*
X15407125Y-7089167D01*
X15407125Y-7089167D02*
X15426172Y-7093928D01*
X15426172Y-7093928D02*
X15435696Y-7098690D01*
X15435696Y-7098690D02*
X15445220Y-7108214D01*
X15445220Y-7108214D02*
X15449982Y-7122500D01*
X15449982Y-7122500D02*
X15449982Y-7146309D01*
X15349982Y-7055833D02*
X15349982Y-6989167D01*
X15349982Y-6989167D02*
X15449982Y-7032024D01*
X15811482Y-6785536D02*
X15763863Y-6818869D01*
X15811482Y-6842678D02*
X15711482Y-6842678D01*
X15711482Y-6842678D02*
X15711482Y-6804583D01*
X15711482Y-6804583D02*
X15716244Y-6795059D01*
X15716244Y-6795059D02*
X15721006Y-6790298D01*
X15721006Y-6790298D02*
X15730529Y-6785536D01*
X15730529Y-6785536D02*
X15744815Y-6785536D01*
X15744815Y-6785536D02*
X15754339Y-6790298D01*
X15754339Y-6790298D02*
X15759101Y-6795059D01*
X15759101Y-6795059D02*
X15763863Y-6804583D01*
X15763863Y-6804583D02*
X15763863Y-6842678D01*
X15721006Y-6747440D02*
X15716244Y-6742678D01*
X15716244Y-6742678D02*
X15711482Y-6733155D01*
X15711482Y-6733155D02*
X15711482Y-6709345D01*
X15711482Y-6709345D02*
X15716244Y-6699821D01*
X15716244Y-6699821D02*
X15721006Y-6695059D01*
X15721006Y-6695059D02*
X15730529Y-6690298D01*
X15730529Y-6690298D02*
X15740053Y-6690298D01*
X15740053Y-6690298D02*
X15754339Y-6695059D01*
X15754339Y-6695059D02*
X15811482Y-6752202D01*
X15811482Y-6752202D02*
X15811482Y-6690298D01*
X15711482Y-6656964D02*
X15711482Y-6590298D01*
X15711482Y-6590298D02*
X15811482Y-6633155D01*
X19385667Y-10030720D02*
X19399952Y-10035482D01*
X19399952Y-10035482D02*
X19423762Y-10035482D01*
X19423762Y-10035482D02*
X19433286Y-10030720D01*
X19433286Y-10030720D02*
X19438048Y-10025958D01*
X19438048Y-10025958D02*
X19442810Y-10016434D01*
X19442810Y-10016434D02*
X19442810Y-10006910D01*
X19442810Y-10006910D02*
X19438048Y-9997387D01*
X19438048Y-9997387D02*
X19433286Y-9992625D01*
X19433286Y-9992625D02*
X19423762Y-9987863D01*
X19423762Y-9987863D02*
X19404714Y-9983101D01*
X19404714Y-9983101D02*
X19395191Y-9978339D01*
X19395191Y-9978339D02*
X19390429Y-9973577D01*
X19390429Y-9973577D02*
X19385667Y-9964053D01*
X19385667Y-9964053D02*
X19385667Y-9954530D01*
X19385667Y-9954530D02*
X19390429Y-9945006D01*
X19390429Y-9945006D02*
X19395191Y-9940244D01*
X19395191Y-9940244D02*
X19404714Y-9935482D01*
X19404714Y-9935482D02*
X19428524Y-9935482D01*
X19428524Y-9935482D02*
X19442810Y-9940244D01*
X19476143Y-9935482D02*
X19499952Y-10035482D01*
X19499952Y-10035482D02*
X19519000Y-9964053D01*
X19519000Y-9964053D02*
X19538048Y-10035482D01*
X19538048Y-10035482D02*
X19561857Y-9935482D01*
X19590429Y-9935482D02*
X19652333Y-9935482D01*
X19652333Y-9935482D02*
X19619000Y-9973577D01*
X19619000Y-9973577D02*
X19633286Y-9973577D01*
X19633286Y-9973577D02*
X19642810Y-9978339D01*
X19642810Y-9978339D02*
X19647571Y-9983101D01*
X19647571Y-9983101D02*
X19652333Y-9992625D01*
X19652333Y-9992625D02*
X19652333Y-10016434D01*
X19652333Y-10016434D02*
X19647571Y-10025958D01*
X19647571Y-10025958D02*
X19642810Y-10030720D01*
X19642810Y-10030720D02*
X19633286Y-10035482D01*
X19633286Y-10035482D02*
X19604714Y-10035482D01*
X19604714Y-10035482D02*
X19595191Y-10030720D01*
X19595191Y-10030720D02*
X19590429Y-10025958D01*
X17897482Y-11386667D02*
X17849863Y-11420000D01*
X17897482Y-11443809D02*
X17797482Y-11443809D01*
X17797482Y-11443809D02*
X17797482Y-11405714D01*
X17797482Y-11405714D02*
X17802244Y-11396190D01*
X17802244Y-11396190D02*
X17807006Y-11391428D01*
X17807006Y-11391428D02*
X17816530Y-11386667D01*
X17816530Y-11386667D02*
X17830815Y-11386667D01*
X17830815Y-11386667D02*
X17840339Y-11391428D01*
X17840339Y-11391428D02*
X17845101Y-11396190D01*
X17845101Y-11396190D02*
X17849863Y-11405714D01*
X17849863Y-11405714D02*
X17849863Y-11443809D01*
X17897482Y-11339047D02*
X17897482Y-11320000D01*
X17897482Y-11320000D02*
X17892720Y-11310476D01*
X17892720Y-11310476D02*
X17887958Y-11305714D01*
X17887958Y-11305714D02*
X17873672Y-11296190D01*
X17873672Y-11296190D02*
X17854625Y-11291428D01*
X17854625Y-11291428D02*
X17816530Y-11291428D01*
X17816530Y-11291428D02*
X17807006Y-11296190D01*
X17807006Y-11296190D02*
X17802244Y-11300952D01*
X17802244Y-11300952D02*
X17797482Y-11310476D01*
X17797482Y-11310476D02*
X17797482Y-11329524D01*
X17797482Y-11329524D02*
X17802244Y-11339047D01*
X17802244Y-11339047D02*
X17807006Y-11343809D01*
X17807006Y-11343809D02*
X17816530Y-11348571D01*
X17816530Y-11348571D02*
X17840339Y-11348571D01*
X17840339Y-11348571D02*
X17849863Y-11343809D01*
X17849863Y-11343809D02*
X17854625Y-11339047D01*
X17854625Y-11339047D02*
X17859387Y-11329524D01*
X17859387Y-11329524D02*
X17859387Y-11310476D01*
X17859387Y-11310476D02*
X17854625Y-11300952D01*
X17854625Y-11300952D02*
X17849863Y-11296190D01*
X17849863Y-11296190D02*
X17840339Y-11291428D01*
X10435667Y-8780720D02*
X10449952Y-8785482D01*
X10449952Y-8785482D02*
X10473762Y-8785482D01*
X10473762Y-8785482D02*
X10483286Y-8780720D01*
X10483286Y-8780720D02*
X10488048Y-8775958D01*
X10488048Y-8775958D02*
X10492810Y-8766434D01*
X10492810Y-8766434D02*
X10492810Y-8756910D01*
X10492810Y-8756910D02*
X10488048Y-8747387D01*
X10488048Y-8747387D02*
X10483286Y-8742625D01*
X10483286Y-8742625D02*
X10473762Y-8737863D01*
X10473762Y-8737863D02*
X10454714Y-8733101D01*
X10454714Y-8733101D02*
X10445191Y-8728339D01*
X10445191Y-8728339D02*
X10440429Y-8723577D01*
X10440429Y-8723577D02*
X10435667Y-8714053D01*
X10435667Y-8714053D02*
X10435667Y-8704530D01*
X10435667Y-8704530D02*
X10440429Y-8695006D01*
X10440429Y-8695006D02*
X10445191Y-8690244D01*
X10445191Y-8690244D02*
X10454714Y-8685482D01*
X10454714Y-8685482D02*
X10478524Y-8685482D01*
X10478524Y-8685482D02*
X10492810Y-8690244D01*
X10526143Y-8685482D02*
X10549952Y-8785482D01*
X10549952Y-8785482D02*
X10569000Y-8714053D01*
X10569000Y-8714053D02*
X10588048Y-8785482D01*
X10588048Y-8785482D02*
X10611857Y-8685482D01*
X10664238Y-8728339D02*
X10654714Y-8723577D01*
X10654714Y-8723577D02*
X10649952Y-8718815D01*
X10649952Y-8718815D02*
X10645191Y-8709291D01*
X10645191Y-8709291D02*
X10645191Y-8704530D01*
X10645191Y-8704530D02*
X10649952Y-8695006D01*
X10649952Y-8695006D02*
X10654714Y-8690244D01*
X10654714Y-8690244D02*
X10664238Y-8685482D01*
X10664238Y-8685482D02*
X10683286Y-8685482D01*
X10683286Y-8685482D02*
X10692810Y-8690244D01*
X10692810Y-8690244D02*
X10697571Y-8695006D01*
X10697571Y-8695006D02*
X10702333Y-8704530D01*
X10702333Y-8704530D02*
X10702333Y-8709291D01*
X10702333Y-8709291D02*
X10697571Y-8718815D01*
X10697571Y-8718815D02*
X10692810Y-8723577D01*
X10692810Y-8723577D02*
X10683286Y-8728339D01*
X10683286Y-8728339D02*
X10664238Y-8728339D01*
X10664238Y-8728339D02*
X10654714Y-8733101D01*
X10654714Y-8733101D02*
X10649952Y-8737863D01*
X10649952Y-8737863D02*
X10645191Y-8747387D01*
X10645191Y-8747387D02*
X10645191Y-8766434D01*
X10645191Y-8766434D02*
X10649952Y-8775958D01*
X10649952Y-8775958D02*
X10654714Y-8780720D01*
X10654714Y-8780720D02*
X10664238Y-8785482D01*
X10664238Y-8785482D02*
X10683286Y-8785482D01*
X10683286Y-8785482D02*
X10692810Y-8780720D01*
X10692810Y-8780720D02*
X10697571Y-8775958D01*
X10697571Y-8775958D02*
X10702333Y-8766434D01*
X10702333Y-8766434D02*
X10702333Y-8747387D01*
X10702333Y-8747387D02*
X10697571Y-8737863D01*
X10697571Y-8737863D02*
X10692810Y-8733101D01*
X10692810Y-8733101D02*
X10683286Y-8728339D01*
X15661482Y-6785536D02*
X15613863Y-6818869D01*
X15661482Y-6842678D02*
X15561482Y-6842678D01*
X15561482Y-6842678D02*
X15561482Y-6804583D01*
X15561482Y-6804583D02*
X15566244Y-6795059D01*
X15566244Y-6795059D02*
X15571006Y-6790298D01*
X15571006Y-6790298D02*
X15580529Y-6785536D01*
X15580529Y-6785536D02*
X15594815Y-6785536D01*
X15594815Y-6785536D02*
X15604339Y-6790298D01*
X15604339Y-6790298D02*
X15609101Y-6795059D01*
X15609101Y-6795059D02*
X15613863Y-6804583D01*
X15613863Y-6804583D02*
X15613863Y-6842678D01*
X15571006Y-6747440D02*
X15566244Y-6742678D01*
X15566244Y-6742678D02*
X15561482Y-6733155D01*
X15561482Y-6733155D02*
X15561482Y-6709345D01*
X15561482Y-6709345D02*
X15566244Y-6699821D01*
X15566244Y-6699821D02*
X15571006Y-6695059D01*
X15571006Y-6695059D02*
X15580529Y-6690298D01*
X15580529Y-6690298D02*
X15590053Y-6690298D01*
X15590053Y-6690298D02*
X15604339Y-6695059D01*
X15604339Y-6695059D02*
X15661482Y-6752202D01*
X15661482Y-6752202D02*
X15661482Y-6690298D01*
X15561482Y-6604583D02*
X15561482Y-6623631D01*
X15561482Y-6623631D02*
X15566244Y-6633155D01*
X15566244Y-6633155D02*
X15571006Y-6637917D01*
X15571006Y-6637917D02*
X15585291Y-6647440D01*
X15585291Y-6647440D02*
X15604339Y-6652202D01*
X15604339Y-6652202D02*
X15642434Y-6652202D01*
X15642434Y-6652202D02*
X15651958Y-6647440D01*
X15651958Y-6647440D02*
X15656720Y-6642678D01*
X15656720Y-6642678D02*
X15661482Y-6633155D01*
X15661482Y-6633155D02*
X15661482Y-6614107D01*
X15661482Y-6614107D02*
X15656720Y-6604583D01*
X15656720Y-6604583D02*
X15651958Y-6599821D01*
X15651958Y-6599821D02*
X15642434Y-6595059D01*
X15642434Y-6595059D02*
X15618625Y-6595059D01*
X15618625Y-6595059D02*
X15609101Y-6599821D01*
X15609101Y-6599821D02*
X15604339Y-6604583D01*
X15604339Y-6604583D02*
X15599577Y-6614107D01*
X15599577Y-6614107D02*
X15599577Y-6633155D01*
X15599577Y-6633155D02*
X15604339Y-6642678D01*
X15604339Y-6642678D02*
X15609101Y-6647440D01*
X15609101Y-6647440D02*
X15618625Y-6652202D01*
X20635667Y-8780720D02*
X20649952Y-8785482D01*
X20649952Y-8785482D02*
X20673762Y-8785482D01*
X20673762Y-8785482D02*
X20683286Y-8780720D01*
X20683286Y-8780720D02*
X20688048Y-8775958D01*
X20688048Y-8775958D02*
X20692810Y-8766434D01*
X20692810Y-8766434D02*
X20692810Y-8756910D01*
X20692810Y-8756910D02*
X20688048Y-8747387D01*
X20688048Y-8747387D02*
X20683286Y-8742625D01*
X20683286Y-8742625D02*
X20673762Y-8737863D01*
X20673762Y-8737863D02*
X20654714Y-8733101D01*
X20654714Y-8733101D02*
X20645191Y-8728339D01*
X20645191Y-8728339D02*
X20640429Y-8723577D01*
X20640429Y-8723577D02*
X20635667Y-8714053D01*
X20635667Y-8714053D02*
X20635667Y-8704530D01*
X20635667Y-8704530D02*
X20640429Y-8695006D01*
X20640429Y-8695006D02*
X20645191Y-8690244D01*
X20645191Y-8690244D02*
X20654714Y-8685482D01*
X20654714Y-8685482D02*
X20678524Y-8685482D01*
X20678524Y-8685482D02*
X20692810Y-8690244D01*
X20726143Y-8685482D02*
X20749952Y-8785482D01*
X20749952Y-8785482D02*
X20769000Y-8714053D01*
X20769000Y-8714053D02*
X20788048Y-8785482D01*
X20788048Y-8785482D02*
X20811857Y-8685482D01*
X20845191Y-8695006D02*
X20849952Y-8690244D01*
X20849952Y-8690244D02*
X20859476Y-8685482D01*
X20859476Y-8685482D02*
X20883286Y-8685482D01*
X20883286Y-8685482D02*
X20892810Y-8690244D01*
X20892810Y-8690244D02*
X20897571Y-8695006D01*
X20897571Y-8695006D02*
X20902333Y-8704530D01*
X20902333Y-8704530D02*
X20902333Y-8714053D01*
X20902333Y-8714053D02*
X20897571Y-8728339D01*
X20897571Y-8728339D02*
X20840429Y-8785482D01*
X20840429Y-8785482D02*
X20902333Y-8785482D01*
X18804714Y-7292482D02*
X18771381Y-7244863D01*
X18747571Y-7292482D02*
X18747571Y-7192482D01*
X18747571Y-7192482D02*
X18785667Y-7192482D01*
X18785667Y-7192482D02*
X18795190Y-7197244D01*
X18795190Y-7197244D02*
X18799952Y-7202006D01*
X18799952Y-7202006D02*
X18804714Y-7211529D01*
X18804714Y-7211529D02*
X18804714Y-7225815D01*
X18804714Y-7225815D02*
X18799952Y-7235339D01*
X18799952Y-7235339D02*
X18795190Y-7240101D01*
X18795190Y-7240101D02*
X18785667Y-7244863D01*
X18785667Y-7244863D02*
X18747571Y-7244863D01*
X18899952Y-7292482D02*
X18842810Y-7292482D01*
X18871381Y-7292482D02*
X18871381Y-7192482D01*
X18871381Y-7192482D02*
X18861857Y-7206768D01*
X18861857Y-7206768D02*
X18852333Y-7216291D01*
X18852333Y-7216291D02*
X18842810Y-7221053D01*
X18933286Y-7192482D02*
X18995190Y-7192482D01*
X18995190Y-7192482D02*
X18961857Y-7230577D01*
X18961857Y-7230577D02*
X18976143Y-7230577D01*
X18976143Y-7230577D02*
X18985667Y-7235339D01*
X18985667Y-7235339D02*
X18990429Y-7240101D01*
X18990429Y-7240101D02*
X18995190Y-7249625D01*
X18995190Y-7249625D02*
X18995190Y-7273434D01*
X18995190Y-7273434D02*
X18990429Y-7282958D01*
X18990429Y-7282958D02*
X18985667Y-7287720D01*
X18985667Y-7287720D02*
X18976143Y-7292482D01*
X18976143Y-7292482D02*
X18947571Y-7292482D01*
X18947571Y-7292482D02*
X18938048Y-7287720D01*
X18938048Y-7287720D02*
X18933286Y-7282958D01*
X17011458Y-9099536D02*
X17016220Y-9104298D01*
X17016220Y-9104298D02*
X17020982Y-9118583D01*
X17020982Y-9118583D02*
X17020982Y-9128107D01*
X17020982Y-9128107D02*
X17016220Y-9142393D01*
X17016220Y-9142393D02*
X17006696Y-9151917D01*
X17006696Y-9151917D02*
X16997172Y-9156679D01*
X16997172Y-9156679D02*
X16978125Y-9161440D01*
X16978125Y-9161440D02*
X16963839Y-9161440D01*
X16963839Y-9161440D02*
X16944791Y-9156679D01*
X16944791Y-9156679D02*
X16935268Y-9151917D01*
X16935268Y-9151917D02*
X16925744Y-9142393D01*
X16925744Y-9142393D02*
X16920982Y-9128107D01*
X16920982Y-9128107D02*
X16920982Y-9118583D01*
X16920982Y-9118583D02*
X16925744Y-9104298D01*
X16925744Y-9104298D02*
X16930506Y-9099536D01*
X17020982Y-9004298D02*
X17020982Y-9061440D01*
X17020982Y-9032869D02*
X16920982Y-9032869D01*
X16920982Y-9032869D02*
X16935268Y-9042393D01*
X16935268Y-9042393D02*
X16944791Y-9051917D01*
X16944791Y-9051917D02*
X16949553Y-9061440D01*
X16920982Y-8942393D02*
X16920982Y-8932869D01*
X16920982Y-8932869D02*
X16925744Y-8923345D01*
X16925744Y-8923345D02*
X16930506Y-8918583D01*
X16930506Y-8918583D02*
X16940030Y-8913821D01*
X16940030Y-8913821D02*
X16959077Y-8909060D01*
X16959077Y-8909060D02*
X16982887Y-8909060D01*
X16982887Y-8909060D02*
X17001934Y-8913821D01*
X17001934Y-8913821D02*
X17011458Y-8918583D01*
X17011458Y-8918583D02*
X17016220Y-8923345D01*
X17016220Y-8923345D02*
X17020982Y-8932869D01*
X17020982Y-8932869D02*
X17020982Y-8942393D01*
X17020982Y-8942393D02*
X17016220Y-8951917D01*
X17016220Y-8951917D02*
X17011458Y-8956679D01*
X17011458Y-8956679D02*
X17001934Y-8961440D01*
X17001934Y-8961440D02*
X16982887Y-8966202D01*
X16982887Y-8966202D02*
X16959077Y-8966202D01*
X16959077Y-8966202D02*
X16940030Y-8961440D01*
X16940030Y-8961440D02*
X16930506Y-8956679D01*
X16930506Y-8956679D02*
X16925744Y-8951917D01*
X16925744Y-8951917D02*
X16920982Y-8942393D01*
X12145190Y-6492482D02*
X12145190Y-6392482D01*
X12145190Y-6392482D02*
X12169000Y-6392482D01*
X12169000Y-6392482D02*
X12183286Y-6397244D01*
X12183286Y-6397244D02*
X12192809Y-6406768D01*
X12192809Y-6406768D02*
X12197571Y-6416291D01*
X12197571Y-6416291D02*
X12202333Y-6435339D01*
X12202333Y-6435339D02*
X12202333Y-6449625D01*
X12202333Y-6449625D02*
X12197571Y-6468672D01*
X12197571Y-6468672D02*
X12192809Y-6478196D01*
X12192809Y-6478196D02*
X12183286Y-6487720D01*
X12183286Y-6487720D02*
X12169000Y-6492482D01*
X12169000Y-6492482D02*
X12145190Y-6492482D01*
X12288048Y-6392482D02*
X12269000Y-6392482D01*
X12269000Y-6392482D02*
X12259476Y-6397244D01*
X12259476Y-6397244D02*
X12254714Y-6402006D01*
X12254714Y-6402006D02*
X12245190Y-6416291D01*
X12245190Y-6416291D02*
X12240429Y-6435339D01*
X12240429Y-6435339D02*
X12240429Y-6473434D01*
X12240429Y-6473434D02*
X12245190Y-6482958D01*
X12245190Y-6482958D02*
X12249952Y-6487720D01*
X12249952Y-6487720D02*
X12259476Y-6492482D01*
X12259476Y-6492482D02*
X12278524Y-6492482D01*
X12278524Y-6492482D02*
X12288048Y-6487720D01*
X12288048Y-6487720D02*
X12292809Y-6482958D01*
X12292809Y-6482958D02*
X12297571Y-6473434D01*
X12297571Y-6473434D02*
X12297571Y-6449625D01*
X12297571Y-6449625D02*
X12292809Y-6440101D01*
X12292809Y-6440101D02*
X12288048Y-6435339D01*
X12288048Y-6435339D02*
X12278524Y-6430577D01*
X12278524Y-6430577D02*
X12259476Y-6430577D01*
X12259476Y-6430577D02*
X12249952Y-6435339D01*
X12249952Y-6435339D02*
X12245190Y-6440101D01*
X12245190Y-6440101D02*
X12240429Y-6449625D01*
X16861482Y-6785536D02*
X16813863Y-6818869D01*
X16861482Y-6842678D02*
X16761482Y-6842678D01*
X16761482Y-6842678D02*
X16761482Y-6804583D01*
X16761482Y-6804583D02*
X16766244Y-6795059D01*
X16766244Y-6795059D02*
X16771006Y-6790298D01*
X16771006Y-6790298D02*
X16780530Y-6785536D01*
X16780530Y-6785536D02*
X16794815Y-6785536D01*
X16794815Y-6785536D02*
X16804339Y-6790298D01*
X16804339Y-6790298D02*
X16809101Y-6795059D01*
X16809101Y-6795059D02*
X16813863Y-6804583D01*
X16813863Y-6804583D02*
X16813863Y-6842678D01*
X16761482Y-6752202D02*
X16761482Y-6690298D01*
X16761482Y-6690298D02*
X16799577Y-6723631D01*
X16799577Y-6723631D02*
X16799577Y-6709345D01*
X16799577Y-6709345D02*
X16804339Y-6699821D01*
X16804339Y-6699821D02*
X16809101Y-6695059D01*
X16809101Y-6695059D02*
X16818625Y-6690298D01*
X16818625Y-6690298D02*
X16842434Y-6690298D01*
X16842434Y-6690298D02*
X16851958Y-6695059D01*
X16851958Y-6695059D02*
X16856720Y-6699821D01*
X16856720Y-6699821D02*
X16861482Y-6709345D01*
X16861482Y-6709345D02*
X16861482Y-6737917D01*
X16861482Y-6737917D02*
X16856720Y-6747440D01*
X16856720Y-6747440D02*
X16851958Y-6752202D01*
X16794815Y-6604583D02*
X16861482Y-6604583D01*
X16756720Y-6628393D02*
X16828149Y-6652202D01*
X16828149Y-6652202D02*
X16828149Y-6590298D01*
D13*
X16780000Y-6904000D02*
X16633000Y-6904000D01*
X16633000Y-6904000D02*
X16633000Y-7150000D01*
X16780000Y-7150000D02*
X16780000Y-6904000D01*
X17729000Y-8036500D02*
X17729000Y-8183500D01*
X17729000Y-8183500D02*
X17975000Y-8183500D01*
X17975000Y-8036500D02*
X17729000Y-8036500D01*
X15655000Y-6906500D02*
X15508000Y-6906500D01*
X15508000Y-6906500D02*
X15508000Y-7152500D01*
X15655000Y-7152500D02*
X15655000Y-6906500D01*
X17869528Y-7905350D02*
X17920472Y-7905350D01*
X17869528Y-8009850D02*
X17920472Y-8009850D01*
X12401000Y-8451000D02*
X12401000Y-8266000D01*
X12336000Y-8266000D02*
X12401000Y-8266000D01*
X12336000Y-8266000D02*
X12336000Y-7714000D01*
X12475100Y-8266000D02*
X12602000Y-8266000D01*
X12602000Y-8266000D02*
X12602000Y-7714000D01*
X12336000Y-7714000D02*
X12462900Y-7714000D01*
X12475100Y-7714000D02*
X12602000Y-7714000D01*
X16940000Y-6904000D02*
X16793000Y-6904000D01*
X16793000Y-6904000D02*
X16793000Y-7150000D01*
X16940000Y-7150000D02*
X16940000Y-6904000D01*
X16756750Y-6746722D02*
X16756750Y-6695778D01*
X16861250Y-6746722D02*
X16861250Y-6695778D01*
X16300000Y-6904000D02*
X16153000Y-6904000D01*
X16153000Y-6904000D02*
X16153000Y-7150000D01*
X16300000Y-7150000D02*
X16300000Y-6904000D01*
X15075472Y-8102250D02*
X15024528Y-8102250D01*
X15075472Y-7997750D02*
X15024528Y-7997750D01*
X11353000Y-6516500D02*
X11353000Y-6663500D01*
X11353000Y-6663500D02*
X11599000Y-6663500D01*
X11599000Y-6516500D02*
X11353000Y-6516500D01*
X16963873Y-8509000D02*
X16993127Y-8509000D01*
X16963873Y-8611000D02*
X16993127Y-8611000D01*
X16006750Y-6746722D02*
X16006750Y-6695778D01*
X16111250Y-6746722D02*
X16111250Y-6695778D01*
X15406750Y-6746722D02*
X15406750Y-6695778D01*
X15511250Y-6746722D02*
X15511250Y-6695778D01*
X15553750Y-6746722D02*
X15553750Y-6695778D01*
X15658250Y-6746722D02*
X15658250Y-6695778D01*
X16606750Y-6746722D02*
X16606750Y-6695778D01*
X16711250Y-6746722D02*
X16711250Y-6695778D01*
X8745270Y-9897250D02*
X8694325Y-9897250D01*
X8745270Y-9792750D02*
X8694325Y-9792750D01*
X9004000Y-7515000D02*
X9634000Y-7515000D01*
X9004000Y-7540000D02*
X9004000Y-7515000D01*
X9004000Y-7990000D02*
X9004000Y-7730000D01*
X9004000Y-8205000D02*
X9004000Y-8180000D01*
X9634000Y-7515000D02*
X9634000Y-7540000D01*
X9634000Y-7730000D02*
X9634000Y-7990000D01*
X9634000Y-8180000D02*
X9634000Y-8205000D01*
X9634000Y-8205000D02*
X9004000Y-8205000D01*
X12275000Y-9045000D02*
X12905000Y-9045000D01*
X12275000Y-9070000D02*
X12275000Y-9045000D01*
X12275000Y-9520000D02*
X12275000Y-9260000D01*
X12275000Y-9735000D02*
X12275000Y-9710000D01*
X12905000Y-9045000D02*
X12905000Y-9070000D01*
X12905000Y-9260000D02*
X12905000Y-9520000D01*
X12905000Y-9710000D02*
X12905000Y-9735000D01*
X12905000Y-9735000D02*
X12275000Y-9735000D01*
X14924528Y-8147750D02*
X14975472Y-8147750D01*
X14924528Y-8252250D02*
X14975472Y-8252250D01*
X19344400Y-7191200D02*
X19344400Y-7066200D01*
X19315400Y-7162200D02*
X19315400Y-6565200D01*
X19315400Y-6565200D02*
X18303400Y-6565200D01*
X19314400Y-7161200D02*
X19314400Y-7086200D01*
X19314400Y-7086200D02*
X19134400Y-7086200D01*
X19314400Y-6936200D02*
X19239400Y-6936200D01*
X19239400Y-6936200D02*
X19239400Y-6641200D01*
X19239400Y-6641200D02*
X18809400Y-6641200D01*
X19219400Y-7191200D02*
X19344400Y-7191200D01*
X19134400Y-7161200D02*
X19314400Y-7161200D01*
X19134400Y-7086200D02*
X19134400Y-7161200D01*
X18984400Y-7161200D02*
X18984400Y-7086200D01*
X18984400Y-7086200D02*
X18634400Y-7086200D01*
X18634400Y-7161200D02*
X18984400Y-7161200D01*
X18634400Y-7086200D02*
X18634400Y-7161200D01*
X18484400Y-7161200D02*
X18484400Y-7086200D01*
X18484400Y-7086200D02*
X18304400Y-7086200D01*
X18379400Y-6936200D02*
X18379400Y-6641200D01*
X18379400Y-6641200D02*
X18809400Y-6641200D01*
X18304400Y-7161200D02*
X18484400Y-7161200D01*
X18304400Y-7086200D02*
X18304400Y-7161200D01*
X18304400Y-6936200D02*
X18379400Y-6936200D01*
X18303400Y-7162200D02*
X19315400Y-7162200D01*
X18303400Y-6565200D02*
X18303400Y-7162200D01*
X16156750Y-6746722D02*
X16156750Y-6695778D01*
X16261250Y-6746722D02*
X16261250Y-6695778D01*
X13508000Y-10751000D02*
X13538000Y-10751000D01*
X13538000Y-10751000D02*
X13538000Y-10882500D01*
X14230000Y-10751000D02*
X14200000Y-10751000D01*
X13508000Y-10721000D02*
X13508000Y-10751000D01*
X14230000Y-10721000D02*
X14230000Y-10751000D01*
X13508000Y-10059000D02*
X13508000Y-10029000D01*
X14230000Y-10059000D02*
X14230000Y-10029000D01*
X13508000Y-10029000D02*
X13538000Y-10029000D01*
X14230000Y-10029000D02*
X14200000Y-10029000D01*
X15494900Y-6906500D02*
X15347900Y-6906500D01*
X15347900Y-6906500D02*
X15347900Y-7152500D01*
X15494900Y-7152500D02*
X15494900Y-6906500D01*
X17304000Y-6595000D02*
X17934000Y-6595000D01*
X17304000Y-6620000D02*
X17304000Y-6595000D01*
X17304000Y-7070000D02*
X17304000Y-6810000D01*
X17304000Y-7285000D02*
X17304000Y-7260000D01*
X17934000Y-6595000D02*
X17934000Y-6620000D01*
X17934000Y-6810000D02*
X17934000Y-7070000D01*
X17934000Y-7260000D02*
X17934000Y-7285000D01*
X17934000Y-7285000D02*
X17304000Y-7285000D01*
X17561250Y-11698278D02*
X17561250Y-11749222D01*
X17456750Y-11698278D02*
X17456750Y-11749222D01*
X7754000Y-8845000D02*
X8384000Y-8845000D01*
X7754000Y-8870000D02*
X7754000Y-8845000D01*
X7754000Y-9320000D02*
X7754000Y-9060000D01*
X7754000Y-9535000D02*
X7754000Y-9510000D01*
X8384000Y-8845000D02*
X8384000Y-8870000D01*
X8384000Y-9060000D02*
X8384000Y-9320000D01*
X8384000Y-9510000D02*
X8384000Y-9535000D01*
X8384000Y-9535000D02*
X7754000Y-9535000D01*
X10429000Y-7167500D02*
X10429000Y-7042500D01*
X10400000Y-7138500D02*
X10400000Y-6541500D01*
X10400000Y-6541500D02*
X9388000Y-6541500D01*
X10399000Y-7137500D02*
X10399000Y-7062500D01*
X10399000Y-7062500D02*
X10219000Y-7062500D01*
X10399000Y-6912500D02*
X10324000Y-6912500D01*
X10324000Y-6912500D02*
X10324000Y-6617500D01*
X10324000Y-6617500D02*
X9894000Y-6617500D01*
X10304000Y-7167500D02*
X10429000Y-7167500D01*
X10219000Y-7137500D02*
X10399000Y-7137500D01*
X10219000Y-7062500D02*
X10219000Y-7137500D01*
X10069000Y-7137500D02*
X10069000Y-7062500D01*
X10069000Y-7062500D02*
X9719000Y-7062500D01*
X9719000Y-7137500D02*
X10069000Y-7137500D01*
X9719000Y-7062500D02*
X9719000Y-7137500D01*
X9569000Y-7137500D02*
X9569000Y-7062500D01*
X9569000Y-7062500D02*
X9389000Y-7062500D01*
X9464000Y-6912500D02*
X9464000Y-6617500D01*
X9464000Y-6617500D02*
X9894000Y-6617500D01*
X9389000Y-7137500D02*
X9569000Y-7137500D01*
X9389000Y-7062500D02*
X9389000Y-7137500D01*
X9389000Y-6912500D02*
X9464000Y-6912500D01*
X9388000Y-7138500D02*
X10400000Y-7138500D01*
X9388000Y-6541500D02*
X9388000Y-7138500D01*
X15256750Y-6746722D02*
X15256750Y-6695778D01*
X15361250Y-6746722D02*
X15361250Y-6695778D01*
X15815000Y-6906500D02*
X15668000Y-6906500D01*
X15668000Y-6906500D02*
X15668000Y-7152500D01*
X15815000Y-7152500D02*
X15815000Y-6906500D01*
X17102500Y-6904000D02*
X16955500Y-6904000D01*
X16955500Y-6904000D02*
X16955500Y-7150000D01*
X17102500Y-7150000D02*
X17102500Y-6904000D01*
X17954000Y-8845000D02*
X18584000Y-8845000D01*
X17954000Y-8870000D02*
X17954000Y-8845000D01*
X17954000Y-9320000D02*
X17954000Y-9060000D01*
X17954000Y-9535000D02*
X17954000Y-9510000D01*
X18584000Y-8845000D02*
X18584000Y-8870000D01*
X18584000Y-9060000D02*
X18584000Y-9320000D01*
X18584000Y-9510000D02*
X18584000Y-9535000D01*
X18584000Y-9535000D02*
X17954000Y-9535000D01*
X15175472Y-7852250D02*
X15124528Y-7852250D01*
X15175472Y-7747750D02*
X15124528Y-7747750D01*
X16456750Y-6746722D02*
X16456750Y-6695778D01*
X16561250Y-6746722D02*
X16561250Y-6695778D01*
X16306750Y-6746722D02*
X16306750Y-6695778D01*
X16411250Y-6746722D02*
X16411250Y-6695778D01*
X16620000Y-6904000D02*
X16473000Y-6904000D01*
X16473000Y-6904000D02*
X16473000Y-7150000D01*
X16620000Y-7150000D02*
X16620000Y-6904000D01*
X15654000Y-9045000D02*
X16284000Y-9045000D01*
X15654000Y-9070000D02*
X15654000Y-9045000D01*
X15654000Y-9520000D02*
X15654000Y-9260000D01*
X15654000Y-9735000D02*
X15654000Y-9710000D01*
X16284000Y-9045000D02*
X16284000Y-9070000D01*
X16284000Y-9260000D02*
X16284000Y-9520000D01*
X16284000Y-9710000D02*
X16284000Y-9735000D01*
X16284000Y-9735000D02*
X15654000Y-9735000D01*
X11473750Y-6814528D02*
X11473750Y-6865472D01*
X11369250Y-6814528D02*
X11369250Y-6865472D01*
X14456000Y-6563000D02*
X14589000Y-6563000D01*
X14456000Y-6696000D02*
X14456000Y-6563000D01*
X14456000Y-6823000D02*
X14456000Y-7591000D01*
X14456000Y-6823000D02*
X14716000Y-6823000D01*
X14456000Y-7591000D02*
X14976000Y-7591000D01*
X14716000Y-6563000D02*
X14976000Y-6563000D01*
X14716000Y-6823000D02*
X14716000Y-6563000D01*
X14976000Y-6563000D02*
X14976000Y-7591000D01*
X13450200Y-10914773D02*
X13450200Y-10944027D01*
X13348200Y-10914773D02*
X13348200Y-10944027D01*
X11703000Y-6516500D02*
X11703000Y-6663500D01*
X11703000Y-6663500D02*
X11949000Y-6663500D01*
X11949000Y-6516500D02*
X11703000Y-6516500D01*
X12528528Y-8507750D02*
X12579472Y-8507750D01*
X12528528Y-8612250D02*
X12579472Y-8612250D01*
X9045171Y-9794000D02*
X9074424Y-9794000D01*
X9045171Y-9896000D02*
X9074424Y-9896000D01*
X9004000Y-10015000D02*
X9634000Y-10015000D01*
X9004000Y-10040000D02*
X9004000Y-10015000D01*
X9004000Y-10490000D02*
X9004000Y-10230000D01*
X9004000Y-10705000D02*
X9004000Y-10680000D01*
X9634000Y-10015000D02*
X9634000Y-10040000D01*
X9634000Y-10230000D02*
X9634000Y-10490000D01*
X9634000Y-10680000D02*
X9634000Y-10705000D01*
X9634000Y-10705000D02*
X9004000Y-10705000D01*
X14390000Y-9822573D02*
X14390000Y-9851827D01*
X14288000Y-9822573D02*
X14288000Y-9851827D01*
X16138500Y-6905250D02*
X15991500Y-6905250D01*
X15991500Y-6905250D02*
X15991500Y-7151250D01*
X16138500Y-7151250D02*
X16138500Y-6905250D01*
X12181250Y-6807028D02*
X12181250Y-6857972D01*
X12076750Y-6807028D02*
X12076750Y-6857972D01*
X14542400Y-9822573D02*
X14542400Y-9851827D01*
X14440400Y-9822573D02*
X14440400Y-9851827D01*
X19204000Y-7595000D02*
X19834000Y-7595000D01*
X19204000Y-7620000D02*
X19204000Y-7595000D01*
X19204000Y-8070000D02*
X19204000Y-7810000D01*
X19204000Y-8285000D02*
X19204000Y-8260000D01*
X19834000Y-7595000D02*
X19834000Y-7620000D01*
X19834000Y-7810000D02*
X19834000Y-8070000D01*
X19834000Y-8260000D02*
X19834000Y-8285000D01*
X19834000Y-8285000D02*
X19204000Y-8285000D01*
X16460000Y-6904000D02*
X16313000Y-6904000D01*
X16313000Y-6904000D02*
X16313000Y-7150000D01*
X16460000Y-7150000D02*
X16460000Y-6904000D01*
X11123750Y-6812028D02*
X11123750Y-6862972D01*
X11019250Y-6812028D02*
X11019250Y-6862972D01*
X10443528Y-7387750D02*
X10494472Y-7387750D01*
X10443528Y-7492250D02*
X10494472Y-7492250D01*
X11826250Y-6812028D02*
X11826250Y-6862972D01*
X11721750Y-6812028D02*
X11721750Y-6862972D01*
X11003000Y-6516500D02*
X11003000Y-6663500D01*
X11003000Y-6663500D02*
X11249000Y-6663500D01*
X11249000Y-6516500D02*
X11003000Y-6516500D01*
X16818000Y-8451000D02*
X16818000Y-8266000D01*
X16753000Y-8266000D02*
X16818000Y-8266000D01*
X16753000Y-8266000D02*
X16753000Y-7714000D01*
X16892100Y-8266000D02*
X17019000Y-8266000D01*
X17019000Y-8266000D02*
X17019000Y-7714000D01*
X16753000Y-7714000D02*
X16879900Y-7714000D01*
X16892100Y-7714000D02*
X17019000Y-7714000D01*
X17869000Y-7529000D02*
X17576500Y-7529000D01*
X17869000Y-7529000D02*
X18019000Y-7529000D01*
X17869000Y-7851000D02*
X17719000Y-7851000D01*
X17869000Y-7851000D02*
X18019000Y-7851000D01*
X20114829Y-9896000D02*
X20085576Y-9896000D01*
X20114829Y-9794000D02*
X20085576Y-9794000D01*
X15975000Y-6906500D02*
X15828000Y-6906500D01*
X15828000Y-6906500D02*
X15828000Y-7152500D01*
X15975000Y-7152500D02*
X15975000Y-6906500D01*
X20424730Y-9792750D02*
X20475675Y-9792750D01*
X20424730Y-9897250D02*
X20475675Y-9897250D01*
X17760000Y-11709123D02*
X17760000Y-11738377D01*
X17658000Y-11709123D02*
X17658000Y-11738377D01*
X15772500Y-10940000D02*
X15905000Y-10940000D01*
X15905000Y-10933500D02*
X15905000Y-10940000D01*
X15905000Y-10933500D02*
X16258000Y-10933500D01*
X15905000Y-11828000D02*
X15905000Y-11834500D01*
X15905000Y-11834500D02*
X16258000Y-11834500D01*
X16258000Y-10933500D02*
X16258000Y-10940000D01*
X16258000Y-11828000D02*
X16258000Y-11834500D01*
X17525000Y-7965373D02*
X17525000Y-7994627D01*
X17423000Y-7965373D02*
X17423000Y-7994627D01*
X15646400Y-8112400D02*
X15673900Y-8112400D01*
X15673900Y-8112400D02*
X15673900Y-8241400D01*
X16638400Y-8112400D02*
X16610900Y-8112400D01*
X15646400Y-7881400D02*
X15646400Y-8112400D01*
X15646400Y-7881400D02*
X15646400Y-7650400D01*
X16638400Y-7881400D02*
X16638400Y-8112400D01*
X16638400Y-7881400D02*
X16638400Y-7650400D01*
X15646400Y-7650400D02*
X15673900Y-7650400D01*
X16638400Y-7650400D02*
X16610900Y-7650400D01*
X15335000Y-6906500D02*
X15188000Y-6906500D01*
X15188000Y-6906500D02*
X15188000Y-7152500D01*
X15335000Y-7152500D02*
X15335000Y-6906500D01*
X15856750Y-6746722D02*
X15856750Y-6695778D01*
X15961250Y-6746722D02*
X15961250Y-6695778D01*
X19204000Y-10095000D02*
X19834000Y-10095000D01*
X19204000Y-10120000D02*
X19204000Y-10095000D01*
X19204000Y-10570000D02*
X19204000Y-10310000D01*
X19204000Y-10785000D02*
X19204000Y-10760000D01*
X19834000Y-10095000D02*
X19834000Y-10120000D01*
X19834000Y-10310000D02*
X19834000Y-10570000D01*
X19834000Y-10760000D02*
X19834000Y-10785000D01*
X19834000Y-10785000D02*
X19204000Y-10785000D01*
X17761250Y-11344528D02*
X17761250Y-11395472D01*
X17656750Y-11344528D02*
X17656750Y-11395472D01*
X10254000Y-8845000D02*
X10884000Y-8845000D01*
X10254000Y-8870000D02*
X10254000Y-8845000D01*
X10254000Y-9320000D02*
X10254000Y-9060000D01*
X10254000Y-9535000D02*
X10254000Y-9510000D01*
X10884000Y-8845000D02*
X10884000Y-8870000D01*
X10884000Y-9060000D02*
X10884000Y-9320000D01*
X10884000Y-9510000D02*
X10884000Y-9535000D01*
X10884000Y-9535000D02*
X10254000Y-9535000D01*
X15706750Y-6746722D02*
X15706750Y-6695778D01*
X15811250Y-6746722D02*
X15811250Y-6695778D01*
X20454000Y-8845000D02*
X21084000Y-8845000D01*
X20454000Y-8870000D02*
X20454000Y-8845000D01*
X20454000Y-9320000D02*
X20454000Y-9060000D01*
X20454000Y-9535000D02*
X20454000Y-9510000D01*
X21084000Y-8845000D02*
X21084000Y-8870000D01*
X21084000Y-9060000D02*
X21084000Y-9320000D01*
X21084000Y-9510000D02*
X21084000Y-9535000D01*
X21084000Y-9535000D02*
X20454000Y-9535000D01*
X18843528Y-7337750D02*
X18894472Y-7337750D01*
X18843528Y-7442250D02*
X18894472Y-7442250D01*
X17319500Y-9023623D02*
X17319500Y-9052877D01*
X17217500Y-9023623D02*
X17217500Y-9052877D01*
X12053000Y-6516500D02*
X12053000Y-6663500D01*
X12053000Y-6663500D02*
X12299000Y-6663500D01*
X12299000Y-6516500D02*
X12053000Y-6516500D01*
X16906750Y-6746722D02*
X16906750Y-6695778D01*
X17011250Y-6746722D02*
X17011250Y-6695778D01*
%LPC*%
D14*
X16706500Y-6982500D03*
X16706500Y-7157500D03*
D15*
X17807500Y-8110000D03*
X17982500Y-8110000D03*
D14*
X15581500Y-6985000D03*
X15581500Y-7160000D03*
D16*
X17803750Y-7957600D03*
X17986250Y-7957600D03*
D17*
X12469000Y-8371000D03*
X12469000Y-7609000D03*
D14*
X16866500Y-6982500D03*
X16866500Y-7157500D03*
D18*
X16809000Y-6812500D03*
X16809000Y-6630000D03*
D14*
X16226500Y-6982500D03*
X16226500Y-7157500D03*
D19*
X15141250Y-8050000D03*
X14958750Y-8050000D03*
D15*
X11431500Y-6590000D03*
X11606500Y-6590000D03*
D20*
X16892250Y-8560000D03*
X17064750Y-8560000D03*
D18*
X16059000Y-6812500D03*
X16059000Y-6630000D03*
D21*
X8169000Y-7190000D03*
D18*
X15459000Y-6812500D03*
X15459000Y-6630000D03*
D21*
X8169000Y-11390000D03*
D18*
X15606000Y-6812500D03*
X15606000Y-6630000D03*
X16659000Y-6812500D03*
X16659000Y-6630000D03*
D19*
X8811048Y-9845000D03*
X8628548Y-9845000D03*
D22*
X8921500Y-7635000D03*
X9716500Y-7635000D03*
X8921500Y-8085000D03*
X9716500Y-8085000D03*
X12192500Y-9165000D03*
X12987500Y-9165000D03*
X12192500Y-9615000D03*
X12987500Y-9615000D03*
D16*
X14858750Y-8200000D03*
X15041250Y-8200000D03*
D23*
X19059400Y-6916200D03*
D24*
X18809400Y-6916200D03*
X18559400Y-6916200D03*
D21*
X20669000Y-7190000D03*
D18*
X16209000Y-6812500D03*
X16209000Y-6630000D03*
D25*
X13589000Y-10807500D03*
X13669000Y-10807500D03*
X13749000Y-10807500D03*
X13829000Y-10807500D03*
X13909000Y-10807500D03*
X13989000Y-10807500D03*
X14069000Y-10807500D03*
X14149000Y-10807500D03*
D26*
X14286500Y-10670000D03*
X14286500Y-10590000D03*
X14286500Y-10510000D03*
X14286500Y-10430000D03*
X14286500Y-10350000D03*
X14286500Y-10270000D03*
X14286500Y-10190000D03*
X14286500Y-10110000D03*
D25*
X14149000Y-9972500D03*
X14069000Y-9972500D03*
X13989000Y-9972500D03*
X13909000Y-9972500D03*
X13829000Y-9972500D03*
X13749000Y-9972500D03*
X13669000Y-9972500D03*
X13589000Y-9972500D03*
D26*
X13451500Y-10110000D03*
X13451500Y-10190000D03*
X13451500Y-10270000D03*
X13451500Y-10350000D03*
X13451500Y-10430000D03*
X13451500Y-10510000D03*
X13451500Y-10590000D03*
X13451500Y-10670000D03*
D14*
X15421400Y-6985000D03*
X15421400Y-7160000D03*
D22*
X17221500Y-6715000D03*
X18016500Y-6715000D03*
X17221500Y-7165000D03*
X18016500Y-7165000D03*
D27*
X17509000Y-11632500D03*
X17509000Y-11815000D03*
D22*
X7671500Y-8965000D03*
X8466500Y-8965000D03*
X7671500Y-9415000D03*
X8466500Y-9415000D03*
D23*
X10144000Y-6892500D03*
D24*
X9894000Y-6892500D03*
X9644000Y-6892500D03*
D18*
X15309000Y-6812500D03*
X15309000Y-6630000D03*
D14*
X15741500Y-6985000D03*
X15741500Y-7160000D03*
X17029000Y-6982500D03*
X17029000Y-7157500D03*
D22*
X17871500Y-8965000D03*
X18666500Y-8965000D03*
X17871500Y-9415000D03*
X18666500Y-9415000D03*
D19*
X15241250Y-7800000D03*
X15058750Y-7800000D03*
D18*
X16509000Y-6812500D03*
X16509000Y-6630000D03*
X16359000Y-6812500D03*
X16359000Y-6630000D03*
D14*
X16546500Y-6982500D03*
X16546500Y-7157500D03*
D22*
X15571500Y-9165000D03*
X16366500Y-9165000D03*
X15571500Y-9615000D03*
X16366500Y-9615000D03*
D27*
X11421500Y-6748750D03*
X11421500Y-6931250D03*
D28*
X14589000Y-6696000D03*
D29*
X14843000Y-6696000D03*
X14589000Y-6950000D03*
X14843000Y-6950000D03*
X14589000Y-7204000D03*
X14843000Y-7204000D03*
X14589000Y-7458000D03*
X14843000Y-7458000D03*
D30*
X13399200Y-10843150D03*
X13399200Y-11015650D03*
D21*
X21669000Y-9190000D03*
D15*
X11781500Y-6590000D03*
X11956500Y-6590000D03*
D16*
X12462750Y-8560000D03*
X12645250Y-8560000D03*
D20*
X8973548Y-9845000D03*
X9146048Y-9845000D03*
D22*
X8921500Y-10135000D03*
X9716500Y-10135000D03*
X8921500Y-10585000D03*
X9716500Y-10585000D03*
D30*
X14339000Y-9750950D03*
X14339000Y-9923450D03*
D14*
X16065000Y-6983750D03*
X16065000Y-7158750D03*
D27*
X12129000Y-6741250D03*
X12129000Y-6923750D03*
D30*
X14491400Y-9750950D03*
X14491400Y-9923450D03*
D22*
X19121500Y-7715000D03*
X19916500Y-7715000D03*
X19121500Y-8165000D03*
X19916500Y-8165000D03*
D21*
X7169000Y-9190000D03*
D14*
X16386500Y-6982500D03*
X16386500Y-7157500D03*
D27*
X11071500Y-6746250D03*
X11071500Y-6928750D03*
D16*
X10377750Y-7440000D03*
X10560250Y-7440000D03*
D27*
X11774000Y-6746250D03*
X11774000Y-6928750D03*
D15*
X11081500Y-6590000D03*
X11256500Y-6590000D03*
D17*
X16886000Y-8371000D03*
X16886000Y-7609000D03*
D31*
X17657750Y-7592500D03*
X17657750Y-7657500D03*
X17657750Y-7722500D03*
X17657750Y-7787500D03*
X18080250Y-7787500D03*
X18080250Y-7722500D03*
X18080250Y-7657500D03*
X18080250Y-7592500D03*
D32*
X20186452Y-9845000D03*
X20013952Y-9845000D03*
D14*
X15901500Y-6985000D03*
X15901500Y-7160000D03*
D16*
X20358952Y-9845000D03*
X20541452Y-9845000D03*
D30*
X17709000Y-11637500D03*
X17709000Y-11810000D03*
D33*
X15886500Y-11003000D03*
X16276500Y-11003000D03*
X15886500Y-11130000D03*
X16276500Y-11130000D03*
X15886500Y-11257000D03*
X16276500Y-11257000D03*
X15886500Y-11384000D03*
X16276500Y-11384000D03*
X15886500Y-11511000D03*
X16276500Y-11511000D03*
X15886500Y-11638000D03*
X16276500Y-11638000D03*
X15886500Y-11765000D03*
X16276500Y-11765000D03*
D30*
X17474000Y-7893750D03*
X17474000Y-8066250D03*
D21*
X20669000Y-11390000D03*
D34*
X15719900Y-8167650D03*
X15784900Y-8167650D03*
X15849900Y-8167650D03*
X15914900Y-8167650D03*
X15979900Y-8167650D03*
X16044900Y-8167650D03*
X16109900Y-8167650D03*
X16174900Y-8167650D03*
X16239900Y-8167650D03*
X16304900Y-8167650D03*
X16369900Y-8167650D03*
X16434900Y-8167650D03*
X16499900Y-8167650D03*
X16564900Y-8167650D03*
X16564900Y-7595150D03*
X16499900Y-7595150D03*
X16434900Y-7595150D03*
X16369900Y-7595150D03*
X16304900Y-7595150D03*
X16239900Y-7595150D03*
X16174900Y-7595150D03*
X16109900Y-7595150D03*
X16044900Y-7595150D03*
X15979900Y-7595150D03*
X15914900Y-7595150D03*
X15849900Y-7595150D03*
X15784900Y-7595150D03*
X15719900Y-7595150D03*
D14*
X15261500Y-6985000D03*
X15261500Y-7160000D03*
D18*
X15909000Y-6812500D03*
X15909000Y-6630000D03*
D22*
X19121500Y-10215000D03*
X19916500Y-10215000D03*
X19121500Y-10665000D03*
X19916500Y-10665000D03*
D27*
X17709000Y-11278750D03*
X17709000Y-11461250D03*
D22*
X10171500Y-8965000D03*
X10966500Y-8965000D03*
X10171500Y-9415000D03*
X10966500Y-9415000D03*
D18*
X15759000Y-6812500D03*
X15759000Y-6630000D03*
D22*
X20371500Y-8965000D03*
X21166500Y-8965000D03*
X20371500Y-9415000D03*
X21166500Y-9415000D03*
D16*
X18777750Y-7390000D03*
X18960250Y-7390000D03*
D30*
X17268500Y-8952000D03*
X17268500Y-9124500D03*
D15*
X12131500Y-6590000D03*
X12306500Y-6590000D03*
D18*
X16959000Y-6812500D03*
X16959000Y-6630000D03*
D35*
X18096500Y-11330000D03*
D36*
X18096500Y-11580000D03*
%LPD*%
M02*
