%TF.GenerationSoftware,KiCad,Pcbnew,7.0.6-7.0.6~ubuntu20.04.1*%
%TF.CreationDate,2023-07-11T09:29:22+02:00*%
%TF.ProjectId,output_panel2023-07-11_072908.4244690000,6f757470-7574-45f7-9061-6e656c323032,rev?*%
%TF.SameCoordinates,Original*%
%TF.FileFunction,Legend,Bot*%
%TF.FilePolarity,Positive*%
%FSLAX45Y45*%
G04 Gerber Fmt 4.5, Leading zero omitted, Abs format (unit mm)*
G04 Created by KiCad (PCBNEW 7.0.6-7.0.6~ubuntu20.04.1) date 2023-07-11 09:29:22*
%MOMM*%
%LPD*%
G01*
G04 APERTURE LIST*
G04 Aperture macros list*
%AMRoundRect*
0 Rectangle with rounded corners*
0 $1 Rounding radius*
0 $2 $3 $4 $5 $6 $7 $8 $9 X,Y pos of 4 corners*
0 Add a 4 corners polygon primitive as box body*
4,1,4,$2,$3,$4,$5,$6,$7,$8,$9,$2,$3,0*
0 Add four circle primitives for the rounded corners*
1,1,$1+$1,$2,$3*
1,1,$1+$1,$4,$5*
1,1,$1+$1,$6,$7*
1,1,$1+$1,$8,$9*
0 Add four rect primitives between the rounded corners*
20,1,$1+$1,$2,$3,$4,$5,0*
20,1,$1+$1,$4,$5,$6,$7,0*
20,1,$1+$1,$6,$7,$8,$9,0*
20,1,$1+$1,$8,$9,$2,$3,0*%
G04 Aperture macros list end*
%TA.AperFunction,Profile*%
%ADD10C,0.100000*%
%TD*%
%TA.AperFunction,Profile*%
%ADD11C,0.050000*%
%TD*%
%ADD12C,0.150000*%
%ADD13C,0.120000*%
%ADD14C,5.600000*%
%ADD15RoundRect,0.250000X0.600000X0.725000X-0.600000X0.725000X-0.600000X-0.725000X0.600000X-0.725000X0*%
%ADD16O,1.700000X1.950000*%
%ADD17R,1.700000X1.700000*%
%ADD18O,1.700000X1.700000*%
%ADD19RoundRect,0.237500X-0.250000X-0.237500X0.250000X-0.237500X0.250000X0.237500X-0.250000X0.237500X0*%
%ADD20RoundRect,0.150000X-0.150000X0.587500X-0.150000X-0.587500X0.150000X-0.587500X0.150000X0.587500X0*%
%ADD21R,0.400000X1.000000*%
%ADD22RoundRect,0.237500X0.300000X0.237500X-0.300000X0.237500X-0.300000X-0.237500X0.300000X-0.237500X0*%
%ADD23RoundRect,0.237500X0.237500X-0.250000X0.237500X0.250000X-0.237500X0.250000X-0.237500X-0.250000X0*%
%ADD24RoundRect,0.250000X-0.750000X0.600000X-0.750000X-0.600000X0.750000X-0.600000X0.750000X0.600000X0*%
%ADD25O,2.000000X1.700000*%
%ADD26RoundRect,0.100000X-0.100000X0.712500X-0.100000X-0.712500X0.100000X-0.712500X0.100000X0.712500X0*%
%ADD27RoundRect,0.237500X0.250000X0.237500X-0.250000X0.237500X-0.250000X-0.237500X0.250000X-0.237500X0*%
%ADD28RoundRect,0.237500X-0.237500X0.300000X-0.237500X-0.300000X0.237500X-0.300000X0.237500X0.300000X0*%
%ADD29RoundRect,0.250000X-0.550000X1.250000X-0.550000X-1.250000X0.550000X-1.250000X0.550000X1.250000X0*%
G04 APERTURE END LIST*
D10*
X13299982Y-35019691D02*
X13299982Y-37619691D01*
D11*
X4549997Y-45067694D02*
X899996Y-45217694D01*
X99999Y-17969997D02*
X9399999Y-18069997D01*
D10*
X13299982Y-28019691D02*
X13299982Y-30619691D01*
D11*
X9149999Y-37169688D02*
X8249999Y-37069688D01*
D10*
X13299982Y-38519691D02*
X13299982Y-41119691D01*
X9899982Y-27619691D02*
X12899982Y-27619691D01*
D11*
X14123822Y-17870000D02*
G75*
G03*
X14123822Y-12070000I-1674316J2900000D01*
G01*
D10*
X12899982Y-34519692D02*
G75*
G03*
X13299982Y-34119691I-2J400002D01*
G01*
D11*
X49999Y-26819997D02*
X99999Y-17969997D01*
D10*
X16070000Y-1480000D02*
X16050000Y-4670000D01*
D11*
X1723822Y-12070000D02*
G75*
G03*
X1723822Y-17870000I1674316J-2900000D01*
G01*
D10*
X9499979Y-37619691D02*
G75*
G03*
X9899982Y-38019691I400001J1D01*
G01*
X1723822Y-6170000D02*
X14123822Y-6170000D01*
X1850000Y-50000D02*
X14270000Y-90000D01*
D11*
X49996Y-37467694D02*
X149997Y-45967694D01*
D10*
X9899982Y-34619691D02*
X12899982Y-34619691D01*
D11*
X899996Y-45217694D02*
X799996Y-37267694D01*
D10*
X9899982Y-38119692D02*
G75*
G03*
X9499982Y-38519691I-2J-399998D01*
G01*
D11*
X9399999Y-27719688D02*
X9149999Y-37169688D01*
D10*
X1850000Y-6070000D02*
X50000Y-4670000D01*
X13299979Y-38519691D02*
G75*
G03*
X12899982Y-38119691I-399999J1D01*
G01*
D11*
X499999Y-26619997D02*
X49999Y-26819997D01*
D10*
X14270000Y-90000D02*
X16070000Y-1480000D01*
X1723822Y-17870000D02*
X14123822Y-17870000D01*
X13299979Y-28019691D02*
G75*
G03*
X12899982Y-27619691I-399999J1D01*
G01*
X1723822Y-11970000D02*
X14123822Y-11970000D01*
X9899982Y-31119691D02*
X12899982Y-31119691D01*
D11*
X8499999Y-28569688D02*
X849999Y-28469688D01*
X849999Y-18819997D02*
X499999Y-26619997D01*
D10*
X14250000Y-6070000D02*
X1850000Y-6070000D01*
X1723822Y-12070000D02*
X14123822Y-12070000D01*
D11*
X14123822Y-11970000D02*
G75*
G03*
X14123822Y-6170000I-1674316J2900000D01*
G01*
D10*
X9899982Y-38119691D02*
X12899982Y-38119691D01*
X13299979Y-31519691D02*
G75*
G03*
X12899982Y-31119691I-399999J1D01*
G01*
D11*
X8249999Y-27419997D02*
X8499999Y-18919997D01*
D10*
X16050000Y-4670000D02*
X14250000Y-6070000D01*
X50000Y-1450000D02*
X1850000Y-50000D01*
X13299982Y-31519691D02*
X13299982Y-34119691D01*
X9499979Y-41119691D02*
G75*
G03*
X9899982Y-41519691I400001J1D01*
G01*
D11*
X10349978Y-25918311D02*
X10249978Y-17968311D01*
X9499978Y-18168311D02*
X9599978Y-26668311D01*
D10*
X13299979Y-35019691D02*
G75*
G03*
X12899982Y-34619691I-399999J1D01*
G01*
X9499979Y-30619691D02*
G75*
G03*
X9899982Y-31019691I400001J1D01*
G01*
X12899982Y-38019691D02*
X9899982Y-38019691D01*
D11*
X8249999Y-37069688D02*
X8499999Y-28569688D01*
X499999Y-36269688D02*
X49999Y-36469688D01*
D10*
X12899982Y-41519692D02*
G75*
G03*
X13299982Y-41119691I-2J400002D01*
G01*
D11*
X14549978Y-18468311D02*
X13999978Y-25768311D01*
X5399997Y-45817694D02*
X5999996Y-37867694D01*
X14849978Y-26518311D02*
X15449978Y-18568311D01*
X15449978Y-18568311D02*
X14549978Y-18468311D01*
D10*
X9499982Y-30619691D02*
X9499982Y-28019691D01*
D11*
X9149999Y-27519997D02*
X8249999Y-27419997D01*
D10*
X9499979Y-34119691D02*
G75*
G03*
X9899982Y-34519691I400001J1D01*
G01*
D11*
X13999978Y-25768311D02*
X10349978Y-25918311D01*
D10*
X9499982Y-37619691D02*
X9499982Y-35019691D01*
X9899982Y-34619692D02*
G75*
G03*
X9499982Y-35019691I-2J-399998D01*
G01*
X9899982Y-27619692D02*
G75*
G03*
X9499982Y-28019691I-2J-399998D01*
G01*
X9499982Y-34119691D02*
X9499982Y-31519691D01*
D11*
X49999Y-36469688D02*
X99999Y-27619688D01*
X99999Y-27619688D02*
X9399999Y-27719688D01*
X149997Y-45967694D02*
X5399997Y-45817694D01*
D10*
X12899982Y-34519691D02*
X9899982Y-34519691D01*
D11*
X1723822Y-6170000D02*
G75*
G03*
X1723822Y-11970000I1674316J-2900000D01*
G01*
X849999Y-28469688D02*
X499999Y-36269688D01*
D10*
X9899982Y-31119692D02*
G75*
G03*
X9499982Y-31519691I-2J-399998D01*
G01*
X12899982Y-31019692D02*
G75*
G03*
X13299982Y-30619691I-2J400002D01*
G01*
D11*
X8499999Y-18919997D02*
X849999Y-18819997D01*
D10*
X12899982Y-41519691D02*
X9899982Y-41519691D01*
D11*
X9399999Y-18069997D02*
X9149999Y-27519997D01*
D10*
X50000Y-4670000D02*
X50000Y-1450000D01*
X12899982Y-31019691D02*
X9899982Y-31019691D01*
D11*
X5099997Y-37767694D02*
X4549997Y-45067694D01*
X799996Y-37267694D02*
X49996Y-37467694D01*
D10*
X12899982Y-38019692D02*
G75*
G03*
X13299982Y-37619691I-2J400002D01*
G01*
D11*
X5999996Y-37867694D02*
X5099997Y-37767694D01*
X9599978Y-26668311D02*
X14849978Y-26518311D01*
D10*
X9499982Y-41119691D02*
X9499982Y-38519691D01*
D11*
X10249978Y-17968311D02*
X9499978Y-18168311D01*
D12*
X11201648Y-40170173D02*
X11234982Y-40122554D01*
X11258791Y-40170173D02*
X11258791Y-40070173D01*
X11258791Y-40070173D02*
X11220696Y-40070173D01*
X11220696Y-40070173D02*
X11211172Y-40074935D01*
X11211172Y-40074935D02*
X11206410Y-40079697D01*
X11206410Y-40079697D02*
X11201648Y-40089221D01*
X11201648Y-40089221D02*
X11201648Y-40103506D01*
X11201648Y-40103506D02*
X11206410Y-40113030D01*
X11206410Y-40113030D02*
X11211172Y-40117792D01*
X11211172Y-40117792D02*
X11220696Y-40122554D01*
X11220696Y-40122554D02*
X11258791Y-40122554D01*
X11168315Y-40070173D02*
X11101648Y-40070173D01*
X11101648Y-40070173D02*
X11144505Y-40170173D01*
X10904267Y-37718173D02*
X10937601Y-37670554D01*
X10961410Y-37718173D02*
X10961410Y-37618173D01*
X10961410Y-37618173D02*
X10923315Y-37618173D01*
X10923315Y-37618173D02*
X10913791Y-37622935D01*
X10913791Y-37622935D02*
X10909029Y-37627697D01*
X10909029Y-37627697D02*
X10904267Y-37637221D01*
X10904267Y-37637221D02*
X10904267Y-37651506D01*
X10904267Y-37651506D02*
X10909029Y-37661030D01*
X10909029Y-37661030D02*
X10913791Y-37665792D01*
X10913791Y-37665792D02*
X10923315Y-37670554D01*
X10923315Y-37670554D02*
X10961410Y-37670554D01*
X10809029Y-37718173D02*
X10866172Y-37718173D01*
X10837601Y-37718173D02*
X10837601Y-37618173D01*
X10837601Y-37618173D02*
X10847125Y-37632459D01*
X10847125Y-37632459D02*
X10856648Y-37641982D01*
X10856648Y-37641982D02*
X10866172Y-37646744D01*
X10713791Y-37718173D02*
X10770934Y-37718173D01*
X10742363Y-37718173D02*
X10742363Y-37618173D01*
X10742363Y-37618173D02*
X10751886Y-37632459D01*
X10751886Y-37632459D02*
X10761410Y-37641982D01*
X10761410Y-37641982D02*
X10770934Y-37646744D01*
X11249267Y-30718173D02*
X11282601Y-30670554D01*
X11306410Y-30718173D02*
X11306410Y-30618173D01*
X11306410Y-30618173D02*
X11268315Y-30618173D01*
X11268315Y-30618173D02*
X11258791Y-30622935D01*
X11258791Y-30622935D02*
X11254029Y-30627697D01*
X11254029Y-30627697D02*
X11249267Y-30637220D01*
X11249267Y-30637220D02*
X11249267Y-30651506D01*
X11249267Y-30651506D02*
X11254029Y-30661030D01*
X11254029Y-30661030D02*
X11258791Y-30665792D01*
X11258791Y-30665792D02*
X11268315Y-30670554D01*
X11268315Y-30670554D02*
X11306410Y-30670554D01*
X11154029Y-30718173D02*
X11211172Y-30718173D01*
X11182601Y-30718173D02*
X11182601Y-30618173D01*
X11182601Y-30618173D02*
X11192124Y-30632459D01*
X11192124Y-30632459D02*
X11201648Y-30641982D01*
X11201648Y-30641982D02*
X11211172Y-30646744D01*
X11115934Y-30627697D02*
X11111172Y-30622935D01*
X11111172Y-30622935D02*
X11101648Y-30618173D01*
X11101648Y-30618173D02*
X11077839Y-30618173D01*
X11077839Y-30618173D02*
X11068315Y-30622935D01*
X11068315Y-30622935D02*
X11063553Y-30627697D01*
X11063553Y-30627697D02*
X11058791Y-30637220D01*
X11058791Y-30637220D02*
X11058791Y-30646744D01*
X11058791Y-30646744D02*
X11063553Y-30661030D01*
X11063553Y-30661030D02*
X11120696Y-30718173D01*
X11120696Y-30718173D02*
X11058791Y-30718173D01*
X10504506Y-33944697D02*
X10514029Y-33939935D01*
X10514029Y-33939935D02*
X10523553Y-33930411D01*
X10523553Y-33930411D02*
X10537839Y-33916125D01*
X10537839Y-33916125D02*
X10547363Y-33911363D01*
X10547363Y-33911363D02*
X10556886Y-33911363D01*
X10552125Y-33935173D02*
X10561648Y-33930411D01*
X10561648Y-33930411D02*
X10571172Y-33920887D01*
X10571172Y-33920887D02*
X10575934Y-33901840D01*
X10575934Y-33901840D02*
X10575934Y-33868506D01*
X10575934Y-33868506D02*
X10571172Y-33849459D01*
X10571172Y-33849459D02*
X10561648Y-33839935D01*
X10561648Y-33839935D02*
X10552125Y-33835173D01*
X10552125Y-33835173D02*
X10533077Y-33835173D01*
X10533077Y-33835173D02*
X10523553Y-33839935D01*
X10523553Y-33839935D02*
X10514029Y-33849459D01*
X10514029Y-33849459D02*
X10509267Y-33868506D01*
X10509267Y-33868506D02*
X10509267Y-33901840D01*
X10509267Y-33901840D02*
X10514029Y-33920887D01*
X10514029Y-33920887D02*
X10523553Y-33930411D01*
X10523553Y-33930411D02*
X10533077Y-33935173D01*
X10533077Y-33935173D02*
X10552125Y-33935173D01*
X10414029Y-33935173D02*
X10471172Y-33935173D01*
X10442601Y-33935173D02*
X10442601Y-33835173D01*
X10442601Y-33835173D02*
X10452125Y-33849459D01*
X10452125Y-33849459D02*
X10461648Y-33858982D01*
X10461648Y-33858982D02*
X10471172Y-33863744D01*
X10559267Y-30718173D02*
X10592601Y-30670554D01*
X10616410Y-30718173D02*
X10616410Y-30618173D01*
X10616410Y-30618173D02*
X10578315Y-30618173D01*
X10578315Y-30618173D02*
X10568791Y-30622935D01*
X10568791Y-30622935D02*
X10564029Y-30627697D01*
X10564029Y-30627697D02*
X10559267Y-30637220D01*
X10559267Y-30637220D02*
X10559267Y-30651506D01*
X10559267Y-30651506D02*
X10564029Y-30661030D01*
X10564029Y-30661030D02*
X10568791Y-30665792D01*
X10568791Y-30665792D02*
X10578315Y-30670554D01*
X10578315Y-30670554D02*
X10616410Y-30670554D01*
X10464029Y-30718173D02*
X10521172Y-30718173D01*
X10492601Y-30718173D02*
X10492601Y-30618173D01*
X10492601Y-30618173D02*
X10502125Y-30632459D01*
X10502125Y-30632459D02*
X10511648Y-30641982D01*
X10511648Y-30641982D02*
X10521172Y-30646744D01*
X10402125Y-30618173D02*
X10392601Y-30618173D01*
X10392601Y-30618173D02*
X10383077Y-30622935D01*
X10383077Y-30622935D02*
X10378315Y-30627697D01*
X10378315Y-30627697D02*
X10373553Y-30637220D01*
X10373553Y-30637220D02*
X10368791Y-30656268D01*
X10368791Y-30656268D02*
X10368791Y-30680078D01*
X10368791Y-30680078D02*
X10373553Y-30699125D01*
X10373553Y-30699125D02*
X10378315Y-30708649D01*
X10378315Y-30708649D02*
X10383077Y-30713411D01*
X10383077Y-30713411D02*
X10392601Y-30718173D01*
X10392601Y-30718173D02*
X10402125Y-30718173D01*
X10402125Y-30718173D02*
X10411648Y-30713411D01*
X10411648Y-30713411D02*
X10416410Y-30708649D01*
X10416410Y-30708649D02*
X10421172Y-30699125D01*
X10421172Y-30699125D02*
X10425934Y-30680078D01*
X10425934Y-30680078D02*
X10425934Y-30656268D01*
X10425934Y-30656268D02*
X10421172Y-30637220D01*
X10421172Y-30637220D02*
X10416410Y-30627697D01*
X10416410Y-30627697D02*
X10411648Y-30622935D01*
X10411648Y-30622935D02*
X10402125Y-30618173D01*
X13530304Y-14503809D02*
X13611256Y-14503809D01*
X13611256Y-14503809D02*
X13620780Y-14508571D01*
X13620780Y-14508571D02*
X13625542Y-14513333D01*
X13625542Y-14513333D02*
X13630304Y-14522857D01*
X13630304Y-14522857D02*
X13630304Y-14541904D01*
X13630304Y-14541904D02*
X13625542Y-14551428D01*
X13625542Y-14551428D02*
X13620780Y-14556190D01*
X13620780Y-14556190D02*
X13611256Y-14560952D01*
X13611256Y-14560952D02*
X13530304Y-14560952D01*
X13530304Y-14651428D02*
X13530304Y-14632381D01*
X13530304Y-14632381D02*
X13535066Y-14622857D01*
X13535066Y-14622857D02*
X13539828Y-14618095D01*
X13539828Y-14618095D02*
X13554114Y-14608571D01*
X13554114Y-14608571D02*
X13573161Y-14603809D01*
X13573161Y-14603809D02*
X13611256Y-14603809D01*
X13611256Y-14603809D02*
X13620780Y-14608571D01*
X13620780Y-14608571D02*
X13625542Y-14613333D01*
X13625542Y-14613333D02*
X13630304Y-14622857D01*
X13630304Y-14622857D02*
X13630304Y-14641904D01*
X13630304Y-14641904D02*
X13625542Y-14651428D01*
X13625542Y-14651428D02*
X13620780Y-14656190D01*
X13620780Y-14656190D02*
X13611256Y-14660952D01*
X13611256Y-14660952D02*
X13587447Y-14660952D01*
X13587447Y-14660952D02*
X13577923Y-14656190D01*
X13577923Y-14656190D02*
X13573161Y-14651428D01*
X13573161Y-14651428D02*
X13568399Y-14641904D01*
X13568399Y-14641904D02*
X13568399Y-14622857D01*
X13568399Y-14622857D02*
X13573161Y-14613333D01*
X13573161Y-14613333D02*
X13577923Y-14608571D01*
X13577923Y-14608571D02*
X13587447Y-14603809D01*
X11539505Y-30444697D02*
X11549029Y-30439935D01*
X11549029Y-30439935D02*
X11558553Y-30430411D01*
X11558553Y-30430411D02*
X11572839Y-30416125D01*
X11572839Y-30416125D02*
X11582363Y-30411363D01*
X11582363Y-30411363D02*
X11591886Y-30411363D01*
X11587124Y-30435173D02*
X11596648Y-30430411D01*
X11596648Y-30430411D02*
X11606172Y-30420887D01*
X11606172Y-30420887D02*
X11610934Y-30401839D01*
X11610934Y-30401839D02*
X11610934Y-30368506D01*
X11610934Y-30368506D02*
X11606172Y-30349459D01*
X11606172Y-30349459D02*
X11596648Y-30339935D01*
X11596648Y-30339935D02*
X11587124Y-30335173D01*
X11587124Y-30335173D02*
X11568077Y-30335173D01*
X11568077Y-30335173D02*
X11558553Y-30339935D01*
X11558553Y-30339935D02*
X11549029Y-30349459D01*
X11549029Y-30349459D02*
X11544267Y-30368506D01*
X11544267Y-30368506D02*
X11544267Y-30401839D01*
X11544267Y-30401839D02*
X11549029Y-30420887D01*
X11549029Y-30420887D02*
X11558553Y-30430411D01*
X11558553Y-30430411D02*
X11568077Y-30435173D01*
X11568077Y-30435173D02*
X11587124Y-30435173D01*
X11458553Y-30368506D02*
X11458553Y-30435173D01*
X11482363Y-30330411D02*
X11506172Y-30401839D01*
X11506172Y-30401839D02*
X11444267Y-30401839D01*
X11539505Y-40944697D02*
X11549029Y-40939935D01*
X11549029Y-40939935D02*
X11558553Y-40930411D01*
X11558553Y-40930411D02*
X11572839Y-40916125D01*
X11572839Y-40916125D02*
X11582363Y-40911363D01*
X11582363Y-40911363D02*
X11591886Y-40911363D01*
X11587124Y-40935173D02*
X11596648Y-40930411D01*
X11596648Y-40930411D02*
X11606172Y-40920887D01*
X11606172Y-40920887D02*
X11610934Y-40901840D01*
X11610934Y-40901840D02*
X11610934Y-40868506D01*
X11610934Y-40868506D02*
X11606172Y-40849459D01*
X11606172Y-40849459D02*
X11596648Y-40839935D01*
X11596648Y-40839935D02*
X11587124Y-40835173D01*
X11587124Y-40835173D02*
X11568077Y-40835173D01*
X11568077Y-40835173D02*
X11558553Y-40839935D01*
X11558553Y-40839935D02*
X11549029Y-40849459D01*
X11549029Y-40849459D02*
X11544267Y-40868506D01*
X11544267Y-40868506D02*
X11544267Y-40901840D01*
X11544267Y-40901840D02*
X11549029Y-40920887D01*
X11549029Y-40920887D02*
X11558553Y-40930411D01*
X11558553Y-40930411D02*
X11568077Y-40935173D01*
X11568077Y-40935173D02*
X11587124Y-40935173D01*
X11458553Y-40868506D02*
X11458553Y-40935173D01*
X11482363Y-40830411D02*
X11506172Y-40901840D01*
X11506172Y-40901840D02*
X11444267Y-40901840D01*
X12231648Y-37035649D02*
X12236410Y-37040411D01*
X12236410Y-37040411D02*
X12250696Y-37045173D01*
X12250696Y-37045173D02*
X12260220Y-37045173D01*
X12260220Y-37045173D02*
X12274505Y-37040411D01*
X12274505Y-37040411D02*
X12284029Y-37030887D01*
X12284029Y-37030887D02*
X12288791Y-37021363D01*
X12288791Y-37021363D02*
X12293553Y-37002316D01*
X12293553Y-37002316D02*
X12293553Y-36988030D01*
X12293553Y-36988030D02*
X12288791Y-36968982D01*
X12288791Y-36968982D02*
X12284029Y-36959459D01*
X12284029Y-36959459D02*
X12274505Y-36949935D01*
X12274505Y-36949935D02*
X12260220Y-36945173D01*
X12260220Y-36945173D02*
X12250696Y-36945173D01*
X12250696Y-36945173D02*
X12236410Y-36949935D01*
X12236410Y-36949935D02*
X12231648Y-36954697D01*
X12145934Y-36945173D02*
X12164982Y-36945173D01*
X12164982Y-36945173D02*
X12174505Y-36949935D01*
X12174505Y-36949935D02*
X12179267Y-36954697D01*
X12179267Y-36954697D02*
X12188791Y-36968982D01*
X12188791Y-36968982D02*
X12193553Y-36988030D01*
X12193553Y-36988030D02*
X12193553Y-37026125D01*
X12193553Y-37026125D02*
X12188791Y-37035649D01*
X12188791Y-37035649D02*
X12184029Y-37040411D01*
X12184029Y-37040411D02*
X12174505Y-37045173D01*
X12174505Y-37045173D02*
X12155458Y-37045173D01*
X12155458Y-37045173D02*
X12145934Y-37040411D01*
X12145934Y-37040411D02*
X12141172Y-37035649D01*
X12141172Y-37035649D02*
X12136410Y-37026125D01*
X12136410Y-37026125D02*
X12136410Y-37002316D01*
X12136410Y-37002316D02*
X12141172Y-36992792D01*
X12141172Y-36992792D02*
X12145934Y-36988030D01*
X12145934Y-36988030D02*
X12155458Y-36983268D01*
X12155458Y-36983268D02*
X12174505Y-36983268D01*
X12174505Y-36983268D02*
X12184029Y-36988030D01*
X12184029Y-36988030D02*
X12188791Y-36992792D01*
X12188791Y-36992792D02*
X12193553Y-37002316D01*
X11546648Y-36670173D02*
X11579982Y-36622554D01*
X11603791Y-36670173D02*
X11603791Y-36570173D01*
X11603791Y-36570173D02*
X11565696Y-36570173D01*
X11565696Y-36570173D02*
X11556172Y-36574935D01*
X11556172Y-36574935D02*
X11551410Y-36579697D01*
X11551410Y-36579697D02*
X11546648Y-36589221D01*
X11546648Y-36589221D02*
X11546648Y-36603506D01*
X11546648Y-36603506D02*
X11551410Y-36613030D01*
X11551410Y-36613030D02*
X11556172Y-36617792D01*
X11556172Y-36617792D02*
X11565696Y-36622554D01*
X11565696Y-36622554D02*
X11603791Y-36622554D01*
X11489505Y-36613030D02*
X11499029Y-36608268D01*
X11499029Y-36608268D02*
X11503791Y-36603506D01*
X11503791Y-36603506D02*
X11508553Y-36593982D01*
X11508553Y-36593982D02*
X11508553Y-36589221D01*
X11508553Y-36589221D02*
X11503791Y-36579697D01*
X11503791Y-36579697D02*
X11499029Y-36574935D01*
X11499029Y-36574935D02*
X11489505Y-36570173D01*
X11489505Y-36570173D02*
X11470458Y-36570173D01*
X11470458Y-36570173D02*
X11460934Y-36574935D01*
X11460934Y-36574935D02*
X11456172Y-36579697D01*
X11456172Y-36579697D02*
X11451410Y-36589221D01*
X11451410Y-36589221D02*
X11451410Y-36593982D01*
X11451410Y-36593982D02*
X11456172Y-36603506D01*
X11456172Y-36603506D02*
X11460934Y-36608268D01*
X11460934Y-36608268D02*
X11470458Y-36613030D01*
X11470458Y-36613030D02*
X11489505Y-36613030D01*
X11489505Y-36613030D02*
X11499029Y-36617792D01*
X11499029Y-36617792D02*
X11503791Y-36622554D01*
X11503791Y-36622554D02*
X11508553Y-36632078D01*
X11508553Y-36632078D02*
X11508553Y-36651125D01*
X11508553Y-36651125D02*
X11503791Y-36660649D01*
X11503791Y-36660649D02*
X11499029Y-36665411D01*
X11499029Y-36665411D02*
X11489505Y-36670173D01*
X11489505Y-36670173D02*
X11470458Y-36670173D01*
X11470458Y-36670173D02*
X11460934Y-36665411D01*
X11460934Y-36665411D02*
X11456172Y-36660649D01*
X11456172Y-36660649D02*
X11451410Y-36651125D01*
X11451410Y-36651125D02*
X11451410Y-36632078D01*
X11451410Y-36632078D02*
X11456172Y-36622554D01*
X11456172Y-36622554D02*
X11460934Y-36617792D01*
X11460934Y-36617792D02*
X11470458Y-36613030D01*
X12231648Y-30035649D02*
X12236410Y-30040411D01*
X12236410Y-30040411D02*
X12250696Y-30045173D01*
X12250696Y-30045173D02*
X12260220Y-30045173D01*
X12260220Y-30045173D02*
X12274505Y-30040411D01*
X12274505Y-30040411D02*
X12284029Y-30030887D01*
X12284029Y-30030887D02*
X12288791Y-30021363D01*
X12288791Y-30021363D02*
X12293553Y-30002316D01*
X12293553Y-30002316D02*
X12293553Y-29988030D01*
X12293553Y-29988030D02*
X12288791Y-29968982D01*
X12288791Y-29968982D02*
X12284029Y-29959459D01*
X12284029Y-29959459D02*
X12274505Y-29949935D01*
X12274505Y-29949935D02*
X12260220Y-29945173D01*
X12260220Y-29945173D02*
X12250696Y-29945173D01*
X12250696Y-29945173D02*
X12236410Y-29949935D01*
X12236410Y-29949935D02*
X12231648Y-29954697D01*
X12145934Y-29945173D02*
X12164982Y-29945173D01*
X12164982Y-29945173D02*
X12174505Y-29949935D01*
X12174505Y-29949935D02*
X12179267Y-29954697D01*
X12179267Y-29954697D02*
X12188791Y-29968982D01*
X12188791Y-29968982D02*
X12193553Y-29988030D01*
X12193553Y-29988030D02*
X12193553Y-30026125D01*
X12193553Y-30026125D02*
X12188791Y-30035649D01*
X12188791Y-30035649D02*
X12184029Y-30040411D01*
X12184029Y-30040411D02*
X12174505Y-30045173D01*
X12174505Y-30045173D02*
X12155458Y-30045173D01*
X12155458Y-30045173D02*
X12145934Y-30040411D01*
X12145934Y-30040411D02*
X12141172Y-30035649D01*
X12141172Y-30035649D02*
X12136410Y-30026125D01*
X12136410Y-30026125D02*
X12136410Y-30002316D01*
X12136410Y-30002316D02*
X12141172Y-29992792D01*
X12141172Y-29992792D02*
X12145934Y-29988030D01*
X12145934Y-29988030D02*
X12155458Y-29983268D01*
X12155458Y-29983268D02*
X12174505Y-29983268D01*
X12174505Y-29983268D02*
X12184029Y-29988030D01*
X12184029Y-29988030D02*
X12188791Y-29992792D01*
X12188791Y-29992792D02*
X12193553Y-30002316D01*
X11194505Y-33944697D02*
X11204029Y-33939935D01*
X11204029Y-33939935D02*
X11213553Y-33930411D01*
X11213553Y-33930411D02*
X11227839Y-33916125D01*
X11227839Y-33916125D02*
X11237363Y-33911363D01*
X11237363Y-33911363D02*
X11246886Y-33911363D01*
X11242124Y-33935173D02*
X11251648Y-33930411D01*
X11251648Y-33930411D02*
X11261172Y-33920887D01*
X11261172Y-33920887D02*
X11265934Y-33901840D01*
X11265934Y-33901840D02*
X11265934Y-33868506D01*
X11265934Y-33868506D02*
X11261172Y-33849459D01*
X11261172Y-33849459D02*
X11251648Y-33839935D01*
X11251648Y-33839935D02*
X11242124Y-33835173D01*
X11242124Y-33835173D02*
X11223077Y-33835173D01*
X11223077Y-33835173D02*
X11213553Y-33839935D01*
X11213553Y-33839935D02*
X11204029Y-33849459D01*
X11204029Y-33849459D02*
X11199267Y-33868506D01*
X11199267Y-33868506D02*
X11199267Y-33901840D01*
X11199267Y-33901840D02*
X11204029Y-33920887D01*
X11204029Y-33920887D02*
X11213553Y-33930411D01*
X11213553Y-33930411D02*
X11223077Y-33935173D01*
X11223077Y-33935173D02*
X11242124Y-33935173D01*
X11165934Y-33835173D02*
X11104029Y-33835173D01*
X11104029Y-33835173D02*
X11137363Y-33873268D01*
X11137363Y-33873268D02*
X11123077Y-33873268D01*
X11123077Y-33873268D02*
X11113553Y-33878030D01*
X11113553Y-33878030D02*
X11108791Y-33882792D01*
X11108791Y-33882792D02*
X11104029Y-33892316D01*
X11104029Y-33892316D02*
X11104029Y-33916125D01*
X11104029Y-33916125D02*
X11108791Y-33925649D01*
X11108791Y-33925649D02*
X11113553Y-33930411D01*
X11113553Y-33930411D02*
X11123077Y-33935173D01*
X11123077Y-33935173D02*
X11151648Y-33935173D01*
X11151648Y-33935173D02*
X11161172Y-33930411D01*
X11161172Y-33930411D02*
X11165934Y-33925649D01*
X11939267Y-30718173D02*
X11972601Y-30670554D01*
X11996410Y-30718173D02*
X11996410Y-30618173D01*
X11996410Y-30618173D02*
X11958315Y-30618173D01*
X11958315Y-30618173D02*
X11948791Y-30622935D01*
X11948791Y-30622935D02*
X11944029Y-30627697D01*
X11944029Y-30627697D02*
X11939267Y-30637220D01*
X11939267Y-30637220D02*
X11939267Y-30651506D01*
X11939267Y-30651506D02*
X11944029Y-30661030D01*
X11944029Y-30661030D02*
X11948791Y-30665792D01*
X11948791Y-30665792D02*
X11958315Y-30670554D01*
X11958315Y-30670554D02*
X11996410Y-30670554D01*
X11844029Y-30718173D02*
X11901172Y-30718173D01*
X11872601Y-30718173D02*
X11872601Y-30618173D01*
X11872601Y-30618173D02*
X11882124Y-30632459D01*
X11882124Y-30632459D02*
X11891648Y-30641982D01*
X11891648Y-30641982D02*
X11901172Y-30646744D01*
X11758315Y-30651506D02*
X11758315Y-30718173D01*
X11782124Y-30613411D02*
X11805934Y-30684839D01*
X11805934Y-30684839D02*
X11744029Y-30684839D01*
X11884505Y-40944697D02*
X11894029Y-40939935D01*
X11894029Y-40939935D02*
X11903553Y-40930411D01*
X11903553Y-40930411D02*
X11917839Y-40916125D01*
X11917839Y-40916125D02*
X11927363Y-40911363D01*
X11927363Y-40911363D02*
X11936886Y-40911363D01*
X11932124Y-40935173D02*
X11941648Y-40930411D01*
X11941648Y-40930411D02*
X11951172Y-40920887D01*
X11951172Y-40920887D02*
X11955934Y-40901840D01*
X11955934Y-40901840D02*
X11955934Y-40868506D01*
X11955934Y-40868506D02*
X11951172Y-40849459D01*
X11951172Y-40849459D02*
X11941648Y-40839935D01*
X11941648Y-40839935D02*
X11932124Y-40835173D01*
X11932124Y-40835173D02*
X11913077Y-40835173D01*
X11913077Y-40835173D02*
X11903553Y-40839935D01*
X11903553Y-40839935D02*
X11894029Y-40849459D01*
X11894029Y-40849459D02*
X11889267Y-40868506D01*
X11889267Y-40868506D02*
X11889267Y-40901840D01*
X11889267Y-40901840D02*
X11894029Y-40920887D01*
X11894029Y-40920887D02*
X11903553Y-40930411D01*
X11903553Y-40930411D02*
X11913077Y-40935173D01*
X11913077Y-40935173D02*
X11932124Y-40935173D01*
X11798791Y-40835173D02*
X11846410Y-40835173D01*
X11846410Y-40835173D02*
X11851172Y-40882792D01*
X11851172Y-40882792D02*
X11846410Y-40878030D01*
X11846410Y-40878030D02*
X11836886Y-40873268D01*
X11836886Y-40873268D02*
X11813077Y-40873268D01*
X11813077Y-40873268D02*
X11803553Y-40878030D01*
X11803553Y-40878030D02*
X11798791Y-40882792D01*
X11798791Y-40882792D02*
X11794029Y-40892316D01*
X11794029Y-40892316D02*
X11794029Y-40916125D01*
X11794029Y-40916125D02*
X11798791Y-40925649D01*
X11798791Y-40925649D02*
X11803553Y-40930411D01*
X11803553Y-40930411D02*
X11813077Y-40935173D01*
X11813077Y-40935173D02*
X11836886Y-40935173D01*
X11836886Y-40935173D02*
X11846410Y-40930411D01*
X11846410Y-40930411D02*
X11851172Y-40925649D01*
X10504506Y-37444697D02*
X10514029Y-37439935D01*
X10514029Y-37439935D02*
X10523553Y-37430411D01*
X10523553Y-37430411D02*
X10537839Y-37416125D01*
X10537839Y-37416125D02*
X10547363Y-37411363D01*
X10547363Y-37411363D02*
X10556886Y-37411363D01*
X10552125Y-37435173D02*
X10561648Y-37430411D01*
X10561648Y-37430411D02*
X10571172Y-37420887D01*
X10571172Y-37420887D02*
X10575934Y-37401840D01*
X10575934Y-37401840D02*
X10575934Y-37368506D01*
X10575934Y-37368506D02*
X10571172Y-37349459D01*
X10571172Y-37349459D02*
X10561648Y-37339935D01*
X10561648Y-37339935D02*
X10552125Y-37335173D01*
X10552125Y-37335173D02*
X10533077Y-37335173D01*
X10533077Y-37335173D02*
X10523553Y-37339935D01*
X10523553Y-37339935D02*
X10514029Y-37349459D01*
X10514029Y-37349459D02*
X10509267Y-37368506D01*
X10509267Y-37368506D02*
X10509267Y-37401840D01*
X10509267Y-37401840D02*
X10514029Y-37420887D01*
X10514029Y-37420887D02*
X10523553Y-37430411D01*
X10523553Y-37430411D02*
X10533077Y-37435173D01*
X10533077Y-37435173D02*
X10552125Y-37435173D01*
X10414029Y-37435173D02*
X10471172Y-37435173D01*
X10442601Y-37435173D02*
X10442601Y-37335173D01*
X10442601Y-37335173D02*
X10452125Y-37349459D01*
X10452125Y-37349459D02*
X10461648Y-37358982D01*
X10461648Y-37358982D02*
X10471172Y-37363744D01*
X11546648Y-40170173D02*
X11579982Y-40122554D01*
X11603791Y-40170173D02*
X11603791Y-40070173D01*
X11603791Y-40070173D02*
X11565696Y-40070173D01*
X11565696Y-40070173D02*
X11556172Y-40074935D01*
X11556172Y-40074935D02*
X11551410Y-40079697D01*
X11551410Y-40079697D02*
X11546648Y-40089221D01*
X11546648Y-40089221D02*
X11546648Y-40103506D01*
X11546648Y-40103506D02*
X11551410Y-40113030D01*
X11551410Y-40113030D02*
X11556172Y-40117792D01*
X11556172Y-40117792D02*
X11565696Y-40122554D01*
X11565696Y-40122554D02*
X11603791Y-40122554D01*
X11489505Y-40113030D02*
X11499029Y-40108268D01*
X11499029Y-40108268D02*
X11503791Y-40103506D01*
X11503791Y-40103506D02*
X11508553Y-40093982D01*
X11508553Y-40093982D02*
X11508553Y-40089221D01*
X11508553Y-40089221D02*
X11503791Y-40079697D01*
X11503791Y-40079697D02*
X11499029Y-40074935D01*
X11499029Y-40074935D02*
X11489505Y-40070173D01*
X11489505Y-40070173D02*
X11470458Y-40070173D01*
X11470458Y-40070173D02*
X11460934Y-40074935D01*
X11460934Y-40074935D02*
X11456172Y-40079697D01*
X11456172Y-40079697D02*
X11451410Y-40089221D01*
X11451410Y-40089221D02*
X11451410Y-40093982D01*
X11451410Y-40093982D02*
X11456172Y-40103506D01*
X11456172Y-40103506D02*
X11460934Y-40108268D01*
X11460934Y-40108268D02*
X11470458Y-40113030D01*
X11470458Y-40113030D02*
X11489505Y-40113030D01*
X11489505Y-40113030D02*
X11499029Y-40117792D01*
X11499029Y-40117792D02*
X11503791Y-40122554D01*
X11503791Y-40122554D02*
X11508553Y-40132078D01*
X11508553Y-40132078D02*
X11508553Y-40151125D01*
X11508553Y-40151125D02*
X11503791Y-40160649D01*
X11503791Y-40160649D02*
X11499029Y-40165411D01*
X11499029Y-40165411D02*
X11489505Y-40170173D01*
X11489505Y-40170173D02*
X11470458Y-40170173D01*
X11470458Y-40170173D02*
X11460934Y-40165411D01*
X11460934Y-40165411D02*
X11456172Y-40160649D01*
X11456172Y-40160649D02*
X11451410Y-40151125D01*
X11451410Y-40151125D02*
X11451410Y-40132078D01*
X11451410Y-40132078D02*
X11456172Y-40122554D01*
X11456172Y-40122554D02*
X11460934Y-40117792D01*
X11460934Y-40117792D02*
X11470458Y-40113030D01*
X11194505Y-37444697D02*
X11204029Y-37439935D01*
X11204029Y-37439935D02*
X11213553Y-37430411D01*
X11213553Y-37430411D02*
X11227839Y-37416125D01*
X11227839Y-37416125D02*
X11237363Y-37411363D01*
X11237363Y-37411363D02*
X11246886Y-37411363D01*
X11242124Y-37435173D02*
X11251648Y-37430411D01*
X11251648Y-37430411D02*
X11261172Y-37420887D01*
X11261172Y-37420887D02*
X11265934Y-37401840D01*
X11265934Y-37401840D02*
X11265934Y-37368506D01*
X11265934Y-37368506D02*
X11261172Y-37349459D01*
X11261172Y-37349459D02*
X11251648Y-37339935D01*
X11251648Y-37339935D02*
X11242124Y-37335173D01*
X11242124Y-37335173D02*
X11223077Y-37335173D01*
X11223077Y-37335173D02*
X11213553Y-37339935D01*
X11213553Y-37339935D02*
X11204029Y-37349459D01*
X11204029Y-37349459D02*
X11199267Y-37368506D01*
X11199267Y-37368506D02*
X11199267Y-37401840D01*
X11199267Y-37401840D02*
X11204029Y-37420887D01*
X11204029Y-37420887D02*
X11213553Y-37430411D01*
X11213553Y-37430411D02*
X11223077Y-37435173D01*
X11223077Y-37435173D02*
X11242124Y-37435173D01*
X11165934Y-37335173D02*
X11104029Y-37335173D01*
X11104029Y-37335173D02*
X11137363Y-37373268D01*
X11137363Y-37373268D02*
X11123077Y-37373268D01*
X11123077Y-37373268D02*
X11113553Y-37378030D01*
X11113553Y-37378030D02*
X11108791Y-37382792D01*
X11108791Y-37382792D02*
X11104029Y-37392316D01*
X11104029Y-37392316D02*
X11104029Y-37416125D01*
X11104029Y-37416125D02*
X11108791Y-37425649D01*
X11108791Y-37425649D02*
X11113553Y-37430411D01*
X11113553Y-37430411D02*
X11123077Y-37435173D01*
X11123077Y-37435173D02*
X11151648Y-37435173D01*
X11151648Y-37435173D02*
X11161172Y-37430411D01*
X11161172Y-37430411D02*
X11165934Y-37425649D01*
X12231648Y-33535649D02*
X12236410Y-33540411D01*
X12236410Y-33540411D02*
X12250696Y-33545173D01*
X12250696Y-33545173D02*
X12260220Y-33545173D01*
X12260220Y-33545173D02*
X12274505Y-33540411D01*
X12274505Y-33540411D02*
X12284029Y-33530887D01*
X12284029Y-33530887D02*
X12288791Y-33521363D01*
X12288791Y-33521363D02*
X12293553Y-33502316D01*
X12293553Y-33502316D02*
X12293553Y-33488030D01*
X12293553Y-33488030D02*
X12288791Y-33468982D01*
X12288791Y-33468982D02*
X12284029Y-33459459D01*
X12284029Y-33459459D02*
X12274505Y-33449935D01*
X12274505Y-33449935D02*
X12260220Y-33445173D01*
X12260220Y-33445173D02*
X12250696Y-33445173D01*
X12250696Y-33445173D02*
X12236410Y-33449935D01*
X12236410Y-33449935D02*
X12231648Y-33454697D01*
X12145934Y-33445173D02*
X12164982Y-33445173D01*
X12164982Y-33445173D02*
X12174505Y-33449935D01*
X12174505Y-33449935D02*
X12179267Y-33454697D01*
X12179267Y-33454697D02*
X12188791Y-33468982D01*
X12188791Y-33468982D02*
X12193553Y-33488030D01*
X12193553Y-33488030D02*
X12193553Y-33526125D01*
X12193553Y-33526125D02*
X12188791Y-33535649D01*
X12188791Y-33535649D02*
X12184029Y-33540411D01*
X12184029Y-33540411D02*
X12174505Y-33545173D01*
X12174505Y-33545173D02*
X12155458Y-33545173D01*
X12155458Y-33545173D02*
X12145934Y-33540411D01*
X12145934Y-33540411D02*
X12141172Y-33535649D01*
X12141172Y-33535649D02*
X12136410Y-33526125D01*
X12136410Y-33526125D02*
X12136410Y-33502316D01*
X12136410Y-33502316D02*
X12141172Y-33492792D01*
X12141172Y-33492792D02*
X12145934Y-33488030D01*
X12145934Y-33488030D02*
X12155458Y-33483268D01*
X12155458Y-33483268D02*
X12174505Y-33483268D01*
X12174505Y-33483268D02*
X12184029Y-33488030D01*
X12184029Y-33488030D02*
X12188791Y-33492792D01*
X12188791Y-33492792D02*
X12193553Y-33502316D01*
X11201648Y-33170173D02*
X11234982Y-33122554D01*
X11258791Y-33170173D02*
X11258791Y-33070173D01*
X11258791Y-33070173D02*
X11220696Y-33070173D01*
X11220696Y-33070173D02*
X11211172Y-33074935D01*
X11211172Y-33074935D02*
X11206410Y-33079697D01*
X11206410Y-33079697D02*
X11201648Y-33089220D01*
X11201648Y-33089220D02*
X11201648Y-33103506D01*
X11201648Y-33103506D02*
X11206410Y-33113030D01*
X11206410Y-33113030D02*
X11211172Y-33117792D01*
X11211172Y-33117792D02*
X11220696Y-33122554D01*
X11220696Y-33122554D02*
X11258791Y-33122554D01*
X11168315Y-33070173D02*
X11101648Y-33070173D01*
X11101648Y-33070173D02*
X11144505Y-33170173D01*
X13593304Y-9203809D02*
X13545685Y-9170476D01*
X13593304Y-9146666D02*
X13493304Y-9146666D01*
X13493304Y-9146666D02*
X13493304Y-9184762D01*
X13493304Y-9184762D02*
X13498066Y-9194285D01*
X13498066Y-9194285D02*
X13502828Y-9199047D01*
X13502828Y-9199047D02*
X13512352Y-9203809D01*
X13512352Y-9203809D02*
X13526637Y-9203809D01*
X13526637Y-9203809D02*
X13536161Y-9199047D01*
X13536161Y-9199047D02*
X13540923Y-9194285D01*
X13540923Y-9194285D02*
X13545685Y-9184762D01*
X13545685Y-9184762D02*
X13545685Y-9146666D01*
X13555209Y-9246666D02*
X13555209Y-9322857D01*
X13526637Y-9360952D02*
X13593304Y-9384762D01*
X13593304Y-9384762D02*
X13526637Y-9408571D01*
X13593304Y-9499047D02*
X13593304Y-9441905D01*
X13593304Y-9470476D02*
X13493304Y-9470476D01*
X13493304Y-9470476D02*
X13507590Y-9460952D01*
X13507590Y-9460952D02*
X13517114Y-9451428D01*
X13517114Y-9451428D02*
X13521875Y-9441905D01*
X13555209Y-9541905D02*
X13555209Y-9618095D01*
X13493304Y-9713333D02*
X13493304Y-9665714D01*
X13493304Y-9665714D02*
X13540923Y-9660952D01*
X13540923Y-9660952D02*
X13536161Y-9665714D01*
X13536161Y-9665714D02*
X13531399Y-9675238D01*
X13531399Y-9675238D02*
X13531399Y-9699047D01*
X13531399Y-9699047D02*
X13536161Y-9708571D01*
X13536161Y-9708571D02*
X13540923Y-9713333D01*
X13540923Y-9713333D02*
X13550447Y-9718095D01*
X13550447Y-9718095D02*
X13574256Y-9718095D01*
X13574256Y-9718095D02*
X13583780Y-9713333D01*
X13583780Y-9713333D02*
X13588542Y-9708571D01*
X13588542Y-9708571D02*
X13593304Y-9699047D01*
X13593304Y-9699047D02*
X13593304Y-9675238D01*
X13593304Y-9675238D02*
X13588542Y-9665714D01*
X13588542Y-9665714D02*
X13583780Y-9660952D01*
X10904267Y-30718173D02*
X10937601Y-30670554D01*
X10961410Y-30718173D02*
X10961410Y-30618173D01*
X10961410Y-30618173D02*
X10923315Y-30618173D01*
X10923315Y-30618173D02*
X10913791Y-30622935D01*
X10913791Y-30622935D02*
X10909029Y-30627697D01*
X10909029Y-30627697D02*
X10904267Y-30637220D01*
X10904267Y-30637220D02*
X10904267Y-30651506D01*
X10904267Y-30651506D02*
X10909029Y-30661030D01*
X10909029Y-30661030D02*
X10913791Y-30665792D01*
X10913791Y-30665792D02*
X10923315Y-30670554D01*
X10923315Y-30670554D02*
X10961410Y-30670554D01*
X10809029Y-30718173D02*
X10866172Y-30718173D01*
X10837601Y-30718173D02*
X10837601Y-30618173D01*
X10837601Y-30618173D02*
X10847125Y-30632459D01*
X10847125Y-30632459D02*
X10856648Y-30641982D01*
X10856648Y-30641982D02*
X10866172Y-30646744D01*
X10713791Y-30718173D02*
X10770934Y-30718173D01*
X10742363Y-30718173D02*
X10742363Y-30618173D01*
X10742363Y-30618173D02*
X10751886Y-30632459D01*
X10751886Y-30632459D02*
X10761410Y-30641982D01*
X10761410Y-30641982D02*
X10770934Y-30646744D01*
X12231648Y-40535649D02*
X12236410Y-40540411D01*
X12236410Y-40540411D02*
X12250696Y-40545173D01*
X12250696Y-40545173D02*
X12260220Y-40545173D01*
X12260220Y-40545173D02*
X12274505Y-40540411D01*
X12274505Y-40540411D02*
X12284029Y-40530887D01*
X12284029Y-40530887D02*
X12288791Y-40521363D01*
X12288791Y-40521363D02*
X12293553Y-40502316D01*
X12293553Y-40502316D02*
X12293553Y-40488030D01*
X12293553Y-40488030D02*
X12288791Y-40468982D01*
X12288791Y-40468982D02*
X12284029Y-40459459D01*
X12284029Y-40459459D02*
X12274505Y-40449935D01*
X12274505Y-40449935D02*
X12260220Y-40445173D01*
X12260220Y-40445173D02*
X12250696Y-40445173D01*
X12250696Y-40445173D02*
X12236410Y-40449935D01*
X12236410Y-40449935D02*
X12231648Y-40454697D01*
X12145934Y-40445173D02*
X12164982Y-40445173D01*
X12164982Y-40445173D02*
X12174505Y-40449935D01*
X12174505Y-40449935D02*
X12179267Y-40454697D01*
X12179267Y-40454697D02*
X12188791Y-40468982D01*
X12188791Y-40468982D02*
X12193553Y-40488030D01*
X12193553Y-40488030D02*
X12193553Y-40526125D01*
X12193553Y-40526125D02*
X12188791Y-40535649D01*
X12188791Y-40535649D02*
X12184029Y-40540411D01*
X12184029Y-40540411D02*
X12174505Y-40545173D01*
X12174505Y-40545173D02*
X12155458Y-40545173D01*
X12155458Y-40545173D02*
X12145934Y-40540411D01*
X12145934Y-40540411D02*
X12141172Y-40535649D01*
X12141172Y-40535649D02*
X12136410Y-40526125D01*
X12136410Y-40526125D02*
X12136410Y-40502316D01*
X12136410Y-40502316D02*
X12141172Y-40492792D01*
X12141172Y-40492792D02*
X12145934Y-40488030D01*
X12145934Y-40488030D02*
X12155458Y-40483268D01*
X12155458Y-40483268D02*
X12174505Y-40483268D01*
X12174505Y-40483268D02*
X12184029Y-40488030D01*
X12184029Y-40488030D02*
X12188791Y-40492792D01*
X12188791Y-40492792D02*
X12193553Y-40502316D01*
X11241804Y-17001666D02*
X11313233Y-17001666D01*
X11313233Y-17001666D02*
X11327518Y-16996904D01*
X11327518Y-16996904D02*
X11337042Y-16987381D01*
X11337042Y-16987381D02*
X11341804Y-16973095D01*
X11341804Y-16973095D02*
X11341804Y-16963571D01*
X11341804Y-17101666D02*
X11341804Y-17044524D01*
X11341804Y-17073095D02*
X11241804Y-17073095D01*
X11241804Y-17073095D02*
X11256090Y-17063571D01*
X11256090Y-17063571D02*
X11265614Y-17054047D01*
X11265614Y-17054047D02*
X11270375Y-17044524D01*
X12396172Y-37625173D02*
X12396172Y-37706125D01*
X12396172Y-37706125D02*
X12391410Y-37715649D01*
X12391410Y-37715649D02*
X12386648Y-37720411D01*
X12386648Y-37720411D02*
X12377124Y-37725173D01*
X12377124Y-37725173D02*
X12358077Y-37725173D01*
X12358077Y-37725173D02*
X12348553Y-37720411D01*
X12348553Y-37720411D02*
X12343791Y-37715649D01*
X12343791Y-37715649D02*
X12339029Y-37706125D01*
X12339029Y-37706125D02*
X12339029Y-37625173D01*
X12296172Y-37634697D02*
X12291410Y-37629935D01*
X12291410Y-37629935D02*
X12281886Y-37625173D01*
X12281886Y-37625173D02*
X12258077Y-37625173D01*
X12258077Y-37625173D02*
X12248553Y-37629935D01*
X12248553Y-37629935D02*
X12243791Y-37634697D01*
X12243791Y-37634697D02*
X12239029Y-37644221D01*
X12239029Y-37644221D02*
X12239029Y-37653744D01*
X12239029Y-37653744D02*
X12243791Y-37668030D01*
X12243791Y-37668030D02*
X12300934Y-37725173D01*
X12300934Y-37725173D02*
X12239029Y-37725173D01*
X11884505Y-33944697D02*
X11894029Y-33939935D01*
X11894029Y-33939935D02*
X11903553Y-33930411D01*
X11903553Y-33930411D02*
X11917839Y-33916125D01*
X11917839Y-33916125D02*
X11927363Y-33911363D01*
X11927363Y-33911363D02*
X11936886Y-33911363D01*
X11932124Y-33935173D02*
X11941648Y-33930411D01*
X11941648Y-33930411D02*
X11951172Y-33920887D01*
X11951172Y-33920887D02*
X11955934Y-33901840D01*
X11955934Y-33901840D02*
X11955934Y-33868506D01*
X11955934Y-33868506D02*
X11951172Y-33849459D01*
X11951172Y-33849459D02*
X11941648Y-33839935D01*
X11941648Y-33839935D02*
X11932124Y-33835173D01*
X11932124Y-33835173D02*
X11913077Y-33835173D01*
X11913077Y-33835173D02*
X11903553Y-33839935D01*
X11903553Y-33839935D02*
X11894029Y-33849459D01*
X11894029Y-33849459D02*
X11889267Y-33868506D01*
X11889267Y-33868506D02*
X11889267Y-33901840D01*
X11889267Y-33901840D02*
X11894029Y-33920887D01*
X11894029Y-33920887D02*
X11903553Y-33930411D01*
X11903553Y-33930411D02*
X11913077Y-33935173D01*
X11913077Y-33935173D02*
X11932124Y-33935173D01*
X11798791Y-33835173D02*
X11846410Y-33835173D01*
X11846410Y-33835173D02*
X11851172Y-33882792D01*
X11851172Y-33882792D02*
X11846410Y-33878030D01*
X11846410Y-33878030D02*
X11836886Y-33873268D01*
X11836886Y-33873268D02*
X11813077Y-33873268D01*
X11813077Y-33873268D02*
X11803553Y-33878030D01*
X11803553Y-33878030D02*
X11798791Y-33882792D01*
X11798791Y-33882792D02*
X11794029Y-33892316D01*
X11794029Y-33892316D02*
X11794029Y-33916125D01*
X11794029Y-33916125D02*
X11798791Y-33925649D01*
X11798791Y-33925649D02*
X11803553Y-33930411D01*
X11803553Y-33930411D02*
X11813077Y-33935173D01*
X11813077Y-33935173D02*
X11836886Y-33935173D01*
X11836886Y-33935173D02*
X11846410Y-33930411D01*
X11846410Y-33930411D02*
X11851172Y-33925649D01*
X11539505Y-37444697D02*
X11549029Y-37439935D01*
X11549029Y-37439935D02*
X11558553Y-37430411D01*
X11558553Y-37430411D02*
X11572839Y-37416125D01*
X11572839Y-37416125D02*
X11582363Y-37411363D01*
X11582363Y-37411363D02*
X11591886Y-37411363D01*
X11587124Y-37435173D02*
X11596648Y-37430411D01*
X11596648Y-37430411D02*
X11606172Y-37420887D01*
X11606172Y-37420887D02*
X11610934Y-37401840D01*
X11610934Y-37401840D02*
X11610934Y-37368506D01*
X11610934Y-37368506D02*
X11606172Y-37349459D01*
X11606172Y-37349459D02*
X11596648Y-37339935D01*
X11596648Y-37339935D02*
X11587124Y-37335173D01*
X11587124Y-37335173D02*
X11568077Y-37335173D01*
X11568077Y-37335173D02*
X11558553Y-37339935D01*
X11558553Y-37339935D02*
X11549029Y-37349459D01*
X11549029Y-37349459D02*
X11544267Y-37368506D01*
X11544267Y-37368506D02*
X11544267Y-37401840D01*
X11544267Y-37401840D02*
X11549029Y-37420887D01*
X11549029Y-37420887D02*
X11558553Y-37430411D01*
X11558553Y-37430411D02*
X11568077Y-37435173D01*
X11568077Y-37435173D02*
X11587124Y-37435173D01*
X11458553Y-37368506D02*
X11458553Y-37435173D01*
X11482363Y-37330411D02*
X11506172Y-37401840D01*
X11506172Y-37401840D02*
X11444267Y-37401840D01*
X10856648Y-40255173D02*
X10889982Y-40207554D01*
X10913791Y-40255173D02*
X10913791Y-40155173D01*
X10913791Y-40155173D02*
X10875696Y-40155173D01*
X10875696Y-40155173D02*
X10866172Y-40159935D01*
X10866172Y-40159935D02*
X10861410Y-40164697D01*
X10861410Y-40164697D02*
X10856648Y-40174221D01*
X10856648Y-40174221D02*
X10856648Y-40188506D01*
X10856648Y-40188506D02*
X10861410Y-40198030D01*
X10861410Y-40198030D02*
X10866172Y-40202792D01*
X10866172Y-40202792D02*
X10875696Y-40207554D01*
X10875696Y-40207554D02*
X10913791Y-40207554D01*
X10770934Y-40155173D02*
X10789982Y-40155173D01*
X10789982Y-40155173D02*
X10799505Y-40159935D01*
X10799505Y-40159935D02*
X10804267Y-40164697D01*
X10804267Y-40164697D02*
X10813791Y-40178982D01*
X10813791Y-40178982D02*
X10818553Y-40198030D01*
X10818553Y-40198030D02*
X10818553Y-40236125D01*
X10818553Y-40236125D02*
X10813791Y-40245649D01*
X10813791Y-40245649D02*
X10809029Y-40250411D01*
X10809029Y-40250411D02*
X10799505Y-40255173D01*
X10799505Y-40255173D02*
X10780458Y-40255173D01*
X10780458Y-40255173D02*
X10770934Y-40250411D01*
X10770934Y-40250411D02*
X10766172Y-40245649D01*
X10766172Y-40245649D02*
X10761410Y-40236125D01*
X10761410Y-40236125D02*
X10761410Y-40212316D01*
X10761410Y-40212316D02*
X10766172Y-40202792D01*
X10766172Y-40202792D02*
X10770934Y-40198030D01*
X10770934Y-40198030D02*
X10780458Y-40193268D01*
X10780458Y-40193268D02*
X10799505Y-40193268D01*
X10799505Y-40193268D02*
X10809029Y-40198030D01*
X10809029Y-40198030D02*
X10813791Y-40202792D01*
X10813791Y-40202792D02*
X10818553Y-40212316D01*
X12231648Y-40125649D02*
X12236410Y-40130411D01*
X12236410Y-40130411D02*
X12250696Y-40135173D01*
X12250696Y-40135173D02*
X12260220Y-40135173D01*
X12260220Y-40135173D02*
X12274505Y-40130411D01*
X12274505Y-40130411D02*
X12284029Y-40120887D01*
X12284029Y-40120887D02*
X12288791Y-40111363D01*
X12288791Y-40111363D02*
X12293553Y-40092316D01*
X12293553Y-40092316D02*
X12293553Y-40078030D01*
X12293553Y-40078030D02*
X12288791Y-40058982D01*
X12288791Y-40058982D02*
X12284029Y-40049459D01*
X12284029Y-40049459D02*
X12274505Y-40039935D01*
X12274505Y-40039935D02*
X12260220Y-40035173D01*
X12260220Y-40035173D02*
X12250696Y-40035173D01*
X12250696Y-40035173D02*
X12236410Y-40039935D01*
X12236410Y-40039935D02*
X12231648Y-40044697D01*
X12198315Y-40035173D02*
X12131648Y-40035173D01*
X12131648Y-40035173D02*
X12174505Y-40135173D01*
X12231648Y-36625649D02*
X12236410Y-36630411D01*
X12236410Y-36630411D02*
X12250696Y-36635173D01*
X12250696Y-36635173D02*
X12260220Y-36635173D01*
X12260220Y-36635173D02*
X12274505Y-36630411D01*
X12274505Y-36630411D02*
X12284029Y-36620887D01*
X12284029Y-36620887D02*
X12288791Y-36611363D01*
X12288791Y-36611363D02*
X12293553Y-36592316D01*
X12293553Y-36592316D02*
X12293553Y-36578030D01*
X12293553Y-36578030D02*
X12288791Y-36558982D01*
X12288791Y-36558982D02*
X12284029Y-36549459D01*
X12284029Y-36549459D02*
X12274505Y-36539935D01*
X12274505Y-36539935D02*
X12260220Y-36535173D01*
X12260220Y-36535173D02*
X12250696Y-36535173D01*
X12250696Y-36535173D02*
X12236410Y-36539935D01*
X12236410Y-36539935D02*
X12231648Y-36544697D01*
X12198315Y-36535173D02*
X12131648Y-36535173D01*
X12131648Y-36535173D02*
X12174505Y-36635173D01*
X10856648Y-29755173D02*
X10889982Y-29707554D01*
X10913791Y-29755173D02*
X10913791Y-29655173D01*
X10913791Y-29655173D02*
X10875696Y-29655173D01*
X10875696Y-29655173D02*
X10866172Y-29659935D01*
X10866172Y-29659935D02*
X10861410Y-29664697D01*
X10861410Y-29664697D02*
X10856648Y-29674220D01*
X10856648Y-29674220D02*
X10856648Y-29688506D01*
X10856648Y-29688506D02*
X10861410Y-29698030D01*
X10861410Y-29698030D02*
X10866172Y-29702792D01*
X10866172Y-29702792D02*
X10875696Y-29707554D01*
X10875696Y-29707554D02*
X10913791Y-29707554D01*
X10770934Y-29655173D02*
X10789982Y-29655173D01*
X10789982Y-29655173D02*
X10799505Y-29659935D01*
X10799505Y-29659935D02*
X10804267Y-29664697D01*
X10804267Y-29664697D02*
X10813791Y-29678982D01*
X10813791Y-29678982D02*
X10818553Y-29698030D01*
X10818553Y-29698030D02*
X10818553Y-29736125D01*
X10818553Y-29736125D02*
X10813791Y-29745649D01*
X10813791Y-29745649D02*
X10809029Y-29750411D01*
X10809029Y-29750411D02*
X10799505Y-29755173D01*
X10799505Y-29755173D02*
X10780458Y-29755173D01*
X10780458Y-29755173D02*
X10770934Y-29750411D01*
X10770934Y-29750411D02*
X10766172Y-29745649D01*
X10766172Y-29745649D02*
X10761410Y-29736125D01*
X10761410Y-29736125D02*
X10761410Y-29712316D01*
X10761410Y-29712316D02*
X10766172Y-29702792D01*
X10766172Y-29702792D02*
X10770934Y-29698030D01*
X10770934Y-29698030D02*
X10780458Y-29693268D01*
X10780458Y-29693268D02*
X10799505Y-29693268D01*
X10799505Y-29693268D02*
X10809029Y-29698030D01*
X10809029Y-29698030D02*
X10813791Y-29702792D01*
X10813791Y-29702792D02*
X10818553Y-29712316D01*
X11939267Y-37718173D02*
X11972601Y-37670554D01*
X11996410Y-37718173D02*
X11996410Y-37618173D01*
X11996410Y-37618173D02*
X11958315Y-37618173D01*
X11958315Y-37618173D02*
X11948791Y-37622935D01*
X11948791Y-37622935D02*
X11944029Y-37627697D01*
X11944029Y-37627697D02*
X11939267Y-37637221D01*
X11939267Y-37637221D02*
X11939267Y-37651506D01*
X11939267Y-37651506D02*
X11944029Y-37661030D01*
X11944029Y-37661030D02*
X11948791Y-37665792D01*
X11948791Y-37665792D02*
X11958315Y-37670554D01*
X11958315Y-37670554D02*
X11996410Y-37670554D01*
X11844029Y-37718173D02*
X11901172Y-37718173D01*
X11872601Y-37718173D02*
X11872601Y-37618173D01*
X11872601Y-37618173D02*
X11882124Y-37632459D01*
X11882124Y-37632459D02*
X11891648Y-37641982D01*
X11891648Y-37641982D02*
X11901172Y-37646744D01*
X11758315Y-37651506D02*
X11758315Y-37718173D01*
X11782124Y-37613411D02*
X11805934Y-37684840D01*
X11805934Y-37684840D02*
X11744029Y-37684840D01*
X12231648Y-29625649D02*
X12236410Y-29630411D01*
X12236410Y-29630411D02*
X12250696Y-29635173D01*
X12250696Y-29635173D02*
X12260220Y-29635173D01*
X12260220Y-29635173D02*
X12274505Y-29630411D01*
X12274505Y-29630411D02*
X12284029Y-29620887D01*
X12284029Y-29620887D02*
X12288791Y-29611363D01*
X12288791Y-29611363D02*
X12293553Y-29592316D01*
X12293553Y-29592316D02*
X12293553Y-29578030D01*
X12293553Y-29578030D02*
X12288791Y-29558982D01*
X12288791Y-29558982D02*
X12284029Y-29549459D01*
X12284029Y-29549459D02*
X12274505Y-29539935D01*
X12274505Y-29539935D02*
X12260220Y-29535173D01*
X12260220Y-29535173D02*
X12250696Y-29535173D01*
X12250696Y-29535173D02*
X12236410Y-29539935D01*
X12236410Y-29539935D02*
X12231648Y-29544697D01*
X12198315Y-29535173D02*
X12131648Y-29535173D01*
X12131648Y-29535173D02*
X12174505Y-29635173D01*
X11280482Y-5001666D02*
X11351910Y-5001666D01*
X11351910Y-5001666D02*
X11366196Y-4996904D01*
X11366196Y-4996904D02*
X11375720Y-4987381D01*
X11375720Y-4987381D02*
X11380482Y-4973095D01*
X11380482Y-4973095D02*
X11380482Y-4963571D01*
X11380482Y-5101666D02*
X11380482Y-5044524D01*
X11380482Y-5073095D02*
X11280482Y-5073095D01*
X11280482Y-5073095D02*
X11294768Y-5063571D01*
X11294768Y-5063571D02*
X11304291Y-5054047D01*
X11304291Y-5054047D02*
X11309053Y-5044524D01*
X12396172Y-34125173D02*
X12396172Y-34206125D01*
X12396172Y-34206125D02*
X12391410Y-34215649D01*
X12391410Y-34215649D02*
X12386648Y-34220411D01*
X12386648Y-34220411D02*
X12377124Y-34225173D01*
X12377124Y-34225173D02*
X12358077Y-34225173D01*
X12358077Y-34225173D02*
X12348553Y-34220411D01*
X12348553Y-34220411D02*
X12343791Y-34215649D01*
X12343791Y-34215649D02*
X12339029Y-34206125D01*
X12339029Y-34206125D02*
X12339029Y-34125173D01*
X12296172Y-34134697D02*
X12291410Y-34129935D01*
X12291410Y-34129935D02*
X12281886Y-34125173D01*
X12281886Y-34125173D02*
X12258077Y-34125173D01*
X12258077Y-34125173D02*
X12248553Y-34129935D01*
X12248553Y-34129935D02*
X12243791Y-34134697D01*
X12243791Y-34134697D02*
X12239029Y-34144221D01*
X12239029Y-34144221D02*
X12239029Y-34153744D01*
X12239029Y-34153744D02*
X12243791Y-34168030D01*
X12243791Y-34168030D02*
X12300934Y-34225173D01*
X12300934Y-34225173D02*
X12239029Y-34225173D01*
X10511648Y-29755173D02*
X10544982Y-29707554D01*
X10568791Y-29755173D02*
X10568791Y-29655173D01*
X10568791Y-29655173D02*
X10530696Y-29655173D01*
X10530696Y-29655173D02*
X10521172Y-29659935D01*
X10521172Y-29659935D02*
X10516410Y-29664697D01*
X10516410Y-29664697D02*
X10511648Y-29674220D01*
X10511648Y-29674220D02*
X10511648Y-29688506D01*
X10511648Y-29688506D02*
X10516410Y-29698030D01*
X10516410Y-29698030D02*
X10521172Y-29702792D01*
X10521172Y-29702792D02*
X10530696Y-29707554D01*
X10530696Y-29707554D02*
X10568791Y-29707554D01*
X10421172Y-29655173D02*
X10468791Y-29655173D01*
X10468791Y-29655173D02*
X10473553Y-29702792D01*
X10473553Y-29702792D02*
X10468791Y-29698030D01*
X10468791Y-29698030D02*
X10459267Y-29693268D01*
X10459267Y-29693268D02*
X10435458Y-29693268D01*
X10435458Y-29693268D02*
X10425934Y-29698030D01*
X10425934Y-29698030D02*
X10421172Y-29702792D01*
X10421172Y-29702792D02*
X10416410Y-29712316D01*
X10416410Y-29712316D02*
X10416410Y-29736125D01*
X10416410Y-29736125D02*
X10421172Y-29745649D01*
X10421172Y-29745649D02*
X10425934Y-29750411D01*
X10425934Y-29750411D02*
X10435458Y-29755173D01*
X10435458Y-29755173D02*
X10459267Y-29755173D01*
X10459267Y-29755173D02*
X10468791Y-29750411D01*
X10468791Y-29750411D02*
X10473553Y-29745649D01*
X11891648Y-33255173D02*
X11924982Y-33207554D01*
X11948791Y-33255173D02*
X11948791Y-33155173D01*
X11948791Y-33155173D02*
X11910696Y-33155173D01*
X11910696Y-33155173D02*
X11901172Y-33159935D01*
X11901172Y-33159935D02*
X11896410Y-33164697D01*
X11896410Y-33164697D02*
X11891648Y-33174220D01*
X11891648Y-33174220D02*
X11891648Y-33188506D01*
X11891648Y-33188506D02*
X11896410Y-33198030D01*
X11896410Y-33198030D02*
X11901172Y-33202792D01*
X11901172Y-33202792D02*
X11910696Y-33207554D01*
X11910696Y-33207554D02*
X11948791Y-33207554D01*
X11844029Y-33255173D02*
X11824982Y-33255173D01*
X11824982Y-33255173D02*
X11815458Y-33250411D01*
X11815458Y-33250411D02*
X11810696Y-33245649D01*
X11810696Y-33245649D02*
X11801172Y-33231363D01*
X11801172Y-33231363D02*
X11796410Y-33212316D01*
X11796410Y-33212316D02*
X11796410Y-33174220D01*
X11796410Y-33174220D02*
X11801172Y-33164697D01*
X11801172Y-33164697D02*
X11805934Y-33159935D01*
X11805934Y-33159935D02*
X11815458Y-33155173D01*
X11815458Y-33155173D02*
X11834505Y-33155173D01*
X11834505Y-33155173D02*
X11844029Y-33159935D01*
X11844029Y-33159935D02*
X11848791Y-33164697D01*
X11848791Y-33164697D02*
X11853553Y-33174220D01*
X11853553Y-33174220D02*
X11853553Y-33198030D01*
X11853553Y-33198030D02*
X11848791Y-33207554D01*
X11848791Y-33207554D02*
X11844029Y-33212316D01*
X11844029Y-33212316D02*
X11834505Y-33217078D01*
X11834505Y-33217078D02*
X11815458Y-33217078D01*
X11815458Y-33217078D02*
X11805934Y-33212316D01*
X11805934Y-33212316D02*
X11801172Y-33207554D01*
X11801172Y-33207554D02*
X11796410Y-33198030D01*
X11939267Y-41218173D02*
X11972601Y-41170554D01*
X11996410Y-41218173D02*
X11996410Y-41118173D01*
X11996410Y-41118173D02*
X11958315Y-41118173D01*
X11958315Y-41118173D02*
X11948791Y-41122935D01*
X11948791Y-41122935D02*
X11944029Y-41127697D01*
X11944029Y-41127697D02*
X11939267Y-41137221D01*
X11939267Y-41137221D02*
X11939267Y-41151506D01*
X11939267Y-41151506D02*
X11944029Y-41161030D01*
X11944029Y-41161030D02*
X11948791Y-41165792D01*
X11948791Y-41165792D02*
X11958315Y-41170554D01*
X11958315Y-41170554D02*
X11996410Y-41170554D01*
X11844029Y-41218173D02*
X11901172Y-41218173D01*
X11872601Y-41218173D02*
X11872601Y-41118173D01*
X11872601Y-41118173D02*
X11882124Y-41132459D01*
X11882124Y-41132459D02*
X11891648Y-41141982D01*
X11891648Y-41141982D02*
X11901172Y-41146744D01*
X11758315Y-41151506D02*
X11758315Y-41218173D01*
X11782124Y-41113411D02*
X11805934Y-41184840D01*
X11805934Y-41184840D02*
X11744029Y-41184840D01*
X11249267Y-37718173D02*
X11282601Y-37670554D01*
X11306410Y-37718173D02*
X11306410Y-37618173D01*
X11306410Y-37618173D02*
X11268315Y-37618173D01*
X11268315Y-37618173D02*
X11258791Y-37622935D01*
X11258791Y-37622935D02*
X11254029Y-37627697D01*
X11254029Y-37627697D02*
X11249267Y-37637221D01*
X11249267Y-37637221D02*
X11249267Y-37651506D01*
X11249267Y-37651506D02*
X11254029Y-37661030D01*
X11254029Y-37661030D02*
X11258791Y-37665792D01*
X11258791Y-37665792D02*
X11268315Y-37670554D01*
X11268315Y-37670554D02*
X11306410Y-37670554D01*
X11154029Y-37718173D02*
X11211172Y-37718173D01*
X11182601Y-37718173D02*
X11182601Y-37618173D01*
X11182601Y-37618173D02*
X11192124Y-37632459D01*
X11192124Y-37632459D02*
X11201648Y-37641982D01*
X11201648Y-37641982D02*
X11211172Y-37646744D01*
X11115934Y-37627697D02*
X11111172Y-37622935D01*
X11111172Y-37622935D02*
X11101648Y-37618173D01*
X11101648Y-37618173D02*
X11077839Y-37618173D01*
X11077839Y-37618173D02*
X11068315Y-37622935D01*
X11068315Y-37622935D02*
X11063553Y-37627697D01*
X11063553Y-37627697D02*
X11058791Y-37637221D01*
X11058791Y-37637221D02*
X11058791Y-37646744D01*
X11058791Y-37646744D02*
X11063553Y-37661030D01*
X11063553Y-37661030D02*
X11120696Y-37718173D01*
X11120696Y-37718173D02*
X11058791Y-37718173D01*
X11201648Y-29670173D02*
X11234982Y-29622554D01*
X11258791Y-29670173D02*
X11258791Y-29570173D01*
X11258791Y-29570173D02*
X11220696Y-29570173D01*
X11220696Y-29570173D02*
X11211172Y-29574935D01*
X11211172Y-29574935D02*
X11206410Y-29579697D01*
X11206410Y-29579697D02*
X11201648Y-29589220D01*
X11201648Y-29589220D02*
X11201648Y-29603506D01*
X11201648Y-29603506D02*
X11206410Y-29613030D01*
X11206410Y-29613030D02*
X11211172Y-29617792D01*
X11211172Y-29617792D02*
X11220696Y-29622554D01*
X11220696Y-29622554D02*
X11258791Y-29622554D01*
X11168315Y-29570173D02*
X11101648Y-29570173D01*
X11101648Y-29570173D02*
X11144505Y-29670173D01*
X10849506Y-40944697D02*
X10859029Y-40939935D01*
X10859029Y-40939935D02*
X10868553Y-40930411D01*
X10868553Y-40930411D02*
X10882839Y-40916125D01*
X10882839Y-40916125D02*
X10892363Y-40911363D01*
X10892363Y-40911363D02*
X10901886Y-40911363D01*
X10897125Y-40935173D02*
X10906648Y-40930411D01*
X10906648Y-40930411D02*
X10916172Y-40920887D01*
X10916172Y-40920887D02*
X10920934Y-40901840D01*
X10920934Y-40901840D02*
X10920934Y-40868506D01*
X10920934Y-40868506D02*
X10916172Y-40849459D01*
X10916172Y-40849459D02*
X10906648Y-40839935D01*
X10906648Y-40839935D02*
X10897125Y-40835173D01*
X10897125Y-40835173D02*
X10878077Y-40835173D01*
X10878077Y-40835173D02*
X10868553Y-40839935D01*
X10868553Y-40839935D02*
X10859029Y-40849459D01*
X10859029Y-40849459D02*
X10854267Y-40868506D01*
X10854267Y-40868506D02*
X10854267Y-40901840D01*
X10854267Y-40901840D02*
X10859029Y-40920887D01*
X10859029Y-40920887D02*
X10868553Y-40930411D01*
X10868553Y-40930411D02*
X10878077Y-40935173D01*
X10878077Y-40935173D02*
X10897125Y-40935173D01*
X10816172Y-40844697D02*
X10811410Y-40839935D01*
X10811410Y-40839935D02*
X10801886Y-40835173D01*
X10801886Y-40835173D02*
X10778077Y-40835173D01*
X10778077Y-40835173D02*
X10768553Y-40839935D01*
X10768553Y-40839935D02*
X10763791Y-40844697D01*
X10763791Y-40844697D02*
X10759029Y-40854221D01*
X10759029Y-40854221D02*
X10759029Y-40863744D01*
X10759029Y-40863744D02*
X10763791Y-40878030D01*
X10763791Y-40878030D02*
X10820934Y-40935173D01*
X10820934Y-40935173D02*
X10759029Y-40935173D01*
X10559267Y-37718173D02*
X10592601Y-37670554D01*
X10616410Y-37718173D02*
X10616410Y-37618173D01*
X10616410Y-37618173D02*
X10578315Y-37618173D01*
X10578315Y-37618173D02*
X10568791Y-37622935D01*
X10568791Y-37622935D02*
X10564029Y-37627697D01*
X10564029Y-37627697D02*
X10559267Y-37637221D01*
X10559267Y-37637221D02*
X10559267Y-37651506D01*
X10559267Y-37651506D02*
X10564029Y-37661030D01*
X10564029Y-37661030D02*
X10568791Y-37665792D01*
X10568791Y-37665792D02*
X10578315Y-37670554D01*
X10578315Y-37670554D02*
X10616410Y-37670554D01*
X10464029Y-37718173D02*
X10521172Y-37718173D01*
X10492601Y-37718173D02*
X10492601Y-37618173D01*
X10492601Y-37618173D02*
X10502125Y-37632459D01*
X10502125Y-37632459D02*
X10511648Y-37641982D01*
X10511648Y-37641982D02*
X10521172Y-37646744D01*
X10402125Y-37618173D02*
X10392601Y-37618173D01*
X10392601Y-37618173D02*
X10383077Y-37622935D01*
X10383077Y-37622935D02*
X10378315Y-37627697D01*
X10378315Y-37627697D02*
X10373553Y-37637221D01*
X10373553Y-37637221D02*
X10368791Y-37656268D01*
X10368791Y-37656268D02*
X10368791Y-37680078D01*
X10368791Y-37680078D02*
X10373553Y-37699125D01*
X10373553Y-37699125D02*
X10378315Y-37708649D01*
X10378315Y-37708649D02*
X10383077Y-37713411D01*
X10383077Y-37713411D02*
X10392601Y-37718173D01*
X10392601Y-37718173D02*
X10402125Y-37718173D01*
X10402125Y-37718173D02*
X10411648Y-37713411D01*
X10411648Y-37713411D02*
X10416410Y-37708649D01*
X10416410Y-37708649D02*
X10421172Y-37699125D01*
X10421172Y-37699125D02*
X10425934Y-37680078D01*
X10425934Y-37680078D02*
X10425934Y-37656268D01*
X10425934Y-37656268D02*
X10421172Y-37637221D01*
X10421172Y-37637221D02*
X10416410Y-37627697D01*
X10416410Y-37627697D02*
X10411648Y-37622935D01*
X10411648Y-37622935D02*
X10402125Y-37618173D01*
X12396172Y-30625173D02*
X12396172Y-30706125D01*
X12396172Y-30706125D02*
X12391410Y-30715649D01*
X12391410Y-30715649D02*
X12386648Y-30720411D01*
X12386648Y-30720411D02*
X12377124Y-30725173D01*
X12377124Y-30725173D02*
X12358077Y-30725173D01*
X12358077Y-30725173D02*
X12348553Y-30720411D01*
X12348553Y-30720411D02*
X12343791Y-30715649D01*
X12343791Y-30715649D02*
X12339029Y-30706125D01*
X12339029Y-30706125D02*
X12339029Y-30625173D01*
X12296172Y-30634697D02*
X12291410Y-30629935D01*
X12291410Y-30629935D02*
X12281886Y-30625173D01*
X12281886Y-30625173D02*
X12258077Y-30625173D01*
X12258077Y-30625173D02*
X12248553Y-30629935D01*
X12248553Y-30629935D02*
X12243791Y-30634697D01*
X12243791Y-30634697D02*
X12239029Y-30644220D01*
X12239029Y-30644220D02*
X12239029Y-30653744D01*
X12239029Y-30653744D02*
X12243791Y-30668030D01*
X12243791Y-30668030D02*
X12300934Y-30725173D01*
X12300934Y-30725173D02*
X12239029Y-30725173D01*
X10504506Y-40944697D02*
X10514029Y-40939935D01*
X10514029Y-40939935D02*
X10523553Y-40930411D01*
X10523553Y-40930411D02*
X10537839Y-40916125D01*
X10537839Y-40916125D02*
X10547363Y-40911363D01*
X10547363Y-40911363D02*
X10556886Y-40911363D01*
X10552125Y-40935173D02*
X10561648Y-40930411D01*
X10561648Y-40930411D02*
X10571172Y-40920887D01*
X10571172Y-40920887D02*
X10575934Y-40901840D01*
X10575934Y-40901840D02*
X10575934Y-40868506D01*
X10575934Y-40868506D02*
X10571172Y-40849459D01*
X10571172Y-40849459D02*
X10561648Y-40839935D01*
X10561648Y-40839935D02*
X10552125Y-40835173D01*
X10552125Y-40835173D02*
X10533077Y-40835173D01*
X10533077Y-40835173D02*
X10523553Y-40839935D01*
X10523553Y-40839935D02*
X10514029Y-40849459D01*
X10514029Y-40849459D02*
X10509267Y-40868506D01*
X10509267Y-40868506D02*
X10509267Y-40901840D01*
X10509267Y-40901840D02*
X10514029Y-40920887D01*
X10514029Y-40920887D02*
X10523553Y-40930411D01*
X10523553Y-40930411D02*
X10533077Y-40935173D01*
X10533077Y-40935173D02*
X10552125Y-40935173D01*
X10414029Y-40935173D02*
X10471172Y-40935173D01*
X10442601Y-40935173D02*
X10442601Y-40835173D01*
X10442601Y-40835173D02*
X10452125Y-40849459D01*
X10452125Y-40849459D02*
X10461648Y-40858982D01*
X10461648Y-40858982D02*
X10471172Y-40863744D01*
X10511648Y-33255173D02*
X10544982Y-33207554D01*
X10568791Y-33255173D02*
X10568791Y-33155173D01*
X10568791Y-33155173D02*
X10530696Y-33155173D01*
X10530696Y-33155173D02*
X10521172Y-33159935D01*
X10521172Y-33159935D02*
X10516410Y-33164697D01*
X10516410Y-33164697D02*
X10511648Y-33174220D01*
X10511648Y-33174220D02*
X10511648Y-33188506D01*
X10511648Y-33188506D02*
X10516410Y-33198030D01*
X10516410Y-33198030D02*
X10521172Y-33202792D01*
X10521172Y-33202792D02*
X10530696Y-33207554D01*
X10530696Y-33207554D02*
X10568791Y-33207554D01*
X10421172Y-33155173D02*
X10468791Y-33155173D01*
X10468791Y-33155173D02*
X10473553Y-33202792D01*
X10473553Y-33202792D02*
X10468791Y-33198030D01*
X10468791Y-33198030D02*
X10459267Y-33193268D01*
X10459267Y-33193268D02*
X10435458Y-33193268D01*
X10435458Y-33193268D02*
X10425934Y-33198030D01*
X10425934Y-33198030D02*
X10421172Y-33202792D01*
X10421172Y-33202792D02*
X10416410Y-33212316D01*
X10416410Y-33212316D02*
X10416410Y-33236125D01*
X10416410Y-33236125D02*
X10421172Y-33245649D01*
X10421172Y-33245649D02*
X10425934Y-33250411D01*
X10425934Y-33250411D02*
X10435458Y-33255173D01*
X10435458Y-33255173D02*
X10459267Y-33255173D01*
X10459267Y-33255173D02*
X10468791Y-33250411D01*
X10468791Y-33250411D02*
X10473553Y-33245649D01*
X3280013Y-15613482D02*
X3313346Y-15565862D01*
X3337155Y-15613482D02*
X3337155Y-15513482D01*
X3337155Y-15513482D02*
X3299060Y-15513482D01*
X3299060Y-15513482D02*
X3289536Y-15518243D01*
X3289536Y-15518243D02*
X3284774Y-15523005D01*
X3284774Y-15523005D02*
X3280013Y-15532529D01*
X3280013Y-15532529D02*
X3280013Y-15546815D01*
X3280013Y-15546815D02*
X3284774Y-15556339D01*
X3284774Y-15556339D02*
X3289536Y-15561101D01*
X3289536Y-15561101D02*
X3299060Y-15565862D01*
X3299060Y-15565862D02*
X3337155Y-15565862D01*
X3237155Y-15575386D02*
X3160965Y-15575386D01*
X3122870Y-15546815D02*
X3099060Y-15613482D01*
X3099060Y-15613482D02*
X3075251Y-15546815D01*
X3041917Y-15523005D02*
X3037155Y-15518243D01*
X3037155Y-15518243D02*
X3027632Y-15513482D01*
X3027632Y-15513482D02*
X3003822Y-15513482D01*
X3003822Y-15513482D02*
X2994298Y-15518243D01*
X2994298Y-15518243D02*
X2989536Y-15523005D01*
X2989536Y-15523005D02*
X2984774Y-15532529D01*
X2984774Y-15532529D02*
X2984774Y-15542053D01*
X2984774Y-15542053D02*
X2989536Y-15556339D01*
X2989536Y-15556339D02*
X3046679Y-15613482D01*
X3046679Y-15613482D02*
X2984774Y-15613482D01*
X2941917Y-15575386D02*
X2865727Y-15575386D01*
X2803822Y-15556339D02*
X2813346Y-15551577D01*
X2813346Y-15551577D02*
X2818108Y-15546815D01*
X2818108Y-15546815D02*
X2822870Y-15537291D01*
X2822870Y-15537291D02*
X2822870Y-15532529D01*
X2822870Y-15532529D02*
X2818108Y-15523005D01*
X2818108Y-15523005D02*
X2813346Y-15518243D01*
X2813346Y-15518243D02*
X2803822Y-15513482D01*
X2803822Y-15513482D02*
X2784775Y-15513482D01*
X2784775Y-15513482D02*
X2775251Y-15518243D01*
X2775251Y-15518243D02*
X2770489Y-15523005D01*
X2770489Y-15523005D02*
X2765727Y-15532529D01*
X2765727Y-15532529D02*
X2765727Y-15537291D01*
X2765727Y-15537291D02*
X2770489Y-15546815D01*
X2770489Y-15546815D02*
X2775251Y-15551577D01*
X2775251Y-15551577D02*
X2784775Y-15556339D01*
X2784775Y-15556339D02*
X2803822Y-15556339D01*
X2803822Y-15556339D02*
X2813346Y-15561101D01*
X2813346Y-15561101D02*
X2818108Y-15565862D01*
X2818108Y-15565862D02*
X2822870Y-15575386D01*
X2822870Y-15575386D02*
X2822870Y-15594434D01*
X2822870Y-15594434D02*
X2818108Y-15603958D01*
X2818108Y-15603958D02*
X2813346Y-15608720D01*
X2813346Y-15608720D02*
X2803822Y-15613482D01*
X2803822Y-15613482D02*
X2784775Y-15613482D01*
X2784775Y-15613482D02*
X2775251Y-15608720D01*
X2775251Y-15608720D02*
X2770489Y-15603958D01*
X2770489Y-15603958D02*
X2765727Y-15594434D01*
X2765727Y-15594434D02*
X2765727Y-15575386D01*
X2765727Y-15575386D02*
X2770489Y-15565862D01*
X2770489Y-15565862D02*
X2775251Y-15561101D01*
X2775251Y-15561101D02*
X2784775Y-15556339D01*
X10559267Y-41218173D02*
X10592601Y-41170554D01*
X10616410Y-41218173D02*
X10616410Y-41118173D01*
X10616410Y-41118173D02*
X10578315Y-41118173D01*
X10578315Y-41118173D02*
X10568791Y-41122935D01*
X10568791Y-41122935D02*
X10564029Y-41127697D01*
X10564029Y-41127697D02*
X10559267Y-41137221D01*
X10559267Y-41137221D02*
X10559267Y-41151506D01*
X10559267Y-41151506D02*
X10564029Y-41161030D01*
X10564029Y-41161030D02*
X10568791Y-41165792D01*
X10568791Y-41165792D02*
X10578315Y-41170554D01*
X10578315Y-41170554D02*
X10616410Y-41170554D01*
X10464029Y-41218173D02*
X10521172Y-41218173D01*
X10492601Y-41218173D02*
X10492601Y-41118173D01*
X10492601Y-41118173D02*
X10502125Y-41132459D01*
X10502125Y-41132459D02*
X10511648Y-41141982D01*
X10511648Y-41141982D02*
X10521172Y-41146744D01*
X10402125Y-41118173D02*
X10392601Y-41118173D01*
X10392601Y-41118173D02*
X10383077Y-41122935D01*
X10383077Y-41122935D02*
X10378315Y-41127697D01*
X10378315Y-41127697D02*
X10373553Y-41137221D01*
X10373553Y-41137221D02*
X10368791Y-41156268D01*
X10368791Y-41156268D02*
X10368791Y-41180078D01*
X10368791Y-41180078D02*
X10373553Y-41199125D01*
X10373553Y-41199125D02*
X10378315Y-41208649D01*
X10378315Y-41208649D02*
X10383077Y-41213411D01*
X10383077Y-41213411D02*
X10392601Y-41218173D01*
X10392601Y-41218173D02*
X10402125Y-41218173D01*
X10402125Y-41218173D02*
X10411648Y-41213411D01*
X10411648Y-41213411D02*
X10416410Y-41208649D01*
X10416410Y-41208649D02*
X10421172Y-41199125D01*
X10421172Y-41199125D02*
X10425934Y-41180078D01*
X10425934Y-41180078D02*
X10425934Y-41156268D01*
X10425934Y-41156268D02*
X10421172Y-41137221D01*
X10421172Y-41137221D02*
X10416410Y-41127697D01*
X10416410Y-41127697D02*
X10411648Y-41122935D01*
X10411648Y-41122935D02*
X10402125Y-41118173D01*
X10856648Y-36755173D02*
X10889982Y-36707554D01*
X10913791Y-36755173D02*
X10913791Y-36655173D01*
X10913791Y-36655173D02*
X10875696Y-36655173D01*
X10875696Y-36655173D02*
X10866172Y-36659935D01*
X10866172Y-36659935D02*
X10861410Y-36664697D01*
X10861410Y-36664697D02*
X10856648Y-36674221D01*
X10856648Y-36674221D02*
X10856648Y-36688506D01*
X10856648Y-36688506D02*
X10861410Y-36698030D01*
X10861410Y-36698030D02*
X10866172Y-36702792D01*
X10866172Y-36702792D02*
X10875696Y-36707554D01*
X10875696Y-36707554D02*
X10913791Y-36707554D01*
X10770934Y-36655173D02*
X10789982Y-36655173D01*
X10789982Y-36655173D02*
X10799505Y-36659935D01*
X10799505Y-36659935D02*
X10804267Y-36664697D01*
X10804267Y-36664697D02*
X10813791Y-36678982D01*
X10813791Y-36678982D02*
X10818553Y-36698030D01*
X10818553Y-36698030D02*
X10818553Y-36736125D01*
X10818553Y-36736125D02*
X10813791Y-36745649D01*
X10813791Y-36745649D02*
X10809029Y-36750411D01*
X10809029Y-36750411D02*
X10799505Y-36755173D01*
X10799505Y-36755173D02*
X10780458Y-36755173D01*
X10780458Y-36755173D02*
X10770934Y-36750411D01*
X10770934Y-36750411D02*
X10766172Y-36745649D01*
X10766172Y-36745649D02*
X10761410Y-36736125D01*
X10761410Y-36736125D02*
X10761410Y-36712316D01*
X10761410Y-36712316D02*
X10766172Y-36702792D01*
X10766172Y-36702792D02*
X10770934Y-36698030D01*
X10770934Y-36698030D02*
X10780458Y-36693268D01*
X10780458Y-36693268D02*
X10799505Y-36693268D01*
X10799505Y-36693268D02*
X10809029Y-36698030D01*
X10809029Y-36698030D02*
X10813791Y-36702792D01*
X10813791Y-36702792D02*
X10818553Y-36712316D01*
X11594267Y-41218173D02*
X11627601Y-41170554D01*
X11651410Y-41218173D02*
X11651410Y-41118173D01*
X11651410Y-41118173D02*
X11613315Y-41118173D01*
X11613315Y-41118173D02*
X11603791Y-41122935D01*
X11603791Y-41122935D02*
X11599029Y-41127697D01*
X11599029Y-41127697D02*
X11594267Y-41137221D01*
X11594267Y-41137221D02*
X11594267Y-41151506D01*
X11594267Y-41151506D02*
X11599029Y-41161030D01*
X11599029Y-41161030D02*
X11603791Y-41165792D01*
X11603791Y-41165792D02*
X11613315Y-41170554D01*
X11613315Y-41170554D02*
X11651410Y-41170554D01*
X11499029Y-41218173D02*
X11556172Y-41218173D01*
X11527601Y-41218173D02*
X11527601Y-41118173D01*
X11527601Y-41118173D02*
X11537124Y-41132459D01*
X11537124Y-41132459D02*
X11546648Y-41141982D01*
X11546648Y-41141982D02*
X11556172Y-41146744D01*
X11465696Y-41118173D02*
X11403791Y-41118173D01*
X11403791Y-41118173D02*
X11437124Y-41156268D01*
X11437124Y-41156268D02*
X11422839Y-41156268D01*
X11422839Y-41156268D02*
X11413315Y-41161030D01*
X11413315Y-41161030D02*
X11408553Y-41165792D01*
X11408553Y-41165792D02*
X11403791Y-41175316D01*
X11403791Y-41175316D02*
X11403791Y-41199125D01*
X11403791Y-41199125D02*
X11408553Y-41208649D01*
X11408553Y-41208649D02*
X11413315Y-41213411D01*
X11413315Y-41213411D02*
X11422839Y-41218173D01*
X11422839Y-41218173D02*
X11451410Y-41218173D01*
X11451410Y-41218173D02*
X11460934Y-41213411D01*
X11460934Y-41213411D02*
X11465696Y-41208649D01*
X10511648Y-36755173D02*
X10544982Y-36707554D01*
X10568791Y-36755173D02*
X10568791Y-36655173D01*
X10568791Y-36655173D02*
X10530696Y-36655173D01*
X10530696Y-36655173D02*
X10521172Y-36659935D01*
X10521172Y-36659935D02*
X10516410Y-36664697D01*
X10516410Y-36664697D02*
X10511648Y-36674221D01*
X10511648Y-36674221D02*
X10511648Y-36688506D01*
X10511648Y-36688506D02*
X10516410Y-36698030D01*
X10516410Y-36698030D02*
X10521172Y-36702792D01*
X10521172Y-36702792D02*
X10530696Y-36707554D01*
X10530696Y-36707554D02*
X10568791Y-36707554D01*
X10421172Y-36655173D02*
X10468791Y-36655173D01*
X10468791Y-36655173D02*
X10473553Y-36702792D01*
X10473553Y-36702792D02*
X10468791Y-36698030D01*
X10468791Y-36698030D02*
X10459267Y-36693268D01*
X10459267Y-36693268D02*
X10435458Y-36693268D01*
X10435458Y-36693268D02*
X10425934Y-36698030D01*
X10425934Y-36698030D02*
X10421172Y-36702792D01*
X10421172Y-36702792D02*
X10416410Y-36712316D01*
X10416410Y-36712316D02*
X10416410Y-36736125D01*
X10416410Y-36736125D02*
X10421172Y-36745649D01*
X10421172Y-36745649D02*
X10425934Y-36750411D01*
X10425934Y-36750411D02*
X10435458Y-36755173D01*
X10435458Y-36755173D02*
X10459267Y-36755173D01*
X10459267Y-36755173D02*
X10468791Y-36750411D01*
X10468791Y-36750411D02*
X10473553Y-36745649D01*
X13391013Y-9368482D02*
X13424346Y-9320863D01*
X13448155Y-9368482D02*
X13448155Y-9268482D01*
X13448155Y-9268482D02*
X13410060Y-9268482D01*
X13410060Y-9268482D02*
X13400536Y-9273244D01*
X13400536Y-9273244D02*
X13395774Y-9278005D01*
X13395774Y-9278005D02*
X13391013Y-9287529D01*
X13391013Y-9287529D02*
X13391013Y-9301815D01*
X13391013Y-9301815D02*
X13395774Y-9311339D01*
X13395774Y-9311339D02*
X13400536Y-9316101D01*
X13400536Y-9316101D02*
X13410060Y-9320863D01*
X13410060Y-9320863D02*
X13448155Y-9320863D01*
X13348155Y-9330386D02*
X13271965Y-9330386D01*
X13233870Y-9301815D02*
X13210060Y-9368482D01*
X13210060Y-9368482D02*
X13186251Y-9301815D01*
X13095774Y-9368482D02*
X13152917Y-9368482D01*
X13124346Y-9368482D02*
X13124346Y-9268482D01*
X13124346Y-9268482D02*
X13133870Y-9282767D01*
X13133870Y-9282767D02*
X13143393Y-9292291D01*
X13143393Y-9292291D02*
X13152917Y-9297053D01*
X13052917Y-9330386D02*
X12976727Y-9330386D01*
X12886251Y-9268482D02*
X12905298Y-9268482D01*
X12905298Y-9268482D02*
X12914822Y-9273244D01*
X12914822Y-9273244D02*
X12919584Y-9278005D01*
X12919584Y-9278005D02*
X12929108Y-9292291D01*
X12929108Y-9292291D02*
X12933870Y-9311339D01*
X12933870Y-9311339D02*
X12933870Y-9349434D01*
X12933870Y-9349434D02*
X12929108Y-9358958D01*
X12929108Y-9358958D02*
X12924346Y-9363720D01*
X12924346Y-9363720D02*
X12914822Y-9368482D01*
X12914822Y-9368482D02*
X12895774Y-9368482D01*
X12895774Y-9368482D02*
X12886251Y-9363720D01*
X12886251Y-9363720D02*
X12881489Y-9358958D01*
X12881489Y-9358958D02*
X12876727Y-9349434D01*
X12876727Y-9349434D02*
X12876727Y-9325624D01*
X12876727Y-9325624D02*
X12881489Y-9316101D01*
X12881489Y-9316101D02*
X12886251Y-9311339D01*
X12886251Y-9311339D02*
X12895774Y-9306577D01*
X12895774Y-9306577D02*
X12914822Y-9306577D01*
X12914822Y-9306577D02*
X12924346Y-9311339D01*
X12924346Y-9311339D02*
X12929108Y-9316101D01*
X12929108Y-9316101D02*
X12933870Y-9325624D01*
X11241804Y-11101666D02*
X11313233Y-11101666D01*
X11313233Y-11101666D02*
X11327518Y-11096904D01*
X11327518Y-11096904D02*
X11337042Y-11087381D01*
X11337042Y-11087381D02*
X11341804Y-11073095D01*
X11341804Y-11073095D02*
X11341804Y-11063571D01*
X11341804Y-11201666D02*
X11341804Y-11144524D01*
X11341804Y-11173095D02*
X11241804Y-11173095D01*
X11241804Y-11173095D02*
X11256090Y-11163571D01*
X11256090Y-11163571D02*
X11265614Y-11154047D01*
X11265614Y-11154047D02*
X11270375Y-11144524D01*
X10504506Y-30444697D02*
X10514029Y-30439935D01*
X10514029Y-30439935D02*
X10523553Y-30430411D01*
X10523553Y-30430411D02*
X10537839Y-30416125D01*
X10537839Y-30416125D02*
X10547363Y-30411363D01*
X10547363Y-30411363D02*
X10556886Y-30411363D01*
X10552125Y-30435173D02*
X10561648Y-30430411D01*
X10561648Y-30430411D02*
X10571172Y-30420887D01*
X10571172Y-30420887D02*
X10575934Y-30401839D01*
X10575934Y-30401839D02*
X10575934Y-30368506D01*
X10575934Y-30368506D02*
X10571172Y-30349459D01*
X10571172Y-30349459D02*
X10561648Y-30339935D01*
X10561648Y-30339935D02*
X10552125Y-30335173D01*
X10552125Y-30335173D02*
X10533077Y-30335173D01*
X10533077Y-30335173D02*
X10523553Y-30339935D01*
X10523553Y-30339935D02*
X10514029Y-30349459D01*
X10514029Y-30349459D02*
X10509267Y-30368506D01*
X10509267Y-30368506D02*
X10509267Y-30401839D01*
X10509267Y-30401839D02*
X10514029Y-30420887D01*
X10514029Y-30420887D02*
X10523553Y-30430411D01*
X10523553Y-30430411D02*
X10533077Y-30435173D01*
X10533077Y-30435173D02*
X10552125Y-30435173D01*
X10414029Y-30435173D02*
X10471172Y-30435173D01*
X10442601Y-30435173D02*
X10442601Y-30335173D01*
X10442601Y-30335173D02*
X10452125Y-30349459D01*
X10452125Y-30349459D02*
X10461648Y-30358982D01*
X10461648Y-30358982D02*
X10471172Y-30363744D01*
X3728632Y-15002482D02*
X3761965Y-14954862D01*
X3785774Y-15002482D02*
X3785774Y-14902482D01*
X3785774Y-14902482D02*
X3747679Y-14902482D01*
X3747679Y-14902482D02*
X3738155Y-14907243D01*
X3738155Y-14907243D02*
X3733394Y-14912005D01*
X3733394Y-14912005D02*
X3728632Y-14921529D01*
X3728632Y-14921529D02*
X3728632Y-14935815D01*
X3728632Y-14935815D02*
X3733394Y-14945339D01*
X3733394Y-14945339D02*
X3738155Y-14950101D01*
X3738155Y-14950101D02*
X3747679Y-14954862D01*
X3747679Y-14954862D02*
X3785774Y-14954862D01*
X3685774Y-14964386D02*
X3609584Y-14964386D01*
X3571489Y-14935815D02*
X3547679Y-15002482D01*
X3547679Y-15002482D02*
X3523870Y-14935815D01*
X3490536Y-14912005D02*
X3485774Y-14907243D01*
X3485774Y-14907243D02*
X3476251Y-14902482D01*
X3476251Y-14902482D02*
X3452441Y-14902482D01*
X3452441Y-14902482D02*
X3442917Y-14907243D01*
X3442917Y-14907243D02*
X3438155Y-14912005D01*
X3438155Y-14912005D02*
X3433394Y-14921529D01*
X3433394Y-14921529D02*
X3433394Y-14931053D01*
X3433394Y-14931053D02*
X3438155Y-14945339D01*
X3438155Y-14945339D02*
X3495298Y-15002482D01*
X3495298Y-15002482D02*
X3433394Y-15002482D01*
X3390536Y-14964386D02*
X3314346Y-14964386D01*
X3214346Y-15002482D02*
X3271489Y-15002482D01*
X3242917Y-15002482D02*
X3242917Y-14902482D01*
X3242917Y-14902482D02*
X3252441Y-14916767D01*
X3252441Y-14916767D02*
X3261965Y-14926291D01*
X3261965Y-14926291D02*
X3271489Y-14931053D01*
X3176251Y-14912005D02*
X3171489Y-14907243D01*
X3171489Y-14907243D02*
X3161965Y-14902482D01*
X3161965Y-14902482D02*
X3138155Y-14902482D01*
X3138155Y-14902482D02*
X3128632Y-14907243D01*
X3128632Y-14907243D02*
X3123870Y-14912005D01*
X3123870Y-14912005D02*
X3119108Y-14921529D01*
X3119108Y-14921529D02*
X3119108Y-14931053D01*
X3119108Y-14931053D02*
X3123870Y-14945339D01*
X3123870Y-14945339D02*
X3181013Y-15002482D01*
X3181013Y-15002482D02*
X3119108Y-15002482D01*
X11546648Y-33170173D02*
X11579982Y-33122554D01*
X11603791Y-33170173D02*
X11603791Y-33070173D01*
X11603791Y-33070173D02*
X11565696Y-33070173D01*
X11565696Y-33070173D02*
X11556172Y-33074935D01*
X11556172Y-33074935D02*
X11551410Y-33079697D01*
X11551410Y-33079697D02*
X11546648Y-33089220D01*
X11546648Y-33089220D02*
X11546648Y-33103506D01*
X11546648Y-33103506D02*
X11551410Y-33113030D01*
X11551410Y-33113030D02*
X11556172Y-33117792D01*
X11556172Y-33117792D02*
X11565696Y-33122554D01*
X11565696Y-33122554D02*
X11603791Y-33122554D01*
X11489505Y-33113030D02*
X11499029Y-33108268D01*
X11499029Y-33108268D02*
X11503791Y-33103506D01*
X11503791Y-33103506D02*
X11508553Y-33093982D01*
X11508553Y-33093982D02*
X11508553Y-33089220D01*
X11508553Y-33089220D02*
X11503791Y-33079697D01*
X11503791Y-33079697D02*
X11499029Y-33074935D01*
X11499029Y-33074935D02*
X11489505Y-33070173D01*
X11489505Y-33070173D02*
X11470458Y-33070173D01*
X11470458Y-33070173D02*
X11460934Y-33074935D01*
X11460934Y-33074935D02*
X11456172Y-33079697D01*
X11456172Y-33079697D02*
X11451410Y-33089220D01*
X11451410Y-33089220D02*
X11451410Y-33093982D01*
X11451410Y-33093982D02*
X11456172Y-33103506D01*
X11456172Y-33103506D02*
X11460934Y-33108268D01*
X11460934Y-33108268D02*
X11470458Y-33113030D01*
X11470458Y-33113030D02*
X11489505Y-33113030D01*
X11489505Y-33113030D02*
X11499029Y-33117792D01*
X11499029Y-33117792D02*
X11503791Y-33122554D01*
X11503791Y-33122554D02*
X11508553Y-33132078D01*
X11508553Y-33132078D02*
X11508553Y-33151125D01*
X11508553Y-33151125D02*
X11503791Y-33160649D01*
X11503791Y-33160649D02*
X11499029Y-33165411D01*
X11499029Y-33165411D02*
X11489505Y-33170173D01*
X11489505Y-33170173D02*
X11470458Y-33170173D01*
X11470458Y-33170173D02*
X11460934Y-33165411D01*
X11460934Y-33165411D02*
X11456172Y-33160649D01*
X11456172Y-33160649D02*
X11451410Y-33151125D01*
X11451410Y-33151125D02*
X11451410Y-33132078D01*
X11451410Y-33132078D02*
X11456172Y-33122554D01*
X11456172Y-33122554D02*
X11460934Y-33117792D01*
X11460934Y-33117792D02*
X11470458Y-33113030D01*
X10559267Y-34218173D02*
X10592601Y-34170554D01*
X10616410Y-34218173D02*
X10616410Y-34118173D01*
X10616410Y-34118173D02*
X10578315Y-34118173D01*
X10578315Y-34118173D02*
X10568791Y-34122935D01*
X10568791Y-34122935D02*
X10564029Y-34127697D01*
X10564029Y-34127697D02*
X10559267Y-34137221D01*
X10559267Y-34137221D02*
X10559267Y-34151506D01*
X10559267Y-34151506D02*
X10564029Y-34161030D01*
X10564029Y-34161030D02*
X10568791Y-34165792D01*
X10568791Y-34165792D02*
X10578315Y-34170554D01*
X10578315Y-34170554D02*
X10616410Y-34170554D01*
X10464029Y-34218173D02*
X10521172Y-34218173D01*
X10492601Y-34218173D02*
X10492601Y-34118173D01*
X10492601Y-34118173D02*
X10502125Y-34132459D01*
X10502125Y-34132459D02*
X10511648Y-34141982D01*
X10511648Y-34141982D02*
X10521172Y-34146744D01*
X10402125Y-34118173D02*
X10392601Y-34118173D01*
X10392601Y-34118173D02*
X10383077Y-34122935D01*
X10383077Y-34122935D02*
X10378315Y-34127697D01*
X10378315Y-34127697D02*
X10373553Y-34137221D01*
X10373553Y-34137221D02*
X10368791Y-34156268D01*
X10368791Y-34156268D02*
X10368791Y-34180078D01*
X10368791Y-34180078D02*
X10373553Y-34199125D01*
X10373553Y-34199125D02*
X10378315Y-34208649D01*
X10378315Y-34208649D02*
X10383077Y-34213411D01*
X10383077Y-34213411D02*
X10392601Y-34218173D01*
X10392601Y-34218173D02*
X10402125Y-34218173D01*
X10402125Y-34218173D02*
X10411648Y-34213411D01*
X10411648Y-34213411D02*
X10416410Y-34208649D01*
X10416410Y-34208649D02*
X10421172Y-34199125D01*
X10421172Y-34199125D02*
X10425934Y-34180078D01*
X10425934Y-34180078D02*
X10425934Y-34156268D01*
X10425934Y-34156268D02*
X10421172Y-34137221D01*
X10421172Y-34137221D02*
X10416410Y-34127697D01*
X10416410Y-34127697D02*
X10411648Y-34122935D01*
X10411648Y-34122935D02*
X10402125Y-34118173D01*
X11194505Y-30444697D02*
X11204029Y-30439935D01*
X11204029Y-30439935D02*
X11213553Y-30430411D01*
X11213553Y-30430411D02*
X11227839Y-30416125D01*
X11227839Y-30416125D02*
X11237363Y-30411363D01*
X11237363Y-30411363D02*
X11246886Y-30411363D01*
X11242124Y-30435173D02*
X11251648Y-30430411D01*
X11251648Y-30430411D02*
X11261172Y-30420887D01*
X11261172Y-30420887D02*
X11265934Y-30401839D01*
X11265934Y-30401839D02*
X11265934Y-30368506D01*
X11265934Y-30368506D02*
X11261172Y-30349459D01*
X11261172Y-30349459D02*
X11251648Y-30339935D01*
X11251648Y-30339935D02*
X11242124Y-30335173D01*
X11242124Y-30335173D02*
X11223077Y-30335173D01*
X11223077Y-30335173D02*
X11213553Y-30339935D01*
X11213553Y-30339935D02*
X11204029Y-30349459D01*
X11204029Y-30349459D02*
X11199267Y-30368506D01*
X11199267Y-30368506D02*
X11199267Y-30401839D01*
X11199267Y-30401839D02*
X11204029Y-30420887D01*
X11204029Y-30420887D02*
X11213553Y-30430411D01*
X11213553Y-30430411D02*
X11223077Y-30435173D01*
X11223077Y-30435173D02*
X11242124Y-30435173D01*
X11165934Y-30335173D02*
X11104029Y-30335173D01*
X11104029Y-30335173D02*
X11137363Y-30373268D01*
X11137363Y-30373268D02*
X11123077Y-30373268D01*
X11123077Y-30373268D02*
X11113553Y-30378030D01*
X11113553Y-30378030D02*
X11108791Y-30382792D01*
X11108791Y-30382792D02*
X11104029Y-30392316D01*
X11104029Y-30392316D02*
X11104029Y-30416125D01*
X11104029Y-30416125D02*
X11108791Y-30425649D01*
X11108791Y-30425649D02*
X11113553Y-30430411D01*
X11113553Y-30430411D02*
X11123077Y-30435173D01*
X11123077Y-30435173D02*
X11151648Y-30435173D01*
X11151648Y-30435173D02*
X11161172Y-30430411D01*
X11161172Y-30430411D02*
X11165934Y-30425649D01*
X11891648Y-40255173D02*
X11924982Y-40207554D01*
X11948791Y-40255173D02*
X11948791Y-40155173D01*
X11948791Y-40155173D02*
X11910696Y-40155173D01*
X11910696Y-40155173D02*
X11901172Y-40159935D01*
X11901172Y-40159935D02*
X11896410Y-40164697D01*
X11896410Y-40164697D02*
X11891648Y-40174221D01*
X11891648Y-40174221D02*
X11891648Y-40188506D01*
X11891648Y-40188506D02*
X11896410Y-40198030D01*
X11896410Y-40198030D02*
X11901172Y-40202792D01*
X11901172Y-40202792D02*
X11910696Y-40207554D01*
X11910696Y-40207554D02*
X11948791Y-40207554D01*
X11844029Y-40255173D02*
X11824982Y-40255173D01*
X11824982Y-40255173D02*
X11815458Y-40250411D01*
X11815458Y-40250411D02*
X11810696Y-40245649D01*
X11810696Y-40245649D02*
X11801172Y-40231363D01*
X11801172Y-40231363D02*
X11796410Y-40212316D01*
X11796410Y-40212316D02*
X11796410Y-40174221D01*
X11796410Y-40174221D02*
X11801172Y-40164697D01*
X11801172Y-40164697D02*
X11805934Y-40159935D01*
X11805934Y-40159935D02*
X11815458Y-40155173D01*
X11815458Y-40155173D02*
X11834505Y-40155173D01*
X11834505Y-40155173D02*
X11844029Y-40159935D01*
X11844029Y-40159935D02*
X11848791Y-40164697D01*
X11848791Y-40164697D02*
X11853553Y-40174221D01*
X11853553Y-40174221D02*
X11853553Y-40198030D01*
X11853553Y-40198030D02*
X11848791Y-40207554D01*
X11848791Y-40207554D02*
X11844029Y-40212316D01*
X11844029Y-40212316D02*
X11834505Y-40217078D01*
X11834505Y-40217078D02*
X11815458Y-40217078D01*
X11815458Y-40217078D02*
X11805934Y-40212316D01*
X11805934Y-40212316D02*
X11801172Y-40207554D01*
X11801172Y-40207554D02*
X11796410Y-40198030D01*
X3230304Y-14503809D02*
X3311256Y-14503809D01*
X3311256Y-14503809D02*
X3320780Y-14508571D01*
X3320780Y-14508571D02*
X3325542Y-14513333D01*
X3325542Y-14513333D02*
X3330304Y-14522857D01*
X3330304Y-14522857D02*
X3330304Y-14541904D01*
X3330304Y-14541904D02*
X3325542Y-14551428D01*
X3325542Y-14551428D02*
X3320780Y-14556190D01*
X3320780Y-14556190D02*
X3311256Y-14560952D01*
X3311256Y-14560952D02*
X3230304Y-14560952D01*
X3230304Y-14656190D02*
X3230304Y-14608571D01*
X3230304Y-14608571D02*
X3277923Y-14603809D01*
X3277923Y-14603809D02*
X3273161Y-14608571D01*
X3273161Y-14608571D02*
X3268399Y-14618095D01*
X3268399Y-14618095D02*
X3268399Y-14641904D01*
X3268399Y-14641904D02*
X3273161Y-14651428D01*
X3273161Y-14651428D02*
X3277923Y-14656190D01*
X3277923Y-14656190D02*
X3287447Y-14660952D01*
X3287447Y-14660952D02*
X3311256Y-14660952D01*
X3311256Y-14660952D02*
X3320780Y-14656190D01*
X3320780Y-14656190D02*
X3325542Y-14651428D01*
X3325542Y-14651428D02*
X3330304Y-14641904D01*
X3330304Y-14641904D02*
X3330304Y-14618095D01*
X3330304Y-14618095D02*
X3325542Y-14608571D01*
X3325542Y-14608571D02*
X3320780Y-14603809D01*
X11201648Y-36670173D02*
X11234982Y-36622554D01*
X11258791Y-36670173D02*
X11258791Y-36570173D01*
X11258791Y-36570173D02*
X11220696Y-36570173D01*
X11220696Y-36570173D02*
X11211172Y-36574935D01*
X11211172Y-36574935D02*
X11206410Y-36579697D01*
X11206410Y-36579697D02*
X11201648Y-36589221D01*
X11201648Y-36589221D02*
X11201648Y-36603506D01*
X11201648Y-36603506D02*
X11206410Y-36613030D01*
X11206410Y-36613030D02*
X11211172Y-36617792D01*
X11211172Y-36617792D02*
X11220696Y-36622554D01*
X11220696Y-36622554D02*
X11258791Y-36622554D01*
X11168315Y-36570173D02*
X11101648Y-36570173D01*
X11101648Y-36570173D02*
X11144505Y-36670173D01*
X7782958Y-239583D02*
X7787720Y-234821D01*
X7787720Y-234821D02*
X7792482Y-220535D01*
X7792482Y-220535D02*
X7792482Y-211012D01*
X7792482Y-211012D02*
X7787720Y-196726D01*
X7787720Y-196726D02*
X7778196Y-187202D01*
X7778196Y-187202D02*
X7768672Y-182440D01*
X7768672Y-182440D02*
X7749625Y-177678D01*
X7749625Y-177678D02*
X7735339Y-177678D01*
X7735339Y-177678D02*
X7716291Y-182440D01*
X7716291Y-182440D02*
X7706768Y-187202D01*
X7706768Y-187202D02*
X7697244Y-196726D01*
X7697244Y-196726D02*
X7692482Y-211012D01*
X7692482Y-211012D02*
X7692482Y-220535D01*
X7692482Y-220535D02*
X7697244Y-234821D01*
X7697244Y-234821D02*
X7702006Y-239583D01*
X7792482Y-334821D02*
X7792482Y-277678D01*
X7792482Y-306250D02*
X7692482Y-306250D01*
X7692482Y-306250D02*
X7706768Y-296726D01*
X7706768Y-296726D02*
X7716291Y-287202D01*
X7716291Y-287202D02*
X7721053Y-277678D01*
X11891648Y-29755173D02*
X11924982Y-29707554D01*
X11948791Y-29755173D02*
X11948791Y-29655173D01*
X11948791Y-29655173D02*
X11910696Y-29655173D01*
X11910696Y-29655173D02*
X11901172Y-29659935D01*
X11901172Y-29659935D02*
X11896410Y-29664697D01*
X11896410Y-29664697D02*
X11891648Y-29674220D01*
X11891648Y-29674220D02*
X11891648Y-29688506D01*
X11891648Y-29688506D02*
X11896410Y-29698030D01*
X11896410Y-29698030D02*
X11901172Y-29702792D01*
X11901172Y-29702792D02*
X11910696Y-29707554D01*
X11910696Y-29707554D02*
X11948791Y-29707554D01*
X11844029Y-29755173D02*
X11824982Y-29755173D01*
X11824982Y-29755173D02*
X11815458Y-29750411D01*
X11815458Y-29750411D02*
X11810696Y-29745649D01*
X11810696Y-29745649D02*
X11801172Y-29731363D01*
X11801172Y-29731363D02*
X11796410Y-29712316D01*
X11796410Y-29712316D02*
X11796410Y-29674220D01*
X11796410Y-29674220D02*
X11801172Y-29664697D01*
X11801172Y-29664697D02*
X11805934Y-29659935D01*
X11805934Y-29659935D02*
X11815458Y-29655173D01*
X11815458Y-29655173D02*
X11834505Y-29655173D01*
X11834505Y-29655173D02*
X11844029Y-29659935D01*
X11844029Y-29659935D02*
X11848791Y-29664697D01*
X11848791Y-29664697D02*
X11853553Y-29674220D01*
X11853553Y-29674220D02*
X11853553Y-29698030D01*
X11853553Y-29698030D02*
X11848791Y-29707554D01*
X11848791Y-29707554D02*
X11844029Y-29712316D01*
X11844029Y-29712316D02*
X11834505Y-29717078D01*
X11834505Y-29717078D02*
X11815458Y-29717078D01*
X11815458Y-29717078D02*
X11805934Y-29712316D01*
X11805934Y-29712316D02*
X11801172Y-29707554D01*
X11801172Y-29707554D02*
X11796410Y-29698030D01*
X7332780Y-6550333D02*
X7337542Y-6545571D01*
X7337542Y-6545571D02*
X7342304Y-6531285D01*
X7342304Y-6531285D02*
X7342304Y-6521762D01*
X7342304Y-6521762D02*
X7337542Y-6507476D01*
X7337542Y-6507476D02*
X7328018Y-6497952D01*
X7328018Y-6497952D02*
X7318494Y-6493190D01*
X7318494Y-6493190D02*
X7299447Y-6488428D01*
X7299447Y-6488428D02*
X7285161Y-6488428D01*
X7285161Y-6488428D02*
X7266114Y-6493190D01*
X7266114Y-6493190D02*
X7256590Y-6497952D01*
X7256590Y-6497952D02*
X7247066Y-6507476D01*
X7247066Y-6507476D02*
X7242304Y-6521762D01*
X7242304Y-6521762D02*
X7242304Y-6531285D01*
X7242304Y-6531285D02*
X7247066Y-6545571D01*
X7247066Y-6545571D02*
X7251828Y-6550333D01*
X7342304Y-6645571D02*
X7342304Y-6588428D01*
X7342304Y-6617000D02*
X7242304Y-6617000D01*
X7242304Y-6617000D02*
X7256590Y-6607476D01*
X7256590Y-6607476D02*
X7266114Y-6597952D01*
X7266114Y-6597952D02*
X7270875Y-6588428D01*
X11194505Y-40944697D02*
X11204029Y-40939935D01*
X11204029Y-40939935D02*
X11213553Y-40930411D01*
X11213553Y-40930411D02*
X11227839Y-40916125D01*
X11227839Y-40916125D02*
X11237363Y-40911363D01*
X11237363Y-40911363D02*
X11246886Y-40911363D01*
X11242124Y-40935173D02*
X11251648Y-40930411D01*
X11251648Y-40930411D02*
X11261172Y-40920887D01*
X11261172Y-40920887D02*
X11265934Y-40901840D01*
X11265934Y-40901840D02*
X11265934Y-40868506D01*
X11265934Y-40868506D02*
X11261172Y-40849459D01*
X11261172Y-40849459D02*
X11251648Y-40839935D01*
X11251648Y-40839935D02*
X11242124Y-40835173D01*
X11242124Y-40835173D02*
X11223077Y-40835173D01*
X11223077Y-40835173D02*
X11213553Y-40839935D01*
X11213553Y-40839935D02*
X11204029Y-40849459D01*
X11204029Y-40849459D02*
X11199267Y-40868506D01*
X11199267Y-40868506D02*
X11199267Y-40901840D01*
X11199267Y-40901840D02*
X11204029Y-40920887D01*
X11204029Y-40920887D02*
X11213553Y-40930411D01*
X11213553Y-40930411D02*
X11223077Y-40935173D01*
X11223077Y-40935173D02*
X11242124Y-40935173D01*
X11165934Y-40835173D02*
X11104029Y-40835173D01*
X11104029Y-40835173D02*
X11137363Y-40873268D01*
X11137363Y-40873268D02*
X11123077Y-40873268D01*
X11123077Y-40873268D02*
X11113553Y-40878030D01*
X11113553Y-40878030D02*
X11108791Y-40882792D01*
X11108791Y-40882792D02*
X11104029Y-40892316D01*
X11104029Y-40892316D02*
X11104029Y-40916125D01*
X11104029Y-40916125D02*
X11108791Y-40925649D01*
X11108791Y-40925649D02*
X11113553Y-40930411D01*
X11113553Y-40930411D02*
X11123077Y-40935173D01*
X11123077Y-40935173D02*
X11151648Y-40935173D01*
X11151648Y-40935173D02*
X11161172Y-40930411D01*
X11161172Y-40930411D02*
X11165934Y-40925649D01*
X10856648Y-33255173D02*
X10889982Y-33207554D01*
X10913791Y-33255173D02*
X10913791Y-33155173D01*
X10913791Y-33155173D02*
X10875696Y-33155173D01*
X10875696Y-33155173D02*
X10866172Y-33159935D01*
X10866172Y-33159935D02*
X10861410Y-33164697D01*
X10861410Y-33164697D02*
X10856648Y-33174220D01*
X10856648Y-33174220D02*
X10856648Y-33188506D01*
X10856648Y-33188506D02*
X10861410Y-33198030D01*
X10861410Y-33198030D02*
X10866172Y-33202792D01*
X10866172Y-33202792D02*
X10875696Y-33207554D01*
X10875696Y-33207554D02*
X10913791Y-33207554D01*
X10770934Y-33155173D02*
X10789982Y-33155173D01*
X10789982Y-33155173D02*
X10799505Y-33159935D01*
X10799505Y-33159935D02*
X10804267Y-33164697D01*
X10804267Y-33164697D02*
X10813791Y-33178982D01*
X10813791Y-33178982D02*
X10818553Y-33198030D01*
X10818553Y-33198030D02*
X10818553Y-33236125D01*
X10818553Y-33236125D02*
X10813791Y-33245649D01*
X10813791Y-33245649D02*
X10809029Y-33250411D01*
X10809029Y-33250411D02*
X10799505Y-33255173D01*
X10799505Y-33255173D02*
X10780458Y-33255173D01*
X10780458Y-33255173D02*
X10770934Y-33250411D01*
X10770934Y-33250411D02*
X10766172Y-33245649D01*
X10766172Y-33245649D02*
X10761410Y-33236125D01*
X10761410Y-33236125D02*
X10761410Y-33212316D01*
X10761410Y-33212316D02*
X10766172Y-33202792D01*
X10766172Y-33202792D02*
X10770934Y-33198030D01*
X10770934Y-33198030D02*
X10780458Y-33193268D01*
X10780458Y-33193268D02*
X10799505Y-33193268D01*
X10799505Y-33193268D02*
X10809029Y-33198030D01*
X10809029Y-33198030D02*
X10813791Y-33202792D01*
X10813791Y-33202792D02*
X10818553Y-33212316D01*
X13530304Y-8603809D02*
X13611256Y-8603809D01*
X13611256Y-8603809D02*
X13620780Y-8608571D01*
X13620780Y-8608571D02*
X13625542Y-8613333D01*
X13625542Y-8613333D02*
X13630304Y-8622857D01*
X13630304Y-8622857D02*
X13630304Y-8641904D01*
X13630304Y-8641904D02*
X13625542Y-8651428D01*
X13625542Y-8651428D02*
X13620780Y-8656190D01*
X13620780Y-8656190D02*
X13611256Y-8660952D01*
X13611256Y-8660952D02*
X13530304Y-8660952D01*
X13530304Y-8751428D02*
X13530304Y-8732381D01*
X13530304Y-8732381D02*
X13535066Y-8722857D01*
X13535066Y-8722857D02*
X13539828Y-8718095D01*
X13539828Y-8718095D02*
X13554114Y-8708571D01*
X13554114Y-8708571D02*
X13573161Y-8703809D01*
X13573161Y-8703809D02*
X13611256Y-8703809D01*
X13611256Y-8703809D02*
X13620780Y-8708571D01*
X13620780Y-8708571D02*
X13625542Y-8713333D01*
X13625542Y-8713333D02*
X13630304Y-8722857D01*
X13630304Y-8722857D02*
X13630304Y-8741904D01*
X13630304Y-8741904D02*
X13625542Y-8751428D01*
X13625542Y-8751428D02*
X13620780Y-8756190D01*
X13620780Y-8756190D02*
X13611256Y-8760952D01*
X13611256Y-8760952D02*
X13587447Y-8760952D01*
X13587447Y-8760952D02*
X13577923Y-8756190D01*
X13577923Y-8756190D02*
X13573161Y-8751428D01*
X13573161Y-8751428D02*
X13568399Y-8741904D01*
X13568399Y-8741904D02*
X13568399Y-8722857D01*
X13568399Y-8722857D02*
X13573161Y-8713333D01*
X13573161Y-8713333D02*
X13577923Y-8708571D01*
X13577923Y-8708571D02*
X13587447Y-8703809D01*
X10849506Y-30444697D02*
X10859029Y-30439935D01*
X10859029Y-30439935D02*
X10868553Y-30430411D01*
X10868553Y-30430411D02*
X10882839Y-30416125D01*
X10882839Y-30416125D02*
X10892363Y-30411363D01*
X10892363Y-30411363D02*
X10901886Y-30411363D01*
X10897125Y-30435173D02*
X10906648Y-30430411D01*
X10906648Y-30430411D02*
X10916172Y-30420887D01*
X10916172Y-30420887D02*
X10920934Y-30401839D01*
X10920934Y-30401839D02*
X10920934Y-30368506D01*
X10920934Y-30368506D02*
X10916172Y-30349459D01*
X10916172Y-30349459D02*
X10906648Y-30339935D01*
X10906648Y-30339935D02*
X10897125Y-30335173D01*
X10897125Y-30335173D02*
X10878077Y-30335173D01*
X10878077Y-30335173D02*
X10868553Y-30339935D01*
X10868553Y-30339935D02*
X10859029Y-30349459D01*
X10859029Y-30349459D02*
X10854267Y-30368506D01*
X10854267Y-30368506D02*
X10854267Y-30401839D01*
X10854267Y-30401839D02*
X10859029Y-30420887D01*
X10859029Y-30420887D02*
X10868553Y-30430411D01*
X10868553Y-30430411D02*
X10878077Y-30435173D01*
X10878077Y-30435173D02*
X10897125Y-30435173D01*
X10816172Y-30344697D02*
X10811410Y-30339935D01*
X10811410Y-30339935D02*
X10801886Y-30335173D01*
X10801886Y-30335173D02*
X10778077Y-30335173D01*
X10778077Y-30335173D02*
X10768553Y-30339935D01*
X10768553Y-30339935D02*
X10763791Y-30344697D01*
X10763791Y-30344697D02*
X10759029Y-30354220D01*
X10759029Y-30354220D02*
X10759029Y-30363744D01*
X10759029Y-30363744D02*
X10763791Y-30378030D01*
X10763791Y-30378030D02*
X10820934Y-30435173D01*
X10820934Y-30435173D02*
X10759029Y-30435173D01*
X11594267Y-34218173D02*
X11627601Y-34170554D01*
X11651410Y-34218173D02*
X11651410Y-34118173D01*
X11651410Y-34118173D02*
X11613315Y-34118173D01*
X11613315Y-34118173D02*
X11603791Y-34122935D01*
X11603791Y-34122935D02*
X11599029Y-34127697D01*
X11599029Y-34127697D02*
X11594267Y-34137221D01*
X11594267Y-34137221D02*
X11594267Y-34151506D01*
X11594267Y-34151506D02*
X11599029Y-34161030D01*
X11599029Y-34161030D02*
X11603791Y-34165792D01*
X11603791Y-34165792D02*
X11613315Y-34170554D01*
X11613315Y-34170554D02*
X11651410Y-34170554D01*
X11499029Y-34218173D02*
X11556172Y-34218173D01*
X11527601Y-34218173D02*
X11527601Y-34118173D01*
X11527601Y-34118173D02*
X11537124Y-34132459D01*
X11537124Y-34132459D02*
X11546648Y-34141982D01*
X11546648Y-34141982D02*
X11556172Y-34146744D01*
X11465696Y-34118173D02*
X11403791Y-34118173D01*
X11403791Y-34118173D02*
X11437124Y-34156268D01*
X11437124Y-34156268D02*
X11422839Y-34156268D01*
X11422839Y-34156268D02*
X11413315Y-34161030D01*
X11413315Y-34161030D02*
X11408553Y-34165792D01*
X11408553Y-34165792D02*
X11403791Y-34175316D01*
X11403791Y-34175316D02*
X11403791Y-34199125D01*
X11403791Y-34199125D02*
X11408553Y-34208649D01*
X11408553Y-34208649D02*
X11413315Y-34213411D01*
X11413315Y-34213411D02*
X11422839Y-34218173D01*
X11422839Y-34218173D02*
X11451410Y-34218173D01*
X11451410Y-34218173D02*
X11460934Y-34213411D01*
X11460934Y-34213411D02*
X11465696Y-34208649D01*
X13593304Y-15103809D02*
X13545685Y-15070476D01*
X13593304Y-15046666D02*
X13493304Y-15046666D01*
X13493304Y-15046666D02*
X13493304Y-15084762D01*
X13493304Y-15084762D02*
X13498066Y-15094285D01*
X13498066Y-15094285D02*
X13502828Y-15099047D01*
X13502828Y-15099047D02*
X13512352Y-15103809D01*
X13512352Y-15103809D02*
X13526637Y-15103809D01*
X13526637Y-15103809D02*
X13536161Y-15099047D01*
X13536161Y-15099047D02*
X13540923Y-15094285D01*
X13540923Y-15094285D02*
X13545685Y-15084762D01*
X13545685Y-15084762D02*
X13545685Y-15046666D01*
X13555209Y-15146666D02*
X13555209Y-15222857D01*
X13526637Y-15260952D02*
X13593304Y-15284762D01*
X13593304Y-15284762D02*
X13526637Y-15308571D01*
X13502828Y-15341904D02*
X13498066Y-15346666D01*
X13498066Y-15346666D02*
X13493304Y-15356190D01*
X13493304Y-15356190D02*
X13493304Y-15380000D01*
X13493304Y-15380000D02*
X13498066Y-15389523D01*
X13498066Y-15389523D02*
X13502828Y-15394285D01*
X13502828Y-15394285D02*
X13512352Y-15399047D01*
X13512352Y-15399047D02*
X13521875Y-15399047D01*
X13521875Y-15399047D02*
X13536161Y-15394285D01*
X13536161Y-15394285D02*
X13593304Y-15337143D01*
X13593304Y-15337143D02*
X13593304Y-15399047D01*
X13555209Y-15441904D02*
X13555209Y-15518095D01*
X13493304Y-15613333D02*
X13493304Y-15565714D01*
X13493304Y-15565714D02*
X13540923Y-15560952D01*
X13540923Y-15560952D02*
X13536161Y-15565714D01*
X13536161Y-15565714D02*
X13531399Y-15575238D01*
X13531399Y-15575238D02*
X13531399Y-15599047D01*
X13531399Y-15599047D02*
X13536161Y-15608571D01*
X13536161Y-15608571D02*
X13540923Y-15613333D01*
X13540923Y-15613333D02*
X13550447Y-15618095D01*
X13550447Y-15618095D02*
X13574256Y-15618095D01*
X13574256Y-15618095D02*
X13583780Y-15613333D01*
X13583780Y-15613333D02*
X13588542Y-15608571D01*
X13588542Y-15608571D02*
X13593304Y-15599047D01*
X13593304Y-15599047D02*
X13593304Y-15575238D01*
X13593304Y-15575238D02*
X13588542Y-15565714D01*
X13588542Y-15565714D02*
X13583780Y-15560952D01*
X3728632Y-9102482D02*
X3761965Y-9054863D01*
X3785774Y-9102482D02*
X3785774Y-9002482D01*
X3785774Y-9002482D02*
X3747679Y-9002482D01*
X3747679Y-9002482D02*
X3738155Y-9007244D01*
X3738155Y-9007244D02*
X3733394Y-9012005D01*
X3733394Y-9012005D02*
X3728632Y-9021529D01*
X3728632Y-9021529D02*
X3728632Y-9035815D01*
X3728632Y-9035815D02*
X3733394Y-9045339D01*
X3733394Y-9045339D02*
X3738155Y-9050101D01*
X3738155Y-9050101D02*
X3747679Y-9054863D01*
X3747679Y-9054863D02*
X3785774Y-9054863D01*
X3685774Y-9064386D02*
X3609584Y-9064386D01*
X3571489Y-9035815D02*
X3547679Y-9102482D01*
X3547679Y-9102482D02*
X3523870Y-9035815D01*
X3433394Y-9102482D02*
X3490536Y-9102482D01*
X3461965Y-9102482D02*
X3461965Y-9002482D01*
X3461965Y-9002482D02*
X3471489Y-9016767D01*
X3471489Y-9016767D02*
X3481013Y-9026291D01*
X3481013Y-9026291D02*
X3490536Y-9031053D01*
X3390536Y-9064386D02*
X3314346Y-9064386D01*
X3214346Y-9102482D02*
X3271489Y-9102482D01*
X3242917Y-9102482D02*
X3242917Y-9002482D01*
X3242917Y-9002482D02*
X3252441Y-9016767D01*
X3252441Y-9016767D02*
X3261965Y-9026291D01*
X3261965Y-9026291D02*
X3271489Y-9031053D01*
X3176251Y-9012005D02*
X3171489Y-9007244D01*
X3171489Y-9007244D02*
X3161965Y-9002482D01*
X3161965Y-9002482D02*
X3138155Y-9002482D01*
X3138155Y-9002482D02*
X3128632Y-9007244D01*
X3128632Y-9007244D02*
X3123870Y-9012005D01*
X3123870Y-9012005D02*
X3119108Y-9021529D01*
X3119108Y-9021529D02*
X3119108Y-9031053D01*
X3119108Y-9031053D02*
X3123870Y-9045339D01*
X3123870Y-9045339D02*
X3181013Y-9102482D01*
X3181013Y-9102482D02*
X3119108Y-9102482D01*
X12231648Y-33125649D02*
X12236410Y-33130411D01*
X12236410Y-33130411D02*
X12250696Y-33135173D01*
X12250696Y-33135173D02*
X12260220Y-33135173D01*
X12260220Y-33135173D02*
X12274505Y-33130411D01*
X12274505Y-33130411D02*
X12284029Y-33120887D01*
X12284029Y-33120887D02*
X12288791Y-33111363D01*
X12288791Y-33111363D02*
X12293553Y-33092316D01*
X12293553Y-33092316D02*
X12293553Y-33078030D01*
X12293553Y-33078030D02*
X12288791Y-33058982D01*
X12288791Y-33058982D02*
X12284029Y-33049459D01*
X12284029Y-33049459D02*
X12274505Y-33039935D01*
X12274505Y-33039935D02*
X12260220Y-33035173D01*
X12260220Y-33035173D02*
X12250696Y-33035173D01*
X12250696Y-33035173D02*
X12236410Y-33039935D01*
X12236410Y-33039935D02*
X12231648Y-33044697D01*
X12198315Y-33035173D02*
X12131648Y-33035173D01*
X12131648Y-33035173D02*
X12174505Y-33135173D01*
X11594267Y-37718173D02*
X11627601Y-37670554D01*
X11651410Y-37718173D02*
X11651410Y-37618173D01*
X11651410Y-37618173D02*
X11613315Y-37618173D01*
X11613315Y-37618173D02*
X11603791Y-37622935D01*
X11603791Y-37622935D02*
X11599029Y-37627697D01*
X11599029Y-37627697D02*
X11594267Y-37637221D01*
X11594267Y-37637221D02*
X11594267Y-37651506D01*
X11594267Y-37651506D02*
X11599029Y-37661030D01*
X11599029Y-37661030D02*
X11603791Y-37665792D01*
X11603791Y-37665792D02*
X11613315Y-37670554D01*
X11613315Y-37670554D02*
X11651410Y-37670554D01*
X11499029Y-37718173D02*
X11556172Y-37718173D01*
X11527601Y-37718173D02*
X11527601Y-37618173D01*
X11527601Y-37618173D02*
X11537124Y-37632459D01*
X11537124Y-37632459D02*
X11546648Y-37641982D01*
X11546648Y-37641982D02*
X11556172Y-37646744D01*
X11465696Y-37618173D02*
X11403791Y-37618173D01*
X11403791Y-37618173D02*
X11437124Y-37656268D01*
X11437124Y-37656268D02*
X11422839Y-37656268D01*
X11422839Y-37656268D02*
X11413315Y-37661030D01*
X11413315Y-37661030D02*
X11408553Y-37665792D01*
X11408553Y-37665792D02*
X11403791Y-37675316D01*
X11403791Y-37675316D02*
X11403791Y-37699125D01*
X11403791Y-37699125D02*
X11408553Y-37708649D01*
X11408553Y-37708649D02*
X11413315Y-37713411D01*
X11413315Y-37713411D02*
X11422839Y-37718173D01*
X11422839Y-37718173D02*
X11451410Y-37718173D01*
X11451410Y-37718173D02*
X11460934Y-37713411D01*
X11460934Y-37713411D02*
X11465696Y-37708649D01*
X10904267Y-41218173D02*
X10937601Y-41170554D01*
X10961410Y-41218173D02*
X10961410Y-41118173D01*
X10961410Y-41118173D02*
X10923315Y-41118173D01*
X10923315Y-41118173D02*
X10913791Y-41122935D01*
X10913791Y-41122935D02*
X10909029Y-41127697D01*
X10909029Y-41127697D02*
X10904267Y-41137221D01*
X10904267Y-41137221D02*
X10904267Y-41151506D01*
X10904267Y-41151506D02*
X10909029Y-41161030D01*
X10909029Y-41161030D02*
X10913791Y-41165792D01*
X10913791Y-41165792D02*
X10923315Y-41170554D01*
X10923315Y-41170554D02*
X10961410Y-41170554D01*
X10809029Y-41218173D02*
X10866172Y-41218173D01*
X10837601Y-41218173D02*
X10837601Y-41118173D01*
X10837601Y-41118173D02*
X10847125Y-41132459D01*
X10847125Y-41132459D02*
X10856648Y-41141982D01*
X10856648Y-41141982D02*
X10866172Y-41146744D01*
X10713791Y-41218173D02*
X10770934Y-41218173D01*
X10742363Y-41218173D02*
X10742363Y-41118173D01*
X10742363Y-41118173D02*
X10751886Y-41132459D01*
X10751886Y-41132459D02*
X10761410Y-41141982D01*
X10761410Y-41141982D02*
X10770934Y-41146744D01*
X10849506Y-37444697D02*
X10859029Y-37439935D01*
X10859029Y-37439935D02*
X10868553Y-37430411D01*
X10868553Y-37430411D02*
X10882839Y-37416125D01*
X10882839Y-37416125D02*
X10892363Y-37411363D01*
X10892363Y-37411363D02*
X10901886Y-37411363D01*
X10897125Y-37435173D02*
X10906648Y-37430411D01*
X10906648Y-37430411D02*
X10916172Y-37420887D01*
X10916172Y-37420887D02*
X10920934Y-37401840D01*
X10920934Y-37401840D02*
X10920934Y-37368506D01*
X10920934Y-37368506D02*
X10916172Y-37349459D01*
X10916172Y-37349459D02*
X10906648Y-37339935D01*
X10906648Y-37339935D02*
X10897125Y-37335173D01*
X10897125Y-37335173D02*
X10878077Y-37335173D01*
X10878077Y-37335173D02*
X10868553Y-37339935D01*
X10868553Y-37339935D02*
X10859029Y-37349459D01*
X10859029Y-37349459D02*
X10854267Y-37368506D01*
X10854267Y-37368506D02*
X10854267Y-37401840D01*
X10854267Y-37401840D02*
X10859029Y-37420887D01*
X10859029Y-37420887D02*
X10868553Y-37430411D01*
X10868553Y-37430411D02*
X10878077Y-37435173D01*
X10878077Y-37435173D02*
X10897125Y-37435173D01*
X10816172Y-37344697D02*
X10811410Y-37339935D01*
X10811410Y-37339935D02*
X10801886Y-37335173D01*
X10801886Y-37335173D02*
X10778077Y-37335173D01*
X10778077Y-37335173D02*
X10768553Y-37339935D01*
X10768553Y-37339935D02*
X10763791Y-37344697D01*
X10763791Y-37344697D02*
X10759029Y-37354221D01*
X10759029Y-37354221D02*
X10759029Y-37363744D01*
X10759029Y-37363744D02*
X10763791Y-37378030D01*
X10763791Y-37378030D02*
X10820934Y-37435173D01*
X10820934Y-37435173D02*
X10759029Y-37435173D01*
X7332780Y-12450333D02*
X7337542Y-12445571D01*
X7337542Y-12445571D02*
X7342304Y-12431285D01*
X7342304Y-12431285D02*
X7342304Y-12421762D01*
X7342304Y-12421762D02*
X7337542Y-12407476D01*
X7337542Y-12407476D02*
X7328018Y-12397952D01*
X7328018Y-12397952D02*
X7318494Y-12393190D01*
X7318494Y-12393190D02*
X7299447Y-12388428D01*
X7299447Y-12388428D02*
X7285161Y-12388428D01*
X7285161Y-12388428D02*
X7266114Y-12393190D01*
X7266114Y-12393190D02*
X7256590Y-12397952D01*
X7256590Y-12397952D02*
X7247066Y-12407476D01*
X7247066Y-12407476D02*
X7242304Y-12421762D01*
X7242304Y-12421762D02*
X7242304Y-12431285D01*
X7242304Y-12431285D02*
X7247066Y-12445571D01*
X7247066Y-12445571D02*
X7251828Y-12450333D01*
X7342304Y-12545571D02*
X7342304Y-12488428D01*
X7342304Y-12517000D02*
X7242304Y-12517000D01*
X7242304Y-12517000D02*
X7256590Y-12507476D01*
X7256590Y-12507476D02*
X7266114Y-12497952D01*
X7266114Y-12497952D02*
X7270875Y-12488428D01*
X12396172Y-41125173D02*
X12396172Y-41206125D01*
X12396172Y-41206125D02*
X12391410Y-41215649D01*
X12391410Y-41215649D02*
X12386648Y-41220411D01*
X12386648Y-41220411D02*
X12377124Y-41225173D01*
X12377124Y-41225173D02*
X12358077Y-41225173D01*
X12358077Y-41225173D02*
X12348553Y-41220411D01*
X12348553Y-41220411D02*
X12343791Y-41215649D01*
X12343791Y-41215649D02*
X12339029Y-41206125D01*
X12339029Y-41206125D02*
X12339029Y-41125173D01*
X12296172Y-41134697D02*
X12291410Y-41129935D01*
X12291410Y-41129935D02*
X12281886Y-41125173D01*
X12281886Y-41125173D02*
X12258077Y-41125173D01*
X12258077Y-41125173D02*
X12248553Y-41129935D01*
X12248553Y-41129935D02*
X12243791Y-41134697D01*
X12243791Y-41134697D02*
X12239029Y-41144221D01*
X12239029Y-41144221D02*
X12239029Y-41153744D01*
X12239029Y-41153744D02*
X12243791Y-41168030D01*
X12243791Y-41168030D02*
X12300934Y-41225173D01*
X12300934Y-41225173D02*
X12239029Y-41225173D01*
X11891648Y-36755173D02*
X11924982Y-36707554D01*
X11948791Y-36755173D02*
X11948791Y-36655173D01*
X11948791Y-36655173D02*
X11910696Y-36655173D01*
X11910696Y-36655173D02*
X11901172Y-36659935D01*
X11901172Y-36659935D02*
X11896410Y-36664697D01*
X11896410Y-36664697D02*
X11891648Y-36674221D01*
X11891648Y-36674221D02*
X11891648Y-36688506D01*
X11891648Y-36688506D02*
X11896410Y-36698030D01*
X11896410Y-36698030D02*
X11901172Y-36702792D01*
X11901172Y-36702792D02*
X11910696Y-36707554D01*
X11910696Y-36707554D02*
X11948791Y-36707554D01*
X11844029Y-36755173D02*
X11824982Y-36755173D01*
X11824982Y-36755173D02*
X11815458Y-36750411D01*
X11815458Y-36750411D02*
X11810696Y-36745649D01*
X11810696Y-36745649D02*
X11801172Y-36731363D01*
X11801172Y-36731363D02*
X11796410Y-36712316D01*
X11796410Y-36712316D02*
X11796410Y-36674221D01*
X11796410Y-36674221D02*
X11801172Y-36664697D01*
X11801172Y-36664697D02*
X11805934Y-36659935D01*
X11805934Y-36659935D02*
X11815458Y-36655173D01*
X11815458Y-36655173D02*
X11834505Y-36655173D01*
X11834505Y-36655173D02*
X11844029Y-36659935D01*
X11844029Y-36659935D02*
X11848791Y-36664697D01*
X11848791Y-36664697D02*
X11853553Y-36674221D01*
X11853553Y-36674221D02*
X11853553Y-36698030D01*
X11853553Y-36698030D02*
X11848791Y-36707554D01*
X11848791Y-36707554D02*
X11844029Y-36712316D01*
X11844029Y-36712316D02*
X11834505Y-36717078D01*
X11834505Y-36717078D02*
X11815458Y-36717078D01*
X11815458Y-36717078D02*
X11805934Y-36712316D01*
X11805934Y-36712316D02*
X11801172Y-36707554D01*
X11801172Y-36707554D02*
X11796410Y-36698030D01*
X11546648Y-29670173D02*
X11579982Y-29622554D01*
X11603791Y-29670173D02*
X11603791Y-29570173D01*
X11603791Y-29570173D02*
X11565696Y-29570173D01*
X11565696Y-29570173D02*
X11556172Y-29574935D01*
X11556172Y-29574935D02*
X11551410Y-29579697D01*
X11551410Y-29579697D02*
X11546648Y-29589220D01*
X11546648Y-29589220D02*
X11546648Y-29603506D01*
X11546648Y-29603506D02*
X11551410Y-29613030D01*
X11551410Y-29613030D02*
X11556172Y-29617792D01*
X11556172Y-29617792D02*
X11565696Y-29622554D01*
X11565696Y-29622554D02*
X11603791Y-29622554D01*
X11489505Y-29613030D02*
X11499029Y-29608268D01*
X11499029Y-29608268D02*
X11503791Y-29603506D01*
X11503791Y-29603506D02*
X11508553Y-29593982D01*
X11508553Y-29593982D02*
X11508553Y-29589220D01*
X11508553Y-29589220D02*
X11503791Y-29579697D01*
X11503791Y-29579697D02*
X11499029Y-29574935D01*
X11499029Y-29574935D02*
X11489505Y-29570173D01*
X11489505Y-29570173D02*
X11470458Y-29570173D01*
X11470458Y-29570173D02*
X11460934Y-29574935D01*
X11460934Y-29574935D02*
X11456172Y-29579697D01*
X11456172Y-29579697D02*
X11451410Y-29589220D01*
X11451410Y-29589220D02*
X11451410Y-29593982D01*
X11451410Y-29593982D02*
X11456172Y-29603506D01*
X11456172Y-29603506D02*
X11460934Y-29608268D01*
X11460934Y-29608268D02*
X11470458Y-29613030D01*
X11470458Y-29613030D02*
X11489505Y-29613030D01*
X11489505Y-29613030D02*
X11499029Y-29617792D01*
X11499029Y-29617792D02*
X11503791Y-29622554D01*
X11503791Y-29622554D02*
X11508553Y-29632078D01*
X11508553Y-29632078D02*
X11508553Y-29651125D01*
X11508553Y-29651125D02*
X11503791Y-29660649D01*
X11503791Y-29660649D02*
X11499029Y-29665411D01*
X11499029Y-29665411D02*
X11489505Y-29670173D01*
X11489505Y-29670173D02*
X11470458Y-29670173D01*
X11470458Y-29670173D02*
X11460934Y-29665411D01*
X11460934Y-29665411D02*
X11456172Y-29660649D01*
X11456172Y-29660649D02*
X11451410Y-29651125D01*
X11451410Y-29651125D02*
X11451410Y-29632078D01*
X11451410Y-29632078D02*
X11456172Y-29622554D01*
X11456172Y-29622554D02*
X11460934Y-29617792D01*
X11460934Y-29617792D02*
X11470458Y-29613030D01*
X3280013Y-9713482D02*
X3313346Y-9665863D01*
X3337155Y-9713482D02*
X3337155Y-9613482D01*
X3337155Y-9613482D02*
X3299060Y-9613482D01*
X3299060Y-9613482D02*
X3289536Y-9618244D01*
X3289536Y-9618244D02*
X3284774Y-9623005D01*
X3284774Y-9623005D02*
X3280013Y-9632529D01*
X3280013Y-9632529D02*
X3280013Y-9646815D01*
X3280013Y-9646815D02*
X3284774Y-9656339D01*
X3284774Y-9656339D02*
X3289536Y-9661101D01*
X3289536Y-9661101D02*
X3299060Y-9665863D01*
X3299060Y-9665863D02*
X3337155Y-9665863D01*
X3237155Y-9675386D02*
X3160965Y-9675386D01*
X3122870Y-9646815D02*
X3099060Y-9713482D01*
X3099060Y-9713482D02*
X3075251Y-9646815D01*
X2984774Y-9713482D02*
X3041917Y-9713482D01*
X3013346Y-9713482D02*
X3013346Y-9613482D01*
X3013346Y-9613482D02*
X3022870Y-9627767D01*
X3022870Y-9627767D02*
X3032393Y-9637291D01*
X3032393Y-9637291D02*
X3041917Y-9642053D01*
X2941917Y-9675386D02*
X2865727Y-9675386D01*
X2803822Y-9656339D02*
X2813346Y-9651577D01*
X2813346Y-9651577D02*
X2818108Y-9646815D01*
X2818108Y-9646815D02*
X2822870Y-9637291D01*
X2822870Y-9637291D02*
X2822870Y-9632529D01*
X2822870Y-9632529D02*
X2818108Y-9623005D01*
X2818108Y-9623005D02*
X2813346Y-9618244D01*
X2813346Y-9618244D02*
X2803822Y-9613482D01*
X2803822Y-9613482D02*
X2784775Y-9613482D01*
X2784775Y-9613482D02*
X2775251Y-9618244D01*
X2775251Y-9618244D02*
X2770489Y-9623005D01*
X2770489Y-9623005D02*
X2765727Y-9632529D01*
X2765727Y-9632529D02*
X2765727Y-9637291D01*
X2765727Y-9637291D02*
X2770489Y-9646815D01*
X2770489Y-9646815D02*
X2775251Y-9651577D01*
X2775251Y-9651577D02*
X2784775Y-9656339D01*
X2784775Y-9656339D02*
X2803822Y-9656339D01*
X2803822Y-9656339D02*
X2813346Y-9661101D01*
X2813346Y-9661101D02*
X2818108Y-9665863D01*
X2818108Y-9665863D02*
X2822870Y-9675386D01*
X2822870Y-9675386D02*
X2822870Y-9694434D01*
X2822870Y-9694434D02*
X2818108Y-9703958D01*
X2818108Y-9703958D02*
X2813346Y-9708720D01*
X2813346Y-9708720D02*
X2803822Y-9713482D01*
X2803822Y-9713482D02*
X2784775Y-9713482D01*
X2784775Y-9713482D02*
X2775251Y-9708720D01*
X2775251Y-9708720D02*
X2770489Y-9703958D01*
X2770489Y-9703958D02*
X2765727Y-9694434D01*
X2765727Y-9694434D02*
X2765727Y-9675386D01*
X2765727Y-9675386D02*
X2770489Y-9665863D01*
X2770489Y-9665863D02*
X2775251Y-9661101D01*
X2775251Y-9661101D02*
X2784775Y-9656339D01*
X11884505Y-30444697D02*
X11894029Y-30439935D01*
X11894029Y-30439935D02*
X11903553Y-30430411D01*
X11903553Y-30430411D02*
X11917839Y-30416125D01*
X11917839Y-30416125D02*
X11927363Y-30411363D01*
X11927363Y-30411363D02*
X11936886Y-30411363D01*
X11932124Y-30435173D02*
X11941648Y-30430411D01*
X11941648Y-30430411D02*
X11951172Y-30420887D01*
X11951172Y-30420887D02*
X11955934Y-30401839D01*
X11955934Y-30401839D02*
X11955934Y-30368506D01*
X11955934Y-30368506D02*
X11951172Y-30349459D01*
X11951172Y-30349459D02*
X11941648Y-30339935D01*
X11941648Y-30339935D02*
X11932124Y-30335173D01*
X11932124Y-30335173D02*
X11913077Y-30335173D01*
X11913077Y-30335173D02*
X11903553Y-30339935D01*
X11903553Y-30339935D02*
X11894029Y-30349459D01*
X11894029Y-30349459D02*
X11889267Y-30368506D01*
X11889267Y-30368506D02*
X11889267Y-30401839D01*
X11889267Y-30401839D02*
X11894029Y-30420887D01*
X11894029Y-30420887D02*
X11903553Y-30430411D01*
X11903553Y-30430411D02*
X11913077Y-30435173D01*
X11913077Y-30435173D02*
X11932124Y-30435173D01*
X11798791Y-30335173D02*
X11846410Y-30335173D01*
X11846410Y-30335173D02*
X11851172Y-30382792D01*
X11851172Y-30382792D02*
X11846410Y-30378030D01*
X11846410Y-30378030D02*
X11836886Y-30373268D01*
X11836886Y-30373268D02*
X11813077Y-30373268D01*
X11813077Y-30373268D02*
X11803553Y-30378030D01*
X11803553Y-30378030D02*
X11798791Y-30382792D01*
X11798791Y-30382792D02*
X11794029Y-30392316D01*
X11794029Y-30392316D02*
X11794029Y-30416125D01*
X11794029Y-30416125D02*
X11798791Y-30425649D01*
X11798791Y-30425649D02*
X11803553Y-30430411D01*
X11803553Y-30430411D02*
X11813077Y-30435173D01*
X11813077Y-30435173D02*
X11836886Y-30435173D01*
X11836886Y-30435173D02*
X11846410Y-30430411D01*
X11846410Y-30430411D02*
X11851172Y-30425649D01*
X11249267Y-34218173D02*
X11282601Y-34170554D01*
X11306410Y-34218173D02*
X11306410Y-34118173D01*
X11306410Y-34118173D02*
X11268315Y-34118173D01*
X11268315Y-34118173D02*
X11258791Y-34122935D01*
X11258791Y-34122935D02*
X11254029Y-34127697D01*
X11254029Y-34127697D02*
X11249267Y-34137221D01*
X11249267Y-34137221D02*
X11249267Y-34151506D01*
X11249267Y-34151506D02*
X11254029Y-34161030D01*
X11254029Y-34161030D02*
X11258791Y-34165792D01*
X11258791Y-34165792D02*
X11268315Y-34170554D01*
X11268315Y-34170554D02*
X11306410Y-34170554D01*
X11154029Y-34218173D02*
X11211172Y-34218173D01*
X11182601Y-34218173D02*
X11182601Y-34118173D01*
X11182601Y-34118173D02*
X11192124Y-34132459D01*
X11192124Y-34132459D02*
X11201648Y-34141982D01*
X11201648Y-34141982D02*
X11211172Y-34146744D01*
X11115934Y-34127697D02*
X11111172Y-34122935D01*
X11111172Y-34122935D02*
X11101648Y-34118173D01*
X11101648Y-34118173D02*
X11077839Y-34118173D01*
X11077839Y-34118173D02*
X11068315Y-34122935D01*
X11068315Y-34122935D02*
X11063553Y-34127697D01*
X11063553Y-34127697D02*
X11058791Y-34137221D01*
X11058791Y-34137221D02*
X11058791Y-34146744D01*
X11058791Y-34146744D02*
X11063553Y-34161030D01*
X11063553Y-34161030D02*
X11120696Y-34218173D01*
X11120696Y-34218173D02*
X11058791Y-34218173D01*
X10849506Y-33944697D02*
X10859029Y-33939935D01*
X10859029Y-33939935D02*
X10868553Y-33930411D01*
X10868553Y-33930411D02*
X10882839Y-33916125D01*
X10882839Y-33916125D02*
X10892363Y-33911363D01*
X10892363Y-33911363D02*
X10901886Y-33911363D01*
X10897125Y-33935173D02*
X10906648Y-33930411D01*
X10906648Y-33930411D02*
X10916172Y-33920887D01*
X10916172Y-33920887D02*
X10920934Y-33901840D01*
X10920934Y-33901840D02*
X10920934Y-33868506D01*
X10920934Y-33868506D02*
X10916172Y-33849459D01*
X10916172Y-33849459D02*
X10906648Y-33839935D01*
X10906648Y-33839935D02*
X10897125Y-33835173D01*
X10897125Y-33835173D02*
X10878077Y-33835173D01*
X10878077Y-33835173D02*
X10868553Y-33839935D01*
X10868553Y-33839935D02*
X10859029Y-33849459D01*
X10859029Y-33849459D02*
X10854267Y-33868506D01*
X10854267Y-33868506D02*
X10854267Y-33901840D01*
X10854267Y-33901840D02*
X10859029Y-33920887D01*
X10859029Y-33920887D02*
X10868553Y-33930411D01*
X10868553Y-33930411D02*
X10878077Y-33935173D01*
X10878077Y-33935173D02*
X10897125Y-33935173D01*
X10816172Y-33844697D02*
X10811410Y-33839935D01*
X10811410Y-33839935D02*
X10801886Y-33835173D01*
X10801886Y-33835173D02*
X10778077Y-33835173D01*
X10778077Y-33835173D02*
X10768553Y-33839935D01*
X10768553Y-33839935D02*
X10763791Y-33844697D01*
X10763791Y-33844697D02*
X10759029Y-33854221D01*
X10759029Y-33854221D02*
X10759029Y-33863744D01*
X10759029Y-33863744D02*
X10763791Y-33878030D01*
X10763791Y-33878030D02*
X10820934Y-33935173D01*
X10820934Y-33935173D02*
X10759029Y-33935173D01*
X11939267Y-34218173D02*
X11972601Y-34170554D01*
X11996410Y-34218173D02*
X11996410Y-34118173D01*
X11996410Y-34118173D02*
X11958315Y-34118173D01*
X11958315Y-34118173D02*
X11948791Y-34122935D01*
X11948791Y-34122935D02*
X11944029Y-34127697D01*
X11944029Y-34127697D02*
X11939267Y-34137221D01*
X11939267Y-34137221D02*
X11939267Y-34151506D01*
X11939267Y-34151506D02*
X11944029Y-34161030D01*
X11944029Y-34161030D02*
X11948791Y-34165792D01*
X11948791Y-34165792D02*
X11958315Y-34170554D01*
X11958315Y-34170554D02*
X11996410Y-34170554D01*
X11844029Y-34218173D02*
X11901172Y-34218173D01*
X11872601Y-34218173D02*
X11872601Y-34118173D01*
X11872601Y-34118173D02*
X11882124Y-34132459D01*
X11882124Y-34132459D02*
X11891648Y-34141982D01*
X11891648Y-34141982D02*
X11901172Y-34146744D01*
X11758315Y-34151506D02*
X11758315Y-34218173D01*
X11782124Y-34113411D02*
X11805934Y-34184840D01*
X11805934Y-34184840D02*
X11744029Y-34184840D01*
X11539505Y-33944697D02*
X11549029Y-33939935D01*
X11549029Y-33939935D02*
X11558553Y-33930411D01*
X11558553Y-33930411D02*
X11572839Y-33916125D01*
X11572839Y-33916125D02*
X11582363Y-33911363D01*
X11582363Y-33911363D02*
X11591886Y-33911363D01*
X11587124Y-33935173D02*
X11596648Y-33930411D01*
X11596648Y-33930411D02*
X11606172Y-33920887D01*
X11606172Y-33920887D02*
X11610934Y-33901840D01*
X11610934Y-33901840D02*
X11610934Y-33868506D01*
X11610934Y-33868506D02*
X11606172Y-33849459D01*
X11606172Y-33849459D02*
X11596648Y-33839935D01*
X11596648Y-33839935D02*
X11587124Y-33835173D01*
X11587124Y-33835173D02*
X11568077Y-33835173D01*
X11568077Y-33835173D02*
X11558553Y-33839935D01*
X11558553Y-33839935D02*
X11549029Y-33849459D01*
X11549029Y-33849459D02*
X11544267Y-33868506D01*
X11544267Y-33868506D02*
X11544267Y-33901840D01*
X11544267Y-33901840D02*
X11549029Y-33920887D01*
X11549029Y-33920887D02*
X11558553Y-33930411D01*
X11558553Y-33930411D02*
X11568077Y-33935173D01*
X11568077Y-33935173D02*
X11587124Y-33935173D01*
X11458553Y-33868506D02*
X11458553Y-33935173D01*
X11482363Y-33830411D02*
X11506172Y-33901840D01*
X11506172Y-33901840D02*
X11444267Y-33901840D01*
X10511648Y-40255173D02*
X10544982Y-40207554D01*
X10568791Y-40255173D02*
X10568791Y-40155173D01*
X10568791Y-40155173D02*
X10530696Y-40155173D01*
X10530696Y-40155173D02*
X10521172Y-40159935D01*
X10521172Y-40159935D02*
X10516410Y-40164697D01*
X10516410Y-40164697D02*
X10511648Y-40174221D01*
X10511648Y-40174221D02*
X10511648Y-40188506D01*
X10511648Y-40188506D02*
X10516410Y-40198030D01*
X10516410Y-40198030D02*
X10521172Y-40202792D01*
X10521172Y-40202792D02*
X10530696Y-40207554D01*
X10530696Y-40207554D02*
X10568791Y-40207554D01*
X10421172Y-40155173D02*
X10468791Y-40155173D01*
X10468791Y-40155173D02*
X10473553Y-40202792D01*
X10473553Y-40202792D02*
X10468791Y-40198030D01*
X10468791Y-40198030D02*
X10459267Y-40193268D01*
X10459267Y-40193268D02*
X10435458Y-40193268D01*
X10435458Y-40193268D02*
X10425934Y-40198030D01*
X10425934Y-40198030D02*
X10421172Y-40202792D01*
X10421172Y-40202792D02*
X10416410Y-40212316D01*
X10416410Y-40212316D02*
X10416410Y-40236125D01*
X10416410Y-40236125D02*
X10421172Y-40245649D01*
X10421172Y-40245649D02*
X10425934Y-40250411D01*
X10425934Y-40250411D02*
X10435458Y-40255173D01*
X10435458Y-40255173D02*
X10459267Y-40255173D01*
X10459267Y-40255173D02*
X10468791Y-40250411D01*
X10468791Y-40250411D02*
X10473553Y-40245649D01*
X11884505Y-37444697D02*
X11894029Y-37439935D01*
X11894029Y-37439935D02*
X11903553Y-37430411D01*
X11903553Y-37430411D02*
X11917839Y-37416125D01*
X11917839Y-37416125D02*
X11927363Y-37411363D01*
X11927363Y-37411363D02*
X11936886Y-37411363D01*
X11932124Y-37435173D02*
X11941648Y-37430411D01*
X11941648Y-37430411D02*
X11951172Y-37420887D01*
X11951172Y-37420887D02*
X11955934Y-37401840D01*
X11955934Y-37401840D02*
X11955934Y-37368506D01*
X11955934Y-37368506D02*
X11951172Y-37349459D01*
X11951172Y-37349459D02*
X11941648Y-37339935D01*
X11941648Y-37339935D02*
X11932124Y-37335173D01*
X11932124Y-37335173D02*
X11913077Y-37335173D01*
X11913077Y-37335173D02*
X11903553Y-37339935D01*
X11903553Y-37339935D02*
X11894029Y-37349459D01*
X11894029Y-37349459D02*
X11889267Y-37368506D01*
X11889267Y-37368506D02*
X11889267Y-37401840D01*
X11889267Y-37401840D02*
X11894029Y-37420887D01*
X11894029Y-37420887D02*
X11903553Y-37430411D01*
X11903553Y-37430411D02*
X11913077Y-37435173D01*
X11913077Y-37435173D02*
X11932124Y-37435173D01*
X11798791Y-37335173D02*
X11846410Y-37335173D01*
X11846410Y-37335173D02*
X11851172Y-37382792D01*
X11851172Y-37382792D02*
X11846410Y-37378030D01*
X11846410Y-37378030D02*
X11836886Y-37373268D01*
X11836886Y-37373268D02*
X11813077Y-37373268D01*
X11813077Y-37373268D02*
X11803553Y-37378030D01*
X11803553Y-37378030D02*
X11798791Y-37382792D01*
X11798791Y-37382792D02*
X11794029Y-37392316D01*
X11794029Y-37392316D02*
X11794029Y-37416125D01*
X11794029Y-37416125D02*
X11798791Y-37425649D01*
X11798791Y-37425649D02*
X11803553Y-37430411D01*
X11803553Y-37430411D02*
X11813077Y-37435173D01*
X11813077Y-37435173D02*
X11836886Y-37435173D01*
X11836886Y-37435173D02*
X11846410Y-37430411D01*
X11846410Y-37430411D02*
X11851172Y-37425649D01*
X11594267Y-30718173D02*
X11627601Y-30670554D01*
X11651410Y-30718173D02*
X11651410Y-30618173D01*
X11651410Y-30618173D02*
X11613315Y-30618173D01*
X11613315Y-30618173D02*
X11603791Y-30622935D01*
X11603791Y-30622935D02*
X11599029Y-30627697D01*
X11599029Y-30627697D02*
X11594267Y-30637220D01*
X11594267Y-30637220D02*
X11594267Y-30651506D01*
X11594267Y-30651506D02*
X11599029Y-30661030D01*
X11599029Y-30661030D02*
X11603791Y-30665792D01*
X11603791Y-30665792D02*
X11613315Y-30670554D01*
X11613315Y-30670554D02*
X11651410Y-30670554D01*
X11499029Y-30718173D02*
X11556172Y-30718173D01*
X11527601Y-30718173D02*
X11527601Y-30618173D01*
X11527601Y-30618173D02*
X11537124Y-30632459D01*
X11537124Y-30632459D02*
X11546648Y-30641982D01*
X11546648Y-30641982D02*
X11556172Y-30646744D01*
X11465696Y-30618173D02*
X11403791Y-30618173D01*
X11403791Y-30618173D02*
X11437124Y-30656268D01*
X11437124Y-30656268D02*
X11422839Y-30656268D01*
X11422839Y-30656268D02*
X11413315Y-30661030D01*
X11413315Y-30661030D02*
X11408553Y-30665792D01*
X11408553Y-30665792D02*
X11403791Y-30675316D01*
X11403791Y-30675316D02*
X11403791Y-30699125D01*
X11403791Y-30699125D02*
X11408553Y-30708649D01*
X11408553Y-30708649D02*
X11413315Y-30713411D01*
X11413315Y-30713411D02*
X11422839Y-30718173D01*
X11422839Y-30718173D02*
X11451410Y-30718173D01*
X11451410Y-30718173D02*
X11460934Y-30713411D01*
X11460934Y-30713411D02*
X11465696Y-30708649D01*
X11249267Y-41218173D02*
X11282601Y-41170554D01*
X11306410Y-41218173D02*
X11306410Y-41118173D01*
X11306410Y-41118173D02*
X11268315Y-41118173D01*
X11268315Y-41118173D02*
X11258791Y-41122935D01*
X11258791Y-41122935D02*
X11254029Y-41127697D01*
X11254029Y-41127697D02*
X11249267Y-41137221D01*
X11249267Y-41137221D02*
X11249267Y-41151506D01*
X11249267Y-41151506D02*
X11254029Y-41161030D01*
X11254029Y-41161030D02*
X11258791Y-41165792D01*
X11258791Y-41165792D02*
X11268315Y-41170554D01*
X11268315Y-41170554D02*
X11306410Y-41170554D01*
X11154029Y-41218173D02*
X11211172Y-41218173D01*
X11182601Y-41218173D02*
X11182601Y-41118173D01*
X11182601Y-41118173D02*
X11192124Y-41132459D01*
X11192124Y-41132459D02*
X11201648Y-41141982D01*
X11201648Y-41141982D02*
X11211172Y-41146744D01*
X11115934Y-41127697D02*
X11111172Y-41122935D01*
X11111172Y-41122935D02*
X11101648Y-41118173D01*
X11101648Y-41118173D02*
X11077839Y-41118173D01*
X11077839Y-41118173D02*
X11068315Y-41122935D01*
X11068315Y-41122935D02*
X11063553Y-41127697D01*
X11063553Y-41127697D02*
X11058791Y-41137221D01*
X11058791Y-41137221D02*
X11058791Y-41146744D01*
X11058791Y-41146744D02*
X11063553Y-41161030D01*
X11063553Y-41161030D02*
X11120696Y-41218173D01*
X11120696Y-41218173D02*
X11058791Y-41218173D01*
X13391013Y-15268482D02*
X13424346Y-15220862D01*
X13448155Y-15268482D02*
X13448155Y-15168482D01*
X13448155Y-15168482D02*
X13410060Y-15168482D01*
X13410060Y-15168482D02*
X13400536Y-15173243D01*
X13400536Y-15173243D02*
X13395774Y-15178005D01*
X13395774Y-15178005D02*
X13391013Y-15187529D01*
X13391013Y-15187529D02*
X13391013Y-15201815D01*
X13391013Y-15201815D02*
X13395774Y-15211339D01*
X13395774Y-15211339D02*
X13400536Y-15216101D01*
X13400536Y-15216101D02*
X13410060Y-15220862D01*
X13410060Y-15220862D02*
X13448155Y-15220862D01*
X13348155Y-15230386D02*
X13271965Y-15230386D01*
X13233870Y-15201815D02*
X13210060Y-15268482D01*
X13210060Y-15268482D02*
X13186251Y-15201815D01*
X13152917Y-15178005D02*
X13148155Y-15173243D01*
X13148155Y-15173243D02*
X13138632Y-15168482D01*
X13138632Y-15168482D02*
X13114822Y-15168482D01*
X13114822Y-15168482D02*
X13105298Y-15173243D01*
X13105298Y-15173243D02*
X13100536Y-15178005D01*
X13100536Y-15178005D02*
X13095774Y-15187529D01*
X13095774Y-15187529D02*
X13095774Y-15197053D01*
X13095774Y-15197053D02*
X13100536Y-15211339D01*
X13100536Y-15211339D02*
X13157679Y-15268482D01*
X13157679Y-15268482D02*
X13095774Y-15268482D01*
X13052917Y-15230386D02*
X12976727Y-15230386D01*
X12886251Y-15168482D02*
X12905298Y-15168482D01*
X12905298Y-15168482D02*
X12914822Y-15173243D01*
X12914822Y-15173243D02*
X12919584Y-15178005D01*
X12919584Y-15178005D02*
X12929108Y-15192291D01*
X12929108Y-15192291D02*
X12933870Y-15211339D01*
X12933870Y-15211339D02*
X12933870Y-15249434D01*
X12933870Y-15249434D02*
X12929108Y-15258958D01*
X12929108Y-15258958D02*
X12924346Y-15263720D01*
X12924346Y-15263720D02*
X12914822Y-15268482D01*
X12914822Y-15268482D02*
X12895774Y-15268482D01*
X12895774Y-15268482D02*
X12886251Y-15263720D01*
X12886251Y-15263720D02*
X12881489Y-15258958D01*
X12881489Y-15258958D02*
X12876727Y-15249434D01*
X12876727Y-15249434D02*
X12876727Y-15225624D01*
X12876727Y-15225624D02*
X12881489Y-15216101D01*
X12881489Y-15216101D02*
X12886251Y-15211339D01*
X12886251Y-15211339D02*
X12895774Y-15206577D01*
X12895774Y-15206577D02*
X12914822Y-15206577D01*
X12914822Y-15206577D02*
X12924346Y-15211339D01*
X12924346Y-15211339D02*
X12929108Y-15216101D01*
X12929108Y-15216101D02*
X12933870Y-15225624D01*
X3230304Y-8603809D02*
X3311256Y-8603809D01*
X3311256Y-8603809D02*
X3320780Y-8608571D01*
X3320780Y-8608571D02*
X3325542Y-8613333D01*
X3325542Y-8613333D02*
X3330304Y-8622857D01*
X3330304Y-8622857D02*
X3330304Y-8641904D01*
X3330304Y-8641904D02*
X3325542Y-8651428D01*
X3325542Y-8651428D02*
X3320780Y-8656190D01*
X3320780Y-8656190D02*
X3311256Y-8660952D01*
X3311256Y-8660952D02*
X3230304Y-8660952D01*
X3230304Y-8756190D02*
X3230304Y-8708571D01*
X3230304Y-8708571D02*
X3277923Y-8703809D01*
X3277923Y-8703809D02*
X3273161Y-8708571D01*
X3273161Y-8708571D02*
X3268399Y-8718095D01*
X3268399Y-8718095D02*
X3268399Y-8741904D01*
X3268399Y-8741904D02*
X3273161Y-8751428D01*
X3273161Y-8751428D02*
X3277923Y-8756190D01*
X3277923Y-8756190D02*
X3287447Y-8760952D01*
X3287447Y-8760952D02*
X3311256Y-8760952D01*
X3311256Y-8760952D02*
X3320780Y-8756190D01*
X3320780Y-8756190D02*
X3325542Y-8751428D01*
X3325542Y-8751428D02*
X3330304Y-8741904D01*
X3330304Y-8741904D02*
X3330304Y-8718095D01*
X3330304Y-8718095D02*
X3325542Y-8708571D01*
X3325542Y-8708571D02*
X3320780Y-8703809D01*
X10904267Y-34218173D02*
X10937601Y-34170554D01*
X10961410Y-34218173D02*
X10961410Y-34118173D01*
X10961410Y-34118173D02*
X10923315Y-34118173D01*
X10923315Y-34118173D02*
X10913791Y-34122935D01*
X10913791Y-34122935D02*
X10909029Y-34127697D01*
X10909029Y-34127697D02*
X10904267Y-34137221D01*
X10904267Y-34137221D02*
X10904267Y-34151506D01*
X10904267Y-34151506D02*
X10909029Y-34161030D01*
X10909029Y-34161030D02*
X10913791Y-34165792D01*
X10913791Y-34165792D02*
X10923315Y-34170554D01*
X10923315Y-34170554D02*
X10961410Y-34170554D01*
X10809029Y-34218173D02*
X10866172Y-34218173D01*
X10837601Y-34218173D02*
X10837601Y-34118173D01*
X10837601Y-34118173D02*
X10847125Y-34132459D01*
X10847125Y-34132459D02*
X10856648Y-34141982D01*
X10856648Y-34141982D02*
X10866172Y-34146744D01*
X10713791Y-34218173D02*
X10770934Y-34218173D01*
X10742363Y-34218173D02*
X10742363Y-34118173D01*
X10742363Y-34118173D02*
X10751886Y-34132459D01*
X10751886Y-34132459D02*
X10761410Y-34141982D01*
X10761410Y-34141982D02*
X10770934Y-34146744D01*
D13*
X11159509Y-40287441D02*
X11210454Y-40287441D01*
X11159509Y-40391941D02*
X11210454Y-40391941D01*
X10814509Y-37477441D02*
X10865454Y-37477441D01*
X10814509Y-37581941D02*
X10865454Y-37581941D01*
X11159509Y-30477441D02*
X11210454Y-30477441D01*
X11159509Y-30581941D02*
X11210454Y-30581941D01*
X10650982Y-33609691D02*
X10650982Y-33544691D01*
X10650982Y-33609691D02*
X10650982Y-33674691D01*
X10338982Y-33609691D02*
X10338982Y-33442191D01*
X10338982Y-33609691D02*
X10338982Y-33674691D01*
X10469509Y-30477441D02*
X10520454Y-30477441D01*
X10469509Y-30581941D02*
X10520454Y-30581941D01*
D12*
X13499822Y-14920000D02*
X13499822Y-14347500D01*
X12817322Y-14812500D02*
X12819822Y-14812500D01*
X12817322Y-14812500D02*
X12817322Y-14347500D01*
X12817322Y-14347500D02*
X12819822Y-14347500D01*
X13499822Y-14347500D02*
X13489822Y-14347500D01*
D13*
X11685982Y-30109691D02*
X11685982Y-30044691D01*
X11685982Y-30109691D02*
X11685982Y-30174691D01*
X11373982Y-30109691D02*
X11373982Y-29942191D01*
X11373982Y-30109691D02*
X11373982Y-30174691D01*
X11685982Y-40609691D02*
X11685982Y-40544691D01*
X11685982Y-40609691D02*
X11685982Y-40674691D01*
X11373982Y-40609691D02*
X11373982Y-40442191D01*
X11373982Y-40609691D02*
X11373982Y-40674691D01*
X12229608Y-36915691D02*
X12200355Y-36915691D01*
X12229608Y-36813691D02*
X12200355Y-36813691D01*
X11504509Y-36787441D02*
X11555454Y-36787441D01*
X11504509Y-36891941D02*
X11555454Y-36891941D01*
X12229608Y-29915691D02*
X12200355Y-29915691D01*
X12229608Y-29813691D02*
X12200355Y-29813691D01*
X11340982Y-33609691D02*
X11340982Y-33544691D01*
X11340982Y-33609691D02*
X11340982Y-33674691D01*
X11028982Y-33609691D02*
X11028982Y-33442191D01*
X11028982Y-33609691D02*
X11028982Y-33674691D01*
X11849509Y-30477441D02*
X11900454Y-30477441D01*
X11849509Y-30581941D02*
X11900454Y-30581941D01*
X12030982Y-40609691D02*
X12030982Y-40544691D01*
X12030982Y-40609691D02*
X12030982Y-40674691D01*
X11718982Y-40609691D02*
X11718982Y-40442191D01*
X11718982Y-40609691D02*
X11718982Y-40674691D01*
X10650982Y-37109691D02*
X10650982Y-37044691D01*
X10650982Y-37109691D02*
X10650982Y-37174691D01*
X10338982Y-37109691D02*
X10338982Y-36942191D01*
X10338982Y-37109691D02*
X10338982Y-37174691D01*
X11504509Y-40287441D02*
X11555454Y-40287441D01*
X11504509Y-40391941D02*
X11555454Y-40391941D01*
X11340982Y-37109691D02*
X11340982Y-37044691D01*
X11340982Y-37109691D02*
X11340982Y-37174691D01*
X11028982Y-37109691D02*
X11028982Y-36942191D01*
X11028982Y-37109691D02*
X11028982Y-37174691D01*
X12229608Y-33415691D02*
X12200355Y-33415691D01*
X12229608Y-33313691D02*
X12200355Y-33313691D01*
X11159509Y-33287441D02*
X11210454Y-33287441D01*
X11159509Y-33391941D02*
X11210454Y-33391941D01*
X13352572Y-9455472D02*
X13352572Y-9404527D01*
X13457072Y-9455472D02*
X13457072Y-9404527D01*
X10814509Y-30477441D02*
X10865454Y-30477441D01*
X10814509Y-30581941D02*
X10865454Y-30581941D01*
X12229608Y-40415691D02*
X12200355Y-40415691D01*
X12229608Y-40313691D02*
X12200355Y-40313691D01*
X11376322Y-16625000D02*
X11501322Y-16625000D01*
X12002322Y-16654000D02*
X12002322Y-17416000D01*
X11405322Y-16654000D02*
X12002322Y-16654000D01*
X11631322Y-16655000D02*
X11631322Y-16730000D01*
X11481322Y-16655000D02*
X11481322Y-16835000D01*
X11406322Y-16655000D02*
X11481322Y-16655000D01*
X11926322Y-16730000D02*
X11926322Y-17035000D01*
X11631322Y-16730000D02*
X11926322Y-16730000D01*
X11376322Y-16750000D02*
X11376322Y-16625000D01*
X11481322Y-16835000D02*
X11406322Y-16835000D01*
X11406322Y-16835000D02*
X11406322Y-16655000D01*
X11481322Y-16985000D02*
X11481322Y-17085000D01*
X11406322Y-16985000D02*
X11481322Y-16985000D01*
X11481322Y-17085000D02*
X11406322Y-17085000D01*
X11406322Y-17085000D02*
X11406322Y-16985000D01*
X11481322Y-17235000D02*
X11481322Y-17415000D01*
X11406322Y-17235000D02*
X11481322Y-17235000D01*
X11926322Y-17340000D02*
X11926322Y-17035000D01*
X11631322Y-17340000D02*
X11926322Y-17340000D01*
X11631322Y-17415000D02*
X11631322Y-17340000D01*
X11481322Y-17415000D02*
X11406322Y-17415000D01*
X11406322Y-17415000D02*
X11406322Y-17235000D01*
X12002322Y-17416000D02*
X11405322Y-17416000D01*
X11405322Y-17416000D02*
X11405322Y-16654000D01*
X12387232Y-37284691D02*
X12387232Y-37134691D01*
X12387232Y-37284691D02*
X12387232Y-37434691D01*
X12065232Y-37284691D02*
X12065232Y-36992191D01*
X12065232Y-37284691D02*
X12065232Y-37434691D01*
X12030982Y-33609691D02*
X12030982Y-33544691D01*
X12030982Y-33609691D02*
X12030982Y-33674691D01*
X11718982Y-33609691D02*
X11718982Y-33442191D01*
X11718982Y-33609691D02*
X11718982Y-33674691D01*
X11685982Y-37109691D02*
X11685982Y-37044691D01*
X11685982Y-37109691D02*
X11685982Y-37174691D01*
X11373982Y-37109691D02*
X11373982Y-36942191D01*
X11373982Y-37109691D02*
X11373982Y-37174691D01*
X10814509Y-40287441D02*
X10865454Y-40287441D01*
X10814509Y-40391941D02*
X10865454Y-40391941D01*
X12229608Y-40265691D02*
X12200355Y-40265691D01*
X12229608Y-40163691D02*
X12200355Y-40163691D01*
X12229608Y-36765691D02*
X12200355Y-36765691D01*
X12229608Y-36663691D02*
X12200355Y-36663691D01*
X10814509Y-29787441D02*
X10865454Y-29787441D01*
X10814509Y-29891941D02*
X10865454Y-29891941D01*
X11849509Y-37477441D02*
X11900454Y-37477441D01*
X11849509Y-37581941D02*
X11900454Y-37581941D01*
X12229608Y-29765691D02*
X12200355Y-29765691D01*
X12229608Y-29663691D02*
X12200355Y-29663691D01*
X11415000Y-4625000D02*
X11540000Y-4625000D01*
X12041000Y-4654000D02*
X12041000Y-5416000D01*
X11444000Y-4654000D02*
X12041000Y-4654000D01*
X11670000Y-4655000D02*
X11670000Y-4730000D01*
X11520000Y-4655000D02*
X11520000Y-4835000D01*
X11445000Y-4655000D02*
X11520000Y-4655000D01*
X11965000Y-4730000D02*
X11965000Y-5035000D01*
X11670000Y-4730000D02*
X11965000Y-4730000D01*
X11415000Y-4750000D02*
X11415000Y-4625000D01*
X11520000Y-4835000D02*
X11445000Y-4835000D01*
X11445000Y-4835000D02*
X11445000Y-4655000D01*
X11520000Y-4985000D02*
X11520000Y-5085000D01*
X11445000Y-4985000D02*
X11520000Y-4985000D01*
X11520000Y-5085000D02*
X11445000Y-5085000D01*
X11445000Y-5085000D02*
X11445000Y-4985000D01*
X11520000Y-5235000D02*
X11520000Y-5415000D01*
X11445000Y-5235000D02*
X11520000Y-5235000D01*
X11965000Y-5340000D02*
X11965000Y-5035000D01*
X11670000Y-5340000D02*
X11965000Y-5340000D01*
X11670000Y-5415000D02*
X11670000Y-5340000D01*
X11520000Y-5415000D02*
X11445000Y-5415000D01*
X11445000Y-5415000D02*
X11445000Y-5235000D01*
X12041000Y-5416000D02*
X11444000Y-5416000D01*
X11444000Y-5416000D02*
X11444000Y-4654000D01*
X12387232Y-33784691D02*
X12387232Y-33634691D01*
X12387232Y-33784691D02*
X12387232Y-33934691D01*
X12065232Y-33784691D02*
X12065232Y-33492191D01*
X12065232Y-33784691D02*
X12065232Y-33934691D01*
X10469509Y-29787441D02*
X10520454Y-29787441D01*
X10469509Y-29891941D02*
X10520454Y-29891941D01*
X11849509Y-33287441D02*
X11900454Y-33287441D01*
X11849509Y-33391941D02*
X11900454Y-33391941D01*
X11849509Y-40977441D02*
X11900454Y-40977441D01*
X11849509Y-41081941D02*
X11900454Y-41081941D01*
X11159509Y-37477441D02*
X11210454Y-37477441D01*
X11159509Y-37581941D02*
X11210454Y-37581941D01*
X11159509Y-29787441D02*
X11210454Y-29787441D01*
X11159509Y-29891941D02*
X11210454Y-29891941D01*
X10995982Y-40609691D02*
X10995982Y-40544691D01*
X10995982Y-40609691D02*
X10995982Y-40674691D01*
X10683982Y-40609691D02*
X10683982Y-40442191D01*
X10683982Y-40609691D02*
X10683982Y-40674691D01*
X10469509Y-37477441D02*
X10520454Y-37477441D01*
X10469509Y-37581941D02*
X10520454Y-37581941D01*
X12387232Y-30284691D02*
X12387232Y-30134691D01*
X12387232Y-30284691D02*
X12387232Y-30434691D01*
X12065232Y-30284691D02*
X12065232Y-29992191D01*
X12065232Y-30284691D02*
X12065232Y-30434691D01*
X10650982Y-40609691D02*
X10650982Y-40544691D01*
X10650982Y-40609691D02*
X10650982Y-40674691D01*
X10338982Y-40609691D02*
X10338982Y-40442191D01*
X10338982Y-40609691D02*
X10338982Y-40674691D01*
X10469509Y-33287441D02*
X10520454Y-33287441D01*
X10469509Y-33391941D02*
X10520454Y-33391941D01*
X3002572Y-15355472D02*
X3002572Y-15304527D01*
X3107072Y-15355472D02*
X3107072Y-15304527D01*
X10469509Y-40977441D02*
X10520454Y-40977441D01*
X10469509Y-41081941D02*
X10520454Y-41081941D01*
X10814509Y-36787441D02*
X10865454Y-36787441D01*
X10814509Y-36891941D02*
X10865454Y-36891941D01*
X11504509Y-40977441D02*
X11555454Y-40977441D01*
X11504509Y-41081941D02*
X11555454Y-41081941D01*
X10469509Y-36787441D02*
X10520454Y-36787441D01*
X10469509Y-36891941D02*
X10520454Y-36891941D01*
X13139350Y-9127750D02*
X13190295Y-9127750D01*
X13139350Y-9232250D02*
X13190295Y-9232250D01*
X11376322Y-10725000D02*
X11501322Y-10725000D01*
X12002322Y-10754000D02*
X12002322Y-11516000D01*
X11405322Y-10754000D02*
X12002322Y-10754000D01*
X11631322Y-10755000D02*
X11631322Y-10830000D01*
X11481322Y-10755000D02*
X11481322Y-10935000D01*
X11406322Y-10755000D02*
X11481322Y-10755000D01*
X11926322Y-10830000D02*
X11926322Y-11135000D01*
X11631322Y-10830000D02*
X11926322Y-10830000D01*
X11376322Y-10850000D02*
X11376322Y-10725000D01*
X11481322Y-10935000D02*
X11406322Y-10935000D01*
X11406322Y-10935000D02*
X11406322Y-10755000D01*
X11481322Y-11085000D02*
X11481322Y-11185000D01*
X11406322Y-11085000D02*
X11481322Y-11085000D01*
X11481322Y-11185000D02*
X11406322Y-11185000D01*
X11406322Y-11185000D02*
X11406322Y-11085000D01*
X11481322Y-11335000D02*
X11481322Y-11515000D01*
X11406322Y-11335000D02*
X11481322Y-11335000D01*
X11926322Y-11440000D02*
X11926322Y-11135000D01*
X11631322Y-11440000D02*
X11926322Y-11440000D01*
X11631322Y-11515000D02*
X11631322Y-11440000D01*
X11481322Y-11515000D02*
X11406322Y-11515000D01*
X11406322Y-11515000D02*
X11406322Y-11335000D01*
X12002322Y-11516000D02*
X11405322Y-11516000D01*
X11405322Y-11516000D02*
X11405322Y-10754000D01*
X10650982Y-30109691D02*
X10650982Y-30044691D01*
X10650982Y-30109691D02*
X10650982Y-30174691D01*
X10338982Y-30109691D02*
X10338982Y-29942191D01*
X10338982Y-30109691D02*
X10338982Y-30174691D01*
X3480295Y-15152250D02*
X3429350Y-15152250D01*
X3480295Y-15047750D02*
X3429350Y-15047750D01*
X11504509Y-33287441D02*
X11555454Y-33287441D01*
X11504509Y-33391941D02*
X11555454Y-33391941D01*
X10469509Y-33977441D02*
X10520454Y-33977441D01*
X10469509Y-34081941D02*
X10520454Y-34081941D01*
X11340982Y-30109691D02*
X11340982Y-30044691D01*
X11340982Y-30109691D02*
X11340982Y-30174691D01*
X11028982Y-30109691D02*
X11028982Y-29942191D01*
X11028982Y-30109691D02*
X11028982Y-30174691D01*
X11849509Y-40287441D02*
X11900454Y-40287441D01*
X11849509Y-40391941D02*
X11900454Y-40391941D01*
D12*
X3199822Y-14920000D02*
X3199822Y-14347500D01*
X2517322Y-14812500D02*
X2519822Y-14812500D01*
X2517322Y-14812500D02*
X2517322Y-14347500D01*
X2517322Y-14347500D02*
X2519822Y-14347500D01*
X3199822Y-14347500D02*
X3189822Y-14347500D01*
D13*
X11159509Y-36787441D02*
X11210454Y-36787441D01*
X11159509Y-36891941D02*
X11210454Y-36891941D01*
X7941000Y-241623D02*
X7941000Y-270876D01*
X7839000Y-241623D02*
X7839000Y-270876D01*
X11849509Y-29787441D02*
X11900454Y-29787441D01*
X11849509Y-29891941D02*
X11900454Y-29891941D01*
X7498322Y-6204500D02*
X7498322Y-6267000D01*
X7467072Y-6235750D02*
X7529572Y-6235750D01*
X7836378Y-6291000D02*
X7772822Y-6291000D01*
X7836378Y-6291000D02*
X7942822Y-6397443D01*
X7497266Y-6291000D02*
X7560822Y-6291000D01*
X7497266Y-6291000D02*
X7390822Y-6397443D01*
X7942822Y-6397443D02*
X7942822Y-6843000D01*
X7390822Y-6397443D02*
X7390822Y-6843000D01*
X7942822Y-6843000D02*
X7772822Y-6843000D01*
X7390822Y-6843000D02*
X7560822Y-6843000D01*
X11340982Y-40609691D02*
X11340982Y-40544691D01*
X11340982Y-40609691D02*
X11340982Y-40674691D01*
X11028982Y-40609691D02*
X11028982Y-40442191D01*
X11028982Y-40609691D02*
X11028982Y-40674691D01*
X10814509Y-33287441D02*
X10865454Y-33287441D01*
X10814509Y-33391941D02*
X10865454Y-33391941D01*
D12*
X13499822Y-9020000D02*
X13499822Y-8447500D01*
X12817322Y-8912500D02*
X12819822Y-8912500D01*
X12817322Y-8912500D02*
X12817322Y-8447500D01*
X12817322Y-8447500D02*
X12819822Y-8447500D01*
X13499822Y-8447500D02*
X13489822Y-8447500D01*
D13*
X10995982Y-30109691D02*
X10995982Y-30044691D01*
X10995982Y-30109691D02*
X10995982Y-30174691D01*
X10683982Y-30109691D02*
X10683982Y-29942191D01*
X10683982Y-30109691D02*
X10683982Y-30174691D01*
X11504509Y-33977441D02*
X11555454Y-33977441D01*
X11504509Y-34081941D02*
X11555454Y-34081941D01*
X13352572Y-15355472D02*
X13352572Y-15304527D01*
X13457072Y-15355472D02*
X13457072Y-15304527D01*
X3480295Y-9252250D02*
X3429350Y-9252250D01*
X3480295Y-9147750D02*
X3429350Y-9147750D01*
X12229608Y-33265691D02*
X12200355Y-33265691D01*
X12229608Y-33163691D02*
X12200355Y-33163691D01*
X11504509Y-37477441D02*
X11555454Y-37477441D01*
X11504509Y-37581941D02*
X11555454Y-37581941D01*
X10814509Y-40977441D02*
X10865454Y-40977441D01*
X10814509Y-41081941D02*
X10865454Y-41081941D01*
X10995982Y-37109691D02*
X10995982Y-37044691D01*
X10995982Y-37109691D02*
X10995982Y-37174691D01*
X10683982Y-37109691D02*
X10683982Y-36942191D01*
X10683982Y-37109691D02*
X10683982Y-37174691D01*
X7498322Y-12104500D02*
X7498322Y-12167000D01*
X7467072Y-12135750D02*
X7529572Y-12135750D01*
X7836378Y-12191000D02*
X7772822Y-12191000D01*
X7836378Y-12191000D02*
X7942822Y-12297443D01*
X7497266Y-12191000D02*
X7560822Y-12191000D01*
X7497266Y-12191000D02*
X7390822Y-12297443D01*
X7942822Y-12297443D02*
X7942822Y-12743000D01*
X7390822Y-12297443D02*
X7390822Y-12743000D01*
X7942822Y-12743000D02*
X7772822Y-12743000D01*
X7390822Y-12743000D02*
X7560822Y-12743000D01*
X12387232Y-40784691D02*
X12387232Y-40634691D01*
X12387232Y-40784691D02*
X12387232Y-40934691D01*
X12065232Y-40784691D02*
X12065232Y-40492191D01*
X12065232Y-40784691D02*
X12065232Y-40934691D01*
X11849509Y-36787441D02*
X11900454Y-36787441D01*
X11849509Y-36891941D02*
X11900454Y-36891941D01*
X11504509Y-29787441D02*
X11555454Y-29787441D01*
X11504509Y-29891941D02*
X11555454Y-29891941D01*
X3002572Y-9455472D02*
X3002572Y-9404527D01*
X3107072Y-9455472D02*
X3107072Y-9404527D01*
X12030982Y-30109691D02*
X12030982Y-30044691D01*
X12030982Y-30109691D02*
X12030982Y-30174691D01*
X11718982Y-30109691D02*
X11718982Y-29942191D01*
X11718982Y-30109691D02*
X11718982Y-30174691D01*
X11159509Y-33977441D02*
X11210454Y-33977441D01*
X11159509Y-34081941D02*
X11210454Y-34081941D01*
X10995982Y-33609691D02*
X10995982Y-33544691D01*
X10995982Y-33609691D02*
X10995982Y-33674691D01*
X10683982Y-33609691D02*
X10683982Y-33442191D01*
X10683982Y-33609691D02*
X10683982Y-33674691D01*
X11849509Y-33977441D02*
X11900454Y-33977441D01*
X11849509Y-34081941D02*
X11900454Y-34081941D01*
X11685982Y-33609691D02*
X11685982Y-33544691D01*
X11685982Y-33609691D02*
X11685982Y-33674691D01*
X11373982Y-33609691D02*
X11373982Y-33442191D01*
X11373982Y-33609691D02*
X11373982Y-33674691D01*
X10469509Y-40287441D02*
X10520454Y-40287441D01*
X10469509Y-40391941D02*
X10520454Y-40391941D01*
X12030982Y-37109691D02*
X12030982Y-37044691D01*
X12030982Y-37109691D02*
X12030982Y-37174691D01*
X11718982Y-37109691D02*
X11718982Y-36942191D01*
X11718982Y-37109691D02*
X11718982Y-37174691D01*
X11504509Y-30477441D02*
X11555454Y-30477441D01*
X11504509Y-30581941D02*
X11555454Y-30581941D01*
X11159509Y-40977441D02*
X11210454Y-40977441D01*
X11159509Y-41081941D02*
X11210454Y-41081941D01*
X13139350Y-15027750D02*
X13190295Y-15027750D01*
X13139350Y-15132250D02*
X13190295Y-15132250D01*
D12*
X3199822Y-9020000D02*
X3199822Y-8447500D01*
X2517322Y-8912500D02*
X2519822Y-8912500D01*
X2517322Y-8912500D02*
X2517322Y-8447500D01*
X2517322Y-8447500D02*
X2519822Y-8447500D01*
X3199822Y-8447500D02*
X3189822Y-8447500D01*
D13*
X10814509Y-33977441D02*
X10865454Y-33977441D01*
X10814509Y-34081941D02*
X10865454Y-34081941D01*
%LPC*%
D14*
X1850000Y-4970000D03*
X9899982Y-41119691D03*
X14350000Y-4970000D03*
X12899982Y-38519691D03*
X9899982Y-28019691D03*
X15350000Y-2770000D03*
X12899982Y-34119691D03*
X723822Y-8870000D03*
X1723822Y-11070000D03*
D15*
X12614222Y-12496200D03*
D16*
X12364222Y-12496200D03*
X12114222Y-12496200D03*
D17*
X10624982Y-37809691D03*
D18*
X10878982Y-37809691D03*
X11132982Y-37809691D03*
X11386982Y-37809691D03*
X11640982Y-37809691D03*
X11894982Y-37809691D03*
X12148982Y-37809691D03*
D14*
X15223822Y-8870000D03*
X12899982Y-31519691D03*
D15*
X3698822Y-6572500D03*
D16*
X3448822Y-6572500D03*
X3198822Y-6572500D03*
D14*
X1723822Y-16970000D03*
X14223822Y-6870000D03*
D17*
X10624982Y-34309691D03*
D18*
X10878982Y-34309691D03*
X11132982Y-34309691D03*
X11386982Y-34309691D03*
X11640982Y-34309691D03*
X11894982Y-34309691D03*
X12148982Y-34309691D03*
D17*
X10624982Y-30809691D03*
D18*
X10878982Y-30809691D03*
X11132982Y-30809691D03*
X11386982Y-30809691D03*
X11640982Y-30809691D03*
X11894982Y-30809691D03*
X12148982Y-30809691D03*
D14*
X15223822Y-14770000D03*
D17*
X8143822Y-12276000D03*
D18*
X8397822Y-12276000D03*
X8143822Y-12530000D03*
X8397822Y-12530000D03*
X8143822Y-12784000D03*
X8397822Y-12784000D03*
X8143822Y-13038000D03*
X8397822Y-13038000D03*
D14*
X1723822Y-6870000D03*
X850000Y-2770000D03*
D15*
X3698822Y-12472500D03*
D16*
X3448822Y-12472500D03*
X3198822Y-12472500D03*
D14*
X12899982Y-41119691D03*
D17*
X10624982Y-41309691D03*
D18*
X10878982Y-41309691D03*
X11132982Y-41309691D03*
X11386982Y-41309691D03*
X11640982Y-41309691D03*
X11894982Y-41309691D03*
X12148982Y-41309691D03*
D14*
X12899982Y-28019691D03*
X14223822Y-11070000D03*
X14223822Y-12770000D03*
X9899982Y-37619691D03*
X12899982Y-35019691D03*
X14350000Y-770000D03*
X9899982Y-35019691D03*
X9899982Y-31519691D03*
X9899982Y-38519691D03*
X14223822Y-16970000D03*
D15*
X12740400Y-496200D03*
D16*
X12490400Y-496200D03*
X12240400Y-496200D03*
D14*
X9899982Y-30619691D03*
X12899982Y-30619691D03*
X12899982Y-37619691D03*
D17*
X8143822Y-6376000D03*
D18*
X8397822Y-6376000D03*
X8143822Y-6630000D03*
X8397822Y-6630000D03*
X8143822Y-6884000D03*
X8397822Y-6884000D03*
X8143822Y-7138000D03*
X8397822Y-7138000D03*
D14*
X1723822Y-12770000D03*
X9899982Y-34119691D03*
D15*
X12614222Y-6596200D03*
D16*
X12364222Y-6596200D03*
X12114222Y-6596200D03*
D17*
X8270000Y-276000D03*
D18*
X8524000Y-276000D03*
X8270000Y-530000D03*
X8524000Y-530000D03*
X8270000Y-784000D03*
X8524000Y-784000D03*
X8270000Y-1038000D03*
X8524000Y-1038000D03*
D14*
X723822Y-14770000D03*
X1850000Y-770000D03*
D15*
X3825000Y-472500D03*
D16*
X3575000Y-472500D03*
X3325000Y-472500D03*
D19*
X11093732Y-40339691D03*
X11276232Y-40339691D03*
X10748732Y-37529691D03*
X10931232Y-37529691D03*
X11093732Y-30529691D03*
X11276232Y-30529691D03*
D20*
X10399982Y-33515941D03*
X10589982Y-33515941D03*
X10494982Y-33703441D03*
D19*
X10403732Y-30529691D03*
X10586232Y-30529691D03*
D21*
X13447322Y-14870000D03*
X13382322Y-14870000D03*
X13317322Y-14870000D03*
X13252322Y-14870000D03*
X13187322Y-14870000D03*
X13122322Y-14870000D03*
X13057322Y-14870000D03*
X12992322Y-14870000D03*
X12927322Y-14870000D03*
X12862322Y-14870000D03*
X12862322Y-14290000D03*
X12927322Y-14290000D03*
X12992322Y-14290000D03*
X13057322Y-14290000D03*
X13122322Y-14290000D03*
X13187322Y-14290000D03*
X13252322Y-14290000D03*
X13317322Y-14290000D03*
X13382322Y-14290000D03*
X13447322Y-14290000D03*
D20*
X11434982Y-30015941D03*
X11624982Y-30015941D03*
X11529982Y-30203441D03*
X11434982Y-40515941D03*
X11624982Y-40515941D03*
X11529982Y-40703441D03*
D22*
X12301232Y-36864691D03*
X12128732Y-36864691D03*
D19*
X11438732Y-36839691D03*
X11621232Y-36839691D03*
D22*
X12301232Y-29864691D03*
X12128732Y-29864691D03*
D20*
X11089982Y-33515941D03*
X11279982Y-33515941D03*
X11184982Y-33703441D03*
D19*
X11783732Y-30529691D03*
X11966232Y-30529691D03*
D20*
X11779982Y-40515941D03*
X11969982Y-40515941D03*
X11874982Y-40703441D03*
X10399982Y-37015941D03*
X10589982Y-37015941D03*
X10494982Y-37203441D03*
D19*
X11438732Y-40339691D03*
X11621232Y-40339691D03*
D20*
X11089982Y-37015941D03*
X11279982Y-37015941D03*
X11184982Y-37203441D03*
D22*
X12301232Y-33364691D03*
X12128732Y-33364691D03*
D19*
X11093732Y-33339691D03*
X11276232Y-33339691D03*
D23*
X13404822Y-9521250D03*
X13404822Y-9338750D03*
D19*
X10748732Y-30529691D03*
X10931232Y-30529691D03*
D22*
X12301232Y-40364691D03*
X12128732Y-40364691D03*
D24*
X11651322Y-16910000D03*
D25*
X11651322Y-17160000D03*
D26*
X12128732Y-37073441D03*
X12193732Y-37073441D03*
X12258732Y-37073441D03*
X12323732Y-37073441D03*
X12323732Y-37495941D03*
X12258732Y-37495941D03*
X12193732Y-37495941D03*
X12128732Y-37495941D03*
D20*
X11779982Y-33515941D03*
X11969982Y-33515941D03*
X11874982Y-33703441D03*
X11434982Y-37015941D03*
X11624982Y-37015941D03*
X11529982Y-37203441D03*
D19*
X10748732Y-40339691D03*
X10931232Y-40339691D03*
D22*
X12301232Y-40214691D03*
X12128732Y-40214691D03*
X12301232Y-36714691D03*
X12128732Y-36714691D03*
D19*
X10748732Y-29839691D03*
X10931232Y-29839691D03*
X11783732Y-37529691D03*
X11966232Y-37529691D03*
D22*
X12301232Y-29714691D03*
X12128732Y-29714691D03*
D24*
X11690000Y-4910000D03*
D25*
X11690000Y-5160000D03*
D26*
X12128732Y-33573441D03*
X12193732Y-33573441D03*
X12258732Y-33573441D03*
X12323732Y-33573441D03*
X12323732Y-33995941D03*
X12258732Y-33995941D03*
X12193732Y-33995941D03*
X12128732Y-33995941D03*
D19*
X10403732Y-29839691D03*
X10586232Y-29839691D03*
X11783732Y-33339691D03*
X11966232Y-33339691D03*
X11783732Y-41029691D03*
X11966232Y-41029691D03*
X11093732Y-37529691D03*
X11276232Y-37529691D03*
X11093732Y-29839691D03*
X11276232Y-29839691D03*
D20*
X10744982Y-40515941D03*
X10934982Y-40515941D03*
X10839982Y-40703441D03*
D19*
X10403732Y-37529691D03*
X10586232Y-37529691D03*
D26*
X12128732Y-30073441D03*
X12193732Y-30073441D03*
X12258732Y-30073441D03*
X12323732Y-30073441D03*
X12323732Y-30495941D03*
X12258732Y-30495941D03*
X12193732Y-30495941D03*
X12128732Y-30495941D03*
D20*
X10399982Y-40515941D03*
X10589982Y-40515941D03*
X10494982Y-40703441D03*
D19*
X10403732Y-33339691D03*
X10586232Y-33339691D03*
D23*
X3054822Y-15421250D03*
X3054822Y-15238750D03*
D19*
X10403732Y-41029691D03*
X10586232Y-41029691D03*
X10748732Y-36839691D03*
X10931232Y-36839691D03*
X11438732Y-41029691D03*
X11621232Y-41029691D03*
X10403732Y-36839691D03*
X10586232Y-36839691D03*
X13073572Y-9180000D03*
X13256072Y-9180000D03*
D24*
X11651322Y-11010000D03*
D25*
X11651322Y-11260000D03*
D20*
X10399982Y-30015941D03*
X10589982Y-30015941D03*
X10494982Y-30203441D03*
D27*
X3546072Y-15100000D03*
X3363572Y-15100000D03*
D19*
X11438732Y-33339691D03*
X11621232Y-33339691D03*
X10403732Y-34029691D03*
X10586232Y-34029691D03*
D20*
X11089982Y-30015941D03*
X11279982Y-30015941D03*
X11184982Y-30203441D03*
D19*
X11783732Y-40339691D03*
X11966232Y-40339691D03*
D21*
X3147322Y-14870000D03*
X3082322Y-14870000D03*
X3017322Y-14870000D03*
X2952322Y-14870000D03*
X2887322Y-14870000D03*
X2822322Y-14870000D03*
X2757322Y-14870000D03*
X2692322Y-14870000D03*
X2627322Y-14870000D03*
X2562322Y-14870000D03*
X2562322Y-14290000D03*
X2627322Y-14290000D03*
X2692322Y-14290000D03*
X2757322Y-14290000D03*
X2822322Y-14290000D03*
X2887322Y-14290000D03*
X2952322Y-14290000D03*
X3017322Y-14290000D03*
X3082322Y-14290000D03*
X3147322Y-14290000D03*
D19*
X11093732Y-36839691D03*
X11276232Y-36839691D03*
D28*
X7890000Y-170000D03*
X7890000Y-342500D03*
D19*
X11783732Y-29839691D03*
X11966232Y-29839691D03*
D29*
X7666822Y-6347000D03*
X7666822Y-6787000D03*
D20*
X11089982Y-40515941D03*
X11279982Y-40515941D03*
X11184982Y-40703441D03*
D19*
X10748732Y-33339691D03*
X10931232Y-33339691D03*
D21*
X13447322Y-8970000D03*
X13382322Y-8970000D03*
X13317322Y-8970000D03*
X13252322Y-8970000D03*
X13187322Y-8970000D03*
X13122322Y-8970000D03*
X13057322Y-8970000D03*
X12992322Y-8970000D03*
X12927322Y-8970000D03*
X12862322Y-8970000D03*
X12862322Y-8390000D03*
X12927322Y-8390000D03*
X12992322Y-8390000D03*
X13057322Y-8390000D03*
X13122322Y-8390000D03*
X13187322Y-8390000D03*
X13252322Y-8390000D03*
X13317322Y-8390000D03*
X13382322Y-8390000D03*
X13447322Y-8390000D03*
D20*
X10744982Y-30015941D03*
X10934982Y-30015941D03*
X10839982Y-30203441D03*
D19*
X11438732Y-34029691D03*
X11621232Y-34029691D03*
D23*
X13404822Y-15421250D03*
X13404822Y-15238750D03*
D27*
X3546072Y-9200000D03*
X3363572Y-9200000D03*
D22*
X12301232Y-33214691D03*
X12128732Y-33214691D03*
D19*
X11438732Y-37529691D03*
X11621232Y-37529691D03*
X10748732Y-41029691D03*
X10931232Y-41029691D03*
D20*
X10744982Y-37015941D03*
X10934982Y-37015941D03*
X10839982Y-37203441D03*
D29*
X7666822Y-12247000D03*
X7666822Y-12687000D03*
D26*
X12128732Y-40573441D03*
X12193732Y-40573441D03*
X12258732Y-40573441D03*
X12323732Y-40573441D03*
X12323732Y-40995941D03*
X12258732Y-40995941D03*
X12193732Y-40995941D03*
X12128732Y-40995941D03*
D19*
X11783732Y-36839691D03*
X11966232Y-36839691D03*
X11438732Y-29839691D03*
X11621232Y-29839691D03*
D23*
X3054822Y-9521250D03*
X3054822Y-9338750D03*
D20*
X11779982Y-30015941D03*
X11969982Y-30015941D03*
X11874982Y-30203441D03*
D19*
X11093732Y-34029691D03*
X11276232Y-34029691D03*
D20*
X10744982Y-33515941D03*
X10934982Y-33515941D03*
X10839982Y-33703441D03*
D19*
X11783732Y-34029691D03*
X11966232Y-34029691D03*
D20*
X11434982Y-33515941D03*
X11624982Y-33515941D03*
X11529982Y-33703441D03*
D19*
X10403732Y-40339691D03*
X10586232Y-40339691D03*
D20*
X11779982Y-37015941D03*
X11969982Y-37015941D03*
X11874982Y-37203441D03*
D19*
X11438732Y-30529691D03*
X11621232Y-30529691D03*
X11093732Y-41029691D03*
X11276232Y-41029691D03*
X13073572Y-15080000D03*
X13256072Y-15080000D03*
D21*
X3147322Y-8970000D03*
X3082322Y-8970000D03*
X3017322Y-8970000D03*
X2952322Y-8970000D03*
X2887322Y-8970000D03*
X2822322Y-8970000D03*
X2757322Y-8970000D03*
X2692322Y-8970000D03*
X2627322Y-8970000D03*
X2562322Y-8970000D03*
X2562322Y-8390000D03*
X2627322Y-8390000D03*
X2692322Y-8390000D03*
X2757322Y-8390000D03*
X2822322Y-8390000D03*
X2887322Y-8390000D03*
X2952322Y-8390000D03*
X3017322Y-8390000D03*
X3082322Y-8390000D03*
X3147322Y-8390000D03*
D19*
X10748732Y-34029691D03*
X10931232Y-34029691D03*
%LPD*%
M02*
