%TF.GenerationSoftware,KiCad,Pcbnew,7.0.6-7.0.6~ubuntu20.04.1*%
%TF.CreationDate,2023-07-11T09:00:34+02:00*%
%TF.ProjectId,output_panel2023-07-11_070008.8206480000,6f757470-7574-45f7-9061-6e656c323032,rev?*%
%TF.SameCoordinates,Original*%
%TF.FileFunction,Paste,Top*%
%TF.FilePolarity,Positive*%
%FSLAX45Y45*%
G04 Gerber Fmt 4.5, Leading zero omitted, Abs format (unit mm)*
G04 Created by KiCad (PCBNEW 7.0.6-7.0.6~ubuntu20.04.1) date 2023-07-11 09:00:34*
%MOMM*%
%LPD*%
G01*
G04 APERTURE LIST*
G04 Aperture macros list*
%AMRoundRect*
0 Rectangle with rounded corners*
0 $1 Rounding radius*
0 $2 $3 $4 $5 $6 $7 $8 $9 X,Y pos of 4 corners*
0 Add a 4 corners polygon primitive as box body*
4,1,4,$2,$3,$4,$5,$6,$7,$8,$9,$2,$3,0*
0 Add four circle primitives for the rounded corners*
1,1,$1+$1,$2,$3*
1,1,$1+$1,$4,$5*
1,1,$1+$1,$6,$7*
1,1,$1+$1,$8,$9*
0 Add four rect primitives between the rounded corners*
20,1,$1+$1,$2,$3,$4,$5,0*
20,1,$1+$1,$4,$5,$6,$7,0*
20,1,$1+$1,$6,$7,$8,$9,0*
20,1,$1+$1,$8,$9,$2,$3,0*%
G04 Aperture macros list end*
%TA.AperFunction,Profile*%
%ADD10C,0.100000*%
%TD*%
%TA.AperFunction,Profile*%
%ADD11C,0.050000*%
%TD*%
%ADD12RoundRect,0.237500X0.287500X0.237500X-0.287500X0.237500X-0.287500X-0.237500X0.287500X-0.237500X0*%
%ADD13R,2.400000X0.740000*%
%ADD14RoundRect,0.237500X-0.250000X-0.237500X0.250000X-0.237500X0.250000X0.237500X-0.250000X0.237500X0*%
%ADD15RoundRect,0.125000X0.625000X0.125000X-0.625000X0.125000X-0.625000X-0.125000X0.625000X-0.125000X0*%
%ADD16RoundRect,0.125000X0.125000X0.625000X-0.125000X0.625000X-0.125000X-0.625000X0.125000X-0.625000X0*%
%ADD17RoundRect,0.237500X-0.300000X-0.237500X0.300000X-0.237500X0.300000X0.237500X-0.300000X0.237500X0*%
%ADD18RoundRect,0.237500X0.237500X-0.300000X0.237500X0.300000X-0.237500X0.300000X-0.237500X-0.300000X0*%
%ADD19R,1.550000X1.300000*%
%ADD20RoundRect,0.237500X0.237500X-0.250000X0.237500X0.250000X-0.237500X0.250000X-0.237500X-0.250000X0*%
%ADD21R,3.000000X1.000000*%
G04 APERTURE END LIST*
D10*
X36799979Y-12699691D02*
G75*
G03*
X37199982Y-13099691I400001J1D01*
G01*
X32799979Y-10099691D02*
G75*
G03*
X32399982Y-9699691I-399999J1D01*
G01*
D11*
X9149999Y-9599997D02*
X8249999Y-9499997D01*
D10*
X25099979Y-12699691D02*
G75*
G03*
X25499982Y-13099691I400001J1D01*
G01*
X41099982Y-9699692D02*
G75*
G03*
X40699982Y-10099691I-2J-399998D01*
G01*
X9899982Y-44699692D02*
G75*
G03*
X9499982Y-45099691I-2J-399998D01*
G01*
X41099982Y-9699691D02*
X44099982Y-9699691D01*
X13299979Y-10099691D02*
G75*
G03*
X12899982Y-9699691I-399999J1D01*
G01*
D11*
X17699981Y-9499997D02*
X17949981Y-999997D01*
X849999Y-20199380D02*
X499999Y-27999380D01*
D10*
X9899982Y-34199692D02*
G75*
G03*
X9499982Y-34599691I-2J-399998D01*
G01*
D11*
X49999Y-8899997D02*
X99999Y-49997D01*
D10*
X32799982Y-10099691D02*
X32799982Y-12699691D01*
X33299982Y-9699692D02*
G75*
G03*
X32899982Y-10099691I-2J-399998D01*
G01*
D11*
X8499999Y-39598762D02*
X849999Y-39498762D01*
D10*
X21199979Y-12699691D02*
G75*
G03*
X21599982Y-13099691I400001J1D01*
G01*
X9899982Y-13199692D02*
G75*
G03*
X9499982Y-13599691I-2J-399998D01*
G01*
X21599982Y-9699691D02*
X24599982Y-9699691D01*
X37199982Y-9699692D02*
G75*
G03*
X36799982Y-10099691I-2J-399998D01*
G01*
D11*
X19749963Y-899997D02*
X19399963Y-8699997D01*
D10*
X13299982Y-31099691D02*
X13299982Y-33699691D01*
X9899982Y-16699692D02*
G75*
G03*
X9499982Y-17099691I-2J-399998D01*
G01*
X9499982Y-26699691D02*
X9499982Y-24099691D01*
X13299982Y-34599691D02*
X13299982Y-37199691D01*
D11*
X8499999Y-10649688D02*
X849999Y-10549688D01*
X37849926Y-8899997D02*
X37899926Y-49997D01*
X49999Y-47498762D02*
X99999Y-38648762D01*
X27149963Y-9499997D02*
X27399963Y-999997D01*
X18949963Y-8899997D02*
X18999963Y-49997D01*
D10*
X9899982Y-9699692D02*
G75*
G03*
X9499982Y-10099691I-2J-399998D01*
G01*
X28899979Y-10099691D02*
G75*
G03*
X28499982Y-9699691I-399999J1D01*
G01*
X9499979Y-23199691D02*
G75*
G03*
X9899982Y-23599691I400001J1D01*
G01*
D11*
X18849981Y-149997D02*
X18599981Y-9599997D01*
D10*
X17199982Y-10099691D02*
X17199982Y-12699691D01*
D11*
X8249999Y-19149688D02*
X8499999Y-10649688D01*
X9949981Y-8699997D02*
X9499981Y-8899997D01*
X9149999Y-48198762D02*
X8249999Y-48098762D01*
D10*
X17299982Y-12699691D02*
X17299982Y-10099691D01*
X13299982Y-24099691D02*
X13299982Y-26699691D01*
D11*
X47199926Y-149997D02*
X46949926Y-9599997D01*
X9399999Y-149997D02*
X9149999Y-9599997D01*
D10*
X20699982Y-13099691D02*
X17699982Y-13099691D01*
X28499982Y-13099692D02*
G75*
G03*
X28899982Y-12699691I-2J400002D01*
G01*
X12899982Y-16599692D02*
G75*
G03*
X13299982Y-16199691I-2J400002D01*
G01*
X13399979Y-12699691D02*
G75*
G03*
X13799982Y-13099691I400001J1D01*
G01*
X9899982Y-34199691D02*
X12899982Y-34199691D01*
D11*
X8499999Y-20299380D02*
X849999Y-20199380D01*
D10*
X32399982Y-13099691D02*
X29399982Y-13099691D01*
X21599982Y-9699692D02*
G75*
G03*
X21199982Y-10099691I-2J-399998D01*
G01*
D11*
X849999Y-29849071D02*
X499999Y-37649071D01*
D10*
X40699979Y-12699691D02*
G75*
G03*
X41099982Y-13099691I400001J1D01*
G01*
X13299979Y-31099691D02*
G75*
G03*
X12899982Y-30699691I-399999J1D01*
G01*
D11*
X499999Y-8699997D02*
X49999Y-8899997D01*
X49999Y-28199380D02*
X99999Y-19349380D01*
D10*
X25499982Y-9699692D02*
G75*
G03*
X25099982Y-10099691I-2J-399998D01*
G01*
X9499979Y-26699691D02*
G75*
G03*
X9899982Y-27099691I400001J1D01*
G01*
D11*
X499999Y-47298762D02*
X49999Y-47498762D01*
X28849944Y-8699997D02*
X28399944Y-8899997D01*
D10*
X12899982Y-13099692D02*
G75*
G03*
X13299982Y-12699691I-2J400002D01*
G01*
X33299982Y-9699691D02*
X36299982Y-9699691D01*
X16799982Y-13099691D02*
X13799982Y-13099691D01*
X12899982Y-30599692D02*
G75*
G03*
X13299982Y-30199691I-2J400002D01*
G01*
X16799982Y-13099692D02*
G75*
G03*
X17199982Y-12699691I-2J400002D01*
G01*
X12899982Y-27099691D02*
X9899982Y-27099691D01*
X24999979Y-10099691D02*
G75*
G03*
X24599982Y-9699691I-399999J1D01*
G01*
D11*
X499999Y-27999380D02*
X49999Y-28199380D01*
D10*
X12899982Y-23599692D02*
G75*
G03*
X13299982Y-23199691I-2J400002D01*
G01*
D11*
X99999Y-9699688D02*
X9399999Y-9799688D01*
X8499999Y-999997D02*
X849999Y-899997D01*
D10*
X9899982Y-30699692D02*
G75*
G03*
X9499982Y-31099691I-2J-399998D01*
G01*
X9499979Y-30199691D02*
G75*
G03*
X9899982Y-30599691I400001J1D01*
G01*
X9499982Y-47699691D02*
X9499982Y-45099691D01*
D11*
X28049963Y-9599997D02*
X27149963Y-9499997D01*
X9499981Y-8899997D02*
X9549981Y-49997D01*
D10*
X13299979Y-27599691D02*
G75*
G03*
X12899982Y-27199691I-399999J1D01*
G01*
X36699982Y-10099691D02*
X36699982Y-12699691D01*
X9899982Y-23699691D02*
X12899982Y-23699691D01*
X9899982Y-16699691D02*
X12899982Y-16699691D01*
D11*
X849999Y-39498762D02*
X499999Y-47298762D01*
D10*
X13299982Y-41599691D02*
X13299982Y-44199691D01*
X9499979Y-40699691D02*
G75*
G03*
X9899982Y-41099691I400001J1D01*
G01*
X28999982Y-12699691D02*
X28999982Y-10099691D01*
D11*
X29199944Y-899997D02*
X28849944Y-8699997D01*
X8249999Y-28799380D02*
X8499999Y-20299380D01*
D10*
X13299982Y-27599691D02*
X13299982Y-30199691D01*
X44099982Y-13099692D02*
G75*
G03*
X44499982Y-12699691I-2J400002D01*
G01*
D11*
X9399999Y-19449380D02*
X9149999Y-28899380D01*
X9399999Y-9799688D02*
X9149999Y-19249688D01*
D10*
X17199979Y-10099691D02*
G75*
G03*
X16799982Y-9699691I-399999J1D01*
G01*
X9499982Y-16199691D02*
X9499982Y-13599691D01*
X24999982Y-10099691D02*
X24999982Y-12699691D01*
X9499979Y-19699691D02*
G75*
G03*
X9899982Y-20099691I400001J1D01*
G01*
X9499979Y-33699691D02*
G75*
G03*
X9899982Y-34099691I400001J1D01*
G01*
X12899982Y-41099692D02*
G75*
G03*
X13299982Y-40699691I-2J400002D01*
G01*
X37199982Y-9699691D02*
X40199982Y-9699691D01*
D11*
X19399963Y-8699997D02*
X18949963Y-8899997D01*
D10*
X13299979Y-45099691D02*
G75*
G03*
X12899982Y-44699691I-399999J1D01*
G01*
X13299982Y-20599691D02*
X13299982Y-23199691D01*
D11*
X8249999Y-9499997D02*
X8499999Y-999997D01*
D10*
X9499982Y-40699691D02*
X9499982Y-38099691D01*
X9499982Y-44199691D02*
X9499982Y-41599691D01*
X13299979Y-17099691D02*
G75*
G03*
X12899982Y-16699691I-399999J1D01*
G01*
D11*
X99999Y-38648762D02*
X9399999Y-38748762D01*
D10*
X13299982Y-17099691D02*
X13299982Y-19699691D01*
X40199982Y-13099692D02*
G75*
G03*
X40599982Y-12699691I-2J400002D01*
G01*
X13299979Y-38099691D02*
G75*
G03*
X12899982Y-37699691I-399999J1D01*
G01*
X13299979Y-41599691D02*
G75*
G03*
X12899982Y-41199691I-399999J1D01*
G01*
X44099982Y-13099691D02*
X41099982Y-13099691D01*
X40699982Y-12699691D02*
X40699982Y-10099691D01*
X24599982Y-13099692D02*
G75*
G03*
X24999982Y-12699691I-2J400002D01*
G01*
D11*
X28299963Y-149997D02*
X28049963Y-9599997D01*
X49999Y-18549688D02*
X99999Y-9699688D01*
X9399999Y-29099071D02*
X9149999Y-38549071D01*
D10*
X36699979Y-10099691D02*
G75*
G03*
X36299982Y-9699691I-399999J1D01*
G01*
D11*
X849999Y-899997D02*
X499999Y-8699997D01*
D10*
X13299982Y-45099691D02*
X13299982Y-47699691D01*
X12899982Y-48099692D02*
G75*
G03*
X13299982Y-47699691I-2J400002D01*
G01*
X9499979Y-44199691D02*
G75*
G03*
X9899982Y-44599691I400001J1D01*
G01*
X28899982Y-10099691D02*
X28899982Y-12699691D01*
X13299982Y-38099691D02*
X13299982Y-40699691D01*
D11*
X28399944Y-8899997D02*
X28449944Y-49997D01*
D10*
X9899982Y-44699691D02*
X12899982Y-44699691D01*
D11*
X36849944Y-999997D02*
X29199944Y-899997D01*
D10*
X44499979Y-10099691D02*
G75*
G03*
X44099982Y-9699691I-399999J1D01*
G01*
X21099982Y-10099691D02*
X21099982Y-12699691D01*
D11*
X18599981Y-9599997D02*
X17699981Y-9499997D01*
D10*
X9499982Y-37199691D02*
X9499982Y-34599691D01*
X25499982Y-9699691D02*
X28499982Y-9699691D01*
X9899982Y-20199691D02*
X12899982Y-20199691D01*
X9499979Y-37199691D02*
G75*
G03*
X9899982Y-37599691I400001J1D01*
G01*
D11*
X46049926Y-9499997D02*
X46299926Y-999997D01*
X37499944Y-9599997D02*
X36599944Y-9499997D01*
D10*
X9899982Y-37699691D02*
X12899982Y-37699691D01*
X13299979Y-34599691D02*
G75*
G03*
X12899982Y-34199691I-399999J1D01*
G01*
X29399982Y-9699692D02*
G75*
G03*
X28999982Y-10099691I-2J-399998D01*
G01*
X28499982Y-13099691D02*
X25499982Y-13099691D01*
X20699982Y-13099692D02*
G75*
G03*
X21099982Y-12699691I-2J400002D01*
G01*
X12899982Y-37599691D02*
X9899982Y-37599691D01*
X12899982Y-16599691D02*
X9899982Y-16599691D01*
X13399982Y-12699691D02*
X13399982Y-10099691D01*
D11*
X18999963Y-49997D02*
X28299963Y-149997D01*
X8499999Y-29949071D02*
X849999Y-29849071D01*
D10*
X9499979Y-47699691D02*
G75*
G03*
X9899982Y-48099691I400001J1D01*
G01*
X9499979Y-16199691D02*
G75*
G03*
X9899982Y-16599691I400001J1D01*
G01*
D11*
X499999Y-37649071D02*
X49999Y-37849071D01*
D10*
X32899982Y-12699691D02*
X32899982Y-10099691D01*
D11*
X28449944Y-49997D02*
X37749944Y-149997D01*
X8249999Y-38449071D02*
X8499999Y-29949071D01*
D10*
X9499979Y-12699691D02*
G75*
G03*
X9899982Y-13099691I400001J1D01*
G01*
D11*
X9149999Y-19249688D02*
X8249999Y-19149688D01*
D10*
X9899982Y-41199692D02*
G75*
G03*
X9499982Y-41599691I-2J-399998D01*
G01*
X13299982Y-10099691D02*
X13299982Y-12699691D01*
X24599982Y-13099691D02*
X21599982Y-13099691D01*
D11*
X9399999Y-38748762D02*
X9149999Y-48198762D01*
X37749944Y-149997D02*
X37499944Y-9599997D01*
D10*
X9499982Y-23199691D02*
X9499982Y-20599691D01*
D11*
X46299926Y-999997D02*
X38649926Y-899997D01*
X38299926Y-8699997D02*
X37849926Y-8899997D01*
D10*
X9499982Y-19699691D02*
X9499982Y-17099691D01*
X12899982Y-41099691D02*
X9899982Y-41099691D01*
X9499982Y-30199691D02*
X9499982Y-27599691D01*
D11*
X99999Y-19349380D02*
X9399999Y-19449380D01*
D10*
X13299979Y-24099691D02*
G75*
G03*
X12899982Y-23699691I-399999J1D01*
G01*
D11*
X499999Y-18349688D02*
X49999Y-18549688D01*
X849999Y-10549688D02*
X499999Y-18349688D01*
D10*
X9899982Y-20199692D02*
G75*
G03*
X9499982Y-20599691I-2J-399998D01*
G01*
X36299982Y-13099691D02*
X33299982Y-13099691D01*
X40599982Y-10099691D02*
X40599982Y-12699691D01*
D11*
X10299981Y-899997D02*
X9949981Y-8699997D01*
D10*
X28999979Y-12699691D02*
G75*
G03*
X29399982Y-13099691I400001J1D01*
G01*
X9899982Y-9699691D02*
X12899982Y-9699691D01*
X17699982Y-9699691D02*
X20699982Y-9699691D01*
X17699982Y-9699692D02*
G75*
G03*
X17299982Y-10099691I-2J-399998D01*
G01*
X13799982Y-9699691D02*
X16799982Y-9699691D01*
X12899982Y-44599691D02*
X9899982Y-44599691D01*
D11*
X9149999Y-38549071D02*
X8249999Y-38449071D01*
D10*
X12899982Y-27099692D02*
G75*
G03*
X13299982Y-26699691I-2J400002D01*
G01*
X13299979Y-13599691D02*
G75*
G03*
X12899982Y-13199691I-399999J1D01*
G01*
D11*
X49999Y-37849071D02*
X99999Y-28999071D01*
X27399963Y-999997D02*
X19749963Y-899997D01*
D10*
X9899982Y-41199691D02*
X12899982Y-41199691D01*
X12899982Y-34099692D02*
G75*
G03*
X13299982Y-33699691I-2J400002D01*
G01*
D11*
X99999Y-49997D02*
X9399999Y-149997D01*
D10*
X9899982Y-27199692D02*
G75*
G03*
X9499982Y-27599691I-2J-399998D01*
G01*
X12899982Y-23599691D02*
X9899982Y-23599691D01*
X40599979Y-10099691D02*
G75*
G03*
X40199982Y-9699691I-399999J1D01*
G01*
D11*
X17949981Y-999997D02*
X10299981Y-899997D01*
D10*
X9899982Y-13199691D02*
X12899982Y-13199691D01*
X9899982Y-30699691D02*
X12899982Y-30699691D01*
X12899982Y-30599691D02*
X9899982Y-30599691D01*
D11*
X99999Y-28999071D02*
X9399999Y-29099071D01*
D10*
X12899982Y-13099691D02*
X9899982Y-13099691D01*
D11*
X9149999Y-28899380D02*
X8249999Y-28799380D01*
X38649926Y-899997D02*
X38299926Y-8699997D01*
D10*
X9899982Y-23699692D02*
G75*
G03*
X9499982Y-24099691I-2J-399998D01*
G01*
X21099979Y-10099691D02*
G75*
G03*
X20699982Y-9699691I-399999J1D01*
G01*
X36799982Y-12699691D02*
X36799982Y-10099691D01*
X13799982Y-9699692D02*
G75*
G03*
X13399982Y-10099691I-2J-399998D01*
G01*
X9899982Y-37699692D02*
G75*
G03*
X9499982Y-38099691I-2J-399998D01*
G01*
X12899982Y-44599692D02*
G75*
G03*
X13299982Y-44199691I-2J400002D01*
G01*
X29399982Y-9699691D02*
X32399982Y-9699691D01*
X17299979Y-12699691D02*
G75*
G03*
X17699982Y-13099691I400001J1D01*
G01*
D11*
X46949926Y-9599997D02*
X46049926Y-9499997D01*
D10*
X12899982Y-20099691D02*
X9899982Y-20099691D01*
X9899982Y-27199691D02*
X12899982Y-27199691D01*
X12899982Y-20099692D02*
G75*
G03*
X13299982Y-19699691I-2J400002D01*
G01*
X9499982Y-12699691D02*
X9499982Y-10099691D01*
X12899982Y-34099691D02*
X9899982Y-34099691D01*
X25099982Y-12699691D02*
X25099982Y-10099691D01*
X21199982Y-12699691D02*
X21199982Y-10099691D01*
X13299979Y-20599691D02*
G75*
G03*
X12899982Y-20199691I-399999J1D01*
G01*
D11*
X36599944Y-9499997D02*
X36849944Y-999997D01*
X9549981Y-49997D02*
X18849981Y-149997D01*
D10*
X12899982Y-48099691D02*
X9899982Y-48099691D01*
X9499982Y-33699691D02*
X9499982Y-31099691D01*
D11*
X8249999Y-48098762D02*
X8499999Y-39598762D01*
D10*
X44499982Y-10099691D02*
X44499982Y-12699691D01*
X36299982Y-13099692D02*
G75*
G03*
X36699982Y-12699691I-2J400002D01*
G01*
X32399982Y-13099692D02*
G75*
G03*
X32799982Y-12699691I-2J400002D01*
G01*
X12899982Y-37599692D02*
G75*
G03*
X13299982Y-37199691I-2J400002D01*
G01*
X32899979Y-12699691D02*
G75*
G03*
X33299982Y-13099691I400001J1D01*
G01*
D11*
X37899926Y-49997D02*
X47199926Y-149997D01*
D10*
X13299982Y-13599691D02*
X13299982Y-16199691D01*
X40199982Y-13099691D02*
X37199982Y-13099691D01*
D12*
X17839357Y-11819691D03*
X17664357Y-11819691D03*
D13*
X12994982Y-18380691D03*
X12604982Y-18380691D03*
X12994982Y-18253691D03*
X12604982Y-18253691D03*
X12994982Y-18126691D03*
X12604982Y-18126691D03*
X12994982Y-17999691D03*
X12604982Y-17999691D03*
X12994982Y-17872691D03*
X12604982Y-17872691D03*
X12994982Y-17745691D03*
X12604982Y-17745691D03*
X12994982Y-17618691D03*
X12604982Y-17618691D03*
D14*
X10210607Y-29679691D03*
X10393107Y-29679691D03*
D15*
X11602482Y-25169691D03*
X11602482Y-25089691D03*
X11602482Y-25009691D03*
X11602482Y-24929691D03*
X11602482Y-24849691D03*
X11602482Y-24769691D03*
X11602482Y-24689691D03*
X11602482Y-24609691D03*
D16*
X11464982Y-24472191D03*
X11384982Y-24472191D03*
X11304982Y-24472191D03*
X11224982Y-24472191D03*
X11144982Y-24472191D03*
X11064982Y-24472191D03*
X10984982Y-24472191D03*
X10904982Y-24472191D03*
D15*
X10767482Y-24609691D03*
X10767482Y-24689691D03*
X10767482Y-24769691D03*
X10767482Y-24849691D03*
X10767482Y-24929691D03*
X10767482Y-25009691D03*
X10767482Y-25089691D03*
X10767482Y-25169691D03*
D16*
X10904982Y-25307191D03*
X10984982Y-25307191D03*
X11064982Y-25307191D03*
X11144982Y-25307191D03*
X11224982Y-25307191D03*
X11304982Y-25307191D03*
X11384982Y-25307191D03*
X11464982Y-25307191D03*
D12*
X10039357Y-46999691D03*
X9864357Y-46999691D03*
D17*
X31138982Y-11293691D03*
X31311482Y-11293691D03*
D18*
X26379982Y-10435941D03*
X26379982Y-10263441D03*
D12*
X21739357Y-11999691D03*
X21564357Y-11999691D03*
D14*
X10210607Y-18819691D03*
X10393107Y-18819691D03*
D18*
X10629982Y-24435941D03*
X10629982Y-24263441D03*
D14*
X10210607Y-36679691D03*
X10393107Y-36679691D03*
D18*
X23475982Y-11141191D03*
X23475982Y-10968691D03*
D15*
X15502482Y-11169691D03*
X15502482Y-11089691D03*
X15502482Y-11009691D03*
X15502482Y-10929691D03*
X15502482Y-10849691D03*
X15502482Y-10769691D03*
X15502482Y-10689691D03*
X15502482Y-10609691D03*
D16*
X15364982Y-10472191D03*
X15284982Y-10472191D03*
X15204982Y-10472191D03*
X15124982Y-10472191D03*
X15044982Y-10472191D03*
X14964982Y-10472191D03*
X14884982Y-10472191D03*
X14804982Y-10472191D03*
D15*
X14667482Y-10609691D03*
X14667482Y-10689691D03*
X14667482Y-10769691D03*
X14667482Y-10849691D03*
X14667482Y-10929691D03*
X14667482Y-11009691D03*
X14667482Y-11089691D03*
X14667482Y-11169691D03*
D16*
X14804982Y-11307191D03*
X14884982Y-11307191D03*
X14964982Y-11307191D03*
X15044982Y-11307191D03*
X15124982Y-11307191D03*
X15204982Y-11307191D03*
X15284982Y-11307191D03*
X15364982Y-11307191D03*
D12*
X13939357Y-12179691D03*
X13764357Y-12179691D03*
D19*
X13147482Y-19174691D03*
X12352482Y-19174691D03*
X13147482Y-18724691D03*
X12352482Y-18724691D03*
X13147482Y-12174691D03*
X12352482Y-12174691D03*
X13147482Y-11724691D03*
X12352482Y-11724691D03*
D13*
X12994982Y-46380691D03*
X12604982Y-46380691D03*
X12994982Y-46253691D03*
X12604982Y-46253691D03*
X12994982Y-46126691D03*
X12604982Y-46126691D03*
X12994982Y-45999691D03*
X12604982Y-45999691D03*
X12994982Y-45872691D03*
X12604982Y-45872691D03*
X12994982Y-45745691D03*
X12604982Y-45745691D03*
X12994982Y-45618691D03*
X12604982Y-45618691D03*
D12*
X10039357Y-15679691D03*
X9864357Y-15679691D03*
D18*
X10779982Y-10435941D03*
X10779982Y-10263441D03*
X35175982Y-10810941D03*
X35175982Y-10638441D03*
D20*
X34841982Y-10297941D03*
X34841982Y-10115441D03*
D17*
X11638982Y-14793691D03*
X11811482Y-14793691D03*
D18*
X11775982Y-38810941D03*
X11775982Y-38638441D03*
D14*
X41410607Y-11819691D03*
X41593107Y-11819691D03*
D18*
X11775982Y-31810941D03*
X11775982Y-31638441D03*
D19*
X13147482Y-43674691D03*
X12352482Y-43674691D03*
X13147482Y-43224691D03*
X12352482Y-43224691D03*
D18*
X10629982Y-20935941D03*
X10629982Y-20763441D03*
X23475982Y-10810941D03*
X23475982Y-10638441D03*
D12*
X25639357Y-11999691D03*
X25464357Y-11999691D03*
X33439357Y-11819691D03*
X33264357Y-11819691D03*
X10039357Y-15499691D03*
X9864357Y-15499691D03*
D14*
X10210607Y-15319691D03*
X10393107Y-15319691D03*
D18*
X11775982Y-14641191D03*
X11775982Y-14468691D03*
X10779982Y-41935941D03*
X10779982Y-41763441D03*
D12*
X10039357Y-36499691D03*
X9864357Y-36499691D03*
D15*
X11602482Y-39169691D03*
X11602482Y-39089691D03*
X11602482Y-39009691D03*
X11602482Y-38929691D03*
X11602482Y-38849691D03*
X11602482Y-38769691D03*
X11602482Y-38689691D03*
X11602482Y-38609691D03*
D16*
X11464982Y-38472191D03*
X11384982Y-38472191D03*
X11304982Y-38472191D03*
X11224982Y-38472191D03*
X11144982Y-38472191D03*
X11064982Y-38472191D03*
X10984982Y-38472191D03*
X10904982Y-38472191D03*
D15*
X10767482Y-38609691D03*
X10767482Y-38689691D03*
X10767482Y-38769691D03*
X10767482Y-38849691D03*
X10767482Y-38929691D03*
X10767482Y-39009691D03*
X10767482Y-39089691D03*
X10767482Y-39169691D03*
D16*
X10904982Y-39307191D03*
X10984982Y-39307191D03*
X11064982Y-39307191D03*
X11144982Y-39307191D03*
X11224982Y-39307191D03*
X11304982Y-39307191D03*
X11384982Y-39307191D03*
X11464982Y-39307191D03*
D14*
X14110607Y-11999691D03*
X14293107Y-11999691D03*
D18*
X11775982Y-35310941D03*
X11775982Y-35138441D03*
D12*
X29539357Y-12179691D03*
X29364357Y-12179691D03*
D14*
X10210607Y-18999691D03*
X10393107Y-18999691D03*
D21*
X9797982Y-18480691D03*
X10301982Y-18480691D03*
X9797982Y-18226691D03*
X10301982Y-18226691D03*
X9797982Y-17972691D03*
X10301982Y-17972691D03*
X9797982Y-17718691D03*
X10301982Y-17718691D03*
D14*
X33610607Y-11999691D03*
X33793107Y-11999691D03*
D12*
X10039357Y-22319691D03*
X9864357Y-22319691D03*
D15*
X11602482Y-32169691D03*
X11602482Y-32089691D03*
X11602482Y-32009691D03*
X11602482Y-31929691D03*
X11602482Y-31849691D03*
X11602482Y-31769691D03*
X11602482Y-31689691D03*
X11602482Y-31609691D03*
D16*
X11464982Y-31472191D03*
X11384982Y-31472191D03*
X11304982Y-31472191D03*
X11224982Y-31472191D03*
X11144982Y-31472191D03*
X11064982Y-31472191D03*
X10984982Y-31472191D03*
X10904982Y-31472191D03*
D15*
X10767482Y-31609691D03*
X10767482Y-31689691D03*
X10767482Y-31769691D03*
X10767482Y-31849691D03*
X10767482Y-31929691D03*
X10767482Y-32009691D03*
X10767482Y-32089691D03*
X10767482Y-32169691D03*
D16*
X10904982Y-32307191D03*
X10984982Y-32307191D03*
X11064982Y-32307191D03*
X11144982Y-32307191D03*
X11224982Y-32307191D03*
X11304982Y-32307191D03*
X11384982Y-32307191D03*
X11464982Y-32307191D03*
D19*
X40447482Y-12174691D03*
X39652482Y-12174691D03*
X40447482Y-11724691D03*
X39652482Y-11724691D03*
D21*
X13697982Y-11480691D03*
X14201982Y-11480691D03*
X13697982Y-11226691D03*
X14201982Y-11226691D03*
X13697982Y-10972691D03*
X14201982Y-10972691D03*
X13697982Y-10718691D03*
X14201982Y-10718691D03*
D17*
X15538982Y-11293691D03*
X15711482Y-11293691D03*
D12*
X10039357Y-29679691D03*
X9864357Y-29679691D03*
D14*
X21910607Y-11819691D03*
X22093107Y-11819691D03*
D18*
X10779982Y-17435941D03*
X10779982Y-17263441D03*
D15*
X11602482Y-21669691D03*
X11602482Y-21589691D03*
X11602482Y-21509691D03*
X11602482Y-21429691D03*
X11602482Y-21349691D03*
X11602482Y-21269691D03*
X11602482Y-21189691D03*
X11602482Y-21109691D03*
D16*
X11464982Y-20972191D03*
X11384982Y-20972191D03*
X11304982Y-20972191D03*
X11224982Y-20972191D03*
X11144982Y-20972191D03*
X11064982Y-20972191D03*
X10984982Y-20972191D03*
X10904982Y-20972191D03*
D15*
X10767482Y-21109691D03*
X10767482Y-21189691D03*
X10767482Y-21269691D03*
X10767482Y-21349691D03*
X10767482Y-21429691D03*
X10767482Y-21509691D03*
X10767482Y-21589691D03*
X10767482Y-21669691D03*
D16*
X10904982Y-21807191D03*
X10984982Y-21807191D03*
X11064982Y-21807191D03*
X11144982Y-21807191D03*
X11224982Y-21807191D03*
X11304982Y-21807191D03*
X11384982Y-21807191D03*
X11464982Y-21807191D03*
D15*
X27202482Y-11169691D03*
X27202482Y-11089691D03*
X27202482Y-11009691D03*
X27202482Y-10929691D03*
X27202482Y-10849691D03*
X27202482Y-10769691D03*
X27202482Y-10689691D03*
X27202482Y-10609691D03*
D16*
X27064982Y-10472191D03*
X26984982Y-10472191D03*
X26904982Y-10472191D03*
X26824982Y-10472191D03*
X26744982Y-10472191D03*
X26664982Y-10472191D03*
X26584982Y-10472191D03*
X26504982Y-10472191D03*
D15*
X26367482Y-10609691D03*
X26367482Y-10689691D03*
X26367482Y-10769691D03*
X26367482Y-10849691D03*
X26367482Y-10929691D03*
X26367482Y-11009691D03*
X26367482Y-11089691D03*
X26367482Y-11169691D03*
D16*
X26504982Y-11307191D03*
X26584982Y-11307191D03*
X26664982Y-11307191D03*
X26744982Y-11307191D03*
X26824982Y-11307191D03*
X26904982Y-11307191D03*
X26984982Y-11307191D03*
X27064982Y-11307191D03*
D12*
X10039357Y-39819691D03*
X9864357Y-39819691D03*
X33439357Y-11999691D03*
X33264357Y-11999691D03*
D15*
X19402482Y-11169691D03*
X19402482Y-11089691D03*
X19402482Y-11009691D03*
X19402482Y-10929691D03*
X19402482Y-10849691D03*
X19402482Y-10769691D03*
X19402482Y-10689691D03*
X19402482Y-10609691D03*
D16*
X19264982Y-10472191D03*
X19184982Y-10472191D03*
X19104982Y-10472191D03*
X19024982Y-10472191D03*
X18944982Y-10472191D03*
X18864982Y-10472191D03*
X18784982Y-10472191D03*
X18704982Y-10472191D03*
D15*
X18567482Y-10609691D03*
X18567482Y-10689691D03*
X18567482Y-10769691D03*
X18567482Y-10849691D03*
X18567482Y-10929691D03*
X18567482Y-11009691D03*
X18567482Y-11089691D03*
X18567482Y-11169691D03*
D16*
X18704982Y-11307191D03*
X18784982Y-11307191D03*
X18864982Y-11307191D03*
X18944982Y-11307191D03*
X19024982Y-11307191D03*
X19104982Y-11307191D03*
X19184982Y-11307191D03*
X19264982Y-11307191D03*
D18*
X11775982Y-11141191D03*
X11775982Y-10968691D03*
D13*
X12994982Y-11380691D03*
X12604982Y-11380691D03*
X12994982Y-11253691D03*
X12604982Y-11253691D03*
X12994982Y-11126691D03*
X12604982Y-11126691D03*
X12994982Y-10999691D03*
X12604982Y-10999691D03*
X12994982Y-10872691D03*
X12604982Y-10872691D03*
X12994982Y-10745691D03*
X12604982Y-10745691D03*
X12994982Y-10618691D03*
X12604982Y-10618691D03*
D18*
X11775982Y-45810941D03*
X11775982Y-45638441D03*
D14*
X10210607Y-26179691D03*
X10393107Y-26179691D03*
D19*
X28747482Y-12174691D03*
X27952482Y-12174691D03*
X28747482Y-11724691D03*
X27952482Y-11724691D03*
D18*
X39075982Y-11141191D03*
X39075982Y-10968691D03*
X14679982Y-10435941D03*
X14679982Y-10263441D03*
D14*
X18010607Y-11819691D03*
X18193107Y-11819691D03*
D20*
X11441982Y-27797941D03*
X11441982Y-27615441D03*
D18*
X30129982Y-10435941D03*
X30129982Y-10263441D03*
X22329982Y-10435941D03*
X22329982Y-10263441D03*
D14*
X29710607Y-11999691D03*
X29893107Y-11999691D03*
D18*
X31275982Y-10810941D03*
X31275982Y-10638441D03*
D14*
X14110607Y-12179691D03*
X14293107Y-12179691D03*
X21910607Y-12179691D03*
X22093107Y-12179691D03*
X18010607Y-12179691D03*
X18193107Y-12179691D03*
D20*
X11441982Y-31297941D03*
X11441982Y-31115441D03*
D12*
X10039357Y-25819691D03*
X9864357Y-25819691D03*
D14*
X10210607Y-43679691D03*
X10393107Y-43679691D03*
D18*
X31275982Y-11141191D03*
X31275982Y-10968691D03*
D17*
X27238982Y-11293691D03*
X27411482Y-11293691D03*
D12*
X10039357Y-29319691D03*
X9864357Y-29319691D03*
D21*
X9797982Y-35980691D03*
X10301982Y-35980691D03*
X9797982Y-35726691D03*
X10301982Y-35726691D03*
X9797982Y-35472691D03*
X10301982Y-35472691D03*
X9797982Y-35218691D03*
X10301982Y-35218691D03*
D20*
X11441982Y-41797941D03*
X11441982Y-41615441D03*
D14*
X21910607Y-11999691D03*
X22093107Y-11999691D03*
D19*
X13147482Y-29674691D03*
X12352482Y-29674691D03*
X13147482Y-29224691D03*
X12352482Y-29224691D03*
D12*
X41239357Y-11819691D03*
X41064357Y-11819691D03*
X10039357Y-25999691D03*
X9864357Y-25999691D03*
X17839357Y-12179691D03*
X17664357Y-12179691D03*
D21*
X29297982Y-11480691D03*
X29801982Y-11480691D03*
X29297982Y-11226691D03*
X29801982Y-11226691D03*
X29297982Y-10972691D03*
X29801982Y-10972691D03*
X29297982Y-10718691D03*
X29801982Y-10718691D03*
D19*
X32647482Y-12174691D03*
X31852482Y-12174691D03*
X32647482Y-11724691D03*
X31852482Y-11724691D03*
D17*
X11638982Y-21793691D03*
X11811482Y-21793691D03*
D18*
X38079982Y-10435941D03*
X38079982Y-10263441D03*
D15*
X38902482Y-11169691D03*
X38902482Y-11089691D03*
X38902482Y-11009691D03*
X38902482Y-10929691D03*
X38902482Y-10849691D03*
X38902482Y-10769691D03*
X38902482Y-10689691D03*
X38902482Y-10609691D03*
D16*
X38764982Y-10472191D03*
X38684982Y-10472191D03*
X38604982Y-10472191D03*
X38524982Y-10472191D03*
X38444982Y-10472191D03*
X38364982Y-10472191D03*
X38284982Y-10472191D03*
X38204982Y-10472191D03*
D15*
X38067482Y-10609691D03*
X38067482Y-10689691D03*
X38067482Y-10769691D03*
X38067482Y-10849691D03*
X38067482Y-10929691D03*
X38067482Y-11009691D03*
X38067482Y-11089691D03*
X38067482Y-11169691D03*
D16*
X38204982Y-11307191D03*
X38284982Y-11307191D03*
X38364982Y-11307191D03*
X38444982Y-11307191D03*
X38524982Y-11307191D03*
X38604982Y-11307191D03*
X38684982Y-11307191D03*
X38764982Y-11307191D03*
D19*
X36547482Y-12174691D03*
X35752482Y-12174691D03*
X36547482Y-11724691D03*
X35752482Y-11724691D03*
D21*
X37097982Y-11480691D03*
X37601982Y-11480691D03*
X37097982Y-11226691D03*
X37601982Y-11226691D03*
X37097982Y-10972691D03*
X37601982Y-10972691D03*
X37097982Y-10718691D03*
X37601982Y-10718691D03*
D13*
X12994982Y-14880691D03*
X12604982Y-14880691D03*
X12994982Y-14753691D03*
X12604982Y-14753691D03*
X12994982Y-14626691D03*
X12604982Y-14626691D03*
X12994982Y-14499691D03*
X12604982Y-14499691D03*
X12994982Y-14372691D03*
X12604982Y-14372691D03*
X12994982Y-14245691D03*
X12604982Y-14245691D03*
X12994982Y-14118691D03*
X12604982Y-14118691D03*
D12*
X10039357Y-18819691D03*
X9864357Y-18819691D03*
D19*
X44347482Y-12174691D03*
X43552482Y-12174691D03*
X44347482Y-11724691D03*
X43552482Y-11724691D03*
D18*
X10779982Y-13935941D03*
X10779982Y-13763441D03*
X30279982Y-10435941D03*
X30279982Y-10263441D03*
D14*
X10210607Y-12179691D03*
X10393107Y-12179691D03*
D13*
X28594982Y-11380691D03*
X28204982Y-11380691D03*
X28594982Y-11253691D03*
X28204982Y-11253691D03*
X28594982Y-11126691D03*
X28204982Y-11126691D03*
X28594982Y-10999691D03*
X28204982Y-10999691D03*
X28594982Y-10872691D03*
X28204982Y-10872691D03*
X28594982Y-10745691D03*
X28204982Y-10745691D03*
X28594982Y-10618691D03*
X28204982Y-10618691D03*
D14*
X10210607Y-22319691D03*
X10393107Y-22319691D03*
D12*
X33439357Y-12179691D03*
X33264357Y-12179691D03*
D18*
X11775982Y-24810941D03*
X11775982Y-24638441D03*
X41979982Y-10435941D03*
X41979982Y-10263441D03*
D19*
X20947482Y-12174691D03*
X20152482Y-12174691D03*
X20947482Y-11724691D03*
X20152482Y-11724691D03*
D18*
X10779982Y-34935941D03*
X10779982Y-34763441D03*
D20*
X30941982Y-10297941D03*
X30941982Y-10115441D03*
D14*
X25810607Y-11819691D03*
X25993107Y-11819691D03*
X10210607Y-22499691D03*
X10393107Y-22499691D03*
D18*
X10629982Y-31435941D03*
X10629982Y-31263441D03*
D19*
X13147482Y-26174691D03*
X12352482Y-26174691D03*
X13147482Y-25724691D03*
X12352482Y-25724691D03*
D14*
X10210607Y-15499691D03*
X10393107Y-15499691D03*
D12*
X10039357Y-36679691D03*
X9864357Y-36679691D03*
D18*
X11775982Y-14310941D03*
X11775982Y-14138441D03*
D21*
X9797982Y-32480691D03*
X10301982Y-32480691D03*
X9797982Y-32226691D03*
X10301982Y-32226691D03*
X9797982Y-31972691D03*
X10301982Y-31972691D03*
X9797982Y-31718691D03*
X10301982Y-31718691D03*
D12*
X10039357Y-26179691D03*
X9864357Y-26179691D03*
D19*
X13147482Y-15674691D03*
X12352482Y-15674691D03*
X13147482Y-15224691D03*
X12352482Y-15224691D03*
D12*
X10039357Y-40179691D03*
X9864357Y-40179691D03*
D18*
X10779982Y-24435941D03*
X10779982Y-24263441D03*
D13*
X16894982Y-11380691D03*
X16504982Y-11380691D03*
X16894982Y-11253691D03*
X16504982Y-11253691D03*
X16894982Y-11126691D03*
X16504982Y-11126691D03*
X16894982Y-10999691D03*
X16504982Y-10999691D03*
X16894982Y-10872691D03*
X16504982Y-10872691D03*
X16894982Y-10745691D03*
X16504982Y-10745691D03*
X16894982Y-10618691D03*
X16504982Y-10618691D03*
D20*
X42641982Y-10297941D03*
X42641982Y-10115441D03*
D15*
X31102482Y-11169691D03*
X31102482Y-11089691D03*
X31102482Y-11009691D03*
X31102482Y-10929691D03*
X31102482Y-10849691D03*
X31102482Y-10769691D03*
X31102482Y-10689691D03*
X31102482Y-10609691D03*
D16*
X30964982Y-10472191D03*
X30884982Y-10472191D03*
X30804982Y-10472191D03*
X30724982Y-10472191D03*
X30644982Y-10472191D03*
X30564982Y-10472191D03*
X30484982Y-10472191D03*
X30404982Y-10472191D03*
D15*
X30267482Y-10609691D03*
X30267482Y-10689691D03*
X30267482Y-10769691D03*
X30267482Y-10849691D03*
X30267482Y-10929691D03*
X30267482Y-11009691D03*
X30267482Y-11089691D03*
X30267482Y-11169691D03*
D16*
X30404982Y-11307191D03*
X30484982Y-11307191D03*
X30564982Y-11307191D03*
X30644982Y-11307191D03*
X30724982Y-11307191D03*
X30804982Y-11307191D03*
X30884982Y-11307191D03*
X30964982Y-11307191D03*
D15*
X11602482Y-28669691D03*
X11602482Y-28589691D03*
X11602482Y-28509691D03*
X11602482Y-28429691D03*
X11602482Y-28349691D03*
X11602482Y-28269691D03*
X11602482Y-28189691D03*
X11602482Y-28109691D03*
D16*
X11464982Y-27972191D03*
X11384982Y-27972191D03*
X11304982Y-27972191D03*
X11224982Y-27972191D03*
X11144982Y-27972191D03*
X11064982Y-27972191D03*
X10984982Y-27972191D03*
X10904982Y-27972191D03*
D15*
X10767482Y-28109691D03*
X10767482Y-28189691D03*
X10767482Y-28269691D03*
X10767482Y-28349691D03*
X10767482Y-28429691D03*
X10767482Y-28509691D03*
X10767482Y-28589691D03*
X10767482Y-28669691D03*
D16*
X10904982Y-28807191D03*
X10984982Y-28807191D03*
X11064982Y-28807191D03*
X11144982Y-28807191D03*
X11224982Y-28807191D03*
X11304982Y-28807191D03*
X11384982Y-28807191D03*
X11464982Y-28807191D03*
D19*
X13147482Y-22674691D03*
X12352482Y-22674691D03*
X13147482Y-22224691D03*
X12352482Y-22224691D03*
D12*
X25639357Y-11819691D03*
X25464357Y-11819691D03*
D18*
X35175982Y-11141191D03*
X35175982Y-10968691D03*
X10629982Y-13935941D03*
X10629982Y-13763441D03*
D14*
X10210607Y-39999691D03*
X10393107Y-39999691D03*
X37510607Y-12179691D03*
X37693107Y-12179691D03*
D17*
X42838982Y-11293691D03*
X43011482Y-11293691D03*
D18*
X11775982Y-10810941D03*
X11775982Y-10638441D03*
D14*
X10210607Y-15679691D03*
X10393107Y-15679691D03*
D18*
X22479982Y-10435941D03*
X22479982Y-10263441D03*
D12*
X29539357Y-11819691D03*
X29364357Y-11819691D03*
D14*
X10210607Y-19179691D03*
X10393107Y-19179691D03*
D12*
X10039357Y-36319691D03*
X9864357Y-36319691D03*
X17839357Y-11999691D03*
X17664357Y-11999691D03*
X10039357Y-29499691D03*
X9864357Y-29499691D03*
D20*
X23141982Y-10297941D03*
X23141982Y-10115441D03*
D13*
X12994982Y-28880691D03*
X12604982Y-28880691D03*
X12994982Y-28753691D03*
X12604982Y-28753691D03*
X12994982Y-28626691D03*
X12604982Y-28626691D03*
X12994982Y-28499691D03*
X12604982Y-28499691D03*
X12994982Y-28372691D03*
X12604982Y-28372691D03*
X12994982Y-28245691D03*
X12604982Y-28245691D03*
X12994982Y-28118691D03*
X12604982Y-28118691D03*
D15*
X11602482Y-18169691D03*
X11602482Y-18089691D03*
X11602482Y-18009691D03*
X11602482Y-17929691D03*
X11602482Y-17849691D03*
X11602482Y-17769691D03*
X11602482Y-17689691D03*
X11602482Y-17609691D03*
D16*
X11464982Y-17472191D03*
X11384982Y-17472191D03*
X11304982Y-17472191D03*
X11224982Y-17472191D03*
X11144982Y-17472191D03*
X11064982Y-17472191D03*
X10984982Y-17472191D03*
X10904982Y-17472191D03*
D15*
X10767482Y-17609691D03*
X10767482Y-17689691D03*
X10767482Y-17769691D03*
X10767482Y-17849691D03*
X10767482Y-17929691D03*
X10767482Y-18009691D03*
X10767482Y-18089691D03*
X10767482Y-18169691D03*
D16*
X10904982Y-18307191D03*
X10984982Y-18307191D03*
X11064982Y-18307191D03*
X11144982Y-18307191D03*
X11224982Y-18307191D03*
X11304982Y-18307191D03*
X11384982Y-18307191D03*
X11464982Y-18307191D03*
D18*
X19575982Y-10810941D03*
X19575982Y-10638441D03*
D21*
X9797982Y-46480691D03*
X10301982Y-46480691D03*
X9797982Y-46226691D03*
X10301982Y-46226691D03*
X9797982Y-45972691D03*
X10301982Y-45972691D03*
X9797982Y-45718691D03*
X10301982Y-45718691D03*
D12*
X10039357Y-32819691D03*
X9864357Y-32819691D03*
X10039357Y-22679691D03*
X9864357Y-22679691D03*
D14*
X29710607Y-12179691D03*
X29893107Y-12179691D03*
D20*
X11441982Y-24297941D03*
X11441982Y-24115441D03*
X11441982Y-45297941D03*
X11441982Y-45115441D03*
D17*
X11638982Y-46293691D03*
X11811482Y-46293691D03*
D18*
X26229982Y-10435941D03*
X26229982Y-10263441D03*
X10629982Y-41935941D03*
X10629982Y-41763441D03*
D20*
X27041982Y-10297941D03*
X27041982Y-10115441D03*
D12*
X10039357Y-18999691D03*
X9864357Y-18999691D03*
D18*
X18579982Y-10435941D03*
X18579982Y-10263441D03*
D12*
X10039357Y-33179691D03*
X9864357Y-33179691D03*
D18*
X10629982Y-17435941D03*
X10629982Y-17263441D03*
D15*
X11602482Y-11169691D03*
X11602482Y-11089691D03*
X11602482Y-11009691D03*
X11602482Y-10929691D03*
X11602482Y-10849691D03*
X11602482Y-10769691D03*
X11602482Y-10689691D03*
X11602482Y-10609691D03*
D16*
X11464982Y-10472191D03*
X11384982Y-10472191D03*
X11304982Y-10472191D03*
X11224982Y-10472191D03*
X11144982Y-10472191D03*
X11064982Y-10472191D03*
X10984982Y-10472191D03*
X10904982Y-10472191D03*
D15*
X10767482Y-10609691D03*
X10767482Y-10689691D03*
X10767482Y-10769691D03*
X10767482Y-10849691D03*
X10767482Y-10929691D03*
X10767482Y-11009691D03*
X10767482Y-11089691D03*
X10767482Y-11169691D03*
D16*
X10904982Y-11307191D03*
X10984982Y-11307191D03*
X11064982Y-11307191D03*
X11144982Y-11307191D03*
X11224982Y-11307191D03*
X11304982Y-11307191D03*
X11384982Y-11307191D03*
X11464982Y-11307191D03*
D20*
X38741982Y-10297941D03*
X38741982Y-10115441D03*
D18*
X11775982Y-42310941D03*
X11775982Y-42138441D03*
X11775982Y-32141191D03*
X11775982Y-31968691D03*
X10629982Y-38435941D03*
X10629982Y-38263441D03*
D12*
X10039357Y-19179691D03*
X9864357Y-19179691D03*
D18*
X34029982Y-10435941D03*
X34029982Y-10263441D03*
D12*
X10039357Y-32999691D03*
X9864357Y-32999691D03*
D21*
X9797982Y-28980691D03*
X10301982Y-28980691D03*
X9797982Y-28726691D03*
X10301982Y-28726691D03*
X9797982Y-28472691D03*
X10301982Y-28472691D03*
X9797982Y-28218691D03*
X10301982Y-28218691D03*
D12*
X13939357Y-11819691D03*
X13764357Y-11819691D03*
D19*
X13147482Y-36674691D03*
X12352482Y-36674691D03*
X13147482Y-36224691D03*
X12352482Y-36224691D03*
D12*
X41239357Y-12179691D03*
X41064357Y-12179691D03*
D13*
X12994982Y-25380691D03*
X12604982Y-25380691D03*
X12994982Y-25253691D03*
X12604982Y-25253691D03*
X12994982Y-25126691D03*
X12604982Y-25126691D03*
X12994982Y-24999691D03*
X12604982Y-24999691D03*
X12994982Y-24872691D03*
X12604982Y-24872691D03*
X12994982Y-24745691D03*
X12604982Y-24745691D03*
X12994982Y-24618691D03*
X12604982Y-24618691D03*
X44194982Y-11380691D03*
X43804982Y-11380691D03*
X44194982Y-11253691D03*
X43804982Y-11253691D03*
X44194982Y-11126691D03*
X43804982Y-11126691D03*
X44194982Y-10999691D03*
X43804982Y-10999691D03*
X44194982Y-10872691D03*
X43804982Y-10872691D03*
X44194982Y-10745691D03*
X43804982Y-10745691D03*
X44194982Y-10618691D03*
X43804982Y-10618691D03*
D20*
X19241982Y-10297941D03*
X19241982Y-10115441D03*
D18*
X11775982Y-21641191D03*
X11775982Y-21468691D03*
D14*
X18010607Y-11999691D03*
X18193107Y-11999691D03*
X10210607Y-32999691D03*
X10393107Y-32999691D03*
D21*
X25397982Y-11480691D03*
X25901982Y-11480691D03*
X25397982Y-11226691D03*
X25901982Y-11226691D03*
X25397982Y-10972691D03*
X25901982Y-10972691D03*
X25397982Y-10718691D03*
X25901982Y-10718691D03*
D15*
X11602482Y-14669691D03*
X11602482Y-14589691D03*
X11602482Y-14509691D03*
X11602482Y-14429691D03*
X11602482Y-14349691D03*
X11602482Y-14269691D03*
X11602482Y-14189691D03*
X11602482Y-14109691D03*
D16*
X11464982Y-13972191D03*
X11384982Y-13972191D03*
X11304982Y-13972191D03*
X11224982Y-13972191D03*
X11144982Y-13972191D03*
X11064982Y-13972191D03*
X10984982Y-13972191D03*
X10904982Y-13972191D03*
D15*
X10767482Y-14109691D03*
X10767482Y-14189691D03*
X10767482Y-14269691D03*
X10767482Y-14349691D03*
X10767482Y-14429691D03*
X10767482Y-14509691D03*
X10767482Y-14589691D03*
X10767482Y-14669691D03*
D16*
X10904982Y-14807191D03*
X10984982Y-14807191D03*
X11064982Y-14807191D03*
X11144982Y-14807191D03*
X11224982Y-14807191D03*
X11304982Y-14807191D03*
X11384982Y-14807191D03*
X11464982Y-14807191D03*
D17*
X11638982Y-11293691D03*
X11811482Y-11293691D03*
D14*
X41410607Y-11999691D03*
X41593107Y-11999691D03*
X14110607Y-11819691D03*
X14293107Y-11819691D03*
D13*
X12994982Y-42880691D03*
X12604982Y-42880691D03*
X12994982Y-42753691D03*
X12604982Y-42753691D03*
X12994982Y-42626691D03*
X12604982Y-42626691D03*
X12994982Y-42499691D03*
X12604982Y-42499691D03*
X12994982Y-42372691D03*
X12604982Y-42372691D03*
X12994982Y-42245691D03*
X12604982Y-42245691D03*
X12994982Y-42118691D03*
X12604982Y-42118691D03*
D12*
X10039357Y-22499691D03*
X9864357Y-22499691D03*
D18*
X42975982Y-11141191D03*
X42975982Y-10968691D03*
D12*
X10039357Y-11999691D03*
X9864357Y-11999691D03*
D18*
X39075982Y-10810941D03*
X39075982Y-10638441D03*
D19*
X17047482Y-12174691D03*
X16252482Y-12174691D03*
X17047482Y-11724691D03*
X16252482Y-11724691D03*
D14*
X10210607Y-43499691D03*
X10393107Y-43499691D03*
D19*
X13147482Y-47174691D03*
X12352482Y-47174691D03*
X13147482Y-46724691D03*
X12352482Y-46724691D03*
D18*
X10629982Y-34935941D03*
X10629982Y-34763441D03*
D12*
X13939357Y-11999691D03*
X13764357Y-11999691D03*
D13*
X32494982Y-11380691D03*
X32104982Y-11380691D03*
X32494982Y-11253691D03*
X32104982Y-11253691D03*
X32494982Y-11126691D03*
X32104982Y-11126691D03*
X32494982Y-10999691D03*
X32104982Y-10999691D03*
X32494982Y-10872691D03*
X32104982Y-10872691D03*
X32494982Y-10745691D03*
X32104982Y-10745691D03*
X32494982Y-10618691D03*
X32104982Y-10618691D03*
D14*
X10210607Y-25819691D03*
X10393107Y-25819691D03*
D18*
X42975982Y-10810941D03*
X42975982Y-10638441D03*
D21*
X9797982Y-14980691D03*
X10301982Y-14980691D03*
X9797982Y-14726691D03*
X10301982Y-14726691D03*
X9797982Y-14472691D03*
X10301982Y-14472691D03*
X9797982Y-14218691D03*
X10301982Y-14218691D03*
D12*
X10039357Y-39999691D03*
X9864357Y-39999691D03*
D18*
X15675982Y-10810941D03*
X15675982Y-10638441D03*
D14*
X10210607Y-22679691D03*
X10393107Y-22679691D03*
X25810607Y-11999691D03*
X25993107Y-11999691D03*
D12*
X10039357Y-15319691D03*
X9864357Y-15319691D03*
D18*
X11775982Y-25141191D03*
X11775982Y-24968691D03*
X10779982Y-45435941D03*
X10779982Y-45263441D03*
D20*
X11441982Y-10297941D03*
X11441982Y-10115441D03*
D13*
X12994982Y-35880691D03*
X12604982Y-35880691D03*
X12994982Y-35753691D03*
X12604982Y-35753691D03*
X12994982Y-35626691D03*
X12604982Y-35626691D03*
X12994982Y-35499691D03*
X12604982Y-35499691D03*
X12994982Y-35372691D03*
X12604982Y-35372691D03*
X12994982Y-35245691D03*
X12604982Y-35245691D03*
X12994982Y-35118691D03*
X12604982Y-35118691D03*
D21*
X21497982Y-11480691D03*
X22001982Y-11480691D03*
X21497982Y-11226691D03*
X22001982Y-11226691D03*
X21497982Y-10972691D03*
X22001982Y-10972691D03*
X21497982Y-10718691D03*
X22001982Y-10718691D03*
D20*
X11441982Y-20797941D03*
X11441982Y-20615441D03*
D21*
X9797982Y-25480691D03*
X10301982Y-25480691D03*
X9797982Y-25226691D03*
X10301982Y-25226691D03*
X9797982Y-24972691D03*
X10301982Y-24972691D03*
X9797982Y-24718691D03*
X10301982Y-24718691D03*
D18*
X15675982Y-11141191D03*
X15675982Y-10968691D03*
D14*
X10210607Y-32819691D03*
X10393107Y-32819691D03*
D12*
X37339357Y-11819691D03*
X37164357Y-11819691D03*
D18*
X10779982Y-31435941D03*
X10779982Y-31263441D03*
D14*
X10210607Y-40179691D03*
X10393107Y-40179691D03*
D12*
X21739357Y-12179691D03*
X21564357Y-12179691D03*
X10039357Y-46819691D03*
X9864357Y-46819691D03*
D18*
X37929982Y-10435941D03*
X37929982Y-10263441D03*
D12*
X10039357Y-43679691D03*
X9864357Y-43679691D03*
D17*
X11638982Y-25293691D03*
X11811482Y-25293691D03*
D13*
X12994982Y-39380691D03*
X12604982Y-39380691D03*
X12994982Y-39253691D03*
X12604982Y-39253691D03*
X12994982Y-39126691D03*
X12604982Y-39126691D03*
X12994982Y-38999691D03*
X12604982Y-38999691D03*
X12994982Y-38872691D03*
X12604982Y-38872691D03*
X12994982Y-38745691D03*
X12604982Y-38745691D03*
X12994982Y-38618691D03*
X12604982Y-38618691D03*
D18*
X11775982Y-46141191D03*
X11775982Y-45968691D03*
D14*
X33610607Y-12179691D03*
X33793107Y-12179691D03*
X10210607Y-46819691D03*
X10393107Y-46819691D03*
X25810607Y-12179691D03*
X25993107Y-12179691D03*
D12*
X10039357Y-11819691D03*
X9864357Y-11819691D03*
D14*
X10210607Y-36499691D03*
X10393107Y-36499691D03*
D12*
X21739357Y-11819691D03*
X21564357Y-11819691D03*
D19*
X13147482Y-33174691D03*
X12352482Y-33174691D03*
X13147482Y-32724691D03*
X12352482Y-32724691D03*
D20*
X11441982Y-13797941D03*
X11441982Y-13615441D03*
D18*
X14529982Y-10435941D03*
X14529982Y-10263441D03*
D15*
X35002482Y-11169691D03*
X35002482Y-11089691D03*
X35002482Y-11009691D03*
X35002482Y-10929691D03*
X35002482Y-10849691D03*
X35002482Y-10769691D03*
X35002482Y-10689691D03*
X35002482Y-10609691D03*
D16*
X34864982Y-10472191D03*
X34784982Y-10472191D03*
X34704982Y-10472191D03*
X34624982Y-10472191D03*
X34544982Y-10472191D03*
X34464982Y-10472191D03*
X34384982Y-10472191D03*
X34304982Y-10472191D03*
D15*
X34167482Y-10609691D03*
X34167482Y-10689691D03*
X34167482Y-10769691D03*
X34167482Y-10849691D03*
X34167482Y-10929691D03*
X34167482Y-11009691D03*
X34167482Y-11089691D03*
X34167482Y-11169691D03*
D16*
X34304982Y-11307191D03*
X34384982Y-11307191D03*
X34464982Y-11307191D03*
X34544982Y-11307191D03*
X34624982Y-11307191D03*
X34704982Y-11307191D03*
X34784982Y-11307191D03*
X34864982Y-11307191D03*
D20*
X15341982Y-10297941D03*
X15341982Y-10115441D03*
D18*
X10779982Y-20935941D03*
X10779982Y-20763441D03*
D13*
X24694982Y-11380691D03*
X24304982Y-11380691D03*
X24694982Y-11253691D03*
X24304982Y-11253691D03*
X24694982Y-11126691D03*
X24304982Y-11126691D03*
X24694982Y-10999691D03*
X24304982Y-10999691D03*
X24694982Y-10872691D03*
X24304982Y-10872691D03*
X24694982Y-10745691D03*
X24304982Y-10745691D03*
X24694982Y-10618691D03*
X24304982Y-10618691D03*
D21*
X9797982Y-21980691D03*
X10301982Y-21980691D03*
X9797982Y-21726691D03*
X10301982Y-21726691D03*
X9797982Y-21472691D03*
X10301982Y-21472691D03*
X9797982Y-21218691D03*
X10301982Y-21218691D03*
D14*
X37510607Y-11999691D03*
X37693107Y-11999691D03*
D21*
X9797982Y-39480691D03*
X10301982Y-39480691D03*
X9797982Y-39226691D03*
X10301982Y-39226691D03*
X9797982Y-38972691D03*
X10301982Y-38972691D03*
X9797982Y-38718691D03*
X10301982Y-38718691D03*
D13*
X12994982Y-32380691D03*
X12604982Y-32380691D03*
X12994982Y-32253691D03*
X12604982Y-32253691D03*
X12994982Y-32126691D03*
X12604982Y-32126691D03*
X12994982Y-31999691D03*
X12604982Y-31999691D03*
X12994982Y-31872691D03*
X12604982Y-31872691D03*
X12994982Y-31745691D03*
X12604982Y-31745691D03*
X12994982Y-31618691D03*
X12604982Y-31618691D03*
D14*
X33610607Y-11819691D03*
X33793107Y-11819691D03*
D12*
X10039357Y-47179691D03*
X9864357Y-47179691D03*
D13*
X40294982Y-11380691D03*
X39904982Y-11380691D03*
X40294982Y-11253691D03*
X39904982Y-11253691D03*
X40294982Y-11126691D03*
X39904982Y-11126691D03*
X40294982Y-10999691D03*
X39904982Y-10999691D03*
X40294982Y-10872691D03*
X39904982Y-10872691D03*
X40294982Y-10745691D03*
X39904982Y-10745691D03*
X40294982Y-10618691D03*
X39904982Y-10618691D03*
D18*
X11775982Y-28310941D03*
X11775982Y-28138441D03*
D13*
X20794982Y-11380691D03*
X20404982Y-11380691D03*
X20794982Y-11253691D03*
X20404982Y-11253691D03*
X20794982Y-11126691D03*
X20404982Y-11126691D03*
X20794982Y-10999691D03*
X20404982Y-10999691D03*
X20794982Y-10872691D03*
X20404982Y-10872691D03*
X20794982Y-10745691D03*
X20404982Y-10745691D03*
X20794982Y-10618691D03*
X20404982Y-10618691D03*
X12994982Y-21880691D03*
X12604982Y-21880691D03*
X12994982Y-21753691D03*
X12604982Y-21753691D03*
X12994982Y-21626691D03*
X12604982Y-21626691D03*
X12994982Y-21499691D03*
X12604982Y-21499691D03*
X12994982Y-21372691D03*
X12604982Y-21372691D03*
X12994982Y-21245691D03*
X12604982Y-21245691D03*
X12994982Y-21118691D03*
X12604982Y-21118691D03*
D21*
X33197982Y-11480691D03*
X33701982Y-11480691D03*
X33197982Y-11226691D03*
X33701982Y-11226691D03*
X33197982Y-10972691D03*
X33701982Y-10972691D03*
X33197982Y-10718691D03*
X33701982Y-10718691D03*
D18*
X10779982Y-38435941D03*
X10779982Y-38263441D03*
D17*
X23338982Y-11293691D03*
X23511482Y-11293691D03*
D14*
X37510607Y-11819691D03*
X37693107Y-11819691D03*
D17*
X11638982Y-18293691D03*
X11811482Y-18293691D03*
D21*
X9797982Y-42980691D03*
X10301982Y-42980691D03*
X9797982Y-42726691D03*
X10301982Y-42726691D03*
X9797982Y-42472691D03*
X10301982Y-42472691D03*
X9797982Y-42218691D03*
X10301982Y-42218691D03*
D15*
X11602482Y-35669691D03*
X11602482Y-35589691D03*
X11602482Y-35509691D03*
X11602482Y-35429691D03*
X11602482Y-35349691D03*
X11602482Y-35269691D03*
X11602482Y-35189691D03*
X11602482Y-35109691D03*
D16*
X11464982Y-34972191D03*
X11384982Y-34972191D03*
X11304982Y-34972191D03*
X11224982Y-34972191D03*
X11144982Y-34972191D03*
X11064982Y-34972191D03*
X10984982Y-34972191D03*
X10904982Y-34972191D03*
D15*
X10767482Y-35109691D03*
X10767482Y-35189691D03*
X10767482Y-35269691D03*
X10767482Y-35349691D03*
X10767482Y-35429691D03*
X10767482Y-35509691D03*
X10767482Y-35589691D03*
X10767482Y-35669691D03*
D16*
X10904982Y-35807191D03*
X10984982Y-35807191D03*
X11064982Y-35807191D03*
X11144982Y-35807191D03*
X11224982Y-35807191D03*
X11304982Y-35807191D03*
X11384982Y-35807191D03*
X11464982Y-35807191D03*
D12*
X10039357Y-43499691D03*
X9864357Y-43499691D03*
D18*
X18429982Y-10435941D03*
X18429982Y-10263441D03*
D14*
X10210607Y-33179691D03*
X10393107Y-33179691D03*
D18*
X11775982Y-18141191D03*
X11775982Y-17968691D03*
D19*
X13147482Y-40174691D03*
X12352482Y-40174691D03*
X13147482Y-39724691D03*
X12352482Y-39724691D03*
D18*
X11775982Y-28641191D03*
X11775982Y-28468691D03*
D15*
X11602482Y-42669691D03*
X11602482Y-42589691D03*
X11602482Y-42509691D03*
X11602482Y-42429691D03*
X11602482Y-42349691D03*
X11602482Y-42269691D03*
X11602482Y-42189691D03*
X11602482Y-42109691D03*
D16*
X11464982Y-41972191D03*
X11384982Y-41972191D03*
X11304982Y-41972191D03*
X11224982Y-41972191D03*
X11144982Y-41972191D03*
X11064982Y-41972191D03*
X10984982Y-41972191D03*
X10904982Y-41972191D03*
D15*
X10767482Y-42109691D03*
X10767482Y-42189691D03*
X10767482Y-42269691D03*
X10767482Y-42349691D03*
X10767482Y-42429691D03*
X10767482Y-42509691D03*
X10767482Y-42589691D03*
X10767482Y-42669691D03*
D16*
X10904982Y-42807191D03*
X10984982Y-42807191D03*
X11064982Y-42807191D03*
X11144982Y-42807191D03*
X11224982Y-42807191D03*
X11304982Y-42807191D03*
X11384982Y-42807191D03*
X11464982Y-42807191D03*
D18*
X11775982Y-35641191D03*
X11775982Y-35468691D03*
D21*
X40997982Y-11480691D03*
X41501982Y-11480691D03*
X40997982Y-11226691D03*
X41501982Y-11226691D03*
X40997982Y-10972691D03*
X41501982Y-10972691D03*
X40997982Y-10718691D03*
X41501982Y-10718691D03*
D18*
X11775982Y-42641191D03*
X11775982Y-42468691D03*
D17*
X11638982Y-42793691D03*
X11811482Y-42793691D03*
D20*
X11441982Y-38297941D03*
X11441982Y-38115441D03*
D14*
X10210607Y-47179691D03*
X10393107Y-47179691D03*
X10210607Y-46999691D03*
X10393107Y-46999691D03*
D17*
X11638982Y-39293691D03*
X11811482Y-39293691D03*
X38938982Y-11293691D03*
X39111482Y-11293691D03*
D18*
X10629982Y-10435941D03*
X10629982Y-10263441D03*
D14*
X10210607Y-39819691D03*
X10393107Y-39819691D03*
D15*
X42802482Y-11169691D03*
X42802482Y-11089691D03*
X42802482Y-11009691D03*
X42802482Y-10929691D03*
X42802482Y-10849691D03*
X42802482Y-10769691D03*
X42802482Y-10689691D03*
X42802482Y-10609691D03*
D16*
X42664982Y-10472191D03*
X42584982Y-10472191D03*
X42504982Y-10472191D03*
X42424982Y-10472191D03*
X42344982Y-10472191D03*
X42264982Y-10472191D03*
X42184982Y-10472191D03*
X42104982Y-10472191D03*
D15*
X41967482Y-10609691D03*
X41967482Y-10689691D03*
X41967482Y-10769691D03*
X41967482Y-10849691D03*
X41967482Y-10929691D03*
X41967482Y-11009691D03*
X41967482Y-11089691D03*
X41967482Y-11169691D03*
D16*
X42104982Y-11307191D03*
X42184982Y-11307191D03*
X42264982Y-11307191D03*
X42344982Y-11307191D03*
X42424982Y-11307191D03*
X42504982Y-11307191D03*
X42584982Y-11307191D03*
X42664982Y-11307191D03*
D14*
X29710607Y-11819691D03*
X29893107Y-11819691D03*
D12*
X37339357Y-12179691D03*
X37164357Y-12179691D03*
D15*
X11602482Y-46169691D03*
X11602482Y-46089691D03*
X11602482Y-46009691D03*
X11602482Y-45929691D03*
X11602482Y-45849691D03*
X11602482Y-45769691D03*
X11602482Y-45689691D03*
X11602482Y-45609691D03*
D16*
X11464982Y-45472191D03*
X11384982Y-45472191D03*
X11304982Y-45472191D03*
X11224982Y-45472191D03*
X11144982Y-45472191D03*
X11064982Y-45472191D03*
X10984982Y-45472191D03*
X10904982Y-45472191D03*
D15*
X10767482Y-45609691D03*
X10767482Y-45689691D03*
X10767482Y-45769691D03*
X10767482Y-45849691D03*
X10767482Y-45929691D03*
X10767482Y-46009691D03*
X10767482Y-46089691D03*
X10767482Y-46169691D03*
D16*
X10904982Y-46307191D03*
X10984982Y-46307191D03*
X11064982Y-46307191D03*
X11144982Y-46307191D03*
X11224982Y-46307191D03*
X11304982Y-46307191D03*
X11384982Y-46307191D03*
X11464982Y-46307191D03*
D18*
X11775982Y-17810941D03*
X11775982Y-17638441D03*
X10629982Y-27935941D03*
X10629982Y-27763441D03*
D14*
X10210607Y-25999691D03*
X10393107Y-25999691D03*
D18*
X10629982Y-45435941D03*
X10629982Y-45263441D03*
D17*
X19438982Y-11293691D03*
X19611482Y-11293691D03*
D14*
X10210607Y-36319691D03*
X10393107Y-36319691D03*
D20*
X11441982Y-17297941D03*
X11441982Y-17115441D03*
D14*
X10210607Y-29499691D03*
X10393107Y-29499691D03*
D18*
X19575982Y-11141191D03*
X19575982Y-10968691D03*
D17*
X11638982Y-28793691D03*
X11811482Y-28793691D03*
D21*
X9797982Y-11480691D03*
X10301982Y-11480691D03*
X9797982Y-11226691D03*
X10301982Y-11226691D03*
X9797982Y-10972691D03*
X10301982Y-10972691D03*
X9797982Y-10718691D03*
X10301982Y-10718691D03*
D19*
X24847482Y-12174691D03*
X24052482Y-12174691D03*
X24847482Y-11724691D03*
X24052482Y-11724691D03*
D15*
X23302482Y-11169691D03*
X23302482Y-11089691D03*
X23302482Y-11009691D03*
X23302482Y-10929691D03*
X23302482Y-10849691D03*
X23302482Y-10769691D03*
X23302482Y-10689691D03*
X23302482Y-10609691D03*
D16*
X23164982Y-10472191D03*
X23084982Y-10472191D03*
X23004982Y-10472191D03*
X22924982Y-10472191D03*
X22844982Y-10472191D03*
X22764982Y-10472191D03*
X22684982Y-10472191D03*
X22604982Y-10472191D03*
D15*
X22467482Y-10609691D03*
X22467482Y-10689691D03*
X22467482Y-10769691D03*
X22467482Y-10849691D03*
X22467482Y-10929691D03*
X22467482Y-11009691D03*
X22467482Y-11089691D03*
X22467482Y-11169691D03*
D16*
X22604982Y-11307191D03*
X22684982Y-11307191D03*
X22764982Y-11307191D03*
X22844982Y-11307191D03*
X22924982Y-11307191D03*
X23004982Y-11307191D03*
X23084982Y-11307191D03*
X23164982Y-11307191D03*
D14*
X10210607Y-43319691D03*
X10393107Y-43319691D03*
D18*
X34179982Y-10435941D03*
X34179982Y-10263441D03*
X11775982Y-21310941D03*
X11775982Y-21138441D03*
D14*
X41410607Y-12179691D03*
X41593107Y-12179691D03*
D20*
X11441982Y-34797941D03*
X11441982Y-34615441D03*
D14*
X10210607Y-11819691D03*
X10393107Y-11819691D03*
D17*
X11638982Y-32293691D03*
X11811482Y-32293691D03*
D18*
X11775982Y-39141191D03*
X11775982Y-38968691D03*
X27375982Y-10810941D03*
X27375982Y-10638441D03*
X10779982Y-27935941D03*
X10779982Y-27763441D03*
D12*
X41239357Y-11999691D03*
X41064357Y-11999691D03*
D18*
X27375982Y-11141191D03*
X27375982Y-10968691D03*
D12*
X10039357Y-43319691D03*
X9864357Y-43319691D03*
X25639357Y-12179691D03*
X25464357Y-12179691D03*
D17*
X11638982Y-35793691D03*
X11811482Y-35793691D03*
D14*
X10210607Y-29319691D03*
X10393107Y-29319691D03*
D12*
X37339357Y-11999691D03*
X37164357Y-11999691D03*
D17*
X35038982Y-11293691D03*
X35211482Y-11293691D03*
D18*
X41829982Y-10435941D03*
X41829982Y-10263441D03*
D12*
X10039357Y-12179691D03*
X9864357Y-12179691D03*
D14*
X10210607Y-11999691D03*
X10393107Y-11999691D03*
D13*
X36394982Y-11380691D03*
X36004982Y-11380691D03*
X36394982Y-11253691D03*
X36004982Y-11253691D03*
X36394982Y-11126691D03*
X36004982Y-11126691D03*
X36394982Y-10999691D03*
X36004982Y-10999691D03*
X36394982Y-10872691D03*
X36004982Y-10872691D03*
X36394982Y-10745691D03*
X36004982Y-10745691D03*
X36394982Y-10618691D03*
X36004982Y-10618691D03*
D21*
X17597982Y-11480691D03*
X18101982Y-11480691D03*
X17597982Y-11226691D03*
X18101982Y-11226691D03*
X17597982Y-10972691D03*
X18101982Y-10972691D03*
X17597982Y-10718691D03*
X18101982Y-10718691D03*
D12*
X29539357Y-11999691D03*
X29364357Y-11999691D03*
M02*
