%TF.GenerationSoftware,KiCad,Pcbnew,7.0.6-7.0.6~ubuntu20.04.1*%
%TF.CreationDate,2023-07-11T10:17:37+02:00*%
%TF.ProjectId,output_panel2023-07-11_081728.4517270000,6f757470-7574-45f7-9061-6e656c323032,rev?*%
%TF.SameCoordinates,Original*%
%TF.FileFunction,Paste,Top*%
%TF.FilePolarity,Positive*%
%FSLAX45Y45*%
G04 Gerber Fmt 4.5, Leading zero omitted, Abs format (unit mm)*
G04 Created by KiCad (PCBNEW 7.0.6-7.0.6~ubuntu20.04.1) date 2023-07-11 10:17:37*
%MOMM*%
%LPD*%
G01*
G04 APERTURE LIST*
G04 Aperture macros list*
%AMRoundRect*
0 Rectangle with rounded corners*
0 $1 Rounding radius*
0 $2 $3 $4 $5 $6 $7 $8 $9 X,Y pos of 4 corners*
0 Add a 4 corners polygon primitive as box body*
4,1,4,$2,$3,$4,$5,$6,$7,$8,$9,$2,$3,0*
0 Add four circle primitives for the rounded corners*
1,1,$1+$1,$2,$3*
1,1,$1+$1,$4,$5*
1,1,$1+$1,$6,$7*
1,1,$1+$1,$8,$9*
0 Add four rect primitives between the rounded corners*
20,1,$1+$1,$2,$3,$4,$5,0*
20,1,$1+$1,$4,$5,$6,$7,0*
20,1,$1+$1,$6,$7,$8,$9,0*
20,1,$1+$1,$8,$9,$2,$3,0*%
G04 Aperture macros list end*
%TA.AperFunction,Profile*%
%ADD10C,0.100000*%
%TD*%
%ADD11R,0.400000X1.000000*%
%ADD12R,2.400000X0.740000*%
%ADD13RoundRect,0.237500X-0.287500X-0.237500X0.287500X-0.237500X0.287500X0.237500X-0.287500X0.237500X0*%
%ADD14RoundRect,0.237500X0.237500X-0.250000X0.237500X0.250000X-0.237500X0.250000X-0.237500X-0.250000X0*%
%ADD15RoundRect,0.100000X-0.712500X-0.100000X0.712500X-0.100000X0.712500X0.100000X-0.712500X0.100000X0*%
%ADD16RoundRect,0.237500X-0.237500X0.300000X-0.237500X-0.300000X0.237500X-0.300000X0.237500X0.300000X0*%
%ADD17RoundRect,0.237500X-0.237500X0.250000X-0.237500X-0.250000X0.237500X-0.250000X0.237500X0.250000X0*%
%ADD18RoundRect,0.237500X-0.237500X0.287500X-0.237500X-0.287500X0.237500X-0.287500X0.237500X0.287500X0*%
%ADD19RoundRect,0.237500X-0.250000X-0.237500X0.250000X-0.237500X0.250000X0.237500X-0.250000X0.237500X0*%
%ADD20R,1.550000X1.300000*%
%ADD21RoundRect,0.237500X0.250000X0.237500X-0.250000X0.237500X-0.250000X-0.237500X0.250000X-0.237500X0*%
%ADD22RoundRect,0.237500X-0.300000X-0.237500X0.300000X-0.237500X0.300000X0.237500X-0.300000X0.237500X0*%
%ADD23RoundRect,0.237500X0.300000X0.237500X-0.300000X0.237500X-0.300000X-0.237500X0.300000X-0.237500X0*%
%ADD24RoundRect,0.237500X0.237500X-0.300000X0.237500X0.300000X-0.237500X0.300000X-0.237500X-0.300000X0*%
%ADD25RoundRect,0.125000X0.125000X-0.625000X0.125000X0.625000X-0.125000X0.625000X-0.125000X-0.625000X0*%
%ADD26RoundRect,0.125000X0.625000X-0.125000X0.625000X0.125000X-0.625000X0.125000X-0.625000X-0.125000X0*%
%ADD27RoundRect,0.100000X0.100000X-0.637500X0.100000X0.637500X-0.100000X0.637500X-0.100000X-0.637500X0*%
%ADD28R,0.760000X1.600000*%
G04 APERTURE END LIST*
D10*
X1850000Y-6070000D02*
X50000Y-4670000D01*
X14250000Y-6070000D02*
X1850000Y-6070000D01*
X16050000Y-4670000D02*
X14250000Y-6070000D01*
X14270000Y-90000D02*
X16070000Y-1480000D01*
X16070000Y-1480000D02*
X16050000Y-4670000D01*
X50000Y-4670000D02*
X50000Y-1450000D01*
X50000Y-1450000D02*
X1850000Y-50000D01*
X1850000Y-50000D02*
X14270000Y-90000D01*
D11*
X7365000Y-2850000D03*
X7430000Y-2850000D03*
X7495000Y-2850000D03*
X7560000Y-2850000D03*
X7625000Y-2850000D03*
X7690000Y-2850000D03*
X7755000Y-2850000D03*
X7820000Y-2850000D03*
X7885000Y-2850000D03*
X7950000Y-2850000D03*
X7950000Y-2270000D03*
X7885000Y-2270000D03*
X7820000Y-2270000D03*
X7755000Y-2270000D03*
X7690000Y-2270000D03*
X7625000Y-2270000D03*
X7560000Y-2270000D03*
X7495000Y-2270000D03*
X7430000Y-2270000D03*
X7365000Y-2270000D03*
D12*
X9567500Y-4583000D03*
X9957500Y-4583000D03*
X9567500Y-4710000D03*
X9957500Y-4710000D03*
X9567500Y-4837000D03*
X9957500Y-4837000D03*
X9567500Y-4964000D03*
X9957500Y-4964000D03*
X9567500Y-5091000D03*
X9957500Y-5091000D03*
X9567500Y-5218000D03*
X9957500Y-5218000D03*
X9567500Y-5345000D03*
X9957500Y-5345000D03*
D13*
X4762500Y-170000D03*
X4937500Y-170000D03*
D14*
X10040000Y-392500D03*
X10040000Y-210000D03*
X8290000Y-3050000D03*
X8290000Y-2867500D03*
D15*
X11338750Y-1172500D03*
X11338750Y-1237500D03*
X11338750Y-1302500D03*
X11338750Y-1367500D03*
X11761250Y-1367500D03*
X11761250Y-1302500D03*
X11761250Y-1237500D03*
X11761250Y-1172500D03*
D16*
X11155000Y-1473750D03*
X11155000Y-1646250D03*
D17*
X5810000Y-321250D03*
X5810000Y-503750D03*
D18*
X9422500Y-565000D03*
X9422500Y-740000D03*
D17*
X5455000Y-326250D03*
X5455000Y-508750D03*
D18*
X9582500Y-565000D03*
X9582500Y-740000D03*
D19*
X4058750Y-1020000D03*
X4241250Y-1020000D03*
D14*
X9740000Y-392500D03*
X9740000Y-210000D03*
D18*
X9102500Y-565000D03*
X9102500Y-740000D03*
D14*
X9590000Y-392500D03*
X9590000Y-210000D03*
D17*
X11190000Y-5212500D03*
X11190000Y-5395000D03*
D20*
X2602500Y-1295000D03*
X3397500Y-1295000D03*
X2602500Y-1745000D03*
X3397500Y-1745000D03*
X3852500Y-2545000D03*
X4647500Y-2545000D03*
X3852500Y-2995000D03*
X4647500Y-2995000D03*
D19*
X6143750Y-2140000D03*
X6326250Y-2140000D03*
D21*
X9178050Y-1207400D03*
X8995550Y-1207400D03*
D14*
X9440000Y-392500D03*
X9440000Y-210000D03*
D22*
X10573250Y-3197000D03*
X10745750Y-3197000D03*
D20*
X9252500Y-2745000D03*
X10047500Y-2745000D03*
X9252500Y-3195000D03*
X10047500Y-3195000D03*
X2602500Y-3795000D03*
X3397500Y-3795000D03*
X2602500Y-4245000D03*
X3397500Y-4245000D03*
X14052500Y-2545000D03*
X14847500Y-2545000D03*
X14052500Y-2995000D03*
X14847500Y-2995000D03*
D14*
X9140000Y-392500D03*
X9140000Y-210000D03*
D16*
X11390000Y-5217500D03*
X11390000Y-5390000D03*
D20*
X1352500Y-2545000D03*
X2147500Y-2545000D03*
X1352500Y-2995000D03*
X2147500Y-2995000D03*
D13*
X5112500Y-170000D03*
X5287500Y-170000D03*
D23*
X7936250Y-3090000D03*
X7763750Y-3090000D03*
D17*
X11390000Y-4858750D03*
X11390000Y-5041250D03*
D20*
X5852500Y-2745000D03*
X6647500Y-2745000D03*
X5852500Y-3195000D03*
X6647500Y-3195000D03*
D18*
X9745000Y-563750D03*
X9745000Y-738750D03*
D24*
X7080200Y-4595650D03*
X7080200Y-4423150D03*
D13*
X5462500Y-170000D03*
X5637500Y-170000D03*
D25*
X7270000Y-4387500D03*
X7350000Y-4387500D03*
X7430000Y-4387500D03*
X7510000Y-4387500D03*
X7590000Y-4387500D03*
X7670000Y-4387500D03*
X7750000Y-4387500D03*
X7830000Y-4387500D03*
D26*
X7967500Y-4250000D03*
X7967500Y-4170000D03*
X7967500Y-4090000D03*
X7967500Y-4010000D03*
X7967500Y-3930000D03*
X7967500Y-3850000D03*
X7967500Y-3770000D03*
X7967500Y-3690000D03*
D25*
X7830000Y-3552500D03*
X7750000Y-3552500D03*
X7670000Y-3552500D03*
X7590000Y-3552500D03*
X7510000Y-3552500D03*
X7430000Y-3552500D03*
X7350000Y-3552500D03*
X7270000Y-3552500D03*
D26*
X7132500Y-3690000D03*
X7132500Y-3770000D03*
X7132500Y-3850000D03*
X7132500Y-3930000D03*
X7132500Y-4010000D03*
X7132500Y-4090000D03*
X7132500Y-4170000D03*
X7132500Y-4250000D03*
D17*
X5102500Y-328750D03*
X5102500Y-511250D03*
D18*
X8942500Y-565000D03*
X8942500Y-740000D03*
D19*
X6407500Y490000D03*
X6590000Y490000D03*
D16*
X8020000Y-3330950D03*
X8020000Y-3503450D03*
D14*
X10640000Y-392500D03*
X10640000Y-210000D03*
D19*
X6978750Y490000D03*
X7161250Y490000D03*
D13*
X5812500Y-170000D03*
X5987500Y-170000D03*
D20*
X10902500Y-295000D03*
X11697500Y-295000D03*
X10902500Y-745000D03*
X11697500Y-745000D03*
D14*
X9290000Y-392500D03*
X9290000Y-210000D03*
D18*
X10227500Y-562500D03*
X10227500Y-737500D03*
D13*
X11488500Y-1690000D03*
X11663500Y-1690000D03*
D19*
X8995550Y-1512200D03*
X9178050Y-1512200D03*
D20*
X12802500Y-3795000D03*
X13597500Y-3795000D03*
X12802500Y-4245000D03*
X13597500Y-4245000D03*
D18*
X9907500Y-562500D03*
X9907500Y-737500D03*
D19*
X12458750Y-970000D03*
X12641250Y-970000D03*
D14*
X9890000Y-392500D03*
X9890000Y-210000D03*
D19*
X11484750Y-1537600D03*
X11667250Y-1537600D03*
D27*
X9400900Y-1747650D03*
X9465900Y-1747650D03*
X9530900Y-1747650D03*
X9595900Y-1747650D03*
X9660900Y-1747650D03*
X9725900Y-1747650D03*
X9790900Y-1747650D03*
X9855900Y-1747650D03*
X9920900Y-1747650D03*
X9985900Y-1747650D03*
X10050900Y-1747650D03*
X10115900Y-1747650D03*
X10180900Y-1747650D03*
X10245900Y-1747650D03*
X10245900Y-1175150D03*
X10180900Y-1175150D03*
X10115900Y-1175150D03*
X10050900Y-1175150D03*
X9985900Y-1175150D03*
X9920900Y-1175150D03*
X9855900Y-1175150D03*
X9790900Y-1175150D03*
X9725900Y-1175150D03*
X9660900Y-1175150D03*
X9595900Y-1175150D03*
X9530900Y-1175150D03*
X9465900Y-1175150D03*
X9400900Y-1175150D03*
D17*
X4752500Y-326250D03*
X4752500Y-508750D03*
D21*
X9178050Y-1359800D03*
X8995550Y-1359800D03*
D14*
X10340000Y-392500D03*
X10340000Y-210000D03*
X8990000Y-392500D03*
X8990000Y-210000D03*
D20*
X11552500Y-2545000D03*
X12347500Y-2545000D03*
X11552500Y-2995000D03*
X12347500Y-2995000D03*
X12802500Y-1295000D03*
X13597500Y-1295000D03*
X12802500Y-1745000D03*
X13597500Y-1745000D03*
D28*
X6150000Y-1951000D03*
X6150000Y-1189000D03*
X10567000Y-3008000D03*
X10567000Y-2246000D03*
D14*
X10190000Y-392500D03*
X10190000Y-210000D03*
D16*
X10949500Y-2532000D03*
X10949500Y-2704500D03*
D14*
X10490000Y-392500D03*
X10490000Y-210000D03*
D18*
X10710000Y-562500D03*
X10710000Y-737500D03*
X10067500Y-562500D03*
X10067500Y-737500D03*
D16*
X8172400Y-3330950D03*
X8172400Y-3503450D03*
D18*
X9262500Y-565000D03*
X9262500Y-740000D03*
X10547500Y-562500D03*
X10547500Y-737500D03*
X10387500Y-562500D03*
X10387500Y-737500D03*
M02*
