%TF.GenerationSoftware,KiCad,Pcbnew,7.0.6-7.0.6~ubuntu20.04.1*%
%TF.CreationDate,2023-07-11T09:09:46+02:00*%
%TF.ProjectId,output_panel2023-07-11_070926.4017960000,6f757470-7574-45f7-9061-6e656c323032,rev?*%
%TF.SameCoordinates,Original*%
%TF.FileFunction,Profile,NP*%
%FSLAX45Y45*%
G04 Gerber Fmt 4.5, Leading zero omitted, Abs format (unit mm)*
G04 Created by KiCad (PCBNEW 7.0.6-7.0.6~ubuntu20.04.1) date 2023-07-11 09:09:46*
%MOMM*%
%LPD*%
G01*
G04 APERTURE LIST*
%TA.AperFunction,Profile*%
%ADD10C,0.100000*%
%TD*%
G04 APERTURE END LIST*
D10*
X30389999Y-6209999D02*
X32189999Y-7599999D01*
X1850000Y-12289999D02*
X14270000Y-12329999D01*
X16050000Y-4670000D02*
X14250000Y-6070000D01*
X14250000Y-12189999D02*
X1850000Y-12189999D01*
X17969999Y-6169999D02*
X30389999Y-6209999D01*
X32189999Y-7599999D02*
X32169999Y-10789999D01*
X16169999Y-1450000D02*
X17969999Y-50000D01*
X17969999Y-18309999D02*
X16169999Y-16909999D01*
X1850000Y-12189999D02*
X50000Y-10789999D01*
X50000Y-16909999D02*
X50000Y-13689999D01*
X14270000Y-6209999D02*
X16070000Y-7599999D01*
X1850000Y-50000D02*
X14270000Y-90000D01*
X32189999Y-13719999D02*
X32169999Y-16909999D01*
X32169999Y-10789999D02*
X30369999Y-12189999D01*
X50000Y-1450000D02*
X1850000Y-50000D01*
X32169999Y-16909999D02*
X30369999Y-18309999D01*
X16169999Y-10789999D02*
X16169999Y-7569999D01*
X16070000Y-7599999D02*
X16050000Y-10789999D01*
X32169999Y-4670000D02*
X30369999Y-6070000D01*
X17969999Y-12289999D02*
X30389999Y-12329999D01*
X50000Y-7569999D02*
X1850000Y-6169999D01*
X16070000Y-13719999D02*
X16050000Y-16909999D01*
X30369999Y-18309999D02*
X17969999Y-18309999D01*
X14270000Y-90000D02*
X16070000Y-1480000D01*
X50000Y-10789999D02*
X50000Y-7569999D01*
X30369999Y-12189999D02*
X17969999Y-12189999D01*
X17969999Y-6070000D02*
X16169999Y-4670000D01*
X16050000Y-16909999D02*
X14250000Y-18309999D01*
X50000Y-4670000D02*
X50000Y-1450000D01*
X30389999Y-12329999D02*
X32189999Y-13719999D01*
X1850000Y-6169999D02*
X14270000Y-6209999D01*
X16050000Y-10789999D02*
X14250000Y-12189999D01*
X50000Y-13689999D02*
X1850000Y-12289999D01*
X14270000Y-12329999D02*
X16070000Y-13719999D01*
X30369999Y-6070000D02*
X17969999Y-6070000D01*
X1850000Y-6070000D02*
X50000Y-4670000D01*
X30389999Y-90000D02*
X32189999Y-1480000D01*
X32189999Y-1480000D02*
X32169999Y-4670000D01*
X1850000Y-18309999D02*
X50000Y-16909999D01*
X16169999Y-16909999D02*
X16169999Y-13689999D01*
X14250000Y-18309999D02*
X1850000Y-18309999D01*
X16169999Y-7569999D02*
X17969999Y-6169999D01*
X17969999Y-12189999D02*
X16169999Y-10789999D01*
X17969999Y-50000D02*
X30389999Y-90000D01*
X16169999Y-13689999D02*
X17969999Y-12289999D01*
X16070000Y-1480000D02*
X16050000Y-4670000D01*
X16169999Y-4670000D02*
X16169999Y-1450000D01*
X14250000Y-6070000D02*
X1850000Y-6070000D01*
X30389999Y-6209999D02*
X32189999Y-7599999D01*
X1850000Y-12289999D02*
X14270000Y-12329999D01*
X16050000Y-4670000D02*
X14250000Y-6070000D01*
X14250000Y-12189999D02*
X1850000Y-12189999D01*
X17969999Y-6169999D02*
X30389999Y-6209999D01*
X32189999Y-7599999D02*
X32169999Y-10789999D01*
X16169999Y-1450000D02*
X17969999Y-50000D01*
X17969999Y-18309999D02*
X16169999Y-16909999D01*
X1850000Y-12189999D02*
X50000Y-10789999D01*
X50000Y-16909999D02*
X50000Y-13689999D01*
X14270000Y-6209999D02*
X16070000Y-7599999D01*
X1850000Y-50000D02*
X14270000Y-90000D01*
X32189999Y-13719999D02*
X32169999Y-16909999D01*
X32169999Y-10789999D02*
X30369999Y-12189999D01*
X50000Y-1450000D02*
X1850000Y-50000D01*
X32169999Y-16909999D02*
X30369999Y-18309999D01*
X16169999Y-10789999D02*
X16169999Y-7569999D01*
X16070000Y-7599999D02*
X16050000Y-10789999D01*
X32169999Y-4670000D02*
X30369999Y-6070000D01*
X17969999Y-12289999D02*
X30389999Y-12329999D01*
X50000Y-7569999D02*
X1850000Y-6169999D01*
X16070000Y-13719999D02*
X16050000Y-16909999D01*
X30369999Y-18309999D02*
X17969999Y-18309999D01*
X14270000Y-90000D02*
X16070000Y-1480000D01*
X50000Y-10789999D02*
X50000Y-7569999D01*
X30369999Y-12189999D02*
X17969999Y-12189999D01*
X17969999Y-6070000D02*
X16169999Y-4670000D01*
X16050000Y-16909999D02*
X14250000Y-18309999D01*
X50000Y-4670000D02*
X50000Y-1450000D01*
X30389999Y-12329999D02*
X32189999Y-13719999D01*
X1850000Y-6169999D02*
X14270000Y-6209999D01*
X16050000Y-10789999D02*
X14250000Y-12189999D01*
X50000Y-13689999D02*
X1850000Y-12289999D01*
X14270000Y-12329999D02*
X16070000Y-13719999D01*
X30369999Y-6070000D02*
X17969999Y-6070000D01*
X1850000Y-6070000D02*
X50000Y-4670000D01*
X30389999Y-90000D02*
X32189999Y-1480000D01*
X32189999Y-1480000D02*
X32169999Y-4670000D01*
X1850000Y-18309999D02*
X50000Y-16909999D01*
X16169999Y-16909999D02*
X16169999Y-13689999D01*
X14250000Y-18309999D02*
X1850000Y-18309999D01*
X16169999Y-7569999D02*
X17969999Y-6169999D01*
X17969999Y-12189999D02*
X16169999Y-10789999D01*
X17969999Y-50000D02*
X30389999Y-90000D01*
X16169999Y-13689999D02*
X17969999Y-12289999D01*
X16070000Y-1480000D02*
X16050000Y-4670000D01*
X16169999Y-4670000D02*
X16169999Y-1450000D01*
X14250000Y-6070000D02*
X1850000Y-6070000D01*
M02*
