%TF.GenerationSoftware,KiCad,Pcbnew,7.0.6-7.0.6~ubuntu20.04.1*%
%TF.CreationDate,2023-07-11T09:00:34+02:00*%
%TF.ProjectId,output_panel2023-07-11_070008.8206480000,6f757470-7574-45f7-9061-6e656c323032,rev?*%
%TF.SameCoordinates,Original*%
%TF.FileFunction,Soldermask,Bot*%
%TF.FilePolarity,Negative*%
%FSLAX45Y45*%
G04 Gerber Fmt 4.5, Leading zero omitted, Abs format (unit mm)*
G04 Created by KiCad (PCBNEW 7.0.6-7.0.6~ubuntu20.04.1) date 2023-07-11 09:00:34*
%MOMM*%
%LPD*%
G01*
G04 APERTURE LIST*
G04 Aperture macros list*
%AMRoundRect*
0 Rectangle with rounded corners*
0 $1 Rounding radius*
0 $2 $3 $4 $5 $6 $7 $8 $9 X,Y pos of 4 corners*
0 Add a 4 corners polygon primitive as box body*
4,1,4,$2,$3,$4,$5,$6,$7,$8,$9,$2,$3,0*
0 Add four circle primitives for the rounded corners*
1,1,$1+$1,$2,$3*
1,1,$1+$1,$4,$5*
1,1,$1+$1,$6,$7*
1,1,$1+$1,$8,$9*
0 Add four rect primitives between the rounded corners*
20,1,$1+$1,$2,$3,$4,$5,0*
20,1,$1+$1,$4,$5,$6,$7,0*
20,1,$1+$1,$6,$7,$8,$9,0*
20,1,$1+$1,$8,$9,$2,$3,0*%
G04 Aperture macros list end*
%TA.AperFunction,Profile*%
%ADD10C,0.100000*%
%TD*%
%TA.AperFunction,Profile*%
%ADD11C,0.050000*%
%TD*%
%ADD12C,5.600000*%
%ADD13R,1.700000X1.700000*%
%ADD14O,1.700000X1.700000*%
%ADD15RoundRect,0.237500X0.300000X0.237500X-0.300000X0.237500X-0.300000X-0.237500X0.300000X-0.237500X0*%
%ADD16RoundRect,0.237500X-0.250000X-0.237500X0.250000X-0.237500X0.250000X0.237500X-0.250000X0.237500X0*%
%ADD17RoundRect,0.100000X-0.100000X0.712500X-0.100000X-0.712500X0.100000X-0.712500X0.100000X0.712500X0*%
%ADD18RoundRect,0.150000X-0.150000X0.587500X-0.150000X-0.587500X0.150000X-0.587500X0.150000X0.587500X0*%
G04 APERTURE END LIST*
D10*
X36799979Y-12699691D02*
G75*
G03*
X37199982Y-13099691I400001J1D01*
G01*
X32799979Y-10099691D02*
G75*
G03*
X32399982Y-9699691I-399999J1D01*
G01*
D11*
X9149999Y-9599997D02*
X8249999Y-9499997D01*
D10*
X25099979Y-12699691D02*
G75*
G03*
X25499982Y-13099691I400001J1D01*
G01*
X41099982Y-9699692D02*
G75*
G03*
X40699982Y-10099691I-2J-399998D01*
G01*
X9899982Y-44699692D02*
G75*
G03*
X9499982Y-45099691I-2J-399998D01*
G01*
X41099982Y-9699691D02*
X44099982Y-9699691D01*
X13299979Y-10099691D02*
G75*
G03*
X12899982Y-9699691I-399999J1D01*
G01*
D11*
X17699981Y-9499997D02*
X17949981Y-999997D01*
X849999Y-20199380D02*
X499999Y-27999380D01*
D10*
X9899982Y-34199692D02*
G75*
G03*
X9499982Y-34599691I-2J-399998D01*
G01*
D11*
X49999Y-8899997D02*
X99999Y-49997D01*
D10*
X32799982Y-10099691D02*
X32799982Y-12699691D01*
X33299982Y-9699692D02*
G75*
G03*
X32899982Y-10099691I-2J-399998D01*
G01*
D11*
X8499999Y-39598762D02*
X849999Y-39498762D01*
D10*
X21199979Y-12699691D02*
G75*
G03*
X21599982Y-13099691I400001J1D01*
G01*
X9899982Y-13199692D02*
G75*
G03*
X9499982Y-13599691I-2J-399998D01*
G01*
X21599982Y-9699691D02*
X24599982Y-9699691D01*
X37199982Y-9699692D02*
G75*
G03*
X36799982Y-10099691I-2J-399998D01*
G01*
D11*
X19749963Y-899997D02*
X19399963Y-8699997D01*
D10*
X13299982Y-31099691D02*
X13299982Y-33699691D01*
X9899982Y-16699692D02*
G75*
G03*
X9499982Y-17099691I-2J-399998D01*
G01*
X9499982Y-26699691D02*
X9499982Y-24099691D01*
X13299982Y-34599691D02*
X13299982Y-37199691D01*
D11*
X8499999Y-10649688D02*
X849999Y-10549688D01*
X37849926Y-8899997D02*
X37899926Y-49997D01*
X49999Y-47498762D02*
X99999Y-38648762D01*
X27149963Y-9499997D02*
X27399963Y-999997D01*
X18949963Y-8899997D02*
X18999963Y-49997D01*
D10*
X9899982Y-9699692D02*
G75*
G03*
X9499982Y-10099691I-2J-399998D01*
G01*
X28899979Y-10099691D02*
G75*
G03*
X28499982Y-9699691I-399999J1D01*
G01*
X9499979Y-23199691D02*
G75*
G03*
X9899982Y-23599691I400001J1D01*
G01*
D11*
X18849981Y-149997D02*
X18599981Y-9599997D01*
D10*
X17199982Y-10099691D02*
X17199982Y-12699691D01*
D11*
X8249999Y-19149688D02*
X8499999Y-10649688D01*
X9949981Y-8699997D02*
X9499981Y-8899997D01*
X9149999Y-48198762D02*
X8249999Y-48098762D01*
D10*
X17299982Y-12699691D02*
X17299982Y-10099691D01*
X13299982Y-24099691D02*
X13299982Y-26699691D01*
D11*
X47199926Y-149997D02*
X46949926Y-9599997D01*
X9399999Y-149997D02*
X9149999Y-9599997D01*
D10*
X20699982Y-13099691D02*
X17699982Y-13099691D01*
X28499982Y-13099692D02*
G75*
G03*
X28899982Y-12699691I-2J400002D01*
G01*
X12899982Y-16599692D02*
G75*
G03*
X13299982Y-16199691I-2J400002D01*
G01*
X13399979Y-12699691D02*
G75*
G03*
X13799982Y-13099691I400001J1D01*
G01*
X9899982Y-34199691D02*
X12899982Y-34199691D01*
D11*
X8499999Y-20299380D02*
X849999Y-20199380D01*
D10*
X32399982Y-13099691D02*
X29399982Y-13099691D01*
X21599982Y-9699692D02*
G75*
G03*
X21199982Y-10099691I-2J-399998D01*
G01*
D11*
X849999Y-29849071D02*
X499999Y-37649071D01*
D10*
X40699979Y-12699691D02*
G75*
G03*
X41099982Y-13099691I400001J1D01*
G01*
X13299979Y-31099691D02*
G75*
G03*
X12899982Y-30699691I-399999J1D01*
G01*
D11*
X499999Y-8699997D02*
X49999Y-8899997D01*
X49999Y-28199380D02*
X99999Y-19349380D01*
D10*
X25499982Y-9699692D02*
G75*
G03*
X25099982Y-10099691I-2J-399998D01*
G01*
X9499979Y-26699691D02*
G75*
G03*
X9899982Y-27099691I400001J1D01*
G01*
D11*
X499999Y-47298762D02*
X49999Y-47498762D01*
X28849944Y-8699997D02*
X28399944Y-8899997D01*
D10*
X12899982Y-13099692D02*
G75*
G03*
X13299982Y-12699691I-2J400002D01*
G01*
X33299982Y-9699691D02*
X36299982Y-9699691D01*
X16799982Y-13099691D02*
X13799982Y-13099691D01*
X12899982Y-30599692D02*
G75*
G03*
X13299982Y-30199691I-2J400002D01*
G01*
X16799982Y-13099692D02*
G75*
G03*
X17199982Y-12699691I-2J400002D01*
G01*
X12899982Y-27099691D02*
X9899982Y-27099691D01*
X24999979Y-10099691D02*
G75*
G03*
X24599982Y-9699691I-399999J1D01*
G01*
D11*
X499999Y-27999380D02*
X49999Y-28199380D01*
D10*
X12899982Y-23599692D02*
G75*
G03*
X13299982Y-23199691I-2J400002D01*
G01*
D11*
X99999Y-9699688D02*
X9399999Y-9799688D01*
X8499999Y-999997D02*
X849999Y-899997D01*
D10*
X9899982Y-30699692D02*
G75*
G03*
X9499982Y-31099691I-2J-399998D01*
G01*
X9499979Y-30199691D02*
G75*
G03*
X9899982Y-30599691I400001J1D01*
G01*
X9499982Y-47699691D02*
X9499982Y-45099691D01*
D11*
X28049963Y-9599997D02*
X27149963Y-9499997D01*
X9499981Y-8899997D02*
X9549981Y-49997D01*
D10*
X13299979Y-27599691D02*
G75*
G03*
X12899982Y-27199691I-399999J1D01*
G01*
X36699982Y-10099691D02*
X36699982Y-12699691D01*
X9899982Y-23699691D02*
X12899982Y-23699691D01*
X9899982Y-16699691D02*
X12899982Y-16699691D01*
D11*
X849999Y-39498762D02*
X499999Y-47298762D01*
D10*
X13299982Y-41599691D02*
X13299982Y-44199691D01*
X9499979Y-40699691D02*
G75*
G03*
X9899982Y-41099691I400001J1D01*
G01*
X28999982Y-12699691D02*
X28999982Y-10099691D01*
D11*
X29199944Y-899997D02*
X28849944Y-8699997D01*
X8249999Y-28799380D02*
X8499999Y-20299380D01*
D10*
X13299982Y-27599691D02*
X13299982Y-30199691D01*
X44099982Y-13099692D02*
G75*
G03*
X44499982Y-12699691I-2J400002D01*
G01*
D11*
X9399999Y-19449380D02*
X9149999Y-28899380D01*
X9399999Y-9799688D02*
X9149999Y-19249688D01*
D10*
X17199979Y-10099691D02*
G75*
G03*
X16799982Y-9699691I-399999J1D01*
G01*
X9499982Y-16199691D02*
X9499982Y-13599691D01*
X24999982Y-10099691D02*
X24999982Y-12699691D01*
X9499979Y-19699691D02*
G75*
G03*
X9899982Y-20099691I400001J1D01*
G01*
X9499979Y-33699691D02*
G75*
G03*
X9899982Y-34099691I400001J1D01*
G01*
X12899982Y-41099692D02*
G75*
G03*
X13299982Y-40699691I-2J400002D01*
G01*
X37199982Y-9699691D02*
X40199982Y-9699691D01*
D11*
X19399963Y-8699997D02*
X18949963Y-8899997D01*
D10*
X13299979Y-45099691D02*
G75*
G03*
X12899982Y-44699691I-399999J1D01*
G01*
X13299982Y-20599691D02*
X13299982Y-23199691D01*
D11*
X8249999Y-9499997D02*
X8499999Y-999997D01*
D10*
X9499982Y-40699691D02*
X9499982Y-38099691D01*
X9499982Y-44199691D02*
X9499982Y-41599691D01*
X13299979Y-17099691D02*
G75*
G03*
X12899982Y-16699691I-399999J1D01*
G01*
D11*
X99999Y-38648762D02*
X9399999Y-38748762D01*
D10*
X13299982Y-17099691D02*
X13299982Y-19699691D01*
X40199982Y-13099692D02*
G75*
G03*
X40599982Y-12699691I-2J400002D01*
G01*
X13299979Y-38099691D02*
G75*
G03*
X12899982Y-37699691I-399999J1D01*
G01*
X13299979Y-41599691D02*
G75*
G03*
X12899982Y-41199691I-399999J1D01*
G01*
X44099982Y-13099691D02*
X41099982Y-13099691D01*
X40699982Y-12699691D02*
X40699982Y-10099691D01*
X24599982Y-13099692D02*
G75*
G03*
X24999982Y-12699691I-2J400002D01*
G01*
D11*
X28299963Y-149997D02*
X28049963Y-9599997D01*
X49999Y-18549688D02*
X99999Y-9699688D01*
X9399999Y-29099071D02*
X9149999Y-38549071D01*
D10*
X36699979Y-10099691D02*
G75*
G03*
X36299982Y-9699691I-399999J1D01*
G01*
D11*
X849999Y-899997D02*
X499999Y-8699997D01*
D10*
X13299982Y-45099691D02*
X13299982Y-47699691D01*
X12899982Y-48099692D02*
G75*
G03*
X13299982Y-47699691I-2J400002D01*
G01*
X9499979Y-44199691D02*
G75*
G03*
X9899982Y-44599691I400001J1D01*
G01*
X28899982Y-10099691D02*
X28899982Y-12699691D01*
X13299982Y-38099691D02*
X13299982Y-40699691D01*
D11*
X28399944Y-8899997D02*
X28449944Y-49997D01*
D10*
X9899982Y-44699691D02*
X12899982Y-44699691D01*
D11*
X36849944Y-999997D02*
X29199944Y-899997D01*
D10*
X44499979Y-10099691D02*
G75*
G03*
X44099982Y-9699691I-399999J1D01*
G01*
X21099982Y-10099691D02*
X21099982Y-12699691D01*
D11*
X18599981Y-9599997D02*
X17699981Y-9499997D01*
D10*
X9499982Y-37199691D02*
X9499982Y-34599691D01*
X25499982Y-9699691D02*
X28499982Y-9699691D01*
X9899982Y-20199691D02*
X12899982Y-20199691D01*
X9499979Y-37199691D02*
G75*
G03*
X9899982Y-37599691I400001J1D01*
G01*
D11*
X46049926Y-9499997D02*
X46299926Y-999997D01*
X37499944Y-9599997D02*
X36599944Y-9499997D01*
D10*
X9899982Y-37699691D02*
X12899982Y-37699691D01*
X13299979Y-34599691D02*
G75*
G03*
X12899982Y-34199691I-399999J1D01*
G01*
X29399982Y-9699692D02*
G75*
G03*
X28999982Y-10099691I-2J-399998D01*
G01*
X28499982Y-13099691D02*
X25499982Y-13099691D01*
X20699982Y-13099692D02*
G75*
G03*
X21099982Y-12699691I-2J400002D01*
G01*
X12899982Y-37599691D02*
X9899982Y-37599691D01*
X12899982Y-16599691D02*
X9899982Y-16599691D01*
X13399982Y-12699691D02*
X13399982Y-10099691D01*
D11*
X18999963Y-49997D02*
X28299963Y-149997D01*
X8499999Y-29949071D02*
X849999Y-29849071D01*
D10*
X9499979Y-47699691D02*
G75*
G03*
X9899982Y-48099691I400001J1D01*
G01*
X9499979Y-16199691D02*
G75*
G03*
X9899982Y-16599691I400001J1D01*
G01*
D11*
X499999Y-37649071D02*
X49999Y-37849071D01*
D10*
X32899982Y-12699691D02*
X32899982Y-10099691D01*
D11*
X28449944Y-49997D02*
X37749944Y-149997D01*
X8249999Y-38449071D02*
X8499999Y-29949071D01*
D10*
X9499979Y-12699691D02*
G75*
G03*
X9899982Y-13099691I400001J1D01*
G01*
D11*
X9149999Y-19249688D02*
X8249999Y-19149688D01*
D10*
X9899982Y-41199692D02*
G75*
G03*
X9499982Y-41599691I-2J-399998D01*
G01*
X13299982Y-10099691D02*
X13299982Y-12699691D01*
X24599982Y-13099691D02*
X21599982Y-13099691D01*
D11*
X9399999Y-38748762D02*
X9149999Y-48198762D01*
X37749944Y-149997D02*
X37499944Y-9599997D01*
D10*
X9499982Y-23199691D02*
X9499982Y-20599691D01*
D11*
X46299926Y-999997D02*
X38649926Y-899997D01*
X38299926Y-8699997D02*
X37849926Y-8899997D01*
D10*
X9499982Y-19699691D02*
X9499982Y-17099691D01*
X12899982Y-41099691D02*
X9899982Y-41099691D01*
X9499982Y-30199691D02*
X9499982Y-27599691D01*
D11*
X99999Y-19349380D02*
X9399999Y-19449380D01*
D10*
X13299979Y-24099691D02*
G75*
G03*
X12899982Y-23699691I-399999J1D01*
G01*
D11*
X499999Y-18349688D02*
X49999Y-18549688D01*
X849999Y-10549688D02*
X499999Y-18349688D01*
D10*
X9899982Y-20199692D02*
G75*
G03*
X9499982Y-20599691I-2J-399998D01*
G01*
X36299982Y-13099691D02*
X33299982Y-13099691D01*
X40599982Y-10099691D02*
X40599982Y-12699691D01*
D11*
X10299981Y-899997D02*
X9949981Y-8699997D01*
D10*
X28999979Y-12699691D02*
G75*
G03*
X29399982Y-13099691I400001J1D01*
G01*
X9899982Y-9699691D02*
X12899982Y-9699691D01*
X17699982Y-9699691D02*
X20699982Y-9699691D01*
X17699982Y-9699692D02*
G75*
G03*
X17299982Y-10099691I-2J-399998D01*
G01*
X13799982Y-9699691D02*
X16799982Y-9699691D01*
X12899982Y-44599691D02*
X9899982Y-44599691D01*
D11*
X9149999Y-38549071D02*
X8249999Y-38449071D01*
D10*
X12899982Y-27099692D02*
G75*
G03*
X13299982Y-26699691I-2J400002D01*
G01*
X13299979Y-13599691D02*
G75*
G03*
X12899982Y-13199691I-399999J1D01*
G01*
D11*
X49999Y-37849071D02*
X99999Y-28999071D01*
X27399963Y-999997D02*
X19749963Y-899997D01*
D10*
X9899982Y-41199691D02*
X12899982Y-41199691D01*
X12899982Y-34099692D02*
G75*
G03*
X13299982Y-33699691I-2J400002D01*
G01*
D11*
X99999Y-49997D02*
X9399999Y-149997D01*
D10*
X9899982Y-27199692D02*
G75*
G03*
X9499982Y-27599691I-2J-399998D01*
G01*
X12899982Y-23599691D02*
X9899982Y-23599691D01*
X40599979Y-10099691D02*
G75*
G03*
X40199982Y-9699691I-399999J1D01*
G01*
D11*
X17949981Y-999997D02*
X10299981Y-899997D01*
D10*
X9899982Y-13199691D02*
X12899982Y-13199691D01*
X9899982Y-30699691D02*
X12899982Y-30699691D01*
X12899982Y-30599691D02*
X9899982Y-30599691D01*
D11*
X99999Y-28999071D02*
X9399999Y-29099071D01*
D10*
X12899982Y-13099691D02*
X9899982Y-13099691D01*
D11*
X9149999Y-28899380D02*
X8249999Y-28799380D01*
X38649926Y-899997D02*
X38299926Y-8699997D01*
D10*
X9899982Y-23699692D02*
G75*
G03*
X9499982Y-24099691I-2J-399998D01*
G01*
X21099979Y-10099691D02*
G75*
G03*
X20699982Y-9699691I-399999J1D01*
G01*
X36799982Y-12699691D02*
X36799982Y-10099691D01*
X13799982Y-9699692D02*
G75*
G03*
X13399982Y-10099691I-2J-399998D01*
G01*
X9899982Y-37699692D02*
G75*
G03*
X9499982Y-38099691I-2J-399998D01*
G01*
X12899982Y-44599692D02*
G75*
G03*
X13299982Y-44199691I-2J400002D01*
G01*
X29399982Y-9699691D02*
X32399982Y-9699691D01*
X17299979Y-12699691D02*
G75*
G03*
X17699982Y-13099691I400001J1D01*
G01*
D11*
X46949926Y-9599997D02*
X46049926Y-9499997D01*
D10*
X12899982Y-20099691D02*
X9899982Y-20099691D01*
X9899982Y-27199691D02*
X12899982Y-27199691D01*
X12899982Y-20099692D02*
G75*
G03*
X13299982Y-19699691I-2J400002D01*
G01*
X9499982Y-12699691D02*
X9499982Y-10099691D01*
X12899982Y-34099691D02*
X9899982Y-34099691D01*
X25099982Y-12699691D02*
X25099982Y-10099691D01*
X21199982Y-12699691D02*
X21199982Y-10099691D01*
X13299979Y-20599691D02*
G75*
G03*
X12899982Y-20199691I-399999J1D01*
G01*
D11*
X36599944Y-9499997D02*
X36849944Y-999997D01*
X9549981Y-49997D02*
X18849981Y-149997D01*
D10*
X12899982Y-48099691D02*
X9899982Y-48099691D01*
X9499982Y-33699691D02*
X9499982Y-31099691D01*
D11*
X8249999Y-48098762D02*
X8499999Y-39598762D01*
D10*
X44499982Y-10099691D02*
X44499982Y-12699691D01*
X36299982Y-13099692D02*
G75*
G03*
X36699982Y-12699691I-2J400002D01*
G01*
X32399982Y-13099692D02*
G75*
G03*
X32799982Y-12699691I-2J400002D01*
G01*
X12899982Y-37599692D02*
G75*
G03*
X13299982Y-37199691I-2J400002D01*
G01*
X32899979Y-12699691D02*
G75*
G03*
X33299982Y-13099691I400001J1D01*
G01*
D11*
X37899926Y-49997D02*
X47199926Y-149997D01*
D10*
X13299982Y-13599691D02*
X13299982Y-16199691D01*
X40199982Y-13099691D02*
X37199982Y-13099691D01*
D12*
X9899982Y-24099691D03*
D13*
X34024982Y-12889691D03*
D14*
X34278982Y-12889691D03*
X34532982Y-12889691D03*
X34786982Y-12889691D03*
X35040982Y-12889691D03*
X35294982Y-12889691D03*
X35548982Y-12889691D03*
D12*
X9899982Y-20599691D03*
X41099982Y-10099691D03*
X9899982Y-40699691D03*
X36299982Y-10099691D03*
X12899982Y-41599691D03*
X9899982Y-19699691D03*
X20699982Y-10099691D03*
X12899982Y-26699691D03*
X12899982Y-13599691D03*
X20699982Y-12699691D03*
X24599982Y-12699691D03*
X17699982Y-10099691D03*
X13799982Y-10099691D03*
X12899982Y-19699691D03*
X17699982Y-12699691D03*
X25499982Y-10099691D03*
D13*
X14524982Y-12889691D03*
D14*
X14778982Y-12889691D03*
X15032982Y-12889691D03*
X15286982Y-12889691D03*
X15540982Y-12889691D03*
X15794982Y-12889691D03*
X16048982Y-12889691D03*
D12*
X28499982Y-10099691D03*
X40199982Y-10099691D03*
X9899982Y-23199691D03*
X12899982Y-38099691D03*
X29399982Y-12699691D03*
D13*
X10624982Y-16389691D03*
D14*
X10878982Y-16389691D03*
X11132982Y-16389691D03*
X11386982Y-16389691D03*
X11640982Y-16389691D03*
X11894982Y-16389691D03*
X12148982Y-16389691D03*
D12*
X16799982Y-12699691D03*
D13*
X30124982Y-12889691D03*
D14*
X30378982Y-12889691D03*
X30632982Y-12889691D03*
X30886982Y-12889691D03*
X31140982Y-12889691D03*
X31394982Y-12889691D03*
X31648982Y-12889691D03*
D12*
X12899982Y-45099691D03*
X12899982Y-40699691D03*
D13*
X22324982Y-12889691D03*
D14*
X22578982Y-12889691D03*
X22832982Y-12889691D03*
X23086982Y-12889691D03*
X23340982Y-12889691D03*
X23594982Y-12889691D03*
X23848982Y-12889691D03*
D12*
X12899982Y-17099691D03*
X9899982Y-26699691D03*
D13*
X37924982Y-12889691D03*
D14*
X38178982Y-12889691D03*
X38432982Y-12889691D03*
X38686982Y-12889691D03*
X38940982Y-12889691D03*
X39194982Y-12889691D03*
X39448982Y-12889691D03*
D13*
X10624982Y-37389691D03*
D14*
X10878982Y-37389691D03*
X11132982Y-37389691D03*
X11386982Y-37389691D03*
X11640982Y-37389691D03*
X11894982Y-37389691D03*
X12148982Y-37389691D03*
D13*
X26224982Y-12889691D03*
D14*
X26478982Y-12889691D03*
X26732982Y-12889691D03*
X26986982Y-12889691D03*
X27240982Y-12889691D03*
X27494982Y-12889691D03*
X27748982Y-12889691D03*
D12*
X9899982Y-45099691D03*
D13*
X10624982Y-19889691D03*
D14*
X10878982Y-19889691D03*
X11132982Y-19889691D03*
X11386982Y-19889691D03*
X11640982Y-19889691D03*
X11894982Y-19889691D03*
X12148982Y-19889691D03*
D12*
X9899982Y-31099691D03*
X9899982Y-44199691D03*
X9899982Y-33699691D03*
X12899982Y-16199691D03*
D13*
X10624982Y-40889691D03*
D14*
X10878982Y-40889691D03*
X11132982Y-40889691D03*
X11386982Y-40889691D03*
X11640982Y-40889691D03*
X11894982Y-40889691D03*
X12148982Y-40889691D03*
D12*
X12899982Y-24099691D03*
X9899982Y-17099691D03*
X9899982Y-12699691D03*
X29399982Y-10099691D03*
X37199982Y-10099691D03*
D13*
X10624982Y-44389691D03*
D14*
X10878982Y-44389691D03*
X11132982Y-44389691D03*
X11386982Y-44389691D03*
X11640982Y-44389691D03*
X11894982Y-44389691D03*
X12148982Y-44389691D03*
D12*
X12899982Y-31099691D03*
X9899982Y-37199691D03*
X28499982Y-12699691D03*
X12899982Y-44199691D03*
X12899982Y-33699691D03*
X9899982Y-34599691D03*
X13799982Y-12699691D03*
X32399982Y-10099691D03*
D13*
X41824982Y-12889691D03*
D14*
X42078982Y-12889691D03*
X42332982Y-12889691D03*
X42586982Y-12889691D03*
X42840982Y-12889691D03*
X43094982Y-12889691D03*
X43348982Y-12889691D03*
D12*
X12899982Y-23199691D03*
X12899982Y-10099691D03*
X44099982Y-12699691D03*
X12899982Y-20599691D03*
X21599982Y-12699691D03*
X12899982Y-37199691D03*
X9899982Y-13599691D03*
X25499982Y-12699691D03*
X12899982Y-30199691D03*
X36299982Y-12699691D03*
D13*
X18424982Y-12889691D03*
D14*
X18678982Y-12889691D03*
X18932982Y-12889691D03*
X19186982Y-12889691D03*
X19440982Y-12889691D03*
X19694982Y-12889691D03*
X19948982Y-12889691D03*
D12*
X9899982Y-27599691D03*
X41099982Y-12699691D03*
X21599982Y-10099691D03*
X9899982Y-10099691D03*
D13*
X10624982Y-33889691D03*
D14*
X10878982Y-33889691D03*
X11132982Y-33889691D03*
X11386982Y-33889691D03*
X11640982Y-33889691D03*
X11894982Y-33889691D03*
X12148982Y-33889691D03*
D12*
X9899982Y-16199691D03*
X37199982Y-12699691D03*
D13*
X10624982Y-12889691D03*
D14*
X10878982Y-12889691D03*
X11132982Y-12889691D03*
X11386982Y-12889691D03*
X11640982Y-12889691D03*
X11894982Y-12889691D03*
X12148982Y-12889691D03*
D12*
X9899982Y-30199691D03*
D13*
X10624982Y-47889691D03*
D14*
X10878982Y-47889691D03*
X11132982Y-47889691D03*
X11386982Y-47889691D03*
X11640982Y-47889691D03*
X11894982Y-47889691D03*
X12148982Y-47889691D03*
D13*
X10624982Y-30389691D03*
D14*
X10878982Y-30389691D03*
X11132982Y-30389691D03*
X11386982Y-30389691D03*
X11640982Y-30389691D03*
X11894982Y-30389691D03*
X12148982Y-30389691D03*
D13*
X10624982Y-23389691D03*
D14*
X10878982Y-23389691D03*
X11132982Y-23389691D03*
X11386982Y-23389691D03*
X11640982Y-23389691D03*
X11894982Y-23389691D03*
X12148982Y-23389691D03*
D12*
X33299982Y-12699691D03*
X12899982Y-27599691D03*
X33299982Y-10099691D03*
D13*
X10624982Y-26889691D03*
D14*
X10878982Y-26889691D03*
X11132982Y-26889691D03*
X11386982Y-26889691D03*
X11640982Y-26889691D03*
X11894982Y-26889691D03*
X12148982Y-26889691D03*
D12*
X44099982Y-10099691D03*
X12899982Y-12699691D03*
X16799982Y-10099691D03*
X9899982Y-38099691D03*
X9899982Y-41599691D03*
X32399982Y-12699691D03*
X9899982Y-47699691D03*
X12899982Y-34599691D03*
X12899982Y-47699691D03*
X24599982Y-10099691D03*
X40199982Y-12699691D03*
D15*
X39601232Y-11944691D03*
X39428732Y-11944691D03*
D16*
X11438732Y-32919691D03*
X11621232Y-32919691D03*
X19583732Y-12609691D03*
X19766232Y-12609691D03*
X15683732Y-11919691D03*
X15866232Y-11919691D03*
X11783732Y-25919691D03*
X11966232Y-25919691D03*
D17*
X12128732Y-15653441D03*
X12193732Y-15653441D03*
X12258732Y-15653441D03*
X12323732Y-15653441D03*
X12323732Y-16075941D03*
X12258732Y-16075941D03*
X12193732Y-16075941D03*
X12128732Y-16075941D03*
D16*
X11093732Y-16109691D03*
X11276232Y-16109691D03*
D18*
X34144982Y-12095941D03*
X34334982Y-12095941D03*
X34239982Y-12283441D03*
D15*
X12301232Y-25944691D03*
X12128732Y-25944691D03*
D16*
X10748732Y-33609691D03*
X10931232Y-33609691D03*
X11783732Y-32919691D03*
X11966232Y-32919691D03*
X29903732Y-11919691D03*
X30086232Y-11919691D03*
D18*
X10744982Y-29595941D03*
X10934982Y-29595941D03*
X10839982Y-29783441D03*
D16*
X10403732Y-18919691D03*
X10586232Y-18919691D03*
D18*
X10399982Y-12095941D03*
X10589982Y-12095941D03*
X10494982Y-12283441D03*
X22099982Y-12095941D03*
X22289982Y-12095941D03*
X22194982Y-12283441D03*
D16*
X30593732Y-12609691D03*
X30776232Y-12609691D03*
D18*
X11779982Y-19095941D03*
X11969982Y-19095941D03*
X11874982Y-19283441D03*
D15*
X12301232Y-25794691D03*
X12128732Y-25794691D03*
X39601232Y-11794691D03*
X39428732Y-11794691D03*
D16*
X22103732Y-11919691D03*
X22286232Y-11919691D03*
D18*
X10399982Y-33095941D03*
X10589982Y-33095941D03*
X10494982Y-33283441D03*
D15*
X12301232Y-18944691D03*
X12128732Y-18944691D03*
D17*
X12128732Y-26153441D03*
X12193732Y-26153441D03*
X12258732Y-26153441D03*
X12323732Y-26153441D03*
X12323732Y-26575941D03*
X12258732Y-26575941D03*
X12193732Y-26575941D03*
X12128732Y-26575941D03*
D18*
X35179982Y-12095941D03*
X35369982Y-12095941D03*
X35274982Y-12283441D03*
D16*
X11783732Y-37109691D03*
X11966232Y-37109691D03*
D18*
X11089982Y-36595941D03*
X11279982Y-36595941D03*
X11184982Y-36783441D03*
X11434982Y-22595941D03*
X11624982Y-22595941D03*
X11529982Y-22783441D03*
X11434982Y-43595941D03*
X11624982Y-43595941D03*
X11529982Y-43783441D03*
D16*
X11093732Y-46919691D03*
X11276232Y-46919691D03*
D18*
X11779982Y-47095941D03*
X11969982Y-47095941D03*
X11874982Y-47283441D03*
D16*
X10748732Y-43419691D03*
X10931232Y-43419691D03*
D18*
X10744982Y-19095941D03*
X10934982Y-19095941D03*
X10839982Y-19283441D03*
D16*
X11438732Y-23109691D03*
X11621232Y-23109691D03*
X10403732Y-12609691D03*
X10586232Y-12609691D03*
D18*
X42289982Y-12095941D03*
X42479982Y-12095941D03*
X42384982Y-12283441D03*
X11089982Y-47095941D03*
X11279982Y-47095941D03*
X11184982Y-47283441D03*
D16*
X42293732Y-11919691D03*
X42476232Y-11919691D03*
X19238732Y-12609691D03*
X19421232Y-12609691D03*
D15*
X12301232Y-46944691D03*
X12128732Y-46944691D03*
D16*
X10403732Y-22419691D03*
X10586232Y-22419691D03*
X37703732Y-12609691D03*
X37886232Y-12609691D03*
D17*
X43328732Y-12153441D03*
X43393732Y-12153441D03*
X43458732Y-12153441D03*
X43523732Y-12153441D03*
X43523732Y-12575941D03*
X43458732Y-12575941D03*
X43393732Y-12575941D03*
X43328732Y-12575941D03*
D16*
X10403732Y-23109691D03*
X10586232Y-23109691D03*
X11438732Y-29419691D03*
X11621232Y-29419691D03*
X10748732Y-47609691D03*
X10931232Y-47609691D03*
D17*
X12128732Y-29653441D03*
X12193732Y-29653441D03*
X12258732Y-29653441D03*
X12323732Y-29653441D03*
X12323732Y-30075941D03*
X12258732Y-30075941D03*
X12193732Y-30075941D03*
X12128732Y-30075941D03*
D18*
X14299982Y-12095941D03*
X14489982Y-12095941D03*
X14394982Y-12283441D03*
X27379982Y-12095941D03*
X27569982Y-12095941D03*
X27474982Y-12283441D03*
D16*
X42983732Y-11919691D03*
X43166232Y-11919691D03*
X11438732Y-30109691D03*
X11621232Y-30109691D03*
X10403732Y-33609691D03*
X10586232Y-33609691D03*
X11438732Y-39919691D03*
X11621232Y-39919691D03*
D18*
X10744982Y-43595941D03*
X10934982Y-43595941D03*
X10839982Y-43783441D03*
X41944982Y-12095941D03*
X42134982Y-12095941D03*
X42039982Y-12283441D03*
D15*
X12301232Y-36294691D03*
X12128732Y-36294691D03*
D16*
X10748732Y-32919691D03*
X10931232Y-32919691D03*
D18*
X33799982Y-12095941D03*
X33989982Y-12095941D03*
X33894982Y-12283441D03*
X19579982Y-12095941D03*
X19769982Y-12095941D03*
X19674982Y-12283441D03*
D16*
X14648732Y-12609691D03*
X14831232Y-12609691D03*
D18*
X31279982Y-12095941D03*
X31469982Y-12095941D03*
X31374982Y-12283441D03*
X11089982Y-33095941D03*
X11279982Y-33095941D03*
X11184982Y-33283441D03*
D17*
X12128732Y-47153441D03*
X12193732Y-47153441D03*
X12258732Y-47153441D03*
X12323732Y-47153441D03*
X12323732Y-47575941D03*
X12258732Y-47575941D03*
X12193732Y-47575941D03*
X12128732Y-47575941D03*
D18*
X11434982Y-12095941D03*
X11624982Y-12095941D03*
X11529982Y-12283441D03*
D17*
X12128732Y-22653441D03*
X12193732Y-22653441D03*
X12258732Y-22653441D03*
X12323732Y-22653441D03*
X12323732Y-23075941D03*
X12258732Y-23075941D03*
X12193732Y-23075941D03*
X12128732Y-23075941D03*
X12128732Y-12153441D03*
X12193732Y-12153441D03*
X12258732Y-12153441D03*
X12323732Y-12153441D03*
X12323732Y-12575941D03*
X12258732Y-12575941D03*
X12193732Y-12575941D03*
X12128732Y-12575941D03*
D16*
X14993732Y-12609691D03*
X15176232Y-12609691D03*
X30248732Y-12609691D03*
X30431232Y-12609691D03*
X11783732Y-19609691D03*
X11966232Y-19609691D03*
D15*
X31801232Y-11794691D03*
X31628732Y-11794691D03*
D16*
X11783732Y-33609691D03*
X11966232Y-33609691D03*
D18*
X11779982Y-36595941D03*
X11969982Y-36595941D03*
X11874982Y-36783441D03*
D16*
X10403732Y-39919691D03*
X10586232Y-39919691D03*
X10748732Y-44109691D03*
X10931232Y-44109691D03*
X18548732Y-11919691D03*
X18731232Y-11919691D03*
D15*
X12301232Y-32944691D03*
X12128732Y-32944691D03*
D16*
X31283732Y-12609691D03*
X31466232Y-12609691D03*
D18*
X18889982Y-12095941D03*
X19079982Y-12095941D03*
X18984982Y-12283441D03*
D16*
X10403732Y-43419691D03*
X10586232Y-43419691D03*
X18548732Y-12609691D03*
X18731232Y-12609691D03*
X41948732Y-11919691D03*
X42131232Y-11919691D03*
D18*
X10399982Y-47095941D03*
X10589982Y-47095941D03*
X10494982Y-47283441D03*
D16*
X10748732Y-30109691D03*
X10931232Y-30109691D03*
X38048732Y-11919691D03*
X38231232Y-11919691D03*
D18*
X10744982Y-12095941D03*
X10934982Y-12095941D03*
X10839982Y-12283441D03*
D15*
X12301232Y-15294691D03*
X12128732Y-15294691D03*
D18*
X11779982Y-33095941D03*
X11969982Y-33095941D03*
X11874982Y-33283441D03*
D15*
X12301232Y-32794691D03*
X12128732Y-32794691D03*
D18*
X18544982Y-12095941D03*
X18734982Y-12095941D03*
X18639982Y-12283441D03*
D16*
X11783732Y-23109691D03*
X11966232Y-23109691D03*
X41948732Y-12609691D03*
X42131232Y-12609691D03*
X10403732Y-25919691D03*
X10586232Y-25919691D03*
D15*
X12301232Y-29444691D03*
X12128732Y-29444691D03*
X12301232Y-43294691D03*
X12128732Y-43294691D03*
D16*
X34493732Y-11919691D03*
X34676232Y-11919691D03*
X11438732Y-22419691D03*
X11621232Y-22419691D03*
X11438732Y-44109691D03*
X11621232Y-44109691D03*
D17*
X12128732Y-43653441D03*
X12193732Y-43653441D03*
X12258732Y-43653441D03*
X12323732Y-43653441D03*
X12323732Y-44075941D03*
X12258732Y-44075941D03*
X12193732Y-44075941D03*
X12128732Y-44075941D03*
D18*
X30589982Y-12095941D03*
X30779982Y-12095941D03*
X30684982Y-12283441D03*
D16*
X10748732Y-29419691D03*
X10931232Y-29419691D03*
X27038732Y-12609691D03*
X27221232Y-12609691D03*
D15*
X12301232Y-29294691D03*
X12128732Y-29294691D03*
D16*
X19583732Y-11919691D03*
X19766232Y-11919691D03*
D18*
X29899982Y-12095941D03*
X30089982Y-12095941D03*
X29994982Y-12283441D03*
D16*
X10403732Y-15419691D03*
X10586232Y-15419691D03*
X11783732Y-29419691D03*
X11966232Y-29419691D03*
X26693732Y-12609691D03*
X26876232Y-12609691D03*
X42638732Y-11919691D03*
X42821232Y-11919691D03*
X41603732Y-11919691D03*
X41786232Y-11919691D03*
D18*
X10399982Y-15595941D03*
X10589982Y-15595941D03*
X10494982Y-15783441D03*
X10399982Y-19095941D03*
X10589982Y-19095941D03*
X10494982Y-19283441D03*
X11434982Y-26095941D03*
X11624982Y-26095941D03*
X11529982Y-26283441D03*
D16*
X11783732Y-30109691D03*
X11966232Y-30109691D03*
X34148732Y-12609691D03*
X34331232Y-12609691D03*
X10748732Y-16109691D03*
X10931232Y-16109691D03*
X10403732Y-16109691D03*
X10586232Y-16109691D03*
D15*
X20101232Y-11794691D03*
X19928732Y-11794691D03*
D18*
X22444982Y-12095941D03*
X22634982Y-12095941D03*
X22539982Y-12283441D03*
D16*
X22448732Y-11919691D03*
X22631232Y-11919691D03*
X11438732Y-40609691D03*
X11621232Y-40609691D03*
D18*
X10399982Y-36595941D03*
X10589982Y-36595941D03*
X10494982Y-36783441D03*
D16*
X33803732Y-12609691D03*
X33986232Y-12609691D03*
X18893732Y-11919691D03*
X19076232Y-11919691D03*
D17*
X12128732Y-19153441D03*
X12193732Y-19153441D03*
X12258732Y-19153441D03*
X12323732Y-19153441D03*
X12323732Y-19575941D03*
X12258732Y-19575941D03*
X12193732Y-19575941D03*
X12128732Y-19575941D03*
D16*
X11438732Y-33609691D03*
X11621232Y-33609691D03*
D18*
X11434982Y-36595941D03*
X11624982Y-36595941D03*
X11529982Y-36783441D03*
X10744982Y-47095941D03*
X10934982Y-47095941D03*
X10839982Y-47283441D03*
D16*
X18203732Y-11919691D03*
X18386232Y-11919691D03*
X34148732Y-11919691D03*
X34331232Y-11919691D03*
X15338732Y-12609691D03*
X15521232Y-12609691D03*
X11093732Y-29419691D03*
X11276232Y-29419691D03*
D18*
X25999982Y-12095941D03*
X26189982Y-12095941D03*
X26094982Y-12283441D03*
D15*
X12301232Y-36444691D03*
X12128732Y-36444691D03*
X12301232Y-43444691D03*
X12128732Y-43444691D03*
D16*
X11438732Y-26609691D03*
X11621232Y-26609691D03*
D18*
X10744982Y-40095941D03*
X10934982Y-40095941D03*
X10839982Y-40283441D03*
X14644982Y-12095941D03*
X14834982Y-12095941D03*
X14739982Y-12283441D03*
D16*
X11093732Y-40609691D03*
X11276232Y-40609691D03*
D18*
X10399982Y-43595941D03*
X10589982Y-43595941D03*
X10494982Y-43783441D03*
X15679982Y-12095941D03*
X15869982Y-12095941D03*
X15774982Y-12283441D03*
D16*
X23483732Y-11919691D03*
X23666232Y-11919691D03*
D15*
X43501232Y-11794691D03*
X43328732Y-11794691D03*
D18*
X42979982Y-12095941D03*
X43169982Y-12095941D03*
X43074982Y-12283441D03*
X11089982Y-22595941D03*
X11279982Y-22595941D03*
X11184982Y-22783441D03*
X11089982Y-12095941D03*
X11279982Y-12095941D03*
X11184982Y-12283441D03*
D15*
X27901232Y-11794691D03*
X27728732Y-11794691D03*
D16*
X26693732Y-11919691D03*
X26876232Y-11919691D03*
X11783732Y-36419691D03*
X11966232Y-36419691D03*
X42983732Y-12609691D03*
X43166232Y-12609691D03*
X10403732Y-46919691D03*
X10586232Y-46919691D03*
D18*
X11779982Y-40095941D03*
X11969982Y-40095941D03*
X11874982Y-40283441D03*
D16*
X11783732Y-12609691D03*
X11966232Y-12609691D03*
X11093732Y-15419691D03*
X11276232Y-15419691D03*
D18*
X10744982Y-33095941D03*
X10934982Y-33095941D03*
X10839982Y-33283441D03*
D17*
X35528732Y-12153441D03*
X35593732Y-12153441D03*
X35658732Y-12153441D03*
X35723732Y-12153441D03*
X35723732Y-12575941D03*
X35658732Y-12575941D03*
X35593732Y-12575941D03*
X35528732Y-12575941D03*
D16*
X30938732Y-12609691D03*
X31121232Y-12609691D03*
X11783732Y-46919691D03*
X11966232Y-46919691D03*
X11783732Y-18919691D03*
X11966232Y-18919691D03*
X10403732Y-44109691D03*
X10586232Y-44109691D03*
D18*
X11434982Y-19095941D03*
X11624982Y-19095941D03*
X11529982Y-19283441D03*
X11089982Y-19095941D03*
X11279982Y-19095941D03*
X11184982Y-19283441D03*
D16*
X11093732Y-47609691D03*
X11276232Y-47609691D03*
X10748732Y-40609691D03*
X10931232Y-40609691D03*
D18*
X22789982Y-12095941D03*
X22979982Y-12095941D03*
X22884982Y-12283441D03*
X19234982Y-12095941D03*
X19424982Y-12095941D03*
X19329982Y-12283441D03*
D16*
X26348732Y-11919691D03*
X26531232Y-11919691D03*
X11438732Y-11919691D03*
X11621232Y-11919691D03*
D15*
X12301232Y-39794691D03*
X12128732Y-39794691D03*
D16*
X11783732Y-26609691D03*
X11966232Y-26609691D03*
D15*
X12301232Y-22294691D03*
X12128732Y-22294691D03*
D17*
X39428732Y-12153441D03*
X39493732Y-12153441D03*
X39558732Y-12153441D03*
X39623732Y-12153441D03*
X39623732Y-12575941D03*
X39558732Y-12575941D03*
X39493732Y-12575941D03*
X39428732Y-12575941D03*
D18*
X41599982Y-12095941D03*
X41789982Y-12095941D03*
X41694982Y-12283441D03*
D17*
X16028732Y-12153441D03*
X16093732Y-12153441D03*
X16158732Y-12153441D03*
X16223732Y-12153441D03*
X16223732Y-12575941D03*
X16158732Y-12575941D03*
X16093732Y-12575941D03*
X16028732Y-12575941D03*
D16*
X39083732Y-11919691D03*
X39266232Y-11919691D03*
D18*
X11089982Y-40095941D03*
X11279982Y-40095941D03*
X11184982Y-40283441D03*
D16*
X11093732Y-25919691D03*
X11276232Y-25919691D03*
D17*
X12128732Y-33153441D03*
X12193732Y-33153441D03*
X12258732Y-33153441D03*
X12323732Y-33153441D03*
X12323732Y-33575941D03*
X12258732Y-33575941D03*
X12193732Y-33575941D03*
X12128732Y-33575941D03*
D16*
X42638732Y-12609691D03*
X42821232Y-12609691D03*
X18203732Y-12609691D03*
X18386232Y-12609691D03*
D15*
X20101232Y-11944691D03*
X19928732Y-11944691D03*
D16*
X10748732Y-37109691D03*
X10931232Y-37109691D03*
D18*
X11089982Y-43595941D03*
X11279982Y-43595941D03*
X11184982Y-43783441D03*
D16*
X38048732Y-12609691D03*
X38231232Y-12609691D03*
X22103732Y-12609691D03*
X22286232Y-12609691D03*
D15*
X12301232Y-18794691D03*
X12128732Y-18794691D03*
D16*
X11438732Y-15419691D03*
X11621232Y-15419691D03*
X38393732Y-12609691D03*
X38576232Y-12609691D03*
X22793732Y-11919691D03*
X22976232Y-11919691D03*
D18*
X10399982Y-26095941D03*
X10589982Y-26095941D03*
X10494982Y-26283441D03*
D17*
X12128732Y-36653441D03*
X12193732Y-36653441D03*
X12258732Y-36653441D03*
X12323732Y-36653441D03*
X12323732Y-37075941D03*
X12258732Y-37075941D03*
X12193732Y-37075941D03*
X12128732Y-37075941D03*
D16*
X11093732Y-23109691D03*
X11276232Y-23109691D03*
X11438732Y-18919691D03*
X11621232Y-18919691D03*
D18*
X38044982Y-12095941D03*
X38234982Y-12095941D03*
X38139982Y-12283441D03*
D15*
X24001232Y-11794691D03*
X23828732Y-11794691D03*
D16*
X27038732Y-11919691D03*
X27221232Y-11919691D03*
X26003732Y-11919691D03*
X26186232Y-11919691D03*
X23483732Y-12609691D03*
X23666232Y-12609691D03*
X11438732Y-37109691D03*
X11621232Y-37109691D03*
X10748732Y-18919691D03*
X10931232Y-18919691D03*
D18*
X11779982Y-12095941D03*
X11969982Y-12095941D03*
X11874982Y-12283441D03*
D16*
X11783732Y-44109691D03*
X11966232Y-44109691D03*
D17*
X23828732Y-12153441D03*
X23893732Y-12153441D03*
X23958732Y-12153441D03*
X24023732Y-12153441D03*
X24023732Y-12575941D03*
X23958732Y-12575941D03*
X23893732Y-12575941D03*
X23828732Y-12575941D03*
D16*
X34838732Y-11919691D03*
X35021232Y-11919691D03*
X11438732Y-16109691D03*
X11621232Y-16109691D03*
X10403732Y-36419691D03*
X10586232Y-36419691D03*
X10403732Y-47609691D03*
X10586232Y-47609691D03*
X11093732Y-37109691D03*
X11276232Y-37109691D03*
X11438732Y-43419691D03*
X11621232Y-43419691D03*
X10403732Y-11919691D03*
X10586232Y-11919691D03*
D18*
X42634982Y-12095941D03*
X42824982Y-12095941D03*
X42729982Y-12283441D03*
D16*
X10403732Y-40609691D03*
X10586232Y-40609691D03*
D15*
X24001232Y-11944691D03*
X23828732Y-11944691D03*
D16*
X23138732Y-12609691D03*
X23321232Y-12609691D03*
X11093732Y-32919691D03*
X11276232Y-32919691D03*
D17*
X27728732Y-12153441D03*
X27793732Y-12153441D03*
X27858732Y-12153441D03*
X27923732Y-12153441D03*
X27923732Y-12575941D03*
X27858732Y-12575941D03*
X27793732Y-12575941D03*
X27728732Y-12575941D03*
D18*
X14989982Y-12095941D03*
X15179982Y-12095941D03*
X15084982Y-12283441D03*
D16*
X10748732Y-46919691D03*
X10931232Y-46919691D03*
X11093732Y-39919691D03*
X11276232Y-39919691D03*
X31283732Y-11919691D03*
X31466232Y-11919691D03*
X27383732Y-12609691D03*
X27566232Y-12609691D03*
X22448732Y-12609691D03*
X22631232Y-12609691D03*
D18*
X37699982Y-12095941D03*
X37889982Y-12095941D03*
X37794982Y-12283441D03*
D15*
X12301232Y-15444691D03*
X12128732Y-15444691D03*
D16*
X11093732Y-19609691D03*
X11276232Y-19609691D03*
D18*
X10744982Y-15595941D03*
X10934982Y-15595941D03*
X10839982Y-15783441D03*
D16*
X14303732Y-11919691D03*
X14486232Y-11919691D03*
X38393732Y-11919691D03*
X38576232Y-11919691D03*
X11093732Y-18919691D03*
X11276232Y-18919691D03*
D18*
X30244982Y-12095941D03*
X30434982Y-12095941D03*
X30339982Y-12283441D03*
D16*
X11093732Y-22419691D03*
X11276232Y-22419691D03*
X11438732Y-25919691D03*
X11621232Y-25919691D03*
X10748732Y-39919691D03*
X10931232Y-39919691D03*
D15*
X16201232Y-11794691D03*
X16028732Y-11794691D03*
D16*
X10748732Y-11919691D03*
X10931232Y-11919691D03*
X26003732Y-12609691D03*
X26186232Y-12609691D03*
X38738732Y-11919691D03*
X38921232Y-11919691D03*
X11438732Y-12609691D03*
X11621232Y-12609691D03*
D15*
X12301232Y-22444691D03*
X12128732Y-22444691D03*
X12301232Y-46794691D03*
X12128732Y-46794691D03*
D18*
X34489982Y-12095941D03*
X34679982Y-12095941D03*
X34584982Y-12283441D03*
D15*
X12301232Y-39944691D03*
X12128732Y-39944691D03*
D16*
X30593732Y-11919691D03*
X30776232Y-11919691D03*
X11438732Y-19609691D03*
X11621232Y-19609691D03*
D18*
X26689982Y-12095941D03*
X26879982Y-12095941D03*
X26784982Y-12283441D03*
X11779982Y-15595941D03*
X11969982Y-15595941D03*
X11874982Y-15783441D03*
X23479982Y-12095941D03*
X23669982Y-12095941D03*
X23574982Y-12283441D03*
D16*
X10403732Y-19609691D03*
X10586232Y-19609691D03*
X30938732Y-11919691D03*
X31121232Y-11919691D03*
X11783732Y-39919691D03*
X11966232Y-39919691D03*
X33803732Y-11919691D03*
X33986232Y-11919691D03*
X35183732Y-11919691D03*
X35366232Y-11919691D03*
D15*
X12301232Y-11794691D03*
X12128732Y-11794691D03*
D16*
X10748732Y-23109691D03*
X10931232Y-23109691D03*
X38738732Y-12609691D03*
X38921232Y-12609691D03*
D18*
X34834982Y-12095941D03*
X35024982Y-12095941D03*
X34929982Y-12283441D03*
X10399982Y-40095941D03*
X10589982Y-40095941D03*
X10494982Y-40283441D03*
X11434982Y-33095941D03*
X11624982Y-33095941D03*
X11529982Y-33283441D03*
X26344982Y-12095941D03*
X26534982Y-12095941D03*
X26439982Y-12283441D03*
X11434982Y-29595941D03*
X11624982Y-29595941D03*
X11529982Y-29783441D03*
X39079982Y-12095941D03*
X39269982Y-12095941D03*
X39174982Y-12283441D03*
D16*
X11783732Y-43419691D03*
X11966232Y-43419691D03*
D18*
X11089982Y-29595941D03*
X11279982Y-29595941D03*
X11184982Y-29783441D03*
D16*
X19238732Y-11919691D03*
X19421232Y-11919691D03*
X23138732Y-11919691D03*
X23321232Y-11919691D03*
D18*
X38389982Y-12095941D03*
X38579982Y-12095941D03*
X38484982Y-12283441D03*
D15*
X27901232Y-11944691D03*
X27728732Y-11944691D03*
D16*
X10748732Y-26609691D03*
X10931232Y-26609691D03*
X11783732Y-11919691D03*
X11966232Y-11919691D03*
X10403732Y-29419691D03*
X10586232Y-29419691D03*
X11783732Y-47609691D03*
X11966232Y-47609691D03*
X11783732Y-40609691D03*
X11966232Y-40609691D03*
X11438732Y-47609691D03*
X11621232Y-47609691D03*
D17*
X19928732Y-12153441D03*
X19993732Y-12153441D03*
X20058732Y-12153441D03*
X20123732Y-12153441D03*
X20123732Y-12575941D03*
X20058732Y-12575941D03*
X19993732Y-12575941D03*
X19928732Y-12575941D03*
D16*
X11093732Y-11919691D03*
X11276232Y-11919691D03*
D18*
X10399982Y-22595941D03*
X10589982Y-22595941D03*
X10494982Y-22783441D03*
D15*
X12301232Y-11944691D03*
X12128732Y-11944691D03*
D18*
X10744982Y-22595941D03*
X10934982Y-22595941D03*
X10839982Y-22783441D03*
D16*
X30248732Y-11919691D03*
X30431232Y-11919691D03*
D15*
X35701232Y-11944691D03*
X35528732Y-11944691D03*
D16*
X11783732Y-16109691D03*
X11966232Y-16109691D03*
D18*
X27034982Y-12095941D03*
X27224982Y-12095941D03*
X27129982Y-12283441D03*
D16*
X34493732Y-12609691D03*
X34676232Y-12609691D03*
X42293732Y-12609691D03*
X42476232Y-12609691D03*
X41603732Y-12609691D03*
X41786232Y-12609691D03*
X10748732Y-19609691D03*
X10931232Y-19609691D03*
D18*
X11779982Y-22595941D03*
X11969982Y-22595941D03*
X11874982Y-22783441D03*
X30934982Y-12095941D03*
X31124982Y-12095941D03*
X31029982Y-12283441D03*
D16*
X11093732Y-33609691D03*
X11276232Y-33609691D03*
X15338732Y-11919691D03*
X15521232Y-11919691D03*
D18*
X38734982Y-12095941D03*
X38924982Y-12095941D03*
X38829982Y-12283441D03*
D15*
X31801232Y-11944691D03*
X31628732Y-11944691D03*
D16*
X14303732Y-12609691D03*
X14486232Y-12609691D03*
X11093732Y-26609691D03*
X11276232Y-26609691D03*
D18*
X11089982Y-26095941D03*
X11279982Y-26095941D03*
X11184982Y-26283441D03*
D16*
X26348732Y-12609691D03*
X26531232Y-12609691D03*
D18*
X18199982Y-12095941D03*
X18389982Y-12095941D03*
X18294982Y-12283441D03*
D16*
X10403732Y-32919691D03*
X10586232Y-32919691D03*
X10748732Y-22419691D03*
X10931232Y-22419691D03*
X37703732Y-11919691D03*
X37886232Y-11919691D03*
X11783732Y-15419691D03*
X11966232Y-15419691D03*
X11093732Y-30109691D03*
X11276232Y-30109691D03*
X11783732Y-22419691D03*
X11966232Y-22419691D03*
D18*
X11779982Y-26095941D03*
X11969982Y-26095941D03*
X11874982Y-26283441D03*
D16*
X15683732Y-12609691D03*
X15866232Y-12609691D03*
X18893732Y-12609691D03*
X19076232Y-12609691D03*
X10748732Y-25919691D03*
X10931232Y-25919691D03*
D18*
X10744982Y-26095941D03*
X10934982Y-26095941D03*
X10839982Y-26283441D03*
D16*
X11438732Y-46919691D03*
X11621232Y-46919691D03*
X14648732Y-11919691D03*
X14831232Y-11919691D03*
D18*
X11434982Y-47095941D03*
X11624982Y-47095941D03*
X11529982Y-47283441D03*
X11089982Y-15595941D03*
X11279982Y-15595941D03*
X11184982Y-15783441D03*
D16*
X14993732Y-11919691D03*
X15176232Y-11919691D03*
D18*
X15334982Y-12095941D03*
X15524982Y-12095941D03*
X15429982Y-12283441D03*
D16*
X10403732Y-26609691D03*
X10586232Y-26609691D03*
X27383732Y-11919691D03*
X27566232Y-11919691D03*
D18*
X11779982Y-29595941D03*
X11969982Y-29595941D03*
X11874982Y-29783441D03*
D15*
X35701232Y-11794691D03*
X35528732Y-11794691D03*
X43501232Y-11944691D03*
X43328732Y-11944691D03*
D17*
X31628732Y-12153441D03*
X31693732Y-12153441D03*
X31758732Y-12153441D03*
X31823732Y-12153441D03*
X31823732Y-12575941D03*
X31758732Y-12575941D03*
X31693732Y-12575941D03*
X31628732Y-12575941D03*
D16*
X11093732Y-44109691D03*
X11276232Y-44109691D03*
D18*
X11434982Y-40095941D03*
X11624982Y-40095941D03*
X11529982Y-40283441D03*
D16*
X22793732Y-12609691D03*
X22976232Y-12609691D03*
X11093732Y-36419691D03*
X11276232Y-36419691D03*
X35183732Y-12609691D03*
X35366232Y-12609691D03*
D17*
X12128732Y-40153441D03*
X12193732Y-40153441D03*
X12258732Y-40153441D03*
X12323732Y-40153441D03*
X12323732Y-40575941D03*
X12258732Y-40575941D03*
X12193732Y-40575941D03*
X12128732Y-40575941D03*
D16*
X29903732Y-12609691D03*
X30086232Y-12609691D03*
X10748732Y-15419691D03*
X10931232Y-15419691D03*
X10748732Y-12609691D03*
X10931232Y-12609691D03*
X39083732Y-12609691D03*
X39266232Y-12609691D03*
D18*
X11434982Y-15595941D03*
X11624982Y-15595941D03*
X11529982Y-15783441D03*
D16*
X11438732Y-36419691D03*
X11621232Y-36419691D03*
X10748732Y-36419691D03*
X10931232Y-36419691D03*
X11093732Y-12609691D03*
X11276232Y-12609691D03*
D18*
X11779982Y-43595941D03*
X11969982Y-43595941D03*
X11874982Y-43783441D03*
D16*
X34838732Y-12609691D03*
X35021232Y-12609691D03*
D18*
X23134982Y-12095941D03*
X23324982Y-12095941D03*
X23229982Y-12283441D03*
D15*
X16201232Y-11944691D03*
X16028732Y-11944691D03*
D16*
X11093732Y-43419691D03*
X11276232Y-43419691D03*
D18*
X10399982Y-29595941D03*
X10589982Y-29595941D03*
X10494982Y-29783441D03*
D16*
X10403732Y-37109691D03*
X10586232Y-37109691D03*
X10403732Y-30109691D03*
X10586232Y-30109691D03*
D18*
X10744982Y-36595941D03*
X10934982Y-36595941D03*
X10839982Y-36783441D03*
M02*
