%TF.GenerationSoftware,KiCad,Pcbnew,7.0.6-7.0.6~ubuntu20.04.1*%
%TF.CreationDate,2023-07-11T10:17:37+02:00*%
%TF.ProjectId,output_panel2023-07-11_081728.4517270000,6f757470-7574-45f7-9061-6e656c323032,rev?*%
%TF.SameCoordinates,Original*%
%TF.FileFunction,Legend,Bot*%
%TF.FilePolarity,Positive*%
%FSLAX45Y45*%
G04 Gerber Fmt 4.5, Leading zero omitted, Abs format (unit mm)*
G04 Created by KiCad (PCBNEW 7.0.6-7.0.6~ubuntu20.04.1) date 2023-07-11 10:17:37*
%MOMM*%
%LPD*%
G01*
G04 APERTURE LIST*
G04 Aperture macros list*
%AMRoundRect*
0 Rectangle with rounded corners*
0 $1 Rounding radius*
0 $2 $3 $4 $5 $6 $7 $8 $9 X,Y pos of 4 corners*
0 Add a 4 corners polygon primitive as box body*
4,1,4,$2,$3,$4,$5,$6,$7,$8,$9,$2,$3,0*
0 Add four circle primitives for the rounded corners*
1,1,$1+$1,$2,$3*
1,1,$1+$1,$4,$5*
1,1,$1+$1,$6,$7*
1,1,$1+$1,$8,$9*
0 Add four rect primitives between the rounded corners*
20,1,$1+$1,$2,$3,$4,$5,0*
20,1,$1+$1,$4,$5,$6,$7,0*
20,1,$1+$1,$6,$7,$8,$9,0*
20,1,$1+$1,$8,$9,$2,$3,0*%
G04 Aperture macros list end*
%TA.AperFunction,Profile*%
%ADD10C,0.100000*%
%TD*%
%ADD11C,0.150000*%
%ADD12C,0.120000*%
%ADD13C,5.600000*%
%ADD14RoundRect,0.250000X0.600000X0.725000X-0.600000X0.725000X-0.600000X-0.725000X0.600000X-0.725000X0*%
%ADD15O,1.700000X1.950000*%
%ADD16R,1.700000X1.700000*%
%ADD17O,1.700000X1.700000*%
%ADD18RoundRect,0.250000X-0.750000X0.600000X-0.750000X-0.600000X0.750000X-0.600000X0.750000X0.600000X0*%
%ADD19O,2.000000X1.700000*%
%ADD20RoundRect,0.237500X-0.237500X0.300000X-0.237500X-0.300000X0.237500X-0.300000X0.237500X0.300000X0*%
G04 APERTURE END LIST*
D10*
X1850000Y-6070000D02*
X50000Y-4670000D01*
X14250000Y-6070000D02*
X1850000Y-6070000D01*
X16050000Y-4670000D02*
X14250000Y-6070000D01*
X14270000Y-90000D02*
X16070000Y-1480000D01*
X16070000Y-1480000D02*
X16050000Y-4670000D01*
X50000Y-4670000D02*
X50000Y-1450000D01*
X50000Y-1450000D02*
X1850000Y-50000D01*
X1850000Y-50000D02*
X14270000Y-90000D01*
D11*
X11280482Y-5001666D02*
X11351910Y-5001666D01*
X11351910Y-5001666D02*
X11366196Y-4996904D01*
X11366196Y-4996904D02*
X11375720Y-4987381D01*
X11375720Y-4987381D02*
X11380482Y-4973095D01*
X11380482Y-4973095D02*
X11380482Y-4963571D01*
X11380482Y-5101666D02*
X11380482Y-5044524D01*
X11380482Y-5073095D02*
X11280482Y-5073095D01*
X11280482Y-5073095D02*
X11294768Y-5063571D01*
X11294768Y-5063571D02*
X11304291Y-5054047D01*
X11304291Y-5054047D02*
X11309053Y-5044524D01*
X7782958Y-239583D02*
X7787720Y-234821D01*
X7787720Y-234821D02*
X7792482Y-220535D01*
X7792482Y-220535D02*
X7792482Y-211012D01*
X7792482Y-211012D02*
X7787720Y-196726D01*
X7787720Y-196726D02*
X7778196Y-187202D01*
X7778196Y-187202D02*
X7768672Y-182440D01*
X7768672Y-182440D02*
X7749625Y-177678D01*
X7749625Y-177678D02*
X7735339Y-177678D01*
X7735339Y-177678D02*
X7716291Y-182440D01*
X7716291Y-182440D02*
X7706768Y-187202D01*
X7706768Y-187202D02*
X7697244Y-196726D01*
X7697244Y-196726D02*
X7692482Y-211012D01*
X7692482Y-211012D02*
X7692482Y-220535D01*
X7692482Y-220535D02*
X7697244Y-234821D01*
X7697244Y-234821D02*
X7702006Y-239583D01*
X7792482Y-334821D02*
X7792482Y-277678D01*
X7792482Y-306250D02*
X7692482Y-306250D01*
X7692482Y-306250D02*
X7706768Y-296726D01*
X7706768Y-296726D02*
X7716291Y-287202D01*
X7716291Y-287202D02*
X7721053Y-277678D01*
D12*
X11415000Y-4625000D02*
X11540000Y-4625000D01*
X12041000Y-4654000D02*
X12041000Y-5416000D01*
X11444000Y-4654000D02*
X12041000Y-4654000D01*
X11670000Y-4655000D02*
X11670000Y-4730000D01*
X11520000Y-4655000D02*
X11520000Y-4835000D01*
X11445000Y-4655000D02*
X11520000Y-4655000D01*
X11965000Y-4730000D02*
X11965000Y-5035000D01*
X11670000Y-4730000D02*
X11965000Y-4730000D01*
X11415000Y-4750000D02*
X11415000Y-4625000D01*
X11520000Y-4835000D02*
X11445000Y-4835000D01*
X11445000Y-4835000D02*
X11445000Y-4655000D01*
X11520000Y-4985000D02*
X11520000Y-5085000D01*
X11445000Y-4985000D02*
X11520000Y-4985000D01*
X11520000Y-5085000D02*
X11445000Y-5085000D01*
X11445000Y-5085000D02*
X11445000Y-4985000D01*
X11520000Y-5235000D02*
X11520000Y-5415000D01*
X11445000Y-5235000D02*
X11520000Y-5235000D01*
X11965000Y-5340000D02*
X11965000Y-5035000D01*
X11670000Y-5340000D02*
X11965000Y-5340000D01*
X11670000Y-5415000D02*
X11670000Y-5340000D01*
X11520000Y-5415000D02*
X11445000Y-5415000D01*
X11445000Y-5415000D02*
X11445000Y-5235000D01*
X12041000Y-5416000D02*
X11444000Y-5416000D01*
X11444000Y-5416000D02*
X11444000Y-4654000D01*
X7941000Y-241623D02*
X7941000Y-270876D01*
X7839000Y-241623D02*
X7839000Y-270876D01*
%LPC*%
D13*
X14350000Y-4970000D03*
X15350000Y-2770000D03*
X1850000Y-4970000D03*
D14*
X12740400Y-496200D03*
D15*
X12490400Y-496200D03*
X12240400Y-496200D03*
D16*
X8270000Y-276000D03*
D17*
X8524000Y-276000D03*
X8270000Y-530000D03*
X8524000Y-530000D03*
X8270000Y-784000D03*
X8524000Y-784000D03*
X8270000Y-1038000D03*
X8524000Y-1038000D03*
D13*
X1850000Y-770000D03*
X850000Y-2770000D03*
D14*
X3825000Y-472500D03*
D15*
X3575000Y-472500D03*
X3325000Y-472500D03*
D13*
X14350000Y-770000D03*
D18*
X11690000Y-4910000D03*
D19*
X11690000Y-5160000D03*
D20*
X7890000Y-170000D03*
X7890000Y-342500D03*
%LPD*%
M02*
