%TF.GenerationSoftware,KiCad,Pcbnew,7.0.6-7.0.6~ubuntu20.04.1*%
%TF.CreationDate,2023-07-11T09:00:34+02:00*%
%TF.ProjectId,output_panel2023-07-11_070008.8206480000,6f757470-7574-45f7-9061-6e656c323032,rev?*%
%TF.SameCoordinates,Original*%
%TF.FileFunction,Profile,NP*%
%FSLAX45Y45*%
G04 Gerber Fmt 4.5, Leading zero omitted, Abs format (unit mm)*
G04 Created by KiCad (PCBNEW 7.0.6-7.0.6~ubuntu20.04.1) date 2023-07-11 09:00:34*
%MOMM*%
%LPD*%
G01*
G04 APERTURE LIST*
%TA.AperFunction,Profile*%
%ADD10C,0.100000*%
%TD*%
%TA.AperFunction,Profile*%
%ADD11C,0.050000*%
%TD*%
G04 APERTURE END LIST*
D10*
X36799979Y-12699691D02*
G75*
G03*
X37199982Y-13099691I400001J1D01*
G01*
X32799979Y-10099691D02*
G75*
G03*
X32399982Y-9699691I-399999J1D01*
G01*
D11*
X9149999Y-9599997D02*
X8249999Y-9499997D01*
D10*
X25099979Y-12699691D02*
G75*
G03*
X25499982Y-13099691I400001J1D01*
G01*
X41099982Y-9699692D02*
G75*
G03*
X40699982Y-10099691I-2J-399998D01*
G01*
X9899982Y-44699692D02*
G75*
G03*
X9499982Y-45099691I-2J-399998D01*
G01*
X41099982Y-9699691D02*
X44099982Y-9699691D01*
X13299979Y-10099691D02*
G75*
G03*
X12899982Y-9699691I-399999J1D01*
G01*
D11*
X17699981Y-9499997D02*
X17949981Y-999997D01*
X849999Y-20199380D02*
X499999Y-27999380D01*
D10*
X9899982Y-34199692D02*
G75*
G03*
X9499982Y-34599691I-2J-399998D01*
G01*
D11*
X49999Y-8899997D02*
X99999Y-49997D01*
D10*
X32799982Y-10099691D02*
X32799982Y-12699691D01*
X33299982Y-9699692D02*
G75*
G03*
X32899982Y-10099691I-2J-399998D01*
G01*
D11*
X8499999Y-39598762D02*
X849999Y-39498762D01*
D10*
X21199979Y-12699691D02*
G75*
G03*
X21599982Y-13099691I400001J1D01*
G01*
X9899982Y-13199692D02*
G75*
G03*
X9499982Y-13599691I-2J-399998D01*
G01*
X21599982Y-9699691D02*
X24599982Y-9699691D01*
X37199982Y-9699692D02*
G75*
G03*
X36799982Y-10099691I-2J-399998D01*
G01*
D11*
X19749963Y-899997D02*
X19399963Y-8699997D01*
D10*
X13299982Y-31099691D02*
X13299982Y-33699691D01*
X9899982Y-16699692D02*
G75*
G03*
X9499982Y-17099691I-2J-399998D01*
G01*
X9499982Y-26699691D02*
X9499982Y-24099691D01*
X13299982Y-34599691D02*
X13299982Y-37199691D01*
D11*
X8499999Y-10649688D02*
X849999Y-10549688D01*
X37849926Y-8899997D02*
X37899926Y-49997D01*
X49999Y-47498762D02*
X99999Y-38648762D01*
X27149963Y-9499997D02*
X27399963Y-999997D01*
X18949963Y-8899997D02*
X18999963Y-49997D01*
D10*
X9899982Y-9699692D02*
G75*
G03*
X9499982Y-10099691I-2J-399998D01*
G01*
X28899979Y-10099691D02*
G75*
G03*
X28499982Y-9699691I-399999J1D01*
G01*
X9499979Y-23199691D02*
G75*
G03*
X9899982Y-23599691I400001J1D01*
G01*
D11*
X18849981Y-149997D02*
X18599981Y-9599997D01*
D10*
X17199982Y-10099691D02*
X17199982Y-12699691D01*
D11*
X8249999Y-19149688D02*
X8499999Y-10649688D01*
X9949981Y-8699997D02*
X9499981Y-8899997D01*
X9149999Y-48198762D02*
X8249999Y-48098762D01*
D10*
X17299982Y-12699691D02*
X17299982Y-10099691D01*
X13299982Y-24099691D02*
X13299982Y-26699691D01*
D11*
X47199926Y-149997D02*
X46949926Y-9599997D01*
X9399999Y-149997D02*
X9149999Y-9599997D01*
D10*
X20699982Y-13099691D02*
X17699982Y-13099691D01*
X28499982Y-13099692D02*
G75*
G03*
X28899982Y-12699691I-2J400002D01*
G01*
X12899982Y-16599692D02*
G75*
G03*
X13299982Y-16199691I-2J400002D01*
G01*
X13399979Y-12699691D02*
G75*
G03*
X13799982Y-13099691I400001J1D01*
G01*
X9899982Y-34199691D02*
X12899982Y-34199691D01*
D11*
X8499999Y-20299380D02*
X849999Y-20199380D01*
D10*
X32399982Y-13099691D02*
X29399982Y-13099691D01*
X21599982Y-9699692D02*
G75*
G03*
X21199982Y-10099691I-2J-399998D01*
G01*
D11*
X849999Y-29849071D02*
X499999Y-37649071D01*
D10*
X40699979Y-12699691D02*
G75*
G03*
X41099982Y-13099691I400001J1D01*
G01*
X13299979Y-31099691D02*
G75*
G03*
X12899982Y-30699691I-399999J1D01*
G01*
D11*
X499999Y-8699997D02*
X49999Y-8899997D01*
X49999Y-28199380D02*
X99999Y-19349380D01*
D10*
X25499982Y-9699692D02*
G75*
G03*
X25099982Y-10099691I-2J-399998D01*
G01*
X9499979Y-26699691D02*
G75*
G03*
X9899982Y-27099691I400001J1D01*
G01*
D11*
X499999Y-47298762D02*
X49999Y-47498762D01*
X28849944Y-8699997D02*
X28399944Y-8899997D01*
D10*
X12899982Y-13099692D02*
G75*
G03*
X13299982Y-12699691I-2J400002D01*
G01*
X33299982Y-9699691D02*
X36299982Y-9699691D01*
X16799982Y-13099691D02*
X13799982Y-13099691D01*
X12899982Y-30599692D02*
G75*
G03*
X13299982Y-30199691I-2J400002D01*
G01*
X16799982Y-13099692D02*
G75*
G03*
X17199982Y-12699691I-2J400002D01*
G01*
X12899982Y-27099691D02*
X9899982Y-27099691D01*
X24999979Y-10099691D02*
G75*
G03*
X24599982Y-9699691I-399999J1D01*
G01*
D11*
X499999Y-27999380D02*
X49999Y-28199380D01*
D10*
X12899982Y-23599692D02*
G75*
G03*
X13299982Y-23199691I-2J400002D01*
G01*
D11*
X99999Y-9699688D02*
X9399999Y-9799688D01*
X8499999Y-999997D02*
X849999Y-899997D01*
D10*
X9899982Y-30699692D02*
G75*
G03*
X9499982Y-31099691I-2J-399998D01*
G01*
X9499979Y-30199691D02*
G75*
G03*
X9899982Y-30599691I400001J1D01*
G01*
X9499982Y-47699691D02*
X9499982Y-45099691D01*
D11*
X28049963Y-9599997D02*
X27149963Y-9499997D01*
X9499981Y-8899997D02*
X9549981Y-49997D01*
D10*
X13299979Y-27599691D02*
G75*
G03*
X12899982Y-27199691I-399999J1D01*
G01*
X36699982Y-10099691D02*
X36699982Y-12699691D01*
X9899982Y-23699691D02*
X12899982Y-23699691D01*
X9899982Y-16699691D02*
X12899982Y-16699691D01*
D11*
X849999Y-39498762D02*
X499999Y-47298762D01*
D10*
X13299982Y-41599691D02*
X13299982Y-44199691D01*
X9499979Y-40699691D02*
G75*
G03*
X9899982Y-41099691I400001J1D01*
G01*
X28999982Y-12699691D02*
X28999982Y-10099691D01*
D11*
X29199944Y-899997D02*
X28849944Y-8699997D01*
X8249999Y-28799380D02*
X8499999Y-20299380D01*
D10*
X13299982Y-27599691D02*
X13299982Y-30199691D01*
X44099982Y-13099692D02*
G75*
G03*
X44499982Y-12699691I-2J400002D01*
G01*
D11*
X9399999Y-19449380D02*
X9149999Y-28899380D01*
X9399999Y-9799688D02*
X9149999Y-19249688D01*
D10*
X17199979Y-10099691D02*
G75*
G03*
X16799982Y-9699691I-399999J1D01*
G01*
X9499982Y-16199691D02*
X9499982Y-13599691D01*
X24999982Y-10099691D02*
X24999982Y-12699691D01*
X9499979Y-19699691D02*
G75*
G03*
X9899982Y-20099691I400001J1D01*
G01*
X9499979Y-33699691D02*
G75*
G03*
X9899982Y-34099691I400001J1D01*
G01*
X12899982Y-41099692D02*
G75*
G03*
X13299982Y-40699691I-2J400002D01*
G01*
X37199982Y-9699691D02*
X40199982Y-9699691D01*
D11*
X19399963Y-8699997D02*
X18949963Y-8899997D01*
D10*
X13299979Y-45099691D02*
G75*
G03*
X12899982Y-44699691I-399999J1D01*
G01*
X13299982Y-20599691D02*
X13299982Y-23199691D01*
D11*
X8249999Y-9499997D02*
X8499999Y-999997D01*
D10*
X9499982Y-40699691D02*
X9499982Y-38099691D01*
X9499982Y-44199691D02*
X9499982Y-41599691D01*
X13299979Y-17099691D02*
G75*
G03*
X12899982Y-16699691I-399999J1D01*
G01*
D11*
X99999Y-38648762D02*
X9399999Y-38748762D01*
D10*
X13299982Y-17099691D02*
X13299982Y-19699691D01*
X40199982Y-13099692D02*
G75*
G03*
X40599982Y-12699691I-2J400002D01*
G01*
X13299979Y-38099691D02*
G75*
G03*
X12899982Y-37699691I-399999J1D01*
G01*
X13299979Y-41599691D02*
G75*
G03*
X12899982Y-41199691I-399999J1D01*
G01*
X44099982Y-13099691D02*
X41099982Y-13099691D01*
X40699982Y-12699691D02*
X40699982Y-10099691D01*
X24599982Y-13099692D02*
G75*
G03*
X24999982Y-12699691I-2J400002D01*
G01*
D11*
X28299963Y-149997D02*
X28049963Y-9599997D01*
X49999Y-18549688D02*
X99999Y-9699688D01*
X9399999Y-29099071D02*
X9149999Y-38549071D01*
D10*
X36699979Y-10099691D02*
G75*
G03*
X36299982Y-9699691I-399999J1D01*
G01*
D11*
X849999Y-899997D02*
X499999Y-8699997D01*
D10*
X13299982Y-45099691D02*
X13299982Y-47699691D01*
X12899982Y-48099692D02*
G75*
G03*
X13299982Y-47699691I-2J400002D01*
G01*
X9499979Y-44199691D02*
G75*
G03*
X9899982Y-44599691I400001J1D01*
G01*
X28899982Y-10099691D02*
X28899982Y-12699691D01*
X13299982Y-38099691D02*
X13299982Y-40699691D01*
D11*
X28399944Y-8899997D02*
X28449944Y-49997D01*
D10*
X9899982Y-44699691D02*
X12899982Y-44699691D01*
D11*
X36849944Y-999997D02*
X29199944Y-899997D01*
D10*
X44499979Y-10099691D02*
G75*
G03*
X44099982Y-9699691I-399999J1D01*
G01*
X21099982Y-10099691D02*
X21099982Y-12699691D01*
D11*
X18599981Y-9599997D02*
X17699981Y-9499997D01*
D10*
X9499982Y-37199691D02*
X9499982Y-34599691D01*
X25499982Y-9699691D02*
X28499982Y-9699691D01*
X9899982Y-20199691D02*
X12899982Y-20199691D01*
X9499979Y-37199691D02*
G75*
G03*
X9899982Y-37599691I400001J1D01*
G01*
D11*
X46049926Y-9499997D02*
X46299926Y-999997D01*
X37499944Y-9599997D02*
X36599944Y-9499997D01*
D10*
X9899982Y-37699691D02*
X12899982Y-37699691D01*
X13299979Y-34599691D02*
G75*
G03*
X12899982Y-34199691I-399999J1D01*
G01*
X29399982Y-9699692D02*
G75*
G03*
X28999982Y-10099691I-2J-399998D01*
G01*
X28499982Y-13099691D02*
X25499982Y-13099691D01*
X20699982Y-13099692D02*
G75*
G03*
X21099982Y-12699691I-2J400002D01*
G01*
X12899982Y-37599691D02*
X9899982Y-37599691D01*
X12899982Y-16599691D02*
X9899982Y-16599691D01*
X13399982Y-12699691D02*
X13399982Y-10099691D01*
D11*
X18999963Y-49997D02*
X28299963Y-149997D01*
X8499999Y-29949071D02*
X849999Y-29849071D01*
D10*
X9499979Y-47699691D02*
G75*
G03*
X9899982Y-48099691I400001J1D01*
G01*
X9499979Y-16199691D02*
G75*
G03*
X9899982Y-16599691I400001J1D01*
G01*
D11*
X499999Y-37649071D02*
X49999Y-37849071D01*
D10*
X32899982Y-12699691D02*
X32899982Y-10099691D01*
D11*
X28449944Y-49997D02*
X37749944Y-149997D01*
X8249999Y-38449071D02*
X8499999Y-29949071D01*
D10*
X9499979Y-12699691D02*
G75*
G03*
X9899982Y-13099691I400001J1D01*
G01*
D11*
X9149999Y-19249688D02*
X8249999Y-19149688D01*
D10*
X9899982Y-41199692D02*
G75*
G03*
X9499982Y-41599691I-2J-399998D01*
G01*
X13299982Y-10099691D02*
X13299982Y-12699691D01*
X24599982Y-13099691D02*
X21599982Y-13099691D01*
D11*
X9399999Y-38748762D02*
X9149999Y-48198762D01*
X37749944Y-149997D02*
X37499944Y-9599997D01*
D10*
X9499982Y-23199691D02*
X9499982Y-20599691D01*
D11*
X46299926Y-999997D02*
X38649926Y-899997D01*
X38299926Y-8699997D02*
X37849926Y-8899997D01*
D10*
X9499982Y-19699691D02*
X9499982Y-17099691D01*
X12899982Y-41099691D02*
X9899982Y-41099691D01*
X9499982Y-30199691D02*
X9499982Y-27599691D01*
D11*
X99999Y-19349380D02*
X9399999Y-19449380D01*
D10*
X13299979Y-24099691D02*
G75*
G03*
X12899982Y-23699691I-399999J1D01*
G01*
D11*
X499999Y-18349688D02*
X49999Y-18549688D01*
X849999Y-10549688D02*
X499999Y-18349688D01*
D10*
X9899982Y-20199692D02*
G75*
G03*
X9499982Y-20599691I-2J-399998D01*
G01*
X36299982Y-13099691D02*
X33299982Y-13099691D01*
X40599982Y-10099691D02*
X40599982Y-12699691D01*
D11*
X10299981Y-899997D02*
X9949981Y-8699997D01*
D10*
X28999979Y-12699691D02*
G75*
G03*
X29399982Y-13099691I400001J1D01*
G01*
X9899982Y-9699691D02*
X12899982Y-9699691D01*
X17699982Y-9699691D02*
X20699982Y-9699691D01*
X17699982Y-9699692D02*
G75*
G03*
X17299982Y-10099691I-2J-399998D01*
G01*
X13799982Y-9699691D02*
X16799982Y-9699691D01*
X12899982Y-44599691D02*
X9899982Y-44599691D01*
D11*
X9149999Y-38549071D02*
X8249999Y-38449071D01*
D10*
X12899982Y-27099692D02*
G75*
G03*
X13299982Y-26699691I-2J400002D01*
G01*
X13299979Y-13599691D02*
G75*
G03*
X12899982Y-13199691I-399999J1D01*
G01*
D11*
X49999Y-37849071D02*
X99999Y-28999071D01*
X27399963Y-999997D02*
X19749963Y-899997D01*
D10*
X9899982Y-41199691D02*
X12899982Y-41199691D01*
X12899982Y-34099692D02*
G75*
G03*
X13299982Y-33699691I-2J400002D01*
G01*
D11*
X99999Y-49997D02*
X9399999Y-149997D01*
D10*
X9899982Y-27199692D02*
G75*
G03*
X9499982Y-27599691I-2J-399998D01*
G01*
X12899982Y-23599691D02*
X9899982Y-23599691D01*
X40599979Y-10099691D02*
G75*
G03*
X40199982Y-9699691I-399999J1D01*
G01*
D11*
X17949981Y-999997D02*
X10299981Y-899997D01*
D10*
X9899982Y-13199691D02*
X12899982Y-13199691D01*
X9899982Y-30699691D02*
X12899982Y-30699691D01*
X12899982Y-30599691D02*
X9899982Y-30599691D01*
D11*
X99999Y-28999071D02*
X9399999Y-29099071D01*
D10*
X12899982Y-13099691D02*
X9899982Y-13099691D01*
D11*
X9149999Y-28899380D02*
X8249999Y-28799380D01*
X38649926Y-899997D02*
X38299926Y-8699997D01*
D10*
X9899982Y-23699692D02*
G75*
G03*
X9499982Y-24099691I-2J-399998D01*
G01*
X21099979Y-10099691D02*
G75*
G03*
X20699982Y-9699691I-399999J1D01*
G01*
X36799982Y-12699691D02*
X36799982Y-10099691D01*
X13799982Y-9699692D02*
G75*
G03*
X13399982Y-10099691I-2J-399998D01*
G01*
X9899982Y-37699692D02*
G75*
G03*
X9499982Y-38099691I-2J-399998D01*
G01*
X12899982Y-44599692D02*
G75*
G03*
X13299982Y-44199691I-2J400002D01*
G01*
X29399982Y-9699691D02*
X32399982Y-9699691D01*
X17299979Y-12699691D02*
G75*
G03*
X17699982Y-13099691I400001J1D01*
G01*
D11*
X46949926Y-9599997D02*
X46049926Y-9499997D01*
D10*
X12899982Y-20099691D02*
X9899982Y-20099691D01*
X9899982Y-27199691D02*
X12899982Y-27199691D01*
X12899982Y-20099692D02*
G75*
G03*
X13299982Y-19699691I-2J400002D01*
G01*
X9499982Y-12699691D02*
X9499982Y-10099691D01*
X12899982Y-34099691D02*
X9899982Y-34099691D01*
X25099982Y-12699691D02*
X25099982Y-10099691D01*
X21199982Y-12699691D02*
X21199982Y-10099691D01*
X13299979Y-20599691D02*
G75*
G03*
X12899982Y-20199691I-399999J1D01*
G01*
D11*
X36599944Y-9499997D02*
X36849944Y-999997D01*
X9549981Y-49997D02*
X18849981Y-149997D01*
D10*
X12899982Y-48099691D02*
X9899982Y-48099691D01*
X9499982Y-33699691D02*
X9499982Y-31099691D01*
D11*
X8249999Y-48098762D02*
X8499999Y-39598762D01*
D10*
X44499982Y-10099691D02*
X44499982Y-12699691D01*
X36299982Y-13099692D02*
G75*
G03*
X36699982Y-12699691I-2J400002D01*
G01*
X32399982Y-13099692D02*
G75*
G03*
X32799982Y-12699691I-2J400002D01*
G01*
X12899982Y-37599692D02*
G75*
G03*
X13299982Y-37199691I-2J400002D01*
G01*
X32899979Y-12699691D02*
G75*
G03*
X33299982Y-13099691I400001J1D01*
G01*
D11*
X37899926Y-49997D02*
X47199926Y-149997D01*
D10*
X13299982Y-13599691D02*
X13299982Y-16199691D01*
X40199982Y-13099691D02*
X37199982Y-13099691D01*
X36799979Y-12699691D02*
G75*
G03*
X37199982Y-13099691I400001J1D01*
G01*
X32799979Y-10099691D02*
G75*
G03*
X32399982Y-9699691I-399999J1D01*
G01*
D11*
X9149999Y-9599997D02*
X8249999Y-9499997D01*
D10*
X25099979Y-12699691D02*
G75*
G03*
X25499982Y-13099691I400001J1D01*
G01*
X41099982Y-9699692D02*
G75*
G03*
X40699982Y-10099691I-2J-399998D01*
G01*
X9899982Y-44699692D02*
G75*
G03*
X9499982Y-45099691I-2J-399998D01*
G01*
X41099982Y-9699691D02*
X44099982Y-9699691D01*
X13299979Y-10099691D02*
G75*
G03*
X12899982Y-9699691I-399999J1D01*
G01*
D11*
X17699981Y-9499997D02*
X17949981Y-999997D01*
X849999Y-20199380D02*
X499999Y-27999380D01*
D10*
X9899982Y-34199692D02*
G75*
G03*
X9499982Y-34599691I-2J-399998D01*
G01*
D11*
X49999Y-8899997D02*
X99999Y-49997D01*
D10*
X32799982Y-10099691D02*
X32799982Y-12699691D01*
X33299982Y-9699692D02*
G75*
G03*
X32899982Y-10099691I-2J-399998D01*
G01*
D11*
X8499999Y-39598762D02*
X849999Y-39498762D01*
D10*
X21199979Y-12699691D02*
G75*
G03*
X21599982Y-13099691I400001J1D01*
G01*
X9899982Y-13199692D02*
G75*
G03*
X9499982Y-13599691I-2J-399998D01*
G01*
X21599982Y-9699691D02*
X24599982Y-9699691D01*
X37199982Y-9699692D02*
G75*
G03*
X36799982Y-10099691I-2J-399998D01*
G01*
D11*
X19749963Y-899997D02*
X19399963Y-8699997D01*
D10*
X13299982Y-31099691D02*
X13299982Y-33699691D01*
X9899982Y-16699692D02*
G75*
G03*
X9499982Y-17099691I-2J-399998D01*
G01*
X9499982Y-26699691D02*
X9499982Y-24099691D01*
X13299982Y-34599691D02*
X13299982Y-37199691D01*
D11*
X8499999Y-10649688D02*
X849999Y-10549688D01*
X37849926Y-8899997D02*
X37899926Y-49997D01*
X49999Y-47498762D02*
X99999Y-38648762D01*
X27149963Y-9499997D02*
X27399963Y-999997D01*
X18949963Y-8899997D02*
X18999963Y-49997D01*
D10*
X9899982Y-9699692D02*
G75*
G03*
X9499982Y-10099691I-2J-399998D01*
G01*
X28899979Y-10099691D02*
G75*
G03*
X28499982Y-9699691I-399999J1D01*
G01*
X9499979Y-23199691D02*
G75*
G03*
X9899982Y-23599691I400001J1D01*
G01*
D11*
X18849981Y-149997D02*
X18599981Y-9599997D01*
D10*
X17199982Y-10099691D02*
X17199982Y-12699691D01*
D11*
X8249999Y-19149688D02*
X8499999Y-10649688D01*
X9949981Y-8699997D02*
X9499981Y-8899997D01*
X9149999Y-48198762D02*
X8249999Y-48098762D01*
D10*
X17299982Y-12699691D02*
X17299982Y-10099691D01*
X13299982Y-24099691D02*
X13299982Y-26699691D01*
D11*
X47199926Y-149997D02*
X46949926Y-9599997D01*
X9399999Y-149997D02*
X9149999Y-9599997D01*
D10*
X20699982Y-13099691D02*
X17699982Y-13099691D01*
X28499982Y-13099692D02*
G75*
G03*
X28899982Y-12699691I-2J400002D01*
G01*
X12899982Y-16599692D02*
G75*
G03*
X13299982Y-16199691I-2J400002D01*
G01*
X13399979Y-12699691D02*
G75*
G03*
X13799982Y-13099691I400001J1D01*
G01*
X9899982Y-34199691D02*
X12899982Y-34199691D01*
D11*
X8499999Y-20299380D02*
X849999Y-20199380D01*
D10*
X32399982Y-13099691D02*
X29399982Y-13099691D01*
X21599982Y-9699692D02*
G75*
G03*
X21199982Y-10099691I-2J-399998D01*
G01*
D11*
X849999Y-29849071D02*
X499999Y-37649071D01*
D10*
X40699979Y-12699691D02*
G75*
G03*
X41099982Y-13099691I400001J1D01*
G01*
X13299979Y-31099691D02*
G75*
G03*
X12899982Y-30699691I-399999J1D01*
G01*
D11*
X499999Y-8699997D02*
X49999Y-8899997D01*
X49999Y-28199380D02*
X99999Y-19349380D01*
D10*
X25499982Y-9699692D02*
G75*
G03*
X25099982Y-10099691I-2J-399998D01*
G01*
X9499979Y-26699691D02*
G75*
G03*
X9899982Y-27099691I400001J1D01*
G01*
D11*
X499999Y-47298762D02*
X49999Y-47498762D01*
X28849944Y-8699997D02*
X28399944Y-8899997D01*
D10*
X12899982Y-13099692D02*
G75*
G03*
X13299982Y-12699691I-2J400002D01*
G01*
X33299982Y-9699691D02*
X36299982Y-9699691D01*
X16799982Y-13099691D02*
X13799982Y-13099691D01*
X12899982Y-30599692D02*
G75*
G03*
X13299982Y-30199691I-2J400002D01*
G01*
X16799982Y-13099692D02*
G75*
G03*
X17199982Y-12699691I-2J400002D01*
G01*
X12899982Y-27099691D02*
X9899982Y-27099691D01*
X24999979Y-10099691D02*
G75*
G03*
X24599982Y-9699691I-399999J1D01*
G01*
D11*
X499999Y-27999380D02*
X49999Y-28199380D01*
D10*
X12899982Y-23599692D02*
G75*
G03*
X13299982Y-23199691I-2J400002D01*
G01*
D11*
X99999Y-9699688D02*
X9399999Y-9799688D01*
X8499999Y-999997D02*
X849999Y-899997D01*
D10*
X9899982Y-30699692D02*
G75*
G03*
X9499982Y-31099691I-2J-399998D01*
G01*
X9499979Y-30199691D02*
G75*
G03*
X9899982Y-30599691I400001J1D01*
G01*
X9499982Y-47699691D02*
X9499982Y-45099691D01*
D11*
X28049963Y-9599997D02*
X27149963Y-9499997D01*
X9499981Y-8899997D02*
X9549981Y-49997D01*
D10*
X13299979Y-27599691D02*
G75*
G03*
X12899982Y-27199691I-399999J1D01*
G01*
X36699982Y-10099691D02*
X36699982Y-12699691D01*
X9899982Y-23699691D02*
X12899982Y-23699691D01*
X9899982Y-16699691D02*
X12899982Y-16699691D01*
D11*
X849999Y-39498762D02*
X499999Y-47298762D01*
D10*
X13299982Y-41599691D02*
X13299982Y-44199691D01*
X9499979Y-40699691D02*
G75*
G03*
X9899982Y-41099691I400001J1D01*
G01*
X28999982Y-12699691D02*
X28999982Y-10099691D01*
D11*
X29199944Y-899997D02*
X28849944Y-8699997D01*
X8249999Y-28799380D02*
X8499999Y-20299380D01*
D10*
X13299982Y-27599691D02*
X13299982Y-30199691D01*
X44099982Y-13099692D02*
G75*
G03*
X44499982Y-12699691I-2J400002D01*
G01*
D11*
X9399999Y-19449380D02*
X9149999Y-28899380D01*
X9399999Y-9799688D02*
X9149999Y-19249688D01*
D10*
X17199979Y-10099691D02*
G75*
G03*
X16799982Y-9699691I-399999J1D01*
G01*
X9499982Y-16199691D02*
X9499982Y-13599691D01*
X24999982Y-10099691D02*
X24999982Y-12699691D01*
X9499979Y-19699691D02*
G75*
G03*
X9899982Y-20099691I400001J1D01*
G01*
X9499979Y-33699691D02*
G75*
G03*
X9899982Y-34099691I400001J1D01*
G01*
X12899982Y-41099692D02*
G75*
G03*
X13299982Y-40699691I-2J400002D01*
G01*
X37199982Y-9699691D02*
X40199982Y-9699691D01*
D11*
X19399963Y-8699997D02*
X18949963Y-8899997D01*
D10*
X13299979Y-45099691D02*
G75*
G03*
X12899982Y-44699691I-399999J1D01*
G01*
X13299982Y-20599691D02*
X13299982Y-23199691D01*
D11*
X8249999Y-9499997D02*
X8499999Y-999997D01*
D10*
X9499982Y-40699691D02*
X9499982Y-38099691D01*
X9499982Y-44199691D02*
X9499982Y-41599691D01*
X13299979Y-17099691D02*
G75*
G03*
X12899982Y-16699691I-399999J1D01*
G01*
D11*
X99999Y-38648762D02*
X9399999Y-38748762D01*
D10*
X13299982Y-17099691D02*
X13299982Y-19699691D01*
X40199982Y-13099692D02*
G75*
G03*
X40599982Y-12699691I-2J400002D01*
G01*
X13299979Y-38099691D02*
G75*
G03*
X12899982Y-37699691I-399999J1D01*
G01*
X13299979Y-41599691D02*
G75*
G03*
X12899982Y-41199691I-399999J1D01*
G01*
X44099982Y-13099691D02*
X41099982Y-13099691D01*
X40699982Y-12699691D02*
X40699982Y-10099691D01*
X24599982Y-13099692D02*
G75*
G03*
X24999982Y-12699691I-2J400002D01*
G01*
D11*
X28299963Y-149997D02*
X28049963Y-9599997D01*
X49999Y-18549688D02*
X99999Y-9699688D01*
X9399999Y-29099071D02*
X9149999Y-38549071D01*
D10*
X36699979Y-10099691D02*
G75*
G03*
X36299982Y-9699691I-399999J1D01*
G01*
D11*
X849999Y-899997D02*
X499999Y-8699997D01*
D10*
X13299982Y-45099691D02*
X13299982Y-47699691D01*
X12899982Y-48099692D02*
G75*
G03*
X13299982Y-47699691I-2J400002D01*
G01*
X9499979Y-44199691D02*
G75*
G03*
X9899982Y-44599691I400001J1D01*
G01*
X28899982Y-10099691D02*
X28899982Y-12699691D01*
X13299982Y-38099691D02*
X13299982Y-40699691D01*
D11*
X28399944Y-8899997D02*
X28449944Y-49997D01*
D10*
X9899982Y-44699691D02*
X12899982Y-44699691D01*
D11*
X36849944Y-999997D02*
X29199944Y-899997D01*
D10*
X44499979Y-10099691D02*
G75*
G03*
X44099982Y-9699691I-399999J1D01*
G01*
X21099982Y-10099691D02*
X21099982Y-12699691D01*
D11*
X18599981Y-9599997D02*
X17699981Y-9499997D01*
D10*
X9499982Y-37199691D02*
X9499982Y-34599691D01*
X25499982Y-9699691D02*
X28499982Y-9699691D01*
X9899982Y-20199691D02*
X12899982Y-20199691D01*
X9499979Y-37199691D02*
G75*
G03*
X9899982Y-37599691I400001J1D01*
G01*
D11*
X46049926Y-9499997D02*
X46299926Y-999997D01*
X37499944Y-9599997D02*
X36599944Y-9499997D01*
D10*
X9899982Y-37699691D02*
X12899982Y-37699691D01*
X13299979Y-34599691D02*
G75*
G03*
X12899982Y-34199691I-399999J1D01*
G01*
X29399982Y-9699692D02*
G75*
G03*
X28999982Y-10099691I-2J-399998D01*
G01*
X28499982Y-13099691D02*
X25499982Y-13099691D01*
X20699982Y-13099692D02*
G75*
G03*
X21099982Y-12699691I-2J400002D01*
G01*
X12899982Y-37599691D02*
X9899982Y-37599691D01*
X12899982Y-16599691D02*
X9899982Y-16599691D01*
X13399982Y-12699691D02*
X13399982Y-10099691D01*
D11*
X18999963Y-49997D02*
X28299963Y-149997D01*
X8499999Y-29949071D02*
X849999Y-29849071D01*
D10*
X9499979Y-47699691D02*
G75*
G03*
X9899982Y-48099691I400001J1D01*
G01*
X9499979Y-16199691D02*
G75*
G03*
X9899982Y-16599691I400001J1D01*
G01*
D11*
X499999Y-37649071D02*
X49999Y-37849071D01*
D10*
X32899982Y-12699691D02*
X32899982Y-10099691D01*
D11*
X28449944Y-49997D02*
X37749944Y-149997D01*
X8249999Y-38449071D02*
X8499999Y-29949071D01*
D10*
X9499979Y-12699691D02*
G75*
G03*
X9899982Y-13099691I400001J1D01*
G01*
D11*
X9149999Y-19249688D02*
X8249999Y-19149688D01*
D10*
X9899982Y-41199692D02*
G75*
G03*
X9499982Y-41599691I-2J-399998D01*
G01*
X13299982Y-10099691D02*
X13299982Y-12699691D01*
X24599982Y-13099691D02*
X21599982Y-13099691D01*
D11*
X9399999Y-38748762D02*
X9149999Y-48198762D01*
X37749944Y-149997D02*
X37499944Y-9599997D01*
D10*
X9499982Y-23199691D02*
X9499982Y-20599691D01*
D11*
X46299926Y-999997D02*
X38649926Y-899997D01*
X38299926Y-8699997D02*
X37849926Y-8899997D01*
D10*
X9499982Y-19699691D02*
X9499982Y-17099691D01*
X12899982Y-41099691D02*
X9899982Y-41099691D01*
X9499982Y-30199691D02*
X9499982Y-27599691D01*
D11*
X99999Y-19349380D02*
X9399999Y-19449380D01*
D10*
X13299979Y-24099691D02*
G75*
G03*
X12899982Y-23699691I-399999J1D01*
G01*
D11*
X499999Y-18349688D02*
X49999Y-18549688D01*
X849999Y-10549688D02*
X499999Y-18349688D01*
D10*
X9899982Y-20199692D02*
G75*
G03*
X9499982Y-20599691I-2J-399998D01*
G01*
X36299982Y-13099691D02*
X33299982Y-13099691D01*
X40599982Y-10099691D02*
X40599982Y-12699691D01*
D11*
X10299981Y-899997D02*
X9949981Y-8699997D01*
D10*
X28999979Y-12699691D02*
G75*
G03*
X29399982Y-13099691I400001J1D01*
G01*
X9899982Y-9699691D02*
X12899982Y-9699691D01*
X17699982Y-9699691D02*
X20699982Y-9699691D01*
X17699982Y-9699692D02*
G75*
G03*
X17299982Y-10099691I-2J-399998D01*
G01*
X13799982Y-9699691D02*
X16799982Y-9699691D01*
X12899982Y-44599691D02*
X9899982Y-44599691D01*
D11*
X9149999Y-38549071D02*
X8249999Y-38449071D01*
D10*
X12899982Y-27099692D02*
G75*
G03*
X13299982Y-26699691I-2J400002D01*
G01*
X13299979Y-13599691D02*
G75*
G03*
X12899982Y-13199691I-399999J1D01*
G01*
D11*
X49999Y-37849071D02*
X99999Y-28999071D01*
X27399963Y-999997D02*
X19749963Y-899997D01*
D10*
X9899982Y-41199691D02*
X12899982Y-41199691D01*
X12899982Y-34099692D02*
G75*
G03*
X13299982Y-33699691I-2J400002D01*
G01*
D11*
X99999Y-49997D02*
X9399999Y-149997D01*
D10*
X9899982Y-27199692D02*
G75*
G03*
X9499982Y-27599691I-2J-399998D01*
G01*
X12899982Y-23599691D02*
X9899982Y-23599691D01*
X40599979Y-10099691D02*
G75*
G03*
X40199982Y-9699691I-399999J1D01*
G01*
D11*
X17949981Y-999997D02*
X10299981Y-899997D01*
D10*
X9899982Y-13199691D02*
X12899982Y-13199691D01*
X9899982Y-30699691D02*
X12899982Y-30699691D01*
X12899982Y-30599691D02*
X9899982Y-30599691D01*
D11*
X99999Y-28999071D02*
X9399999Y-29099071D01*
D10*
X12899982Y-13099691D02*
X9899982Y-13099691D01*
D11*
X9149999Y-28899380D02*
X8249999Y-28799380D01*
X38649926Y-899997D02*
X38299926Y-8699997D01*
D10*
X9899982Y-23699692D02*
G75*
G03*
X9499982Y-24099691I-2J-399998D01*
G01*
X21099979Y-10099691D02*
G75*
G03*
X20699982Y-9699691I-399999J1D01*
G01*
X36799982Y-12699691D02*
X36799982Y-10099691D01*
X13799982Y-9699692D02*
G75*
G03*
X13399982Y-10099691I-2J-399998D01*
G01*
X9899982Y-37699692D02*
G75*
G03*
X9499982Y-38099691I-2J-399998D01*
G01*
X12899982Y-44599692D02*
G75*
G03*
X13299982Y-44199691I-2J400002D01*
G01*
X29399982Y-9699691D02*
X32399982Y-9699691D01*
X17299979Y-12699691D02*
G75*
G03*
X17699982Y-13099691I400001J1D01*
G01*
D11*
X46949926Y-9599997D02*
X46049926Y-9499997D01*
D10*
X12899982Y-20099691D02*
X9899982Y-20099691D01*
X9899982Y-27199691D02*
X12899982Y-27199691D01*
X12899982Y-20099692D02*
G75*
G03*
X13299982Y-19699691I-2J400002D01*
G01*
X9499982Y-12699691D02*
X9499982Y-10099691D01*
X12899982Y-34099691D02*
X9899982Y-34099691D01*
X25099982Y-12699691D02*
X25099982Y-10099691D01*
X21199982Y-12699691D02*
X21199982Y-10099691D01*
X13299979Y-20599691D02*
G75*
G03*
X12899982Y-20199691I-399999J1D01*
G01*
D11*
X36599944Y-9499997D02*
X36849944Y-999997D01*
X9549981Y-49997D02*
X18849981Y-149997D01*
D10*
X12899982Y-48099691D02*
X9899982Y-48099691D01*
X9499982Y-33699691D02*
X9499982Y-31099691D01*
D11*
X8249999Y-48098762D02*
X8499999Y-39598762D01*
D10*
X44499982Y-10099691D02*
X44499982Y-12699691D01*
X36299982Y-13099692D02*
G75*
G03*
X36699982Y-12699691I-2J400002D01*
G01*
X32399982Y-13099692D02*
G75*
G03*
X32799982Y-12699691I-2J400002D01*
G01*
X12899982Y-37599692D02*
G75*
G03*
X13299982Y-37199691I-2J400002D01*
G01*
X32899979Y-12699691D02*
G75*
G03*
X33299982Y-13099691I400001J1D01*
G01*
D11*
X37899926Y-49997D02*
X47199926Y-149997D01*
D10*
X13299982Y-13599691D02*
X13299982Y-16199691D01*
X40199982Y-13099691D02*
X37199982Y-13099691D01*
M02*
