%TF.GenerationSoftware,KiCad,Pcbnew,7.0.6-7.0.6~ubuntu20.04.1*%
%TF.CreationDate,2023-07-11T09:35:53+02:00*%
%TF.ProjectId,output_panel2023-07-11_073542.8350490000,6f757470-7574-45f7-9061-6e656c323032,rev?*%
%TF.SameCoordinates,Original*%
%TF.FileFunction,Paste,Top*%
%TF.FilePolarity,Positive*%
%FSLAX45Y45*%
G04 Gerber Fmt 4.5, Leading zero omitted, Abs format (unit mm)*
G04 Created by KiCad (PCBNEW 7.0.6-7.0.6~ubuntu20.04.1) date 2023-07-11 09:35:53*
%MOMM*%
%LPD*%
G01*
G04 APERTURE LIST*
G04 Aperture macros list*
%AMRoundRect*
0 Rectangle with rounded corners*
0 $1 Rounding radius*
0 $2 $3 $4 $5 $6 $7 $8 $9 X,Y pos of 4 corners*
0 Add a 4 corners polygon primitive as box body*
4,1,4,$2,$3,$4,$5,$6,$7,$8,$9,$2,$3,0*
0 Add four circle primitives for the rounded corners*
1,1,$1+$1,$2,$3*
1,1,$1+$1,$4,$5*
1,1,$1+$1,$6,$7*
1,1,$1+$1,$8,$9*
0 Add four rect primitives between the rounded corners*
20,1,$1+$1,$2,$3,$4,$5,0*
20,1,$1+$1,$4,$5,$6,$7,0*
20,1,$1+$1,$6,$7,$8,$9,0*
20,1,$1+$1,$8,$9,$2,$3,0*%
G04 Aperture macros list end*
%TA.AperFunction,Profile*%
%ADD10C,0.050000*%
%TD*%
%TA.AperFunction,Profile*%
%ADD11C,0.100000*%
%TD*%
%ADD12RoundRect,0.237500X0.237500X-0.250000X0.237500X0.250000X-0.237500X0.250000X-0.237500X-0.250000X0*%
%ADD13RoundRect,0.237500X-0.237500X0.250000X-0.237500X-0.250000X0.237500X-0.250000X0.237500X0.250000X0*%
%ADD14R,1.550000X1.300000*%
%ADD15R,0.760000X1.600000*%
%ADD16RoundRect,0.237500X-0.237500X0.287500X-0.237500X-0.287500X0.237500X-0.287500X0.237500X0.287500X0*%
%ADD17RoundRect,0.100000X0.100000X-0.637500X0.100000X0.637500X-0.100000X0.637500X-0.100000X-0.637500X0*%
%ADD18RoundRect,0.237500X0.250000X0.237500X-0.250000X0.237500X-0.250000X-0.237500X0.250000X-0.237500X0*%
%ADD19RoundRect,0.237500X-0.287500X-0.237500X0.287500X-0.237500X0.287500X0.237500X-0.287500X0.237500X0*%
%ADD20RoundRect,0.237500X-0.300000X-0.237500X0.300000X-0.237500X0.300000X0.237500X-0.300000X0.237500X0*%
%ADD21RoundRect,0.237500X0.237500X-0.300000X0.237500X0.300000X-0.237500X0.300000X-0.237500X-0.300000X0*%
%ADD22RoundRect,0.237500X0.287500X0.237500X-0.287500X0.237500X-0.287500X-0.237500X0.287500X-0.237500X0*%
%ADD23RoundRect,0.237500X-0.250000X-0.237500X0.250000X-0.237500X0.250000X0.237500X-0.250000X0.237500X0*%
%ADD24RoundRect,0.237500X-0.237500X0.300000X-0.237500X-0.300000X0.237500X-0.300000X0.237500X0.300000X0*%
%ADD25RoundRect,0.125000X0.125000X-0.625000X0.125000X0.625000X-0.125000X0.625000X-0.125000X-0.625000X0*%
%ADD26RoundRect,0.125000X0.625000X-0.125000X0.625000X0.125000X-0.625000X0.125000X-0.625000X-0.125000X0*%
%ADD27R,2.400000X0.740000*%
%ADD28RoundRect,0.125000X0.625000X0.125000X-0.625000X0.125000X-0.625000X-0.125000X0.625000X-0.125000X0*%
%ADD29RoundRect,0.125000X0.125000X0.625000X-0.125000X0.625000X-0.125000X-0.625000X0.125000X-0.625000X0*%
%ADD30R,3.000000X1.000000*%
%ADD31RoundRect,0.100000X-0.712500X-0.100000X0.712500X-0.100000X0.712500X0.100000X-0.712500X0.100000X0*%
%ADD32R,0.400000X1.000000*%
%ADD33RoundRect,0.237500X0.300000X0.237500X-0.300000X0.237500X-0.300000X-0.237500X0.300000X-0.237500X0*%
G04 APERTURE END LIST*
D10*
X4549997Y-29518003D02*
X899996Y-29668003D01*
D11*
X1723822Y-6170000D02*
X14123822Y-6170000D01*
D10*
X9149999Y-21619997D02*
X8249999Y-21519997D01*
D11*
X3450000Y-33917982D02*
G75*
G03*
X3850000Y-33517982I0J400000D01*
G01*
X50000Y-1450000D02*
X1850000Y-50000D01*
D10*
X8249999Y-21519997D02*
X8499999Y-13019997D01*
X49996Y-21918003D02*
X149997Y-30418003D01*
D11*
X16050000Y-4670000D02*
X14250000Y-6070000D01*
X50000Y-37017982D02*
G75*
G03*
X450000Y-37417982I400000J0D01*
G01*
D10*
X1723822Y-6170000D02*
G75*
G03*
X1723822Y-11970000I1674316J-2900000D01*
G01*
D11*
X3849998Y-34417982D02*
G75*
G03*
X3450000Y-34017982I-399998J2D01*
G01*
D10*
X9399999Y-12169997D02*
X9149999Y-21619997D01*
D11*
X14250000Y-6070000D02*
X1850000Y-6070000D01*
D10*
X5999996Y-22318003D02*
X5099997Y-22218003D01*
D11*
X1850000Y-50000D02*
X14270000Y-90000D01*
X450000Y-30517982D02*
G75*
G03*
X50000Y-30917982I0J-400000D01*
G01*
X3849998Y-30917982D02*
G75*
G03*
X3450000Y-30517982I-399998J2D01*
G01*
X3450000Y-37417982D02*
X450000Y-37417982D01*
X450000Y-34017982D02*
G75*
G03*
X50000Y-34417982I0J-400000D01*
G01*
D10*
X8499999Y-13019997D02*
X849999Y-12919997D01*
D11*
X50000Y-33517982D02*
G75*
G03*
X450000Y-33917982I400000J0D01*
G01*
D10*
X14123822Y-11970000D02*
G75*
G03*
X14123822Y-6170000I-1674316J2900000D01*
G01*
X499999Y-20719997D02*
X49999Y-20919997D01*
D11*
X3450000Y-33917982D02*
X450000Y-33917982D01*
X14270000Y-90000D02*
X16070000Y-1480000D01*
D10*
X49999Y-20919997D02*
X99999Y-12069997D01*
D11*
X3450000Y-37417982D02*
G75*
G03*
X3850000Y-37017982I0J400000D01*
G01*
X450000Y-30517982D02*
X3450000Y-30517982D01*
D10*
X99999Y-12069997D02*
X9399999Y-12169997D01*
X5399997Y-30268003D02*
X5999996Y-22318003D01*
X799996Y-21718003D02*
X49996Y-21918003D01*
X149997Y-30418003D02*
X5399997Y-30268003D01*
D11*
X50000Y-37017982D02*
X50000Y-34417982D01*
X16070000Y-1480000D02*
X16050000Y-4670000D01*
D10*
X899996Y-29668003D02*
X799996Y-21718003D01*
D11*
X1723822Y-11970000D02*
X14123822Y-11970000D01*
D10*
X849999Y-12919997D02*
X499999Y-20719997D01*
D11*
X3850000Y-30917982D02*
X3850000Y-33517982D01*
X3850000Y-34417982D02*
X3850000Y-37017982D01*
X1850000Y-6070000D02*
X50000Y-4670000D01*
D10*
X5099997Y-22218003D02*
X4549997Y-29518003D01*
D11*
X450000Y-34017982D02*
X3450000Y-34017982D01*
X50000Y-4670000D02*
X50000Y-1450000D01*
X50000Y-33517982D02*
X50000Y-30917982D01*
D12*
X9140000Y-392500D03*
X9140000Y-210000D03*
D13*
X4976322Y-6428750D03*
X4976322Y-6611250D03*
D14*
X3852500Y-2545000D03*
X4647500Y-2545000D03*
X3852500Y-2995000D03*
X4647500Y-2995000D03*
D12*
X9890000Y-392500D03*
X9890000Y-210000D03*
D15*
X6023822Y-8051000D03*
X6023822Y-7289000D03*
D16*
X8976222Y-6665000D03*
X8976222Y-6840000D03*
D17*
X9274722Y-7847650D03*
X9339722Y-7847650D03*
X9404722Y-7847650D03*
X9469722Y-7847650D03*
X9534722Y-7847650D03*
X9599722Y-7847650D03*
X9664722Y-7847650D03*
X9729722Y-7847650D03*
X9794722Y-7847650D03*
X9859722Y-7847650D03*
X9924722Y-7847650D03*
X9989722Y-7847650D03*
X10054722Y-7847650D03*
X10119722Y-7847650D03*
X10119722Y-7275150D03*
X10054722Y-7275150D03*
X9989722Y-7275150D03*
X9924722Y-7275150D03*
X9859722Y-7275150D03*
X9794722Y-7275150D03*
X9729722Y-7275150D03*
X9664722Y-7275150D03*
X9599722Y-7275150D03*
X9534722Y-7275150D03*
X9469722Y-7275150D03*
X9404722Y-7275150D03*
X9339722Y-7275150D03*
X9274722Y-7275150D03*
D18*
X8796072Y-7480000D03*
X8613572Y-7480000D03*
D14*
X12802500Y-3795000D03*
X13597500Y-3795000D03*
X12802500Y-4245000D03*
X13597500Y-4245000D03*
D19*
X4986322Y-6270000D03*
X5161322Y-6270000D03*
D20*
X2528370Y-9525000D03*
X2700870Y-9525000D03*
D13*
X5102500Y-328750D03*
X5102500Y-511250D03*
D16*
X10710000Y-562500D03*
X10710000Y-737500D03*
X9136322Y-6665000D03*
X9136322Y-6840000D03*
D12*
X10063822Y-6492500D03*
X10063822Y-6310000D03*
X9160822Y-6492500D03*
X9160822Y-6310000D03*
D21*
X1180000Y-31254232D03*
X1180000Y-31081732D03*
D13*
X11063822Y-11312500D03*
X11063822Y-11495000D03*
D22*
X589375Y-32637982D03*
X414375Y-32637982D03*
D12*
X10363822Y-6492500D03*
X10363822Y-6310000D03*
D14*
X2476322Y-9815000D03*
X3271322Y-9815000D03*
X2476322Y-10265000D03*
X3271322Y-10265000D03*
X2476322Y-7315000D03*
X3271322Y-7315000D03*
X2476322Y-7765000D03*
X3271322Y-7765000D03*
D22*
X589375Y-32817982D03*
X414375Y-32817982D03*
D14*
X3697500Y-36492982D03*
X2902500Y-36492982D03*
X3697500Y-36042982D03*
X2902500Y-36042982D03*
D12*
X9590000Y-392500D03*
X9590000Y-210000D03*
D16*
X10387500Y-562500D03*
X10387500Y-737500D03*
D21*
X2326000Y-35129232D03*
X2326000Y-34956732D03*
D19*
X4762500Y-170000D03*
X4937500Y-170000D03*
D13*
X5455000Y-326250D03*
X5455000Y-508750D03*
D21*
X2326000Y-31959482D03*
X2326000Y-31786982D03*
D12*
X9013822Y-6492500D03*
X9013822Y-6310000D03*
D14*
X10776322Y-6395000D03*
X11571322Y-6395000D03*
X10776322Y-6845000D03*
X11571322Y-6845000D03*
D20*
X2189000Y-35611982D03*
X2361500Y-35611982D03*
D23*
X11484750Y-1537600D03*
X11667250Y-1537600D03*
X6407500Y490000D03*
X6590000Y490000D03*
D13*
X11190000Y-5212500D03*
X11190000Y-5395000D03*
D23*
X760625Y-36317982D03*
X943125Y-36317982D03*
D16*
X9456322Y-6665000D03*
X9456322Y-6840000D03*
D12*
X10040000Y-392500D03*
X10040000Y-210000D03*
D24*
X11263822Y-11317500D03*
X11263822Y-11490000D03*
D15*
X6150000Y-1951000D03*
X6150000Y-1189000D03*
D18*
X9178050Y-1359800D03*
X8995550Y-1359800D03*
D21*
X7080200Y-4595650D03*
X7080200Y-4423150D03*
D12*
X9290000Y-392500D03*
X9290000Y-210000D03*
D14*
X14052500Y-2545000D03*
X14847500Y-2545000D03*
X14052500Y-2995000D03*
X14847500Y-2995000D03*
D23*
X4058750Y-1020000D03*
X4241250Y-1020000D03*
D14*
X11552500Y-2545000D03*
X12347500Y-2545000D03*
X11552500Y-2995000D03*
X12347500Y-2995000D03*
D16*
X9619822Y-6663750D03*
X9619822Y-6838750D03*
D12*
X10213822Y-6492500D03*
X10213822Y-6310000D03*
D19*
X5336322Y-6270000D03*
X5511322Y-6270000D03*
D16*
X9907500Y-562500D03*
X9907500Y-737500D03*
D13*
X11390000Y-4858750D03*
X11390000Y-5041250D03*
D24*
X10949500Y-2532000D03*
X10949500Y-2704500D03*
D12*
X10513822Y-6492500D03*
X10513822Y-6310000D03*
D16*
X9422500Y-565000D03*
X9422500Y-740000D03*
D12*
X9463822Y-6492500D03*
X9463822Y-6310000D03*
D16*
X9262500Y-565000D03*
X9262500Y-740000D03*
D24*
X8172400Y-3330950D03*
X8172400Y-3503450D03*
D18*
X9178050Y-1207400D03*
X8995550Y-1207400D03*
D25*
X7270000Y-4387500D03*
X7350000Y-4387500D03*
X7430000Y-4387500D03*
X7510000Y-4387500D03*
X7590000Y-4387500D03*
X7670000Y-4387500D03*
X7750000Y-4387500D03*
X7830000Y-4387500D03*
D26*
X7967500Y-4250000D03*
X7967500Y-4170000D03*
X7967500Y-4090000D03*
X7967500Y-4010000D03*
X7967500Y-3930000D03*
X7967500Y-3850000D03*
X7967500Y-3770000D03*
X7967500Y-3690000D03*
D25*
X7830000Y-3552500D03*
X7750000Y-3552500D03*
X7670000Y-3552500D03*
X7590000Y-3552500D03*
X7510000Y-3552500D03*
X7430000Y-3552500D03*
X7350000Y-3552500D03*
X7270000Y-3552500D03*
D26*
X7132500Y-3690000D03*
X7132500Y-3770000D03*
X7132500Y-3850000D03*
X7132500Y-3930000D03*
X7132500Y-4010000D03*
X7132500Y-4090000D03*
X7132500Y-4170000D03*
X7132500Y-4250000D03*
D16*
X9296322Y-6665000D03*
X9296322Y-6840000D03*
D12*
X9440000Y-392500D03*
X9440000Y-210000D03*
D25*
X7143822Y-10487500D03*
X7223822Y-10487500D03*
X7303822Y-10487500D03*
X7383822Y-10487500D03*
X7463822Y-10487500D03*
X7543822Y-10487500D03*
X7623822Y-10487500D03*
X7703822Y-10487500D03*
D26*
X7841322Y-10350000D03*
X7841322Y-10270000D03*
X7841322Y-10190000D03*
X7841322Y-10110000D03*
X7841322Y-10030000D03*
X7841322Y-9950000D03*
X7841322Y-9870000D03*
X7841322Y-9790000D03*
D25*
X7703822Y-9652500D03*
X7623822Y-9652500D03*
X7543822Y-9652500D03*
X7463822Y-9652500D03*
X7383822Y-9652500D03*
X7303822Y-9652500D03*
X7223822Y-9652500D03*
X7143822Y-9652500D03*
D26*
X7006322Y-9790000D03*
X7006322Y-9870000D03*
X7006322Y-9950000D03*
X7006322Y-10030000D03*
X7006322Y-10110000D03*
X7006322Y-10190000D03*
X7006322Y-10270000D03*
X7006322Y-10350000D03*
D24*
X8046222Y-9430950D03*
X8046222Y-9603450D03*
D20*
X2189000Y-32111982D03*
X2361500Y-32111982D03*
D27*
X9567500Y-4583000D03*
X9957500Y-4583000D03*
X9567500Y-4710000D03*
X9957500Y-4710000D03*
X9567500Y-4837000D03*
X9957500Y-4837000D03*
X9567500Y-4964000D03*
X9957500Y-4964000D03*
X9567500Y-5091000D03*
X9957500Y-5091000D03*
X9567500Y-5218000D03*
X9957500Y-5218000D03*
X9567500Y-5345000D03*
X9957500Y-5345000D03*
D23*
X760625Y-36497982D03*
X943125Y-36497982D03*
D28*
X2152500Y-31987982D03*
X2152500Y-31907982D03*
X2152500Y-31827982D03*
X2152500Y-31747982D03*
X2152500Y-31667982D03*
X2152500Y-31587982D03*
X2152500Y-31507982D03*
X2152500Y-31427982D03*
D29*
X2015000Y-31290482D03*
X1935000Y-31290482D03*
X1855000Y-31290482D03*
X1775000Y-31290482D03*
X1695000Y-31290482D03*
X1615000Y-31290482D03*
X1535000Y-31290482D03*
X1455000Y-31290482D03*
D28*
X1317500Y-31427982D03*
X1317500Y-31507982D03*
X1317500Y-31587982D03*
X1317500Y-31667982D03*
X1317500Y-31747982D03*
X1317500Y-31827982D03*
X1317500Y-31907982D03*
X1317500Y-31987982D03*
D29*
X1455000Y-32125482D03*
X1535000Y-32125482D03*
X1615000Y-32125482D03*
X1695000Y-32125482D03*
X1775000Y-32125482D03*
X1855000Y-32125482D03*
X1935000Y-32125482D03*
X2015000Y-32125482D03*
D19*
X5112500Y-170000D03*
X5287500Y-170000D03*
D30*
X348000Y-35798982D03*
X852000Y-35798982D03*
X348000Y-35544982D03*
X852000Y-35544982D03*
X348000Y-35290982D03*
X852000Y-35290982D03*
X348000Y-35036982D03*
X852000Y-35036982D03*
D16*
X10583822Y-6662500D03*
X10583822Y-6837500D03*
D31*
X11212572Y-7272500D03*
X11212572Y-7337500D03*
X11212572Y-7402500D03*
X11212572Y-7467500D03*
X11635072Y-7467500D03*
X11635072Y-7402500D03*
X11635072Y-7337500D03*
X11635072Y-7272500D03*
D18*
X2365870Y-9525000D03*
X2183370Y-9525000D03*
D27*
X3545000Y-32198982D03*
X3155000Y-32198982D03*
X3545000Y-32071982D03*
X3155000Y-32071982D03*
X3545000Y-31944982D03*
X3155000Y-31944982D03*
X3545000Y-31817982D03*
X3155000Y-31817982D03*
X3545000Y-31690982D03*
X3155000Y-31690982D03*
X3545000Y-31563982D03*
X3155000Y-31563982D03*
X3545000Y-31436982D03*
X3155000Y-31436982D03*
D22*
X589375Y-32997982D03*
X414375Y-32997982D03*
D24*
X6954022Y-10523150D03*
X6954022Y-10695650D03*
X11155000Y-1473750D03*
X11155000Y-1646250D03*
D14*
X1352500Y-2545000D03*
X2147500Y-2545000D03*
X1352500Y-2995000D03*
X2147500Y-2995000D03*
D12*
X10190000Y-392500D03*
X10190000Y-210000D03*
D22*
X589375Y-36317982D03*
X414375Y-36317982D03*
D16*
X10067500Y-562500D03*
X10067500Y-737500D03*
X9745000Y-563750D03*
X9745000Y-738750D03*
D12*
X9613822Y-6492500D03*
X9613822Y-6310000D03*
D23*
X12458750Y-970000D03*
X12641250Y-970000D03*
X13913775Y-9525000D03*
X14096275Y-9525000D03*
D18*
X8696072Y-7730000D03*
X8513572Y-7730000D03*
D16*
X10227500Y-562500D03*
X10227500Y-737500D03*
D14*
X3697500Y-32992982D03*
X2902500Y-32992982D03*
X3697500Y-32542982D03*
X2902500Y-32542982D03*
D21*
X2326000Y-35459482D03*
X2326000Y-35286982D03*
D17*
X9400900Y-1747650D03*
X9465900Y-1747650D03*
X9530900Y-1747650D03*
X9595900Y-1747650D03*
X9660900Y-1747650D03*
X9725900Y-1747650D03*
X9790900Y-1747650D03*
X9855900Y-1747650D03*
X9920900Y-1747650D03*
X9985900Y-1747650D03*
X10050900Y-1747650D03*
X10115900Y-1747650D03*
X10180900Y-1747650D03*
X10245900Y-1747650D03*
X10245900Y-1175150D03*
X10180900Y-1175150D03*
X10115900Y-1175150D03*
X10050900Y-1175150D03*
X9985900Y-1175150D03*
X9920900Y-1175150D03*
X9855900Y-1175150D03*
X9790900Y-1175150D03*
X9725900Y-1175150D03*
X9660900Y-1175150D03*
X9595900Y-1175150D03*
X9530900Y-1175150D03*
X9465900Y-1175150D03*
X9400900Y-1175150D03*
D16*
X9781322Y-6662500D03*
X9781322Y-6837500D03*
D14*
X12676322Y-7395000D03*
X13471322Y-7395000D03*
X12676322Y-7845000D03*
X13471322Y-7845000D03*
D24*
X11390000Y-5217500D03*
X11390000Y-5390000D03*
D23*
X6978750Y490000D03*
X7161250Y490000D03*
D14*
X1226322Y-8645000D03*
X2021322Y-8645000D03*
X1226322Y-9095000D03*
X2021322Y-9095000D03*
D19*
X11362322Y-7790000D03*
X11537322Y-7790000D03*
D16*
X10261322Y-6662500D03*
X10261322Y-6837500D03*
D13*
X4752500Y-326250D03*
X4752500Y-508750D03*
D23*
X8413572Y-7880000D03*
X8596072Y-7880000D03*
X760625Y-32637982D03*
X943125Y-32637982D03*
D16*
X9582500Y-565000D03*
X9582500Y-740000D03*
D23*
X11358572Y-7637600D03*
X11541072Y-7637600D03*
D28*
X2152500Y-35487982D03*
X2152500Y-35407982D03*
X2152500Y-35327982D03*
X2152500Y-35247982D03*
X2152500Y-35167982D03*
X2152500Y-35087982D03*
X2152500Y-35007982D03*
X2152500Y-34927982D03*
D29*
X2015000Y-34790482D03*
X1935000Y-34790482D03*
X1855000Y-34790482D03*
X1775000Y-34790482D03*
X1695000Y-34790482D03*
X1615000Y-34790482D03*
X1535000Y-34790482D03*
X1455000Y-34790482D03*
D28*
X1317500Y-34927982D03*
X1317500Y-35007982D03*
X1317500Y-35087982D03*
X1317500Y-35167982D03*
X1317500Y-35247982D03*
X1317500Y-35327982D03*
X1317500Y-35407982D03*
X1317500Y-35487982D03*
D29*
X1455000Y-35625482D03*
X1535000Y-35625482D03*
X1615000Y-35625482D03*
X1695000Y-35625482D03*
X1775000Y-35625482D03*
X1855000Y-35625482D03*
X1935000Y-35625482D03*
X2015000Y-35625482D03*
D14*
X12676322Y-9895000D03*
X13471322Y-9895000D03*
X12676322Y-10345000D03*
X13471322Y-10345000D03*
X2602500Y-1295000D03*
X3397500Y-1295000D03*
X2602500Y-1745000D03*
X3397500Y-1745000D03*
X10902500Y-295000D03*
X11697500Y-295000D03*
X10902500Y-745000D03*
X11697500Y-745000D03*
D15*
X10440822Y-8051000D03*
X10440822Y-7289000D03*
D12*
X9763822Y-6492500D03*
X9763822Y-6310000D03*
D27*
X3545000Y-35698982D03*
X3155000Y-35698982D03*
X3545000Y-35571982D03*
X3155000Y-35571982D03*
X3545000Y-35444982D03*
X3155000Y-35444982D03*
X3545000Y-35317982D03*
X3155000Y-35317982D03*
X3545000Y-35190982D03*
X3155000Y-35190982D03*
X3545000Y-35063982D03*
X3155000Y-35063982D03*
X3545000Y-34936982D03*
X3155000Y-34936982D03*
D16*
X10547500Y-562500D03*
X10547500Y-737500D03*
D14*
X11426322Y-8645000D03*
X12221322Y-8645000D03*
X11426322Y-9095000D03*
X12221322Y-9095000D03*
D16*
X8816322Y-6665000D03*
X8816322Y-6840000D03*
X10101322Y-6662500D03*
X10101322Y-6837500D03*
D14*
X2602500Y-3795000D03*
X3397500Y-3795000D03*
X2602500Y-4245000D03*
X3397500Y-4245000D03*
D23*
X6017572Y-8240000D03*
X6200072Y-8240000D03*
D32*
X7365000Y-2850000D03*
X7430000Y-2850000D03*
X7495000Y-2850000D03*
X7560000Y-2850000D03*
X7625000Y-2850000D03*
X7690000Y-2850000D03*
X7755000Y-2850000D03*
X7820000Y-2850000D03*
X7885000Y-2850000D03*
X7950000Y-2850000D03*
X7950000Y-2270000D03*
X7885000Y-2270000D03*
X7820000Y-2270000D03*
X7755000Y-2270000D03*
X7690000Y-2270000D03*
X7625000Y-2270000D03*
X7560000Y-2270000D03*
X7495000Y-2270000D03*
X7430000Y-2270000D03*
X7365000Y-2270000D03*
D23*
X8995550Y-1512200D03*
X9178050Y-1512200D03*
D12*
X9313822Y-6492500D03*
X9313822Y-6310000D03*
D19*
X5812500Y-170000D03*
X5987500Y-170000D03*
X5686322Y-6270000D03*
X5861322Y-6270000D03*
D23*
X760625Y-32817982D03*
X943125Y-32817982D03*
D14*
X13926322Y-8645000D03*
X14721322Y-8645000D03*
X13926322Y-9095000D03*
X14721322Y-9095000D03*
D24*
X11028822Y-7573750D03*
X11028822Y-7746250D03*
D12*
X8863822Y-6492500D03*
X8863822Y-6310000D03*
D19*
X4636322Y-6270000D03*
X4811322Y-6270000D03*
D12*
X10640000Y-392500D03*
X10640000Y-210000D03*
D14*
X5852500Y-2745000D03*
X6647500Y-2745000D03*
X5852500Y-3195000D03*
X6647500Y-3195000D03*
D13*
X11263822Y-10958750D03*
X11263822Y-11141250D03*
D16*
X9102500Y-565000D03*
X9102500Y-740000D03*
X10421322Y-6662500D03*
X10421322Y-6837500D03*
D21*
X1330000Y-34754232D03*
X1330000Y-34581732D03*
X1330000Y-31254232D03*
X1330000Y-31081732D03*
D33*
X7936250Y-3090000D03*
X7763750Y-3090000D03*
X13741275Y-9525000D03*
X13568775Y-9525000D03*
D24*
X7893822Y-9430950D03*
X7893822Y-9603450D03*
D23*
X760625Y-32997982D03*
X943125Y-32997982D03*
D14*
X9252500Y-2745000D03*
X10047500Y-2745000D03*
X9252500Y-3195000D03*
X10047500Y-3195000D03*
D12*
X9740000Y-392500D03*
X9740000Y-210000D03*
X1992000Y-34616232D03*
X1992000Y-34433732D03*
D14*
X5747322Y-8845000D03*
X6542322Y-8845000D03*
X5747322Y-9295000D03*
X6542322Y-9295000D03*
D12*
X9913822Y-6492500D03*
X9913822Y-6310000D03*
D23*
X760625Y-36137982D03*
X943125Y-36137982D03*
D21*
X1180000Y-34754232D03*
X1180000Y-34581732D03*
D27*
X9441322Y-10683000D03*
X9831322Y-10683000D03*
X9441322Y-10810000D03*
X9831322Y-10810000D03*
X9441322Y-10937000D03*
X9831322Y-10937000D03*
X9441322Y-11064000D03*
X9831322Y-11064000D03*
X9441322Y-11191000D03*
X9831322Y-11191000D03*
X9441322Y-11318000D03*
X9831322Y-11318000D03*
X9441322Y-11445000D03*
X9831322Y-11445000D03*
D19*
X5462500Y-170000D03*
X5637500Y-170000D03*
D12*
X8290000Y-3050000D03*
X8290000Y-2867500D03*
X8990000Y-392500D03*
X8990000Y-210000D03*
D21*
X2326000Y-31629232D03*
X2326000Y-31456732D03*
D13*
X5683822Y-6421250D03*
X5683822Y-6603750D03*
D12*
X10490000Y-392500D03*
X10490000Y-210000D03*
D14*
X12802500Y-1295000D03*
X13597500Y-1295000D03*
X12802500Y-1745000D03*
X13597500Y-1745000D03*
D24*
X8020000Y-3330950D03*
X8020000Y-3503450D03*
D12*
X1992000Y-31116232D03*
X1992000Y-30933732D03*
D22*
X589375Y-36497982D03*
X414375Y-36497982D03*
D13*
X5328822Y-6426250D03*
X5328822Y-6608750D03*
D31*
X11338750Y-1172500D03*
X11338750Y-1237500D03*
X11338750Y-1302500D03*
X11338750Y-1367500D03*
X11761250Y-1367500D03*
X11761250Y-1302500D03*
X11761250Y-1237500D03*
X11761250Y-1172500D03*
D30*
X348000Y-32298982D03*
X852000Y-32298982D03*
X348000Y-32044982D03*
X852000Y-32044982D03*
X348000Y-31790982D03*
X852000Y-31790982D03*
X348000Y-31536982D03*
X852000Y-31536982D03*
D23*
X3932572Y-7120000D03*
X4115072Y-7120000D03*
D15*
X10567000Y-3008000D03*
X10567000Y-2246000D03*
D24*
X10823322Y-8632000D03*
X10823322Y-8804500D03*
D23*
X6143750Y-2140000D03*
X6326250Y-2140000D03*
D13*
X4626322Y-6426250D03*
X4626322Y-6608750D03*
D14*
X9126322Y-8845000D03*
X9921322Y-8845000D03*
X9126322Y-9295000D03*
X9921322Y-9295000D03*
D19*
X11488500Y-1690000D03*
X11663500Y-1690000D03*
D23*
X12332572Y-7070000D03*
X12515072Y-7070000D03*
D16*
X9941322Y-6662500D03*
X9941322Y-6837500D03*
D12*
X10340000Y-392500D03*
X10340000Y-210000D03*
D20*
X10447072Y-8240000D03*
X10619572Y-8240000D03*
X10573250Y-3197000D03*
X10745750Y-3197000D03*
D16*
X8942500Y-565000D03*
X8942500Y-740000D03*
D22*
X589375Y-36137982D03*
X414375Y-36137982D03*
D13*
X5810000Y-321250D03*
X5810000Y-503750D03*
D14*
X3726322Y-8645000D03*
X4521322Y-8645000D03*
X3726322Y-9095000D03*
X4521322Y-9095000D03*
M02*
