%TF.GenerationSoftware,KiCad,Pcbnew,7.0.6-7.0.6~ubuntu20.04.1*%
%TF.CreationDate,2023-07-11T09:11:54+02:00*%
%TF.ProjectId,output_panel2023-07-11_071138.9032810000,6f757470-7574-45f7-9061-6e656c323032,rev?*%
%TF.SameCoordinates,Original*%
%TF.FileFunction,Profile,NP*%
%FSLAX45Y45*%
G04 Gerber Fmt 4.5, Leading zero omitted, Abs format (unit mm)*
G04 Created by KiCad (PCBNEW 7.0.6-7.0.6~ubuntu20.04.1) date 2023-07-11 09:11:54*
%MOMM*%
%LPD*%
G01*
G04 APERTURE LIST*
%TA.AperFunction,Profile*%
%ADD10C,0.100000*%
%TD*%
%TA.AperFunction,Profile*%
%ADD11C,0.050000*%
%TD*%
G04 APERTURE END LIST*
D10*
X16050000Y-23029999D02*
X14250000Y-24429999D01*
X14250000Y-6070000D02*
X1850000Y-6070000D01*
X16070000Y-7599999D02*
X16050000Y-10789999D01*
X50000Y-13689999D02*
X1850000Y-12289999D01*
D11*
X14123822Y-30329999D02*
G75*
G03*
X14123822Y-24529999I-1674316J2900000D01*
G01*
D10*
X14250000Y-18309999D02*
X1850000Y-18309999D01*
X1850000Y-12289999D02*
X14270000Y-12329999D01*
X1723822Y-24529999D02*
X14123822Y-24529999D01*
X1723822Y-30329999D02*
X14123822Y-30329999D01*
X50000Y-23029999D02*
X50000Y-19809999D01*
X16050000Y-10789999D02*
X14250000Y-12189999D01*
X14250000Y-12189999D02*
X1850000Y-12189999D01*
X50000Y-16909999D02*
X50000Y-13689999D01*
X1850000Y-18409999D02*
X14270000Y-18449999D01*
X1850000Y-6169999D02*
X14270000Y-6209999D01*
X14250000Y-24429999D02*
X1850000Y-24429999D01*
X50000Y-1450000D02*
X1850000Y-50000D01*
X16050000Y-16909999D02*
X14250000Y-18309999D01*
X14270000Y-6209999D02*
X16070000Y-7599999D01*
X1850000Y-18309999D02*
X50000Y-16909999D01*
X16070000Y-13719999D02*
X16050000Y-16909999D01*
X50000Y-10789999D02*
X50000Y-7569999D01*
X1850000Y-6070000D02*
X50000Y-4670000D01*
X1850000Y-24429999D02*
X50000Y-23029999D01*
D11*
X1723822Y-24529999D02*
G75*
G03*
X1723822Y-30329999I1674316J-2900000D01*
G01*
D10*
X50000Y-7569999D02*
X1850000Y-6169999D01*
X14270000Y-90000D02*
X16070000Y-1480000D01*
X1850000Y-12189999D02*
X50000Y-10789999D01*
X14270000Y-12329999D02*
X16070000Y-13719999D01*
X14270000Y-18449999D02*
X16070000Y-19839999D01*
X50000Y-4670000D02*
X50000Y-1450000D01*
X16070000Y-19839999D02*
X16050000Y-23029999D01*
X16070000Y-1480000D02*
X16050000Y-4670000D01*
X50000Y-19809999D02*
X1850000Y-18409999D01*
X16050000Y-4670000D02*
X14250000Y-6070000D01*
X1850000Y-50000D02*
X14270000Y-90000D01*
X16050000Y-23029999D02*
X14250000Y-24429999D01*
X14250000Y-6070000D02*
X1850000Y-6070000D01*
X16070000Y-7599999D02*
X16050000Y-10789999D01*
X50000Y-13689999D02*
X1850000Y-12289999D01*
D11*
X14123822Y-30329999D02*
G75*
G03*
X14123822Y-24529999I-1674316J2900000D01*
G01*
D10*
X14250000Y-18309999D02*
X1850000Y-18309999D01*
X1850000Y-12289999D02*
X14270000Y-12329999D01*
X1723822Y-24529999D02*
X14123822Y-24529999D01*
X1723822Y-30329999D02*
X14123822Y-30329999D01*
X50000Y-23029999D02*
X50000Y-19809999D01*
X16050000Y-10789999D02*
X14250000Y-12189999D01*
X14250000Y-12189999D02*
X1850000Y-12189999D01*
X50000Y-16909999D02*
X50000Y-13689999D01*
X1850000Y-18409999D02*
X14270000Y-18449999D01*
X1850000Y-6169999D02*
X14270000Y-6209999D01*
X14250000Y-24429999D02*
X1850000Y-24429999D01*
X50000Y-1450000D02*
X1850000Y-50000D01*
X16050000Y-16909999D02*
X14250000Y-18309999D01*
X14270000Y-6209999D02*
X16070000Y-7599999D01*
X1850000Y-18309999D02*
X50000Y-16909999D01*
X16070000Y-13719999D02*
X16050000Y-16909999D01*
X50000Y-10789999D02*
X50000Y-7569999D01*
X1850000Y-6070000D02*
X50000Y-4670000D01*
X1850000Y-24429999D02*
X50000Y-23029999D01*
D11*
X1723822Y-24529999D02*
G75*
G03*
X1723822Y-30329999I1674316J-2900000D01*
G01*
D10*
X50000Y-7569999D02*
X1850000Y-6169999D01*
X14270000Y-90000D02*
X16070000Y-1480000D01*
X1850000Y-12189999D02*
X50000Y-10789999D01*
X14270000Y-12329999D02*
X16070000Y-13719999D01*
X14270000Y-18449999D02*
X16070000Y-19839999D01*
X50000Y-4670000D02*
X50000Y-1450000D01*
X16070000Y-19839999D02*
X16050000Y-23029999D01*
X16070000Y-1480000D02*
X16050000Y-4670000D01*
X50000Y-19809999D02*
X1850000Y-18409999D01*
X16050000Y-4670000D02*
X14250000Y-6070000D01*
X1850000Y-50000D02*
X14270000Y-90000D01*
M02*
