%TF.GenerationSoftware,KiCad,Pcbnew,7.0.6-7.0.6~ubuntu20.04.1*%
%TF.CreationDate,2023-07-11T10:17:37+02:00*%
%TF.ProjectId,output_panel2023-07-11_081728.4517270000,6f757470-7574-45f7-9061-6e656c323032,rev?*%
%TF.SameCoordinates,Original*%
%TF.FileFunction,Soldermask,Bot*%
%TF.FilePolarity,Negative*%
%FSLAX45Y45*%
G04 Gerber Fmt 4.5, Leading zero omitted, Abs format (unit mm)*
G04 Created by KiCad (PCBNEW 7.0.6-7.0.6~ubuntu20.04.1) date 2023-07-11 10:17:37*
%MOMM*%
%LPD*%
G01*
G04 APERTURE LIST*
G04 Aperture macros list*
%AMRoundRect*
0 Rectangle with rounded corners*
0 $1 Rounding radius*
0 $2 $3 $4 $5 $6 $7 $8 $9 X,Y pos of 4 corners*
0 Add a 4 corners polygon primitive as box body*
4,1,4,$2,$3,$4,$5,$6,$7,$8,$9,$2,$3,0*
0 Add four circle primitives for the rounded corners*
1,1,$1+$1,$2,$3*
1,1,$1+$1,$4,$5*
1,1,$1+$1,$6,$7*
1,1,$1+$1,$8,$9*
0 Add four rect primitives between the rounded corners*
20,1,$1+$1,$2,$3,$4,$5,0*
20,1,$1+$1,$4,$5,$6,$7,0*
20,1,$1+$1,$6,$7,$8,$9,0*
20,1,$1+$1,$8,$9,$2,$3,0*%
G04 Aperture macros list end*
%TA.AperFunction,Profile*%
%ADD10C,0.100000*%
%TD*%
%ADD11C,5.600000*%
%ADD12RoundRect,0.250000X0.600000X0.725000X-0.600000X0.725000X-0.600000X-0.725000X0.600000X-0.725000X0*%
%ADD13O,1.700000X1.950000*%
%ADD14R,1.700000X1.700000*%
%ADD15O,1.700000X1.700000*%
%ADD16RoundRect,0.250000X-0.750000X0.600000X-0.750000X-0.600000X0.750000X-0.600000X0.750000X0.600000X0*%
%ADD17O,2.000000X1.700000*%
%ADD18RoundRect,0.237500X-0.237500X0.300000X-0.237500X-0.300000X0.237500X-0.300000X0.237500X0.300000X0*%
G04 APERTURE END LIST*
D10*
X1850000Y-6070000D02*
X50000Y-4670000D01*
X14250000Y-6070000D02*
X1850000Y-6070000D01*
X16050000Y-4670000D02*
X14250000Y-6070000D01*
X14270000Y-90000D02*
X16070000Y-1480000D01*
X16070000Y-1480000D02*
X16050000Y-4670000D01*
X50000Y-4670000D02*
X50000Y-1450000D01*
X50000Y-1450000D02*
X1850000Y-50000D01*
X1850000Y-50000D02*
X14270000Y-90000D01*
D11*
X14350000Y-4970000D03*
X15350000Y-2770000D03*
X1850000Y-4970000D03*
D12*
X12740400Y-496200D03*
D13*
X12490400Y-496200D03*
X12240400Y-496200D03*
D14*
X8270000Y-276000D03*
D15*
X8524000Y-276000D03*
X8270000Y-530000D03*
X8524000Y-530000D03*
X8270000Y-784000D03*
X8524000Y-784000D03*
X8270000Y-1038000D03*
X8524000Y-1038000D03*
D11*
X1850000Y-770000D03*
X850000Y-2770000D03*
D12*
X3825000Y-472500D03*
D13*
X3575000Y-472500D03*
X3325000Y-472500D03*
D11*
X14350000Y-770000D03*
D16*
X11690000Y-4910000D03*
D17*
X11690000Y-5160000D03*
D18*
X7890000Y-170000D03*
X7890000Y-342500D03*
M02*
