%TF.GenerationSoftware,KiCad,Pcbnew,7.0.6-7.0.6~ubuntu20.04.1*%
%TF.CreationDate,2023-07-11T10:17:37+02:00*%
%TF.ProjectId,output_panel2023-07-11_081728.4517270000,6f757470-7574-45f7-9061-6e656c323032,rev?*%
%TF.SameCoordinates,Original*%
%TF.FileFunction,Legend,Top*%
%TF.FilePolarity,Positive*%
%FSLAX45Y45*%
G04 Gerber Fmt 4.5, Leading zero omitted, Abs format (unit mm)*
G04 Created by KiCad (PCBNEW 7.0.6-7.0.6~ubuntu20.04.1) date 2023-07-11 10:17:37*
%MOMM*%
%LPD*%
G01*
G04 APERTURE LIST*
G04 Aperture macros list*
%AMRoundRect*
0 Rectangle with rounded corners*
0 $1 Rounding radius*
0 $2 $3 $4 $5 $6 $7 $8 $9 X,Y pos of 4 corners*
0 Add a 4 corners polygon primitive as box body*
4,1,4,$2,$3,$4,$5,$6,$7,$8,$9,$2,$3,0*
0 Add four circle primitives for the rounded corners*
1,1,$1+$1,$2,$3*
1,1,$1+$1,$4,$5*
1,1,$1+$1,$6,$7*
1,1,$1+$1,$8,$9*
0 Add four rect primitives between the rounded corners*
20,1,$1+$1,$2,$3,$4,$5,0*
20,1,$1+$1,$4,$5,$6,$7,0*
20,1,$1+$1,$6,$7,$8,$9,0*
20,1,$1+$1,$8,$9,$2,$3,0*%
G04 Aperture macros list end*
%TA.AperFunction,Profile*%
%ADD10C,0.100000*%
%TD*%
%ADD11C,0.150000*%
%ADD12C,0.120000*%
%ADD13R,0.400000X1.000000*%
%ADD14C,5.600000*%
%ADD15R,2.400000X0.740000*%
%ADD16RoundRect,0.237500X-0.287500X-0.237500X0.287500X-0.237500X0.287500X0.237500X-0.287500X0.237500X0*%
%ADD17RoundRect,0.237500X0.237500X-0.250000X0.237500X0.250000X-0.237500X0.250000X-0.237500X-0.250000X0*%
%ADD18RoundRect,0.100000X-0.712500X-0.100000X0.712500X-0.100000X0.712500X0.100000X-0.712500X0.100000X0*%
%ADD19RoundRect,0.237500X-0.237500X0.300000X-0.237500X-0.300000X0.237500X-0.300000X0.237500X0.300000X0*%
%ADD20RoundRect,0.237500X-0.237500X0.250000X-0.237500X-0.250000X0.237500X-0.250000X0.237500X0.250000X0*%
%ADD21RoundRect,0.237500X-0.237500X0.287500X-0.237500X-0.287500X0.237500X-0.287500X0.237500X0.287500X0*%
%ADD22RoundRect,0.237500X-0.250000X-0.237500X0.250000X-0.237500X0.250000X0.237500X-0.250000X0.237500X0*%
%ADD23R,1.550000X1.300000*%
%ADD24RoundRect,0.237500X0.250000X0.237500X-0.250000X0.237500X-0.250000X-0.237500X0.250000X-0.237500X0*%
%ADD25RoundRect,0.237500X-0.300000X-0.237500X0.300000X-0.237500X0.300000X0.237500X-0.300000X0.237500X0*%
%ADD26RoundRect,0.237500X0.300000X0.237500X-0.300000X0.237500X-0.300000X-0.237500X0.300000X-0.237500X0*%
%ADD27RoundRect,0.237500X0.237500X-0.300000X0.237500X0.300000X-0.237500X0.300000X-0.237500X-0.300000X0*%
%ADD28RoundRect,0.125000X0.125000X-0.625000X0.125000X0.625000X-0.125000X0.625000X-0.125000X-0.625000X0*%
%ADD29RoundRect,0.125000X0.625000X-0.125000X0.625000X0.125000X-0.625000X0.125000X-0.625000X-0.125000X0*%
%ADD30RoundRect,0.250000X0.600000X0.725000X-0.600000X0.725000X-0.600000X-0.725000X0.600000X-0.725000X0*%
%ADD31O,1.700000X1.950000*%
%ADD32R,1.700000X1.700000*%
%ADD33O,1.700000X1.700000*%
%ADD34RoundRect,0.100000X0.100000X-0.637500X0.100000X0.637500X-0.100000X0.637500X-0.100000X-0.637500X0*%
%ADD35R,0.760000X1.600000*%
%ADD36RoundRect,0.250000X-0.750000X0.600000X-0.750000X-0.600000X0.750000X-0.600000X0.750000X0.600000X0*%
%ADD37O,2.000000X1.700000*%
G04 APERTURE END LIST*
D10*
X1850000Y-6070000D02*
X50000Y-4670000D01*
X14250000Y-6070000D02*
X1850000Y-6070000D01*
X16050000Y-4670000D02*
X14250000Y-6070000D01*
X14270000Y-90000D02*
X16070000Y-1480000D01*
X16070000Y-1480000D02*
X16050000Y-4670000D01*
X50000Y-4670000D02*
X50000Y-1450000D01*
X50000Y-1450000D02*
X1850000Y-50000D01*
X1850000Y-50000D02*
X14270000Y-90000D01*
D11*
X7172982Y-2636190D02*
X7253934Y-2636190D01*
X7253934Y-2636190D02*
X7263458Y-2631428D01*
X7263458Y-2631428D02*
X7268220Y-2626666D01*
X7268220Y-2626666D02*
X7272982Y-2617143D01*
X7272982Y-2617143D02*
X7272982Y-2598095D01*
X7272982Y-2598095D02*
X7268220Y-2588571D01*
X7268220Y-2588571D02*
X7263458Y-2583809D01*
X7263458Y-2583809D02*
X7253934Y-2579047D01*
X7253934Y-2579047D02*
X7172982Y-2579047D01*
X7172982Y-2483809D02*
X7172982Y-2531428D01*
X7172982Y-2531428D02*
X7220601Y-2536190D01*
X7220601Y-2536190D02*
X7215839Y-2531428D01*
X7215839Y-2531428D02*
X7211077Y-2521904D01*
X7211077Y-2521904D02*
X7211077Y-2498095D01*
X7211077Y-2498095D02*
X7215839Y-2488571D01*
X7215839Y-2488571D02*
X7220601Y-2483809D01*
X7220601Y-2483809D02*
X7230125Y-2479047D01*
X7230125Y-2479047D02*
X7253934Y-2479047D01*
X7253934Y-2479047D02*
X7263458Y-2483809D01*
X7263458Y-2483809D02*
X7268220Y-2488571D01*
X7268220Y-2488571D02*
X7272982Y-2498095D01*
X7272982Y-2498095D02*
X7272982Y-2521904D01*
X7272982Y-2521904D02*
X7268220Y-2531428D01*
X7268220Y-2531428D02*
X7263458Y-2536190D01*
X14273809Y-4635482D02*
X14273809Y-4535482D01*
X14273809Y-4583101D02*
X14330952Y-4583101D01*
X14330952Y-4635482D02*
X14330952Y-4535482D01*
X14421428Y-4535482D02*
X14402381Y-4535482D01*
X14402381Y-4535482D02*
X14392857Y-4540244D01*
X14392857Y-4540244D02*
X14388095Y-4545005D01*
X14388095Y-4545005D02*
X14378571Y-4559291D01*
X14378571Y-4559291D02*
X14373809Y-4578339D01*
X14373809Y-4578339D02*
X14373809Y-4616434D01*
X14373809Y-4616434D02*
X14378571Y-4625958D01*
X14378571Y-4625958D02*
X14383333Y-4630720D01*
X14383333Y-4630720D02*
X14392857Y-4635482D01*
X14392857Y-4635482D02*
X14411905Y-4635482D01*
X14411905Y-4635482D02*
X14421428Y-4630720D01*
X14421428Y-4630720D02*
X14426190Y-4625958D01*
X14426190Y-4625958D02*
X14430952Y-4616434D01*
X14430952Y-4616434D02*
X14430952Y-4592624D01*
X14430952Y-4592624D02*
X14426190Y-4583101D01*
X14426190Y-4583101D02*
X14421428Y-4578339D01*
X14421428Y-4578339D02*
X14411905Y-4573577D01*
X14411905Y-4573577D02*
X14392857Y-4573577D01*
X14392857Y-4573577D02*
X14383333Y-4578339D01*
X14383333Y-4578339D02*
X14378571Y-4583101D01*
X14378571Y-4583101D02*
X14373809Y-4592624D01*
X9729167Y-4358982D02*
X9729167Y-4430410D01*
X9729167Y-4430410D02*
X9724405Y-4444696D01*
X9724405Y-4444696D02*
X9714881Y-4454220D01*
X9714881Y-4454220D02*
X9700595Y-4458982D01*
X9700595Y-4458982D02*
X9691071Y-4458982D01*
X9772024Y-4368505D02*
X9776786Y-4363744D01*
X9776786Y-4363744D02*
X9786310Y-4358982D01*
X9786310Y-4358982D02*
X9810119Y-4358982D01*
X9810119Y-4358982D02*
X9819643Y-4363744D01*
X9819643Y-4363744D02*
X9824405Y-4368505D01*
X9824405Y-4368505D02*
X9829167Y-4378029D01*
X9829167Y-4378029D02*
X9829167Y-4387553D01*
X9829167Y-4387553D02*
X9824405Y-4401839D01*
X9824405Y-4401839D02*
X9767262Y-4458982D01*
X9767262Y-4458982D02*
X9829167Y-4458982D01*
X15273809Y-2435482D02*
X15273809Y-2335482D01*
X15273809Y-2383101D02*
X15330952Y-2383101D01*
X15330952Y-2435482D02*
X15330952Y-2335482D01*
X15426190Y-2335482D02*
X15378571Y-2335482D01*
X15378571Y-2335482D02*
X15373809Y-2383101D01*
X15373809Y-2383101D02*
X15378571Y-2378339D01*
X15378571Y-2378339D02*
X15388095Y-2373577D01*
X15388095Y-2373577D02*
X15411905Y-2373577D01*
X15411905Y-2373577D02*
X15421428Y-2378339D01*
X15421428Y-2378339D02*
X15426190Y-2383101D01*
X15426190Y-2383101D02*
X15430952Y-2392624D01*
X15430952Y-2392624D02*
X15430952Y-2416434D01*
X15430952Y-2416434D02*
X15426190Y-2425958D01*
X15426190Y-2425958D02*
X15421428Y-2430720D01*
X15421428Y-2430720D02*
X15411905Y-2435482D01*
X15411905Y-2435482D02*
X15388095Y-2435482D01*
X15388095Y-2435482D02*
X15378571Y-2430720D01*
X15378571Y-2430720D02*
X15373809Y-2425958D01*
X4776191Y-72482D02*
X4776191Y27518D01*
X4776191Y27518D02*
X4800000Y27518D01*
X4800000Y27518D02*
X4814286Y22756D01*
X4814286Y22756D02*
X4823810Y13233D01*
X4823810Y13233D02*
X4828571Y3709D01*
X4828571Y3709D02*
X4833333Y-15339D01*
X4833333Y-15339D02*
X4833333Y-29624D01*
X4833333Y-29624D02*
X4828571Y-48672D01*
X4828571Y-48672D02*
X4823810Y-58196D01*
X4823810Y-58196D02*
X4814286Y-67720D01*
X4814286Y-67720D02*
X4800000Y-72482D01*
X4800000Y-72482D02*
X4776191Y-72482D01*
X4866667Y27518D02*
X4928571Y27518D01*
X4928571Y27518D02*
X4895238Y-10577D01*
X4895238Y-10577D02*
X4909524Y-10577D01*
X4909524Y-10577D02*
X4919048Y-15339D01*
X4919048Y-15339D02*
X4923810Y-20101D01*
X4923810Y-20101D02*
X4928571Y-29624D01*
X4928571Y-29624D02*
X4928571Y-53434D01*
X4928571Y-53434D02*
X4923810Y-62958D01*
X4923810Y-62958D02*
X4919048Y-67720D01*
X4919048Y-67720D02*
X4909524Y-72482D01*
X4909524Y-72482D02*
X4880952Y-72482D01*
X4880952Y-72482D02*
X4871429Y-67720D01*
X4871429Y-67720D02*
X4866667Y-62958D01*
X10095482Y-43809D02*
X10047863Y-77143D01*
X10095482Y-100952D02*
X9995482Y-100952D01*
X9995482Y-100952D02*
X9995482Y-62857D01*
X9995482Y-62857D02*
X10000244Y-53333D01*
X10000244Y-53333D02*
X10005006Y-48571D01*
X10005006Y-48571D02*
X10014530Y-43809D01*
X10014530Y-43809D02*
X10028815Y-43809D01*
X10028815Y-43809D02*
X10038339Y-48571D01*
X10038339Y-48571D02*
X10043101Y-53333D01*
X10043101Y-53333D02*
X10047863Y-62857D01*
X10047863Y-62857D02*
X10047863Y-100952D01*
X10057387Y-952D02*
X10057387Y75238D01*
X10028815Y113334D02*
X10095482Y137143D01*
X10095482Y137143D02*
X10028815Y160953D01*
X9995482Y218095D02*
X9995482Y227619D01*
X9995482Y227619D02*
X10000244Y237143D01*
X10000244Y237143D02*
X10005006Y241905D01*
X10005006Y241905D02*
X10014530Y246667D01*
X10014530Y246667D02*
X10033577Y251429D01*
X10033577Y251429D02*
X10057387Y251429D01*
X10057387Y251429D02*
X10076434Y246667D01*
X10076434Y246667D02*
X10085958Y241905D01*
X10085958Y241905D02*
X10090720Y237143D01*
X10090720Y237143D02*
X10095482Y227619D01*
X10095482Y227619D02*
X10095482Y218095D01*
X10095482Y218095D02*
X10090720Y208572D01*
X10090720Y208572D02*
X10085958Y203810D01*
X10085958Y203810D02*
X10076434Y199048D01*
X10076434Y199048D02*
X10057387Y194286D01*
X10057387Y194286D02*
X10033577Y194286D01*
X10033577Y194286D02*
X10014530Y199048D01*
X10014530Y199048D02*
X10005006Y203810D01*
X10005006Y203810D02*
X10000244Y208572D01*
X10000244Y208572D02*
X9995482Y218095D01*
X10057387Y294286D02*
X10057387Y370476D01*
X9995482Y408572D02*
X9995482Y470476D01*
X9995482Y470476D02*
X10033577Y437143D01*
X10033577Y437143D02*
X10033577Y451429D01*
X10033577Y451429D02*
X10038339Y460953D01*
X10038339Y460953D02*
X10043101Y465714D01*
X10043101Y465714D02*
X10052625Y470476D01*
X10052625Y470476D02*
X10076434Y470476D01*
X10076434Y470476D02*
X10085958Y465714D01*
X10085958Y465714D02*
X10090720Y460953D01*
X10090720Y460953D02*
X10095482Y451429D01*
X10095482Y451429D02*
X10095482Y422857D01*
X10095482Y422857D02*
X10090720Y413334D01*
X10090720Y413334D02*
X10085958Y408572D01*
X9995482Y532381D02*
X9995482Y541905D01*
X9995482Y541905D02*
X10000244Y551429D01*
X10000244Y551429D02*
X10005006Y556191D01*
X10005006Y556191D02*
X10014530Y560953D01*
X10014530Y560953D02*
X10033577Y565715D01*
X10033577Y565715D02*
X10057387Y565715D01*
X10057387Y565715D02*
X10076434Y560953D01*
X10076434Y560953D02*
X10085958Y556191D01*
X10085958Y556191D02*
X10090720Y551429D01*
X10090720Y551429D02*
X10095482Y541905D01*
X10095482Y541905D02*
X10095482Y532381D01*
X10095482Y532381D02*
X10090720Y522857D01*
X10090720Y522857D02*
X10085958Y518095D01*
X10085958Y518095D02*
X10076434Y513334D01*
X10076434Y513334D02*
X10057387Y508572D01*
X10057387Y508572D02*
X10033577Y508572D01*
X10033577Y508572D02*
X10014530Y513334D01*
X10014530Y513334D02*
X10005006Y518095D01*
X10005006Y518095D02*
X10000244Y522857D01*
X10000244Y522857D02*
X9995482Y532381D01*
X8192482Y-3184940D02*
X8144863Y-3218273D01*
X8192482Y-3242083D02*
X8092482Y-3242083D01*
X8092482Y-3242083D02*
X8092482Y-3203988D01*
X8092482Y-3203988D02*
X8097244Y-3194464D01*
X8097244Y-3194464D02*
X8102006Y-3189702D01*
X8102006Y-3189702D02*
X8111529Y-3184940D01*
X8111529Y-3184940D02*
X8125815Y-3184940D01*
X8125815Y-3184940D02*
X8135339Y-3189702D01*
X8135339Y-3189702D02*
X8140101Y-3194464D01*
X8140101Y-3194464D02*
X8144863Y-3203988D01*
X8144863Y-3203988D02*
X8144863Y-3242083D01*
X8154387Y-3142083D02*
X8154387Y-3065892D01*
X8125815Y-3027797D02*
X8192482Y-3003988D01*
X8192482Y-3003988D02*
X8125815Y-2980178D01*
X8092482Y-2923035D02*
X8092482Y-2913511D01*
X8092482Y-2913511D02*
X8097244Y-2903988D01*
X8097244Y-2903988D02*
X8102006Y-2899226D01*
X8102006Y-2899226D02*
X8111529Y-2894464D01*
X8111529Y-2894464D02*
X8130577Y-2889702D01*
X8130577Y-2889702D02*
X8154387Y-2889702D01*
X8154387Y-2889702D02*
X8173434Y-2894464D01*
X8173434Y-2894464D02*
X8182958Y-2899226D01*
X8182958Y-2899226D02*
X8187720Y-2903988D01*
X8187720Y-2903988D02*
X8192482Y-2913511D01*
X8192482Y-2913511D02*
X8192482Y-2923035D01*
X8192482Y-2923035D02*
X8187720Y-2932559D01*
X8187720Y-2932559D02*
X8182958Y-2937321D01*
X8182958Y-2937321D02*
X8173434Y-2942083D01*
X8173434Y-2942083D02*
X8154387Y-2946845D01*
X8154387Y-2946845D02*
X8130577Y-2946845D01*
X8130577Y-2946845D02*
X8111529Y-2942083D01*
X8111529Y-2942083D02*
X8102006Y-2937321D01*
X8102006Y-2937321D02*
X8097244Y-2932559D01*
X8097244Y-2932559D02*
X8092482Y-2923035D01*
X8154387Y-2846845D02*
X8154387Y-2770654D01*
X8125815Y-2680178D02*
X8192482Y-2680178D01*
X8087720Y-2703988D02*
X8159148Y-2727797D01*
X8159148Y-2727797D02*
X8159148Y-2665893D01*
X11473809Y-970482D02*
X11473809Y-1051434D01*
X11473809Y-1051434D02*
X11478571Y-1060958D01*
X11478571Y-1060958D02*
X11483333Y-1065720D01*
X11483333Y-1065720D02*
X11492857Y-1070482D01*
X11492857Y-1070482D02*
X11511905Y-1070482D01*
X11511905Y-1070482D02*
X11521428Y-1065720D01*
X11521428Y-1065720D02*
X11526190Y-1060958D01*
X11526190Y-1060958D02*
X11530952Y-1051434D01*
X11530952Y-1051434D02*
X11530952Y-970482D01*
X11569048Y-970482D02*
X11630952Y-970482D01*
X11630952Y-970482D02*
X11597619Y-1008577D01*
X11597619Y-1008577D02*
X11611905Y-1008577D01*
X11611905Y-1008577D02*
X11621428Y-1013339D01*
X11621428Y-1013339D02*
X11626190Y-1018101D01*
X11626190Y-1018101D02*
X11630952Y-1027624D01*
X11630952Y-1027624D02*
X11630952Y-1051434D01*
X11630952Y-1051434D02*
X11626190Y-1060958D01*
X11626190Y-1060958D02*
X11621428Y-1065720D01*
X11621428Y-1065720D02*
X11611905Y-1070482D01*
X11611905Y-1070482D02*
X11583333Y-1070482D01*
X11583333Y-1070482D02*
X11573809Y-1065720D01*
X11573809Y-1065720D02*
X11569048Y-1060958D01*
X11205958Y-1886666D02*
X11210720Y-1891428D01*
X11210720Y-1891428D02*
X11215482Y-1905714D01*
X11215482Y-1905714D02*
X11215482Y-1915238D01*
X11215482Y-1915238D02*
X11210720Y-1929523D01*
X11210720Y-1929523D02*
X11201196Y-1939047D01*
X11201196Y-1939047D02*
X11191672Y-1943809D01*
X11191672Y-1943809D02*
X11172625Y-1948571D01*
X11172625Y-1948571D02*
X11158339Y-1948571D01*
X11158339Y-1948571D02*
X11139291Y-1943809D01*
X11139291Y-1943809D02*
X11129768Y-1939047D01*
X11129768Y-1939047D02*
X11120244Y-1929523D01*
X11120244Y-1929523D02*
X11115482Y-1915238D01*
X11115482Y-1915238D02*
X11115482Y-1905714D01*
X11115482Y-1905714D02*
X11120244Y-1891428D01*
X11120244Y-1891428D02*
X11125006Y-1886666D01*
X11215482Y-1839047D02*
X11215482Y-1820000D01*
X11215482Y-1820000D02*
X11210720Y-1810476D01*
X11210720Y-1810476D02*
X11205958Y-1805714D01*
X11205958Y-1805714D02*
X11191672Y-1796190D01*
X11191672Y-1796190D02*
X11172625Y-1791428D01*
X11172625Y-1791428D02*
X11134530Y-1791428D01*
X11134530Y-1791428D02*
X11125006Y-1796190D01*
X11125006Y-1796190D02*
X11120244Y-1800952D01*
X11120244Y-1800952D02*
X11115482Y-1810476D01*
X11115482Y-1810476D02*
X11115482Y-1829523D01*
X11115482Y-1829523D02*
X11120244Y-1839047D01*
X11120244Y-1839047D02*
X11125006Y-1843809D01*
X11125006Y-1843809D02*
X11134530Y-1848571D01*
X11134530Y-1848571D02*
X11158339Y-1848571D01*
X11158339Y-1848571D02*
X11167863Y-1843809D01*
X11167863Y-1843809D02*
X11172625Y-1839047D01*
X11172625Y-1839047D02*
X11177387Y-1829523D01*
X11177387Y-1829523D02*
X11177387Y-1810476D01*
X11177387Y-1810476D02*
X11172625Y-1800952D01*
X11172625Y-1800952D02*
X11167863Y-1796190D01*
X11167863Y-1796190D02*
X11158339Y-1791428D01*
X5998482Y-686309D02*
X5950863Y-719642D01*
X5998482Y-743452D02*
X5898482Y-743452D01*
X5898482Y-743452D02*
X5898482Y-705357D01*
X5898482Y-705357D02*
X5903244Y-695833D01*
X5903244Y-695833D02*
X5908006Y-691071D01*
X5908006Y-691071D02*
X5917529Y-686309D01*
X5917529Y-686309D02*
X5931815Y-686309D01*
X5931815Y-686309D02*
X5941339Y-691071D01*
X5941339Y-691071D02*
X5946101Y-695833D01*
X5946101Y-695833D02*
X5950863Y-705357D01*
X5950863Y-705357D02*
X5950863Y-743452D01*
X5960387Y-643452D02*
X5960387Y-567262D01*
X5931815Y-529166D02*
X5998482Y-505357D01*
X5998482Y-505357D02*
X5931815Y-481547D01*
X5898482Y-424404D02*
X5898482Y-414881D01*
X5898482Y-414881D02*
X5903244Y-405357D01*
X5903244Y-405357D02*
X5908006Y-400595D01*
X5908006Y-400595D02*
X5917529Y-395833D01*
X5917529Y-395833D02*
X5936577Y-391071D01*
X5936577Y-391071D02*
X5960387Y-391071D01*
X5960387Y-391071D02*
X5979434Y-395833D01*
X5979434Y-395833D02*
X5988958Y-400595D01*
X5988958Y-400595D02*
X5993720Y-405357D01*
X5993720Y-405357D02*
X5998482Y-414881D01*
X5998482Y-414881D02*
X5998482Y-424404D01*
X5998482Y-424404D02*
X5993720Y-433928D01*
X5993720Y-433928D02*
X5988958Y-438690D01*
X5988958Y-438690D02*
X5979434Y-443452D01*
X5979434Y-443452D02*
X5960387Y-448214D01*
X5960387Y-448214D02*
X5936577Y-448214D01*
X5936577Y-448214D02*
X5917529Y-443452D01*
X5917529Y-443452D02*
X5908006Y-438690D01*
X5908006Y-438690D02*
X5903244Y-433928D01*
X5903244Y-433928D02*
X5898482Y-424404D01*
X5960387Y-348214D02*
X5960387Y-272024D01*
X5908006Y-229166D02*
X5903244Y-224404D01*
X5903244Y-224404D02*
X5898482Y-214881D01*
X5898482Y-214881D02*
X5898482Y-191071D01*
X5898482Y-191071D02*
X5903244Y-181547D01*
X5903244Y-181547D02*
X5908006Y-176785D01*
X5908006Y-176785D02*
X5917529Y-172024D01*
X5917529Y-172024D02*
X5927053Y-172024D01*
X5927053Y-172024D02*
X5941339Y-176785D01*
X5941339Y-176785D02*
X5998482Y-233928D01*
X5998482Y-233928D02*
X5998482Y-172024D01*
X5908006Y-133928D02*
X5903244Y-129166D01*
X5903244Y-129166D02*
X5898482Y-119642D01*
X5898482Y-119642D02*
X5898482Y-95833D01*
X5898482Y-95833D02*
X5903244Y-86309D01*
X5903244Y-86309D02*
X5908006Y-81547D01*
X5908006Y-81547D02*
X5917529Y-76785D01*
X5917529Y-76785D02*
X5927053Y-76785D01*
X5927053Y-76785D02*
X5941339Y-81547D01*
X5941339Y-81547D02*
X5998482Y-138690D01*
X5998482Y-138690D02*
X5998482Y-76785D01*
X9475482Y408572D02*
X9375482Y408572D01*
X9375482Y408572D02*
X9375482Y432381D01*
X9375482Y432381D02*
X9380244Y446667D01*
X9380244Y446667D02*
X9389768Y456191D01*
X9389768Y456191D02*
X9399291Y460953D01*
X9399291Y460953D02*
X9418339Y465714D01*
X9418339Y465714D02*
X9432625Y465714D01*
X9432625Y465714D02*
X9451672Y460953D01*
X9451672Y460953D02*
X9461196Y456191D01*
X9461196Y456191D02*
X9470720Y446667D01*
X9470720Y446667D02*
X9475482Y432381D01*
X9475482Y432381D02*
X9475482Y408572D01*
X9475482Y560953D02*
X9475482Y503810D01*
X9475482Y532381D02*
X9375482Y532381D01*
X9375482Y532381D02*
X9389768Y522857D01*
X9389768Y522857D02*
X9399291Y513334D01*
X9399291Y513334D02*
X9404053Y503810D01*
X9375482Y622857D02*
X9375482Y632381D01*
X9375482Y632381D02*
X9380244Y641905D01*
X9380244Y641905D02*
X9385006Y646667D01*
X9385006Y646667D02*
X9394530Y651429D01*
X9394530Y651429D02*
X9413577Y656191D01*
X9413577Y656191D02*
X9437387Y656191D01*
X9437387Y656191D02*
X9456434Y651429D01*
X9456434Y651429D02*
X9465958Y646667D01*
X9465958Y646667D02*
X9470720Y641905D01*
X9470720Y641905D02*
X9475482Y632381D01*
X9475482Y632381D02*
X9475482Y622857D01*
X9475482Y622857D02*
X9470720Y613334D01*
X9470720Y613334D02*
X9465958Y608572D01*
X9465958Y608572D02*
X9456434Y603810D01*
X9456434Y603810D02*
X9437387Y599048D01*
X9437387Y599048D02*
X9413577Y599048D01*
X9413577Y599048D02*
X9394530Y603810D01*
X9394530Y603810D02*
X9385006Y608572D01*
X9385006Y608572D02*
X9380244Y613334D01*
X9380244Y613334D02*
X9375482Y622857D01*
X5643482Y-691309D02*
X5595863Y-724642D01*
X5643482Y-748452D02*
X5543482Y-748452D01*
X5543482Y-748452D02*
X5543482Y-710357D01*
X5543482Y-710357D02*
X5548244Y-700833D01*
X5548244Y-700833D02*
X5553006Y-696071D01*
X5553006Y-696071D02*
X5562530Y-691309D01*
X5562530Y-691309D02*
X5576815Y-691309D01*
X5576815Y-691309D02*
X5586339Y-696071D01*
X5586339Y-696071D02*
X5591101Y-700833D01*
X5591101Y-700833D02*
X5595863Y-710357D01*
X5595863Y-710357D02*
X5595863Y-748452D01*
X5605387Y-648452D02*
X5605387Y-572262D01*
X5576815Y-534166D02*
X5643482Y-510357D01*
X5643482Y-510357D02*
X5576815Y-486547D01*
X5543482Y-429404D02*
X5543482Y-419881D01*
X5543482Y-419881D02*
X5548244Y-410357D01*
X5548244Y-410357D02*
X5553006Y-405595D01*
X5553006Y-405595D02*
X5562530Y-400833D01*
X5562530Y-400833D02*
X5581577Y-396071D01*
X5581577Y-396071D02*
X5605387Y-396071D01*
X5605387Y-396071D02*
X5624434Y-400833D01*
X5624434Y-400833D02*
X5633958Y-405595D01*
X5633958Y-405595D02*
X5638720Y-410357D01*
X5638720Y-410357D02*
X5643482Y-419881D01*
X5643482Y-419881D02*
X5643482Y-429404D01*
X5643482Y-429404D02*
X5638720Y-438928D01*
X5638720Y-438928D02*
X5633958Y-443690D01*
X5633958Y-443690D02*
X5624434Y-448452D01*
X5624434Y-448452D02*
X5605387Y-453214D01*
X5605387Y-453214D02*
X5581577Y-453214D01*
X5581577Y-453214D02*
X5562530Y-448452D01*
X5562530Y-448452D02*
X5553006Y-443690D01*
X5553006Y-443690D02*
X5548244Y-438928D01*
X5548244Y-438928D02*
X5543482Y-429404D01*
X5605387Y-353214D02*
X5605387Y-277024D01*
X5553006Y-234166D02*
X5548244Y-229404D01*
X5548244Y-229404D02*
X5543482Y-219881D01*
X5543482Y-219881D02*
X5543482Y-196071D01*
X5543482Y-196071D02*
X5548244Y-186547D01*
X5548244Y-186547D02*
X5553006Y-181785D01*
X5553006Y-181785D02*
X5562530Y-177023D01*
X5562530Y-177023D02*
X5572053Y-177023D01*
X5572053Y-177023D02*
X5586339Y-181785D01*
X5586339Y-181785D02*
X5643482Y-238928D01*
X5643482Y-238928D02*
X5643482Y-177023D01*
X5643482Y-81785D02*
X5643482Y-138928D01*
X5643482Y-110357D02*
X5543482Y-110357D01*
X5543482Y-110357D02*
X5557768Y-119881D01*
X5557768Y-119881D02*
X5567291Y-129404D01*
X5567291Y-129404D02*
X5572053Y-138928D01*
X9635482Y408572D02*
X9535482Y408572D01*
X9535482Y408572D02*
X9535482Y432381D01*
X9535482Y432381D02*
X9540244Y446667D01*
X9540244Y446667D02*
X9549768Y456191D01*
X9549768Y456191D02*
X9559291Y460953D01*
X9559291Y460953D02*
X9578339Y465714D01*
X9578339Y465714D02*
X9592625Y465714D01*
X9592625Y465714D02*
X9611672Y460953D01*
X9611672Y460953D02*
X9621196Y456191D01*
X9621196Y456191D02*
X9630720Y446667D01*
X9630720Y446667D02*
X9635482Y432381D01*
X9635482Y432381D02*
X9635482Y408572D01*
X9635482Y560953D02*
X9635482Y503810D01*
X9635482Y532381D02*
X9535482Y532381D01*
X9535482Y532381D02*
X9549768Y522857D01*
X9549768Y522857D02*
X9559291Y513334D01*
X9559291Y513334D02*
X9564053Y503810D01*
X9635482Y656191D02*
X9635482Y599048D01*
X9635482Y627619D02*
X9535482Y627619D01*
X9535482Y627619D02*
X9549768Y618096D01*
X9549768Y618096D02*
X9559291Y608572D01*
X9559291Y608572D02*
X9564053Y599048D01*
X3923809Y-922482D02*
X3890476Y-874862D01*
X3866667Y-922482D02*
X3866667Y-822482D01*
X3866667Y-822482D02*
X3904762Y-822482D01*
X3904762Y-822482D02*
X3914286Y-827243D01*
X3914286Y-827243D02*
X3919048Y-832005D01*
X3919048Y-832005D02*
X3923809Y-841529D01*
X3923809Y-841529D02*
X3923809Y-855815D01*
X3923809Y-855815D02*
X3919048Y-865339D01*
X3919048Y-865339D02*
X3914286Y-870101D01*
X3914286Y-870101D02*
X3904762Y-874862D01*
X3904762Y-874862D02*
X3866667Y-874862D01*
X3966667Y-884386D02*
X4042857Y-884386D01*
X4080952Y-855815D02*
X4104762Y-922482D01*
X4104762Y-922482D02*
X4128571Y-855815D01*
X4185714Y-822482D02*
X4195238Y-822482D01*
X4195238Y-822482D02*
X4204762Y-827243D01*
X4204762Y-827243D02*
X4209524Y-832005D01*
X4209524Y-832005D02*
X4214286Y-841529D01*
X4214286Y-841529D02*
X4219048Y-860577D01*
X4219048Y-860577D02*
X4219048Y-884386D01*
X4219048Y-884386D02*
X4214286Y-903434D01*
X4214286Y-903434D02*
X4209524Y-912958D01*
X4209524Y-912958D02*
X4204762Y-917720D01*
X4204762Y-917720D02*
X4195238Y-922482D01*
X4195238Y-922482D02*
X4185714Y-922482D01*
X4185714Y-922482D02*
X4176190Y-917720D01*
X4176190Y-917720D02*
X4171429Y-912958D01*
X4171429Y-912958D02*
X4166667Y-903434D01*
X4166667Y-903434D02*
X4161905Y-884386D01*
X4161905Y-884386D02*
X4161905Y-860577D01*
X4161905Y-860577D02*
X4166667Y-841529D01*
X4166667Y-841529D02*
X4171429Y-832005D01*
X4171429Y-832005D02*
X4176190Y-827243D01*
X4176190Y-827243D02*
X4185714Y-822482D01*
X4261905Y-884386D02*
X4338095Y-884386D01*
X4380952Y-832005D02*
X4385714Y-827243D01*
X4385714Y-827243D02*
X4395238Y-822482D01*
X4395238Y-822482D02*
X4419048Y-822482D01*
X4419048Y-822482D02*
X4428571Y-827243D01*
X4428571Y-827243D02*
X4433333Y-832005D01*
X4433333Y-832005D02*
X4438095Y-841529D01*
X4438095Y-841529D02*
X4438095Y-851053D01*
X4438095Y-851053D02*
X4433333Y-865339D01*
X4433333Y-865339D02*
X4376191Y-922482D01*
X4376191Y-922482D02*
X4438095Y-922482D01*
X9775482Y-43809D02*
X9727863Y-77143D01*
X9775482Y-100952D02*
X9675482Y-100952D01*
X9675482Y-100952D02*
X9675482Y-62857D01*
X9675482Y-62857D02*
X9680244Y-53333D01*
X9680244Y-53333D02*
X9685006Y-48571D01*
X9685006Y-48571D02*
X9694530Y-43809D01*
X9694530Y-43809D02*
X9708815Y-43809D01*
X9708815Y-43809D02*
X9718339Y-48571D01*
X9718339Y-48571D02*
X9723101Y-53333D01*
X9723101Y-53333D02*
X9727863Y-62857D01*
X9727863Y-62857D02*
X9727863Y-100952D01*
X9737387Y-952D02*
X9737387Y75238D01*
X9708815Y113334D02*
X9775482Y137143D01*
X9775482Y137143D02*
X9708815Y160953D01*
X9675482Y218095D02*
X9675482Y227619D01*
X9675482Y227619D02*
X9680244Y237143D01*
X9680244Y237143D02*
X9685006Y241905D01*
X9685006Y241905D02*
X9694530Y246667D01*
X9694530Y246667D02*
X9713577Y251429D01*
X9713577Y251429D02*
X9737387Y251429D01*
X9737387Y251429D02*
X9756434Y246667D01*
X9756434Y246667D02*
X9765958Y241905D01*
X9765958Y241905D02*
X9770720Y237143D01*
X9770720Y237143D02*
X9775482Y227619D01*
X9775482Y227619D02*
X9775482Y218095D01*
X9775482Y218095D02*
X9770720Y208572D01*
X9770720Y208572D02*
X9765958Y203810D01*
X9765958Y203810D02*
X9756434Y199048D01*
X9756434Y199048D02*
X9737387Y194286D01*
X9737387Y194286D02*
X9713577Y194286D01*
X9713577Y194286D02*
X9694530Y199048D01*
X9694530Y199048D02*
X9685006Y203810D01*
X9685006Y203810D02*
X9680244Y208572D01*
X9680244Y208572D02*
X9675482Y218095D01*
X9737387Y294286D02*
X9737387Y370476D01*
X9685006Y413334D02*
X9680244Y418095D01*
X9680244Y418095D02*
X9675482Y427619D01*
X9675482Y427619D02*
X9675482Y451429D01*
X9675482Y451429D02*
X9680244Y460953D01*
X9680244Y460953D02*
X9685006Y465714D01*
X9685006Y465714D02*
X9694530Y470476D01*
X9694530Y470476D02*
X9704053Y470476D01*
X9704053Y470476D02*
X9718339Y465714D01*
X9718339Y465714D02*
X9775482Y408572D01*
X9775482Y408572D02*
X9775482Y470476D01*
X9718339Y527619D02*
X9713577Y518095D01*
X9713577Y518095D02*
X9708815Y513334D01*
X9708815Y513334D02*
X9699291Y508572D01*
X9699291Y508572D02*
X9694530Y508572D01*
X9694530Y508572D02*
X9685006Y513334D01*
X9685006Y513334D02*
X9680244Y518095D01*
X9680244Y518095D02*
X9675482Y527619D01*
X9675482Y527619D02*
X9675482Y546667D01*
X9675482Y546667D02*
X9680244Y556191D01*
X9680244Y556191D02*
X9685006Y560953D01*
X9685006Y560953D02*
X9694530Y565715D01*
X9694530Y565715D02*
X9699291Y565715D01*
X9699291Y565715D02*
X9708815Y560953D01*
X9708815Y560953D02*
X9713577Y556191D01*
X9713577Y556191D02*
X9718339Y546667D01*
X9718339Y546667D02*
X9718339Y527619D01*
X9718339Y527619D02*
X9723101Y518095D01*
X9723101Y518095D02*
X9727863Y513334D01*
X9727863Y513334D02*
X9737387Y508572D01*
X9737387Y508572D02*
X9756434Y508572D01*
X9756434Y508572D02*
X9765958Y513334D01*
X9765958Y513334D02*
X9770720Y518095D01*
X9770720Y518095D02*
X9775482Y527619D01*
X9775482Y527619D02*
X9775482Y546667D01*
X9775482Y546667D02*
X9770720Y556191D01*
X9770720Y556191D02*
X9765958Y560953D01*
X9765958Y560953D02*
X9756434Y565715D01*
X9756434Y565715D02*
X9737387Y565715D01*
X9737387Y565715D02*
X9727863Y560953D01*
X9727863Y560953D02*
X9723101Y556191D01*
X9723101Y556191D02*
X9718339Y546667D01*
X9175482Y416191D02*
X9075482Y416191D01*
X9075482Y416191D02*
X9075482Y440000D01*
X9075482Y440000D02*
X9080244Y454286D01*
X9080244Y454286D02*
X9089768Y463810D01*
X9089768Y463810D02*
X9099291Y468572D01*
X9099291Y468572D02*
X9118339Y473334D01*
X9118339Y473334D02*
X9132625Y473334D01*
X9132625Y473334D02*
X9151672Y468572D01*
X9151672Y468572D02*
X9161196Y463810D01*
X9161196Y463810D02*
X9170720Y454286D01*
X9170720Y454286D02*
X9175482Y440000D01*
X9175482Y440000D02*
X9175482Y416191D01*
X9118339Y530477D02*
X9113577Y520953D01*
X9113577Y520953D02*
X9108815Y516191D01*
X9108815Y516191D02*
X9099291Y511429D01*
X9099291Y511429D02*
X9094530Y511429D01*
X9094530Y511429D02*
X9085006Y516191D01*
X9085006Y516191D02*
X9080244Y520953D01*
X9080244Y520953D02*
X9075482Y530477D01*
X9075482Y530477D02*
X9075482Y549524D01*
X9075482Y549524D02*
X9080244Y559048D01*
X9080244Y559048D02*
X9085006Y563810D01*
X9085006Y563810D02*
X9094530Y568572D01*
X9094530Y568572D02*
X9099291Y568572D01*
X9099291Y568572D02*
X9108815Y563810D01*
X9108815Y563810D02*
X9113577Y559048D01*
X9113577Y559048D02*
X9118339Y549524D01*
X9118339Y549524D02*
X9118339Y530477D01*
X9118339Y530477D02*
X9123101Y520953D01*
X9123101Y520953D02*
X9127863Y516191D01*
X9127863Y516191D02*
X9137387Y511429D01*
X9137387Y511429D02*
X9156434Y511429D01*
X9156434Y511429D02*
X9165958Y516191D01*
X9165958Y516191D02*
X9170720Y520953D01*
X9170720Y520953D02*
X9175482Y530477D01*
X9175482Y530477D02*
X9175482Y549524D01*
X9175482Y549524D02*
X9170720Y559048D01*
X9170720Y559048D02*
X9165958Y563810D01*
X9165958Y563810D02*
X9156434Y568572D01*
X9156434Y568572D02*
X9137387Y568572D01*
X9137387Y568572D02*
X9127863Y563810D01*
X9127863Y563810D02*
X9123101Y559048D01*
X9123101Y559048D02*
X9118339Y549524D01*
X9635482Y-43809D02*
X9587863Y-77143D01*
X9635482Y-100952D02*
X9535482Y-100952D01*
X9535482Y-100952D02*
X9535482Y-62857D01*
X9535482Y-62857D02*
X9540244Y-53333D01*
X9540244Y-53333D02*
X9545006Y-48571D01*
X9545006Y-48571D02*
X9554530Y-43809D01*
X9554530Y-43809D02*
X9568815Y-43809D01*
X9568815Y-43809D02*
X9578339Y-48571D01*
X9578339Y-48571D02*
X9583101Y-53333D01*
X9583101Y-53333D02*
X9587863Y-62857D01*
X9587863Y-62857D02*
X9587863Y-100952D01*
X9597387Y-952D02*
X9597387Y75238D01*
X9568815Y113334D02*
X9635482Y137143D01*
X9635482Y137143D02*
X9568815Y160953D01*
X9535482Y218095D02*
X9535482Y227619D01*
X9535482Y227619D02*
X9540244Y237143D01*
X9540244Y237143D02*
X9545006Y241905D01*
X9545006Y241905D02*
X9554530Y246667D01*
X9554530Y246667D02*
X9573577Y251429D01*
X9573577Y251429D02*
X9597387Y251429D01*
X9597387Y251429D02*
X9616434Y246667D01*
X9616434Y246667D02*
X9625958Y241905D01*
X9625958Y241905D02*
X9630720Y237143D01*
X9630720Y237143D02*
X9635482Y227619D01*
X9635482Y227619D02*
X9635482Y218095D01*
X9635482Y218095D02*
X9630720Y208572D01*
X9630720Y208572D02*
X9625958Y203810D01*
X9625958Y203810D02*
X9616434Y199048D01*
X9616434Y199048D02*
X9597387Y194286D01*
X9597387Y194286D02*
X9573577Y194286D01*
X9573577Y194286D02*
X9554530Y199048D01*
X9554530Y199048D02*
X9545006Y203810D01*
X9545006Y203810D02*
X9540244Y208572D01*
X9540244Y208572D02*
X9535482Y218095D01*
X9597387Y294286D02*
X9597387Y370476D01*
X9545006Y413334D02*
X9540244Y418095D01*
X9540244Y418095D02*
X9535482Y427619D01*
X9535482Y427619D02*
X9535482Y451429D01*
X9535482Y451429D02*
X9540244Y460953D01*
X9540244Y460953D02*
X9545006Y465714D01*
X9545006Y465714D02*
X9554530Y470476D01*
X9554530Y470476D02*
X9564053Y470476D01*
X9564053Y470476D02*
X9578339Y465714D01*
X9578339Y465714D02*
X9635482Y408572D01*
X9635482Y408572D02*
X9635482Y470476D01*
X9535482Y503810D02*
X9535482Y570476D01*
X9535482Y570476D02*
X9635482Y527619D01*
X11378482Y-5577559D02*
X11330863Y-5610892D01*
X11378482Y-5634702D02*
X11278482Y-5634702D01*
X11278482Y-5634702D02*
X11278482Y-5596607D01*
X11278482Y-5596607D02*
X11283244Y-5587083D01*
X11283244Y-5587083D02*
X11288006Y-5582321D01*
X11288006Y-5582321D02*
X11297529Y-5577559D01*
X11297529Y-5577559D02*
X11311815Y-5577559D01*
X11311815Y-5577559D02*
X11321339Y-5582321D01*
X11321339Y-5582321D02*
X11326101Y-5587083D01*
X11326101Y-5587083D02*
X11330863Y-5596607D01*
X11330863Y-5596607D02*
X11330863Y-5634702D01*
X11340387Y-5534702D02*
X11340387Y-5458512D01*
X11311815Y-5420416D02*
X11378482Y-5396607D01*
X11378482Y-5396607D02*
X11311815Y-5372797D01*
X11278482Y-5315654D02*
X11278482Y-5306131D01*
X11278482Y-5306131D02*
X11283244Y-5296607D01*
X11283244Y-5296607D02*
X11288006Y-5291845D01*
X11288006Y-5291845D02*
X11297529Y-5287083D01*
X11297529Y-5287083D02*
X11316577Y-5282321D01*
X11316577Y-5282321D02*
X11340387Y-5282321D01*
X11340387Y-5282321D02*
X11359434Y-5287083D01*
X11359434Y-5287083D02*
X11368958Y-5291845D01*
X11368958Y-5291845D02*
X11373720Y-5296607D01*
X11373720Y-5296607D02*
X11378482Y-5306131D01*
X11378482Y-5306131D02*
X11378482Y-5315654D01*
X11378482Y-5315654D02*
X11373720Y-5325178D01*
X11373720Y-5325178D02*
X11368958Y-5329940D01*
X11368958Y-5329940D02*
X11359434Y-5334702D01*
X11359434Y-5334702D02*
X11340387Y-5339464D01*
X11340387Y-5339464D02*
X11316577Y-5339464D01*
X11316577Y-5339464D02*
X11297529Y-5334702D01*
X11297529Y-5334702D02*
X11288006Y-5329940D01*
X11288006Y-5329940D02*
X11283244Y-5325178D01*
X11283244Y-5325178D02*
X11278482Y-5315654D01*
X11340387Y-5239464D02*
X11340387Y-5163274D01*
X11378482Y-5063274D02*
X11378482Y-5120416D01*
X11378482Y-5091845D02*
X11278482Y-5091845D01*
X11278482Y-5091845D02*
X11292768Y-5101369D01*
X11292768Y-5101369D02*
X11302291Y-5110893D01*
X11302291Y-5110893D02*
X11307053Y-5120416D01*
X11278482Y-5001369D02*
X11278482Y-4991845D01*
X11278482Y-4991845D02*
X11283244Y-4982321D01*
X11283244Y-4982321D02*
X11288006Y-4977559D01*
X11288006Y-4977559D02*
X11297529Y-4972797D01*
X11297529Y-4972797D02*
X11316577Y-4968035D01*
X11316577Y-4968035D02*
X11340387Y-4968035D01*
X11340387Y-4968035D02*
X11359434Y-4972797D01*
X11359434Y-4972797D02*
X11368958Y-4977559D01*
X11368958Y-4977559D02*
X11373720Y-4982321D01*
X11373720Y-4982321D02*
X11378482Y-4991845D01*
X11378482Y-4991845D02*
X11378482Y-5001369D01*
X11378482Y-5001369D02*
X11373720Y-5010893D01*
X11373720Y-5010893D02*
X11368958Y-5015654D01*
X11368958Y-5015654D02*
X11359434Y-5020416D01*
X11359434Y-5020416D02*
X11340387Y-5025178D01*
X11340387Y-5025178D02*
X11316577Y-5025178D01*
X11316577Y-5025178D02*
X11297529Y-5020416D01*
X11297529Y-5020416D02*
X11288006Y-5015654D01*
X11288006Y-5015654D02*
X11283244Y-5010893D01*
X11283244Y-5010893D02*
X11278482Y-5001369D01*
X2866667Y-1110720D02*
X2880952Y-1115482D01*
X2880952Y-1115482D02*
X2904762Y-1115482D01*
X2904762Y-1115482D02*
X2914286Y-1110720D01*
X2914286Y-1110720D02*
X2919048Y-1105958D01*
X2919048Y-1105958D02*
X2923809Y-1096434D01*
X2923809Y-1096434D02*
X2923809Y-1086910D01*
X2923809Y-1086910D02*
X2919048Y-1077386D01*
X2919048Y-1077386D02*
X2914286Y-1072624D01*
X2914286Y-1072624D02*
X2904762Y-1067863D01*
X2904762Y-1067863D02*
X2885714Y-1063101D01*
X2885714Y-1063101D02*
X2876190Y-1058339D01*
X2876190Y-1058339D02*
X2871429Y-1053577D01*
X2871429Y-1053577D02*
X2866667Y-1044053D01*
X2866667Y-1044053D02*
X2866667Y-1034529D01*
X2866667Y-1034529D02*
X2871429Y-1025005D01*
X2871429Y-1025005D02*
X2876190Y-1020243D01*
X2876190Y-1020243D02*
X2885714Y-1015482D01*
X2885714Y-1015482D02*
X2909524Y-1015482D01*
X2909524Y-1015482D02*
X2923809Y-1020243D01*
X2957143Y-1015482D02*
X2980952Y-1115482D01*
X2980952Y-1115482D02*
X3000000Y-1044053D01*
X3000000Y-1044053D02*
X3019048Y-1115482D01*
X3019048Y-1115482D02*
X3042857Y-1015482D01*
X3123809Y-1015482D02*
X3104762Y-1015482D01*
X3104762Y-1015482D02*
X3095238Y-1020243D01*
X3095238Y-1020243D02*
X3090476Y-1025005D01*
X3090476Y-1025005D02*
X3080952Y-1039291D01*
X3080952Y-1039291D02*
X3076190Y-1058339D01*
X3076190Y-1058339D02*
X3076190Y-1096434D01*
X3076190Y-1096434D02*
X3080952Y-1105958D01*
X3080952Y-1105958D02*
X3085714Y-1110720D01*
X3085714Y-1110720D02*
X3095238Y-1115482D01*
X3095238Y-1115482D02*
X3114286Y-1115482D01*
X3114286Y-1115482D02*
X3123809Y-1110720D01*
X3123809Y-1110720D02*
X3128571Y-1105958D01*
X3128571Y-1105958D02*
X3133333Y-1096434D01*
X3133333Y-1096434D02*
X3133333Y-1072624D01*
X3133333Y-1072624D02*
X3128571Y-1063101D01*
X3128571Y-1063101D02*
X3123809Y-1058339D01*
X3123809Y-1058339D02*
X3114286Y-1053577D01*
X3114286Y-1053577D02*
X3095238Y-1053577D01*
X3095238Y-1053577D02*
X3085714Y-1058339D01*
X3085714Y-1058339D02*
X3080952Y-1063101D01*
X3080952Y-1063101D02*
X3076190Y-1072624D01*
X4116667Y-2360720D02*
X4130952Y-2365482D01*
X4130952Y-2365482D02*
X4154762Y-2365482D01*
X4154762Y-2365482D02*
X4164286Y-2360720D01*
X4164286Y-2360720D02*
X4169048Y-2355958D01*
X4169048Y-2355958D02*
X4173809Y-2346434D01*
X4173809Y-2346434D02*
X4173809Y-2336910D01*
X4173809Y-2336910D02*
X4169048Y-2327386D01*
X4169048Y-2327386D02*
X4164286Y-2322624D01*
X4164286Y-2322624D02*
X4154762Y-2317863D01*
X4154762Y-2317863D02*
X4135714Y-2313101D01*
X4135714Y-2313101D02*
X4126190Y-2308339D01*
X4126190Y-2308339D02*
X4121429Y-2303577D01*
X4121429Y-2303577D02*
X4116667Y-2294053D01*
X4116667Y-2294053D02*
X4116667Y-2284529D01*
X4116667Y-2284529D02*
X4121429Y-2275005D01*
X4121429Y-2275005D02*
X4126190Y-2270244D01*
X4126190Y-2270244D02*
X4135714Y-2265482D01*
X4135714Y-2265482D02*
X4159524Y-2265482D01*
X4159524Y-2265482D02*
X4173809Y-2270244D01*
X4207143Y-2265482D02*
X4230952Y-2365482D01*
X4230952Y-2365482D02*
X4250000Y-2294053D01*
X4250000Y-2294053D02*
X4269048Y-2365482D01*
X4269048Y-2365482D02*
X4292857Y-2265482D01*
X4345238Y-2308339D02*
X4335714Y-2303577D01*
X4335714Y-2303577D02*
X4330952Y-2298815D01*
X4330952Y-2298815D02*
X4326191Y-2289291D01*
X4326191Y-2289291D02*
X4326191Y-2284529D01*
X4326191Y-2284529D02*
X4330952Y-2275005D01*
X4330952Y-2275005D02*
X4335714Y-2270244D01*
X4335714Y-2270244D02*
X4345238Y-2265482D01*
X4345238Y-2265482D02*
X4364286Y-2265482D01*
X4364286Y-2265482D02*
X4373810Y-2270244D01*
X4373810Y-2270244D02*
X4378571Y-2275005D01*
X4378571Y-2275005D02*
X4383333Y-2284529D01*
X4383333Y-2284529D02*
X4383333Y-2289291D01*
X4383333Y-2289291D02*
X4378571Y-2298815D01*
X4378571Y-2298815D02*
X4373810Y-2303577D01*
X4373810Y-2303577D02*
X4364286Y-2308339D01*
X4364286Y-2308339D02*
X4345238Y-2308339D01*
X4345238Y-2308339D02*
X4335714Y-2313101D01*
X4335714Y-2313101D02*
X4330952Y-2317863D01*
X4330952Y-2317863D02*
X4326191Y-2327386D01*
X4326191Y-2327386D02*
X4326191Y-2346434D01*
X4326191Y-2346434D02*
X4330952Y-2355958D01*
X4330952Y-2355958D02*
X4335714Y-2360720D01*
X4335714Y-2360720D02*
X4345238Y-2365482D01*
X4345238Y-2365482D02*
X4364286Y-2365482D01*
X4364286Y-2365482D02*
X4373810Y-2360720D01*
X4373810Y-2360720D02*
X4378571Y-2355958D01*
X4378571Y-2355958D02*
X4383333Y-2346434D01*
X4383333Y-2346434D02*
X4383333Y-2327386D01*
X4383333Y-2327386D02*
X4378571Y-2317863D01*
X4378571Y-2317863D02*
X4373810Y-2313101D01*
X4373810Y-2313101D02*
X4364286Y-2308339D01*
X6008809Y-2042482D02*
X5975476Y-1994862D01*
X5951667Y-2042482D02*
X5951667Y-1942482D01*
X5951667Y-1942482D02*
X5989762Y-1942482D01*
X5989762Y-1942482D02*
X5999286Y-1947243D01*
X5999286Y-1947243D02*
X6004048Y-1952005D01*
X6004048Y-1952005D02*
X6008809Y-1961529D01*
X6008809Y-1961529D02*
X6008809Y-1975815D01*
X6008809Y-1975815D02*
X6004048Y-1985339D01*
X6004048Y-1985339D02*
X5999286Y-1990101D01*
X5999286Y-1990101D02*
X5989762Y-1994862D01*
X5989762Y-1994862D02*
X5951667Y-1994862D01*
X6051667Y-2004386D02*
X6127857Y-2004386D01*
X6165952Y-1975815D02*
X6189762Y-2042482D01*
X6189762Y-2042482D02*
X6213571Y-1975815D01*
X6270714Y-1942482D02*
X6280238Y-1942482D01*
X6280238Y-1942482D02*
X6289762Y-1947243D01*
X6289762Y-1947243D02*
X6294524Y-1952005D01*
X6294524Y-1952005D02*
X6299286Y-1961529D01*
X6299286Y-1961529D02*
X6304048Y-1980577D01*
X6304048Y-1980577D02*
X6304048Y-2004386D01*
X6304048Y-2004386D02*
X6299286Y-2023434D01*
X6299286Y-2023434D02*
X6294524Y-2032958D01*
X6294524Y-2032958D02*
X6289762Y-2037720D01*
X6289762Y-2037720D02*
X6280238Y-2042482D01*
X6280238Y-2042482D02*
X6270714Y-2042482D01*
X6270714Y-2042482D02*
X6261190Y-2037720D01*
X6261190Y-2037720D02*
X6256429Y-2032958D01*
X6256429Y-2032958D02*
X6251667Y-2023434D01*
X6251667Y-2023434D02*
X6246905Y-2004386D01*
X6246905Y-2004386D02*
X6246905Y-1980577D01*
X6246905Y-1980577D02*
X6251667Y-1961529D01*
X6251667Y-1961529D02*
X6256429Y-1952005D01*
X6256429Y-1952005D02*
X6261190Y-1947243D01*
X6261190Y-1947243D02*
X6270714Y-1942482D01*
X6346905Y-2004386D02*
X6423095Y-2004386D01*
X6523095Y-2042482D02*
X6465952Y-2042482D01*
X6494524Y-2042482D02*
X6494524Y-1942482D01*
X6494524Y-1942482D02*
X6485000Y-1956767D01*
X6485000Y-1956767D02*
X6475476Y-1966291D01*
X6475476Y-1966291D02*
X6465952Y-1971053D01*
X1773809Y-4635482D02*
X1773809Y-4535482D01*
X1773809Y-4583101D02*
X1830952Y-4583101D01*
X1830952Y-4635482D02*
X1830952Y-4535482D01*
X1869048Y-4535482D02*
X1930952Y-4535482D01*
X1930952Y-4535482D02*
X1897619Y-4573577D01*
X1897619Y-4573577D02*
X1911905Y-4573577D01*
X1911905Y-4573577D02*
X1921428Y-4578339D01*
X1921428Y-4578339D02*
X1926190Y-4583101D01*
X1926190Y-4583101D02*
X1930952Y-4592624D01*
X1930952Y-4592624D02*
X1930952Y-4616434D01*
X1930952Y-4616434D02*
X1926190Y-4625958D01*
X1926190Y-4625958D02*
X1921428Y-4630720D01*
X1921428Y-4630720D02*
X1911905Y-4635482D01*
X1911905Y-4635482D02*
X1883333Y-4635482D01*
X1883333Y-4635482D02*
X1873809Y-4630720D01*
X1873809Y-4630720D02*
X1869048Y-4625958D01*
X8530490Y-1655382D02*
X8497157Y-1607762D01*
X8473348Y-1655382D02*
X8473348Y-1555382D01*
X8473348Y-1555382D02*
X8511443Y-1555382D01*
X8511443Y-1555382D02*
X8520967Y-1560143D01*
X8520967Y-1560143D02*
X8525729Y-1564905D01*
X8525729Y-1564905D02*
X8530490Y-1574429D01*
X8530490Y-1574429D02*
X8530490Y-1588715D01*
X8530490Y-1588715D02*
X8525729Y-1598239D01*
X8525729Y-1598239D02*
X8520967Y-1603001D01*
X8520967Y-1603001D02*
X8511443Y-1607762D01*
X8511443Y-1607762D02*
X8473348Y-1607762D01*
X8573348Y-1617286D02*
X8649538Y-1617286D01*
X8687633Y-1588715D02*
X8711443Y-1655382D01*
X8711443Y-1655382D02*
X8735252Y-1588715D01*
X8792395Y-1555382D02*
X8801919Y-1555382D01*
X8801919Y-1555382D02*
X8811443Y-1560143D01*
X8811443Y-1560143D02*
X8816205Y-1564905D01*
X8816205Y-1564905D02*
X8820967Y-1574429D01*
X8820967Y-1574429D02*
X8825729Y-1593477D01*
X8825729Y-1593477D02*
X8825729Y-1617286D01*
X8825729Y-1617286D02*
X8820967Y-1636334D01*
X8820967Y-1636334D02*
X8816205Y-1645858D01*
X8816205Y-1645858D02*
X8811443Y-1650620D01*
X8811443Y-1650620D02*
X8801919Y-1655382D01*
X8801919Y-1655382D02*
X8792395Y-1655382D01*
X8792395Y-1655382D02*
X8782871Y-1650620D01*
X8782871Y-1650620D02*
X8778110Y-1645858D01*
X8778110Y-1645858D02*
X8773348Y-1636334D01*
X8773348Y-1636334D02*
X8768586Y-1617286D01*
X8768586Y-1617286D02*
X8768586Y-1593477D01*
X8768586Y-1593477D02*
X8773348Y-1574429D01*
X8773348Y-1574429D02*
X8778110Y-1564905D01*
X8778110Y-1564905D02*
X8782871Y-1560143D01*
X8782871Y-1560143D02*
X8792395Y-1555382D01*
X8868586Y-1617286D02*
X8944776Y-1617286D01*
X9044776Y-1655382D02*
X8987633Y-1655382D01*
X9016205Y-1655382D02*
X9016205Y-1555382D01*
X9016205Y-1555382D02*
X9006681Y-1569667D01*
X9006681Y-1569667D02*
X8997157Y-1579191D01*
X8997157Y-1579191D02*
X8987633Y-1583953D01*
X9130490Y-1555382D02*
X9111443Y-1555382D01*
X9111443Y-1555382D02*
X9101919Y-1560143D01*
X9101919Y-1560143D02*
X9097157Y-1564905D01*
X9097157Y-1564905D02*
X9087633Y-1579191D01*
X9087633Y-1579191D02*
X9082871Y-1598239D01*
X9082871Y-1598239D02*
X9082871Y-1636334D01*
X9082871Y-1636334D02*
X9087633Y-1645858D01*
X9087633Y-1645858D02*
X9092395Y-1650620D01*
X9092395Y-1650620D02*
X9101919Y-1655382D01*
X9101919Y-1655382D02*
X9120967Y-1655382D01*
X9120967Y-1655382D02*
X9130490Y-1650620D01*
X9130490Y-1650620D02*
X9135252Y-1645858D01*
X9135252Y-1645858D02*
X9140014Y-1636334D01*
X9140014Y-1636334D02*
X9140014Y-1612524D01*
X9140014Y-1612524D02*
X9135252Y-1603001D01*
X9135252Y-1603001D02*
X9130490Y-1598239D01*
X9130490Y-1598239D02*
X9120967Y-1593477D01*
X9120967Y-1593477D02*
X9101919Y-1593477D01*
X9101919Y-1593477D02*
X9092395Y-1598239D01*
X9092395Y-1598239D02*
X9087633Y-1603001D01*
X9087633Y-1603001D02*
X9082871Y-1612524D01*
X9475482Y-43809D02*
X9427863Y-77143D01*
X9475482Y-100952D02*
X9375482Y-100952D01*
X9375482Y-100952D02*
X9375482Y-62857D01*
X9375482Y-62857D02*
X9380244Y-53333D01*
X9380244Y-53333D02*
X9385006Y-48571D01*
X9385006Y-48571D02*
X9394530Y-43809D01*
X9394530Y-43809D02*
X9408815Y-43809D01*
X9408815Y-43809D02*
X9418339Y-48571D01*
X9418339Y-48571D02*
X9423101Y-53333D01*
X9423101Y-53333D02*
X9427863Y-62857D01*
X9427863Y-62857D02*
X9427863Y-100952D01*
X9437387Y-952D02*
X9437387Y75238D01*
X9408815Y113334D02*
X9475482Y137143D01*
X9475482Y137143D02*
X9408815Y160953D01*
X9375482Y218095D02*
X9375482Y227619D01*
X9375482Y227619D02*
X9380244Y237143D01*
X9380244Y237143D02*
X9385006Y241905D01*
X9385006Y241905D02*
X9394530Y246667D01*
X9394530Y246667D02*
X9413577Y251429D01*
X9413577Y251429D02*
X9437387Y251429D01*
X9437387Y251429D02*
X9456434Y246667D01*
X9456434Y246667D02*
X9465958Y241905D01*
X9465958Y241905D02*
X9470720Y237143D01*
X9470720Y237143D02*
X9475482Y227619D01*
X9475482Y227619D02*
X9475482Y218095D01*
X9475482Y218095D02*
X9470720Y208572D01*
X9470720Y208572D02*
X9465958Y203810D01*
X9465958Y203810D02*
X9456434Y199048D01*
X9456434Y199048D02*
X9437387Y194286D01*
X9437387Y194286D02*
X9413577Y194286D01*
X9413577Y194286D02*
X9394530Y199048D01*
X9394530Y199048D02*
X9385006Y203810D01*
X9385006Y203810D02*
X9380244Y208572D01*
X9380244Y208572D02*
X9375482Y218095D01*
X9437387Y294286D02*
X9437387Y370476D01*
X9385006Y413334D02*
X9380244Y418095D01*
X9380244Y418095D02*
X9375482Y427619D01*
X9375482Y427619D02*
X9375482Y451429D01*
X9375482Y451429D02*
X9380244Y460953D01*
X9380244Y460953D02*
X9385006Y465714D01*
X9385006Y465714D02*
X9394530Y470476D01*
X9394530Y470476D02*
X9404053Y470476D01*
X9404053Y470476D02*
X9418339Y465714D01*
X9418339Y465714D02*
X9475482Y408572D01*
X9475482Y408572D02*
X9475482Y470476D01*
X9375482Y556191D02*
X9375482Y537143D01*
X9375482Y537143D02*
X9380244Y527619D01*
X9380244Y527619D02*
X9385006Y522857D01*
X9385006Y522857D02*
X9399291Y513334D01*
X9399291Y513334D02*
X9418339Y508572D01*
X9418339Y508572D02*
X9456434Y508572D01*
X9456434Y508572D02*
X9465958Y513334D01*
X9465958Y513334D02*
X9470720Y518095D01*
X9470720Y518095D02*
X9475482Y527619D01*
X9475482Y527619D02*
X9475482Y546667D01*
X9475482Y546667D02*
X9470720Y556191D01*
X9470720Y556191D02*
X9465958Y560953D01*
X9465958Y560953D02*
X9456434Y565715D01*
X9456434Y565715D02*
X9432625Y565715D01*
X9432625Y565715D02*
X9423101Y560953D01*
X9423101Y560953D02*
X9418339Y556191D01*
X9418339Y556191D02*
X9413577Y546667D01*
X9413577Y546667D02*
X9413577Y527619D01*
X9413577Y527619D02*
X9418339Y518095D01*
X9418339Y518095D02*
X9423101Y513334D01*
X9423101Y513334D02*
X9432625Y508572D01*
X10642833Y-3089958D02*
X10638071Y-3094720D01*
X10638071Y-3094720D02*
X10623786Y-3099482D01*
X10623786Y-3099482D02*
X10614262Y-3099482D01*
X10614262Y-3099482D02*
X10599976Y-3094720D01*
X10599976Y-3094720D02*
X10590452Y-3085196D01*
X10590452Y-3085196D02*
X10585691Y-3075672D01*
X10585691Y-3075672D02*
X10580929Y-3056624D01*
X10580929Y-3056624D02*
X10580929Y-3042339D01*
X10580929Y-3042339D02*
X10585691Y-3023291D01*
X10585691Y-3023291D02*
X10590452Y-3013767D01*
X10590452Y-3013767D02*
X10599976Y-3004243D01*
X10599976Y-3004243D02*
X10614262Y-2999482D01*
X10614262Y-2999482D02*
X10623786Y-2999482D01*
X10623786Y-2999482D02*
X10638071Y-3004243D01*
X10638071Y-3004243D02*
X10642833Y-3009005D01*
X10728548Y-3032815D02*
X10728548Y-3099482D01*
X10704738Y-2994720D02*
X10680929Y-3066148D01*
X10680929Y-3066148D02*
X10742833Y-3066148D01*
X9469048Y-2560720D02*
X9483333Y-2565482D01*
X9483333Y-2565482D02*
X9507143Y-2565482D01*
X9507143Y-2565482D02*
X9516667Y-2560720D01*
X9516667Y-2560720D02*
X9521429Y-2555958D01*
X9521429Y-2555958D02*
X9526190Y-2546434D01*
X9526190Y-2546434D02*
X9526190Y-2536910D01*
X9526190Y-2536910D02*
X9521429Y-2527386D01*
X9521429Y-2527386D02*
X9516667Y-2522624D01*
X9516667Y-2522624D02*
X9507143Y-2517863D01*
X9507143Y-2517863D02*
X9488095Y-2513101D01*
X9488095Y-2513101D02*
X9478571Y-2508339D01*
X9478571Y-2508339D02*
X9473810Y-2503577D01*
X9473810Y-2503577D02*
X9469048Y-2494053D01*
X9469048Y-2494053D02*
X9469048Y-2484529D01*
X9469048Y-2484529D02*
X9473810Y-2475005D01*
X9473810Y-2475005D02*
X9478571Y-2470244D01*
X9478571Y-2470244D02*
X9488095Y-2465482D01*
X9488095Y-2465482D02*
X9511905Y-2465482D01*
X9511905Y-2465482D02*
X9526190Y-2470244D01*
X9559524Y-2465482D02*
X9583333Y-2565482D01*
X9583333Y-2565482D02*
X9602381Y-2494053D01*
X9602381Y-2494053D02*
X9621429Y-2565482D01*
X9621429Y-2565482D02*
X9645238Y-2465482D01*
X9735714Y-2565482D02*
X9678571Y-2565482D01*
X9707143Y-2565482D02*
X9707143Y-2465482D01*
X9707143Y-2465482D02*
X9697619Y-2479767D01*
X9697619Y-2479767D02*
X9688095Y-2489291D01*
X9688095Y-2489291D02*
X9678571Y-2494053D01*
X9769048Y-2465482D02*
X9830952Y-2465482D01*
X9830952Y-2465482D02*
X9797619Y-2503577D01*
X9797619Y-2503577D02*
X9811905Y-2503577D01*
X9811905Y-2503577D02*
X9821429Y-2508339D01*
X9821429Y-2508339D02*
X9826190Y-2513101D01*
X9826190Y-2513101D02*
X9830952Y-2522624D01*
X9830952Y-2522624D02*
X9830952Y-2546434D01*
X9830952Y-2546434D02*
X9826190Y-2555958D01*
X9826190Y-2555958D02*
X9821429Y-2560720D01*
X9821429Y-2560720D02*
X9811905Y-2565482D01*
X9811905Y-2565482D02*
X9783333Y-2565482D01*
X9783333Y-2565482D02*
X9773810Y-2560720D01*
X9773810Y-2560720D02*
X9769048Y-2555958D01*
X2819048Y-3610720D02*
X2833333Y-3615482D01*
X2833333Y-3615482D02*
X2857143Y-3615482D01*
X2857143Y-3615482D02*
X2866667Y-3610720D01*
X2866667Y-3610720D02*
X2871428Y-3605958D01*
X2871428Y-3605958D02*
X2876190Y-3596434D01*
X2876190Y-3596434D02*
X2876190Y-3586910D01*
X2876190Y-3586910D02*
X2871428Y-3577386D01*
X2871428Y-3577386D02*
X2866667Y-3572624D01*
X2866667Y-3572624D02*
X2857143Y-3567862D01*
X2857143Y-3567862D02*
X2838095Y-3563101D01*
X2838095Y-3563101D02*
X2828571Y-3558339D01*
X2828571Y-3558339D02*
X2823809Y-3553577D01*
X2823809Y-3553577D02*
X2819048Y-3544053D01*
X2819048Y-3544053D02*
X2819048Y-3534529D01*
X2819048Y-3534529D02*
X2823809Y-3525005D01*
X2823809Y-3525005D02*
X2828571Y-3520243D01*
X2828571Y-3520243D02*
X2838095Y-3515482D01*
X2838095Y-3515482D02*
X2861905Y-3515482D01*
X2861905Y-3515482D02*
X2876190Y-3520243D01*
X2909524Y-3515482D02*
X2933333Y-3615482D01*
X2933333Y-3615482D02*
X2952381Y-3544053D01*
X2952381Y-3544053D02*
X2971428Y-3615482D01*
X2971428Y-3615482D02*
X2995238Y-3515482D01*
X3085714Y-3615482D02*
X3028571Y-3615482D01*
X3057143Y-3615482D02*
X3057143Y-3515482D01*
X3057143Y-3515482D02*
X3047619Y-3529767D01*
X3047619Y-3529767D02*
X3038095Y-3539291D01*
X3038095Y-3539291D02*
X3028571Y-3544053D01*
X3180952Y-3615482D02*
X3123809Y-3615482D01*
X3152381Y-3615482D02*
X3152381Y-3515482D01*
X3152381Y-3515482D02*
X3142857Y-3529767D01*
X3142857Y-3529767D02*
X3133333Y-3539291D01*
X3133333Y-3539291D02*
X3123809Y-3544053D01*
X14316667Y-2360720D02*
X14330952Y-2365482D01*
X14330952Y-2365482D02*
X14354762Y-2365482D01*
X14354762Y-2365482D02*
X14364286Y-2360720D01*
X14364286Y-2360720D02*
X14369048Y-2355958D01*
X14369048Y-2355958D02*
X14373809Y-2346434D01*
X14373809Y-2346434D02*
X14373809Y-2336910D01*
X14373809Y-2336910D02*
X14369048Y-2327386D01*
X14369048Y-2327386D02*
X14364286Y-2322624D01*
X14364286Y-2322624D02*
X14354762Y-2317863D01*
X14354762Y-2317863D02*
X14335714Y-2313101D01*
X14335714Y-2313101D02*
X14326190Y-2308339D01*
X14326190Y-2308339D02*
X14321429Y-2303577D01*
X14321429Y-2303577D02*
X14316667Y-2294053D01*
X14316667Y-2294053D02*
X14316667Y-2284529D01*
X14316667Y-2284529D02*
X14321429Y-2275005D01*
X14321429Y-2275005D02*
X14326190Y-2270244D01*
X14326190Y-2270244D02*
X14335714Y-2265482D01*
X14335714Y-2265482D02*
X14359524Y-2265482D01*
X14359524Y-2265482D02*
X14373809Y-2270244D01*
X14407143Y-2265482D02*
X14430952Y-2365482D01*
X14430952Y-2365482D02*
X14450000Y-2294053D01*
X14450000Y-2294053D02*
X14469048Y-2365482D01*
X14469048Y-2365482D02*
X14492857Y-2265482D01*
X14526190Y-2275005D02*
X14530952Y-2270244D01*
X14530952Y-2270244D02*
X14540476Y-2265482D01*
X14540476Y-2265482D02*
X14564286Y-2265482D01*
X14564286Y-2265482D02*
X14573809Y-2270244D01*
X14573809Y-2270244D02*
X14578571Y-2275005D01*
X14578571Y-2275005D02*
X14583333Y-2284529D01*
X14583333Y-2284529D02*
X14583333Y-2294053D01*
X14583333Y-2294053D02*
X14578571Y-2308339D01*
X14578571Y-2308339D02*
X14521429Y-2365482D01*
X14521429Y-2365482D02*
X14583333Y-2365482D01*
X9175482Y-43809D02*
X9127863Y-77143D01*
X9175482Y-100952D02*
X9075482Y-100952D01*
X9075482Y-100952D02*
X9075482Y-62857D01*
X9075482Y-62857D02*
X9080244Y-53333D01*
X9080244Y-53333D02*
X9085006Y-48571D01*
X9085006Y-48571D02*
X9094530Y-43809D01*
X9094530Y-43809D02*
X9108815Y-43809D01*
X9108815Y-43809D02*
X9118339Y-48571D01*
X9118339Y-48571D02*
X9123101Y-53333D01*
X9123101Y-53333D02*
X9127863Y-62857D01*
X9127863Y-62857D02*
X9127863Y-100952D01*
X9137387Y-952D02*
X9137387Y75238D01*
X9108815Y113334D02*
X9175482Y137143D01*
X9175482Y137143D02*
X9108815Y160953D01*
X9075482Y218095D02*
X9075482Y227619D01*
X9075482Y227619D02*
X9080244Y237143D01*
X9080244Y237143D02*
X9085006Y241905D01*
X9085006Y241905D02*
X9094530Y246667D01*
X9094530Y246667D02*
X9113577Y251429D01*
X9113577Y251429D02*
X9137387Y251429D01*
X9137387Y251429D02*
X9156434Y246667D01*
X9156434Y246667D02*
X9165958Y241905D01*
X9165958Y241905D02*
X9170720Y237143D01*
X9170720Y237143D02*
X9175482Y227619D01*
X9175482Y227619D02*
X9175482Y218095D01*
X9175482Y218095D02*
X9170720Y208572D01*
X9170720Y208572D02*
X9165958Y203810D01*
X9165958Y203810D02*
X9156434Y199048D01*
X9156434Y199048D02*
X9137387Y194286D01*
X9137387Y194286D02*
X9113577Y194286D01*
X9113577Y194286D02*
X9094530Y199048D01*
X9094530Y199048D02*
X9085006Y203810D01*
X9085006Y203810D02*
X9080244Y208572D01*
X9080244Y208572D02*
X9075482Y218095D01*
X9137387Y294286D02*
X9137387Y370476D01*
X9085006Y413334D02*
X9080244Y418095D01*
X9080244Y418095D02*
X9075482Y427619D01*
X9075482Y427619D02*
X9075482Y451429D01*
X9075482Y451429D02*
X9080244Y460953D01*
X9080244Y460953D02*
X9085006Y465714D01*
X9085006Y465714D02*
X9094530Y470476D01*
X9094530Y470476D02*
X9104053Y470476D01*
X9104053Y470476D02*
X9118339Y465714D01*
X9118339Y465714D02*
X9175482Y408572D01*
X9175482Y408572D02*
X9175482Y470476D01*
X9108815Y556191D02*
X9175482Y556191D01*
X9070720Y532381D02*
X9142149Y508572D01*
X9142149Y508572D02*
X9142149Y570476D01*
X11568958Y-5320416D02*
X11573720Y-5325178D01*
X11573720Y-5325178D02*
X11578482Y-5339464D01*
X11578482Y-5339464D02*
X11578482Y-5348988D01*
X11578482Y-5348988D02*
X11573720Y-5363273D01*
X11573720Y-5363273D02*
X11564196Y-5372797D01*
X11564196Y-5372797D02*
X11554672Y-5377559D01*
X11554672Y-5377559D02*
X11535625Y-5382321D01*
X11535625Y-5382321D02*
X11521339Y-5382321D01*
X11521339Y-5382321D02*
X11502291Y-5377559D01*
X11502291Y-5377559D02*
X11492768Y-5372797D01*
X11492768Y-5372797D02*
X11483244Y-5363273D01*
X11483244Y-5363273D02*
X11478482Y-5348988D01*
X11478482Y-5348988D02*
X11478482Y-5339464D01*
X11478482Y-5339464D02*
X11483244Y-5325178D01*
X11483244Y-5325178D02*
X11488006Y-5320416D01*
X11488006Y-5282321D02*
X11483244Y-5277559D01*
X11483244Y-5277559D02*
X11478482Y-5268035D01*
X11478482Y-5268035D02*
X11478482Y-5244226D01*
X11478482Y-5244226D02*
X11483244Y-5234702D01*
X11483244Y-5234702D02*
X11488006Y-5229940D01*
X11488006Y-5229940D02*
X11497529Y-5225178D01*
X11497529Y-5225178D02*
X11507053Y-5225178D01*
X11507053Y-5225178D02*
X11521339Y-5229940D01*
X11521339Y-5229940D02*
X11578482Y-5287083D01*
X11578482Y-5287083D02*
X11578482Y-5225178D01*
X1616667Y-2360720D02*
X1630952Y-2365482D01*
X1630952Y-2365482D02*
X1654762Y-2365482D01*
X1654762Y-2365482D02*
X1664286Y-2360720D01*
X1664286Y-2360720D02*
X1669048Y-2355958D01*
X1669048Y-2355958D02*
X1673809Y-2346434D01*
X1673809Y-2346434D02*
X1673809Y-2336910D01*
X1673809Y-2336910D02*
X1669048Y-2327386D01*
X1669048Y-2327386D02*
X1664286Y-2322624D01*
X1664286Y-2322624D02*
X1654762Y-2317863D01*
X1654762Y-2317863D02*
X1635714Y-2313101D01*
X1635714Y-2313101D02*
X1626190Y-2308339D01*
X1626190Y-2308339D02*
X1621429Y-2303577D01*
X1621429Y-2303577D02*
X1616667Y-2294053D01*
X1616667Y-2294053D02*
X1616667Y-2284529D01*
X1616667Y-2284529D02*
X1621429Y-2275005D01*
X1621429Y-2275005D02*
X1626190Y-2270244D01*
X1626190Y-2270244D02*
X1635714Y-2265482D01*
X1635714Y-2265482D02*
X1659524Y-2265482D01*
X1659524Y-2265482D02*
X1673809Y-2270244D01*
X1707143Y-2265482D02*
X1730952Y-2365482D01*
X1730952Y-2365482D02*
X1750000Y-2294053D01*
X1750000Y-2294053D02*
X1769048Y-2365482D01*
X1769048Y-2365482D02*
X1792857Y-2265482D01*
X1835714Y-2365482D02*
X1854762Y-2365482D01*
X1854762Y-2365482D02*
X1864286Y-2360720D01*
X1864286Y-2360720D02*
X1869048Y-2355958D01*
X1869048Y-2355958D02*
X1878571Y-2341672D01*
X1878571Y-2341672D02*
X1883333Y-2322624D01*
X1883333Y-2322624D02*
X1883333Y-2284529D01*
X1883333Y-2284529D02*
X1878571Y-2275005D01*
X1878571Y-2275005D02*
X1873809Y-2270244D01*
X1873809Y-2270244D02*
X1864286Y-2265482D01*
X1864286Y-2265482D02*
X1845238Y-2265482D01*
X1845238Y-2265482D02*
X1835714Y-2270244D01*
X1835714Y-2270244D02*
X1830952Y-2275005D01*
X1830952Y-2275005D02*
X1826190Y-2284529D01*
X1826190Y-2284529D02*
X1826190Y-2308339D01*
X1826190Y-2308339D02*
X1830952Y-2317863D01*
X1830952Y-2317863D02*
X1835714Y-2322624D01*
X1835714Y-2322624D02*
X1845238Y-2327386D01*
X1845238Y-2327386D02*
X1864286Y-2327386D01*
X1864286Y-2327386D02*
X1873809Y-2322624D01*
X1873809Y-2322624D02*
X1878571Y-2317863D01*
X1878571Y-2317863D02*
X1883333Y-2308339D01*
X5126191Y-72482D02*
X5126191Y27518D01*
X5126191Y27518D02*
X5150000Y27518D01*
X5150000Y27518D02*
X5164286Y22756D01*
X5164286Y22756D02*
X5173810Y13233D01*
X5173810Y13233D02*
X5178571Y3709D01*
X5178571Y3709D02*
X5183333Y-15339D01*
X5183333Y-15339D02*
X5183333Y-29624D01*
X5183333Y-29624D02*
X5178571Y-48672D01*
X5178571Y-48672D02*
X5173810Y-58196D01*
X5173810Y-58196D02*
X5164286Y-67720D01*
X5164286Y-67720D02*
X5150000Y-72482D01*
X5150000Y-72482D02*
X5126191Y-72482D01*
X5269048Y-5815D02*
X5269048Y-72482D01*
X5245238Y32280D02*
X5221429Y-39148D01*
X5221429Y-39148D02*
X5283333Y-39148D01*
X7833333Y-3268958D02*
X7828571Y-3273720D01*
X7828571Y-3273720D02*
X7814286Y-3278482D01*
X7814286Y-3278482D02*
X7804762Y-3278482D01*
X7804762Y-3278482D02*
X7790476Y-3273720D01*
X7790476Y-3273720D02*
X7780952Y-3264196D01*
X7780952Y-3264196D02*
X7776190Y-3254672D01*
X7776190Y-3254672D02*
X7771429Y-3235624D01*
X7771429Y-3235624D02*
X7771429Y-3221339D01*
X7771429Y-3221339D02*
X7776190Y-3202291D01*
X7776190Y-3202291D02*
X7780952Y-3192767D01*
X7780952Y-3192767D02*
X7790476Y-3183243D01*
X7790476Y-3183243D02*
X7804762Y-3178482D01*
X7804762Y-3178482D02*
X7814286Y-3178482D01*
X7814286Y-3178482D02*
X7828571Y-3183243D01*
X7828571Y-3183243D02*
X7833333Y-3188005D01*
X7866667Y-3178482D02*
X7933333Y-3178482D01*
X7933333Y-3178482D02*
X7890476Y-3278482D01*
X11578482Y-5176190D02*
X11530863Y-5209523D01*
X11578482Y-5233333D02*
X11478482Y-5233333D01*
X11478482Y-5233333D02*
X11478482Y-5195238D01*
X11478482Y-5195238D02*
X11483244Y-5185714D01*
X11483244Y-5185714D02*
X11488006Y-5180952D01*
X11488006Y-5180952D02*
X11497529Y-5176190D01*
X11497529Y-5176190D02*
X11511815Y-5176190D01*
X11511815Y-5176190D02*
X11521339Y-5180952D01*
X11521339Y-5180952D02*
X11526101Y-5185714D01*
X11526101Y-5185714D02*
X11530863Y-5195238D01*
X11530863Y-5195238D02*
X11530863Y-5233333D01*
X11540387Y-5133333D02*
X11540387Y-5057143D01*
X11511815Y-5019047D02*
X11578482Y-4995238D01*
X11578482Y-4995238D02*
X11511815Y-4971428D01*
X11478482Y-4914285D02*
X11478482Y-4904762D01*
X11478482Y-4904762D02*
X11483244Y-4895238D01*
X11483244Y-4895238D02*
X11488006Y-4890476D01*
X11488006Y-4890476D02*
X11497529Y-4885714D01*
X11497529Y-4885714D02*
X11516577Y-4880952D01*
X11516577Y-4880952D02*
X11540387Y-4880952D01*
X11540387Y-4880952D02*
X11559434Y-4885714D01*
X11559434Y-4885714D02*
X11568958Y-4890476D01*
X11568958Y-4890476D02*
X11573720Y-4895238D01*
X11573720Y-4895238D02*
X11578482Y-4904762D01*
X11578482Y-4904762D02*
X11578482Y-4914285D01*
X11578482Y-4914285D02*
X11573720Y-4923809D01*
X11573720Y-4923809D02*
X11568958Y-4928571D01*
X11568958Y-4928571D02*
X11559434Y-4933333D01*
X11559434Y-4933333D02*
X11540387Y-4938095D01*
X11540387Y-4938095D02*
X11516577Y-4938095D01*
X11516577Y-4938095D02*
X11497529Y-4933333D01*
X11497529Y-4933333D02*
X11488006Y-4928571D01*
X11488006Y-4928571D02*
X11483244Y-4923809D01*
X11483244Y-4923809D02*
X11478482Y-4914285D01*
X11540387Y-4838095D02*
X11540387Y-4761904D01*
X11578482Y-4709523D02*
X11578482Y-4690476D01*
X11578482Y-4690476D02*
X11573720Y-4680952D01*
X11573720Y-4680952D02*
X11568958Y-4676190D01*
X11568958Y-4676190D02*
X11554672Y-4666666D01*
X11554672Y-4666666D02*
X11535625Y-4661904D01*
X11535625Y-4661904D02*
X11497529Y-4661904D01*
X11497529Y-4661904D02*
X11488006Y-4666666D01*
X11488006Y-4666666D02*
X11483244Y-4671428D01*
X11483244Y-4671428D02*
X11478482Y-4680952D01*
X11478482Y-4680952D02*
X11478482Y-4700000D01*
X11478482Y-4700000D02*
X11483244Y-4709523D01*
X11483244Y-4709523D02*
X11488006Y-4714285D01*
X11488006Y-4714285D02*
X11497529Y-4719047D01*
X11497529Y-4719047D02*
X11521339Y-4719047D01*
X11521339Y-4719047D02*
X11530863Y-4714285D01*
X11530863Y-4714285D02*
X11535625Y-4709523D01*
X11535625Y-4709523D02*
X11540387Y-4700000D01*
X11540387Y-4700000D02*
X11540387Y-4680952D01*
X11540387Y-4680952D02*
X11535625Y-4671428D01*
X11535625Y-4671428D02*
X11530863Y-4666666D01*
X11530863Y-4666666D02*
X11521339Y-4661904D01*
X6069048Y-2560720D02*
X6083333Y-2565482D01*
X6083333Y-2565482D02*
X6107143Y-2565482D01*
X6107143Y-2565482D02*
X6116667Y-2560720D01*
X6116667Y-2560720D02*
X6121428Y-2555958D01*
X6121428Y-2555958D02*
X6126190Y-2546434D01*
X6126190Y-2546434D02*
X6126190Y-2536910D01*
X6126190Y-2536910D02*
X6121428Y-2527386D01*
X6121428Y-2527386D02*
X6116667Y-2522624D01*
X6116667Y-2522624D02*
X6107143Y-2517863D01*
X6107143Y-2517863D02*
X6088095Y-2513101D01*
X6088095Y-2513101D02*
X6078571Y-2508339D01*
X6078571Y-2508339D02*
X6073809Y-2503577D01*
X6073809Y-2503577D02*
X6069048Y-2494053D01*
X6069048Y-2494053D02*
X6069048Y-2484529D01*
X6069048Y-2484529D02*
X6073809Y-2475005D01*
X6073809Y-2475005D02*
X6078571Y-2470244D01*
X6078571Y-2470244D02*
X6088095Y-2465482D01*
X6088095Y-2465482D02*
X6111905Y-2465482D01*
X6111905Y-2465482D02*
X6126190Y-2470244D01*
X6159524Y-2465482D02*
X6183333Y-2565482D01*
X6183333Y-2565482D02*
X6202381Y-2494053D01*
X6202381Y-2494053D02*
X6221428Y-2565482D01*
X6221428Y-2565482D02*
X6245238Y-2465482D01*
X6335714Y-2565482D02*
X6278571Y-2565482D01*
X6307143Y-2565482D02*
X6307143Y-2465482D01*
X6307143Y-2465482D02*
X6297619Y-2479767D01*
X6297619Y-2479767D02*
X6288095Y-2489291D01*
X6288095Y-2489291D02*
X6278571Y-2494053D01*
X6373809Y-2475005D02*
X6378571Y-2470244D01*
X6378571Y-2470244D02*
X6388095Y-2465482D01*
X6388095Y-2465482D02*
X6411905Y-2465482D01*
X6411905Y-2465482D02*
X6421428Y-2470244D01*
X6421428Y-2470244D02*
X6426190Y-2475005D01*
X6426190Y-2475005D02*
X6430952Y-2484529D01*
X6430952Y-2484529D02*
X6430952Y-2494053D01*
X6430952Y-2494053D02*
X6426190Y-2508339D01*
X6426190Y-2508339D02*
X6369048Y-2565482D01*
X6369048Y-2565482D02*
X6430952Y-2565482D01*
X9775482Y408572D02*
X9675482Y408572D01*
X9675482Y408572D02*
X9675482Y432381D01*
X9675482Y432381D02*
X9680244Y446667D01*
X9680244Y446667D02*
X9689768Y456191D01*
X9689768Y456191D02*
X9699291Y460953D01*
X9699291Y460953D02*
X9718339Y465714D01*
X9718339Y465714D02*
X9732625Y465714D01*
X9732625Y465714D02*
X9751672Y460953D01*
X9751672Y460953D02*
X9761196Y456191D01*
X9761196Y456191D02*
X9770720Y446667D01*
X9770720Y446667D02*
X9775482Y432381D01*
X9775482Y432381D02*
X9775482Y408572D01*
X9775482Y560953D02*
X9775482Y503810D01*
X9775482Y532381D02*
X9675482Y532381D01*
X9675482Y532381D02*
X9689768Y522857D01*
X9689768Y522857D02*
X9699291Y513334D01*
X9699291Y513334D02*
X9704053Y503810D01*
X9685006Y599048D02*
X9680244Y603810D01*
X9680244Y603810D02*
X9675482Y613334D01*
X9675482Y613334D02*
X9675482Y637143D01*
X9675482Y637143D02*
X9680244Y646667D01*
X9680244Y646667D02*
X9685006Y651429D01*
X9685006Y651429D02*
X9694530Y656191D01*
X9694530Y656191D02*
X9704053Y656191D01*
X9704053Y656191D02*
X9718339Y651429D01*
X9718339Y651429D02*
X9775482Y594286D01*
X9775482Y594286D02*
X9775482Y656191D01*
X6973158Y-4526066D02*
X6977920Y-4530828D01*
X6977920Y-4530828D02*
X6982682Y-4545114D01*
X6982682Y-4545114D02*
X6982682Y-4554638D01*
X6982682Y-4554638D02*
X6977920Y-4568923D01*
X6977920Y-4568923D02*
X6968396Y-4578447D01*
X6968396Y-4578447D02*
X6958872Y-4583209D01*
X6958872Y-4583209D02*
X6939825Y-4587971D01*
X6939825Y-4587971D02*
X6925539Y-4587971D01*
X6925539Y-4587971D02*
X6906491Y-4583209D01*
X6906491Y-4583209D02*
X6896968Y-4578447D01*
X6896968Y-4578447D02*
X6887444Y-4568923D01*
X6887444Y-4568923D02*
X6882682Y-4554638D01*
X6882682Y-4554638D02*
X6882682Y-4545114D01*
X6882682Y-4545114D02*
X6887444Y-4530828D01*
X6887444Y-4530828D02*
X6892206Y-4526066D01*
X6882682Y-4435590D02*
X6882682Y-4483209D01*
X6882682Y-4483209D02*
X6930301Y-4487971D01*
X6930301Y-4487971D02*
X6925539Y-4483209D01*
X6925539Y-4483209D02*
X6920777Y-4473685D01*
X6920777Y-4473685D02*
X6920777Y-4449876D01*
X6920777Y-4449876D02*
X6925539Y-4440352D01*
X6925539Y-4440352D02*
X6930301Y-4435590D01*
X6930301Y-4435590D02*
X6939825Y-4430828D01*
X6939825Y-4430828D02*
X6963634Y-4430828D01*
X6963634Y-4430828D02*
X6973158Y-4435590D01*
X6973158Y-4435590D02*
X6977920Y-4440352D01*
X6977920Y-4440352D02*
X6982682Y-4449876D01*
X6982682Y-4449876D02*
X6982682Y-4473685D01*
X6982682Y-4473685D02*
X6977920Y-4483209D01*
X6977920Y-4483209D02*
X6973158Y-4487971D01*
X5476191Y-72482D02*
X5476191Y27518D01*
X5476191Y27518D02*
X5500000Y27518D01*
X5500000Y27518D02*
X5514286Y22756D01*
X5514286Y22756D02*
X5523810Y13233D01*
X5523810Y13233D02*
X5528571Y3709D01*
X5528571Y3709D02*
X5533333Y-15339D01*
X5533333Y-15339D02*
X5533333Y-29624D01*
X5533333Y-29624D02*
X5528571Y-48672D01*
X5528571Y-48672D02*
X5523810Y-58196D01*
X5523810Y-58196D02*
X5514286Y-67720D01*
X5514286Y-67720D02*
X5500000Y-72482D01*
X5500000Y-72482D02*
X5476191Y-72482D01*
X5623809Y27518D02*
X5576191Y27518D01*
X5576191Y27518D02*
X5571429Y-20101D01*
X5571429Y-20101D02*
X5576191Y-15339D01*
X5576191Y-15339D02*
X5585714Y-10577D01*
X5585714Y-10577D02*
X5609524Y-10577D01*
X5609524Y-10577D02*
X5619048Y-15339D01*
X5619048Y-15339D02*
X5623809Y-20101D01*
X5623809Y-20101D02*
X5628571Y-29624D01*
X5628571Y-29624D02*
X5628571Y-53434D01*
X5628571Y-53434D02*
X5623809Y-62958D01*
X5623809Y-62958D02*
X5619048Y-67720D01*
X5619048Y-67720D02*
X5609524Y-72482D01*
X5609524Y-72482D02*
X5585714Y-72482D01*
X5585714Y-72482D02*
X5576191Y-67720D01*
X5576191Y-67720D02*
X5571429Y-62958D01*
X6907482Y-4046190D02*
X6988434Y-4046190D01*
X6988434Y-4046190D02*
X6997958Y-4041428D01*
X6997958Y-4041428D02*
X7002720Y-4036666D01*
X7002720Y-4036666D02*
X7007482Y-4027142D01*
X7007482Y-4027142D02*
X7007482Y-4008095D01*
X7007482Y-4008095D02*
X7002720Y-3998571D01*
X7002720Y-3998571D02*
X6997958Y-3993809D01*
X6997958Y-3993809D02*
X6988434Y-3989047D01*
X6988434Y-3989047D02*
X6907482Y-3989047D01*
X7007482Y-3889047D02*
X7007482Y-3946190D01*
X7007482Y-3917619D02*
X6907482Y-3917619D01*
X6907482Y-3917619D02*
X6921768Y-3927142D01*
X6921768Y-3927142D02*
X6931291Y-3936666D01*
X6931291Y-3936666D02*
X6936053Y-3946190D01*
X5290982Y-693809D02*
X5243363Y-727142D01*
X5290982Y-750952D02*
X5190982Y-750952D01*
X5190982Y-750952D02*
X5190982Y-712857D01*
X5190982Y-712857D02*
X5195744Y-703333D01*
X5195744Y-703333D02*
X5200506Y-698571D01*
X5200506Y-698571D02*
X5210030Y-693809D01*
X5210030Y-693809D02*
X5224315Y-693809D01*
X5224315Y-693809D02*
X5233839Y-698571D01*
X5233839Y-698571D02*
X5238601Y-703333D01*
X5238601Y-703333D02*
X5243363Y-712857D01*
X5243363Y-712857D02*
X5243363Y-750952D01*
X5252887Y-650952D02*
X5252887Y-574762D01*
X5224315Y-536666D02*
X5290982Y-512857D01*
X5290982Y-512857D02*
X5224315Y-489047D01*
X5190982Y-431904D02*
X5190982Y-422381D01*
X5190982Y-422381D02*
X5195744Y-412857D01*
X5195744Y-412857D02*
X5200506Y-408095D01*
X5200506Y-408095D02*
X5210030Y-403333D01*
X5210030Y-403333D02*
X5229077Y-398571D01*
X5229077Y-398571D02*
X5252887Y-398571D01*
X5252887Y-398571D02*
X5271934Y-403333D01*
X5271934Y-403333D02*
X5281458Y-408095D01*
X5281458Y-408095D02*
X5286220Y-412857D01*
X5286220Y-412857D02*
X5290982Y-422381D01*
X5290982Y-422381D02*
X5290982Y-431904D01*
X5290982Y-431904D02*
X5286220Y-441428D01*
X5286220Y-441428D02*
X5281458Y-446190D01*
X5281458Y-446190D02*
X5271934Y-450952D01*
X5271934Y-450952D02*
X5252887Y-455714D01*
X5252887Y-455714D02*
X5229077Y-455714D01*
X5229077Y-455714D02*
X5210030Y-450952D01*
X5210030Y-450952D02*
X5200506Y-446190D01*
X5200506Y-446190D02*
X5195744Y-441428D01*
X5195744Y-441428D02*
X5190982Y-431904D01*
X5252887Y-355714D02*
X5252887Y-279524D01*
X5200506Y-236666D02*
X5195744Y-231904D01*
X5195744Y-231904D02*
X5190982Y-222381D01*
X5190982Y-222381D02*
X5190982Y-198571D01*
X5190982Y-198571D02*
X5195744Y-189047D01*
X5195744Y-189047D02*
X5200506Y-184285D01*
X5200506Y-184285D02*
X5210030Y-179523D01*
X5210030Y-179523D02*
X5219553Y-179523D01*
X5219553Y-179523D02*
X5233839Y-184285D01*
X5233839Y-184285D02*
X5290982Y-241428D01*
X5290982Y-241428D02*
X5290982Y-179523D01*
X5190982Y-117619D02*
X5190982Y-108095D01*
X5190982Y-108095D02*
X5195744Y-98571D01*
X5195744Y-98571D02*
X5200506Y-93809D01*
X5200506Y-93809D02*
X5210030Y-89047D01*
X5210030Y-89047D02*
X5229077Y-84285D01*
X5229077Y-84285D02*
X5252887Y-84285D01*
X5252887Y-84285D02*
X5271934Y-89047D01*
X5271934Y-89047D02*
X5281458Y-93809D01*
X5281458Y-93809D02*
X5286220Y-98571D01*
X5286220Y-98571D02*
X5290982Y-108095D01*
X5290982Y-108095D02*
X5290982Y-117619D01*
X5290982Y-117619D02*
X5286220Y-127142D01*
X5286220Y-127142D02*
X5281458Y-131904D01*
X5281458Y-131904D02*
X5271934Y-136666D01*
X5271934Y-136666D02*
X5252887Y-141428D01*
X5252887Y-141428D02*
X5229077Y-141428D01*
X5229077Y-141428D02*
X5210030Y-136666D01*
X5210030Y-136666D02*
X5200506Y-131904D01*
X5200506Y-131904D02*
X5195744Y-127142D01*
X5195744Y-127142D02*
X5190982Y-117619D01*
X9035482Y416191D02*
X8935482Y416191D01*
X8935482Y416191D02*
X8935482Y440000D01*
X8935482Y440000D02*
X8940244Y454286D01*
X8940244Y454286D02*
X8949768Y463810D01*
X8949768Y463810D02*
X8959291Y468572D01*
X8959291Y468572D02*
X8978339Y473334D01*
X8978339Y473334D02*
X8992625Y473334D01*
X8992625Y473334D02*
X9011672Y468572D01*
X9011672Y468572D02*
X9021196Y463810D01*
X9021196Y463810D02*
X9030720Y454286D01*
X9030720Y454286D02*
X9035482Y440000D01*
X9035482Y440000D02*
X9035482Y416191D01*
X8935482Y506667D02*
X8935482Y573334D01*
X8935482Y573334D02*
X9035482Y530477D01*
X6272559Y587518D02*
X6239226Y635137D01*
X6215417Y587518D02*
X6215417Y687518D01*
X6215417Y687518D02*
X6253512Y687518D01*
X6253512Y687518D02*
X6263036Y682756D01*
X6263036Y682756D02*
X6267798Y677995D01*
X6267798Y677995D02*
X6272559Y668471D01*
X6272559Y668471D02*
X6272559Y654185D01*
X6272559Y654185D02*
X6267798Y644661D01*
X6267798Y644661D02*
X6263036Y639899D01*
X6263036Y639899D02*
X6253512Y635137D01*
X6253512Y635137D02*
X6215417Y635137D01*
X6315417Y625614D02*
X6391607Y625614D01*
X6429702Y654185D02*
X6453512Y587518D01*
X6453512Y587518D02*
X6477321Y654185D01*
X6534464Y687518D02*
X6543988Y687518D01*
X6543988Y687518D02*
X6553512Y682756D01*
X6553512Y682756D02*
X6558274Y677995D01*
X6558274Y677995D02*
X6563036Y668471D01*
X6563036Y668471D02*
X6567798Y649423D01*
X6567798Y649423D02*
X6567798Y625614D01*
X6567798Y625614D02*
X6563036Y606566D01*
X6563036Y606566D02*
X6558274Y597042D01*
X6558274Y597042D02*
X6553512Y592280D01*
X6553512Y592280D02*
X6543988Y587518D01*
X6543988Y587518D02*
X6534464Y587518D01*
X6534464Y587518D02*
X6524940Y592280D01*
X6524940Y592280D02*
X6520179Y597042D01*
X6520179Y597042D02*
X6515417Y606566D01*
X6515417Y606566D02*
X6510655Y625614D01*
X6510655Y625614D02*
X6510655Y649423D01*
X6510655Y649423D02*
X6515417Y668471D01*
X6515417Y668471D02*
X6520179Y677995D01*
X6520179Y677995D02*
X6524940Y682756D01*
X6524940Y682756D02*
X6534464Y687518D01*
X6610655Y625614D02*
X6686845Y625614D01*
X6777321Y687518D02*
X6758274Y687518D01*
X6758274Y687518D02*
X6748750Y682756D01*
X6748750Y682756D02*
X6743988Y677995D01*
X6743988Y677995D02*
X6734464Y663709D01*
X6734464Y663709D02*
X6729702Y644661D01*
X6729702Y644661D02*
X6729702Y606566D01*
X6729702Y606566D02*
X6734464Y597042D01*
X6734464Y597042D02*
X6739226Y592280D01*
X6739226Y592280D02*
X6748750Y587518D01*
X6748750Y587518D02*
X6767798Y587518D01*
X6767798Y587518D02*
X6777321Y592280D01*
X6777321Y592280D02*
X6782083Y597042D01*
X6782083Y597042D02*
X6786845Y606566D01*
X6786845Y606566D02*
X6786845Y630376D01*
X6786845Y630376D02*
X6782083Y639899D01*
X6782083Y639899D02*
X6777321Y644661D01*
X6777321Y644661D02*
X6767798Y649423D01*
X6767798Y649423D02*
X6748750Y649423D01*
X6748750Y649423D02*
X6739226Y644661D01*
X6739226Y644661D02*
X6734464Y639899D01*
X6734464Y639899D02*
X6729702Y630376D01*
X12457067Y-796682D02*
X12457067Y-868110D01*
X12457067Y-868110D02*
X12452305Y-882396D01*
X12452305Y-882396D02*
X12442781Y-891920D01*
X12442781Y-891920D02*
X12428495Y-896682D01*
X12428495Y-896682D02*
X12418971Y-896682D01*
X12547543Y-830015D02*
X12547543Y-896682D01*
X12523733Y-791920D02*
X12499924Y-863348D01*
X12499924Y-863348D02*
X12561828Y-863348D01*
X8198958Y-3433866D02*
X8203720Y-3438628D01*
X8203720Y-3438628D02*
X8208482Y-3452914D01*
X8208482Y-3452914D02*
X8208482Y-3462438D01*
X8208482Y-3462438D02*
X8203720Y-3476723D01*
X8203720Y-3476723D02*
X8194196Y-3486247D01*
X8194196Y-3486247D02*
X8184672Y-3491009D01*
X8184672Y-3491009D02*
X8165625Y-3495771D01*
X8165625Y-3495771D02*
X8151339Y-3495771D01*
X8151339Y-3495771D02*
X8132291Y-3491009D01*
X8132291Y-3491009D02*
X8122768Y-3486247D01*
X8122768Y-3486247D02*
X8113244Y-3476723D01*
X8113244Y-3476723D02*
X8108482Y-3462438D01*
X8108482Y-3462438D02*
X8108482Y-3452914D01*
X8108482Y-3452914D02*
X8113244Y-3438628D01*
X8113244Y-3438628D02*
X8118006Y-3433866D01*
X8108482Y-3400533D02*
X8108482Y-3338628D01*
X8108482Y-3338628D02*
X8146577Y-3371961D01*
X8146577Y-3371961D02*
X8146577Y-3357676D01*
X8146577Y-3357676D02*
X8151339Y-3348152D01*
X8151339Y-3348152D02*
X8156101Y-3343390D01*
X8156101Y-3343390D02*
X8165625Y-3338628D01*
X8165625Y-3338628D02*
X8189434Y-3338628D01*
X8189434Y-3338628D02*
X8198958Y-3343390D01*
X8198958Y-3343390D02*
X8203720Y-3348152D01*
X8203720Y-3348152D02*
X8208482Y-3357676D01*
X8208482Y-3357676D02*
X8208482Y-3386247D01*
X8208482Y-3386247D02*
X8203720Y-3395771D01*
X8203720Y-3395771D02*
X8198958Y-3400533D01*
X10695482Y-43809D02*
X10647863Y-77143D01*
X10695482Y-100952D02*
X10595482Y-100952D01*
X10595482Y-100952D02*
X10595482Y-62857D01*
X10595482Y-62857D02*
X10600244Y-53333D01*
X10600244Y-53333D02*
X10605006Y-48571D01*
X10605006Y-48571D02*
X10614530Y-43809D01*
X10614530Y-43809D02*
X10628815Y-43809D01*
X10628815Y-43809D02*
X10638339Y-48571D01*
X10638339Y-48571D02*
X10643101Y-53333D01*
X10643101Y-53333D02*
X10647863Y-62857D01*
X10647863Y-62857D02*
X10647863Y-100952D01*
X10657387Y-952D02*
X10657387Y75238D01*
X10628815Y113334D02*
X10695482Y137143D01*
X10695482Y137143D02*
X10628815Y160953D01*
X10595482Y218095D02*
X10595482Y227619D01*
X10595482Y227619D02*
X10600244Y237143D01*
X10600244Y237143D02*
X10605006Y241905D01*
X10605006Y241905D02*
X10614530Y246667D01*
X10614530Y246667D02*
X10633577Y251429D01*
X10633577Y251429D02*
X10657387Y251429D01*
X10657387Y251429D02*
X10676434Y246667D01*
X10676434Y246667D02*
X10685958Y241905D01*
X10685958Y241905D02*
X10690720Y237143D01*
X10690720Y237143D02*
X10695482Y227619D01*
X10695482Y227619D02*
X10695482Y218095D01*
X10695482Y218095D02*
X10690720Y208572D01*
X10690720Y208572D02*
X10685958Y203810D01*
X10685958Y203810D02*
X10676434Y199048D01*
X10676434Y199048D02*
X10657387Y194286D01*
X10657387Y194286D02*
X10633577Y194286D01*
X10633577Y194286D02*
X10614530Y199048D01*
X10614530Y199048D02*
X10605006Y203810D01*
X10605006Y203810D02*
X10600244Y208572D01*
X10600244Y208572D02*
X10595482Y218095D01*
X10657387Y294286D02*
X10657387Y370476D01*
X10595482Y408572D02*
X10595482Y470476D01*
X10595482Y470476D02*
X10633577Y437143D01*
X10633577Y437143D02*
X10633577Y451429D01*
X10633577Y451429D02*
X10638339Y460953D01*
X10638339Y460953D02*
X10643101Y465714D01*
X10643101Y465714D02*
X10652625Y470476D01*
X10652625Y470476D02*
X10676434Y470476D01*
X10676434Y470476D02*
X10685958Y465714D01*
X10685958Y465714D02*
X10690720Y460953D01*
X10690720Y460953D02*
X10695482Y451429D01*
X10695482Y451429D02*
X10695482Y422857D01*
X10695482Y422857D02*
X10690720Y413334D01*
X10690720Y413334D02*
X10685958Y408572D01*
X10628815Y556191D02*
X10695482Y556191D01*
X10590720Y532381D02*
X10662149Y508572D01*
X10662149Y508572D02*
X10662149Y570476D01*
X6843809Y587518D02*
X6810476Y635137D01*
X6786667Y587518D02*
X6786667Y687518D01*
X6786667Y687518D02*
X6824762Y687518D01*
X6824762Y687518D02*
X6834286Y682756D01*
X6834286Y682756D02*
X6839048Y677995D01*
X6839048Y677995D02*
X6843809Y668471D01*
X6843809Y668471D02*
X6843809Y654185D01*
X6843809Y654185D02*
X6839048Y644661D01*
X6839048Y644661D02*
X6834286Y639899D01*
X6834286Y639899D02*
X6824762Y635137D01*
X6824762Y635137D02*
X6786667Y635137D01*
X6886667Y625614D02*
X6962857Y625614D01*
X7000952Y654185D02*
X7024762Y587518D01*
X7024762Y587518D02*
X7048571Y654185D01*
X7105714Y687518D02*
X7115238Y687518D01*
X7115238Y687518D02*
X7124762Y682756D01*
X7124762Y682756D02*
X7129524Y677995D01*
X7129524Y677995D02*
X7134286Y668471D01*
X7134286Y668471D02*
X7139048Y649423D01*
X7139048Y649423D02*
X7139048Y625614D01*
X7139048Y625614D02*
X7134286Y606566D01*
X7134286Y606566D02*
X7129524Y597042D01*
X7129524Y597042D02*
X7124762Y592280D01*
X7124762Y592280D02*
X7115238Y587518D01*
X7115238Y587518D02*
X7105714Y587518D01*
X7105714Y587518D02*
X7096190Y592280D01*
X7096190Y592280D02*
X7091429Y597042D01*
X7091429Y597042D02*
X7086667Y606566D01*
X7086667Y606566D02*
X7081905Y625614D01*
X7081905Y625614D02*
X7081905Y649423D01*
X7081905Y649423D02*
X7086667Y668471D01*
X7086667Y668471D02*
X7091429Y677995D01*
X7091429Y677995D02*
X7096190Y682756D01*
X7096190Y682756D02*
X7105714Y687518D01*
X7181905Y625614D02*
X7258095Y625614D01*
X7353333Y687518D02*
X7305714Y687518D01*
X7305714Y687518D02*
X7300952Y639899D01*
X7300952Y639899D02*
X7305714Y644661D01*
X7305714Y644661D02*
X7315238Y649423D01*
X7315238Y649423D02*
X7339048Y649423D01*
X7339048Y649423D02*
X7348571Y644661D01*
X7348571Y644661D02*
X7353333Y639899D01*
X7353333Y639899D02*
X7358095Y630376D01*
X7358095Y630376D02*
X7358095Y606566D01*
X7358095Y606566D02*
X7353333Y597042D01*
X7353333Y597042D02*
X7348571Y592280D01*
X7348571Y592280D02*
X7339048Y587518D01*
X7339048Y587518D02*
X7315238Y587518D01*
X7315238Y587518D02*
X7305714Y592280D01*
X7305714Y592280D02*
X7300952Y597042D01*
X5826190Y-72482D02*
X5826190Y27518D01*
X5826190Y27518D02*
X5850000Y27518D01*
X5850000Y27518D02*
X5864286Y22756D01*
X5864286Y22756D02*
X5873809Y13233D01*
X5873809Y13233D02*
X5878571Y3709D01*
X5878571Y3709D02*
X5883333Y-15339D01*
X5883333Y-15339D02*
X5883333Y-29624D01*
X5883333Y-29624D02*
X5878571Y-48672D01*
X5878571Y-48672D02*
X5873809Y-58196D01*
X5873809Y-58196D02*
X5864286Y-67720D01*
X5864286Y-67720D02*
X5850000Y-72482D01*
X5850000Y-72482D02*
X5826190Y-72482D01*
X5969048Y27518D02*
X5950000Y27518D01*
X5950000Y27518D02*
X5940476Y22756D01*
X5940476Y22756D02*
X5935714Y17995D01*
X5935714Y17995D02*
X5926190Y3709D01*
X5926190Y3709D02*
X5921429Y-15339D01*
X5921429Y-15339D02*
X5921429Y-53434D01*
X5921429Y-53434D02*
X5926190Y-62958D01*
X5926190Y-62958D02*
X5930952Y-67720D01*
X5930952Y-67720D02*
X5940476Y-72482D01*
X5940476Y-72482D02*
X5959524Y-72482D01*
X5959524Y-72482D02*
X5969048Y-67720D01*
X5969048Y-67720D02*
X5973809Y-62958D01*
X5973809Y-62958D02*
X5978571Y-53434D01*
X5978571Y-53434D02*
X5978571Y-29624D01*
X5978571Y-29624D02*
X5973809Y-20101D01*
X5973809Y-20101D02*
X5969048Y-15339D01*
X5969048Y-15339D02*
X5959524Y-10577D01*
X5959524Y-10577D02*
X5940476Y-10577D01*
X5940476Y-10577D02*
X5930952Y-15339D01*
X5930952Y-15339D02*
X5926190Y-20101D01*
X5926190Y-20101D02*
X5921429Y-29624D01*
X11166667Y-110720D02*
X11180952Y-115482D01*
X11180952Y-115482D02*
X11204762Y-115482D01*
X11204762Y-115482D02*
X11214286Y-110720D01*
X11214286Y-110720D02*
X11219048Y-105958D01*
X11219048Y-105958D02*
X11223809Y-96434D01*
X11223809Y-96434D02*
X11223809Y-86910D01*
X11223809Y-86910D02*
X11219048Y-77386D01*
X11219048Y-77386D02*
X11214286Y-72624D01*
X11214286Y-72624D02*
X11204762Y-67863D01*
X11204762Y-67863D02*
X11185714Y-63101D01*
X11185714Y-63101D02*
X11176191Y-58339D01*
X11176191Y-58339D02*
X11171429Y-53577D01*
X11171429Y-53577D02*
X11166667Y-44053D01*
X11166667Y-44053D02*
X11166667Y-34529D01*
X11166667Y-34529D02*
X11171429Y-25005D01*
X11171429Y-25005D02*
X11176191Y-20244D01*
X11176191Y-20244D02*
X11185714Y-15482D01*
X11185714Y-15482D02*
X11209524Y-15482D01*
X11209524Y-15482D02*
X11223809Y-20244D01*
X11257143Y-15482D02*
X11280952Y-115482D01*
X11280952Y-115482D02*
X11300000Y-44053D01*
X11300000Y-44053D02*
X11319048Y-115482D01*
X11319048Y-115482D02*
X11342857Y-15482D01*
X11371429Y-15482D02*
X11438095Y-15482D01*
X11438095Y-15482D02*
X11395238Y-115482D01*
X9315482Y-43809D02*
X9267863Y-77143D01*
X9315482Y-100952D02*
X9215482Y-100952D01*
X9215482Y-100952D02*
X9215482Y-62857D01*
X9215482Y-62857D02*
X9220244Y-53333D01*
X9220244Y-53333D02*
X9225006Y-48571D01*
X9225006Y-48571D02*
X9234530Y-43809D01*
X9234530Y-43809D02*
X9248815Y-43809D01*
X9248815Y-43809D02*
X9258339Y-48571D01*
X9258339Y-48571D02*
X9263101Y-53333D01*
X9263101Y-53333D02*
X9267863Y-62857D01*
X9267863Y-62857D02*
X9267863Y-100952D01*
X9277387Y-952D02*
X9277387Y75238D01*
X9248815Y113334D02*
X9315482Y137143D01*
X9315482Y137143D02*
X9248815Y160953D01*
X9215482Y218095D02*
X9215482Y227619D01*
X9215482Y227619D02*
X9220244Y237143D01*
X9220244Y237143D02*
X9225006Y241905D01*
X9225006Y241905D02*
X9234530Y246667D01*
X9234530Y246667D02*
X9253577Y251429D01*
X9253577Y251429D02*
X9277387Y251429D01*
X9277387Y251429D02*
X9296434Y246667D01*
X9296434Y246667D02*
X9305958Y241905D01*
X9305958Y241905D02*
X9310720Y237143D01*
X9310720Y237143D02*
X9315482Y227619D01*
X9315482Y227619D02*
X9315482Y218095D01*
X9315482Y218095D02*
X9310720Y208572D01*
X9310720Y208572D02*
X9305958Y203810D01*
X9305958Y203810D02*
X9296434Y199048D01*
X9296434Y199048D02*
X9277387Y194286D01*
X9277387Y194286D02*
X9253577Y194286D01*
X9253577Y194286D02*
X9234530Y199048D01*
X9234530Y199048D02*
X9225006Y203810D01*
X9225006Y203810D02*
X9220244Y208572D01*
X9220244Y208572D02*
X9215482Y218095D01*
X9277387Y294286D02*
X9277387Y370476D01*
X9225006Y413334D02*
X9220244Y418095D01*
X9220244Y418095D02*
X9215482Y427619D01*
X9215482Y427619D02*
X9215482Y451429D01*
X9215482Y451429D02*
X9220244Y460953D01*
X9220244Y460953D02*
X9225006Y465714D01*
X9225006Y465714D02*
X9234530Y470476D01*
X9234530Y470476D02*
X9244053Y470476D01*
X9244053Y470476D02*
X9258339Y465714D01*
X9258339Y465714D02*
X9315482Y408572D01*
X9315482Y408572D02*
X9315482Y470476D01*
X9215482Y560953D02*
X9215482Y513334D01*
X9215482Y513334D02*
X9263101Y508572D01*
X9263101Y508572D02*
X9258339Y513334D01*
X9258339Y513334D02*
X9253577Y522857D01*
X9253577Y522857D02*
X9253577Y546667D01*
X9253577Y546667D02*
X9258339Y556191D01*
X9258339Y556191D02*
X9263101Y560953D01*
X9263101Y560953D02*
X9272625Y565715D01*
X9272625Y565715D02*
X9296434Y565715D01*
X9296434Y565715D02*
X9305958Y560953D01*
X9305958Y560953D02*
X9310720Y556191D01*
X9310720Y556191D02*
X9315482Y546667D01*
X9315482Y546667D02*
X9315482Y522857D01*
X9315482Y522857D02*
X9310720Y513334D01*
X9310720Y513334D02*
X9305958Y508572D01*
X8320809Y11518D02*
X8320809Y-69434D01*
X8320809Y-69434D02*
X8325571Y-78958D01*
X8325571Y-78958D02*
X8330333Y-83720D01*
X8330333Y-83720D02*
X8339857Y-88482D01*
X8339857Y-88482D02*
X8358905Y-88482D01*
X8358905Y-88482D02*
X8368428Y-83720D01*
X8368428Y-83720D02*
X8373190Y-78958D01*
X8373190Y-78958D02*
X8377952Y-69434D01*
X8377952Y-69434D02*
X8377952Y11518D01*
X8420810Y1994D02*
X8425571Y6756D01*
X8425571Y6756D02*
X8435095Y11518D01*
X8435095Y11518D02*
X8458905Y11518D01*
X8458905Y11518D02*
X8468429Y6756D01*
X8468429Y6756D02*
X8473190Y1994D01*
X8473190Y1994D02*
X8477952Y-7529D01*
X8477952Y-7529D02*
X8477952Y-17053D01*
X8477952Y-17053D02*
X8473190Y-31339D01*
X8473190Y-31339D02*
X8416048Y-88482D01*
X8416048Y-88482D02*
X8477952Y-88482D01*
X10235482Y408572D02*
X10135482Y408572D01*
X10135482Y408572D02*
X10135482Y432381D01*
X10135482Y432381D02*
X10140244Y446667D01*
X10140244Y446667D02*
X10149768Y456191D01*
X10149768Y456191D02*
X10159291Y460953D01*
X10159291Y460953D02*
X10178339Y465714D01*
X10178339Y465714D02*
X10192625Y465714D01*
X10192625Y465714D02*
X10211672Y460953D01*
X10211672Y460953D02*
X10221196Y456191D01*
X10221196Y456191D02*
X10230720Y446667D01*
X10230720Y446667D02*
X10235482Y432381D01*
X10235482Y432381D02*
X10235482Y408572D01*
X10235482Y560953D02*
X10235482Y503810D01*
X10235482Y532381D02*
X10135482Y532381D01*
X10135482Y532381D02*
X10149768Y522857D01*
X10149768Y522857D02*
X10159291Y513334D01*
X10159291Y513334D02*
X10164053Y503810D01*
X10135482Y651429D02*
X10135482Y603810D01*
X10135482Y603810D02*
X10183101Y599048D01*
X10183101Y599048D02*
X10178339Y603810D01*
X10178339Y603810D02*
X10173577Y613334D01*
X10173577Y613334D02*
X10173577Y637143D01*
X10173577Y637143D02*
X10178339Y646667D01*
X10178339Y646667D02*
X10183101Y651429D01*
X10183101Y651429D02*
X10192625Y656191D01*
X10192625Y656191D02*
X10216434Y656191D01*
X10216434Y656191D02*
X10225958Y651429D01*
X10225958Y651429D02*
X10230720Y646667D01*
X10230720Y646667D02*
X10235482Y637143D01*
X10235482Y637143D02*
X10235482Y613334D01*
X10235482Y613334D02*
X10230720Y603810D01*
X10230720Y603810D02*
X10225958Y599048D01*
X11502190Y-1592482D02*
X11502190Y-1492482D01*
X11502190Y-1492482D02*
X11526000Y-1492482D01*
X11526000Y-1492482D02*
X11540286Y-1497243D01*
X11540286Y-1497243D02*
X11549809Y-1506767D01*
X11549809Y-1506767D02*
X11554571Y-1516291D01*
X11554571Y-1516291D02*
X11559333Y-1535339D01*
X11559333Y-1535339D02*
X11559333Y-1549624D01*
X11559333Y-1549624D02*
X11554571Y-1568672D01*
X11554571Y-1568672D02*
X11549809Y-1578196D01*
X11549809Y-1578196D02*
X11540286Y-1587720D01*
X11540286Y-1587720D02*
X11526000Y-1592482D01*
X11526000Y-1592482D02*
X11502190Y-1592482D01*
X11597429Y-1502005D02*
X11602190Y-1497243D01*
X11602190Y-1497243D02*
X11611714Y-1492482D01*
X11611714Y-1492482D02*
X11635524Y-1492482D01*
X11635524Y-1492482D02*
X11645048Y-1497243D01*
X11645048Y-1497243D02*
X11649809Y-1502005D01*
X11649809Y-1502005D02*
X11654571Y-1511529D01*
X11654571Y-1511529D02*
X11654571Y-1521053D01*
X11654571Y-1521053D02*
X11649809Y-1535339D01*
X11649809Y-1535339D02*
X11592667Y-1592482D01*
X11592667Y-1592482D02*
X11654571Y-1592482D01*
X8620490Y-830182D02*
X8587157Y-782562D01*
X8563348Y-830182D02*
X8563348Y-730182D01*
X8563348Y-730182D02*
X8601443Y-730182D01*
X8601443Y-730182D02*
X8610967Y-734943D01*
X8610967Y-734943D02*
X8615729Y-739705D01*
X8615729Y-739705D02*
X8620490Y-749229D01*
X8620490Y-749229D02*
X8620490Y-763515D01*
X8620490Y-763515D02*
X8615729Y-773039D01*
X8615729Y-773039D02*
X8610967Y-777801D01*
X8610967Y-777801D02*
X8601443Y-782562D01*
X8601443Y-782562D02*
X8563348Y-782562D01*
X8663348Y-792086D02*
X8739538Y-792086D01*
X8777633Y-763515D02*
X8801443Y-830182D01*
X8801443Y-830182D02*
X8825252Y-763515D01*
X8882395Y-730182D02*
X8891919Y-730182D01*
X8891919Y-730182D02*
X8901443Y-734943D01*
X8901443Y-734943D02*
X8906205Y-739705D01*
X8906205Y-739705D02*
X8910967Y-749229D01*
X8910967Y-749229D02*
X8915729Y-768277D01*
X8915729Y-768277D02*
X8915729Y-792086D01*
X8915729Y-792086D02*
X8910967Y-811134D01*
X8910967Y-811134D02*
X8906205Y-820658D01*
X8906205Y-820658D02*
X8901443Y-825420D01*
X8901443Y-825420D02*
X8891919Y-830182D01*
X8891919Y-830182D02*
X8882395Y-830182D01*
X8882395Y-830182D02*
X8872871Y-825420D01*
X8872871Y-825420D02*
X8868110Y-820658D01*
X8868110Y-820658D02*
X8863348Y-811134D01*
X8863348Y-811134D02*
X8858586Y-792086D01*
X8858586Y-792086D02*
X8858586Y-768277D01*
X8858586Y-768277D02*
X8863348Y-749229D01*
X8863348Y-749229D02*
X8868110Y-739705D01*
X8868110Y-739705D02*
X8872871Y-734943D01*
X8872871Y-734943D02*
X8882395Y-730182D01*
X8958586Y-792086D02*
X9034776Y-792086D01*
X9134776Y-830182D02*
X9077633Y-830182D01*
X9106205Y-830182D02*
X9106205Y-730182D01*
X9106205Y-730182D02*
X9096681Y-744467D01*
X9096681Y-744467D02*
X9087157Y-753991D01*
X9087157Y-753991D02*
X9077633Y-758753D01*
X9220490Y-763515D02*
X9220490Y-830182D01*
X9196681Y-725420D02*
X9172871Y-796848D01*
X9172871Y-796848D02*
X9234776Y-796848D01*
X13066667Y-3610720D02*
X13080952Y-3615482D01*
X13080952Y-3615482D02*
X13104762Y-3615482D01*
X13104762Y-3615482D02*
X13114286Y-3610720D01*
X13114286Y-3610720D02*
X13119048Y-3605958D01*
X13119048Y-3605958D02*
X13123809Y-3596434D01*
X13123809Y-3596434D02*
X13123809Y-3586910D01*
X13123809Y-3586910D02*
X13119048Y-3577386D01*
X13119048Y-3577386D02*
X13114286Y-3572624D01*
X13114286Y-3572624D02*
X13104762Y-3567862D01*
X13104762Y-3567862D02*
X13085714Y-3563101D01*
X13085714Y-3563101D02*
X13076190Y-3558339D01*
X13076190Y-3558339D02*
X13071429Y-3553577D01*
X13071429Y-3553577D02*
X13066667Y-3544053D01*
X13066667Y-3544053D02*
X13066667Y-3534529D01*
X13066667Y-3534529D02*
X13071429Y-3525005D01*
X13071429Y-3525005D02*
X13076190Y-3520243D01*
X13076190Y-3520243D02*
X13085714Y-3515482D01*
X13085714Y-3515482D02*
X13109524Y-3515482D01*
X13109524Y-3515482D02*
X13123809Y-3520243D01*
X13157143Y-3515482D02*
X13180952Y-3615482D01*
X13180952Y-3615482D02*
X13200000Y-3544053D01*
X13200000Y-3544053D02*
X13219048Y-3615482D01*
X13219048Y-3615482D02*
X13242857Y-3515482D01*
X13271429Y-3515482D02*
X13333333Y-3515482D01*
X13333333Y-3515482D02*
X13300000Y-3553577D01*
X13300000Y-3553577D02*
X13314286Y-3553577D01*
X13314286Y-3553577D02*
X13323809Y-3558339D01*
X13323809Y-3558339D02*
X13328571Y-3563101D01*
X13328571Y-3563101D02*
X13333333Y-3572624D01*
X13333333Y-3572624D02*
X13333333Y-3596434D01*
X13333333Y-3596434D02*
X13328571Y-3605958D01*
X13328571Y-3605958D02*
X13323809Y-3610720D01*
X13323809Y-3610720D02*
X13314286Y-3615482D01*
X13314286Y-3615482D02*
X13285714Y-3615482D01*
X13285714Y-3615482D02*
X13276190Y-3610720D01*
X13276190Y-3610720D02*
X13271429Y-3605958D01*
X9935482Y408572D02*
X9835482Y408572D01*
X9835482Y408572D02*
X9835482Y432381D01*
X9835482Y432381D02*
X9840244Y446667D01*
X9840244Y446667D02*
X9849768Y456191D01*
X9849768Y456191D02*
X9859291Y460953D01*
X9859291Y460953D02*
X9878339Y465714D01*
X9878339Y465714D02*
X9892625Y465714D01*
X9892625Y465714D02*
X9911672Y460953D01*
X9911672Y460953D02*
X9921196Y456191D01*
X9921196Y456191D02*
X9930720Y446667D01*
X9930720Y446667D02*
X9935482Y432381D01*
X9935482Y432381D02*
X9935482Y408572D01*
X9935482Y560953D02*
X9935482Y503810D01*
X9935482Y532381D02*
X9835482Y532381D01*
X9835482Y532381D02*
X9849768Y522857D01*
X9849768Y522857D02*
X9859291Y513334D01*
X9859291Y513334D02*
X9864053Y503810D01*
X9835482Y594286D02*
X9835482Y656191D01*
X9835482Y656191D02*
X9873577Y622857D01*
X9873577Y622857D02*
X9873577Y637143D01*
X9873577Y637143D02*
X9878339Y646667D01*
X9878339Y646667D02*
X9883101Y651429D01*
X9883101Y651429D02*
X9892625Y656191D01*
X9892625Y656191D02*
X9916434Y656191D01*
X9916434Y656191D02*
X9925958Y651429D01*
X9925958Y651429D02*
X9930720Y646667D01*
X9930720Y646667D02*
X9935482Y637143D01*
X9935482Y637143D02*
X9935482Y608572D01*
X9935482Y608572D02*
X9930720Y599048D01*
X9930720Y599048D02*
X9925958Y594286D01*
X12276190Y-872482D02*
X12242857Y-824862D01*
X12219048Y-872482D02*
X12219048Y-772482D01*
X12219048Y-772482D02*
X12257143Y-772482D01*
X12257143Y-772482D02*
X12266667Y-777243D01*
X12266667Y-777243D02*
X12271428Y-782005D01*
X12271428Y-782005D02*
X12276190Y-791529D01*
X12276190Y-791529D02*
X12276190Y-805815D01*
X12276190Y-805815D02*
X12271428Y-815339D01*
X12271428Y-815339D02*
X12266667Y-820101D01*
X12266667Y-820101D02*
X12257143Y-824862D01*
X12257143Y-824862D02*
X12219048Y-824862D01*
X12319048Y-834386D02*
X12395238Y-834386D01*
X12433333Y-805815D02*
X12457143Y-872482D01*
X12457143Y-872482D02*
X12480952Y-805815D01*
X12538095Y-772482D02*
X12547619Y-772482D01*
X12547619Y-772482D02*
X12557143Y-777243D01*
X12557143Y-777243D02*
X12561905Y-782005D01*
X12561905Y-782005D02*
X12566667Y-791529D01*
X12566667Y-791529D02*
X12571428Y-810577D01*
X12571428Y-810577D02*
X12571428Y-834386D01*
X12571428Y-834386D02*
X12566667Y-853434D01*
X12566667Y-853434D02*
X12561905Y-862958D01*
X12561905Y-862958D02*
X12557143Y-867720D01*
X12557143Y-867720D02*
X12547619Y-872482D01*
X12547619Y-872482D02*
X12538095Y-872482D01*
X12538095Y-872482D02*
X12528571Y-867720D01*
X12528571Y-867720D02*
X12523809Y-862958D01*
X12523809Y-862958D02*
X12519048Y-853434D01*
X12519048Y-853434D02*
X12514286Y-834386D01*
X12514286Y-834386D02*
X12514286Y-810577D01*
X12514286Y-810577D02*
X12519048Y-791529D01*
X12519048Y-791529D02*
X12523809Y-782005D01*
X12523809Y-782005D02*
X12528571Y-777243D01*
X12528571Y-777243D02*
X12538095Y-772482D01*
X12614286Y-834386D02*
X12690476Y-834386D01*
X12790476Y-872482D02*
X12733333Y-872482D01*
X12761905Y-872482D02*
X12761905Y-772482D01*
X12761905Y-772482D02*
X12752381Y-786767D01*
X12752381Y-786767D02*
X12742857Y-796291D01*
X12742857Y-796291D02*
X12733333Y-801053D01*
X12823809Y-772482D02*
X12885714Y-772482D01*
X12885714Y-772482D02*
X12852381Y-810577D01*
X12852381Y-810577D02*
X12866667Y-810577D01*
X12866667Y-810577D02*
X12876190Y-815339D01*
X12876190Y-815339D02*
X12880952Y-820101D01*
X12880952Y-820101D02*
X12885714Y-829624D01*
X12885714Y-829624D02*
X12885714Y-853434D01*
X12885714Y-853434D02*
X12880952Y-862958D01*
X12880952Y-862958D02*
X12876190Y-867720D01*
X12876190Y-867720D02*
X12866667Y-872482D01*
X12866667Y-872482D02*
X12838095Y-872482D01*
X12838095Y-872482D02*
X12828571Y-867720D01*
X12828571Y-867720D02*
X12823809Y-862958D01*
X9935482Y-43809D02*
X9887863Y-77143D01*
X9935482Y-100952D02*
X9835482Y-100952D01*
X9835482Y-100952D02*
X9835482Y-62857D01*
X9835482Y-62857D02*
X9840244Y-53333D01*
X9840244Y-53333D02*
X9845006Y-48571D01*
X9845006Y-48571D02*
X9854530Y-43809D01*
X9854530Y-43809D02*
X9868815Y-43809D01*
X9868815Y-43809D02*
X9878339Y-48571D01*
X9878339Y-48571D02*
X9883101Y-53333D01*
X9883101Y-53333D02*
X9887863Y-62857D01*
X9887863Y-62857D02*
X9887863Y-100952D01*
X9897387Y-952D02*
X9897387Y75238D01*
X9868815Y113334D02*
X9935482Y137143D01*
X9935482Y137143D02*
X9868815Y160953D01*
X9835482Y218095D02*
X9835482Y227619D01*
X9835482Y227619D02*
X9840244Y237143D01*
X9840244Y237143D02*
X9845006Y241905D01*
X9845006Y241905D02*
X9854530Y246667D01*
X9854530Y246667D02*
X9873577Y251429D01*
X9873577Y251429D02*
X9897387Y251429D01*
X9897387Y251429D02*
X9916434Y246667D01*
X9916434Y246667D02*
X9925958Y241905D01*
X9925958Y241905D02*
X9930720Y237143D01*
X9930720Y237143D02*
X9935482Y227619D01*
X9935482Y227619D02*
X9935482Y218095D01*
X9935482Y218095D02*
X9930720Y208572D01*
X9930720Y208572D02*
X9925958Y203810D01*
X9925958Y203810D02*
X9916434Y199048D01*
X9916434Y199048D02*
X9897387Y194286D01*
X9897387Y194286D02*
X9873577Y194286D01*
X9873577Y194286D02*
X9854530Y199048D01*
X9854530Y199048D02*
X9845006Y203810D01*
X9845006Y203810D02*
X9840244Y208572D01*
X9840244Y208572D02*
X9835482Y218095D01*
X9897387Y294286D02*
X9897387Y370476D01*
X9845006Y413334D02*
X9840244Y418095D01*
X9840244Y418095D02*
X9835482Y427619D01*
X9835482Y427619D02*
X9835482Y451429D01*
X9835482Y451429D02*
X9840244Y460953D01*
X9840244Y460953D02*
X9845006Y465714D01*
X9845006Y465714D02*
X9854530Y470476D01*
X9854530Y470476D02*
X9864053Y470476D01*
X9864053Y470476D02*
X9878339Y465714D01*
X9878339Y465714D02*
X9935482Y408572D01*
X9935482Y408572D02*
X9935482Y470476D01*
X9935482Y518095D02*
X9935482Y537143D01*
X9935482Y537143D02*
X9930720Y546667D01*
X9930720Y546667D02*
X9925958Y551429D01*
X9925958Y551429D02*
X9911672Y560953D01*
X9911672Y560953D02*
X9892625Y565715D01*
X9892625Y565715D02*
X9854530Y565715D01*
X9854530Y565715D02*
X9845006Y560953D01*
X9845006Y560953D02*
X9840244Y556191D01*
X9840244Y556191D02*
X9835482Y546667D01*
X9835482Y546667D02*
X9835482Y527619D01*
X9835482Y527619D02*
X9840244Y518095D01*
X9840244Y518095D02*
X9845006Y513334D01*
X9845006Y513334D02*
X9854530Y508572D01*
X9854530Y508572D02*
X9878339Y508572D01*
X9878339Y508572D02*
X9887863Y513334D01*
X9887863Y513334D02*
X9892625Y518095D01*
X9892625Y518095D02*
X9897387Y527619D01*
X9897387Y527619D02*
X9897387Y546667D01*
X9897387Y546667D02*
X9892625Y556191D01*
X9892625Y556191D02*
X9887863Y560953D01*
X9887863Y560953D02*
X9878339Y565715D01*
X11349809Y-1440082D02*
X11316476Y-1392463D01*
X11292667Y-1440082D02*
X11292667Y-1340082D01*
X11292667Y-1340082D02*
X11330762Y-1340082D01*
X11330762Y-1340082D02*
X11340286Y-1344844D01*
X11340286Y-1344844D02*
X11345048Y-1349605D01*
X11345048Y-1349605D02*
X11349809Y-1359129D01*
X11349809Y-1359129D02*
X11349809Y-1373415D01*
X11349809Y-1373415D02*
X11345048Y-1382939D01*
X11345048Y-1382939D02*
X11340286Y-1387701D01*
X11340286Y-1387701D02*
X11330762Y-1392463D01*
X11330762Y-1392463D02*
X11292667Y-1392463D01*
X11392667Y-1401986D02*
X11468857Y-1401986D01*
X11506952Y-1373415D02*
X11530762Y-1440082D01*
X11530762Y-1440082D02*
X11554571Y-1373415D01*
X11611714Y-1340082D02*
X11621238Y-1340082D01*
X11621238Y-1340082D02*
X11630762Y-1344844D01*
X11630762Y-1344844D02*
X11635524Y-1349605D01*
X11635524Y-1349605D02*
X11640286Y-1359129D01*
X11640286Y-1359129D02*
X11645048Y-1378177D01*
X11645048Y-1378177D02*
X11645048Y-1401986D01*
X11645048Y-1401986D02*
X11640286Y-1421034D01*
X11640286Y-1421034D02*
X11635524Y-1430558D01*
X11635524Y-1430558D02*
X11630762Y-1435320D01*
X11630762Y-1435320D02*
X11621238Y-1440082D01*
X11621238Y-1440082D02*
X11611714Y-1440082D01*
X11611714Y-1440082D02*
X11602190Y-1435320D01*
X11602190Y-1435320D02*
X11597429Y-1430558D01*
X11597429Y-1430558D02*
X11592667Y-1421034D01*
X11592667Y-1421034D02*
X11587905Y-1401986D01*
X11587905Y-1401986D02*
X11587905Y-1378177D01*
X11587905Y-1378177D02*
X11592667Y-1359129D01*
X11592667Y-1359129D02*
X11597429Y-1349605D01*
X11597429Y-1349605D02*
X11602190Y-1344844D01*
X11602190Y-1344844D02*
X11611714Y-1340082D01*
X11687905Y-1401986D02*
X11764095Y-1401986D01*
X11802190Y-1340082D02*
X11864095Y-1340082D01*
X11864095Y-1340082D02*
X11830762Y-1378177D01*
X11830762Y-1378177D02*
X11845048Y-1378177D01*
X11845048Y-1378177D02*
X11854571Y-1382939D01*
X11854571Y-1382939D02*
X11859333Y-1387701D01*
X11859333Y-1387701D02*
X11864095Y-1397224D01*
X11864095Y-1397224D02*
X11864095Y-1421034D01*
X11864095Y-1421034D02*
X11859333Y-1430558D01*
X11859333Y-1430558D02*
X11854571Y-1435320D01*
X11854571Y-1435320D02*
X11845048Y-1440082D01*
X11845048Y-1440082D02*
X11816476Y-1440082D01*
X11816476Y-1440082D02*
X11806952Y-1435320D01*
X11806952Y-1435320D02*
X11802190Y-1430558D01*
X9188882Y-1537590D02*
X9269834Y-1537590D01*
X9269834Y-1537590D02*
X9279358Y-1532828D01*
X9279358Y-1532828D02*
X9284120Y-1528066D01*
X9284120Y-1528066D02*
X9288882Y-1518542D01*
X9288882Y-1518542D02*
X9288882Y-1499495D01*
X9288882Y-1499495D02*
X9284120Y-1489971D01*
X9284120Y-1489971D02*
X9279358Y-1485209D01*
X9279358Y-1485209D02*
X9269834Y-1480447D01*
X9269834Y-1480447D02*
X9188882Y-1480447D01*
X9222215Y-1389971D02*
X9288882Y-1389971D01*
X9184120Y-1413781D02*
X9255549Y-1437590D01*
X9255549Y-1437590D02*
X9255549Y-1375685D01*
X4775482Y-1023809D02*
X4727863Y-1057143D01*
X4775482Y-1080952D02*
X4675482Y-1080952D01*
X4675482Y-1080952D02*
X4675482Y-1042857D01*
X4675482Y-1042857D02*
X4680244Y-1033333D01*
X4680244Y-1033333D02*
X4685006Y-1028571D01*
X4685006Y-1028571D02*
X4694530Y-1023809D01*
X4694530Y-1023809D02*
X4708815Y-1023809D01*
X4708815Y-1023809D02*
X4718339Y-1028571D01*
X4718339Y-1028571D02*
X4723101Y-1033333D01*
X4723101Y-1033333D02*
X4727863Y-1042857D01*
X4727863Y-1042857D02*
X4727863Y-1080952D01*
X4737387Y-980952D02*
X4737387Y-904762D01*
X4708815Y-866666D02*
X4775482Y-842857D01*
X4775482Y-842857D02*
X4708815Y-819047D01*
X4675482Y-761904D02*
X4675482Y-752381D01*
X4675482Y-752381D02*
X4680244Y-742857D01*
X4680244Y-742857D02*
X4685006Y-738095D01*
X4685006Y-738095D02*
X4694530Y-733333D01*
X4694530Y-733333D02*
X4713577Y-728571D01*
X4713577Y-728571D02*
X4737387Y-728571D01*
X4737387Y-728571D02*
X4756434Y-733333D01*
X4756434Y-733333D02*
X4765958Y-738095D01*
X4765958Y-738095D02*
X4770720Y-742857D01*
X4770720Y-742857D02*
X4775482Y-752381D01*
X4775482Y-752381D02*
X4775482Y-761904D01*
X4775482Y-761904D02*
X4770720Y-771428D01*
X4770720Y-771428D02*
X4765958Y-776190D01*
X4765958Y-776190D02*
X4756434Y-780952D01*
X4756434Y-780952D02*
X4737387Y-785714D01*
X4737387Y-785714D02*
X4713577Y-785714D01*
X4713577Y-785714D02*
X4694530Y-780952D01*
X4694530Y-780952D02*
X4685006Y-776190D01*
X4685006Y-776190D02*
X4680244Y-771428D01*
X4680244Y-771428D02*
X4675482Y-761904D01*
X4737387Y-685714D02*
X4737387Y-609524D01*
X4775482Y-509523D02*
X4775482Y-566666D01*
X4775482Y-538095D02*
X4675482Y-538095D01*
X4675482Y-538095D02*
X4689768Y-547619D01*
X4689768Y-547619D02*
X4699291Y-557143D01*
X4699291Y-557143D02*
X4704053Y-566666D01*
X4718339Y-452381D02*
X4713577Y-461904D01*
X4713577Y-461904D02*
X4708815Y-466666D01*
X4708815Y-466666D02*
X4699291Y-471428D01*
X4699291Y-471428D02*
X4694530Y-471428D01*
X4694530Y-471428D02*
X4685006Y-466666D01*
X4685006Y-466666D02*
X4680244Y-461904D01*
X4680244Y-461904D02*
X4675482Y-452381D01*
X4675482Y-452381D02*
X4675482Y-433333D01*
X4675482Y-433333D02*
X4680244Y-423809D01*
X4680244Y-423809D02*
X4685006Y-419047D01*
X4685006Y-419047D02*
X4694530Y-414285D01*
X4694530Y-414285D02*
X4699291Y-414285D01*
X4699291Y-414285D02*
X4708815Y-419047D01*
X4708815Y-419047D02*
X4713577Y-423809D01*
X4713577Y-423809D02*
X4718339Y-433333D01*
X4718339Y-433333D02*
X4718339Y-452381D01*
X4718339Y-452381D02*
X4723101Y-461904D01*
X4723101Y-461904D02*
X4727863Y-466666D01*
X4727863Y-466666D02*
X4737387Y-471428D01*
X4737387Y-471428D02*
X4756434Y-471428D01*
X4756434Y-471428D02*
X4765958Y-466666D01*
X4765958Y-466666D02*
X4770720Y-461904D01*
X4770720Y-461904D02*
X4775482Y-452381D01*
X4775482Y-452381D02*
X4775482Y-433333D01*
X4775482Y-433333D02*
X4770720Y-423809D01*
X4770720Y-423809D02*
X4765958Y-419047D01*
X4765958Y-419047D02*
X4756434Y-414285D01*
X4756434Y-414285D02*
X4737387Y-414285D01*
X4737387Y-414285D02*
X4727863Y-419047D01*
X4727863Y-419047D02*
X4723101Y-423809D01*
X4723101Y-423809D02*
X4718339Y-433333D01*
X1773809Y-435482D02*
X1773809Y-335482D01*
X1773809Y-383101D02*
X1830952Y-383101D01*
X1830952Y-435482D02*
X1830952Y-335482D01*
X1930952Y-435482D02*
X1873809Y-435482D01*
X1902381Y-435482D02*
X1902381Y-335482D01*
X1902381Y-335482D02*
X1892857Y-349767D01*
X1892857Y-349767D02*
X1883333Y-359291D01*
X1883333Y-359291D02*
X1873809Y-364053D01*
X773809Y-2435482D02*
X773809Y-2335482D01*
X773809Y-2383101D02*
X830952Y-2383101D01*
X830952Y-2435482D02*
X830952Y-2335482D01*
X873809Y-2345005D02*
X878571Y-2340244D01*
X878571Y-2340244D02*
X888095Y-2335482D01*
X888095Y-2335482D02*
X911905Y-2335482D01*
X911905Y-2335482D02*
X921428Y-2340244D01*
X921428Y-2340244D02*
X926190Y-2345005D01*
X926190Y-2345005D02*
X930952Y-2354529D01*
X930952Y-2354529D02*
X930952Y-2364053D01*
X930952Y-2364053D02*
X926190Y-2378339D01*
X926190Y-2378339D02*
X869048Y-2435482D01*
X869048Y-2435482D02*
X930952Y-2435482D01*
X8280490Y-1707782D02*
X8247157Y-1660162D01*
X8223348Y-1707782D02*
X8223348Y-1607782D01*
X8223348Y-1607782D02*
X8261443Y-1607782D01*
X8261443Y-1607782D02*
X8270967Y-1612543D01*
X8270967Y-1612543D02*
X8275728Y-1617305D01*
X8275728Y-1617305D02*
X8280490Y-1626829D01*
X8280490Y-1626829D02*
X8280490Y-1641115D01*
X8280490Y-1641115D02*
X8275728Y-1650639D01*
X8275728Y-1650639D02*
X8270967Y-1655401D01*
X8270967Y-1655401D02*
X8261443Y-1660162D01*
X8261443Y-1660162D02*
X8223348Y-1660162D01*
X8323348Y-1669686D02*
X8399538Y-1669686D01*
X8437633Y-1641115D02*
X8461443Y-1707782D01*
X8461443Y-1707782D02*
X8485252Y-1641115D01*
X8542395Y-1607782D02*
X8551919Y-1607782D01*
X8551919Y-1607782D02*
X8561443Y-1612543D01*
X8561443Y-1612543D02*
X8566205Y-1617305D01*
X8566205Y-1617305D02*
X8570967Y-1626829D01*
X8570967Y-1626829D02*
X8575729Y-1645877D01*
X8575729Y-1645877D02*
X8575729Y-1669686D01*
X8575729Y-1669686D02*
X8570967Y-1688734D01*
X8570967Y-1688734D02*
X8566205Y-1698258D01*
X8566205Y-1698258D02*
X8561443Y-1703020D01*
X8561443Y-1703020D02*
X8551919Y-1707782D01*
X8551919Y-1707782D02*
X8542395Y-1707782D01*
X8542395Y-1707782D02*
X8532871Y-1703020D01*
X8532871Y-1703020D02*
X8528110Y-1698258D01*
X8528110Y-1698258D02*
X8523348Y-1688734D01*
X8523348Y-1688734D02*
X8518586Y-1669686D01*
X8518586Y-1669686D02*
X8518586Y-1645877D01*
X8518586Y-1645877D02*
X8523348Y-1626829D01*
X8523348Y-1626829D02*
X8528110Y-1617305D01*
X8528110Y-1617305D02*
X8532871Y-1612543D01*
X8532871Y-1612543D02*
X8542395Y-1607782D01*
X8618586Y-1669686D02*
X8694776Y-1669686D01*
X8794776Y-1707782D02*
X8737633Y-1707782D01*
X8766205Y-1707782D02*
X8766205Y-1607782D01*
X8766205Y-1607782D02*
X8756681Y-1622067D01*
X8756681Y-1622067D02*
X8747157Y-1631591D01*
X8747157Y-1631591D02*
X8737633Y-1636353D01*
X8890014Y-1707782D02*
X8832871Y-1707782D01*
X8861443Y-1707782D02*
X8861443Y-1607782D01*
X8861443Y-1607782D02*
X8851919Y-1622067D01*
X8851919Y-1622067D02*
X8842395Y-1631591D01*
X8842395Y-1631591D02*
X8832871Y-1636353D01*
X10387982Y-43809D02*
X10340363Y-77143D01*
X10387982Y-100952D02*
X10287982Y-100952D01*
X10287982Y-100952D02*
X10287982Y-62857D01*
X10287982Y-62857D02*
X10292744Y-53333D01*
X10292744Y-53333D02*
X10297506Y-48571D01*
X10297506Y-48571D02*
X10307030Y-43809D01*
X10307030Y-43809D02*
X10321315Y-43809D01*
X10321315Y-43809D02*
X10330839Y-48571D01*
X10330839Y-48571D02*
X10335601Y-53333D01*
X10335601Y-53333D02*
X10340363Y-62857D01*
X10340363Y-62857D02*
X10340363Y-100952D01*
X10349887Y-952D02*
X10349887Y75238D01*
X10321315Y113334D02*
X10387982Y137143D01*
X10387982Y137143D02*
X10321315Y160953D01*
X10287982Y218095D02*
X10287982Y227619D01*
X10287982Y227619D02*
X10292744Y237143D01*
X10292744Y237143D02*
X10297506Y241905D01*
X10297506Y241905D02*
X10307030Y246667D01*
X10307030Y246667D02*
X10326077Y251429D01*
X10326077Y251429D02*
X10349887Y251429D01*
X10349887Y251429D02*
X10368934Y246667D01*
X10368934Y246667D02*
X10378458Y241905D01*
X10378458Y241905D02*
X10383220Y237143D01*
X10383220Y237143D02*
X10387982Y227619D01*
X10387982Y227619D02*
X10387982Y218095D01*
X10387982Y218095D02*
X10383220Y208572D01*
X10383220Y208572D02*
X10378458Y203810D01*
X10378458Y203810D02*
X10368934Y199048D01*
X10368934Y199048D02*
X10349887Y194286D01*
X10349887Y194286D02*
X10326077Y194286D01*
X10326077Y194286D02*
X10307030Y199048D01*
X10307030Y199048D02*
X10297506Y203810D01*
X10297506Y203810D02*
X10292744Y208572D01*
X10292744Y208572D02*
X10287982Y218095D01*
X10349887Y294286D02*
X10349887Y370476D01*
X10287982Y408572D02*
X10287982Y470476D01*
X10287982Y470476D02*
X10326077Y437143D01*
X10326077Y437143D02*
X10326077Y451429D01*
X10326077Y451429D02*
X10330839Y460953D01*
X10330839Y460953D02*
X10335601Y465714D01*
X10335601Y465714D02*
X10345125Y470476D01*
X10345125Y470476D02*
X10368934Y470476D01*
X10368934Y470476D02*
X10378458Y465714D01*
X10378458Y465714D02*
X10383220Y460953D01*
X10383220Y460953D02*
X10387982Y451429D01*
X10387982Y451429D02*
X10387982Y422857D01*
X10387982Y422857D02*
X10383220Y413334D01*
X10383220Y413334D02*
X10378458Y408572D01*
X10297506Y508572D02*
X10292744Y513334D01*
X10292744Y513334D02*
X10287982Y522857D01*
X10287982Y522857D02*
X10287982Y546667D01*
X10287982Y546667D02*
X10292744Y556191D01*
X10292744Y556191D02*
X10297506Y560953D01*
X10297506Y560953D02*
X10307030Y565715D01*
X10307030Y565715D02*
X10316553Y565715D01*
X10316553Y565715D02*
X10330839Y560953D01*
X10330839Y560953D02*
X10387982Y503810D01*
X10387982Y503810D02*
X10387982Y565715D01*
X9035482Y-43809D02*
X8987863Y-77143D01*
X9035482Y-100952D02*
X8935482Y-100952D01*
X8935482Y-100952D02*
X8935482Y-62857D01*
X8935482Y-62857D02*
X8940244Y-53333D01*
X8940244Y-53333D02*
X8945006Y-48571D01*
X8945006Y-48571D02*
X8954530Y-43809D01*
X8954530Y-43809D02*
X8968815Y-43809D01*
X8968815Y-43809D02*
X8978339Y-48571D01*
X8978339Y-48571D02*
X8983101Y-53333D01*
X8983101Y-53333D02*
X8987863Y-62857D01*
X8987863Y-62857D02*
X8987863Y-100952D01*
X8997387Y-952D02*
X8997387Y75238D01*
X8968815Y113334D02*
X9035482Y137143D01*
X9035482Y137143D02*
X8968815Y160953D01*
X8935482Y218095D02*
X8935482Y227619D01*
X8935482Y227619D02*
X8940244Y237143D01*
X8940244Y237143D02*
X8945006Y241905D01*
X8945006Y241905D02*
X8954530Y246667D01*
X8954530Y246667D02*
X8973577Y251429D01*
X8973577Y251429D02*
X8997387Y251429D01*
X8997387Y251429D02*
X9016434Y246667D01*
X9016434Y246667D02*
X9025958Y241905D01*
X9025958Y241905D02*
X9030720Y237143D01*
X9030720Y237143D02*
X9035482Y227619D01*
X9035482Y227619D02*
X9035482Y218095D01*
X9035482Y218095D02*
X9030720Y208572D01*
X9030720Y208572D02*
X9025958Y203810D01*
X9025958Y203810D02*
X9016434Y199048D01*
X9016434Y199048D02*
X8997387Y194286D01*
X8997387Y194286D02*
X8973577Y194286D01*
X8973577Y194286D02*
X8954530Y199048D01*
X8954530Y199048D02*
X8945006Y203810D01*
X8945006Y203810D02*
X8940244Y208572D01*
X8940244Y208572D02*
X8935482Y218095D01*
X8997387Y294286D02*
X8997387Y370476D01*
X8945006Y413334D02*
X8940244Y418095D01*
X8940244Y418095D02*
X8935482Y427619D01*
X8935482Y427619D02*
X8935482Y451429D01*
X8935482Y451429D02*
X8940244Y460953D01*
X8940244Y460953D02*
X8945006Y465714D01*
X8945006Y465714D02*
X8954530Y470476D01*
X8954530Y470476D02*
X8964053Y470476D01*
X8964053Y470476D02*
X8978339Y465714D01*
X8978339Y465714D02*
X9035482Y408572D01*
X9035482Y408572D02*
X9035482Y470476D01*
X8935482Y503810D02*
X8935482Y565715D01*
X8935482Y565715D02*
X8973577Y532381D01*
X8973577Y532381D02*
X8973577Y546667D01*
X8973577Y546667D02*
X8978339Y556191D01*
X8978339Y556191D02*
X8983101Y560953D01*
X8983101Y560953D02*
X8992625Y565715D01*
X8992625Y565715D02*
X9016434Y565715D01*
X9016434Y565715D02*
X9025958Y560953D01*
X9025958Y560953D02*
X9030720Y556191D01*
X9030720Y556191D02*
X9035482Y546667D01*
X9035482Y546667D02*
X9035482Y518095D01*
X9035482Y518095D02*
X9030720Y508572D01*
X9030720Y508572D02*
X9025958Y503810D01*
X11816667Y-2360720D02*
X11830952Y-2365482D01*
X11830952Y-2365482D02*
X11854762Y-2365482D01*
X11854762Y-2365482D02*
X11864286Y-2360720D01*
X11864286Y-2360720D02*
X11869048Y-2355958D01*
X11869048Y-2355958D02*
X11873809Y-2346434D01*
X11873809Y-2346434D02*
X11873809Y-2336910D01*
X11873809Y-2336910D02*
X11869048Y-2327386D01*
X11869048Y-2327386D02*
X11864286Y-2322624D01*
X11864286Y-2322624D02*
X11854762Y-2317863D01*
X11854762Y-2317863D02*
X11835714Y-2313101D01*
X11835714Y-2313101D02*
X11826190Y-2308339D01*
X11826190Y-2308339D02*
X11821429Y-2303577D01*
X11821429Y-2303577D02*
X11816667Y-2294053D01*
X11816667Y-2294053D02*
X11816667Y-2284529D01*
X11816667Y-2284529D02*
X11821429Y-2275005D01*
X11821429Y-2275005D02*
X11826190Y-2270244D01*
X11826190Y-2270244D02*
X11835714Y-2265482D01*
X11835714Y-2265482D02*
X11859524Y-2265482D01*
X11859524Y-2265482D02*
X11873809Y-2270244D01*
X11907143Y-2265482D02*
X11930952Y-2365482D01*
X11930952Y-2365482D02*
X11950000Y-2294053D01*
X11950000Y-2294053D02*
X11969048Y-2365482D01*
X11969048Y-2365482D02*
X11992857Y-2265482D01*
X12078571Y-2265482D02*
X12030952Y-2265482D01*
X12030952Y-2265482D02*
X12026190Y-2313101D01*
X12026190Y-2313101D02*
X12030952Y-2308339D01*
X12030952Y-2308339D02*
X12040476Y-2303577D01*
X12040476Y-2303577D02*
X12064286Y-2303577D01*
X12064286Y-2303577D02*
X12073809Y-2308339D01*
X12073809Y-2308339D02*
X12078571Y-2313101D01*
X12078571Y-2313101D02*
X12083333Y-2322624D01*
X12083333Y-2322624D02*
X12083333Y-2346434D01*
X12083333Y-2346434D02*
X12078571Y-2355958D01*
X12078571Y-2355958D02*
X12073809Y-2360720D01*
X12073809Y-2360720D02*
X12064286Y-2365482D01*
X12064286Y-2365482D02*
X12040476Y-2365482D01*
X12040476Y-2365482D02*
X12030952Y-2360720D01*
X12030952Y-2360720D02*
X12026190Y-2355958D01*
X13066667Y-1110720D02*
X13080952Y-1115482D01*
X13080952Y-1115482D02*
X13104762Y-1115482D01*
X13104762Y-1115482D02*
X13114286Y-1110720D01*
X13114286Y-1110720D02*
X13119048Y-1105958D01*
X13119048Y-1105958D02*
X13123809Y-1096434D01*
X13123809Y-1096434D02*
X13123809Y-1086910D01*
X13123809Y-1086910D02*
X13119048Y-1077386D01*
X13119048Y-1077386D02*
X13114286Y-1072624D01*
X13114286Y-1072624D02*
X13104762Y-1067863D01*
X13104762Y-1067863D02*
X13085714Y-1063101D01*
X13085714Y-1063101D02*
X13076190Y-1058339D01*
X13076190Y-1058339D02*
X13071429Y-1053577D01*
X13071429Y-1053577D02*
X13066667Y-1044053D01*
X13066667Y-1044053D02*
X13066667Y-1034529D01*
X13066667Y-1034529D02*
X13071429Y-1025005D01*
X13071429Y-1025005D02*
X13076190Y-1020243D01*
X13076190Y-1020243D02*
X13085714Y-1015482D01*
X13085714Y-1015482D02*
X13109524Y-1015482D01*
X13109524Y-1015482D02*
X13123809Y-1020243D01*
X13157143Y-1015482D02*
X13180952Y-1115482D01*
X13180952Y-1115482D02*
X13200000Y-1044053D01*
X13200000Y-1044053D02*
X13219048Y-1115482D01*
X13219048Y-1115482D02*
X13242857Y-1015482D01*
X13323809Y-1048815D02*
X13323809Y-1115482D01*
X13300000Y-1010720D02*
X13276190Y-1082148D01*
X13276190Y-1082148D02*
X13338095Y-1082148D01*
X5957720Y-1750952D02*
X5962482Y-1736666D01*
X5962482Y-1736666D02*
X5962482Y-1712857D01*
X5962482Y-1712857D02*
X5957720Y-1703333D01*
X5957720Y-1703333D02*
X5952958Y-1698571D01*
X5952958Y-1698571D02*
X5943434Y-1693809D01*
X5943434Y-1693809D02*
X5933910Y-1693809D01*
X5933910Y-1693809D02*
X5924387Y-1698571D01*
X5924387Y-1698571D02*
X5919625Y-1703333D01*
X5919625Y-1703333D02*
X5914863Y-1712857D01*
X5914863Y-1712857D02*
X5910101Y-1731904D01*
X5910101Y-1731904D02*
X5905339Y-1741428D01*
X5905339Y-1741428D02*
X5900577Y-1746190D01*
X5900577Y-1746190D02*
X5891053Y-1750952D01*
X5891053Y-1750952D02*
X5881529Y-1750952D01*
X5881529Y-1750952D02*
X5872006Y-1746190D01*
X5872006Y-1746190D02*
X5867244Y-1741428D01*
X5867244Y-1741428D02*
X5862482Y-1731904D01*
X5862482Y-1731904D02*
X5862482Y-1708095D01*
X5862482Y-1708095D02*
X5867244Y-1693809D01*
X5862482Y-1660476D02*
X5962482Y-1636666D01*
X5962482Y-1636666D02*
X5891053Y-1617619D01*
X5891053Y-1617619D02*
X5962482Y-1598571D01*
X5962482Y-1598571D02*
X5862482Y-1574762D01*
X5962482Y-1484285D02*
X5962482Y-1541428D01*
X5962482Y-1512857D02*
X5862482Y-1512857D01*
X5862482Y-1512857D02*
X5876768Y-1522381D01*
X5876768Y-1522381D02*
X5886291Y-1531904D01*
X5886291Y-1531904D02*
X5891053Y-1541428D01*
X5862482Y-1422381D02*
X5862482Y-1412857D01*
X5862482Y-1412857D02*
X5867244Y-1403333D01*
X5867244Y-1403333D02*
X5872006Y-1398571D01*
X5872006Y-1398571D02*
X5881529Y-1393809D01*
X5881529Y-1393809D02*
X5900577Y-1389047D01*
X5900577Y-1389047D02*
X5924387Y-1389047D01*
X5924387Y-1389047D02*
X5943434Y-1393809D01*
X5943434Y-1393809D02*
X5952958Y-1398571D01*
X5952958Y-1398571D02*
X5957720Y-1403333D01*
X5957720Y-1403333D02*
X5962482Y-1412857D01*
X5962482Y-1412857D02*
X5962482Y-1422381D01*
X5962482Y-1422381D02*
X5957720Y-1431904D01*
X5957720Y-1431904D02*
X5952958Y-1436666D01*
X5952958Y-1436666D02*
X5943434Y-1441428D01*
X5943434Y-1441428D02*
X5924387Y-1446190D01*
X5924387Y-1446190D02*
X5900577Y-1446190D01*
X5900577Y-1446190D02*
X5881529Y-1441428D01*
X5881529Y-1441428D02*
X5872006Y-1436666D01*
X5872006Y-1436666D02*
X5867244Y-1431904D01*
X5867244Y-1431904D02*
X5862482Y-1422381D01*
X10173667Y-3627720D02*
X10187952Y-3632482D01*
X10187952Y-3632482D02*
X10211762Y-3632482D01*
X10211762Y-3632482D02*
X10221286Y-3627720D01*
X10221286Y-3627720D02*
X10226048Y-3622958D01*
X10226048Y-3622958D02*
X10230810Y-3613434D01*
X10230810Y-3613434D02*
X10230810Y-3603910D01*
X10230810Y-3603910D02*
X10226048Y-3594386D01*
X10226048Y-3594386D02*
X10221286Y-3589624D01*
X10221286Y-3589624D02*
X10211762Y-3584862D01*
X10211762Y-3584862D02*
X10192714Y-3580101D01*
X10192714Y-3580101D02*
X10183191Y-3575339D01*
X10183191Y-3575339D02*
X10178429Y-3570577D01*
X10178429Y-3570577D02*
X10173667Y-3561053D01*
X10173667Y-3561053D02*
X10173667Y-3551529D01*
X10173667Y-3551529D02*
X10178429Y-3542005D01*
X10178429Y-3542005D02*
X10183191Y-3537243D01*
X10183191Y-3537243D02*
X10192714Y-3532482D01*
X10192714Y-3532482D02*
X10216524Y-3532482D01*
X10216524Y-3532482D02*
X10230810Y-3537243D01*
X10264143Y-3532482D02*
X10287952Y-3632482D01*
X10287952Y-3632482D02*
X10307000Y-3561053D01*
X10307000Y-3561053D02*
X10326048Y-3632482D01*
X10326048Y-3632482D02*
X10349857Y-3532482D01*
X10440333Y-3632482D02*
X10383191Y-3632482D01*
X10411762Y-3632482D02*
X10411762Y-3532482D01*
X10411762Y-3532482D02*
X10402238Y-3546767D01*
X10402238Y-3546767D02*
X10392714Y-3556291D01*
X10392714Y-3556291D02*
X10383191Y-3561053D01*
X3541667Y-772982D02*
X3541667Y-844410D01*
X3541667Y-844410D02*
X3536905Y-858696D01*
X3536905Y-858696D02*
X3527381Y-868220D01*
X3527381Y-868220D02*
X3513095Y-872982D01*
X3513095Y-872982D02*
X3503571Y-872982D01*
X3579762Y-772982D02*
X3641667Y-772982D01*
X3641667Y-772982D02*
X3608333Y-811077D01*
X3608333Y-811077D02*
X3622619Y-811077D01*
X3622619Y-811077D02*
X3632143Y-815839D01*
X3632143Y-815839D02*
X3636905Y-820601D01*
X3636905Y-820601D02*
X3641667Y-830124D01*
X3641667Y-830124D02*
X3641667Y-853934D01*
X3641667Y-853934D02*
X3636905Y-863458D01*
X3636905Y-863458D02*
X3632143Y-868220D01*
X3632143Y-868220D02*
X3622619Y-872982D01*
X3622619Y-872982D02*
X3594048Y-872982D01*
X3594048Y-872982D02*
X3584524Y-868220D01*
X3584524Y-868220D02*
X3579762Y-863458D01*
X10235482Y-43809D02*
X10187863Y-77143D01*
X10235482Y-100952D02*
X10135482Y-100952D01*
X10135482Y-100952D02*
X10135482Y-62857D01*
X10135482Y-62857D02*
X10140244Y-53333D01*
X10140244Y-53333D02*
X10145006Y-48571D01*
X10145006Y-48571D02*
X10154530Y-43809D01*
X10154530Y-43809D02*
X10168815Y-43809D01*
X10168815Y-43809D02*
X10178339Y-48571D01*
X10178339Y-48571D02*
X10183101Y-53333D01*
X10183101Y-53333D02*
X10187863Y-62857D01*
X10187863Y-62857D02*
X10187863Y-100952D01*
X10197387Y-952D02*
X10197387Y75238D01*
X10168815Y113334D02*
X10235482Y137143D01*
X10235482Y137143D02*
X10168815Y160953D01*
X10135482Y218095D02*
X10135482Y227619D01*
X10135482Y227619D02*
X10140244Y237143D01*
X10140244Y237143D02*
X10145006Y241905D01*
X10145006Y241905D02*
X10154530Y246667D01*
X10154530Y246667D02*
X10173577Y251429D01*
X10173577Y251429D02*
X10197387Y251429D01*
X10197387Y251429D02*
X10216434Y246667D01*
X10216434Y246667D02*
X10225958Y241905D01*
X10225958Y241905D02*
X10230720Y237143D01*
X10230720Y237143D02*
X10235482Y227619D01*
X10235482Y227619D02*
X10235482Y218095D01*
X10235482Y218095D02*
X10230720Y208572D01*
X10230720Y208572D02*
X10225958Y203810D01*
X10225958Y203810D02*
X10216434Y199048D01*
X10216434Y199048D02*
X10197387Y194286D01*
X10197387Y194286D02*
X10173577Y194286D01*
X10173577Y194286D02*
X10154530Y199048D01*
X10154530Y199048D02*
X10145006Y203810D01*
X10145006Y203810D02*
X10140244Y208572D01*
X10140244Y208572D02*
X10135482Y218095D01*
X10197387Y294286D02*
X10197387Y370476D01*
X10135482Y408572D02*
X10135482Y470476D01*
X10135482Y470476D02*
X10173577Y437143D01*
X10173577Y437143D02*
X10173577Y451429D01*
X10173577Y451429D02*
X10178339Y460953D01*
X10178339Y460953D02*
X10183101Y465714D01*
X10183101Y465714D02*
X10192625Y470476D01*
X10192625Y470476D02*
X10216434Y470476D01*
X10216434Y470476D02*
X10225958Y465714D01*
X10225958Y465714D02*
X10230720Y460953D01*
X10230720Y460953D02*
X10235482Y451429D01*
X10235482Y451429D02*
X10235482Y422857D01*
X10235482Y422857D02*
X10230720Y413334D01*
X10230720Y413334D02*
X10225958Y408572D01*
X10235482Y565715D02*
X10235482Y508572D01*
X10235482Y537143D02*
X10135482Y537143D01*
X10135482Y537143D02*
X10149768Y527619D01*
X10149768Y527619D02*
X10159291Y518095D01*
X10159291Y518095D02*
X10164053Y508572D01*
X11002958Y-3031285D02*
X11007720Y-3036047D01*
X11007720Y-3036047D02*
X11012482Y-3050333D01*
X11012482Y-3050333D02*
X11012482Y-3059857D01*
X11012482Y-3059857D02*
X11007720Y-3074142D01*
X11007720Y-3074142D02*
X10998196Y-3083666D01*
X10998196Y-3083666D02*
X10988672Y-3088428D01*
X10988672Y-3088428D02*
X10969625Y-3093190D01*
X10969625Y-3093190D02*
X10955339Y-3093190D01*
X10955339Y-3093190D02*
X10936291Y-3088428D01*
X10936291Y-3088428D02*
X10926768Y-3083666D01*
X10926768Y-3083666D02*
X10917244Y-3074142D01*
X10917244Y-3074142D02*
X10912482Y-3059857D01*
X10912482Y-3059857D02*
X10912482Y-3050333D01*
X10912482Y-3050333D02*
X10917244Y-3036047D01*
X10917244Y-3036047D02*
X10922006Y-3031285D01*
X11012482Y-2936047D02*
X11012482Y-2993190D01*
X11012482Y-2964619D02*
X10912482Y-2964619D01*
X10912482Y-2964619D02*
X10926768Y-2974142D01*
X10926768Y-2974142D02*
X10936291Y-2983666D01*
X10936291Y-2983666D02*
X10941053Y-2993190D01*
X10912482Y-2874142D02*
X10912482Y-2864619D01*
X10912482Y-2864619D02*
X10917244Y-2855095D01*
X10917244Y-2855095D02*
X10922006Y-2850333D01*
X10922006Y-2850333D02*
X10931530Y-2845571D01*
X10931530Y-2845571D02*
X10950577Y-2840809D01*
X10950577Y-2840809D02*
X10974387Y-2840809D01*
X10974387Y-2840809D02*
X10993434Y-2845571D01*
X10993434Y-2845571D02*
X11002958Y-2850333D01*
X11002958Y-2850333D02*
X11007720Y-2855095D01*
X11007720Y-2855095D02*
X11012482Y-2864619D01*
X11012482Y-2864619D02*
X11012482Y-2874142D01*
X11012482Y-2874142D02*
X11007720Y-2883666D01*
X11007720Y-2883666D02*
X11002958Y-2888428D01*
X11002958Y-2888428D02*
X10993434Y-2893190D01*
X10993434Y-2893190D02*
X10974387Y-2897952D01*
X10974387Y-2897952D02*
X10950577Y-2897952D01*
X10950577Y-2897952D02*
X10931530Y-2893190D01*
X10931530Y-2893190D02*
X10922006Y-2888428D01*
X10922006Y-2888428D02*
X10917244Y-2883666D01*
X10917244Y-2883666D02*
X10912482Y-2874142D01*
X10535482Y-43809D02*
X10487863Y-77143D01*
X10535482Y-100952D02*
X10435482Y-100952D01*
X10435482Y-100952D02*
X10435482Y-62857D01*
X10435482Y-62857D02*
X10440244Y-53333D01*
X10440244Y-53333D02*
X10445006Y-48571D01*
X10445006Y-48571D02*
X10454530Y-43809D01*
X10454530Y-43809D02*
X10468815Y-43809D01*
X10468815Y-43809D02*
X10478339Y-48571D01*
X10478339Y-48571D02*
X10483101Y-53333D01*
X10483101Y-53333D02*
X10487863Y-62857D01*
X10487863Y-62857D02*
X10487863Y-100952D01*
X10497387Y-952D02*
X10497387Y75238D01*
X10468815Y113334D02*
X10535482Y137143D01*
X10535482Y137143D02*
X10468815Y160953D01*
X10435482Y218095D02*
X10435482Y227619D01*
X10435482Y227619D02*
X10440244Y237143D01*
X10440244Y237143D02*
X10445006Y241905D01*
X10445006Y241905D02*
X10454530Y246667D01*
X10454530Y246667D02*
X10473577Y251429D01*
X10473577Y251429D02*
X10497387Y251429D01*
X10497387Y251429D02*
X10516434Y246667D01*
X10516434Y246667D02*
X10525958Y241905D01*
X10525958Y241905D02*
X10530720Y237143D01*
X10530720Y237143D02*
X10535482Y227619D01*
X10535482Y227619D02*
X10535482Y218095D01*
X10535482Y218095D02*
X10530720Y208572D01*
X10530720Y208572D02*
X10525958Y203810D01*
X10525958Y203810D02*
X10516434Y199048D01*
X10516434Y199048D02*
X10497387Y194286D01*
X10497387Y194286D02*
X10473577Y194286D01*
X10473577Y194286D02*
X10454530Y199048D01*
X10454530Y199048D02*
X10445006Y203810D01*
X10445006Y203810D02*
X10440244Y208572D01*
X10440244Y208572D02*
X10435482Y218095D01*
X10497387Y294286D02*
X10497387Y370476D01*
X10435482Y408572D02*
X10435482Y470476D01*
X10435482Y470476D02*
X10473577Y437143D01*
X10473577Y437143D02*
X10473577Y451429D01*
X10473577Y451429D02*
X10478339Y460953D01*
X10478339Y460953D02*
X10483101Y465714D01*
X10483101Y465714D02*
X10492625Y470476D01*
X10492625Y470476D02*
X10516434Y470476D01*
X10516434Y470476D02*
X10525958Y465714D01*
X10525958Y465714D02*
X10530720Y460953D01*
X10530720Y460953D02*
X10535482Y451429D01*
X10535482Y451429D02*
X10535482Y422857D01*
X10535482Y422857D02*
X10530720Y413334D01*
X10530720Y413334D02*
X10525958Y408572D01*
X10435482Y503810D02*
X10435482Y565715D01*
X10435482Y565715D02*
X10473577Y532381D01*
X10473577Y532381D02*
X10473577Y546667D01*
X10473577Y546667D02*
X10478339Y556191D01*
X10478339Y556191D02*
X10483101Y560953D01*
X10483101Y560953D02*
X10492625Y565715D01*
X10492625Y565715D02*
X10516434Y565715D01*
X10516434Y565715D02*
X10525958Y560953D01*
X10525958Y560953D02*
X10530720Y556191D01*
X10530720Y556191D02*
X10535482Y546667D01*
X10535482Y546667D02*
X10535482Y518095D01*
X10535482Y518095D02*
X10530720Y508572D01*
X10530720Y508572D02*
X10525958Y503810D01*
X14273809Y-435482D02*
X14273809Y-335482D01*
X14273809Y-383101D02*
X14330952Y-383101D01*
X14330952Y-435482D02*
X14330952Y-335482D01*
X14421428Y-368815D02*
X14421428Y-435482D01*
X14397619Y-330720D02*
X14373809Y-402148D01*
X14373809Y-402148D02*
X14435714Y-402148D01*
X10695482Y408572D02*
X10595482Y408572D01*
X10595482Y408572D02*
X10595482Y432381D01*
X10595482Y432381D02*
X10600244Y446667D01*
X10600244Y446667D02*
X10609768Y456191D01*
X10609768Y456191D02*
X10619291Y460953D01*
X10619291Y460953D02*
X10638339Y465714D01*
X10638339Y465714D02*
X10652625Y465714D01*
X10652625Y465714D02*
X10671672Y460953D01*
X10671672Y460953D02*
X10681196Y456191D01*
X10681196Y456191D02*
X10690720Y446667D01*
X10690720Y446667D02*
X10695482Y432381D01*
X10695482Y432381D02*
X10695482Y408572D01*
X10695482Y560953D02*
X10695482Y503810D01*
X10695482Y532381D02*
X10595482Y532381D01*
X10595482Y532381D02*
X10609768Y522857D01*
X10609768Y522857D02*
X10619291Y513334D01*
X10619291Y513334D02*
X10624053Y503810D01*
X10638339Y618096D02*
X10633577Y608572D01*
X10633577Y608572D02*
X10628815Y603810D01*
X10628815Y603810D02*
X10619291Y599048D01*
X10619291Y599048D02*
X10614530Y599048D01*
X10614530Y599048D02*
X10605006Y603810D01*
X10605006Y603810D02*
X10600244Y608572D01*
X10600244Y608572D02*
X10595482Y618096D01*
X10595482Y618096D02*
X10595482Y637143D01*
X10595482Y637143D02*
X10600244Y646667D01*
X10600244Y646667D02*
X10605006Y651429D01*
X10605006Y651429D02*
X10614530Y656191D01*
X10614530Y656191D02*
X10619291Y656191D01*
X10619291Y656191D02*
X10628815Y651429D01*
X10628815Y651429D02*
X10633577Y646667D01*
X10633577Y646667D02*
X10638339Y637143D01*
X10638339Y637143D02*
X10638339Y618096D01*
X10638339Y618096D02*
X10643101Y608572D01*
X10643101Y608572D02*
X10647863Y603810D01*
X10647863Y603810D02*
X10657387Y599048D01*
X10657387Y599048D02*
X10676434Y599048D01*
X10676434Y599048D02*
X10685958Y603810D01*
X10685958Y603810D02*
X10690720Y608572D01*
X10690720Y608572D02*
X10695482Y618096D01*
X10695482Y618096D02*
X10695482Y637143D01*
X10695482Y637143D02*
X10690720Y646667D01*
X10690720Y646667D02*
X10685958Y651429D01*
X10685958Y651429D02*
X10676434Y656191D01*
X10676434Y656191D02*
X10657387Y656191D01*
X10657387Y656191D02*
X10647863Y651429D01*
X10647863Y651429D02*
X10643101Y646667D01*
X10643101Y646667D02*
X10638339Y637143D01*
X10095482Y408572D02*
X9995482Y408572D01*
X9995482Y408572D02*
X9995482Y432381D01*
X9995482Y432381D02*
X10000244Y446667D01*
X10000244Y446667D02*
X10009768Y456191D01*
X10009768Y456191D02*
X10019291Y460953D01*
X10019291Y460953D02*
X10038339Y465714D01*
X10038339Y465714D02*
X10052625Y465714D01*
X10052625Y465714D02*
X10071672Y460953D01*
X10071672Y460953D02*
X10081196Y456191D01*
X10081196Y456191D02*
X10090720Y446667D01*
X10090720Y446667D02*
X10095482Y432381D01*
X10095482Y432381D02*
X10095482Y408572D01*
X10095482Y560953D02*
X10095482Y503810D01*
X10095482Y532381D02*
X9995482Y532381D01*
X9995482Y532381D02*
X10009768Y522857D01*
X10009768Y522857D02*
X10019291Y513334D01*
X10019291Y513334D02*
X10024053Y503810D01*
X10028815Y646667D02*
X10095482Y646667D01*
X9990720Y622857D02*
X10062149Y599048D01*
X10062149Y599048D02*
X10062149Y660953D01*
X8351358Y-3433866D02*
X8356120Y-3438628D01*
X8356120Y-3438628D02*
X8360882Y-3452914D01*
X8360882Y-3452914D02*
X8360882Y-3462438D01*
X8360882Y-3462438D02*
X8356120Y-3476723D01*
X8356120Y-3476723D02*
X8346596Y-3486247D01*
X8346596Y-3486247D02*
X8337072Y-3491009D01*
X8337072Y-3491009D02*
X8318025Y-3495771D01*
X8318025Y-3495771D02*
X8303739Y-3495771D01*
X8303739Y-3495771D02*
X8284691Y-3491009D01*
X8284691Y-3491009D02*
X8275168Y-3486247D01*
X8275168Y-3486247D02*
X8265644Y-3476723D01*
X8265644Y-3476723D02*
X8260882Y-3462438D01*
X8260882Y-3462438D02*
X8260882Y-3452914D01*
X8260882Y-3452914D02*
X8265644Y-3438628D01*
X8265644Y-3438628D02*
X8270406Y-3433866D01*
X8260882Y-3348152D02*
X8260882Y-3367200D01*
X8260882Y-3367200D02*
X8265644Y-3376723D01*
X8265644Y-3376723D02*
X8270406Y-3381485D01*
X8270406Y-3381485D02*
X8284691Y-3391009D01*
X8284691Y-3391009D02*
X8303739Y-3395771D01*
X8303739Y-3395771D02*
X8341834Y-3395771D01*
X8341834Y-3395771D02*
X8351358Y-3391009D01*
X8351358Y-3391009D02*
X8356120Y-3386247D01*
X8356120Y-3386247D02*
X8360882Y-3376723D01*
X8360882Y-3376723D02*
X8360882Y-3357676D01*
X8360882Y-3357676D02*
X8356120Y-3348152D01*
X8356120Y-3348152D02*
X8351358Y-3343390D01*
X8351358Y-3343390D02*
X8341834Y-3338628D01*
X8341834Y-3338628D02*
X8318025Y-3338628D01*
X8318025Y-3338628D02*
X8308501Y-3343390D01*
X8308501Y-3343390D02*
X8303739Y-3348152D01*
X8303739Y-3348152D02*
X8298977Y-3357676D01*
X8298977Y-3357676D02*
X8298977Y-3376723D01*
X8298977Y-3376723D02*
X8303739Y-3386247D01*
X8303739Y-3386247D02*
X8308501Y-3391009D01*
X8308501Y-3391009D02*
X8318025Y-3395771D01*
X9335482Y416191D02*
X9235482Y416191D01*
X9235482Y416191D02*
X9235482Y440000D01*
X9235482Y440000D02*
X9240244Y454286D01*
X9240244Y454286D02*
X9249768Y463810D01*
X9249768Y463810D02*
X9259291Y468572D01*
X9259291Y468572D02*
X9278339Y473334D01*
X9278339Y473334D02*
X9292625Y473334D01*
X9292625Y473334D02*
X9311672Y468572D01*
X9311672Y468572D02*
X9321196Y463810D01*
X9321196Y463810D02*
X9330720Y454286D01*
X9330720Y454286D02*
X9335482Y440000D01*
X9335482Y440000D02*
X9335482Y416191D01*
X9335482Y520953D02*
X9335482Y540000D01*
X9335482Y540000D02*
X9330720Y549524D01*
X9330720Y549524D02*
X9325958Y554286D01*
X9325958Y554286D02*
X9311672Y563810D01*
X9311672Y563810D02*
X9292625Y568572D01*
X9292625Y568572D02*
X9254530Y568572D01*
X9254530Y568572D02*
X9245006Y563810D01*
X9245006Y563810D02*
X9240244Y559048D01*
X9240244Y559048D02*
X9235482Y549524D01*
X9235482Y549524D02*
X9235482Y530477D01*
X9235482Y530477D02*
X9240244Y520953D01*
X9240244Y520953D02*
X9245006Y516191D01*
X9245006Y516191D02*
X9254530Y511429D01*
X9254530Y511429D02*
X9278339Y511429D01*
X9278339Y511429D02*
X9287863Y516191D01*
X9287863Y516191D02*
X9292625Y520953D01*
X9292625Y520953D02*
X9297387Y530477D01*
X9297387Y530477D02*
X9297387Y549524D01*
X9297387Y549524D02*
X9292625Y559048D01*
X9292625Y559048D02*
X9287863Y563810D01*
X9287863Y563810D02*
X9278339Y568572D01*
X10555482Y408572D02*
X10455482Y408572D01*
X10455482Y408572D02*
X10455482Y432381D01*
X10455482Y432381D02*
X10460244Y446667D01*
X10460244Y446667D02*
X10469768Y456191D01*
X10469768Y456191D02*
X10479291Y460953D01*
X10479291Y460953D02*
X10498339Y465714D01*
X10498339Y465714D02*
X10512625Y465714D01*
X10512625Y465714D02*
X10531672Y460953D01*
X10531672Y460953D02*
X10541196Y456191D01*
X10541196Y456191D02*
X10550720Y446667D01*
X10550720Y446667D02*
X10555482Y432381D01*
X10555482Y432381D02*
X10555482Y408572D01*
X10555482Y560953D02*
X10555482Y503810D01*
X10555482Y532381D02*
X10455482Y532381D01*
X10455482Y532381D02*
X10469768Y522857D01*
X10469768Y522857D02*
X10479291Y513334D01*
X10479291Y513334D02*
X10484053Y503810D01*
X10455482Y594286D02*
X10455482Y660953D01*
X10455482Y660953D02*
X10555482Y618096D01*
X10395482Y408572D02*
X10295482Y408572D01*
X10295482Y408572D02*
X10295482Y432381D01*
X10295482Y432381D02*
X10300244Y446667D01*
X10300244Y446667D02*
X10309768Y456191D01*
X10309768Y456191D02*
X10319291Y460953D01*
X10319291Y460953D02*
X10338339Y465714D01*
X10338339Y465714D02*
X10352625Y465714D01*
X10352625Y465714D02*
X10371672Y460953D01*
X10371672Y460953D02*
X10381196Y456191D01*
X10381196Y456191D02*
X10390720Y446667D01*
X10390720Y446667D02*
X10395482Y432381D01*
X10395482Y432381D02*
X10395482Y408572D01*
X10395482Y560953D02*
X10395482Y503810D01*
X10395482Y532381D02*
X10295482Y532381D01*
X10295482Y532381D02*
X10309768Y522857D01*
X10309768Y522857D02*
X10319291Y513334D01*
X10319291Y513334D02*
X10324053Y503810D01*
X10295482Y646667D02*
X10295482Y627619D01*
X10295482Y627619D02*
X10300244Y618096D01*
X10300244Y618096D02*
X10305006Y613334D01*
X10305006Y613334D02*
X10319291Y603810D01*
X10319291Y603810D02*
X10338339Y599048D01*
X10338339Y599048D02*
X10376434Y599048D01*
X10376434Y599048D02*
X10385958Y603810D01*
X10385958Y603810D02*
X10390720Y608572D01*
X10390720Y608572D02*
X10395482Y618096D01*
X10395482Y618096D02*
X10395482Y637143D01*
X10395482Y637143D02*
X10390720Y646667D01*
X10390720Y646667D02*
X10385958Y651429D01*
X10385958Y651429D02*
X10376434Y656191D01*
X10376434Y656191D02*
X10352625Y656191D01*
X10352625Y656191D02*
X10343101Y651429D01*
X10343101Y651429D02*
X10338339Y646667D01*
X10338339Y646667D02*
X10333577Y637143D01*
X10333577Y637143D02*
X10333577Y618096D01*
X10333577Y618096D02*
X10338339Y608572D01*
X10338339Y608572D02*
X10343101Y603810D01*
X10343101Y603810D02*
X10352625Y599048D01*
X7312500Y-2900000D02*
X7312500Y-2327500D01*
X7995000Y-2792500D02*
X7992500Y-2792500D01*
X7995000Y-2792500D02*
X7995000Y-2327500D01*
X7312500Y-2327500D02*
X7322500Y-2327500D01*
X7995000Y-2327500D02*
X7992500Y-2327500D01*
D12*
X9453500Y-4520000D02*
X9586000Y-4520000D01*
X9586000Y-4513500D02*
X9586000Y-4520000D01*
X9586000Y-4513500D02*
X9939000Y-4513500D01*
X9586000Y-5408000D02*
X9586000Y-5414500D01*
X9586000Y-5414500D02*
X9939000Y-5414500D01*
X9939000Y-4513500D02*
X9939000Y-4520000D01*
X9939000Y-5408000D02*
X9939000Y-5414500D01*
X4684000Y-96500D02*
X4684000Y-243500D01*
X4684000Y-243500D02*
X4930000Y-243500D01*
X4930000Y-96500D02*
X4684000Y-96500D01*
X9987750Y-326722D02*
X9987750Y-275777D01*
X10092250Y-326722D02*
X10092250Y-275777D01*
X8237750Y-2984222D02*
X8237750Y-2933277D01*
X8342250Y-2984222D02*
X8342250Y-2933277D01*
X11550000Y-1109000D02*
X11257500Y-1109000D01*
X11550000Y-1109000D02*
X11700000Y-1109000D01*
X11550000Y-1431000D02*
X11400000Y-1431000D01*
X11550000Y-1431000D02*
X11700000Y-1431000D01*
X11206000Y-1545373D02*
X11206000Y-1574626D01*
X11104000Y-1545373D02*
X11104000Y-1574626D01*
X5862250Y-387027D02*
X5862250Y-437972D01*
X5757750Y-387027D02*
X5757750Y-437972D01*
X9496000Y-486500D02*
X9349000Y-486500D01*
X9349000Y-486500D02*
X9349000Y-732500D01*
X9496000Y-732500D02*
X9496000Y-486500D01*
X5507250Y-392027D02*
X5507250Y-442972D01*
X5402750Y-392027D02*
X5402750Y-442972D01*
X9656000Y-486500D02*
X9509000Y-486500D01*
X9509000Y-486500D02*
X9509000Y-732500D01*
X9656000Y-732500D02*
X9656000Y-486500D01*
X4124528Y-967750D02*
X4175472Y-967750D01*
X4124528Y-1072250D02*
X4175472Y-1072250D01*
X9687750Y-326722D02*
X9687750Y-275777D01*
X9792250Y-326722D02*
X9792250Y-275777D01*
X9176000Y-486500D02*
X9029000Y-486500D01*
X9029000Y-486500D02*
X9029000Y-732500D01*
X9176000Y-732500D02*
X9176000Y-486500D01*
X9537750Y-326722D02*
X9537750Y-275777D01*
X9642250Y-326722D02*
X9642250Y-275777D01*
X11242250Y-5278277D02*
X11242250Y-5329222D01*
X11137750Y-5278277D02*
X11137750Y-5329222D01*
X2685000Y-1175000D02*
X3315000Y-1175000D01*
X2685000Y-1200000D02*
X2685000Y-1175000D01*
X2685000Y-1650000D02*
X2685000Y-1390000D01*
X2685000Y-1865000D02*
X2685000Y-1840000D01*
X3315000Y-1175000D02*
X3315000Y-1200000D01*
X3315000Y-1390000D02*
X3315000Y-1650000D01*
X3315000Y-1840000D02*
X3315000Y-1865000D01*
X3315000Y-1865000D02*
X2685000Y-1865000D01*
X3935000Y-2425000D02*
X4565000Y-2425000D01*
X3935000Y-2450000D02*
X3935000Y-2425000D01*
X3935000Y-2900000D02*
X3935000Y-2640000D01*
X3935000Y-3115000D02*
X3935000Y-3090000D01*
X4565000Y-2425000D02*
X4565000Y-2450000D01*
X4565000Y-2640000D02*
X4565000Y-2900000D01*
X4565000Y-3090000D02*
X4565000Y-3115000D01*
X4565000Y-3115000D02*
X3935000Y-3115000D01*
X6209528Y-2087750D02*
X6260472Y-2087750D01*
X6209528Y-2192250D02*
X6260472Y-2192250D01*
X9112272Y-1259650D02*
X9061328Y-1259650D01*
X9112272Y-1155150D02*
X9061328Y-1155150D01*
X9387750Y-326722D02*
X9387750Y-275777D01*
X9492250Y-326722D02*
X9492250Y-275777D01*
X10644873Y-3146000D02*
X10674127Y-3146000D01*
X10644873Y-3248000D02*
X10674127Y-3248000D01*
X9335000Y-2625000D02*
X9965000Y-2625000D01*
X9335000Y-2650000D02*
X9335000Y-2625000D01*
X9335000Y-3100000D02*
X9335000Y-2840000D01*
X9335000Y-3315000D02*
X9335000Y-3290000D01*
X9965000Y-2625000D02*
X9965000Y-2650000D01*
X9965000Y-2840000D02*
X9965000Y-3100000D01*
X9965000Y-3290000D02*
X9965000Y-3315000D01*
X9965000Y-3315000D02*
X9335000Y-3315000D01*
X2685000Y-3675000D02*
X3315000Y-3675000D01*
X2685000Y-3700000D02*
X2685000Y-3675000D01*
X2685000Y-4150000D02*
X2685000Y-3890000D01*
X2685000Y-4365000D02*
X2685000Y-4340000D01*
X3315000Y-3675000D02*
X3315000Y-3700000D01*
X3315000Y-3890000D02*
X3315000Y-4150000D01*
X3315000Y-4340000D02*
X3315000Y-4365000D01*
X3315000Y-4365000D02*
X2685000Y-4365000D01*
X14135000Y-2425000D02*
X14765000Y-2425000D01*
X14135000Y-2450000D02*
X14135000Y-2425000D01*
X14135000Y-2900000D02*
X14135000Y-2640000D01*
X14135000Y-3115000D02*
X14135000Y-3090000D01*
X14765000Y-2425000D02*
X14765000Y-2450000D01*
X14765000Y-2640000D02*
X14765000Y-2900000D01*
X14765000Y-3090000D02*
X14765000Y-3115000D01*
X14765000Y-3115000D02*
X14135000Y-3115000D01*
X9087750Y-326722D02*
X9087750Y-275777D01*
X9192250Y-326722D02*
X9192250Y-275777D01*
X11441000Y-5289123D02*
X11441000Y-5318376D01*
X11339000Y-5289123D02*
X11339000Y-5318376D01*
X1435000Y-2425000D02*
X2065000Y-2425000D01*
X1435000Y-2450000D02*
X1435000Y-2425000D01*
X1435000Y-2900000D02*
X1435000Y-2640000D01*
X1435000Y-3115000D02*
X1435000Y-3090000D01*
X2065000Y-2425000D02*
X2065000Y-2450000D01*
X2065000Y-2640000D02*
X2065000Y-2900000D01*
X2065000Y-3090000D02*
X2065000Y-3115000D01*
X2065000Y-3115000D02*
X1435000Y-3115000D01*
X5034000Y-96500D02*
X5034000Y-243500D01*
X5034000Y-243500D02*
X5280000Y-243500D01*
X5280000Y-96500D02*
X5034000Y-96500D01*
X7864627Y-3141000D02*
X7835373Y-3141000D01*
X7864627Y-3039000D02*
X7835373Y-3039000D01*
X11442250Y-4924527D02*
X11442250Y-4975472D01*
X11337750Y-4924527D02*
X11337750Y-4975472D01*
X5935000Y-2625000D02*
X6565000Y-2625000D01*
X5935000Y-2650000D02*
X5935000Y-2625000D01*
X5935000Y-3100000D02*
X5935000Y-2840000D01*
X5935000Y-3315000D02*
X5935000Y-3290000D01*
X6565000Y-2625000D02*
X6565000Y-2650000D01*
X6565000Y-2840000D02*
X6565000Y-3100000D01*
X6565000Y-3290000D02*
X6565000Y-3315000D01*
X6565000Y-3315000D02*
X5935000Y-3315000D01*
X9818500Y-485250D02*
X9671500Y-485250D01*
X9671500Y-485250D02*
X9671500Y-731250D01*
X9818500Y-731250D02*
X9818500Y-485250D01*
X7029200Y-4524026D02*
X7029200Y-4494773D01*
X7131200Y-4524026D02*
X7131200Y-4494773D01*
X5384000Y-96500D02*
X5384000Y-243500D01*
X5384000Y-243500D02*
X5630000Y-243500D01*
X5630000Y-96500D02*
X5384000Y-96500D01*
X7189000Y-4331000D02*
X7219000Y-4331000D01*
X7219000Y-4331000D02*
X7219000Y-4462500D01*
X7911000Y-4331000D02*
X7881000Y-4331000D01*
X7189000Y-4301000D02*
X7189000Y-4331000D01*
X7911000Y-4301000D02*
X7911000Y-4331000D01*
X7189000Y-3639000D02*
X7189000Y-3609000D01*
X7911000Y-3639000D02*
X7911000Y-3609000D01*
X7189000Y-3609000D02*
X7219000Y-3609000D01*
X7911000Y-3609000D02*
X7881000Y-3609000D01*
X5154750Y-394527D02*
X5154750Y-445472D01*
X5050250Y-394527D02*
X5050250Y-445472D01*
X9016000Y-486500D02*
X8869000Y-486500D01*
X8869000Y-486500D02*
X8869000Y-732500D01*
X9016000Y-732500D02*
X9016000Y-486500D01*
X6473278Y542250D02*
X6524222Y542250D01*
X6473278Y437750D02*
X6524222Y437750D01*
X13025400Y-771200D02*
X13025400Y-646200D01*
X12996400Y-742200D02*
X12996400Y-145200D01*
X12996400Y-145200D02*
X11984400Y-145200D01*
X12995400Y-741200D02*
X12995400Y-666200D01*
X12995400Y-666200D02*
X12815400Y-666200D01*
X12995400Y-516200D02*
X12920400Y-516200D01*
X12920400Y-516200D02*
X12920400Y-221200D01*
X12920400Y-221200D02*
X12490400Y-221200D01*
X12900400Y-771200D02*
X13025400Y-771200D01*
X12815400Y-741200D02*
X12995400Y-741200D01*
X12815400Y-666200D02*
X12815400Y-741200D01*
X12665400Y-741200D02*
X12665400Y-666200D01*
X12665400Y-666200D02*
X12315400Y-666200D01*
X12315400Y-741200D02*
X12665400Y-741200D01*
X12315400Y-666200D02*
X12315400Y-741200D01*
X12165400Y-741200D02*
X12165400Y-666200D01*
X12165400Y-666200D02*
X11985400Y-666200D01*
X12060400Y-516200D02*
X12060400Y-221200D01*
X12060400Y-221200D02*
X12490400Y-221200D01*
X11985400Y-741200D02*
X12165400Y-741200D01*
X11985400Y-666200D02*
X11985400Y-741200D01*
X11985400Y-516200D02*
X12060400Y-516200D01*
X11984400Y-742200D02*
X12996400Y-742200D01*
X11984400Y-145200D02*
X11984400Y-742200D01*
X8071000Y-3402573D02*
X8071000Y-3431826D01*
X7969000Y-3402573D02*
X7969000Y-3431826D01*
X10587750Y-326722D02*
X10587750Y-275777D01*
X10692250Y-326722D02*
X10692250Y-275777D01*
X7044528Y542250D02*
X7095472Y542250D01*
X7044528Y437750D02*
X7095472Y437750D01*
X5734000Y-96500D02*
X5734000Y-243500D01*
X5734000Y-243500D02*
X5980000Y-243500D01*
X5980000Y-96500D02*
X5734000Y-96500D01*
X10985000Y-175000D02*
X11615000Y-175000D01*
X10985000Y-200000D02*
X10985000Y-175000D01*
X10985000Y-650000D02*
X10985000Y-390000D01*
X10985000Y-865000D02*
X10985000Y-840000D01*
X11615000Y-175000D02*
X11615000Y-200000D01*
X11615000Y-390000D02*
X11615000Y-650000D01*
X11615000Y-840000D02*
X11615000Y-865000D01*
X11615000Y-865000D02*
X10985000Y-865000D01*
X9237750Y-326722D02*
X9237750Y-275777D01*
X9342250Y-326722D02*
X9342250Y-275777D01*
X8137000Y-143000D02*
X8270000Y-143000D01*
X8137000Y-276000D02*
X8137000Y-143000D01*
X8137000Y-403000D02*
X8137000Y-1171000D01*
X8137000Y-403000D02*
X8397000Y-403000D01*
X8137000Y-1171000D02*
X8657000Y-1171000D01*
X8397000Y-143000D02*
X8657000Y-143000D01*
X8397000Y-403000D02*
X8397000Y-143000D01*
X8657000Y-143000D02*
X8657000Y-1171000D01*
X10301000Y-484000D02*
X10154000Y-484000D01*
X10154000Y-484000D02*
X10154000Y-730000D01*
X10301000Y-730000D02*
X10301000Y-484000D01*
X11410000Y-1616500D02*
X11410000Y-1763500D01*
X11410000Y-1763500D02*
X11656000Y-1763500D01*
X11656000Y-1616500D02*
X11410000Y-1616500D01*
X9061328Y-1459950D02*
X9112272Y-1459950D01*
X9061328Y-1564450D02*
X9112272Y-1564450D01*
X12885000Y-3675000D02*
X13515000Y-3675000D01*
X12885000Y-3700000D02*
X12885000Y-3675000D01*
X12885000Y-4150000D02*
X12885000Y-3890000D01*
X12885000Y-4365000D02*
X12885000Y-4340000D01*
X13515000Y-3675000D02*
X13515000Y-3700000D01*
X13515000Y-3890000D02*
X13515000Y-4150000D01*
X13515000Y-4340000D02*
X13515000Y-4365000D01*
X13515000Y-4365000D02*
X12885000Y-4365000D01*
X9981000Y-484000D02*
X9834000Y-484000D01*
X9834000Y-484000D02*
X9834000Y-730000D01*
X9981000Y-730000D02*
X9981000Y-484000D01*
X12524528Y-917750D02*
X12575472Y-917750D01*
X12524528Y-1022250D02*
X12575472Y-1022250D01*
X9837750Y-326722D02*
X9837750Y-275777D01*
X9942250Y-326722D02*
X9942250Y-275777D01*
X11550528Y-1485350D02*
X11601472Y-1485350D01*
X11550528Y-1589850D02*
X11601472Y-1589850D01*
X9327400Y-1692400D02*
X9354900Y-1692400D01*
X9354900Y-1692400D02*
X9354900Y-1821400D01*
X10319400Y-1692400D02*
X10291900Y-1692400D01*
X9327400Y-1461400D02*
X9327400Y-1692400D01*
X9327400Y-1461400D02*
X9327400Y-1230400D01*
X10319400Y-1461400D02*
X10319400Y-1692400D01*
X10319400Y-1461400D02*
X10319400Y-1230400D01*
X9327400Y-1230400D02*
X9354900Y-1230400D01*
X10319400Y-1230400D02*
X10291900Y-1230400D01*
X4804750Y-392027D02*
X4804750Y-442972D01*
X4700250Y-392027D02*
X4700250Y-442972D01*
X9112272Y-1412050D02*
X9061328Y-1412050D01*
X9112272Y-1307550D02*
X9061328Y-1307550D01*
X10287750Y-326722D02*
X10287750Y-275777D01*
X10392250Y-326722D02*
X10392250Y-275777D01*
X8937750Y-326722D02*
X8937750Y-275777D01*
X9042250Y-326722D02*
X9042250Y-275777D01*
X11635000Y-2425000D02*
X12265000Y-2425000D01*
X11635000Y-2450000D02*
X11635000Y-2425000D01*
X11635000Y-2900000D02*
X11635000Y-2640000D01*
X11635000Y-3115000D02*
X11635000Y-3090000D01*
X12265000Y-2425000D02*
X12265000Y-2450000D01*
X12265000Y-2640000D02*
X12265000Y-2900000D01*
X12265000Y-3090000D02*
X12265000Y-3115000D01*
X12265000Y-3115000D02*
X11635000Y-3115000D01*
X12885000Y-1175000D02*
X13515000Y-1175000D01*
X12885000Y-1200000D02*
X12885000Y-1175000D01*
X12885000Y-1650000D02*
X12885000Y-1390000D01*
X12885000Y-1865000D02*
X12885000Y-1840000D01*
X13515000Y-1175000D02*
X13515000Y-1200000D01*
X13515000Y-1390000D02*
X13515000Y-1650000D01*
X13515000Y-1840000D02*
X13515000Y-1865000D01*
X13515000Y-1865000D02*
X12885000Y-1865000D01*
X6082000Y-2031000D02*
X6082000Y-1846000D01*
X6017000Y-1846000D02*
X6082000Y-1846000D01*
X6017000Y-1846000D02*
X6017000Y-1294000D01*
X6156100Y-1846000D02*
X6283000Y-1846000D01*
X6283000Y-1846000D02*
X6283000Y-1294000D01*
X6017000Y-1294000D02*
X6143900Y-1294000D01*
X6156100Y-1294000D02*
X6283000Y-1294000D01*
X10499000Y-3088000D02*
X10499000Y-2903000D01*
X10434000Y-2903000D02*
X10499000Y-2903000D01*
X10434000Y-2903000D02*
X10434000Y-2351000D01*
X10573100Y-2903000D02*
X10700000Y-2903000D01*
X10700000Y-2903000D02*
X10700000Y-2351000D01*
X10434000Y-2351000D02*
X10560900Y-2351000D01*
X10573100Y-2351000D02*
X10700000Y-2351000D01*
X4110000Y-747500D02*
X4110000Y-622500D01*
X4081000Y-718500D02*
X4081000Y-121500D01*
X4081000Y-121500D02*
X3069000Y-121500D01*
X4080000Y-717500D02*
X4080000Y-642500D01*
X4080000Y-642500D02*
X3900000Y-642500D01*
X4080000Y-492500D02*
X4005000Y-492500D01*
X4005000Y-492500D02*
X4005000Y-197500D01*
X4005000Y-197500D02*
X3575000Y-197500D01*
X3985000Y-747500D02*
X4110000Y-747500D01*
X3900000Y-717500D02*
X4080000Y-717500D01*
X3900000Y-642500D02*
X3900000Y-717500D01*
X3750000Y-717500D02*
X3750000Y-642500D01*
X3750000Y-642500D02*
X3400000Y-642500D01*
X3400000Y-717500D02*
X3750000Y-717500D01*
X3400000Y-642500D02*
X3400000Y-717500D01*
X3250000Y-717500D02*
X3250000Y-642500D01*
X3250000Y-642500D02*
X3070000Y-642500D01*
X3145000Y-492500D02*
X3145000Y-197500D01*
X3145000Y-197500D02*
X3575000Y-197500D01*
X3070000Y-717500D02*
X3250000Y-717500D01*
X3070000Y-642500D02*
X3070000Y-717500D01*
X3070000Y-492500D02*
X3145000Y-492500D01*
X3069000Y-718500D02*
X4081000Y-718500D01*
X3069000Y-121500D02*
X3069000Y-718500D01*
X10137750Y-326722D02*
X10137750Y-275777D01*
X10242250Y-326722D02*
X10242250Y-275777D01*
X11000500Y-2603623D02*
X11000500Y-2632876D01*
X10898500Y-2603623D02*
X10898500Y-2632876D01*
X10437750Y-326722D02*
X10437750Y-275777D01*
X10542250Y-326722D02*
X10542250Y-275777D01*
X10783500Y-484000D02*
X10636500Y-484000D01*
X10636500Y-484000D02*
X10636500Y-730000D01*
X10783500Y-730000D02*
X10783500Y-484000D01*
X10141000Y-484000D02*
X9994000Y-484000D01*
X9994000Y-484000D02*
X9994000Y-730000D01*
X10141000Y-730000D02*
X10141000Y-484000D01*
X8223400Y-3402573D02*
X8223400Y-3431826D01*
X8121400Y-3402573D02*
X8121400Y-3431826D01*
X9336000Y-486500D02*
X9189000Y-486500D01*
X9189000Y-486500D02*
X9189000Y-732500D01*
X9336000Y-732500D02*
X9336000Y-486500D01*
X10621000Y-484000D02*
X10474000Y-484000D01*
X10474000Y-484000D02*
X10474000Y-730000D01*
X10621000Y-730000D02*
X10621000Y-484000D01*
X10461000Y-484000D02*
X10314000Y-484000D01*
X10314000Y-484000D02*
X10314000Y-730000D01*
X10461000Y-730000D02*
X10461000Y-484000D01*
%LPC*%
D13*
X7365000Y-2850000D03*
X7430000Y-2850000D03*
X7495000Y-2850000D03*
X7560000Y-2850000D03*
X7625000Y-2850000D03*
X7690000Y-2850000D03*
X7755000Y-2850000D03*
X7820000Y-2850000D03*
X7885000Y-2850000D03*
X7950000Y-2850000D03*
X7950000Y-2270000D03*
X7885000Y-2270000D03*
X7820000Y-2270000D03*
X7755000Y-2270000D03*
X7690000Y-2270000D03*
X7625000Y-2270000D03*
X7560000Y-2270000D03*
X7495000Y-2270000D03*
X7430000Y-2270000D03*
X7365000Y-2270000D03*
D14*
X14350000Y-4970000D03*
D15*
X9567500Y-4583000D03*
X9957500Y-4583000D03*
X9567500Y-4710000D03*
X9957500Y-4710000D03*
X9567500Y-4837000D03*
X9957500Y-4837000D03*
X9567500Y-4964000D03*
X9957500Y-4964000D03*
X9567500Y-5091000D03*
X9957500Y-5091000D03*
X9567500Y-5218000D03*
X9957500Y-5218000D03*
X9567500Y-5345000D03*
X9957500Y-5345000D03*
D14*
X15350000Y-2770000D03*
D16*
X4762500Y-170000D03*
X4937500Y-170000D03*
D17*
X10040000Y-392500D03*
X10040000Y-210000D03*
X8290000Y-3050000D03*
X8290000Y-2867500D03*
D18*
X11338750Y-1172500D03*
X11338750Y-1237500D03*
X11338750Y-1302500D03*
X11338750Y-1367500D03*
X11761250Y-1367500D03*
X11761250Y-1302500D03*
X11761250Y-1237500D03*
X11761250Y-1172500D03*
D19*
X11155000Y-1473750D03*
X11155000Y-1646250D03*
D20*
X5810000Y-321250D03*
X5810000Y-503750D03*
D21*
X9422500Y-565000D03*
X9422500Y-740000D03*
D20*
X5455000Y-326250D03*
X5455000Y-508750D03*
D21*
X9582500Y-565000D03*
X9582500Y-740000D03*
D22*
X4058750Y-1020000D03*
X4241250Y-1020000D03*
D17*
X9740000Y-392500D03*
X9740000Y-210000D03*
D21*
X9102500Y-565000D03*
X9102500Y-740000D03*
D17*
X9590000Y-392500D03*
X9590000Y-210000D03*
D20*
X11190000Y-5212500D03*
X11190000Y-5395000D03*
D23*
X2602500Y-1295000D03*
X3397500Y-1295000D03*
X2602500Y-1745000D03*
X3397500Y-1745000D03*
X3852500Y-2545000D03*
X4647500Y-2545000D03*
X3852500Y-2995000D03*
X4647500Y-2995000D03*
D22*
X6143750Y-2140000D03*
X6326250Y-2140000D03*
D14*
X1850000Y-4970000D03*
D24*
X9178050Y-1207400D03*
X8995550Y-1207400D03*
D17*
X9440000Y-392500D03*
X9440000Y-210000D03*
D25*
X10573250Y-3197000D03*
X10745750Y-3197000D03*
D23*
X9252500Y-2745000D03*
X10047500Y-2745000D03*
X9252500Y-3195000D03*
X10047500Y-3195000D03*
X2602500Y-3795000D03*
X3397500Y-3795000D03*
X2602500Y-4245000D03*
X3397500Y-4245000D03*
X14052500Y-2545000D03*
X14847500Y-2545000D03*
X14052500Y-2995000D03*
X14847500Y-2995000D03*
D17*
X9140000Y-392500D03*
X9140000Y-210000D03*
D19*
X11390000Y-5217500D03*
X11390000Y-5390000D03*
D23*
X1352500Y-2545000D03*
X2147500Y-2545000D03*
X1352500Y-2995000D03*
X2147500Y-2995000D03*
D16*
X5112500Y-170000D03*
X5287500Y-170000D03*
D26*
X7936250Y-3090000D03*
X7763750Y-3090000D03*
D20*
X11390000Y-4858750D03*
X11390000Y-5041250D03*
D23*
X5852500Y-2745000D03*
X6647500Y-2745000D03*
X5852500Y-3195000D03*
X6647500Y-3195000D03*
D21*
X9745000Y-563750D03*
X9745000Y-738750D03*
D27*
X7080200Y-4595650D03*
X7080200Y-4423150D03*
D16*
X5462500Y-170000D03*
X5637500Y-170000D03*
D28*
X7270000Y-4387500D03*
X7350000Y-4387500D03*
X7430000Y-4387500D03*
X7510000Y-4387500D03*
X7590000Y-4387500D03*
X7670000Y-4387500D03*
X7750000Y-4387500D03*
X7830000Y-4387500D03*
D29*
X7967500Y-4250000D03*
X7967500Y-4170000D03*
X7967500Y-4090000D03*
X7967500Y-4010000D03*
X7967500Y-3930000D03*
X7967500Y-3850000D03*
X7967500Y-3770000D03*
X7967500Y-3690000D03*
D28*
X7830000Y-3552500D03*
X7750000Y-3552500D03*
X7670000Y-3552500D03*
X7590000Y-3552500D03*
X7510000Y-3552500D03*
X7430000Y-3552500D03*
X7350000Y-3552500D03*
X7270000Y-3552500D03*
D29*
X7132500Y-3690000D03*
X7132500Y-3770000D03*
X7132500Y-3850000D03*
X7132500Y-3930000D03*
X7132500Y-4010000D03*
X7132500Y-4090000D03*
X7132500Y-4170000D03*
X7132500Y-4250000D03*
D20*
X5102500Y-328750D03*
X5102500Y-511250D03*
D21*
X8942500Y-565000D03*
X8942500Y-740000D03*
D22*
X6407500Y490000D03*
X6590000Y490000D03*
D30*
X12740400Y-496200D03*
D31*
X12490400Y-496200D03*
X12240400Y-496200D03*
D19*
X8020000Y-3330950D03*
X8020000Y-3503450D03*
D17*
X10640000Y-392500D03*
X10640000Y-210000D03*
D22*
X6978750Y490000D03*
X7161250Y490000D03*
D16*
X5812500Y-170000D03*
X5987500Y-170000D03*
D23*
X10902500Y-295000D03*
X11697500Y-295000D03*
X10902500Y-745000D03*
X11697500Y-745000D03*
D17*
X9290000Y-392500D03*
X9290000Y-210000D03*
D32*
X8270000Y-276000D03*
D33*
X8524000Y-276000D03*
X8270000Y-530000D03*
X8524000Y-530000D03*
X8270000Y-784000D03*
X8524000Y-784000D03*
X8270000Y-1038000D03*
X8524000Y-1038000D03*
D21*
X10227500Y-562500D03*
X10227500Y-737500D03*
D16*
X11488500Y-1690000D03*
X11663500Y-1690000D03*
D22*
X8995550Y-1512200D03*
X9178050Y-1512200D03*
D23*
X12802500Y-3795000D03*
X13597500Y-3795000D03*
X12802500Y-4245000D03*
X13597500Y-4245000D03*
D21*
X9907500Y-562500D03*
X9907500Y-737500D03*
D22*
X12458750Y-970000D03*
X12641250Y-970000D03*
D17*
X9890000Y-392500D03*
X9890000Y-210000D03*
D22*
X11484750Y-1537600D03*
X11667250Y-1537600D03*
D34*
X9400900Y-1747650D03*
X9465900Y-1747650D03*
X9530900Y-1747650D03*
X9595900Y-1747650D03*
X9660900Y-1747650D03*
X9725900Y-1747650D03*
X9790900Y-1747650D03*
X9855900Y-1747650D03*
X9920900Y-1747650D03*
X9985900Y-1747650D03*
X10050900Y-1747650D03*
X10115900Y-1747650D03*
X10180900Y-1747650D03*
X10245900Y-1747650D03*
X10245900Y-1175150D03*
X10180900Y-1175150D03*
X10115900Y-1175150D03*
X10050900Y-1175150D03*
X9985900Y-1175150D03*
X9920900Y-1175150D03*
X9855900Y-1175150D03*
X9790900Y-1175150D03*
X9725900Y-1175150D03*
X9660900Y-1175150D03*
X9595900Y-1175150D03*
X9530900Y-1175150D03*
X9465900Y-1175150D03*
X9400900Y-1175150D03*
D20*
X4752500Y-326250D03*
X4752500Y-508750D03*
D14*
X1850000Y-770000D03*
X850000Y-2770000D03*
D24*
X9178050Y-1359800D03*
X8995550Y-1359800D03*
D17*
X10340000Y-392500D03*
X10340000Y-210000D03*
X8990000Y-392500D03*
X8990000Y-210000D03*
D23*
X11552500Y-2545000D03*
X12347500Y-2545000D03*
X11552500Y-2995000D03*
X12347500Y-2995000D03*
X12802500Y-1295000D03*
X13597500Y-1295000D03*
X12802500Y-1745000D03*
X13597500Y-1745000D03*
D35*
X6150000Y-1951000D03*
X6150000Y-1189000D03*
X10567000Y-3008000D03*
X10567000Y-2246000D03*
D30*
X3825000Y-472500D03*
D31*
X3575000Y-472500D03*
X3325000Y-472500D03*
D17*
X10190000Y-392500D03*
X10190000Y-210000D03*
D19*
X10949500Y-2532000D03*
X10949500Y-2704500D03*
D17*
X10490000Y-392500D03*
X10490000Y-210000D03*
D14*
X14350000Y-770000D03*
D21*
X10710000Y-562500D03*
X10710000Y-737500D03*
X10067500Y-562500D03*
X10067500Y-737500D03*
D19*
X8172400Y-3330950D03*
X8172400Y-3503450D03*
D21*
X9262500Y-565000D03*
X9262500Y-740000D03*
X10547500Y-562500D03*
X10547500Y-737500D03*
X10387500Y-562500D03*
X10387500Y-737500D03*
D36*
X11690000Y-4910000D03*
D37*
X11690000Y-5160000D03*
%LPD*%
M02*
