%TF.GenerationSoftware,KiCad,Pcbnew,7.0.6-7.0.6~ubuntu20.04.1*%
%TF.CreationDate,2023-07-11T09:00:17+02:00*%
%TF.ProjectId,output_panel2023-07-11_065927.5376850000,6f757470-7574-45f7-9061-6e656c323032,rev?*%
%TF.SameCoordinates,Original*%
%TF.FileFunction,Paste,Bot*%
%TF.FilePolarity,Positive*%
%FSLAX45Y45*%
G04 Gerber Fmt 4.5, Leading zero omitted, Abs format (unit mm)*
G04 Created by KiCad (PCBNEW 7.0.6-7.0.6~ubuntu20.04.1) date 2023-07-11 09:00:17*
%MOMM*%
%LPD*%
G01*
G04 APERTURE LIST*
G04 Aperture macros list*
%AMRoundRect*
0 Rectangle with rounded corners*
0 $1 Rounding radius*
0 $2 $3 $4 $5 $6 $7 $8 $9 X,Y pos of 4 corners*
0 Add a 4 corners polygon primitive as box body*
4,1,4,$2,$3,$4,$5,$6,$7,$8,$9,$2,$3,0*
0 Add four circle primitives for the rounded corners*
1,1,$1+$1,$2,$3*
1,1,$1+$1,$4,$5*
1,1,$1+$1,$6,$7*
1,1,$1+$1,$8,$9*
0 Add four rect primitives between the rounded corners*
20,1,$1+$1,$2,$3,$4,$5,0*
20,1,$1+$1,$4,$5,$6,$7,0*
20,1,$1+$1,$6,$7,$8,$9,0*
20,1,$1+$1,$8,$9,$2,$3,0*%
G04 Aperture macros list end*
%TA.AperFunction,Profile*%
%ADD10C,0.050000*%
%TD*%
%TA.AperFunction,Profile*%
%ADD11C,0.100000*%
%TD*%
%ADD12RoundRect,0.237500X-0.250000X-0.237500X0.250000X-0.237500X0.250000X0.237500X-0.250000X0.237500X0*%
%ADD13RoundRect,0.250000X-0.550000X1.250000X-0.550000X-1.250000X0.550000X-1.250000X0.550000X1.250000X0*%
%ADD14RoundRect,0.237500X0.250000X0.237500X-0.250000X0.237500X-0.250000X-0.237500X0.250000X-0.237500X0*%
%ADD15R,0.400000X1.000000*%
%ADD16RoundRect,0.150000X-0.150000X0.587500X-0.150000X-0.587500X0.150000X-0.587500X0.150000X0.587500X0*%
%ADD17RoundRect,0.237500X0.300000X0.237500X-0.300000X0.237500X-0.300000X-0.237500X0.300000X-0.237500X0*%
%ADD18RoundRect,0.100000X-0.100000X0.712500X-0.100000X-0.712500X0.100000X-0.712500X0.100000X0.712500X0*%
%ADD19RoundRect,0.237500X0.237500X-0.250000X0.237500X0.250000X-0.237500X0.250000X-0.237500X-0.250000X0*%
%ADD20RoundRect,0.237500X-0.237500X0.300000X-0.237500X-0.300000X0.237500X-0.300000X0.237500X0.300000X0*%
G04 APERTURE END LIST*
D10*
X32017643Y-40219379D02*
X32067643Y-31369379D01*
X14123822Y-17870000D02*
G75*
G03*
X14123822Y-12070000I-1674316J2900000D01*
G01*
X25619977Y-39514585D02*
X25719977Y-48014585D01*
X32817643Y-22569688D02*
X32467643Y-30369688D01*
X46517622Y-39814585D02*
X45967622Y-47114585D01*
D11*
X47517640Y-6570000D02*
G75*
G03*
X47117643Y-6170000I-400000J0D01*
G01*
X32017640Y-9170000D02*
G75*
G03*
X32417643Y-9570000I400000J0D01*
G01*
X47117643Y-9570003D02*
G75*
G03*
X47517643Y-9170000I-3J400003D01*
G01*
X17843821Y-5850000D02*
X30243821Y-5850000D01*
D10*
X42217622Y-12068311D02*
X41467622Y-12268311D01*
X30119977Y-38316294D02*
X26469977Y-38466294D01*
X47417622Y-12668311D02*
X46517622Y-12568311D01*
X22119996Y-41617385D02*
X21219996Y-41517385D01*
X25619977Y-12268311D02*
X25719977Y-20768311D01*
X14123822Y-23770000D02*
G75*
G03*
X14123822Y-17970000I-1674316J2900000D01*
G01*
X25719977Y-39216294D02*
X30969977Y-39066294D01*
X24619998Y-13019997D02*
X16969998Y-12919997D01*
X42317622Y-29668003D02*
X42217622Y-21718003D01*
D11*
X1723822Y-41470000D02*
X14123822Y-41470000D01*
X1850000Y-50000D02*
X14270000Y-90000D01*
D10*
X46517622Y-22218003D02*
X45967622Y-29518003D01*
X40467643Y-32319379D02*
X32817643Y-32219379D01*
D11*
X35917640Y-9170000D02*
G75*
G03*
X36317643Y-9570000I400000J0D01*
G01*
X43617640Y-6570000D02*
G75*
G03*
X43217643Y-6170000I-400000J0D01*
G01*
D10*
X25269998Y-21619997D02*
X24369998Y-21519997D01*
X21219996Y-41517385D02*
X20669996Y-48817385D01*
X26369977Y-21718003D02*
X25619977Y-21918003D01*
X16269995Y-49717385D02*
X21519996Y-49567385D01*
X20669996Y-48817385D02*
X17019996Y-48967385D01*
D11*
X47517643Y-6570000D02*
X47517643Y-9170000D01*
D10*
X41117643Y-31269688D02*
X40217643Y-31169688D01*
X1723822Y-23870000D02*
G75*
G03*
X1723822Y-29670000I1674316J-2900000D01*
G01*
D11*
X16050000Y-4670000D02*
X14250000Y-6070000D01*
D10*
X31569977Y-39914585D02*
X30669977Y-39814585D01*
X16619998Y-30369688D02*
X16169998Y-30569688D01*
D11*
X14270000Y-90000D02*
X16070000Y-1480000D01*
D10*
X30119977Y-47114585D02*
X26469977Y-47264585D01*
X41367643Y-12169997D02*
X41117643Y-21619997D01*
X40217643Y-21519997D02*
X40467643Y-13019997D01*
X40217643Y-40819379D02*
X40467643Y-32319379D01*
X30119977Y-29518003D02*
X26469977Y-29668003D01*
X32817643Y-32219379D02*
X32467643Y-40019379D01*
X46817622Y-30268003D02*
X47417622Y-22318003D01*
X32017643Y-20919997D02*
X32067643Y-12069997D01*
D11*
X1723822Y-35570000D02*
X14123822Y-35570000D01*
X35817640Y-6570000D02*
G75*
G03*
X35417643Y-6170000I-400000J0D01*
G01*
D10*
X16969998Y-32219379D02*
X16619998Y-40019379D01*
X25719977Y-48014585D02*
X30969977Y-47864585D01*
X31569977Y-31116294D02*
X30669977Y-31016294D01*
X30969977Y-30268003D02*
X31569977Y-22318003D01*
X24619998Y-22669688D02*
X16969998Y-22569688D01*
X26469977Y-29668003D02*
X26369977Y-21718003D01*
D11*
X32017643Y-9170000D02*
X32017643Y-6570000D01*
X1723822Y-23770000D02*
X14123822Y-23770000D01*
X44117643Y-6170003D02*
G75*
G03*
X43717643Y-6570000I-3J-399997D01*
G01*
X35417643Y-9570003D02*
G75*
G03*
X35817643Y-9170000I-3J400003D01*
G01*
X1723822Y-23870000D02*
X14123822Y-23870000D01*
D10*
X30669977Y-39814585D02*
X30119977Y-47114585D01*
X32467643Y-40019379D02*
X32017643Y-40219379D01*
X31569977Y-12668311D02*
X30669977Y-12568311D01*
X46817622Y-39066294D02*
X47417622Y-31116294D01*
D11*
X35917643Y-9170000D02*
X35917643Y-6570000D01*
D10*
X1723822Y-12070000D02*
G75*
G03*
X1723822Y-17870000I1674316J-2900000D01*
G01*
X25719977Y-30418003D02*
X30969977Y-30268003D01*
X17019996Y-48967385D02*
X16919996Y-41017385D01*
D11*
X40217643Y-6170003D02*
G75*
G03*
X39817643Y-6570000I-3J-399997D01*
G01*
D10*
X30243821Y-5850000D02*
G75*
G03*
X30243821Y-50000I-1674316J2900000D01*
G01*
X25619977Y-21918003D02*
X25719977Y-30418003D01*
D11*
X1723822Y-17870000D02*
X14123822Y-17870000D01*
D10*
X30669977Y-12568311D02*
X30119977Y-19868311D01*
X26369977Y-12068311D02*
X25619977Y-12268311D01*
X24369998Y-31169688D02*
X24619998Y-22669688D01*
D11*
X50000Y-1450000D02*
X1850000Y-50000D01*
D10*
X25519998Y-31469379D02*
X25269998Y-40919379D01*
X41467622Y-30716294D02*
X41567622Y-39216294D01*
D11*
X35817643Y-6570000D02*
X35817643Y-9170000D01*
D10*
X41567622Y-20768311D02*
X46817622Y-20618311D01*
X45967622Y-38316294D02*
X42317622Y-38466294D01*
X32117640Y-49717385D02*
X37367640Y-49567385D01*
D11*
X1723822Y-41570000D02*
X14123822Y-41570000D01*
D10*
X41117643Y-40919379D02*
X40217643Y-40819379D01*
X14123822Y-29670000D02*
G75*
G03*
X14123822Y-23870000I-1674316J2900000D01*
G01*
D11*
X50000Y-4670000D02*
X50000Y-1450000D01*
D10*
X46817622Y-20618311D02*
X47417622Y-12668311D01*
X16219998Y-12069997D02*
X25519998Y-12169997D01*
D11*
X39717643Y-6570000D02*
X39717643Y-9170000D01*
X39817643Y-9170000D02*
X39817643Y-6570000D01*
X1723822Y-29670000D02*
X14123822Y-29670000D01*
X43717643Y-9170000D02*
X43717643Y-6570000D01*
D10*
X42217622Y-30516294D02*
X41467622Y-30716294D01*
X46091466Y-5850000D02*
G75*
G03*
X46091466Y-50000I-1674316J2900000D01*
G01*
X30669977Y-22218003D02*
X30119977Y-29518003D01*
X32017640Y-41217385D02*
X32117640Y-49717385D01*
X1723822Y-35670000D02*
G75*
G03*
X1723822Y-41470000I1674316J-2900000D01*
G01*
X41367643Y-31469379D02*
X41117643Y-40919379D01*
X16969998Y-12919997D02*
X16619998Y-20719997D01*
X24369998Y-21519997D02*
X24619998Y-13019997D01*
D11*
X1723822Y-47370000D02*
X14123822Y-47370000D01*
X40217643Y-6170000D02*
X43217643Y-6170000D01*
D10*
X42217622Y-39314585D02*
X41467622Y-39514585D01*
X16619998Y-20719997D02*
X16169998Y-20919997D01*
D11*
X43217643Y-9570000D02*
X40217643Y-9570000D01*
D10*
X32017643Y-30569688D02*
X32067643Y-21719688D01*
X40467643Y-13019997D02*
X32817643Y-12919997D01*
D11*
X32417643Y-6170003D02*
G75*
G03*
X32017643Y-6570000I-3J-399997D01*
G01*
D10*
X36517640Y-48817385D02*
X32867640Y-48967385D01*
D11*
X39817640Y-9170000D02*
G75*
G03*
X40217643Y-9570000I400000J0D01*
G01*
D10*
X26469977Y-38466294D02*
X26369977Y-30516294D01*
X16219998Y-21719688D02*
X25519998Y-21819688D01*
D11*
X43217643Y-9570003D02*
G75*
G03*
X43617643Y-9170000I-3J400003D01*
G01*
D10*
X26369977Y-30516294D02*
X25619977Y-30716294D01*
X14123822Y-11970000D02*
G75*
G03*
X14123822Y-6170000I-1674316J2900000D01*
G01*
D11*
X39317643Y-9570000D02*
X36317643Y-9570000D01*
D10*
X25519998Y-21819688D02*
X25269998Y-31269688D01*
D11*
X1723822Y-17970000D02*
X14123822Y-17970000D01*
X47117643Y-9570000D02*
X44117643Y-9570000D01*
D10*
X37967640Y-41617385D02*
X37067640Y-41517385D01*
X41567622Y-39216294D02*
X46817622Y-39066294D01*
X16219998Y-31369379D02*
X25519998Y-31469379D01*
X30969977Y-47864585D02*
X31569977Y-39914585D01*
X40217643Y-31169688D02*
X40467643Y-22669688D01*
X21519996Y-49567385D02*
X22119996Y-41617385D01*
D11*
X43717640Y-9170000D02*
G75*
G03*
X44117643Y-9570000I400000J0D01*
G01*
D10*
X46517622Y-31016294D02*
X45967622Y-38316294D01*
X40467643Y-22669688D02*
X32817643Y-22569688D01*
D11*
X43617643Y-6570000D02*
X43617643Y-9170000D01*
D10*
X47417622Y-22318003D02*
X46517622Y-22218003D01*
X41567622Y-48014585D02*
X46817622Y-47864585D01*
D11*
X17843821Y-50000D02*
X30243821Y-50000D01*
D10*
X32867640Y-48967385D02*
X32767640Y-41017385D01*
X32067643Y-21719688D02*
X41367643Y-21819688D01*
D11*
X32417643Y-6170000D02*
X35417643Y-6170000D01*
D10*
X41467622Y-39514585D02*
X41567622Y-48014585D01*
X16969998Y-22569688D02*
X16619998Y-30369688D01*
D11*
X36317643Y-6170003D02*
G75*
G03*
X35917643Y-6570000I-3J-399997D01*
G01*
D10*
X26469977Y-47264585D02*
X26369977Y-39314585D01*
D11*
X44117643Y-6170000D02*
X47117643Y-6170000D01*
D10*
X37367640Y-49567385D02*
X37967640Y-41617385D01*
X41467622Y-21918003D02*
X41567622Y-30418003D01*
X42217622Y-21718003D02*
X41467622Y-21918003D01*
X30243821Y-11970000D02*
G75*
G03*
X30243821Y-6170000I-1674316J2900000D01*
G01*
X25719977Y-20768311D02*
X30969977Y-20618311D01*
X1723822Y-17970000D02*
G75*
G03*
X1723822Y-23770000I1674316J-2900000D01*
G01*
X24369998Y-40819379D02*
X24619998Y-32319379D01*
X17843822Y-6170000D02*
G75*
G03*
X17843821Y-11970000I1674316J-2900000D01*
G01*
X32467643Y-20719997D02*
X32017643Y-20919997D01*
X41117643Y-21619997D02*
X40217643Y-21519997D01*
D11*
X36317643Y-6170000D02*
X39317643Y-6170000D01*
D10*
X31569977Y-22318003D02*
X30669977Y-22218003D01*
X42317622Y-20018311D02*
X42217622Y-12068311D01*
X14123822Y-47370000D02*
G75*
G03*
X14123822Y-41570000I-1674316J2900000D01*
G01*
X32467643Y-30369688D02*
X32017643Y-30569688D01*
X30969977Y-20618311D02*
X31569977Y-12668311D01*
X17843821Y-50000D02*
G75*
G03*
X17843821Y-5850000I1674316J-2900000D01*
G01*
X30119977Y-19868311D02*
X26469977Y-20018311D01*
X16919996Y-41017385D02*
X16169995Y-41217385D01*
D11*
X39317643Y-9570003D02*
G75*
G03*
X39717643Y-9170000I-3J400003D01*
G01*
D10*
X25269998Y-40919379D02*
X24369998Y-40819379D01*
D11*
X1723822Y-35670000D02*
X14123822Y-35670000D01*
X17843821Y-11970000D02*
X30243821Y-11970000D01*
D10*
X42317622Y-47264585D02*
X42217622Y-39314585D01*
X1723822Y-29770000D02*
G75*
G03*
X1723822Y-35570000I1674316J-2900000D01*
G01*
D11*
X1723822Y-29770000D02*
X14123822Y-29770000D01*
X39717640Y-6570000D02*
G75*
G03*
X39317643Y-6170000I-400000J0D01*
G01*
D10*
X30669977Y-31016294D02*
X30119977Y-38316294D01*
X14123822Y-41470000D02*
G75*
G03*
X14123822Y-35670000I-1674316J2900000D01*
G01*
D11*
X1723822Y-6170000D02*
X14123822Y-6170000D01*
D10*
X25619977Y-30716294D02*
X25719977Y-39216294D01*
D11*
X33691466Y-50000D02*
X46091466Y-50000D01*
D10*
X32767640Y-41017385D02*
X32017640Y-41217385D01*
D11*
X1850000Y-6070000D02*
X50000Y-4670000D01*
D10*
X16169998Y-30569688D02*
X16219998Y-21719688D01*
X32817643Y-12919997D02*
X32467643Y-20719997D01*
X26369977Y-39314585D02*
X25619977Y-39514585D01*
D11*
X33691466Y-5850000D02*
X46091466Y-5850000D01*
D10*
X24619998Y-32319379D02*
X16969998Y-32219379D01*
X41467622Y-12268311D02*
X41567622Y-20768311D01*
X33691466Y-50000D02*
G75*
G03*
X33691466Y-5850000I1674316J-2900000D01*
G01*
X45967622Y-29518003D02*
X42317622Y-29668003D01*
D11*
X1723822Y-11970000D02*
X14123822Y-11970000D01*
X35417643Y-9570000D02*
X32417643Y-9570000D01*
D10*
X25519998Y-12169997D02*
X25269998Y-21619997D01*
X45967622Y-47114585D02*
X42317622Y-47264585D01*
X46517622Y-12568311D02*
X45967622Y-19868311D01*
D11*
X14250000Y-6070000D02*
X1850000Y-6070000D01*
D10*
X37067640Y-41517385D02*
X36517640Y-48817385D01*
X41367643Y-21819688D02*
X41117643Y-31269688D01*
X1723822Y-41570000D02*
G75*
G03*
X1723822Y-47370000I1674316J-2900000D01*
G01*
D11*
X16070000Y-1480000D02*
X16050000Y-4670000D01*
D10*
X14123822Y-35570000D02*
G75*
G03*
X14123822Y-29770000I-1674316J2900000D01*
G01*
D11*
X1723822Y-12070000D02*
X14123822Y-12070000D01*
D10*
X16169995Y-41217385D02*
X16269995Y-49717385D01*
X30969977Y-39066294D02*
X31569977Y-31116294D01*
D11*
X17843821Y-6170000D02*
X30243821Y-6170000D01*
D10*
X46817622Y-47864585D02*
X47417622Y-39914585D01*
X25269998Y-31269688D02*
X24369998Y-31169688D01*
X16169998Y-20919997D02*
X16219998Y-12069997D01*
X26469977Y-20018311D02*
X26369977Y-12068311D01*
X16619998Y-40019379D02*
X16169998Y-40219379D01*
X42317622Y-38466294D02*
X42217622Y-30516294D01*
X47417622Y-31116294D02*
X46517622Y-31016294D01*
X41567622Y-30418003D02*
X46817622Y-30268003D01*
X47417622Y-39914585D02*
X46517622Y-39814585D01*
X1723822Y-6170000D02*
G75*
G03*
X1723822Y-11970000I1674316J-2900000D01*
G01*
X45967622Y-19868311D02*
X42317622Y-20018311D01*
X32067643Y-31369379D02*
X41367643Y-31469379D01*
X16169998Y-40219379D02*
X16219998Y-31369379D01*
X32067643Y-12069997D02*
X41367643Y-12169997D01*
D12*
X38201393Y-8390000D03*
X38383893Y-8390000D03*
X41066393Y-8390000D03*
X41248893Y-8390000D03*
X44621393Y-9080000D03*
X44803893Y-9080000D03*
X13073572Y-26880000D03*
X13256072Y-26880000D03*
X33611393Y-9080000D03*
X33793893Y-9080000D03*
X41411393Y-9080000D03*
X41593893Y-9080000D03*
D13*
X7666822Y-24047000D03*
X7666822Y-24487000D03*
D12*
X37511393Y-9080000D03*
X37693893Y-9080000D03*
D14*
X3546072Y-9200000D03*
X3363572Y-9200000D03*
D12*
X29193571Y-9180000D03*
X29376071Y-9180000D03*
D15*
X29567321Y-8970000D03*
X29502321Y-8970000D03*
X29437321Y-8970000D03*
X29372321Y-8970000D03*
X29307321Y-8970000D03*
X29242321Y-8970000D03*
X29177321Y-8970000D03*
X29112321Y-8970000D03*
X29047321Y-8970000D03*
X28982321Y-8970000D03*
X28982321Y-8390000D03*
X29047321Y-8390000D03*
X29112321Y-8390000D03*
X29177321Y-8390000D03*
X29242321Y-8390000D03*
X29307321Y-8390000D03*
X29372321Y-8390000D03*
X29437321Y-8390000D03*
X29502321Y-8390000D03*
X29567321Y-8390000D03*
D16*
X42097643Y-8566250D03*
X42287643Y-8566250D03*
X42192643Y-8753750D03*
D17*
X46518893Y-8265000D03*
X46346393Y-8265000D03*
D12*
X37166393Y-8390000D03*
X37348893Y-8390000D03*
D15*
X19267321Y-8970000D03*
X19202321Y-8970000D03*
X19137321Y-8970000D03*
X19072321Y-8970000D03*
X19007321Y-8970000D03*
X18942321Y-8970000D03*
X18877321Y-8970000D03*
X18812321Y-8970000D03*
X18747321Y-8970000D03*
X18682321Y-8970000D03*
X18682321Y-8390000D03*
X18747321Y-8390000D03*
X18812321Y-8390000D03*
X18877321Y-8390000D03*
X18942321Y-8390000D03*
X19007321Y-8390000D03*
X19072321Y-8390000D03*
X19137321Y-8390000D03*
X19202321Y-8390000D03*
X19267321Y-8390000D03*
D12*
X13073572Y-15080000D03*
X13256072Y-15080000D03*
X37511393Y-8390000D03*
X37693893Y-8390000D03*
D13*
X39634466Y-227000D03*
X39634466Y-667000D03*
D12*
X32921393Y-8390000D03*
X33103893Y-8390000D03*
D16*
X33607643Y-8566250D03*
X33797643Y-8566250D03*
X33702643Y-8753750D03*
D18*
X38546393Y-8623750D03*
X38611393Y-8623750D03*
X38676393Y-8623750D03*
X38741393Y-8623750D03*
X38741393Y-9046250D03*
X38676393Y-9046250D03*
X38611393Y-9046250D03*
X38546393Y-9046250D03*
D12*
X40721393Y-9080000D03*
X40903893Y-9080000D03*
D19*
X3054822Y-21321250D03*
X3054822Y-21138750D03*
D17*
X38718893Y-8265000D03*
X38546393Y-8265000D03*
D13*
X7666822Y-29947000D03*
X7666822Y-30387000D03*
D12*
X13073572Y-44580000D03*
X13256072Y-44580000D03*
D13*
X7666822Y-18147000D03*
X7666822Y-18587000D03*
D16*
X40717643Y-8566250D03*
X40907643Y-8566250D03*
X40812643Y-8753750D03*
D19*
X3054822Y-27221250D03*
X3054822Y-27038750D03*
D15*
X3147322Y-32570000D03*
X3082322Y-32570000D03*
X3017322Y-32570000D03*
X2952322Y-32570000D03*
X2887322Y-32570000D03*
X2822322Y-32570000D03*
X2757322Y-32570000D03*
X2692322Y-32570000D03*
X2627322Y-32570000D03*
X2562322Y-32570000D03*
X2562322Y-31990000D03*
X2627322Y-31990000D03*
X2692322Y-31990000D03*
X2757322Y-31990000D03*
X2822322Y-31990000D03*
X2887322Y-31990000D03*
X2952322Y-31990000D03*
X3017322Y-31990000D03*
X3082322Y-31990000D03*
X3147322Y-31990000D03*
D19*
X29524821Y-9521250D03*
X29524821Y-9338750D03*
D18*
X34646393Y-8623750D03*
X34711393Y-8623750D03*
X34776393Y-8623750D03*
X34841393Y-8623750D03*
X34841393Y-9046250D03*
X34776393Y-9046250D03*
X34711393Y-9046250D03*
X34646393Y-9046250D03*
D19*
X29524821Y-3401250D03*
X29524821Y-3218750D03*
X13404822Y-39021250D03*
X13404822Y-38838750D03*
D17*
X34818893Y-8415000D03*
X34646393Y-8415000D03*
D12*
X33266393Y-8390000D03*
X33448893Y-8390000D03*
D15*
X45414966Y-2850000D03*
X45349966Y-2850000D03*
X45284966Y-2850000D03*
X45219966Y-2850000D03*
X45154966Y-2850000D03*
X45089966Y-2850000D03*
X45024966Y-2850000D03*
X44959966Y-2850000D03*
X44894966Y-2850000D03*
X44829966Y-2850000D03*
X44829966Y-2270000D03*
X44894966Y-2270000D03*
X44959966Y-2270000D03*
X45024966Y-2270000D03*
X45089966Y-2270000D03*
X45154966Y-2270000D03*
X45219966Y-2270000D03*
X45284966Y-2270000D03*
X45349966Y-2270000D03*
X45414966Y-2270000D03*
D17*
X42618893Y-8265000D03*
X42446393Y-8265000D03*
D14*
X3546072Y-44600000D03*
X3363572Y-44600000D03*
D12*
X42101393Y-8390000D03*
X42283893Y-8390000D03*
X41411393Y-8390000D03*
X41593893Y-8390000D03*
D19*
X3054822Y-39021250D03*
X3054822Y-38838750D03*
D16*
X45652643Y-8566250D03*
X45842643Y-8566250D03*
X45747643Y-8753750D03*
D14*
X19666071Y-9200000D03*
X19483571Y-9200000D03*
X3546072Y-32800000D03*
X3363572Y-32800000D03*
D16*
X33952643Y-8566250D03*
X34142643Y-8566250D03*
X34047643Y-8753750D03*
X45997643Y-8566250D03*
X46187643Y-8566250D03*
X46092643Y-8753750D03*
D12*
X33611393Y-8390000D03*
X33793893Y-8390000D03*
D15*
X3147322Y-8970000D03*
X3082322Y-8970000D03*
X3017322Y-8970000D03*
X2952322Y-8970000D03*
X2887322Y-8970000D03*
X2822322Y-8970000D03*
X2757322Y-8970000D03*
X2692322Y-8970000D03*
X2627322Y-8970000D03*
X2562322Y-8970000D03*
X2562322Y-8390000D03*
X2627322Y-8390000D03*
X2692322Y-8390000D03*
X2757322Y-8390000D03*
X2822322Y-8390000D03*
X2887322Y-8390000D03*
X2952322Y-8390000D03*
X3017322Y-8390000D03*
X3082322Y-8390000D03*
X3147322Y-8390000D03*
D12*
X36821393Y-8390000D03*
X37003893Y-8390000D03*
D19*
X13404822Y-27221250D03*
X13404822Y-27038750D03*
X3054822Y-33121250D03*
X3054822Y-32938750D03*
D14*
X3546072Y-15100000D03*
X3363572Y-15100000D03*
D12*
X46001393Y-8390000D03*
X46183893Y-8390000D03*
D15*
X13447322Y-32570000D03*
X13382322Y-32570000D03*
X13317322Y-32570000D03*
X13252322Y-32570000D03*
X13187322Y-32570000D03*
X13122322Y-32570000D03*
X13057322Y-32570000D03*
X12992322Y-32570000D03*
X12927322Y-32570000D03*
X12862322Y-32570000D03*
X12862322Y-31990000D03*
X12927322Y-31990000D03*
X12992322Y-31990000D03*
X13057322Y-31990000D03*
X13122322Y-31990000D03*
X13187322Y-31990000D03*
X13252322Y-31990000D03*
X13317322Y-31990000D03*
X13382322Y-31990000D03*
X13447322Y-31990000D03*
D13*
X7666822Y-41747000D03*
X7666822Y-42187000D03*
D15*
X13447322Y-38470000D03*
X13382322Y-38470000D03*
X13317322Y-38470000D03*
X13252322Y-38470000D03*
X13187322Y-38470000D03*
X13122322Y-38470000D03*
X13057322Y-38470000D03*
X12992322Y-38470000D03*
X12927322Y-38470000D03*
X12862322Y-38470000D03*
X12862322Y-37890000D03*
X12927322Y-37890000D03*
X12992322Y-37890000D03*
X13057322Y-37890000D03*
X13122322Y-37890000D03*
X13187322Y-37890000D03*
X13252322Y-37890000D03*
X13317322Y-37890000D03*
X13382322Y-37890000D03*
X13447322Y-37890000D03*
X13447322Y-26670000D03*
X13382322Y-26670000D03*
X13317322Y-26670000D03*
X13252322Y-26670000D03*
X13187322Y-26670000D03*
X13122322Y-26670000D03*
X13057322Y-26670000D03*
X12992322Y-26670000D03*
X12927322Y-26670000D03*
X12862322Y-26670000D03*
X12862322Y-26090000D03*
X12927322Y-26090000D03*
X12992322Y-26090000D03*
X13057322Y-26090000D03*
X13122322Y-26090000D03*
X13187322Y-26090000D03*
X13252322Y-26090000D03*
X13317322Y-26090000D03*
X13382322Y-26090000D03*
X13447322Y-26090000D03*
D12*
X41066393Y-9080000D03*
X41248893Y-9080000D03*
X13073572Y-20980000D03*
X13256072Y-20980000D03*
X33956393Y-8390000D03*
X34138893Y-8390000D03*
D19*
X13404822Y-21321250D03*
X13404822Y-21138750D03*
D16*
X33262643Y-8566250D03*
X33452643Y-8566250D03*
X33357643Y-8753750D03*
D15*
X3147322Y-44370000D03*
X3082322Y-44370000D03*
X3017322Y-44370000D03*
X2952322Y-44370000D03*
X2887322Y-44370000D03*
X2822322Y-44370000D03*
X2757322Y-44370000D03*
X2692322Y-44370000D03*
X2627322Y-44370000D03*
X2562322Y-44370000D03*
X2562322Y-43790000D03*
X2627322Y-43790000D03*
X2692322Y-43790000D03*
X2757322Y-43790000D03*
X2822322Y-43790000D03*
X2887322Y-43790000D03*
X2952322Y-43790000D03*
X3017322Y-43790000D03*
X3082322Y-43790000D03*
X3147322Y-43790000D03*
D18*
X42446393Y-8623750D03*
X42511393Y-8623750D03*
X42576393Y-8623750D03*
X42641393Y-8623750D03*
X42641393Y-9046250D03*
X42576393Y-9046250D03*
X42511393Y-9046250D03*
X42446393Y-9046250D03*
D19*
X13404822Y-44921250D03*
X13404822Y-44738750D03*
D12*
X34301393Y-8390000D03*
X34483893Y-8390000D03*
D15*
X3147322Y-38470000D03*
X3082322Y-38470000D03*
X3017322Y-38470000D03*
X2952322Y-38470000D03*
X2887322Y-38470000D03*
X2822322Y-38470000D03*
X2757322Y-38470000D03*
X2692322Y-38470000D03*
X2627322Y-38470000D03*
X2562322Y-38470000D03*
X2562322Y-37890000D03*
X2627322Y-37890000D03*
X2692322Y-37890000D03*
X2757322Y-37890000D03*
X2822322Y-37890000D03*
X2887322Y-37890000D03*
X2952322Y-37890000D03*
X3017322Y-37890000D03*
X3082322Y-37890000D03*
X3147322Y-37890000D03*
D12*
X34301393Y-9080000D03*
X34483893Y-9080000D03*
D19*
X3054822Y-9521250D03*
X3054822Y-9338750D03*
D12*
X38201393Y-9080000D03*
X38383893Y-9080000D03*
D19*
X13404822Y-33121250D03*
X13404822Y-32938750D03*
D14*
X19666071Y-3080000D03*
X19483571Y-3080000D03*
D19*
X35022466Y-3401250D03*
X35022466Y-3218750D03*
D20*
X7890000Y-170000D03*
X7890000Y-342500D03*
D12*
X45656393Y-8390000D03*
X45838893Y-8390000D03*
X41756393Y-8390000D03*
X41938893Y-8390000D03*
X37166393Y-9080000D03*
X37348893Y-9080000D03*
D17*
X46518893Y-8415000D03*
X46346393Y-8415000D03*
D15*
X29567321Y-2850000D03*
X29502321Y-2850000D03*
X29437321Y-2850000D03*
X29372321Y-2850000D03*
X29307321Y-2850000D03*
X29242321Y-2850000D03*
X29177321Y-2850000D03*
X29112321Y-2850000D03*
X29047321Y-2850000D03*
X28982321Y-2850000D03*
X28982321Y-2270000D03*
X29047321Y-2270000D03*
X29112321Y-2270000D03*
X29177321Y-2270000D03*
X29242321Y-2270000D03*
X29307321Y-2270000D03*
X29372321Y-2270000D03*
X29437321Y-2270000D03*
X29502321Y-2270000D03*
X29567321Y-2270000D03*
D19*
X13404822Y-15421250D03*
X13404822Y-15238750D03*
D14*
X35513716Y-3080000D03*
X35331216Y-3080000D03*
D19*
X3054822Y-15421250D03*
X3054822Y-15238750D03*
D12*
X37856393Y-9080000D03*
X38038893Y-9080000D03*
D14*
X3546072Y-26900000D03*
X3363572Y-26900000D03*
D18*
X46346393Y-8623750D03*
X46411393Y-8623750D03*
X46476393Y-8623750D03*
X46541393Y-8623750D03*
X46541393Y-9046250D03*
X46476393Y-9046250D03*
X46411393Y-9046250D03*
X46346393Y-9046250D03*
D16*
X34297643Y-8566250D03*
X34487643Y-8566250D03*
X34392643Y-8753750D03*
D17*
X42618893Y-8415000D03*
X42446393Y-8415000D03*
D12*
X13073572Y-32780000D03*
X13256072Y-32780000D03*
D19*
X3054822Y-44921250D03*
X3054822Y-44738750D03*
D12*
X37856393Y-8390000D03*
X38038893Y-8390000D03*
X45311393Y-9080000D03*
X45493893Y-9080000D03*
X40721393Y-8390000D03*
X40903893Y-8390000D03*
D15*
X19267321Y-2850000D03*
X19202321Y-2850000D03*
X19137321Y-2850000D03*
X19072321Y-2850000D03*
X19007321Y-2850000D03*
X18942321Y-2850000D03*
X18877321Y-2850000D03*
X18812321Y-2850000D03*
X18747321Y-2850000D03*
X18682321Y-2850000D03*
X18682321Y-2270000D03*
X18747321Y-2270000D03*
X18812321Y-2270000D03*
X18877321Y-2270000D03*
X18942321Y-2270000D03*
X19007321Y-2270000D03*
X19072321Y-2270000D03*
X19137321Y-2270000D03*
X19202321Y-2270000D03*
X19267321Y-2270000D03*
D12*
X33266393Y-9080000D03*
X33448893Y-9080000D03*
D14*
X3546072Y-38700000D03*
X3363572Y-38700000D03*
D12*
X46001393Y-9080000D03*
X46183893Y-9080000D03*
D15*
X3147322Y-26670000D03*
X3082322Y-26670000D03*
X3017322Y-26670000D03*
X2952322Y-26670000D03*
X2887322Y-26670000D03*
X2822322Y-26670000D03*
X2757322Y-26670000D03*
X2692322Y-26670000D03*
X2627322Y-26670000D03*
X2562322Y-26670000D03*
X2562322Y-26090000D03*
X2627322Y-26090000D03*
X2692322Y-26090000D03*
X2757322Y-26090000D03*
X2822322Y-26090000D03*
X2887322Y-26090000D03*
X2952322Y-26090000D03*
X3017322Y-26090000D03*
X3082322Y-26090000D03*
X3147322Y-26090000D03*
D12*
X13073572Y-38680000D03*
X13256072Y-38680000D03*
X33956393Y-9080000D03*
X34138893Y-9080000D03*
D14*
X3546072Y-21000000D03*
X3363572Y-21000000D03*
D16*
X36817643Y-8566250D03*
X37007643Y-8566250D03*
X36912643Y-8753750D03*
D13*
X23786821Y-227000D03*
X23786821Y-667000D03*
D16*
X38197643Y-8566250D03*
X38387643Y-8566250D03*
X38292643Y-8753750D03*
D13*
X7666822Y-12247000D03*
X7666822Y-12687000D03*
D16*
X37507643Y-8566250D03*
X37697643Y-8566250D03*
X37602643Y-8753750D03*
D12*
X45041216Y-3060000D03*
X45223716Y-3060000D03*
D15*
X13447322Y-8970000D03*
X13382322Y-8970000D03*
X13317322Y-8970000D03*
X13252322Y-8970000D03*
X13187322Y-8970000D03*
X13122322Y-8970000D03*
X13057322Y-8970000D03*
X12992322Y-8970000D03*
X12927322Y-8970000D03*
X12862322Y-8970000D03*
X12862322Y-8390000D03*
X12927322Y-8390000D03*
X12992322Y-8390000D03*
X13057322Y-8390000D03*
X13122322Y-8390000D03*
X13187322Y-8390000D03*
X13252322Y-8390000D03*
X13317322Y-8390000D03*
X13382322Y-8390000D03*
X13447322Y-8390000D03*
D16*
X41752643Y-8566250D03*
X41942643Y-8566250D03*
X41847643Y-8753750D03*
D12*
X36821393Y-9080000D03*
X37003893Y-9080000D03*
D19*
X19174821Y-9521250D03*
X19174821Y-9338750D03*
D13*
X7666822Y-6347000D03*
X7666822Y-6787000D03*
D15*
X3147322Y-20770000D03*
X3082322Y-20770000D03*
X3017322Y-20770000D03*
X2952322Y-20770000D03*
X2887322Y-20770000D03*
X2822322Y-20770000D03*
X2757322Y-20770000D03*
X2692322Y-20770000D03*
X2627322Y-20770000D03*
X2562322Y-20770000D03*
X2562322Y-20190000D03*
X2627322Y-20190000D03*
X2692322Y-20190000D03*
X2757322Y-20190000D03*
X2822322Y-20190000D03*
X2887322Y-20190000D03*
X2952322Y-20190000D03*
X3017322Y-20190000D03*
X3082322Y-20190000D03*
X3147322Y-20190000D03*
D16*
X41062643Y-8566250D03*
X41252643Y-8566250D03*
X41157643Y-8753750D03*
X37162643Y-8566250D03*
X37352643Y-8566250D03*
X37257643Y-8753750D03*
D13*
X23786821Y-6347000D03*
X23786821Y-6787000D03*
D15*
X13447322Y-20770000D03*
X13382322Y-20770000D03*
X13317322Y-20770000D03*
X13252322Y-20770000D03*
X13187322Y-20770000D03*
X13122322Y-20770000D03*
X13057322Y-20770000D03*
X12992322Y-20770000D03*
X12927322Y-20770000D03*
X12862322Y-20770000D03*
X12862322Y-20190000D03*
X12927322Y-20190000D03*
X12992322Y-20190000D03*
X13057322Y-20190000D03*
X13122322Y-20190000D03*
X13187322Y-20190000D03*
X13252322Y-20190000D03*
X13317322Y-20190000D03*
X13382322Y-20190000D03*
X13447322Y-20190000D03*
D19*
X13404822Y-9521250D03*
X13404822Y-9338750D03*
D16*
X37852643Y-8566250D03*
X38042643Y-8566250D03*
X37947643Y-8753750D03*
D12*
X45656393Y-9080000D03*
X45838893Y-9080000D03*
X45311393Y-8390000D03*
X45493893Y-8390000D03*
X29193571Y-3060000D03*
X29376071Y-3060000D03*
X44966393Y-9080000D03*
X45148893Y-9080000D03*
D16*
X45307643Y-8566250D03*
X45497643Y-8566250D03*
X45402643Y-8753750D03*
D17*
X38718893Y-8415000D03*
X38546393Y-8415000D03*
D19*
X19174821Y-3401250D03*
X19174821Y-3218750D03*
D16*
X44962643Y-8566250D03*
X45152643Y-8566250D03*
X45057643Y-8753750D03*
D17*
X34818893Y-8265000D03*
X34646393Y-8265000D03*
D12*
X32921393Y-9080000D03*
X33103893Y-9080000D03*
D16*
X44617643Y-8566250D03*
X44807643Y-8566250D03*
X44712643Y-8753750D03*
D13*
X7666822Y-35847000D03*
X7666822Y-36287000D03*
D19*
X45372466Y-3401250D03*
X45372466Y-3218750D03*
D15*
X3147322Y-14870000D03*
X3082322Y-14870000D03*
X3017322Y-14870000D03*
X2952322Y-14870000D03*
X2887322Y-14870000D03*
X2822322Y-14870000D03*
X2757322Y-14870000D03*
X2692322Y-14870000D03*
X2627322Y-14870000D03*
X2562322Y-14870000D03*
X2562322Y-14290000D03*
X2627322Y-14290000D03*
X2692322Y-14290000D03*
X2757322Y-14290000D03*
X2822322Y-14290000D03*
X2887322Y-14290000D03*
X2952322Y-14290000D03*
X3017322Y-14290000D03*
X3082322Y-14290000D03*
X3147322Y-14290000D03*
D12*
X13073572Y-9180000D03*
X13256072Y-9180000D03*
X44621393Y-8390000D03*
X44803893Y-8390000D03*
X42101393Y-9080000D03*
X42283893Y-9080000D03*
D15*
X13447322Y-14870000D03*
X13382322Y-14870000D03*
X13317322Y-14870000D03*
X13252322Y-14870000D03*
X13187322Y-14870000D03*
X13122322Y-14870000D03*
X13057322Y-14870000D03*
X12992322Y-14870000D03*
X12927322Y-14870000D03*
X12862322Y-14870000D03*
X12862322Y-14290000D03*
X12927322Y-14290000D03*
X12992322Y-14290000D03*
X13057322Y-14290000D03*
X13122322Y-14290000D03*
X13187322Y-14290000D03*
X13252322Y-14290000D03*
X13317322Y-14290000D03*
X13382322Y-14290000D03*
X13447322Y-14290000D03*
D16*
X32917643Y-8566250D03*
X33107643Y-8566250D03*
X33012643Y-8753750D03*
D15*
X35114966Y-2850000D03*
X35049966Y-2850000D03*
X34984966Y-2850000D03*
X34919966Y-2850000D03*
X34854966Y-2850000D03*
X34789966Y-2850000D03*
X34724966Y-2850000D03*
X34659966Y-2850000D03*
X34594966Y-2850000D03*
X34529966Y-2850000D03*
X34529966Y-2270000D03*
X34594966Y-2270000D03*
X34659966Y-2270000D03*
X34724966Y-2270000D03*
X34789966Y-2270000D03*
X34854966Y-2270000D03*
X34919966Y-2270000D03*
X34984966Y-2270000D03*
X35049966Y-2270000D03*
X35114966Y-2270000D03*
D12*
X41756393Y-9080000D03*
X41938893Y-9080000D03*
X44966393Y-8390000D03*
X45148893Y-8390000D03*
D16*
X41407643Y-8566250D03*
X41597643Y-8566250D03*
X41502643Y-8753750D03*
D15*
X13447322Y-44370000D03*
X13382322Y-44370000D03*
X13317322Y-44370000D03*
X13252322Y-44370000D03*
X13187322Y-44370000D03*
X13122322Y-44370000D03*
X13057322Y-44370000D03*
X12992322Y-44370000D03*
X12927322Y-44370000D03*
X12862322Y-44370000D03*
X12862322Y-43790000D03*
X12927322Y-43790000D03*
X12992322Y-43790000D03*
X13057322Y-43790000D03*
X13122322Y-43790000D03*
X13187322Y-43790000D03*
X13252322Y-43790000D03*
X13317322Y-43790000D03*
X13382322Y-43790000D03*
X13447322Y-43790000D03*
M02*
