%TF.GenerationSoftware,KiCad,Pcbnew,7.0.6-7.0.6~ubuntu20.04.1*%
%TF.CreationDate,2023-07-11T09:11:54+02:00*%
%TF.ProjectId,output_panel2023-07-11_071138.9032810000,6f757470-7574-45f7-9061-6e656c323032,rev?*%
%TF.SameCoordinates,Original*%
%TF.FileFunction,Paste,Bot*%
%TF.FilePolarity,Positive*%
%FSLAX45Y45*%
G04 Gerber Fmt 4.5, Leading zero omitted, Abs format (unit mm)*
G04 Created by KiCad (PCBNEW 7.0.6-7.0.6~ubuntu20.04.1) date 2023-07-11 09:11:54*
%MOMM*%
%LPD*%
G01*
G04 APERTURE LIST*
G04 Aperture macros list*
%AMRoundRect*
0 Rectangle with rounded corners*
0 $1 Rounding radius*
0 $2 $3 $4 $5 $6 $7 $8 $9 X,Y pos of 4 corners*
0 Add a 4 corners polygon primitive as box body*
4,1,4,$2,$3,$4,$5,$6,$7,$8,$9,$2,$3,0*
0 Add four circle primitives for the rounded corners*
1,1,$1+$1,$2,$3*
1,1,$1+$1,$4,$5*
1,1,$1+$1,$6,$7*
1,1,$1+$1,$8,$9*
0 Add four rect primitives between the rounded corners*
20,1,$1+$1,$2,$3,$4,$5,0*
20,1,$1+$1,$4,$5,$6,$7,0*
20,1,$1+$1,$6,$7,$8,$9,0*
20,1,$1+$1,$8,$9,$2,$3,0*%
G04 Aperture macros list end*
%TA.AperFunction,Profile*%
%ADD10C,0.100000*%
%TD*%
%TA.AperFunction,Profile*%
%ADD11C,0.050000*%
%TD*%
%ADD12RoundRect,0.237500X-0.237500X0.300000X-0.237500X-0.300000X0.237500X-0.300000X0.237500X0.300000X0*%
%ADD13RoundRect,0.237500X0.237500X-0.250000X0.237500X0.250000X-0.237500X0.250000X-0.237500X-0.250000X0*%
%ADD14R,0.400000X1.000000*%
%ADD15RoundRect,0.237500X-0.250000X-0.237500X0.250000X-0.237500X0.250000X0.237500X-0.250000X0.237500X0*%
%ADD16RoundRect,0.250000X-0.550000X1.250000X-0.550000X-1.250000X0.550000X-1.250000X0.550000X1.250000X0*%
%ADD17RoundRect,0.237500X0.250000X0.237500X-0.250000X0.237500X-0.250000X-0.237500X0.250000X-0.237500X0*%
G04 APERTURE END LIST*
D10*
X16050000Y-23029999D02*
X14250000Y-24429999D01*
X14250000Y-6070000D02*
X1850000Y-6070000D01*
X16070000Y-7599999D02*
X16050000Y-10789999D01*
X50000Y-13689999D02*
X1850000Y-12289999D01*
D11*
X14123822Y-30329999D02*
G75*
G03*
X14123822Y-24529999I-1674316J2900000D01*
G01*
D10*
X14250000Y-18309999D02*
X1850000Y-18309999D01*
X1850000Y-12289999D02*
X14270000Y-12329999D01*
X1723822Y-24529999D02*
X14123822Y-24529999D01*
X1723822Y-30329999D02*
X14123822Y-30329999D01*
X50000Y-23029999D02*
X50000Y-19809999D01*
X16050000Y-10789999D02*
X14250000Y-12189999D01*
X14250000Y-12189999D02*
X1850000Y-12189999D01*
X50000Y-16909999D02*
X50000Y-13689999D01*
X1850000Y-18409999D02*
X14270000Y-18449999D01*
X1850000Y-6169999D02*
X14270000Y-6209999D01*
X14250000Y-24429999D02*
X1850000Y-24429999D01*
X50000Y-1450000D02*
X1850000Y-50000D01*
X16050000Y-16909999D02*
X14250000Y-18309999D01*
X14270000Y-6209999D02*
X16070000Y-7599999D01*
X1850000Y-18309999D02*
X50000Y-16909999D01*
X16070000Y-13719999D02*
X16050000Y-16909999D01*
X50000Y-10789999D02*
X50000Y-7569999D01*
X1850000Y-6070000D02*
X50000Y-4670000D01*
X1850000Y-24429999D02*
X50000Y-23029999D01*
D11*
X1723822Y-24529999D02*
G75*
G03*
X1723822Y-30329999I1674316J-2900000D01*
G01*
D10*
X50000Y-7569999D02*
X1850000Y-6169999D01*
X14270000Y-90000D02*
X16070000Y-1480000D01*
X1850000Y-12189999D02*
X50000Y-10789999D01*
X14270000Y-12329999D02*
X16070000Y-13719999D01*
X14270000Y-18449999D02*
X16070000Y-19839999D01*
X50000Y-4670000D02*
X50000Y-1450000D01*
X16070000Y-19839999D02*
X16050000Y-23029999D01*
X16070000Y-1480000D02*
X16050000Y-4670000D01*
X50000Y-19809999D02*
X1850000Y-18409999D01*
X16050000Y-4670000D02*
X14250000Y-6070000D01*
X1850000Y-50000D02*
X14270000Y-90000D01*
D12*
X7890000Y-12409999D03*
X7890000Y-12582499D03*
D13*
X3054822Y-27881249D03*
X3054822Y-27698749D03*
D12*
X7890000Y-18529999D03*
X7890000Y-18702499D03*
X7890000Y-6289999D03*
X7890000Y-6462499D03*
D14*
X3147322Y-27329999D03*
X3082322Y-27329999D03*
X3017322Y-27329999D03*
X2952322Y-27329999D03*
X2887322Y-27329999D03*
X2822322Y-27329999D03*
X2757322Y-27329999D03*
X2692322Y-27329999D03*
X2627322Y-27329999D03*
X2562322Y-27329999D03*
X2562322Y-26749999D03*
X2627322Y-26749999D03*
X2692322Y-26749999D03*
X2757322Y-26749999D03*
X2822322Y-26749999D03*
X2887322Y-26749999D03*
X2952322Y-26749999D03*
X3017322Y-26749999D03*
X3082322Y-26749999D03*
X3147322Y-26749999D03*
D13*
X13404822Y-27881249D03*
X13404822Y-27698749D03*
D15*
X13073572Y-27539999D03*
X13256072Y-27539999D03*
D12*
X7890000Y-170000D03*
X7890000Y-342500D03*
D16*
X7666822Y-24706999D03*
X7666822Y-25146999D03*
D14*
X13447322Y-27329999D03*
X13382322Y-27329999D03*
X13317322Y-27329999D03*
X13252322Y-27329999D03*
X13187322Y-27329999D03*
X13122322Y-27329999D03*
X13057322Y-27329999D03*
X12992322Y-27329999D03*
X12927322Y-27329999D03*
X12862322Y-27329999D03*
X12862322Y-26749999D03*
X12927322Y-26749999D03*
X12992322Y-26749999D03*
X13057322Y-26749999D03*
X13122322Y-26749999D03*
X13187322Y-26749999D03*
X13252322Y-26749999D03*
X13317322Y-26749999D03*
X13382322Y-26749999D03*
X13447322Y-26749999D03*
D17*
X3546072Y-27559999D03*
X3363572Y-27559999D03*
M02*
