%TF.GenerationSoftware,KiCad,Pcbnew,7.0.6-7.0.6~ubuntu20.04.1*%
%TF.CreationDate,2023-07-11T09:35:53+02:00*%
%TF.ProjectId,output_panel2023-07-11_073542.8350490000,6f757470-7574-45f7-9061-6e656c323032,rev?*%
%TF.SameCoordinates,Original*%
%TF.FileFunction,Profile,NP*%
%FSLAX45Y45*%
G04 Gerber Fmt 4.5, Leading zero omitted, Abs format (unit mm)*
G04 Created by KiCad (PCBNEW 7.0.6-7.0.6~ubuntu20.04.1) date 2023-07-11 09:35:53*
%MOMM*%
%LPD*%
G01*
G04 APERTURE LIST*
%TA.AperFunction,Profile*%
%ADD10C,0.050000*%
%TD*%
%TA.AperFunction,Profile*%
%ADD11C,0.100000*%
%TD*%
G04 APERTURE END LIST*
D10*
X4549997Y-29518003D02*
X899996Y-29668003D01*
D11*
X1723822Y-6170000D02*
X14123822Y-6170000D01*
D10*
X9149999Y-21619997D02*
X8249999Y-21519997D01*
D11*
X3450000Y-33917982D02*
G75*
G03*
X3850000Y-33517982I0J400000D01*
G01*
X50000Y-1450000D02*
X1850000Y-50000D01*
D10*
X8249999Y-21519997D02*
X8499999Y-13019997D01*
X49996Y-21918003D02*
X149997Y-30418003D01*
D11*
X16050000Y-4670000D02*
X14250000Y-6070000D01*
X50000Y-37017982D02*
G75*
G03*
X450000Y-37417982I400000J0D01*
G01*
D10*
X1723822Y-6170000D02*
G75*
G03*
X1723822Y-11970000I1674316J-2900000D01*
G01*
D11*
X3849998Y-34417982D02*
G75*
G03*
X3450000Y-34017982I-399998J2D01*
G01*
D10*
X9399999Y-12169997D02*
X9149999Y-21619997D01*
D11*
X14250000Y-6070000D02*
X1850000Y-6070000D01*
D10*
X5999996Y-22318003D02*
X5099997Y-22218003D01*
D11*
X1850000Y-50000D02*
X14270000Y-90000D01*
X450000Y-30517982D02*
G75*
G03*
X50000Y-30917982I0J-400000D01*
G01*
X3849998Y-30917982D02*
G75*
G03*
X3450000Y-30517982I-399998J2D01*
G01*
X3450000Y-37417982D02*
X450000Y-37417982D01*
X450000Y-34017982D02*
G75*
G03*
X50000Y-34417982I0J-400000D01*
G01*
D10*
X8499999Y-13019997D02*
X849999Y-12919997D01*
D11*
X50000Y-33517982D02*
G75*
G03*
X450000Y-33917982I400000J0D01*
G01*
D10*
X14123822Y-11970000D02*
G75*
G03*
X14123822Y-6170000I-1674316J2900000D01*
G01*
X499999Y-20719997D02*
X49999Y-20919997D01*
D11*
X3450000Y-33917982D02*
X450000Y-33917982D01*
X14270000Y-90000D02*
X16070000Y-1480000D01*
D10*
X49999Y-20919997D02*
X99999Y-12069997D01*
D11*
X3450000Y-37417982D02*
G75*
G03*
X3850000Y-37017982I0J400000D01*
G01*
X450000Y-30517982D02*
X3450000Y-30517982D01*
D10*
X99999Y-12069997D02*
X9399999Y-12169997D01*
X5399997Y-30268003D02*
X5999996Y-22318003D01*
X799996Y-21718003D02*
X49996Y-21918003D01*
X149997Y-30418003D02*
X5399997Y-30268003D01*
D11*
X50000Y-37017982D02*
X50000Y-34417982D01*
X16070000Y-1480000D02*
X16050000Y-4670000D01*
D10*
X899996Y-29668003D02*
X799996Y-21718003D01*
D11*
X1723822Y-11970000D02*
X14123822Y-11970000D01*
D10*
X849999Y-12919997D02*
X499999Y-20719997D01*
D11*
X3850000Y-30917982D02*
X3850000Y-33517982D01*
X3850000Y-34417982D02*
X3850000Y-37017982D01*
X1850000Y-6070000D02*
X50000Y-4670000D01*
D10*
X5099997Y-22218003D02*
X4549997Y-29518003D01*
D11*
X450000Y-34017982D02*
X3450000Y-34017982D01*
X50000Y-4670000D02*
X50000Y-1450000D01*
X50000Y-33517982D02*
X50000Y-30917982D01*
D10*
X4549997Y-29518003D02*
X899996Y-29668003D01*
D11*
X1723822Y-6170000D02*
X14123822Y-6170000D01*
D10*
X9149999Y-21619997D02*
X8249999Y-21519997D01*
D11*
X3450000Y-33917982D02*
G75*
G03*
X3850000Y-33517982I0J400000D01*
G01*
X50000Y-1450000D02*
X1850000Y-50000D01*
D10*
X8249999Y-21519997D02*
X8499999Y-13019997D01*
X49996Y-21918003D02*
X149997Y-30418003D01*
D11*
X16050000Y-4670000D02*
X14250000Y-6070000D01*
X50000Y-37017982D02*
G75*
G03*
X450000Y-37417982I400000J0D01*
G01*
D10*
X1723822Y-6170000D02*
G75*
G03*
X1723822Y-11970000I1674316J-2900000D01*
G01*
D11*
X3849998Y-34417982D02*
G75*
G03*
X3450000Y-34017982I-399998J2D01*
G01*
D10*
X9399999Y-12169997D02*
X9149999Y-21619997D01*
D11*
X14250000Y-6070000D02*
X1850000Y-6070000D01*
D10*
X5999996Y-22318003D02*
X5099997Y-22218003D01*
D11*
X1850000Y-50000D02*
X14270000Y-90000D01*
X450000Y-30517982D02*
G75*
G03*
X50000Y-30917982I0J-400000D01*
G01*
X3849998Y-30917982D02*
G75*
G03*
X3450000Y-30517982I-399998J2D01*
G01*
X3450000Y-37417982D02*
X450000Y-37417982D01*
X450000Y-34017982D02*
G75*
G03*
X50000Y-34417982I0J-400000D01*
G01*
D10*
X8499999Y-13019997D02*
X849999Y-12919997D01*
D11*
X50000Y-33517982D02*
G75*
G03*
X450000Y-33917982I400000J0D01*
G01*
D10*
X14123822Y-11970000D02*
G75*
G03*
X14123822Y-6170000I-1674316J2900000D01*
G01*
X499999Y-20719997D02*
X49999Y-20919997D01*
D11*
X3450000Y-33917982D02*
X450000Y-33917982D01*
X14270000Y-90000D02*
X16070000Y-1480000D01*
D10*
X49999Y-20919997D02*
X99999Y-12069997D01*
D11*
X3450000Y-37417982D02*
G75*
G03*
X3850000Y-37017982I0J400000D01*
G01*
X450000Y-30517982D02*
X3450000Y-30517982D01*
D10*
X99999Y-12069997D02*
X9399999Y-12169997D01*
X5399997Y-30268003D02*
X5999996Y-22318003D01*
X799996Y-21718003D02*
X49996Y-21918003D01*
X149997Y-30418003D02*
X5399997Y-30268003D01*
D11*
X50000Y-37017982D02*
X50000Y-34417982D01*
X16070000Y-1480000D02*
X16050000Y-4670000D01*
D10*
X899996Y-29668003D02*
X799996Y-21718003D01*
D11*
X1723822Y-11970000D02*
X14123822Y-11970000D01*
D10*
X849999Y-12919997D02*
X499999Y-20719997D01*
D11*
X3850000Y-30917982D02*
X3850000Y-33517982D01*
X3850000Y-34417982D02*
X3850000Y-37017982D01*
X1850000Y-6070000D02*
X50000Y-4670000D01*
D10*
X5099997Y-22218003D02*
X4549997Y-29518003D01*
D11*
X450000Y-34017982D02*
X3450000Y-34017982D01*
X50000Y-4670000D02*
X50000Y-1450000D01*
X50000Y-33517982D02*
X50000Y-30917982D01*
M02*
