%TF.GenerationSoftware,KiCad,Pcbnew,7.0.6-7.0.6~ubuntu20.04.1*%
%TF.CreationDate,2023-07-11T09:29:22+02:00*%
%TF.ProjectId,output_panel2023-07-11_072908.4244690000,6f757470-7574-45f7-9061-6e656c323032,rev?*%
%TF.SameCoordinates,Original*%
%TF.FileFunction,Profile,NP*%
%FSLAX45Y45*%
G04 Gerber Fmt 4.5, Leading zero omitted, Abs format (unit mm)*
G04 Created by KiCad (PCBNEW 7.0.6-7.0.6~ubuntu20.04.1) date 2023-07-11 09:29:22*
%MOMM*%
%LPD*%
G01*
G04 APERTURE LIST*
%TA.AperFunction,Profile*%
%ADD10C,0.100000*%
%TD*%
%TA.AperFunction,Profile*%
%ADD11C,0.050000*%
%TD*%
G04 APERTURE END LIST*
D10*
X13299982Y-35019691D02*
X13299982Y-37619691D01*
D11*
X4549997Y-45067694D02*
X899996Y-45217694D01*
X99999Y-17969997D02*
X9399999Y-18069997D01*
D10*
X13299982Y-28019691D02*
X13299982Y-30619691D01*
D11*
X9149999Y-37169688D02*
X8249999Y-37069688D01*
D10*
X13299982Y-38519691D02*
X13299982Y-41119691D01*
X9899982Y-27619691D02*
X12899982Y-27619691D01*
D11*
X14123822Y-17870000D02*
G75*
G03*
X14123822Y-12070000I-1674316J2900000D01*
G01*
D10*
X12899982Y-34519692D02*
G75*
G03*
X13299982Y-34119691I-2J400002D01*
G01*
D11*
X49999Y-26819997D02*
X99999Y-17969997D01*
D10*
X16070000Y-1480000D02*
X16050000Y-4670000D01*
D11*
X1723822Y-12070000D02*
G75*
G03*
X1723822Y-17870000I1674316J-2900000D01*
G01*
D10*
X9499979Y-37619691D02*
G75*
G03*
X9899982Y-38019691I400001J1D01*
G01*
X1723822Y-6170000D02*
X14123822Y-6170000D01*
X1850000Y-50000D02*
X14270000Y-90000D01*
D11*
X49996Y-37467694D02*
X149997Y-45967694D01*
D10*
X9899982Y-34619691D02*
X12899982Y-34619691D01*
D11*
X899996Y-45217694D02*
X799996Y-37267694D01*
D10*
X9899982Y-38119692D02*
G75*
G03*
X9499982Y-38519691I-2J-399998D01*
G01*
D11*
X9399999Y-27719688D02*
X9149999Y-37169688D01*
D10*
X1850000Y-6070000D02*
X50000Y-4670000D01*
X13299979Y-38519691D02*
G75*
G03*
X12899982Y-38119691I-399999J1D01*
G01*
D11*
X499999Y-26619997D02*
X49999Y-26819997D01*
D10*
X14270000Y-90000D02*
X16070000Y-1480000D01*
X1723822Y-17870000D02*
X14123822Y-17870000D01*
X13299979Y-28019691D02*
G75*
G03*
X12899982Y-27619691I-399999J1D01*
G01*
X1723822Y-11970000D02*
X14123822Y-11970000D01*
X9899982Y-31119691D02*
X12899982Y-31119691D01*
D11*
X8499999Y-28569688D02*
X849999Y-28469688D01*
X849999Y-18819997D02*
X499999Y-26619997D01*
D10*
X14250000Y-6070000D02*
X1850000Y-6070000D01*
X1723822Y-12070000D02*
X14123822Y-12070000D01*
D11*
X14123822Y-11970000D02*
G75*
G03*
X14123822Y-6170000I-1674316J2900000D01*
G01*
D10*
X9899982Y-38119691D02*
X12899982Y-38119691D01*
X13299979Y-31519691D02*
G75*
G03*
X12899982Y-31119691I-399999J1D01*
G01*
D11*
X8249999Y-27419997D02*
X8499999Y-18919997D01*
D10*
X16050000Y-4670000D02*
X14250000Y-6070000D01*
X50000Y-1450000D02*
X1850000Y-50000D01*
X13299982Y-31519691D02*
X13299982Y-34119691D01*
X9499979Y-41119691D02*
G75*
G03*
X9899982Y-41519691I400001J1D01*
G01*
D11*
X10349978Y-25918311D02*
X10249978Y-17968311D01*
X9499978Y-18168311D02*
X9599978Y-26668311D01*
D10*
X13299979Y-35019691D02*
G75*
G03*
X12899982Y-34619691I-399999J1D01*
G01*
X9499979Y-30619691D02*
G75*
G03*
X9899982Y-31019691I400001J1D01*
G01*
X12899982Y-38019691D02*
X9899982Y-38019691D01*
D11*
X8249999Y-37069688D02*
X8499999Y-28569688D01*
X499999Y-36269688D02*
X49999Y-36469688D01*
D10*
X12899982Y-41519692D02*
G75*
G03*
X13299982Y-41119691I-2J400002D01*
G01*
D11*
X14549978Y-18468311D02*
X13999978Y-25768311D01*
X5399997Y-45817694D02*
X5999996Y-37867694D01*
X14849978Y-26518311D02*
X15449978Y-18568311D01*
X15449978Y-18568311D02*
X14549978Y-18468311D01*
D10*
X9499982Y-30619691D02*
X9499982Y-28019691D01*
D11*
X9149999Y-27519997D02*
X8249999Y-27419997D01*
D10*
X9499979Y-34119691D02*
G75*
G03*
X9899982Y-34519691I400001J1D01*
G01*
D11*
X13999978Y-25768311D02*
X10349978Y-25918311D01*
D10*
X9499982Y-37619691D02*
X9499982Y-35019691D01*
X9899982Y-34619692D02*
G75*
G03*
X9499982Y-35019691I-2J-399998D01*
G01*
X9899982Y-27619692D02*
G75*
G03*
X9499982Y-28019691I-2J-399998D01*
G01*
X9499982Y-34119691D02*
X9499982Y-31519691D01*
D11*
X49999Y-36469688D02*
X99999Y-27619688D01*
X99999Y-27619688D02*
X9399999Y-27719688D01*
X149997Y-45967694D02*
X5399997Y-45817694D01*
D10*
X12899982Y-34519691D02*
X9899982Y-34519691D01*
D11*
X1723822Y-6170000D02*
G75*
G03*
X1723822Y-11970000I1674316J-2900000D01*
G01*
X849999Y-28469688D02*
X499999Y-36269688D01*
D10*
X9899982Y-31119692D02*
G75*
G03*
X9499982Y-31519691I-2J-399998D01*
G01*
X12899982Y-31019692D02*
G75*
G03*
X13299982Y-30619691I-2J400002D01*
G01*
D11*
X8499999Y-18919997D02*
X849999Y-18819997D01*
D10*
X12899982Y-41519691D02*
X9899982Y-41519691D01*
D11*
X9399999Y-18069997D02*
X9149999Y-27519997D01*
D10*
X50000Y-4670000D02*
X50000Y-1450000D01*
X12899982Y-31019691D02*
X9899982Y-31019691D01*
D11*
X5099997Y-37767694D02*
X4549997Y-45067694D01*
X799996Y-37267694D02*
X49996Y-37467694D01*
D10*
X12899982Y-38019692D02*
G75*
G03*
X13299982Y-37619691I-2J400002D01*
G01*
D11*
X5999996Y-37867694D02*
X5099997Y-37767694D01*
X9599978Y-26668311D02*
X14849978Y-26518311D01*
D10*
X9499982Y-41119691D02*
X9499982Y-38519691D01*
D11*
X10249978Y-17968311D02*
X9499978Y-18168311D01*
D10*
X13299982Y-35019691D02*
X13299982Y-37619691D01*
D11*
X4549997Y-45067694D02*
X899996Y-45217694D01*
X99999Y-17969997D02*
X9399999Y-18069997D01*
D10*
X13299982Y-28019691D02*
X13299982Y-30619691D01*
D11*
X9149999Y-37169688D02*
X8249999Y-37069688D01*
D10*
X13299982Y-38519691D02*
X13299982Y-41119691D01*
X9899982Y-27619691D02*
X12899982Y-27619691D01*
D11*
X14123822Y-17870000D02*
G75*
G03*
X14123822Y-12070000I-1674316J2900000D01*
G01*
D10*
X12899982Y-34519692D02*
G75*
G03*
X13299982Y-34119691I-2J400002D01*
G01*
D11*
X49999Y-26819997D02*
X99999Y-17969997D01*
D10*
X16070000Y-1480000D02*
X16050000Y-4670000D01*
D11*
X1723822Y-12070000D02*
G75*
G03*
X1723822Y-17870000I1674316J-2900000D01*
G01*
D10*
X9499979Y-37619691D02*
G75*
G03*
X9899982Y-38019691I400001J1D01*
G01*
X1723822Y-6170000D02*
X14123822Y-6170000D01*
X1850000Y-50000D02*
X14270000Y-90000D01*
D11*
X49996Y-37467694D02*
X149997Y-45967694D01*
D10*
X9899982Y-34619691D02*
X12899982Y-34619691D01*
D11*
X899996Y-45217694D02*
X799996Y-37267694D01*
D10*
X9899982Y-38119692D02*
G75*
G03*
X9499982Y-38519691I-2J-399998D01*
G01*
D11*
X9399999Y-27719688D02*
X9149999Y-37169688D01*
D10*
X1850000Y-6070000D02*
X50000Y-4670000D01*
X13299979Y-38519691D02*
G75*
G03*
X12899982Y-38119691I-399999J1D01*
G01*
D11*
X499999Y-26619997D02*
X49999Y-26819997D01*
D10*
X14270000Y-90000D02*
X16070000Y-1480000D01*
X1723822Y-17870000D02*
X14123822Y-17870000D01*
X13299979Y-28019691D02*
G75*
G03*
X12899982Y-27619691I-399999J1D01*
G01*
X1723822Y-11970000D02*
X14123822Y-11970000D01*
X9899982Y-31119691D02*
X12899982Y-31119691D01*
D11*
X8499999Y-28569688D02*
X849999Y-28469688D01*
X849999Y-18819997D02*
X499999Y-26619997D01*
D10*
X14250000Y-6070000D02*
X1850000Y-6070000D01*
X1723822Y-12070000D02*
X14123822Y-12070000D01*
D11*
X14123822Y-11970000D02*
G75*
G03*
X14123822Y-6170000I-1674316J2900000D01*
G01*
D10*
X9899982Y-38119691D02*
X12899982Y-38119691D01*
X13299979Y-31519691D02*
G75*
G03*
X12899982Y-31119691I-399999J1D01*
G01*
D11*
X8249999Y-27419997D02*
X8499999Y-18919997D01*
D10*
X16050000Y-4670000D02*
X14250000Y-6070000D01*
X50000Y-1450000D02*
X1850000Y-50000D01*
X13299982Y-31519691D02*
X13299982Y-34119691D01*
X9499979Y-41119691D02*
G75*
G03*
X9899982Y-41519691I400001J1D01*
G01*
D11*
X10349978Y-25918311D02*
X10249978Y-17968311D01*
X9499978Y-18168311D02*
X9599978Y-26668311D01*
D10*
X13299979Y-35019691D02*
G75*
G03*
X12899982Y-34619691I-399999J1D01*
G01*
X9499979Y-30619691D02*
G75*
G03*
X9899982Y-31019691I400001J1D01*
G01*
X12899982Y-38019691D02*
X9899982Y-38019691D01*
D11*
X8249999Y-37069688D02*
X8499999Y-28569688D01*
X499999Y-36269688D02*
X49999Y-36469688D01*
D10*
X12899982Y-41519692D02*
G75*
G03*
X13299982Y-41119691I-2J400002D01*
G01*
D11*
X14549978Y-18468311D02*
X13999978Y-25768311D01*
X5399997Y-45817694D02*
X5999996Y-37867694D01*
X14849978Y-26518311D02*
X15449978Y-18568311D01*
X15449978Y-18568311D02*
X14549978Y-18468311D01*
D10*
X9499982Y-30619691D02*
X9499982Y-28019691D01*
D11*
X9149999Y-27519997D02*
X8249999Y-27419997D01*
D10*
X9499979Y-34119691D02*
G75*
G03*
X9899982Y-34519691I400001J1D01*
G01*
D11*
X13999978Y-25768311D02*
X10349978Y-25918311D01*
D10*
X9499982Y-37619691D02*
X9499982Y-35019691D01*
X9899982Y-34619692D02*
G75*
G03*
X9499982Y-35019691I-2J-399998D01*
G01*
X9899982Y-27619692D02*
G75*
G03*
X9499982Y-28019691I-2J-399998D01*
G01*
X9499982Y-34119691D02*
X9499982Y-31519691D01*
D11*
X49999Y-36469688D02*
X99999Y-27619688D01*
X99999Y-27619688D02*
X9399999Y-27719688D01*
X149997Y-45967694D02*
X5399997Y-45817694D01*
D10*
X12899982Y-34519691D02*
X9899982Y-34519691D01*
D11*
X1723822Y-6170000D02*
G75*
G03*
X1723822Y-11970000I1674316J-2900000D01*
G01*
X849999Y-28469688D02*
X499999Y-36269688D01*
D10*
X9899982Y-31119692D02*
G75*
G03*
X9499982Y-31519691I-2J-399998D01*
G01*
X12899982Y-31019692D02*
G75*
G03*
X13299982Y-30619691I-2J400002D01*
G01*
D11*
X8499999Y-18919997D02*
X849999Y-18819997D01*
D10*
X12899982Y-41519691D02*
X9899982Y-41519691D01*
D11*
X9399999Y-18069997D02*
X9149999Y-27519997D01*
D10*
X50000Y-4670000D02*
X50000Y-1450000D01*
X12899982Y-31019691D02*
X9899982Y-31019691D01*
D11*
X5099997Y-37767694D02*
X4549997Y-45067694D01*
X799996Y-37267694D02*
X49996Y-37467694D01*
D10*
X12899982Y-38019692D02*
G75*
G03*
X13299982Y-37619691I-2J400002D01*
G01*
D11*
X5999996Y-37867694D02*
X5099997Y-37767694D01*
X9599978Y-26668311D02*
X14849978Y-26518311D01*
D10*
X9499982Y-41119691D02*
X9499982Y-38519691D01*
D11*
X10249978Y-17968311D02*
X9499978Y-18168311D01*
M02*
