%TF.GenerationSoftware,KiCad,Pcbnew,7.0.6-7.0.6~ubuntu20.04.1*%
%TF.CreationDate,2023-07-11T09:00:17+02:00*%
%TF.ProjectId,output_panel2023-07-11_065927.5376850000,6f757470-7574-45f7-9061-6e656c323032,rev?*%
%TF.SameCoordinates,Original*%
%TF.FileFunction,Profile,NP*%
%FSLAX45Y45*%
G04 Gerber Fmt 4.5, Leading zero omitted, Abs format (unit mm)*
G04 Created by KiCad (PCBNEW 7.0.6-7.0.6~ubuntu20.04.1) date 2023-07-11 09:00:17*
%MOMM*%
%LPD*%
G01*
G04 APERTURE LIST*
%TA.AperFunction,Profile*%
%ADD10C,0.050000*%
%TD*%
%TA.AperFunction,Profile*%
%ADD11C,0.100000*%
%TD*%
G04 APERTURE END LIST*
D10*
X32017643Y-40219379D02*
X32067643Y-31369379D01*
X14123822Y-17870000D02*
G75*
G03*
X14123822Y-12070000I-1674316J2900000D01*
G01*
X25619977Y-39514585D02*
X25719977Y-48014585D01*
X32817643Y-22569688D02*
X32467643Y-30369688D01*
X46517622Y-39814585D02*
X45967622Y-47114585D01*
D11*
X47517640Y-6570000D02*
G75*
G03*
X47117643Y-6170000I-400000J0D01*
G01*
X32017640Y-9170000D02*
G75*
G03*
X32417643Y-9570000I400000J0D01*
G01*
X47117643Y-9570003D02*
G75*
G03*
X47517643Y-9170000I-3J400003D01*
G01*
X17843821Y-5850000D02*
X30243821Y-5850000D01*
D10*
X42217622Y-12068311D02*
X41467622Y-12268311D01*
X30119977Y-38316294D02*
X26469977Y-38466294D01*
X47417622Y-12668311D02*
X46517622Y-12568311D01*
X22119996Y-41617385D02*
X21219996Y-41517385D01*
X25619977Y-12268311D02*
X25719977Y-20768311D01*
X14123822Y-23770000D02*
G75*
G03*
X14123822Y-17970000I-1674316J2900000D01*
G01*
X25719977Y-39216294D02*
X30969977Y-39066294D01*
X24619998Y-13019997D02*
X16969998Y-12919997D01*
X42317622Y-29668003D02*
X42217622Y-21718003D01*
D11*
X1723822Y-41470000D02*
X14123822Y-41470000D01*
X1850000Y-50000D02*
X14270000Y-90000D01*
D10*
X46517622Y-22218003D02*
X45967622Y-29518003D01*
X40467643Y-32319379D02*
X32817643Y-32219379D01*
D11*
X35917640Y-9170000D02*
G75*
G03*
X36317643Y-9570000I400000J0D01*
G01*
X43617640Y-6570000D02*
G75*
G03*
X43217643Y-6170000I-400000J0D01*
G01*
D10*
X25269998Y-21619997D02*
X24369998Y-21519997D01*
X21219996Y-41517385D02*
X20669996Y-48817385D01*
X26369977Y-21718003D02*
X25619977Y-21918003D01*
X16269995Y-49717385D02*
X21519996Y-49567385D01*
X20669996Y-48817385D02*
X17019996Y-48967385D01*
D11*
X47517643Y-6570000D02*
X47517643Y-9170000D01*
D10*
X41117643Y-31269688D02*
X40217643Y-31169688D01*
X1723822Y-23870000D02*
G75*
G03*
X1723822Y-29670000I1674316J-2900000D01*
G01*
D11*
X16050000Y-4670000D02*
X14250000Y-6070000D01*
D10*
X31569977Y-39914585D02*
X30669977Y-39814585D01*
X16619998Y-30369688D02*
X16169998Y-30569688D01*
D11*
X14270000Y-90000D02*
X16070000Y-1480000D01*
D10*
X30119977Y-47114585D02*
X26469977Y-47264585D01*
X41367643Y-12169997D02*
X41117643Y-21619997D01*
X40217643Y-21519997D02*
X40467643Y-13019997D01*
X40217643Y-40819379D02*
X40467643Y-32319379D01*
X30119977Y-29518003D02*
X26469977Y-29668003D01*
X32817643Y-32219379D02*
X32467643Y-40019379D01*
X46817622Y-30268003D02*
X47417622Y-22318003D01*
X32017643Y-20919997D02*
X32067643Y-12069997D01*
D11*
X1723822Y-35570000D02*
X14123822Y-35570000D01*
X35817640Y-6570000D02*
G75*
G03*
X35417643Y-6170000I-400000J0D01*
G01*
D10*
X16969998Y-32219379D02*
X16619998Y-40019379D01*
X25719977Y-48014585D02*
X30969977Y-47864585D01*
X31569977Y-31116294D02*
X30669977Y-31016294D01*
X30969977Y-30268003D02*
X31569977Y-22318003D01*
X24619998Y-22669688D02*
X16969998Y-22569688D01*
X26469977Y-29668003D02*
X26369977Y-21718003D01*
D11*
X32017643Y-9170000D02*
X32017643Y-6570000D01*
X1723822Y-23770000D02*
X14123822Y-23770000D01*
X44117643Y-6170003D02*
G75*
G03*
X43717643Y-6570000I-3J-399997D01*
G01*
X35417643Y-9570003D02*
G75*
G03*
X35817643Y-9170000I-3J400003D01*
G01*
X1723822Y-23870000D02*
X14123822Y-23870000D01*
D10*
X30669977Y-39814585D02*
X30119977Y-47114585D01*
X32467643Y-40019379D02*
X32017643Y-40219379D01*
X31569977Y-12668311D02*
X30669977Y-12568311D01*
X46817622Y-39066294D02*
X47417622Y-31116294D01*
D11*
X35917643Y-9170000D02*
X35917643Y-6570000D01*
D10*
X1723822Y-12070000D02*
G75*
G03*
X1723822Y-17870000I1674316J-2900000D01*
G01*
X25719977Y-30418003D02*
X30969977Y-30268003D01*
X17019996Y-48967385D02*
X16919996Y-41017385D01*
D11*
X40217643Y-6170003D02*
G75*
G03*
X39817643Y-6570000I-3J-399997D01*
G01*
D10*
X30243821Y-5850000D02*
G75*
G03*
X30243821Y-50000I-1674316J2900000D01*
G01*
X25619977Y-21918003D02*
X25719977Y-30418003D01*
D11*
X1723822Y-17870000D02*
X14123822Y-17870000D01*
D10*
X30669977Y-12568311D02*
X30119977Y-19868311D01*
X26369977Y-12068311D02*
X25619977Y-12268311D01*
X24369998Y-31169688D02*
X24619998Y-22669688D01*
D11*
X50000Y-1450000D02*
X1850000Y-50000D01*
D10*
X25519998Y-31469379D02*
X25269998Y-40919379D01*
X41467622Y-30716294D02*
X41567622Y-39216294D01*
D11*
X35817643Y-6570000D02*
X35817643Y-9170000D01*
D10*
X41567622Y-20768311D02*
X46817622Y-20618311D01*
X45967622Y-38316294D02*
X42317622Y-38466294D01*
X32117640Y-49717385D02*
X37367640Y-49567385D01*
D11*
X1723822Y-41570000D02*
X14123822Y-41570000D01*
D10*
X41117643Y-40919379D02*
X40217643Y-40819379D01*
X14123822Y-29670000D02*
G75*
G03*
X14123822Y-23870000I-1674316J2900000D01*
G01*
D11*
X50000Y-4670000D02*
X50000Y-1450000D01*
D10*
X46817622Y-20618311D02*
X47417622Y-12668311D01*
X16219998Y-12069997D02*
X25519998Y-12169997D01*
D11*
X39717643Y-6570000D02*
X39717643Y-9170000D01*
X39817643Y-9170000D02*
X39817643Y-6570000D01*
X1723822Y-29670000D02*
X14123822Y-29670000D01*
X43717643Y-9170000D02*
X43717643Y-6570000D01*
D10*
X42217622Y-30516294D02*
X41467622Y-30716294D01*
X46091466Y-5850000D02*
G75*
G03*
X46091466Y-50000I-1674316J2900000D01*
G01*
X30669977Y-22218003D02*
X30119977Y-29518003D01*
X32017640Y-41217385D02*
X32117640Y-49717385D01*
X1723822Y-35670000D02*
G75*
G03*
X1723822Y-41470000I1674316J-2900000D01*
G01*
X41367643Y-31469379D02*
X41117643Y-40919379D01*
X16969998Y-12919997D02*
X16619998Y-20719997D01*
X24369998Y-21519997D02*
X24619998Y-13019997D01*
D11*
X1723822Y-47370000D02*
X14123822Y-47370000D01*
X40217643Y-6170000D02*
X43217643Y-6170000D01*
D10*
X42217622Y-39314585D02*
X41467622Y-39514585D01*
X16619998Y-20719997D02*
X16169998Y-20919997D01*
D11*
X43217643Y-9570000D02*
X40217643Y-9570000D01*
D10*
X32017643Y-30569688D02*
X32067643Y-21719688D01*
X40467643Y-13019997D02*
X32817643Y-12919997D01*
D11*
X32417643Y-6170003D02*
G75*
G03*
X32017643Y-6570000I-3J-399997D01*
G01*
D10*
X36517640Y-48817385D02*
X32867640Y-48967385D01*
D11*
X39817640Y-9170000D02*
G75*
G03*
X40217643Y-9570000I400000J0D01*
G01*
D10*
X26469977Y-38466294D02*
X26369977Y-30516294D01*
X16219998Y-21719688D02*
X25519998Y-21819688D01*
D11*
X43217643Y-9570003D02*
G75*
G03*
X43617643Y-9170000I-3J400003D01*
G01*
D10*
X26369977Y-30516294D02*
X25619977Y-30716294D01*
X14123822Y-11970000D02*
G75*
G03*
X14123822Y-6170000I-1674316J2900000D01*
G01*
D11*
X39317643Y-9570000D02*
X36317643Y-9570000D01*
D10*
X25519998Y-21819688D02*
X25269998Y-31269688D01*
D11*
X1723822Y-17970000D02*
X14123822Y-17970000D01*
X47117643Y-9570000D02*
X44117643Y-9570000D01*
D10*
X37967640Y-41617385D02*
X37067640Y-41517385D01*
X41567622Y-39216294D02*
X46817622Y-39066294D01*
X16219998Y-31369379D02*
X25519998Y-31469379D01*
X30969977Y-47864585D02*
X31569977Y-39914585D01*
X40217643Y-31169688D02*
X40467643Y-22669688D01*
X21519996Y-49567385D02*
X22119996Y-41617385D01*
D11*
X43717640Y-9170000D02*
G75*
G03*
X44117643Y-9570000I400000J0D01*
G01*
D10*
X46517622Y-31016294D02*
X45967622Y-38316294D01*
X40467643Y-22669688D02*
X32817643Y-22569688D01*
D11*
X43617643Y-6570000D02*
X43617643Y-9170000D01*
D10*
X47417622Y-22318003D02*
X46517622Y-22218003D01*
X41567622Y-48014585D02*
X46817622Y-47864585D01*
D11*
X17843821Y-50000D02*
X30243821Y-50000D01*
D10*
X32867640Y-48967385D02*
X32767640Y-41017385D01*
X32067643Y-21719688D02*
X41367643Y-21819688D01*
D11*
X32417643Y-6170000D02*
X35417643Y-6170000D01*
D10*
X41467622Y-39514585D02*
X41567622Y-48014585D01*
X16969998Y-22569688D02*
X16619998Y-30369688D01*
D11*
X36317643Y-6170003D02*
G75*
G03*
X35917643Y-6570000I-3J-399997D01*
G01*
D10*
X26469977Y-47264585D02*
X26369977Y-39314585D01*
D11*
X44117643Y-6170000D02*
X47117643Y-6170000D01*
D10*
X37367640Y-49567385D02*
X37967640Y-41617385D01*
X41467622Y-21918003D02*
X41567622Y-30418003D01*
X42217622Y-21718003D02*
X41467622Y-21918003D01*
X30243821Y-11970000D02*
G75*
G03*
X30243821Y-6170000I-1674316J2900000D01*
G01*
X25719977Y-20768311D02*
X30969977Y-20618311D01*
X1723822Y-17970000D02*
G75*
G03*
X1723822Y-23770000I1674316J-2900000D01*
G01*
X24369998Y-40819379D02*
X24619998Y-32319379D01*
X17843822Y-6170000D02*
G75*
G03*
X17843821Y-11970000I1674316J-2900000D01*
G01*
X32467643Y-20719997D02*
X32017643Y-20919997D01*
X41117643Y-21619997D02*
X40217643Y-21519997D01*
D11*
X36317643Y-6170000D02*
X39317643Y-6170000D01*
D10*
X31569977Y-22318003D02*
X30669977Y-22218003D01*
X42317622Y-20018311D02*
X42217622Y-12068311D01*
X14123822Y-47370000D02*
G75*
G03*
X14123822Y-41570000I-1674316J2900000D01*
G01*
X32467643Y-30369688D02*
X32017643Y-30569688D01*
X30969977Y-20618311D02*
X31569977Y-12668311D01*
X17843821Y-50000D02*
G75*
G03*
X17843821Y-5850000I1674316J-2900000D01*
G01*
X30119977Y-19868311D02*
X26469977Y-20018311D01*
X16919996Y-41017385D02*
X16169995Y-41217385D01*
D11*
X39317643Y-9570003D02*
G75*
G03*
X39717643Y-9170000I-3J400003D01*
G01*
D10*
X25269998Y-40919379D02*
X24369998Y-40819379D01*
D11*
X1723822Y-35670000D02*
X14123822Y-35670000D01*
X17843821Y-11970000D02*
X30243821Y-11970000D01*
D10*
X42317622Y-47264585D02*
X42217622Y-39314585D01*
X1723822Y-29770000D02*
G75*
G03*
X1723822Y-35570000I1674316J-2900000D01*
G01*
D11*
X1723822Y-29770000D02*
X14123822Y-29770000D01*
X39717640Y-6570000D02*
G75*
G03*
X39317643Y-6170000I-400000J0D01*
G01*
D10*
X30669977Y-31016294D02*
X30119977Y-38316294D01*
X14123822Y-41470000D02*
G75*
G03*
X14123822Y-35670000I-1674316J2900000D01*
G01*
D11*
X1723822Y-6170000D02*
X14123822Y-6170000D01*
D10*
X25619977Y-30716294D02*
X25719977Y-39216294D01*
D11*
X33691466Y-50000D02*
X46091466Y-50000D01*
D10*
X32767640Y-41017385D02*
X32017640Y-41217385D01*
D11*
X1850000Y-6070000D02*
X50000Y-4670000D01*
D10*
X16169998Y-30569688D02*
X16219998Y-21719688D01*
X32817643Y-12919997D02*
X32467643Y-20719997D01*
X26369977Y-39314585D02*
X25619977Y-39514585D01*
D11*
X33691466Y-5850000D02*
X46091466Y-5850000D01*
D10*
X24619998Y-32319379D02*
X16969998Y-32219379D01*
X41467622Y-12268311D02*
X41567622Y-20768311D01*
X33691466Y-50000D02*
G75*
G03*
X33691466Y-5850000I1674316J-2900000D01*
G01*
X45967622Y-29518003D02*
X42317622Y-29668003D01*
D11*
X1723822Y-11970000D02*
X14123822Y-11970000D01*
X35417643Y-9570000D02*
X32417643Y-9570000D01*
D10*
X25519998Y-12169997D02*
X25269998Y-21619997D01*
X45967622Y-47114585D02*
X42317622Y-47264585D01*
X46517622Y-12568311D02*
X45967622Y-19868311D01*
D11*
X14250000Y-6070000D02*
X1850000Y-6070000D01*
D10*
X37067640Y-41517385D02*
X36517640Y-48817385D01*
X41367643Y-21819688D02*
X41117643Y-31269688D01*
X1723822Y-41570000D02*
G75*
G03*
X1723822Y-47370000I1674316J-2900000D01*
G01*
D11*
X16070000Y-1480000D02*
X16050000Y-4670000D01*
D10*
X14123822Y-35570000D02*
G75*
G03*
X14123822Y-29770000I-1674316J2900000D01*
G01*
D11*
X1723822Y-12070000D02*
X14123822Y-12070000D01*
D10*
X16169995Y-41217385D02*
X16269995Y-49717385D01*
X30969977Y-39066294D02*
X31569977Y-31116294D01*
D11*
X17843821Y-6170000D02*
X30243821Y-6170000D01*
D10*
X46817622Y-47864585D02*
X47417622Y-39914585D01*
X25269998Y-31269688D02*
X24369998Y-31169688D01*
X16169998Y-20919997D02*
X16219998Y-12069997D01*
X26469977Y-20018311D02*
X26369977Y-12068311D01*
X16619998Y-40019379D02*
X16169998Y-40219379D01*
X42317622Y-38466294D02*
X42217622Y-30516294D01*
X47417622Y-31116294D02*
X46517622Y-31016294D01*
X41567622Y-30418003D02*
X46817622Y-30268003D01*
X47417622Y-39914585D02*
X46517622Y-39814585D01*
X1723822Y-6170000D02*
G75*
G03*
X1723822Y-11970000I1674316J-2900000D01*
G01*
X45967622Y-19868311D02*
X42317622Y-20018311D01*
X32067643Y-31369379D02*
X41367643Y-31469379D01*
X16169998Y-40219379D02*
X16219998Y-31369379D01*
X32067643Y-12069997D02*
X41367643Y-12169997D01*
X32017643Y-40219379D02*
X32067643Y-31369379D01*
X14123822Y-17870000D02*
G75*
G03*
X14123822Y-12070000I-1674316J2900000D01*
G01*
X25619977Y-39514585D02*
X25719977Y-48014585D01*
X32817643Y-22569688D02*
X32467643Y-30369688D01*
X46517622Y-39814585D02*
X45967622Y-47114585D01*
D11*
X47517640Y-6570000D02*
G75*
G03*
X47117643Y-6170000I-400000J0D01*
G01*
X32017640Y-9170000D02*
G75*
G03*
X32417643Y-9570000I400000J0D01*
G01*
X47117643Y-9570003D02*
G75*
G03*
X47517643Y-9170000I-3J400003D01*
G01*
X17843821Y-5850000D02*
X30243821Y-5850000D01*
D10*
X42217622Y-12068311D02*
X41467622Y-12268311D01*
X30119977Y-38316294D02*
X26469977Y-38466294D01*
X47417622Y-12668311D02*
X46517622Y-12568311D01*
X22119996Y-41617385D02*
X21219996Y-41517385D01*
X25619977Y-12268311D02*
X25719977Y-20768311D01*
X14123822Y-23770000D02*
G75*
G03*
X14123822Y-17970000I-1674316J2900000D01*
G01*
X25719977Y-39216294D02*
X30969977Y-39066294D01*
X24619998Y-13019997D02*
X16969998Y-12919997D01*
X42317622Y-29668003D02*
X42217622Y-21718003D01*
D11*
X1723822Y-41470000D02*
X14123822Y-41470000D01*
X1850000Y-50000D02*
X14270000Y-90000D01*
D10*
X46517622Y-22218003D02*
X45967622Y-29518003D01*
X40467643Y-32319379D02*
X32817643Y-32219379D01*
D11*
X35917640Y-9170000D02*
G75*
G03*
X36317643Y-9570000I400000J0D01*
G01*
X43617640Y-6570000D02*
G75*
G03*
X43217643Y-6170000I-400000J0D01*
G01*
D10*
X25269998Y-21619997D02*
X24369998Y-21519997D01*
X21219996Y-41517385D02*
X20669996Y-48817385D01*
X26369977Y-21718003D02*
X25619977Y-21918003D01*
X16269995Y-49717385D02*
X21519996Y-49567385D01*
X20669996Y-48817385D02*
X17019996Y-48967385D01*
D11*
X47517643Y-6570000D02*
X47517643Y-9170000D01*
D10*
X41117643Y-31269688D02*
X40217643Y-31169688D01*
X1723822Y-23870000D02*
G75*
G03*
X1723822Y-29670000I1674316J-2900000D01*
G01*
D11*
X16050000Y-4670000D02*
X14250000Y-6070000D01*
D10*
X31569977Y-39914585D02*
X30669977Y-39814585D01*
X16619998Y-30369688D02*
X16169998Y-30569688D01*
D11*
X14270000Y-90000D02*
X16070000Y-1480000D01*
D10*
X30119977Y-47114585D02*
X26469977Y-47264585D01*
X41367643Y-12169997D02*
X41117643Y-21619997D01*
X40217643Y-21519997D02*
X40467643Y-13019997D01*
X40217643Y-40819379D02*
X40467643Y-32319379D01*
X30119977Y-29518003D02*
X26469977Y-29668003D01*
X32817643Y-32219379D02*
X32467643Y-40019379D01*
X46817622Y-30268003D02*
X47417622Y-22318003D01*
X32017643Y-20919997D02*
X32067643Y-12069997D01*
D11*
X1723822Y-35570000D02*
X14123822Y-35570000D01*
X35817640Y-6570000D02*
G75*
G03*
X35417643Y-6170000I-400000J0D01*
G01*
D10*
X16969998Y-32219379D02*
X16619998Y-40019379D01*
X25719977Y-48014585D02*
X30969977Y-47864585D01*
X31569977Y-31116294D02*
X30669977Y-31016294D01*
X30969977Y-30268003D02*
X31569977Y-22318003D01*
X24619998Y-22669688D02*
X16969998Y-22569688D01*
X26469977Y-29668003D02*
X26369977Y-21718003D01*
D11*
X32017643Y-9170000D02*
X32017643Y-6570000D01*
X1723822Y-23770000D02*
X14123822Y-23770000D01*
X44117643Y-6170003D02*
G75*
G03*
X43717643Y-6570000I-3J-399997D01*
G01*
X35417643Y-9570003D02*
G75*
G03*
X35817643Y-9170000I-3J400003D01*
G01*
X1723822Y-23870000D02*
X14123822Y-23870000D01*
D10*
X30669977Y-39814585D02*
X30119977Y-47114585D01*
X32467643Y-40019379D02*
X32017643Y-40219379D01*
X31569977Y-12668311D02*
X30669977Y-12568311D01*
X46817622Y-39066294D02*
X47417622Y-31116294D01*
D11*
X35917643Y-9170000D02*
X35917643Y-6570000D01*
D10*
X1723822Y-12070000D02*
G75*
G03*
X1723822Y-17870000I1674316J-2900000D01*
G01*
X25719977Y-30418003D02*
X30969977Y-30268003D01*
X17019996Y-48967385D02*
X16919996Y-41017385D01*
D11*
X40217643Y-6170003D02*
G75*
G03*
X39817643Y-6570000I-3J-399997D01*
G01*
D10*
X30243821Y-5850000D02*
G75*
G03*
X30243821Y-50000I-1674316J2900000D01*
G01*
X25619977Y-21918003D02*
X25719977Y-30418003D01*
D11*
X1723822Y-17870000D02*
X14123822Y-17870000D01*
D10*
X30669977Y-12568311D02*
X30119977Y-19868311D01*
X26369977Y-12068311D02*
X25619977Y-12268311D01*
X24369998Y-31169688D02*
X24619998Y-22669688D01*
D11*
X50000Y-1450000D02*
X1850000Y-50000D01*
D10*
X25519998Y-31469379D02*
X25269998Y-40919379D01*
X41467622Y-30716294D02*
X41567622Y-39216294D01*
D11*
X35817643Y-6570000D02*
X35817643Y-9170000D01*
D10*
X41567622Y-20768311D02*
X46817622Y-20618311D01*
X45967622Y-38316294D02*
X42317622Y-38466294D01*
X32117640Y-49717385D02*
X37367640Y-49567385D01*
D11*
X1723822Y-41570000D02*
X14123822Y-41570000D01*
D10*
X41117643Y-40919379D02*
X40217643Y-40819379D01*
X14123822Y-29670000D02*
G75*
G03*
X14123822Y-23870000I-1674316J2900000D01*
G01*
D11*
X50000Y-4670000D02*
X50000Y-1450000D01*
D10*
X46817622Y-20618311D02*
X47417622Y-12668311D01*
X16219998Y-12069997D02*
X25519998Y-12169997D01*
D11*
X39717643Y-6570000D02*
X39717643Y-9170000D01*
X39817643Y-9170000D02*
X39817643Y-6570000D01*
X1723822Y-29670000D02*
X14123822Y-29670000D01*
X43717643Y-9170000D02*
X43717643Y-6570000D01*
D10*
X42217622Y-30516294D02*
X41467622Y-30716294D01*
X46091466Y-5850000D02*
G75*
G03*
X46091466Y-50000I-1674316J2900000D01*
G01*
X30669977Y-22218003D02*
X30119977Y-29518003D01*
X32017640Y-41217385D02*
X32117640Y-49717385D01*
X1723822Y-35670000D02*
G75*
G03*
X1723822Y-41470000I1674316J-2900000D01*
G01*
X41367643Y-31469379D02*
X41117643Y-40919379D01*
X16969998Y-12919997D02*
X16619998Y-20719997D01*
X24369998Y-21519997D02*
X24619998Y-13019997D01*
D11*
X1723822Y-47370000D02*
X14123822Y-47370000D01*
X40217643Y-6170000D02*
X43217643Y-6170000D01*
D10*
X42217622Y-39314585D02*
X41467622Y-39514585D01*
X16619998Y-20719997D02*
X16169998Y-20919997D01*
D11*
X43217643Y-9570000D02*
X40217643Y-9570000D01*
D10*
X32017643Y-30569688D02*
X32067643Y-21719688D01*
X40467643Y-13019997D02*
X32817643Y-12919997D01*
D11*
X32417643Y-6170003D02*
G75*
G03*
X32017643Y-6570000I-3J-399997D01*
G01*
D10*
X36517640Y-48817385D02*
X32867640Y-48967385D01*
D11*
X39817640Y-9170000D02*
G75*
G03*
X40217643Y-9570000I400000J0D01*
G01*
D10*
X26469977Y-38466294D02*
X26369977Y-30516294D01*
X16219998Y-21719688D02*
X25519998Y-21819688D01*
D11*
X43217643Y-9570003D02*
G75*
G03*
X43617643Y-9170000I-3J400003D01*
G01*
D10*
X26369977Y-30516294D02*
X25619977Y-30716294D01*
X14123822Y-11970000D02*
G75*
G03*
X14123822Y-6170000I-1674316J2900000D01*
G01*
D11*
X39317643Y-9570000D02*
X36317643Y-9570000D01*
D10*
X25519998Y-21819688D02*
X25269998Y-31269688D01*
D11*
X1723822Y-17970000D02*
X14123822Y-17970000D01*
X47117643Y-9570000D02*
X44117643Y-9570000D01*
D10*
X37967640Y-41617385D02*
X37067640Y-41517385D01*
X41567622Y-39216294D02*
X46817622Y-39066294D01*
X16219998Y-31369379D02*
X25519998Y-31469379D01*
X30969977Y-47864585D02*
X31569977Y-39914585D01*
X40217643Y-31169688D02*
X40467643Y-22669688D01*
X21519996Y-49567385D02*
X22119996Y-41617385D01*
D11*
X43717640Y-9170000D02*
G75*
G03*
X44117643Y-9570000I400000J0D01*
G01*
D10*
X46517622Y-31016294D02*
X45967622Y-38316294D01*
X40467643Y-22669688D02*
X32817643Y-22569688D01*
D11*
X43617643Y-6570000D02*
X43617643Y-9170000D01*
D10*
X47417622Y-22318003D02*
X46517622Y-22218003D01*
X41567622Y-48014585D02*
X46817622Y-47864585D01*
D11*
X17843821Y-50000D02*
X30243821Y-50000D01*
D10*
X32867640Y-48967385D02*
X32767640Y-41017385D01*
X32067643Y-21719688D02*
X41367643Y-21819688D01*
D11*
X32417643Y-6170000D02*
X35417643Y-6170000D01*
D10*
X41467622Y-39514585D02*
X41567622Y-48014585D01*
X16969998Y-22569688D02*
X16619998Y-30369688D01*
D11*
X36317643Y-6170003D02*
G75*
G03*
X35917643Y-6570000I-3J-399997D01*
G01*
D10*
X26469977Y-47264585D02*
X26369977Y-39314585D01*
D11*
X44117643Y-6170000D02*
X47117643Y-6170000D01*
D10*
X37367640Y-49567385D02*
X37967640Y-41617385D01*
X41467622Y-21918003D02*
X41567622Y-30418003D01*
X42217622Y-21718003D02*
X41467622Y-21918003D01*
X30243821Y-11970000D02*
G75*
G03*
X30243821Y-6170000I-1674316J2900000D01*
G01*
X25719977Y-20768311D02*
X30969977Y-20618311D01*
X1723822Y-17970000D02*
G75*
G03*
X1723822Y-23770000I1674316J-2900000D01*
G01*
X24369998Y-40819379D02*
X24619998Y-32319379D01*
X17843822Y-6170000D02*
G75*
G03*
X17843821Y-11970000I1674316J-2900000D01*
G01*
X32467643Y-20719997D02*
X32017643Y-20919997D01*
X41117643Y-21619997D02*
X40217643Y-21519997D01*
D11*
X36317643Y-6170000D02*
X39317643Y-6170000D01*
D10*
X31569977Y-22318003D02*
X30669977Y-22218003D01*
X42317622Y-20018311D02*
X42217622Y-12068311D01*
X14123822Y-47370000D02*
G75*
G03*
X14123822Y-41570000I-1674316J2900000D01*
G01*
X32467643Y-30369688D02*
X32017643Y-30569688D01*
X30969977Y-20618311D02*
X31569977Y-12668311D01*
X17843821Y-50000D02*
G75*
G03*
X17843821Y-5850000I1674316J-2900000D01*
G01*
X30119977Y-19868311D02*
X26469977Y-20018311D01*
X16919996Y-41017385D02*
X16169995Y-41217385D01*
D11*
X39317643Y-9570003D02*
G75*
G03*
X39717643Y-9170000I-3J400003D01*
G01*
D10*
X25269998Y-40919379D02*
X24369998Y-40819379D01*
D11*
X1723822Y-35670000D02*
X14123822Y-35670000D01*
X17843821Y-11970000D02*
X30243821Y-11970000D01*
D10*
X42317622Y-47264585D02*
X42217622Y-39314585D01*
X1723822Y-29770000D02*
G75*
G03*
X1723822Y-35570000I1674316J-2900000D01*
G01*
D11*
X1723822Y-29770000D02*
X14123822Y-29770000D01*
X39717640Y-6570000D02*
G75*
G03*
X39317643Y-6170000I-400000J0D01*
G01*
D10*
X30669977Y-31016294D02*
X30119977Y-38316294D01*
X14123822Y-41470000D02*
G75*
G03*
X14123822Y-35670000I-1674316J2900000D01*
G01*
D11*
X1723822Y-6170000D02*
X14123822Y-6170000D01*
D10*
X25619977Y-30716294D02*
X25719977Y-39216294D01*
D11*
X33691466Y-50000D02*
X46091466Y-50000D01*
D10*
X32767640Y-41017385D02*
X32017640Y-41217385D01*
D11*
X1850000Y-6070000D02*
X50000Y-4670000D01*
D10*
X16169998Y-30569688D02*
X16219998Y-21719688D01*
X32817643Y-12919997D02*
X32467643Y-20719997D01*
X26369977Y-39314585D02*
X25619977Y-39514585D01*
D11*
X33691466Y-5850000D02*
X46091466Y-5850000D01*
D10*
X24619998Y-32319379D02*
X16969998Y-32219379D01*
X41467622Y-12268311D02*
X41567622Y-20768311D01*
X33691466Y-50000D02*
G75*
G03*
X33691466Y-5850000I1674316J-2900000D01*
G01*
X45967622Y-29518003D02*
X42317622Y-29668003D01*
D11*
X1723822Y-11970000D02*
X14123822Y-11970000D01*
X35417643Y-9570000D02*
X32417643Y-9570000D01*
D10*
X25519998Y-12169997D02*
X25269998Y-21619997D01*
X45967622Y-47114585D02*
X42317622Y-47264585D01*
X46517622Y-12568311D02*
X45967622Y-19868311D01*
D11*
X14250000Y-6070000D02*
X1850000Y-6070000D01*
D10*
X37067640Y-41517385D02*
X36517640Y-48817385D01*
X41367643Y-21819688D02*
X41117643Y-31269688D01*
X1723822Y-41570000D02*
G75*
G03*
X1723822Y-47370000I1674316J-2900000D01*
G01*
D11*
X16070000Y-1480000D02*
X16050000Y-4670000D01*
D10*
X14123822Y-35570000D02*
G75*
G03*
X14123822Y-29770000I-1674316J2900000D01*
G01*
D11*
X1723822Y-12070000D02*
X14123822Y-12070000D01*
D10*
X16169995Y-41217385D02*
X16269995Y-49717385D01*
X30969977Y-39066294D02*
X31569977Y-31116294D01*
D11*
X17843821Y-6170000D02*
X30243821Y-6170000D01*
D10*
X46817622Y-47864585D02*
X47417622Y-39914585D01*
X25269998Y-31269688D02*
X24369998Y-31169688D01*
X16169998Y-20919997D02*
X16219998Y-12069997D01*
X26469977Y-20018311D02*
X26369977Y-12068311D01*
X16619998Y-40019379D02*
X16169998Y-40219379D01*
X42317622Y-38466294D02*
X42217622Y-30516294D01*
X47417622Y-31116294D02*
X46517622Y-31016294D01*
X41567622Y-30418003D02*
X46817622Y-30268003D01*
X47417622Y-39914585D02*
X46517622Y-39814585D01*
X1723822Y-6170000D02*
G75*
G03*
X1723822Y-11970000I1674316J-2900000D01*
G01*
X45967622Y-19868311D02*
X42317622Y-20018311D01*
X32067643Y-31369379D02*
X41367643Y-31469379D01*
X16169998Y-40219379D02*
X16219998Y-31369379D01*
X32067643Y-12069997D02*
X41367643Y-12169997D01*
M02*
