%TF.GenerationSoftware,KiCad,Pcbnew,7.0.6-7.0.6~ubuntu20.04.1*%
%TF.CreationDate,2023-07-11T09:11:54+02:00*%
%TF.ProjectId,output_panel2023-07-11_071138.9032810000,6f757470-7574-45f7-9061-6e656c323032,rev?*%
%TF.SameCoordinates,Original*%
%TF.FileFunction,Legend,Bot*%
%TF.FilePolarity,Positive*%
%FSLAX45Y45*%
G04 Gerber Fmt 4.5, Leading zero omitted, Abs format (unit mm)*
G04 Created by KiCad (PCBNEW 7.0.6-7.0.6~ubuntu20.04.1) date 2023-07-11 09:11:54*
%MOMM*%
%LPD*%
G01*
G04 APERTURE LIST*
G04 Aperture macros list*
%AMRoundRect*
0 Rectangle with rounded corners*
0 $1 Rounding radius*
0 $2 $3 $4 $5 $6 $7 $8 $9 X,Y pos of 4 corners*
0 Add a 4 corners polygon primitive as box body*
4,1,4,$2,$3,$4,$5,$6,$7,$8,$9,$2,$3,0*
0 Add four circle primitives for the rounded corners*
1,1,$1+$1,$2,$3*
1,1,$1+$1,$4,$5*
1,1,$1+$1,$6,$7*
1,1,$1+$1,$8,$9*
0 Add four rect primitives between the rounded corners*
20,1,$1+$1,$2,$3,$4,$5,0*
20,1,$1+$1,$4,$5,$6,$7,0*
20,1,$1+$1,$6,$7,$8,$9,0*
20,1,$1+$1,$8,$9,$2,$3,0*%
G04 Aperture macros list end*
%TA.AperFunction,Profile*%
%ADD10C,0.100000*%
%TD*%
%TA.AperFunction,Profile*%
%ADD11C,0.050000*%
%TD*%
%ADD12C,0.150000*%
%ADD13C,0.120000*%
%ADD14C,5.600000*%
%ADD15RoundRect,0.250000X0.600000X0.725000X-0.600000X0.725000X-0.600000X-0.725000X0.600000X-0.725000X0*%
%ADD16O,1.700000X1.950000*%
%ADD17R,1.700000X1.700000*%
%ADD18O,1.700000X1.700000*%
%ADD19RoundRect,0.237500X-0.237500X0.300000X-0.237500X-0.300000X0.237500X-0.300000X0.237500X0.300000X0*%
%ADD20RoundRect,0.250000X-0.750000X0.600000X-0.750000X-0.600000X0.750000X-0.600000X0.750000X0.600000X0*%
%ADD21O,2.000000X1.700000*%
%ADD22RoundRect,0.237500X0.237500X-0.250000X0.237500X0.250000X-0.237500X0.250000X-0.237500X-0.250000X0*%
%ADD23R,0.400000X1.000000*%
%ADD24RoundRect,0.237500X-0.250000X-0.237500X0.250000X-0.237500X0.250000X0.237500X-0.250000X0.237500X0*%
%ADD25RoundRect,0.250000X-0.550000X1.250000X-0.550000X-1.250000X0.550000X-1.250000X0.550000X1.250000X0*%
%ADD26RoundRect,0.237500X0.250000X0.237500X-0.250000X0.237500X-0.250000X-0.237500X0.250000X-0.237500X0*%
G04 APERTURE END LIST*
D10*
X16050000Y-23029999D02*
X14250000Y-24429999D01*
X14250000Y-6070000D02*
X1850000Y-6070000D01*
X16070000Y-7599999D02*
X16050000Y-10789999D01*
X50000Y-13689999D02*
X1850000Y-12289999D01*
D11*
X14123822Y-30329999D02*
G75*
G03*
X14123822Y-24529999I-1674316J2900000D01*
G01*
D10*
X14250000Y-18309999D02*
X1850000Y-18309999D01*
X1850000Y-12289999D02*
X14270000Y-12329999D01*
X1723822Y-24529999D02*
X14123822Y-24529999D01*
X1723822Y-30329999D02*
X14123822Y-30329999D01*
X50000Y-23029999D02*
X50000Y-19809999D01*
X16050000Y-10789999D02*
X14250000Y-12189999D01*
X14250000Y-12189999D02*
X1850000Y-12189999D01*
X50000Y-16909999D02*
X50000Y-13689999D01*
X1850000Y-18409999D02*
X14270000Y-18449999D01*
X1850000Y-6169999D02*
X14270000Y-6209999D01*
X14250000Y-24429999D02*
X1850000Y-24429999D01*
X50000Y-1450000D02*
X1850000Y-50000D01*
X16050000Y-16909999D02*
X14250000Y-18309999D01*
X14270000Y-6209999D02*
X16070000Y-7599999D01*
X1850000Y-18309999D02*
X50000Y-16909999D01*
X16070000Y-13719999D02*
X16050000Y-16909999D01*
X50000Y-10789999D02*
X50000Y-7569999D01*
X1850000Y-6070000D02*
X50000Y-4670000D01*
X1850000Y-24429999D02*
X50000Y-23029999D01*
D11*
X1723822Y-24529999D02*
G75*
G03*
X1723822Y-30329999I1674316J-2900000D01*
G01*
D10*
X50000Y-7569999D02*
X1850000Y-6169999D01*
X14270000Y-90000D02*
X16070000Y-1480000D01*
X1850000Y-12189999D02*
X50000Y-10789999D01*
X14270000Y-12329999D02*
X16070000Y-13719999D01*
X14270000Y-18449999D02*
X16070000Y-19839999D01*
X50000Y-4670000D02*
X50000Y-1450000D01*
X16070000Y-19839999D02*
X16050000Y-23029999D01*
X16070000Y-1480000D02*
X16050000Y-4670000D01*
X50000Y-19809999D02*
X1850000Y-18409999D01*
X16050000Y-4670000D02*
X14250000Y-6070000D01*
X1850000Y-50000D02*
X14270000Y-90000D01*
D12*
X7782958Y-12479582D02*
X7787720Y-12474820D01*
X7787720Y-12474820D02*
X7792482Y-12460535D01*
X7792482Y-12460535D02*
X7792482Y-12451011D01*
X7792482Y-12451011D02*
X7787720Y-12436725D01*
X7787720Y-12436725D02*
X7778196Y-12427201D01*
X7778196Y-12427201D02*
X7768672Y-12422440D01*
X7768672Y-12422440D02*
X7749625Y-12417678D01*
X7749625Y-12417678D02*
X7735339Y-12417678D01*
X7735339Y-12417678D02*
X7716291Y-12422440D01*
X7716291Y-12422440D02*
X7706768Y-12427201D01*
X7706768Y-12427201D02*
X7697244Y-12436725D01*
X7697244Y-12436725D02*
X7692482Y-12451011D01*
X7692482Y-12451011D02*
X7692482Y-12460535D01*
X7692482Y-12460535D02*
X7697244Y-12474820D01*
X7697244Y-12474820D02*
X7702006Y-12479582D01*
X7792482Y-12574820D02*
X7792482Y-12517678D01*
X7792482Y-12546249D02*
X7692482Y-12546249D01*
X7692482Y-12546249D02*
X7706768Y-12536725D01*
X7706768Y-12536725D02*
X7716291Y-12527201D01*
X7716291Y-12527201D02*
X7721053Y-12517678D01*
X11280482Y-23361665D02*
X11351910Y-23361665D01*
X11351910Y-23361665D02*
X11366196Y-23356903D01*
X11366196Y-23356903D02*
X11375720Y-23347380D01*
X11375720Y-23347380D02*
X11380482Y-23333094D01*
X11380482Y-23333094D02*
X11380482Y-23323570D01*
X11380482Y-23461665D02*
X11380482Y-23404523D01*
X11380482Y-23433094D02*
X11280482Y-23433094D01*
X11280482Y-23433094D02*
X11294768Y-23423570D01*
X11294768Y-23423570D02*
X11304291Y-23414046D01*
X11304291Y-23414046D02*
X11309053Y-23404523D01*
X3280013Y-28073481D02*
X3313346Y-28025862D01*
X3337155Y-28073481D02*
X3337155Y-27973481D01*
X3337155Y-27973481D02*
X3299060Y-27973481D01*
X3299060Y-27973481D02*
X3289536Y-27978243D01*
X3289536Y-27978243D02*
X3284774Y-27983004D01*
X3284774Y-27983004D02*
X3280013Y-27992528D01*
X3280013Y-27992528D02*
X3280013Y-28006814D01*
X3280013Y-28006814D02*
X3284774Y-28016338D01*
X3284774Y-28016338D02*
X3289536Y-28021100D01*
X3289536Y-28021100D02*
X3299060Y-28025862D01*
X3299060Y-28025862D02*
X3337155Y-28025862D01*
X3237155Y-28035385D02*
X3160965Y-28035385D01*
X3122870Y-28006814D02*
X3099060Y-28073481D01*
X3099060Y-28073481D02*
X3075251Y-28006814D01*
X2994298Y-28006814D02*
X2994298Y-28073481D01*
X3018108Y-27968719D02*
X3041917Y-28040147D01*
X3041917Y-28040147D02*
X2980013Y-28040147D01*
X2941917Y-28035385D02*
X2865727Y-28035385D01*
X2803822Y-28016338D02*
X2813346Y-28011576D01*
X2813346Y-28011576D02*
X2818108Y-28006814D01*
X2818108Y-28006814D02*
X2822870Y-27997290D01*
X2822870Y-27997290D02*
X2822870Y-27992528D01*
X2822870Y-27992528D02*
X2818108Y-27983004D01*
X2818108Y-27983004D02*
X2813346Y-27978243D01*
X2813346Y-27978243D02*
X2803822Y-27973481D01*
X2803822Y-27973481D02*
X2784775Y-27973481D01*
X2784775Y-27973481D02*
X2775251Y-27978243D01*
X2775251Y-27978243D02*
X2770489Y-27983004D01*
X2770489Y-27983004D02*
X2765727Y-27992528D01*
X2765727Y-27992528D02*
X2765727Y-27997290D01*
X2765727Y-27997290D02*
X2770489Y-28006814D01*
X2770489Y-28006814D02*
X2775251Y-28011576D01*
X2775251Y-28011576D02*
X2784775Y-28016338D01*
X2784775Y-28016338D02*
X2803822Y-28016338D01*
X2803822Y-28016338D02*
X2813346Y-28021100D01*
X2813346Y-28021100D02*
X2818108Y-28025862D01*
X2818108Y-28025862D02*
X2822870Y-28035385D01*
X2822870Y-28035385D02*
X2822870Y-28054433D01*
X2822870Y-28054433D02*
X2818108Y-28063957D01*
X2818108Y-28063957D02*
X2813346Y-28068719D01*
X2813346Y-28068719D02*
X2803822Y-28073481D01*
X2803822Y-28073481D02*
X2784775Y-28073481D01*
X2784775Y-28073481D02*
X2775251Y-28068719D01*
X2775251Y-28068719D02*
X2770489Y-28063957D01*
X2770489Y-28063957D02*
X2765727Y-28054433D01*
X2765727Y-28054433D02*
X2765727Y-28035385D01*
X2765727Y-28035385D02*
X2770489Y-28025862D01*
X2770489Y-28025862D02*
X2775251Y-28021100D01*
X2775251Y-28021100D02*
X2784775Y-28016338D01*
X7782958Y-18599582D02*
X7787720Y-18594820D01*
X7787720Y-18594820D02*
X7792482Y-18580535D01*
X7792482Y-18580535D02*
X7792482Y-18571011D01*
X7792482Y-18571011D02*
X7787720Y-18556725D01*
X7787720Y-18556725D02*
X7778196Y-18547201D01*
X7778196Y-18547201D02*
X7768672Y-18542439D01*
X7768672Y-18542439D02*
X7749625Y-18537677D01*
X7749625Y-18537677D02*
X7735339Y-18537677D01*
X7735339Y-18537677D02*
X7716291Y-18542439D01*
X7716291Y-18542439D02*
X7706768Y-18547201D01*
X7706768Y-18547201D02*
X7697244Y-18556725D01*
X7697244Y-18556725D02*
X7692482Y-18571011D01*
X7692482Y-18571011D02*
X7692482Y-18580535D01*
X7692482Y-18580535D02*
X7697244Y-18594820D01*
X7697244Y-18594820D02*
X7702006Y-18599582D01*
X7792482Y-18694820D02*
X7792482Y-18637677D01*
X7792482Y-18666249D02*
X7692482Y-18666249D01*
X7692482Y-18666249D02*
X7706768Y-18656725D01*
X7706768Y-18656725D02*
X7716291Y-18647201D01*
X7716291Y-18647201D02*
X7721053Y-18637677D01*
X11241804Y-29461665D02*
X11313233Y-29461665D01*
X11313233Y-29461665D02*
X11327518Y-29456903D01*
X11327518Y-29456903D02*
X11337042Y-29447380D01*
X11337042Y-29447380D02*
X11341804Y-29433094D01*
X11341804Y-29433094D02*
X11341804Y-29423570D01*
X11341804Y-29561665D02*
X11341804Y-29504523D01*
X11341804Y-29533094D02*
X11241804Y-29533094D01*
X11241804Y-29533094D02*
X11256090Y-29523570D01*
X11256090Y-29523570D02*
X11265614Y-29514046D01*
X11265614Y-29514046D02*
X11270375Y-29504523D01*
X11280482Y-17241666D02*
X11351910Y-17241666D01*
X11351910Y-17241666D02*
X11366196Y-17236904D01*
X11366196Y-17236904D02*
X11375720Y-17227380D01*
X11375720Y-17227380D02*
X11380482Y-17213094D01*
X11380482Y-17213094D02*
X11380482Y-17203571D01*
X11380482Y-17341666D02*
X11380482Y-17284523D01*
X11380482Y-17313094D02*
X11280482Y-17313094D01*
X11280482Y-17313094D02*
X11294768Y-17303571D01*
X11294768Y-17303571D02*
X11304291Y-17294047D01*
X11304291Y-17294047D02*
X11309053Y-17284523D01*
X7782958Y-6359583D02*
X7787720Y-6354821D01*
X7787720Y-6354821D02*
X7792482Y-6340535D01*
X7792482Y-6340535D02*
X7792482Y-6331011D01*
X7792482Y-6331011D02*
X7787720Y-6316726D01*
X7787720Y-6316726D02*
X7778196Y-6307202D01*
X7778196Y-6307202D02*
X7768672Y-6302440D01*
X7768672Y-6302440D02*
X7749625Y-6297678D01*
X7749625Y-6297678D02*
X7735339Y-6297678D01*
X7735339Y-6297678D02*
X7716291Y-6302440D01*
X7716291Y-6302440D02*
X7706768Y-6307202D01*
X7706768Y-6307202D02*
X7697244Y-6316726D01*
X7697244Y-6316726D02*
X7692482Y-6331011D01*
X7692482Y-6331011D02*
X7692482Y-6340535D01*
X7692482Y-6340535D02*
X7697244Y-6354821D01*
X7697244Y-6354821D02*
X7702006Y-6359583D01*
X7792482Y-6454821D02*
X7792482Y-6397678D01*
X7792482Y-6426249D02*
X7692482Y-6426249D01*
X7692482Y-6426249D02*
X7706768Y-6416726D01*
X7706768Y-6416726D02*
X7716291Y-6407202D01*
X7716291Y-6407202D02*
X7721053Y-6397678D01*
X3230304Y-26963808D02*
X3311256Y-26963808D01*
X3311256Y-26963808D02*
X3320780Y-26968570D01*
X3320780Y-26968570D02*
X3325542Y-26973332D01*
X3325542Y-26973332D02*
X3330304Y-26982856D01*
X3330304Y-26982856D02*
X3330304Y-27001903D01*
X3330304Y-27001903D02*
X3325542Y-27011427D01*
X3325542Y-27011427D02*
X3320780Y-27016189D01*
X3320780Y-27016189D02*
X3311256Y-27020951D01*
X3311256Y-27020951D02*
X3230304Y-27020951D01*
X3230304Y-27116189D02*
X3230304Y-27068570D01*
X3230304Y-27068570D02*
X3277923Y-27063808D01*
X3277923Y-27063808D02*
X3273161Y-27068570D01*
X3273161Y-27068570D02*
X3268399Y-27078094D01*
X3268399Y-27078094D02*
X3268399Y-27101903D01*
X3268399Y-27101903D02*
X3273161Y-27111427D01*
X3273161Y-27111427D02*
X3277923Y-27116189D01*
X3277923Y-27116189D02*
X3287447Y-27120951D01*
X3287447Y-27120951D02*
X3311256Y-27120951D01*
X3311256Y-27120951D02*
X3320780Y-27116189D01*
X3320780Y-27116189D02*
X3325542Y-27111427D01*
X3325542Y-27111427D02*
X3330304Y-27101903D01*
X3330304Y-27101903D02*
X3330304Y-27078094D01*
X3330304Y-27078094D02*
X3325542Y-27068570D01*
X3325542Y-27068570D02*
X3320780Y-27063808D01*
X13593304Y-27563808D02*
X13545685Y-27530475D01*
X13593304Y-27506665D02*
X13493304Y-27506665D01*
X13493304Y-27506665D02*
X13493304Y-27544761D01*
X13493304Y-27544761D02*
X13498066Y-27554284D01*
X13498066Y-27554284D02*
X13502828Y-27559046D01*
X13502828Y-27559046D02*
X13512352Y-27563808D01*
X13512352Y-27563808D02*
X13526637Y-27563808D01*
X13526637Y-27563808D02*
X13536161Y-27559046D01*
X13536161Y-27559046D02*
X13540923Y-27554284D01*
X13540923Y-27554284D02*
X13545685Y-27544761D01*
X13545685Y-27544761D02*
X13545685Y-27506665D01*
X13555209Y-27606665D02*
X13555209Y-27682856D01*
X13526637Y-27720951D02*
X13593304Y-27744761D01*
X13593304Y-27744761D02*
X13526637Y-27768570D01*
X13526637Y-27849523D02*
X13593304Y-27849523D01*
X13488542Y-27825713D02*
X13559971Y-27801904D01*
X13559971Y-27801904D02*
X13559971Y-27863808D01*
X13555209Y-27901904D02*
X13555209Y-27978094D01*
X13493304Y-28073332D02*
X13493304Y-28025713D01*
X13493304Y-28025713D02*
X13540923Y-28020951D01*
X13540923Y-28020951D02*
X13536161Y-28025713D01*
X13536161Y-28025713D02*
X13531399Y-28035237D01*
X13531399Y-28035237D02*
X13531399Y-28059046D01*
X13531399Y-28059046D02*
X13536161Y-28068570D01*
X13536161Y-28068570D02*
X13540923Y-28073332D01*
X13540923Y-28073332D02*
X13550447Y-28078094D01*
X13550447Y-28078094D02*
X13574256Y-28078094D01*
X13574256Y-28078094D02*
X13583780Y-28073332D01*
X13583780Y-28073332D02*
X13588542Y-28068570D01*
X13588542Y-28068570D02*
X13593304Y-28059046D01*
X13593304Y-28059046D02*
X13593304Y-28035237D01*
X13593304Y-28035237D02*
X13588542Y-28025713D01*
X13588542Y-28025713D02*
X13583780Y-28020951D01*
X11280482Y-5001666D02*
X11351910Y-5001666D01*
X11351910Y-5001666D02*
X11366196Y-4996904D01*
X11366196Y-4996904D02*
X11375720Y-4987381D01*
X11375720Y-4987381D02*
X11380482Y-4973095D01*
X11380482Y-4973095D02*
X11380482Y-4963571D01*
X11380482Y-5101666D02*
X11380482Y-5044524D01*
X11380482Y-5073095D02*
X11280482Y-5073095D01*
X11280482Y-5073095D02*
X11294768Y-5063571D01*
X11294768Y-5063571D02*
X11304291Y-5054047D01*
X11304291Y-5054047D02*
X11309053Y-5044524D01*
X13391013Y-27728481D02*
X13424346Y-27680862D01*
X13448155Y-27728481D02*
X13448155Y-27628481D01*
X13448155Y-27628481D02*
X13410060Y-27628481D01*
X13410060Y-27628481D02*
X13400536Y-27633243D01*
X13400536Y-27633243D02*
X13395774Y-27638004D01*
X13395774Y-27638004D02*
X13391013Y-27647528D01*
X13391013Y-27647528D02*
X13391013Y-27661814D01*
X13391013Y-27661814D02*
X13395774Y-27671338D01*
X13395774Y-27671338D02*
X13400536Y-27676100D01*
X13400536Y-27676100D02*
X13410060Y-27680862D01*
X13410060Y-27680862D02*
X13448155Y-27680862D01*
X13348155Y-27690385D02*
X13271965Y-27690385D01*
X13233870Y-27661814D02*
X13210060Y-27728481D01*
X13210060Y-27728481D02*
X13186251Y-27661814D01*
X13105298Y-27661814D02*
X13105298Y-27728481D01*
X13129108Y-27623719D02*
X13152917Y-27695147D01*
X13152917Y-27695147D02*
X13091013Y-27695147D01*
X13052917Y-27690385D02*
X12976727Y-27690385D01*
X12886251Y-27628481D02*
X12905298Y-27628481D01*
X12905298Y-27628481D02*
X12914822Y-27633243D01*
X12914822Y-27633243D02*
X12919584Y-27638004D01*
X12919584Y-27638004D02*
X12929108Y-27652290D01*
X12929108Y-27652290D02*
X12933870Y-27671338D01*
X12933870Y-27671338D02*
X12933870Y-27709433D01*
X12933870Y-27709433D02*
X12929108Y-27718957D01*
X12929108Y-27718957D02*
X12924346Y-27723719D01*
X12924346Y-27723719D02*
X12914822Y-27728481D01*
X12914822Y-27728481D02*
X12895774Y-27728481D01*
X12895774Y-27728481D02*
X12886251Y-27723719D01*
X12886251Y-27723719D02*
X12881489Y-27718957D01*
X12881489Y-27718957D02*
X12876727Y-27709433D01*
X12876727Y-27709433D02*
X12876727Y-27685623D01*
X12876727Y-27685623D02*
X12881489Y-27676100D01*
X12881489Y-27676100D02*
X12886251Y-27671338D01*
X12886251Y-27671338D02*
X12895774Y-27666576D01*
X12895774Y-27666576D02*
X12914822Y-27666576D01*
X12914822Y-27666576D02*
X12924346Y-27671338D01*
X12924346Y-27671338D02*
X12929108Y-27676100D01*
X12929108Y-27676100D02*
X12933870Y-27685623D01*
X11280482Y-11121666D02*
X11351910Y-11121666D01*
X11351910Y-11121666D02*
X11366196Y-11116904D01*
X11366196Y-11116904D02*
X11375720Y-11107380D01*
X11375720Y-11107380D02*
X11380482Y-11093095D01*
X11380482Y-11093095D02*
X11380482Y-11083571D01*
X11380482Y-11221666D02*
X11380482Y-11164523D01*
X11380482Y-11193095D02*
X11280482Y-11193095D01*
X11280482Y-11193095D02*
X11294768Y-11183571D01*
X11294768Y-11183571D02*
X11304291Y-11174047D01*
X11304291Y-11174047D02*
X11309053Y-11164523D01*
X7782958Y-239583D02*
X7787720Y-234821D01*
X7787720Y-234821D02*
X7792482Y-220535D01*
X7792482Y-220535D02*
X7792482Y-211012D01*
X7792482Y-211012D02*
X7787720Y-196726D01*
X7787720Y-196726D02*
X7778196Y-187202D01*
X7778196Y-187202D02*
X7768672Y-182440D01*
X7768672Y-182440D02*
X7749625Y-177678D01*
X7749625Y-177678D02*
X7735339Y-177678D01*
X7735339Y-177678D02*
X7716291Y-182440D01*
X7716291Y-182440D02*
X7706768Y-187202D01*
X7706768Y-187202D02*
X7697244Y-196726D01*
X7697244Y-196726D02*
X7692482Y-211012D01*
X7692482Y-211012D02*
X7692482Y-220535D01*
X7692482Y-220535D02*
X7697244Y-234821D01*
X7697244Y-234821D02*
X7702006Y-239583D01*
X7792482Y-334821D02*
X7792482Y-277678D01*
X7792482Y-306250D02*
X7692482Y-306250D01*
X7692482Y-306250D02*
X7706768Y-296726D01*
X7706768Y-296726D02*
X7716291Y-287202D01*
X7716291Y-287202D02*
X7721053Y-277678D01*
X7332780Y-24910332D02*
X7337542Y-24905570D01*
X7337542Y-24905570D02*
X7342304Y-24891284D01*
X7342304Y-24891284D02*
X7342304Y-24881761D01*
X7342304Y-24881761D02*
X7337542Y-24867475D01*
X7337542Y-24867475D02*
X7328018Y-24857951D01*
X7328018Y-24857951D02*
X7318494Y-24853189D01*
X7318494Y-24853189D02*
X7299447Y-24848427D01*
X7299447Y-24848427D02*
X7285161Y-24848427D01*
X7285161Y-24848427D02*
X7266114Y-24853189D01*
X7266114Y-24853189D02*
X7256590Y-24857951D01*
X7256590Y-24857951D02*
X7247066Y-24867475D01*
X7247066Y-24867475D02*
X7242304Y-24881761D01*
X7242304Y-24881761D02*
X7242304Y-24891284D01*
X7242304Y-24891284D02*
X7247066Y-24905570D01*
X7247066Y-24905570D02*
X7251828Y-24910332D01*
X7342304Y-25005570D02*
X7342304Y-24948427D01*
X7342304Y-24976999D02*
X7242304Y-24976999D01*
X7242304Y-24976999D02*
X7256590Y-24967475D01*
X7256590Y-24967475D02*
X7266114Y-24957951D01*
X7266114Y-24957951D02*
X7270875Y-24948427D01*
X13530304Y-26963808D02*
X13611256Y-26963808D01*
X13611256Y-26963808D02*
X13620780Y-26968570D01*
X13620780Y-26968570D02*
X13625542Y-26973332D01*
X13625542Y-26973332D02*
X13630304Y-26982856D01*
X13630304Y-26982856D02*
X13630304Y-27001903D01*
X13630304Y-27001903D02*
X13625542Y-27011427D01*
X13625542Y-27011427D02*
X13620780Y-27016189D01*
X13620780Y-27016189D02*
X13611256Y-27020951D01*
X13611256Y-27020951D02*
X13530304Y-27020951D01*
X13530304Y-27111427D02*
X13530304Y-27092380D01*
X13530304Y-27092380D02*
X13535066Y-27082856D01*
X13535066Y-27082856D02*
X13539828Y-27078094D01*
X13539828Y-27078094D02*
X13554114Y-27068570D01*
X13554114Y-27068570D02*
X13573161Y-27063808D01*
X13573161Y-27063808D02*
X13611256Y-27063808D01*
X13611256Y-27063808D02*
X13620780Y-27068570D01*
X13620780Y-27068570D02*
X13625542Y-27073332D01*
X13625542Y-27073332D02*
X13630304Y-27082856D01*
X13630304Y-27082856D02*
X13630304Y-27101903D01*
X13630304Y-27101903D02*
X13625542Y-27111427D01*
X13625542Y-27111427D02*
X13620780Y-27116189D01*
X13620780Y-27116189D02*
X13611256Y-27120951D01*
X13611256Y-27120951D02*
X13587447Y-27120951D01*
X13587447Y-27120951D02*
X13577923Y-27116189D01*
X13577923Y-27116189D02*
X13573161Y-27111427D01*
X13573161Y-27111427D02*
X13568399Y-27101903D01*
X13568399Y-27101903D02*
X13568399Y-27082856D01*
X13568399Y-27082856D02*
X13573161Y-27073332D01*
X13573161Y-27073332D02*
X13577923Y-27068570D01*
X13577923Y-27068570D02*
X13587447Y-27063808D01*
X3728632Y-27462481D02*
X3761965Y-27414862D01*
X3785774Y-27462481D02*
X3785774Y-27362481D01*
X3785774Y-27362481D02*
X3747679Y-27362481D01*
X3747679Y-27362481D02*
X3738155Y-27367243D01*
X3738155Y-27367243D02*
X3733394Y-27372004D01*
X3733394Y-27372004D02*
X3728632Y-27381528D01*
X3728632Y-27381528D02*
X3728632Y-27395814D01*
X3728632Y-27395814D02*
X3733394Y-27405338D01*
X3733394Y-27405338D02*
X3738155Y-27410100D01*
X3738155Y-27410100D02*
X3747679Y-27414862D01*
X3747679Y-27414862D02*
X3785774Y-27414862D01*
X3685774Y-27424385D02*
X3609584Y-27424385D01*
X3571489Y-27395814D02*
X3547679Y-27462481D01*
X3547679Y-27462481D02*
X3523870Y-27395814D01*
X3442917Y-27395814D02*
X3442917Y-27462481D01*
X3466727Y-27357719D02*
X3490536Y-27429147D01*
X3490536Y-27429147D02*
X3428632Y-27429147D01*
X3390536Y-27424385D02*
X3314346Y-27424385D01*
X3214346Y-27462481D02*
X3271489Y-27462481D01*
X3242917Y-27462481D02*
X3242917Y-27362481D01*
X3242917Y-27362481D02*
X3252441Y-27376766D01*
X3252441Y-27376766D02*
X3261965Y-27386290D01*
X3261965Y-27386290D02*
X3271489Y-27391052D01*
X3176251Y-27372004D02*
X3171489Y-27367243D01*
X3171489Y-27367243D02*
X3161965Y-27362481D01*
X3161965Y-27362481D02*
X3138155Y-27362481D01*
X3138155Y-27362481D02*
X3128632Y-27367243D01*
X3128632Y-27367243D02*
X3123870Y-27372004D01*
X3123870Y-27372004D02*
X3119108Y-27381528D01*
X3119108Y-27381528D02*
X3119108Y-27391052D01*
X3119108Y-27391052D02*
X3123870Y-27405338D01*
X3123870Y-27405338D02*
X3181013Y-27462481D01*
X3181013Y-27462481D02*
X3119108Y-27462481D01*
D13*
X7941000Y-12481622D02*
X7941000Y-12510876D01*
X7839000Y-12481622D02*
X7839000Y-12510876D01*
X11415000Y-22984999D02*
X11540000Y-22984999D01*
X12041000Y-23013999D02*
X12041000Y-23775999D01*
X11444000Y-23013999D02*
X12041000Y-23013999D01*
X11670000Y-23014999D02*
X11670000Y-23089999D01*
X11520000Y-23014999D02*
X11520000Y-23194999D01*
X11445000Y-23014999D02*
X11520000Y-23014999D01*
X11965000Y-23089999D02*
X11965000Y-23394999D01*
X11670000Y-23089999D02*
X11965000Y-23089999D01*
X11415000Y-23109999D02*
X11415000Y-22984999D01*
X11520000Y-23194999D02*
X11445000Y-23194999D01*
X11445000Y-23194999D02*
X11445000Y-23014999D01*
X11520000Y-23344999D02*
X11520000Y-23444999D01*
X11445000Y-23344999D02*
X11520000Y-23344999D01*
X11520000Y-23444999D02*
X11445000Y-23444999D01*
X11445000Y-23444999D02*
X11445000Y-23344999D01*
X11520000Y-23594999D02*
X11520000Y-23774999D01*
X11445000Y-23594999D02*
X11520000Y-23594999D01*
X11965000Y-23699999D02*
X11965000Y-23394999D01*
X11670000Y-23699999D02*
X11965000Y-23699999D01*
X11670000Y-23774999D02*
X11670000Y-23699999D01*
X11520000Y-23774999D02*
X11445000Y-23774999D01*
X11445000Y-23774999D02*
X11445000Y-23594999D01*
X12041000Y-23775999D02*
X11444000Y-23775999D01*
X11444000Y-23775999D02*
X11444000Y-23013999D01*
X3002572Y-27815471D02*
X3002572Y-27764526D01*
X3107072Y-27815471D02*
X3107072Y-27764526D01*
X7941000Y-18601622D02*
X7941000Y-18630876D01*
X7839000Y-18601622D02*
X7839000Y-18630876D01*
X11376322Y-29084999D02*
X11501322Y-29084999D01*
X12002322Y-29113999D02*
X12002322Y-29875999D01*
X11405322Y-29113999D02*
X12002322Y-29113999D01*
X11631322Y-29114999D02*
X11631322Y-29189999D01*
X11481322Y-29114999D02*
X11481322Y-29294999D01*
X11406322Y-29114999D02*
X11481322Y-29114999D01*
X11926322Y-29189999D02*
X11926322Y-29494999D01*
X11631322Y-29189999D02*
X11926322Y-29189999D01*
X11376322Y-29209999D02*
X11376322Y-29084999D01*
X11481322Y-29294999D02*
X11406322Y-29294999D01*
X11406322Y-29294999D02*
X11406322Y-29114999D01*
X11481322Y-29444999D02*
X11481322Y-29544999D01*
X11406322Y-29444999D02*
X11481322Y-29444999D01*
X11481322Y-29544999D02*
X11406322Y-29544999D01*
X11406322Y-29544999D02*
X11406322Y-29444999D01*
X11481322Y-29694999D02*
X11481322Y-29874999D01*
X11406322Y-29694999D02*
X11481322Y-29694999D01*
X11926322Y-29799999D02*
X11926322Y-29494999D01*
X11631322Y-29799999D02*
X11926322Y-29799999D01*
X11631322Y-29874999D02*
X11631322Y-29799999D01*
X11481322Y-29874999D02*
X11406322Y-29874999D01*
X11406322Y-29874999D02*
X11406322Y-29694999D01*
X12002322Y-29875999D02*
X11405322Y-29875999D01*
X11405322Y-29875999D02*
X11405322Y-29113999D01*
X11415000Y-16864999D02*
X11540000Y-16864999D01*
X12041000Y-16893999D02*
X12041000Y-17655999D01*
X11444000Y-16893999D02*
X12041000Y-16893999D01*
X11670000Y-16894999D02*
X11670000Y-16969999D01*
X11520000Y-16894999D02*
X11520000Y-17074999D01*
X11445000Y-16894999D02*
X11520000Y-16894999D01*
X11965000Y-16969999D02*
X11965000Y-17274999D01*
X11670000Y-16969999D02*
X11965000Y-16969999D01*
X11415000Y-16989999D02*
X11415000Y-16864999D01*
X11520000Y-17074999D02*
X11445000Y-17074999D01*
X11445000Y-17074999D02*
X11445000Y-16894999D01*
X11520000Y-17224999D02*
X11520000Y-17324999D01*
X11445000Y-17224999D02*
X11520000Y-17224999D01*
X11520000Y-17324999D02*
X11445000Y-17324999D01*
X11445000Y-17324999D02*
X11445000Y-17224999D01*
X11520000Y-17474999D02*
X11520000Y-17654999D01*
X11445000Y-17474999D02*
X11520000Y-17474999D01*
X11965000Y-17579999D02*
X11965000Y-17274999D01*
X11670000Y-17579999D02*
X11965000Y-17579999D01*
X11670000Y-17654999D02*
X11670000Y-17579999D01*
X11520000Y-17654999D02*
X11445000Y-17654999D01*
X11445000Y-17654999D02*
X11445000Y-17474999D01*
X12041000Y-17655999D02*
X11444000Y-17655999D01*
X11444000Y-17655999D02*
X11444000Y-16893999D01*
X7941000Y-6361623D02*
X7941000Y-6390876D01*
X7839000Y-6361623D02*
X7839000Y-6390876D01*
D12*
X3199822Y-27379999D02*
X3199822Y-26807499D01*
X2517322Y-27272499D02*
X2519822Y-27272499D01*
X2517322Y-27272499D02*
X2517322Y-26807499D01*
X2517322Y-26807499D02*
X2519822Y-26807499D01*
X3199822Y-26807499D02*
X3189822Y-26807499D01*
D13*
X13352572Y-27815471D02*
X13352572Y-27764526D01*
X13457072Y-27815471D02*
X13457072Y-27764526D01*
X11415000Y-4625000D02*
X11540000Y-4625000D01*
X12041000Y-4654000D02*
X12041000Y-5416000D01*
X11444000Y-4654000D02*
X12041000Y-4654000D01*
X11670000Y-4655000D02*
X11670000Y-4730000D01*
X11520000Y-4655000D02*
X11520000Y-4835000D01*
X11445000Y-4655000D02*
X11520000Y-4655000D01*
X11965000Y-4730000D02*
X11965000Y-5035000D01*
X11670000Y-4730000D02*
X11965000Y-4730000D01*
X11415000Y-4750000D02*
X11415000Y-4625000D01*
X11520000Y-4835000D02*
X11445000Y-4835000D01*
X11445000Y-4835000D02*
X11445000Y-4655000D01*
X11520000Y-4985000D02*
X11520000Y-5085000D01*
X11445000Y-4985000D02*
X11520000Y-4985000D01*
X11520000Y-5085000D02*
X11445000Y-5085000D01*
X11445000Y-5085000D02*
X11445000Y-4985000D01*
X11520000Y-5235000D02*
X11520000Y-5415000D01*
X11445000Y-5235000D02*
X11520000Y-5235000D01*
X11965000Y-5340000D02*
X11965000Y-5035000D01*
X11670000Y-5340000D02*
X11965000Y-5340000D01*
X11670000Y-5415000D02*
X11670000Y-5340000D01*
X11520000Y-5415000D02*
X11445000Y-5415000D01*
X11445000Y-5415000D02*
X11445000Y-5235000D01*
X12041000Y-5416000D02*
X11444000Y-5416000D01*
X11444000Y-5416000D02*
X11444000Y-4654000D01*
X13139350Y-27487749D02*
X13190295Y-27487749D01*
X13139350Y-27592249D02*
X13190295Y-27592249D01*
X11415000Y-10744999D02*
X11540000Y-10744999D01*
X12041000Y-10773999D02*
X12041000Y-11535999D01*
X11444000Y-10773999D02*
X12041000Y-10773999D01*
X11670000Y-10774999D02*
X11670000Y-10849999D01*
X11520000Y-10774999D02*
X11520000Y-10954999D01*
X11445000Y-10774999D02*
X11520000Y-10774999D01*
X11965000Y-10849999D02*
X11965000Y-11154999D01*
X11670000Y-10849999D02*
X11965000Y-10849999D01*
X11415000Y-10869999D02*
X11415000Y-10744999D01*
X11520000Y-10954999D02*
X11445000Y-10954999D01*
X11445000Y-10954999D02*
X11445000Y-10774999D01*
X11520000Y-11104999D02*
X11520000Y-11204999D01*
X11445000Y-11104999D02*
X11520000Y-11104999D01*
X11520000Y-11204999D02*
X11445000Y-11204999D01*
X11445000Y-11204999D02*
X11445000Y-11104999D01*
X11520000Y-11354999D02*
X11520000Y-11534999D01*
X11445000Y-11354999D02*
X11520000Y-11354999D01*
X11965000Y-11459999D02*
X11965000Y-11154999D01*
X11670000Y-11459999D02*
X11965000Y-11459999D01*
X11670000Y-11534999D02*
X11670000Y-11459999D01*
X11520000Y-11534999D02*
X11445000Y-11534999D01*
X11445000Y-11534999D02*
X11445000Y-11354999D01*
X12041000Y-11535999D02*
X11444000Y-11535999D01*
X11444000Y-11535999D02*
X11444000Y-10773999D01*
X7941000Y-241623D02*
X7941000Y-270876D01*
X7839000Y-241623D02*
X7839000Y-270876D01*
X7498322Y-24564499D02*
X7498322Y-24626999D01*
X7467072Y-24595749D02*
X7529572Y-24595749D01*
X7836378Y-24650999D02*
X7772822Y-24650999D01*
X7836378Y-24650999D02*
X7942822Y-24757442D01*
X7497266Y-24650999D02*
X7560822Y-24650999D01*
X7497266Y-24650999D02*
X7390822Y-24757442D01*
X7942822Y-24757442D02*
X7942822Y-25202999D01*
X7390822Y-24757442D02*
X7390822Y-25202999D01*
X7942822Y-25202999D02*
X7772822Y-25202999D01*
X7390822Y-25202999D02*
X7560822Y-25202999D01*
D12*
X13499822Y-27379999D02*
X13499822Y-26807499D01*
X12817322Y-27272499D02*
X12819822Y-27272499D01*
X12817322Y-27272499D02*
X12817322Y-26807499D01*
X12817322Y-26807499D02*
X12819822Y-26807499D01*
X13499822Y-26807499D02*
X13489822Y-26807499D01*
D13*
X3480295Y-27612249D02*
X3429350Y-27612249D01*
X3480295Y-27507749D02*
X3429350Y-27507749D01*
%LPC*%
D14*
X1850000Y-770000D03*
D15*
X3825000Y-472500D03*
D16*
X3575000Y-472500D03*
X3325000Y-472500D03*
D17*
X8270000Y-276000D03*
D18*
X8524000Y-276000D03*
X8270000Y-530000D03*
X8524000Y-530000D03*
X8270000Y-784000D03*
X8524000Y-784000D03*
X8270000Y-1038000D03*
X8524000Y-1038000D03*
D15*
X3698822Y-24932499D03*
D16*
X3448822Y-24932499D03*
X3198822Y-24932499D03*
D14*
X14350000Y-17209999D03*
X1850000Y-13009999D03*
X1723822Y-25229999D03*
X723822Y-27229999D03*
X14223822Y-25229999D03*
D15*
X12740400Y-18856199D03*
D16*
X12490400Y-18856199D03*
X12240400Y-18856199D03*
D14*
X1850000Y-17209999D03*
D17*
X8270000Y-12515999D03*
D18*
X8524000Y-12515999D03*
X8270000Y-12769999D03*
X8524000Y-12769999D03*
X8270000Y-13023999D03*
X8524000Y-13023999D03*
X8270000Y-13277999D03*
X8524000Y-13277999D03*
D17*
X8270000Y-6395999D03*
D18*
X8524000Y-6395999D03*
X8270000Y-6649999D03*
X8524000Y-6649999D03*
X8270000Y-6903999D03*
X8524000Y-6903999D03*
X8270000Y-7157999D03*
X8524000Y-7157999D03*
D14*
X14350000Y-6889999D03*
D15*
X12740400Y-12736199D03*
D16*
X12490400Y-12736199D03*
X12240400Y-12736199D03*
D15*
X12740400Y-6616199D03*
D16*
X12490400Y-6616199D03*
X12240400Y-6616199D03*
D14*
X1723822Y-29429999D03*
D15*
X12740400Y-496200D03*
D16*
X12490400Y-496200D03*
X12240400Y-496200D03*
D14*
X850000Y-2770000D03*
X14350000Y-770000D03*
X15350000Y-2770000D03*
X1850000Y-23329999D03*
X1850000Y-6889999D03*
X15350000Y-15009999D03*
D15*
X3825000Y-12712499D03*
D16*
X3575000Y-12712499D03*
X3325000Y-12712499D03*
D15*
X3825000Y-6592499D03*
D16*
X3575000Y-6592499D03*
X3325000Y-6592499D03*
D14*
X14350000Y-13009999D03*
D17*
X8270000Y-18635999D03*
D18*
X8524000Y-18635999D03*
X8270000Y-18889999D03*
X8524000Y-18889999D03*
X8270000Y-19143999D03*
X8524000Y-19143999D03*
X8270000Y-19397999D03*
X8524000Y-19397999D03*
D15*
X12614222Y-24956199D03*
D16*
X12364222Y-24956199D03*
X12114222Y-24956199D03*
D14*
X15350000Y-8889999D03*
X14350000Y-23329999D03*
X850000Y-8889999D03*
D15*
X3825000Y-18832499D03*
D16*
X3575000Y-18832499D03*
X3325000Y-18832499D03*
D14*
X1850000Y-19129999D03*
X15350000Y-21129999D03*
X850000Y-15009999D03*
X14223822Y-29429999D03*
X1850000Y-11089999D03*
X14350000Y-11089999D03*
X850000Y-21129999D03*
X14350000Y-4970000D03*
X1850000Y-4970000D03*
D17*
X8143822Y-24735999D03*
D18*
X8397822Y-24735999D03*
X8143822Y-24989999D03*
X8397822Y-24989999D03*
X8143822Y-25243999D03*
X8397822Y-25243999D03*
X8143822Y-25497999D03*
X8397822Y-25497999D03*
D14*
X14350000Y-19129999D03*
X15223822Y-27229999D03*
D19*
X7890000Y-12409999D03*
X7890000Y-12582499D03*
D20*
X11690000Y-23269999D03*
D21*
X11690000Y-23519999D03*
D22*
X3054822Y-27881249D03*
X3054822Y-27698749D03*
D19*
X7890000Y-18529999D03*
X7890000Y-18702499D03*
D20*
X11651322Y-29369999D03*
D21*
X11651322Y-29619999D03*
D20*
X11690000Y-17149999D03*
D21*
X11690000Y-17399999D03*
D19*
X7890000Y-6289999D03*
X7890000Y-6462499D03*
D23*
X3147322Y-27329999D03*
X3082322Y-27329999D03*
X3017322Y-27329999D03*
X2952322Y-27329999D03*
X2887322Y-27329999D03*
X2822322Y-27329999D03*
X2757322Y-27329999D03*
X2692322Y-27329999D03*
X2627322Y-27329999D03*
X2562322Y-27329999D03*
X2562322Y-26749999D03*
X2627322Y-26749999D03*
X2692322Y-26749999D03*
X2757322Y-26749999D03*
X2822322Y-26749999D03*
X2887322Y-26749999D03*
X2952322Y-26749999D03*
X3017322Y-26749999D03*
X3082322Y-26749999D03*
X3147322Y-26749999D03*
D22*
X13404822Y-27881249D03*
X13404822Y-27698749D03*
D20*
X11690000Y-4910000D03*
D21*
X11690000Y-5160000D03*
D24*
X13073572Y-27539999D03*
X13256072Y-27539999D03*
D20*
X11690000Y-11029999D03*
D21*
X11690000Y-11279999D03*
D19*
X7890000Y-170000D03*
X7890000Y-342500D03*
D25*
X7666822Y-24706999D03*
X7666822Y-25146999D03*
D23*
X13447322Y-27329999D03*
X13382322Y-27329999D03*
X13317322Y-27329999D03*
X13252322Y-27329999D03*
X13187322Y-27329999D03*
X13122322Y-27329999D03*
X13057322Y-27329999D03*
X12992322Y-27329999D03*
X12927322Y-27329999D03*
X12862322Y-27329999D03*
X12862322Y-26749999D03*
X12927322Y-26749999D03*
X12992322Y-26749999D03*
X13057322Y-26749999D03*
X13122322Y-26749999D03*
X13187322Y-26749999D03*
X13252322Y-26749999D03*
X13317322Y-26749999D03*
X13382322Y-26749999D03*
X13447322Y-26749999D03*
D26*
X3546072Y-27559999D03*
X3363572Y-27559999D03*
%LPD*%
M02*
