%TF.GenerationSoftware,KiCad,Pcbnew,7.0.6-7.0.6~ubuntu20.04.1*%
%TF.CreationDate,2023-07-11T09:11:54+02:00*%
%TF.ProjectId,output_panel2023-07-11_071138.9032810000,6f757470-7574-45f7-9061-6e656c323032,rev?*%
%TF.SameCoordinates,Original*%
%TF.FileFunction,Soldermask,Top*%
%TF.FilePolarity,Negative*%
%FSLAX45Y45*%
G04 Gerber Fmt 4.5, Leading zero omitted, Abs format (unit mm)*
G04 Created by KiCad (PCBNEW 7.0.6-7.0.6~ubuntu20.04.1) date 2023-07-11 09:11:54*
%MOMM*%
%LPD*%
G01*
G04 APERTURE LIST*
G04 Aperture macros list*
%AMRoundRect*
0 Rectangle with rounded corners*
0 $1 Rounding radius*
0 $2 $3 $4 $5 $6 $7 $8 $9 X,Y pos of 4 corners*
0 Add a 4 corners polygon primitive as box body*
4,1,4,$2,$3,$4,$5,$6,$7,$8,$9,$2,$3,0*
0 Add four circle primitives for the rounded corners*
1,1,$1+$1,$2,$3*
1,1,$1+$1,$4,$5*
1,1,$1+$1,$6,$7*
1,1,$1+$1,$8,$9*
0 Add four rect primitives between the rounded corners*
20,1,$1+$1,$2,$3,$4,$5,0*
20,1,$1+$1,$4,$5,$6,$7,0*
20,1,$1+$1,$6,$7,$8,$9,0*
20,1,$1+$1,$8,$9,$2,$3,0*%
G04 Aperture macros list end*
%TA.AperFunction,Profile*%
%ADD10C,0.100000*%
%TD*%
%TA.AperFunction,Profile*%
%ADD11C,0.050000*%
%TD*%
%ADD12R,1.550000X1.300000*%
%ADD13RoundRect,0.237500X-0.287500X-0.237500X0.287500X-0.237500X0.287500X0.237500X-0.287500X0.237500X0*%
%ADD14RoundRect,0.237500X-0.237500X0.287500X-0.237500X-0.287500X0.237500X-0.287500X0.237500X0.287500X0*%
%ADD15RoundRect,0.237500X0.237500X-0.300000X0.237500X0.300000X-0.237500X0.300000X-0.237500X-0.300000X0*%
%ADD16R,0.760000X1.600000*%
%ADD17RoundRect,0.237500X-0.237500X0.300000X-0.237500X-0.300000X0.237500X-0.300000X0.237500X0.300000X0*%
%ADD18RoundRect,0.237500X0.250000X0.237500X-0.250000X0.237500X-0.250000X-0.237500X0.250000X-0.237500X0*%
%ADD19RoundRect,0.100000X-0.712500X-0.100000X0.712500X-0.100000X0.712500X0.100000X-0.712500X0.100000X0*%
%ADD20RoundRect,0.237500X-0.250000X-0.237500X0.250000X-0.237500X0.250000X0.237500X-0.250000X0.237500X0*%
%ADD21C,5.600000*%
%ADD22RoundRect,0.100000X0.100000X-0.637500X0.100000X0.637500X-0.100000X0.637500X-0.100000X-0.637500X0*%
%ADD23RoundRect,0.237500X-0.237500X0.250000X-0.237500X-0.250000X0.237500X-0.250000X0.237500X0.250000X0*%
%ADD24RoundRect,0.250000X0.600000X0.725000X-0.600000X0.725000X-0.600000X-0.725000X0.600000X-0.725000X0*%
%ADD25O,1.700000X1.950000*%
%ADD26R,1.700000X1.700000*%
%ADD27O,1.700000X1.700000*%
%ADD28RoundRect,0.237500X0.237500X-0.250000X0.237500X0.250000X-0.237500X0.250000X-0.237500X-0.250000X0*%
%ADD29RoundRect,0.125000X0.125000X-0.625000X0.125000X0.625000X-0.125000X0.625000X-0.125000X-0.625000X0*%
%ADD30RoundRect,0.125000X0.625000X-0.125000X0.625000X0.125000X-0.625000X0.125000X-0.625000X-0.125000X0*%
%ADD31RoundRect,0.237500X-0.300000X-0.237500X0.300000X-0.237500X0.300000X0.237500X-0.300000X0.237500X0*%
%ADD32RoundRect,0.237500X0.300000X0.237500X-0.300000X0.237500X-0.300000X-0.237500X0.300000X-0.237500X0*%
%ADD33R,2.400000X0.740000*%
%ADD34R,0.400000X1.000000*%
%ADD35RoundRect,0.250000X-0.750000X0.600000X-0.750000X-0.600000X0.750000X-0.600000X0.750000X0.600000X0*%
%ADD36O,2.000000X1.700000*%
G04 APERTURE END LIST*
D10*
X16050000Y-23029999D02*
X14250000Y-24429999D01*
X14250000Y-6070000D02*
X1850000Y-6070000D01*
X16070000Y-7599999D02*
X16050000Y-10789999D01*
X50000Y-13689999D02*
X1850000Y-12289999D01*
D11*
X14123822Y-30329999D02*
G75*
G03*
X14123822Y-24529999I-1674316J2900000D01*
G01*
D10*
X14250000Y-18309999D02*
X1850000Y-18309999D01*
X1850000Y-12289999D02*
X14270000Y-12329999D01*
X1723822Y-24529999D02*
X14123822Y-24529999D01*
X1723822Y-30329999D02*
X14123822Y-30329999D01*
X50000Y-23029999D02*
X50000Y-19809999D01*
X16050000Y-10789999D02*
X14250000Y-12189999D01*
X14250000Y-12189999D02*
X1850000Y-12189999D01*
X50000Y-16909999D02*
X50000Y-13689999D01*
X1850000Y-18409999D02*
X14270000Y-18449999D01*
X1850000Y-6169999D02*
X14270000Y-6209999D01*
X14250000Y-24429999D02*
X1850000Y-24429999D01*
X50000Y-1450000D02*
X1850000Y-50000D01*
X16050000Y-16909999D02*
X14250000Y-18309999D01*
X14270000Y-6209999D02*
X16070000Y-7599999D01*
X1850000Y-18309999D02*
X50000Y-16909999D01*
X16070000Y-13719999D02*
X16050000Y-16909999D01*
X50000Y-10789999D02*
X50000Y-7569999D01*
X1850000Y-6070000D02*
X50000Y-4670000D01*
X1850000Y-24429999D02*
X50000Y-23029999D01*
D11*
X1723822Y-24529999D02*
G75*
G03*
X1723822Y-30329999I1674316J-2900000D01*
G01*
D10*
X50000Y-7569999D02*
X1850000Y-6169999D01*
X14270000Y-90000D02*
X16070000Y-1480000D01*
X1850000Y-12189999D02*
X50000Y-10789999D01*
X14270000Y-12329999D02*
X16070000Y-13719999D01*
X14270000Y-18449999D02*
X16070000Y-19839999D01*
X50000Y-4670000D02*
X50000Y-1450000D01*
X16070000Y-19839999D02*
X16050000Y-23029999D01*
X16070000Y-1480000D02*
X16050000Y-4670000D01*
X50000Y-19809999D02*
X1850000Y-18409999D01*
X16050000Y-4670000D02*
X14250000Y-6070000D01*
X1850000Y-50000D02*
X14270000Y-90000D01*
D12*
X9126322Y-27204999D03*
X9921322Y-27204999D03*
X9126322Y-27654999D03*
X9921322Y-27654999D03*
D13*
X5462500Y-12409999D03*
X5637500Y-12409999D03*
D14*
X9745000Y-12803749D03*
X9745000Y-12978749D03*
D15*
X7080200Y-10715649D03*
X7080200Y-10543149D03*
D16*
X6150000Y-8070999D03*
X6150000Y-7308999D03*
D12*
X12802500Y-16034999D03*
X13597500Y-16034999D03*
X12802500Y-16484999D03*
X13597500Y-16484999D03*
D17*
X8172400Y-3330950D03*
X8172400Y-3503450D03*
D18*
X9178050Y-7327399D03*
X8995550Y-7327399D03*
D19*
X11338750Y-1172500D03*
X11338750Y-1237500D03*
X11338750Y-1302500D03*
X11338750Y-1367500D03*
X11761250Y-1367500D03*
X11761250Y-1302500D03*
X11761250Y-1237500D03*
X11761250Y-1172500D03*
D20*
X11484750Y-1537600D03*
X11667250Y-1537600D03*
D13*
X4762500Y-170000D03*
X4937500Y-170000D03*
D21*
X1850000Y-770000D03*
D13*
X5812500Y-12409999D03*
X5987500Y-12409999D03*
D20*
X11484750Y-13777599D03*
X11667250Y-13777599D03*
D12*
X2602500Y-22154999D03*
X3397500Y-22154999D03*
X2602500Y-22604999D03*
X3397500Y-22604999D03*
D22*
X9400900Y-7867649D03*
X9465900Y-7867649D03*
X9530900Y-7867649D03*
X9595900Y-7867649D03*
X9660900Y-7867649D03*
X9725900Y-7867649D03*
X9790900Y-7867649D03*
X9855900Y-7867649D03*
X9920900Y-7867649D03*
X9985900Y-7867649D03*
X10050900Y-7867649D03*
X10115900Y-7867649D03*
X10180900Y-7867649D03*
X10245900Y-7867649D03*
X10245900Y-7295149D03*
X10180900Y-7295149D03*
X10115900Y-7295149D03*
X10050900Y-7295149D03*
X9985900Y-7295149D03*
X9920900Y-7295149D03*
X9855900Y-7295149D03*
X9790900Y-7295149D03*
X9725900Y-7295149D03*
X9660900Y-7295149D03*
X9595900Y-7295149D03*
X9530900Y-7295149D03*
X9465900Y-7295149D03*
X9400900Y-7295149D03*
D23*
X5455000Y-18686249D03*
X5455000Y-18868749D03*
D24*
X3825000Y-472500D03*
D25*
X3575000Y-472500D03*
X3325000Y-472500D03*
D26*
X8270000Y-276000D03*
D27*
X8524000Y-276000D03*
X8270000Y-530000D03*
X8524000Y-530000D03*
X8270000Y-784000D03*
X8524000Y-784000D03*
X8270000Y-1038000D03*
X8524000Y-1038000D03*
D24*
X3698822Y-24932499D03*
D25*
X3448822Y-24932499D03*
X3198822Y-24932499D03*
D13*
X5112500Y-6289999D03*
X5287500Y-6289999D03*
D28*
X8290000Y-3050000D03*
X8290000Y-2867500D03*
D22*
X9400900Y-13987649D03*
X9465900Y-13987649D03*
X9530900Y-13987649D03*
X9595900Y-13987649D03*
X9660900Y-13987649D03*
X9725900Y-13987649D03*
X9790900Y-13987649D03*
X9855900Y-13987649D03*
X9920900Y-13987649D03*
X9985900Y-13987649D03*
X10050900Y-13987649D03*
X10115900Y-13987649D03*
X10180900Y-13987649D03*
X10245900Y-13987649D03*
X10245900Y-13415149D03*
X10180900Y-13415149D03*
X10115900Y-13415149D03*
X10050900Y-13415149D03*
X9985900Y-13415149D03*
X9920900Y-13415149D03*
X9855900Y-13415149D03*
X9790900Y-13415149D03*
X9725900Y-13415149D03*
X9660900Y-13415149D03*
X9595900Y-13415149D03*
X9530900Y-13415149D03*
X9465900Y-13415149D03*
X9400900Y-13415149D03*
D28*
X8290000Y-9169999D03*
X8290000Y-8987499D03*
D18*
X9178050Y-1359800D03*
X8995550Y-1359800D03*
D14*
X8942500Y-12804999D03*
X8942500Y-12979999D03*
D17*
X11390000Y-11337499D03*
X11390000Y-11509999D03*
D21*
X14350000Y-17209999D03*
D28*
X8990000Y-392500D03*
X8990000Y-210000D03*
D21*
X1850000Y-13009999D03*
D14*
X9745000Y-6683749D03*
X9745000Y-6858749D03*
D13*
X11488500Y-13929999D03*
X11663500Y-13929999D03*
D28*
X10340000Y-392500D03*
X10340000Y-210000D03*
D20*
X4058750Y-1020000D03*
X4241250Y-1020000D03*
D12*
X3852500Y-20904999D03*
X4647500Y-20904999D03*
X3852500Y-21354999D03*
X4647500Y-21354999D03*
D28*
X10640000Y-6512499D03*
X10640000Y-6329999D03*
D21*
X1723822Y-25229999D03*
D20*
X13913775Y-27884999D03*
X14096275Y-27884999D03*
D13*
X11488500Y-1690000D03*
X11663500Y-1690000D03*
D28*
X9890000Y-392500D03*
X9890000Y-210000D03*
D12*
X9252500Y-14984999D03*
X10047500Y-14984999D03*
X9252500Y-15434999D03*
X10047500Y-15434999D03*
D20*
X6143750Y-14379999D03*
X6326250Y-14379999D03*
X4058750Y-13259999D03*
X4241250Y-13259999D03*
D28*
X9740000Y-18752499D03*
X9740000Y-18569999D03*
D14*
X9582500Y-12804999D03*
X9582500Y-12979999D03*
D21*
X723822Y-27229999D03*
D13*
X5812500Y-18529999D03*
X5987500Y-18529999D03*
D21*
X14223822Y-25229999D03*
D17*
X8046222Y-27790949D03*
X8046222Y-27963449D03*
D28*
X9313822Y-24852499D03*
X9313822Y-24669999D03*
D20*
X4058750Y-19379999D03*
X4241250Y-19379999D03*
D23*
X5455000Y-12566249D03*
X5455000Y-12748749D03*
D22*
X9274722Y-26207649D03*
X9339722Y-26207649D03*
X9404722Y-26207649D03*
X9469722Y-26207649D03*
X9534722Y-26207649D03*
X9599722Y-26207649D03*
X9664722Y-26207649D03*
X9729722Y-26207649D03*
X9794722Y-26207649D03*
X9859722Y-26207649D03*
X9924722Y-26207649D03*
X9989722Y-26207649D03*
X10054722Y-26207649D03*
X10119722Y-26207649D03*
X10119722Y-25635149D03*
X10054722Y-25635149D03*
X9989722Y-25635149D03*
X9924722Y-25635149D03*
X9859722Y-25635149D03*
X9794722Y-25635149D03*
X9729722Y-25635149D03*
X9664722Y-25635149D03*
X9599722Y-25635149D03*
X9534722Y-25635149D03*
X9469722Y-25635149D03*
X9404722Y-25635149D03*
X9339722Y-25635149D03*
X9274722Y-25635149D03*
D17*
X11028822Y-25933749D03*
X11028822Y-26106249D03*
D20*
X6407500Y-11749999D03*
X6590000Y-11749999D03*
D14*
X9102500Y-18924999D03*
X9102500Y-19099999D03*
D20*
X8995550Y-7632199D03*
X9178050Y-7632199D03*
D13*
X4986322Y-24629999D03*
X5161322Y-24629999D03*
D23*
X5810000Y-12561249D03*
X5810000Y-12743749D03*
D14*
X10227500Y-12802499D03*
X10227500Y-12977499D03*
X9136322Y-25024999D03*
X9136322Y-25199999D03*
X10387500Y-12802499D03*
X10387500Y-12977499D03*
D12*
X14052500Y-20904999D03*
X14847500Y-20904999D03*
X14052500Y-21354999D03*
X14847500Y-21354999D03*
D23*
X5810000Y-18681249D03*
X5810000Y-18863749D03*
X11390000Y-4858750D03*
X11390000Y-5041250D03*
D20*
X6407500Y490000D03*
X6590000Y490000D03*
D14*
X10710000Y-12802499D03*
X10710000Y-12977499D03*
D24*
X12740400Y-18856199D03*
D25*
X12490400Y-18856199D03*
X12240400Y-18856199D03*
D29*
X7143822Y-28847499D03*
X7223822Y-28847499D03*
X7303822Y-28847499D03*
X7383822Y-28847499D03*
X7463822Y-28847499D03*
X7543822Y-28847499D03*
X7623822Y-28847499D03*
X7703822Y-28847499D03*
D30*
X7841322Y-28709999D03*
X7841322Y-28629999D03*
X7841322Y-28549999D03*
X7841322Y-28469999D03*
X7841322Y-28389999D03*
X7841322Y-28309999D03*
X7841322Y-28229999D03*
X7841322Y-28149999D03*
D29*
X7703822Y-28012499D03*
X7623822Y-28012499D03*
X7543822Y-28012499D03*
X7463822Y-28012499D03*
X7383822Y-28012499D03*
X7303822Y-28012499D03*
X7223822Y-28012499D03*
X7143822Y-28012499D03*
D30*
X7006322Y-28149999D03*
X7006322Y-28229999D03*
X7006322Y-28309999D03*
X7006322Y-28389999D03*
X7006322Y-28469999D03*
X7006322Y-28549999D03*
X7006322Y-28629999D03*
X7006322Y-28709999D03*
D28*
X9590000Y-6512499D03*
X9590000Y-6329999D03*
X8990000Y-18752499D03*
X8990000Y-18569999D03*
X9890000Y-6512499D03*
X9890000Y-6329999D03*
D22*
X9400900Y-20107649D03*
X9465900Y-20107649D03*
X9530900Y-20107649D03*
X9595900Y-20107649D03*
X9660900Y-20107649D03*
X9725900Y-20107649D03*
X9790900Y-20107649D03*
X9855900Y-20107649D03*
X9920900Y-20107649D03*
X9985900Y-20107649D03*
X10050900Y-20107649D03*
X10115900Y-20107649D03*
X10180900Y-20107649D03*
X10245900Y-20107649D03*
X10245900Y-19535149D03*
X10180900Y-19535149D03*
X10115900Y-19535149D03*
X10050900Y-19535149D03*
X9985900Y-19535149D03*
X9920900Y-19535149D03*
X9855900Y-19535149D03*
X9790900Y-19535149D03*
X9725900Y-19535149D03*
X9660900Y-19535149D03*
X9595900Y-19535149D03*
X9530900Y-19535149D03*
X9465900Y-19535149D03*
X9400900Y-19535149D03*
D14*
X10547500Y-12802499D03*
X10547500Y-12977499D03*
D12*
X11552500Y-8664999D03*
X12347500Y-8664999D03*
X11552500Y-9114999D03*
X12347500Y-9114999D03*
X12802500Y-9914999D03*
X13597500Y-9914999D03*
X12802500Y-10364999D03*
X13597500Y-10364999D03*
D21*
X1850000Y-17209999D03*
D13*
X5112500Y-12409999D03*
X5287500Y-12409999D03*
D14*
X9582500Y-6684999D03*
X9582500Y-6859999D03*
D20*
X6978750Y-5629999D03*
X7161250Y-5629999D03*
D12*
X2602500Y-13534999D03*
X3397500Y-13534999D03*
X2602500Y-13984999D03*
X3397500Y-13984999D03*
D23*
X5102500Y-6448749D03*
X5102500Y-6631249D03*
D28*
X10340000Y-18752499D03*
X10340000Y-18569999D03*
D31*
X10573250Y-3197000D03*
X10745750Y-3197000D03*
D14*
X9907500Y-562500D03*
X9907500Y-737500D03*
D23*
X5455000Y-6446249D03*
X5455000Y-6628749D03*
X11390000Y-23218749D03*
X11390000Y-23401249D03*
D12*
X11552500Y-14784999D03*
X12347500Y-14784999D03*
X11552500Y-15234999D03*
X12347500Y-15234999D03*
X5852500Y-21104999D03*
X6647500Y-21104999D03*
X5852500Y-21554999D03*
X6647500Y-21554999D03*
D14*
X9262500Y-18924999D03*
X9262500Y-19099999D03*
X8816322Y-25024999D03*
X8816322Y-25199999D03*
D28*
X10190000Y-392500D03*
X10190000Y-210000D03*
D18*
X9178050Y-19719799D03*
X8995550Y-19719799D03*
D26*
X8270000Y-12515999D03*
D27*
X8524000Y-12515999D03*
X8270000Y-12769999D03*
X8524000Y-12769999D03*
X8270000Y-13023999D03*
X8524000Y-13023999D03*
X8270000Y-13277999D03*
X8524000Y-13277999D03*
D13*
X4762500Y-18529999D03*
X4937500Y-18529999D03*
D17*
X11390000Y-17457499D03*
X11390000Y-17629999D03*
X10949500Y-14771999D03*
X10949500Y-14944499D03*
D14*
X9296322Y-25024999D03*
X9296322Y-25199999D03*
X9422500Y-565000D03*
X9422500Y-740000D03*
D13*
X11362322Y-26149999D03*
X11537322Y-26149999D03*
D20*
X11358572Y-25997599D03*
X11541072Y-25997599D03*
D12*
X10776322Y-24754999D03*
X11571322Y-24754999D03*
X10776322Y-25204999D03*
X11571322Y-25204999D03*
D31*
X10573250Y-21556999D03*
X10745750Y-21556999D03*
D28*
X9140000Y-18752499D03*
X9140000Y-18569999D03*
D12*
X9252500Y-8864999D03*
X10047500Y-8864999D03*
X9252500Y-9314999D03*
X10047500Y-9314999D03*
D14*
X10710000Y-562500D03*
X10710000Y-737500D03*
D32*
X7936250Y-9209999D03*
X7763750Y-9209999D03*
D26*
X8270000Y-6395999D03*
D27*
X8524000Y-6395999D03*
X8270000Y-6649999D03*
X8524000Y-6649999D03*
X8270000Y-6903999D03*
X8524000Y-6903999D03*
X8270000Y-7157999D03*
X8524000Y-7157999D03*
D28*
X9913822Y-24852499D03*
X9913822Y-24669999D03*
D18*
X2365870Y-27884999D03*
X2183370Y-27884999D03*
D14*
X9422500Y-6684999D03*
X9422500Y-6859999D03*
X9907500Y-12802499D03*
X9907500Y-12977499D03*
D28*
X9740000Y-12632499D03*
X9740000Y-12449999D03*
D14*
X9422500Y-18924999D03*
X9422500Y-19099999D03*
D17*
X8020000Y-15570949D03*
X8020000Y-15743449D03*
D14*
X9781322Y-25022499D03*
X9781322Y-25197499D03*
D28*
X10490000Y-6512499D03*
X10490000Y-6329999D03*
D12*
X2602500Y-7414999D03*
X3397500Y-7414999D03*
X2602500Y-7864999D03*
X3397500Y-7864999D03*
D23*
X11390000Y-10978749D03*
X11390000Y-11161249D03*
D28*
X10490000Y-18752499D03*
X10490000Y-18569999D03*
D21*
X14350000Y-6889999D03*
D13*
X4762500Y-6289999D03*
X4937500Y-6289999D03*
D12*
X12802500Y-3795000D03*
X13597500Y-3795000D03*
X12802500Y-4245000D03*
X13597500Y-4245000D03*
D29*
X7270000Y-10507499D03*
X7350000Y-10507499D03*
X7430000Y-10507499D03*
X7510000Y-10507499D03*
X7590000Y-10507499D03*
X7670000Y-10507499D03*
X7750000Y-10507499D03*
X7830000Y-10507499D03*
D30*
X7967500Y-10369999D03*
X7967500Y-10289999D03*
X7967500Y-10209999D03*
X7967500Y-10129999D03*
X7967500Y-10049999D03*
X7967500Y-9969999D03*
X7967500Y-9889999D03*
X7967500Y-9809999D03*
D29*
X7830000Y-9672499D03*
X7750000Y-9672499D03*
X7670000Y-9672499D03*
X7590000Y-9672499D03*
X7510000Y-9672499D03*
X7430000Y-9672499D03*
X7350000Y-9672499D03*
X7270000Y-9672499D03*
D30*
X7132500Y-9809999D03*
X7132500Y-9889999D03*
X7132500Y-9969999D03*
X7132500Y-10049999D03*
X7132500Y-10129999D03*
X7132500Y-10209999D03*
X7132500Y-10289999D03*
X7132500Y-10369999D03*
D23*
X4626322Y-24786249D03*
X4626322Y-24968749D03*
D33*
X9441322Y-29042999D03*
X9831322Y-29042999D03*
X9441322Y-29169999D03*
X9831322Y-29169999D03*
X9441322Y-29296999D03*
X9831322Y-29296999D03*
X9441322Y-29423999D03*
X9831322Y-29423999D03*
X9441322Y-29550999D03*
X9831322Y-29550999D03*
X9441322Y-29677999D03*
X9831322Y-29677999D03*
X9441322Y-29804999D03*
X9831322Y-29804999D03*
D20*
X11484750Y-19897599D03*
X11667250Y-19897599D03*
D15*
X7080200Y-4595650D03*
X7080200Y-4423150D03*
D28*
X10490000Y-392500D03*
X10490000Y-210000D03*
D12*
X12802500Y-13534999D03*
X13597500Y-13534999D03*
X12802500Y-13984999D03*
X13597500Y-13984999D03*
D29*
X7270000Y-4387500D03*
X7350000Y-4387500D03*
X7430000Y-4387500D03*
X7510000Y-4387500D03*
X7590000Y-4387500D03*
X7670000Y-4387500D03*
X7750000Y-4387500D03*
X7830000Y-4387500D03*
D30*
X7967500Y-4250000D03*
X7967500Y-4170000D03*
X7967500Y-4090000D03*
X7967500Y-4010000D03*
X7967500Y-3930000D03*
X7967500Y-3850000D03*
X7967500Y-3770000D03*
X7967500Y-3690000D03*
D29*
X7830000Y-3552500D03*
X7750000Y-3552500D03*
X7670000Y-3552500D03*
X7590000Y-3552500D03*
X7510000Y-3552500D03*
X7430000Y-3552500D03*
X7350000Y-3552500D03*
X7270000Y-3552500D03*
D30*
X7132500Y-3690000D03*
X7132500Y-3770000D03*
X7132500Y-3850000D03*
X7132500Y-3930000D03*
X7132500Y-4010000D03*
X7132500Y-4090000D03*
X7132500Y-4170000D03*
X7132500Y-4250000D03*
D24*
X12740400Y-12736199D03*
D25*
X12490400Y-12736199D03*
X12240400Y-12736199D03*
D23*
X4976322Y-24788749D03*
X4976322Y-24971249D03*
D14*
X10547500Y-562500D03*
X10547500Y-737500D03*
D28*
X9290000Y-392500D03*
X9290000Y-210000D03*
D13*
X5686322Y-24629999D03*
X5861322Y-24629999D03*
D23*
X11390000Y-17098749D03*
X11390000Y-17281249D03*
D22*
X9400900Y-1747650D03*
X9465900Y-1747650D03*
X9530900Y-1747650D03*
X9595900Y-1747650D03*
X9660900Y-1747650D03*
X9725900Y-1747650D03*
X9790900Y-1747650D03*
X9855900Y-1747650D03*
X9920900Y-1747650D03*
X9985900Y-1747650D03*
X10050900Y-1747650D03*
X10115900Y-1747650D03*
X10180900Y-1747650D03*
X10245900Y-1747650D03*
X10245900Y-1175150D03*
X10180900Y-1175150D03*
X10115900Y-1175150D03*
X10050900Y-1175150D03*
X9985900Y-1175150D03*
X9920900Y-1175150D03*
X9855900Y-1175150D03*
X9790900Y-1175150D03*
X9725900Y-1175150D03*
X9660900Y-1175150D03*
X9595900Y-1175150D03*
X9530900Y-1175150D03*
X9465900Y-1175150D03*
X9400900Y-1175150D03*
D17*
X11155000Y-19833749D03*
X11155000Y-20006249D03*
D12*
X14052500Y-14784999D03*
X14847500Y-14784999D03*
X14052500Y-15234999D03*
X14847500Y-15234999D03*
D20*
X4058750Y-7139999D03*
X4241250Y-7139999D03*
D23*
X5102500Y-18688749D03*
X5102500Y-18871249D03*
D34*
X7365000Y-2850000D03*
X7430000Y-2850000D03*
X7495000Y-2850000D03*
X7560000Y-2850000D03*
X7625000Y-2850000D03*
X7690000Y-2850000D03*
X7755000Y-2850000D03*
X7820000Y-2850000D03*
X7885000Y-2850000D03*
X7950000Y-2850000D03*
X7950000Y-2270000D03*
X7885000Y-2270000D03*
X7820000Y-2270000D03*
X7755000Y-2270000D03*
X7690000Y-2270000D03*
X7625000Y-2270000D03*
X7560000Y-2270000D03*
X7495000Y-2270000D03*
X7430000Y-2270000D03*
X7365000Y-2270000D03*
D32*
X7936250Y-15329999D03*
X7763750Y-15329999D03*
D28*
X9013822Y-24852499D03*
X9013822Y-24669999D03*
D14*
X10227500Y-562500D03*
X10227500Y-737500D03*
D17*
X10949500Y-2532000D03*
X10949500Y-2704500D03*
D24*
X12740400Y-6616199D03*
D25*
X12490400Y-6616199D03*
X12240400Y-6616199D03*
D28*
X10040000Y-12632499D03*
X10040000Y-12449999D03*
D14*
X9262500Y-565000D03*
X9262500Y-740000D03*
X9582500Y-18924999D03*
X9582500Y-19099999D03*
D17*
X8172400Y-15570949D03*
X8172400Y-15743449D03*
X11390000Y-23577499D03*
X11390000Y-23749999D03*
D12*
X5747322Y-27204999D03*
X6542322Y-27204999D03*
X5747322Y-27654999D03*
X6542322Y-27654999D03*
D21*
X1723822Y-29429999D03*
D28*
X10040000Y-6512499D03*
X10040000Y-6329999D03*
X10490000Y-12632499D03*
X10490000Y-12449999D03*
X9290000Y-18752499D03*
X9290000Y-18569999D03*
X8290000Y-15289999D03*
X8290000Y-15107499D03*
D24*
X12740400Y-496200D03*
D25*
X12490400Y-496200D03*
X12240400Y-496200D03*
D17*
X11390000Y-5217500D03*
X11390000Y-5390000D03*
D21*
X850000Y-2770000D03*
D14*
X10067500Y-12802499D03*
X10067500Y-12977499D03*
D12*
X12676322Y-28254999D03*
X13471322Y-28254999D03*
X12676322Y-28704999D03*
X13471322Y-28704999D03*
D21*
X14350000Y-770000D03*
X15350000Y-2770000D03*
D14*
X9102500Y-6684999D03*
X9102500Y-6859999D03*
D23*
X5455000Y-326250D03*
X5455000Y-508750D03*
D28*
X10063822Y-24852499D03*
X10063822Y-24669999D03*
X9140000Y-392500D03*
X9140000Y-210000D03*
D21*
X1850000Y-23329999D03*
D12*
X10902500Y-12534999D03*
X11697500Y-12534999D03*
X10902500Y-12984999D03*
X11697500Y-12984999D03*
X11426322Y-27004999D03*
X12221322Y-27004999D03*
X11426322Y-27454999D03*
X12221322Y-27454999D03*
D17*
X8172400Y-21690949D03*
X8172400Y-21863449D03*
D19*
X11212572Y-25632499D03*
X11212572Y-25697499D03*
X11212572Y-25762499D03*
X11212572Y-25827499D03*
X11635072Y-25827499D03*
X11635072Y-25762499D03*
X11635072Y-25697499D03*
X11635072Y-25632499D03*
D12*
X10902500Y-295000D03*
X11697500Y-295000D03*
X10902500Y-745000D03*
X11697500Y-745000D03*
D23*
X4752500Y-12566249D03*
X4752500Y-12748749D03*
D14*
X10227500Y-18922499D03*
X10227500Y-19097499D03*
D20*
X6407500Y-17869999D03*
X6590000Y-17869999D03*
D23*
X4752500Y-18686249D03*
X4752500Y-18868749D03*
D12*
X2602500Y-19654999D03*
X3397500Y-19654999D03*
X2602500Y-20104999D03*
X3397500Y-20104999D03*
D13*
X5462500Y-170000D03*
X5637500Y-170000D03*
D28*
X9590000Y-392500D03*
X9590000Y-210000D03*
D14*
X10421322Y-25022499D03*
X10421322Y-25197499D03*
D20*
X3932572Y-25479999D03*
X4115072Y-25479999D03*
D14*
X8976222Y-25024999D03*
X8976222Y-25199999D03*
D21*
X1850000Y-6889999D03*
D14*
X10710000Y-18922499D03*
X10710000Y-19097499D03*
D20*
X6143750Y-20499999D03*
X6326250Y-20499999D03*
D28*
X9140000Y-12632499D03*
X9140000Y-12449999D03*
D17*
X10823322Y-26991999D03*
X10823322Y-27164499D03*
D28*
X9613822Y-24852499D03*
X9613822Y-24669999D03*
X9590000Y-18752499D03*
X9590000Y-18569999D03*
D13*
X5812500Y-170000D03*
X5987500Y-170000D03*
D12*
X2602500Y-1295000D03*
X3397500Y-1295000D03*
X2602500Y-1745000D03*
X3397500Y-1745000D03*
X1352500Y-20904999D03*
X2147500Y-20904999D03*
X1352500Y-21354999D03*
X2147500Y-21354999D03*
D18*
X9178050Y-13447399D03*
X8995550Y-13447399D03*
D29*
X7270000Y-16627499D03*
X7350000Y-16627499D03*
X7430000Y-16627499D03*
X7510000Y-16627499D03*
X7590000Y-16627499D03*
X7670000Y-16627499D03*
X7750000Y-16627499D03*
X7830000Y-16627499D03*
D30*
X7967500Y-16489999D03*
X7967500Y-16409999D03*
X7967500Y-16329999D03*
X7967500Y-16249999D03*
X7967500Y-16169999D03*
X7967500Y-16089999D03*
X7967500Y-16009999D03*
X7967500Y-15929999D03*
D29*
X7830000Y-15792499D03*
X7750000Y-15792499D03*
X7670000Y-15792499D03*
X7590000Y-15792499D03*
X7510000Y-15792499D03*
X7430000Y-15792499D03*
X7350000Y-15792499D03*
X7270000Y-15792499D03*
D30*
X7132500Y-15929999D03*
X7132500Y-16009999D03*
X7132500Y-16089999D03*
X7132500Y-16169999D03*
X7132500Y-16249999D03*
X7132500Y-16329999D03*
X7132500Y-16409999D03*
X7132500Y-16489999D03*
D21*
X15350000Y-15009999D03*
D20*
X6143750Y-2140000D03*
X6326250Y-2140000D03*
D23*
X4752500Y-6446249D03*
X4752500Y-6628749D03*
D14*
X9262500Y-6684999D03*
X9262500Y-6859999D03*
X8942500Y-565000D03*
X8942500Y-740000D03*
D12*
X10902500Y-6414999D03*
X11697500Y-6414999D03*
X10902500Y-6864999D03*
X11697500Y-6864999D03*
D28*
X8990000Y-6512499D03*
X8990000Y-6329999D03*
D17*
X11263822Y-29677499D03*
X11263822Y-29849999D03*
D12*
X14052500Y-8664999D03*
X14847500Y-8664999D03*
X14052500Y-9114999D03*
X14847500Y-9114999D03*
D33*
X9567500Y-16822999D03*
X9957500Y-16822999D03*
X9567500Y-16949999D03*
X9957500Y-16949999D03*
X9567500Y-17076999D03*
X9957500Y-17076999D03*
X9567500Y-17203999D03*
X9957500Y-17203999D03*
X9567500Y-17330999D03*
X9957500Y-17330999D03*
X9567500Y-17457999D03*
X9957500Y-17457999D03*
X9567500Y-17584999D03*
X9957500Y-17584999D03*
D23*
X11190000Y-5212500D03*
X11190000Y-5395000D03*
D20*
X6978750Y-11749999D03*
X7161250Y-11749999D03*
D16*
X6023822Y-26410999D03*
X6023822Y-25648999D03*
D20*
X12458750Y-970000D03*
X12641250Y-970000D03*
D28*
X9290000Y-12632499D03*
X9290000Y-12449999D03*
X9890000Y-12632499D03*
X9890000Y-12449999D03*
X8863822Y-24852499D03*
X8863822Y-24669999D03*
D20*
X12332572Y-25429999D03*
X12515072Y-25429999D03*
X6143750Y-8259999D03*
X6326250Y-8259999D03*
D13*
X5112500Y-170000D03*
X5287500Y-170000D03*
X5462500Y-18529999D03*
X5637500Y-18529999D03*
D12*
X13926322Y-27004999D03*
X14721322Y-27004999D03*
X13926322Y-27454999D03*
X14721322Y-27454999D03*
D28*
X9440000Y-18752499D03*
X9440000Y-18569999D03*
D16*
X6150000Y-20310999D03*
X6150000Y-19548999D03*
D23*
X4752500Y-326250D03*
X4752500Y-508750D03*
D17*
X11155000Y-1473750D03*
X11155000Y-1646250D03*
D14*
X10710000Y-6682499D03*
X10710000Y-6857499D03*
D24*
X3825000Y-12712499D03*
D25*
X3575000Y-12712499D03*
X3325000Y-12712499D03*
D24*
X3825000Y-6592499D03*
D25*
X3575000Y-6592499D03*
X3325000Y-6592499D03*
D12*
X2602500Y-9914999D03*
X3397500Y-9914999D03*
X2602500Y-10364999D03*
X3397500Y-10364999D03*
D29*
X7270000Y-22747499D03*
X7350000Y-22747499D03*
X7430000Y-22747499D03*
X7510000Y-22747499D03*
X7590000Y-22747499D03*
X7670000Y-22747499D03*
X7750000Y-22747499D03*
X7830000Y-22747499D03*
D30*
X7967500Y-22609999D03*
X7967500Y-22529999D03*
X7967500Y-22449999D03*
X7967500Y-22369999D03*
X7967500Y-22289999D03*
X7967500Y-22209999D03*
X7967500Y-22129999D03*
X7967500Y-22049999D03*
D29*
X7830000Y-21912499D03*
X7750000Y-21912499D03*
X7670000Y-21912499D03*
X7590000Y-21912499D03*
X7510000Y-21912499D03*
X7430000Y-21912499D03*
X7350000Y-21912499D03*
X7270000Y-21912499D03*
D30*
X7132500Y-22049999D03*
X7132500Y-22129999D03*
X7132500Y-22209999D03*
X7132500Y-22289999D03*
X7132500Y-22369999D03*
X7132500Y-22449999D03*
X7132500Y-22529999D03*
X7132500Y-22609999D03*
D20*
X6407500Y-5629999D03*
X6590000Y-5629999D03*
D14*
X10387500Y-562500D03*
X10387500Y-737500D03*
D20*
X6978750Y490000D03*
X7161250Y490000D03*
D14*
X10387500Y-18922499D03*
X10387500Y-19097499D03*
X9745000Y-18923749D03*
X9745000Y-19098749D03*
D21*
X14350000Y-13009999D03*
D26*
X8270000Y-18635999D03*
D27*
X8524000Y-18635999D03*
X8270000Y-18889999D03*
X8524000Y-18889999D03*
X8270000Y-19143999D03*
X8524000Y-19143999D03*
X8270000Y-19397999D03*
X8524000Y-19397999D03*
D19*
X11338750Y-19532499D03*
X11338750Y-19597499D03*
X11338750Y-19662499D03*
X11338750Y-19727499D03*
X11761250Y-19727499D03*
X11761250Y-19662499D03*
X11761250Y-19597499D03*
X11761250Y-19532499D03*
D28*
X10040000Y-392500D03*
X10040000Y-210000D03*
D24*
X12614222Y-24956199D03*
D25*
X12364222Y-24956199D03*
X12114222Y-24956199D03*
D18*
X9178050Y-19567399D03*
X8995550Y-19567399D03*
D12*
X14052500Y-2545000D03*
X14847500Y-2545000D03*
X14052500Y-2995000D03*
X14847500Y-2995000D03*
D28*
X9440000Y-12632499D03*
X9440000Y-12449999D03*
D21*
X15350000Y-8889999D03*
D14*
X9941322Y-25022499D03*
X9941322Y-25197499D03*
D12*
X2476322Y-25674999D03*
X3271322Y-25674999D03*
X2476322Y-26124999D03*
X3271322Y-26124999D03*
D14*
X10387500Y-6682499D03*
X10387500Y-6857499D03*
D21*
X14350000Y-23329999D03*
D14*
X9745000Y-563750D03*
X9745000Y-738750D03*
D20*
X8995550Y-19872199D03*
X9178050Y-19872199D03*
D16*
X6150000Y-14190999D03*
X6150000Y-13428999D03*
D21*
X850000Y-8889999D03*
D24*
X3825000Y-18832499D03*
D25*
X3575000Y-18832499D03*
X3325000Y-18832499D03*
D17*
X7893822Y-27790949D03*
X7893822Y-27963449D03*
D12*
X1352500Y-14784999D03*
X2147500Y-14784999D03*
X1352500Y-15234999D03*
X2147500Y-15234999D03*
D17*
X8020000Y-3330950D03*
X8020000Y-3503450D03*
D12*
X3726322Y-27004999D03*
X4521322Y-27004999D03*
X3726322Y-27454999D03*
X4521322Y-27454999D03*
D28*
X10640000Y-392500D03*
X10640000Y-210000D03*
D23*
X11063822Y-29672499D03*
X11063822Y-29854999D03*
D28*
X9890000Y-18752499D03*
X9890000Y-18569999D03*
D14*
X10067500Y-562500D03*
X10067500Y-737500D03*
D16*
X10567000Y-3008000D03*
X10567000Y-2246000D03*
D32*
X7936250Y-21449999D03*
X7763750Y-21449999D03*
D14*
X9907500Y-6682499D03*
X9907500Y-6857499D03*
D12*
X11552500Y-20904999D03*
X12347500Y-20904999D03*
X11552500Y-21354999D03*
X12347500Y-21354999D03*
D21*
X1850000Y-19129999D03*
D13*
X4762500Y-12409999D03*
X4937500Y-12409999D03*
D18*
X8796072Y-25839999D03*
X8613572Y-25839999D03*
D14*
X10583822Y-25022499D03*
X10583822Y-25197499D03*
D17*
X8172400Y-9450949D03*
X8172400Y-9623449D03*
D13*
X11488500Y-20049999D03*
X11663500Y-20049999D03*
D31*
X10573250Y-9316999D03*
X10745750Y-9316999D03*
D28*
X10640000Y-18752499D03*
X10640000Y-18569999D03*
D12*
X9252500Y-2745000D03*
X10047500Y-2745000D03*
X9252500Y-3195000D03*
X10047500Y-3195000D03*
D16*
X6150000Y-1951000D03*
X6150000Y-1189000D03*
D18*
X9178050Y-7479799D03*
X8995550Y-7479799D03*
D28*
X10340000Y-6512499D03*
X10340000Y-6329999D03*
D21*
X15350000Y-21129999D03*
D12*
X12802500Y-7414999D03*
X13597500Y-7414999D03*
X12802500Y-7864999D03*
X13597500Y-7864999D03*
X1352500Y-8664999D03*
X2147500Y-8664999D03*
X1352500Y-9114999D03*
X2147500Y-9114999D03*
D21*
X850000Y-15009999D03*
D12*
X2602500Y-3795000D03*
X3397500Y-3795000D03*
X2602500Y-4245000D03*
X3397500Y-4245000D03*
D15*
X7080200Y-16835649D03*
X7080200Y-16663149D03*
D12*
X5852500Y-2745000D03*
X6647500Y-2745000D03*
X5852500Y-3195000D03*
X6647500Y-3195000D03*
D23*
X5102500Y-328750D03*
X5102500Y-511250D03*
D12*
X2602500Y-16034999D03*
X3397500Y-16034999D03*
X2602500Y-16484999D03*
X3397500Y-16484999D03*
D20*
X12458750Y-19329999D03*
X12641250Y-19329999D03*
D33*
X9567500Y-10702999D03*
X9957500Y-10702999D03*
X9567500Y-10829999D03*
X9957500Y-10829999D03*
X9567500Y-10956999D03*
X9957500Y-10956999D03*
X9567500Y-11083999D03*
X9957500Y-11083999D03*
X9567500Y-11210999D03*
X9957500Y-11210999D03*
X9567500Y-11337999D03*
X9957500Y-11337999D03*
X9567500Y-11464999D03*
X9957500Y-11464999D03*
D20*
X8413572Y-26239999D03*
X8596072Y-26239999D03*
D12*
X10902500Y-18654999D03*
X11697500Y-18654999D03*
X10902500Y-19104999D03*
X11697500Y-19104999D03*
D14*
X9456322Y-25024999D03*
X9456322Y-25199999D03*
X10067500Y-6682499D03*
X10067500Y-6857499D03*
X9262500Y-12804999D03*
X9262500Y-12979999D03*
X10547500Y-18922499D03*
X10547500Y-19097499D03*
D17*
X10949500Y-8651999D03*
X10949500Y-8824499D03*
D20*
X12458750Y-13209999D03*
X12641250Y-13209999D03*
D17*
X8020000Y-21690949D03*
X8020000Y-21863449D03*
D12*
X3852500Y-2545000D03*
X4647500Y-2545000D03*
X3852500Y-2995000D03*
X4647500Y-2995000D03*
D14*
X9102500Y-12804999D03*
X9102500Y-12979999D03*
D21*
X14223822Y-29429999D03*
D12*
X5852500Y-14984999D03*
X6647500Y-14984999D03*
X5852500Y-15434999D03*
X6647500Y-15434999D03*
D16*
X10567000Y-21367999D03*
X10567000Y-20605999D03*
D21*
X1850000Y-11089999D03*
D23*
X5810000Y-321250D03*
X5810000Y-503750D03*
D28*
X10190000Y-18752499D03*
X10190000Y-18569999D03*
X9740000Y-6512499D03*
X9740000Y-6329999D03*
D14*
X8942500Y-18924999D03*
X8942500Y-19099999D03*
X9422500Y-12804999D03*
X9422500Y-12979999D03*
D28*
X10213822Y-24852499D03*
X10213822Y-24669999D03*
D18*
X9178050Y-1207400D03*
X8995550Y-1207400D03*
D21*
X14350000Y-11089999D03*
D14*
X8942500Y-6684999D03*
X8942500Y-6859999D03*
D12*
X3852500Y-8664999D03*
X4647500Y-8664999D03*
X3852500Y-9114999D03*
X4647500Y-9114999D03*
D13*
X5812500Y-6289999D03*
X5987500Y-6289999D03*
D28*
X9160822Y-24852499D03*
X9160822Y-24669999D03*
X9140000Y-6512499D03*
X9140000Y-6329999D03*
D14*
X9102500Y-565000D03*
X9102500Y-740000D03*
D23*
X11263822Y-29318749D03*
X11263822Y-29501249D03*
D31*
X2528370Y-27884999D03*
X2700870Y-27884999D03*
D19*
X11338750Y-7292499D03*
X11338750Y-7357499D03*
X11338750Y-7422499D03*
X11338750Y-7487499D03*
X11761250Y-7487499D03*
X11761250Y-7422499D03*
X11761250Y-7357499D03*
X11761250Y-7292499D03*
D17*
X8020000Y-9450949D03*
X8020000Y-9623449D03*
D12*
X5852500Y-8864999D03*
X6647500Y-8864999D03*
X5852500Y-9314999D03*
X6647500Y-9314999D03*
D16*
X10567000Y-9127999D03*
X10567000Y-8365999D03*
D28*
X9440000Y-6512499D03*
X9440000Y-6329999D03*
D12*
X12802500Y-1295000D03*
X13597500Y-1295000D03*
X12802500Y-1745000D03*
X13597500Y-1745000D03*
D32*
X7936250Y-3090000D03*
X7763750Y-3090000D03*
D28*
X10363822Y-24852499D03*
X10363822Y-24669999D03*
D21*
X850000Y-21129999D03*
D20*
X11484750Y-7657599D03*
X11667250Y-7657599D03*
D23*
X5810000Y-6441249D03*
X5810000Y-6623749D03*
D28*
X8990000Y-12632499D03*
X8990000Y-12449999D03*
D12*
X3852500Y-14784999D03*
X4647500Y-14784999D03*
X3852500Y-15234999D03*
X4647500Y-15234999D03*
X12676322Y-25754999D03*
X13471322Y-25754999D03*
X12676322Y-26204999D03*
X13471322Y-26204999D03*
D21*
X14350000Y-4970000D03*
D31*
X10573250Y-15436999D03*
X10745750Y-15436999D03*
D17*
X10949500Y-20891999D03*
X10949500Y-21064499D03*
D14*
X10547500Y-6682499D03*
X10547500Y-6857499D03*
D21*
X1850000Y-4970000D03*
D28*
X10190000Y-6512499D03*
X10190000Y-6329999D03*
D17*
X11155000Y-13713749D03*
X11155000Y-13886249D03*
D33*
X9567500Y-4583000D03*
X9957500Y-4583000D03*
X9567500Y-4710000D03*
X9957500Y-4710000D03*
X9567500Y-4837000D03*
X9957500Y-4837000D03*
X9567500Y-4964000D03*
X9957500Y-4964000D03*
X9567500Y-5091000D03*
X9957500Y-5091000D03*
X9567500Y-5218000D03*
X9957500Y-5218000D03*
X9567500Y-5345000D03*
X9957500Y-5345000D03*
D34*
X7365000Y-15089999D03*
X7430000Y-15089999D03*
X7495000Y-15089999D03*
X7560000Y-15089999D03*
X7625000Y-15089999D03*
X7690000Y-15089999D03*
X7755000Y-15089999D03*
X7820000Y-15089999D03*
X7885000Y-15089999D03*
X7950000Y-15089999D03*
X7950000Y-14509999D03*
X7885000Y-14509999D03*
X7820000Y-14509999D03*
X7755000Y-14509999D03*
X7690000Y-14509999D03*
X7625000Y-14509999D03*
X7560000Y-14509999D03*
X7495000Y-14509999D03*
X7430000Y-14509999D03*
X7365000Y-14509999D03*
D28*
X9463822Y-24852499D03*
X9463822Y-24669999D03*
D23*
X5102500Y-12568749D03*
X5102500Y-12751249D03*
D14*
X10261322Y-25022499D03*
X10261322Y-25197499D03*
D23*
X11190000Y-11332499D03*
X11190000Y-11514999D03*
D14*
X9619822Y-25023749D03*
X9619822Y-25198749D03*
D28*
X9740000Y-392500D03*
X9740000Y-210000D03*
D12*
X9252500Y-21104999D03*
X10047500Y-21104999D03*
X9252500Y-21554999D03*
X10047500Y-21554999D03*
D16*
X10440822Y-26410999D03*
X10440822Y-25648999D03*
D20*
X12458750Y-7089999D03*
X12641250Y-7089999D03*
D31*
X10447072Y-26599999D03*
X10619572Y-26599999D03*
D20*
X8995550Y-1512200D03*
X9178050Y-1512200D03*
D13*
X5462500Y-6289999D03*
X5637500Y-6289999D03*
D20*
X6017572Y-26599999D03*
X6200072Y-26599999D03*
D13*
X5336322Y-24629999D03*
X5511322Y-24629999D03*
D12*
X1226322Y-27004999D03*
X2021322Y-27004999D03*
X1226322Y-27454999D03*
X2021322Y-27454999D03*
D34*
X7365000Y-8969999D03*
X7430000Y-8969999D03*
X7495000Y-8969999D03*
X7560000Y-8969999D03*
X7625000Y-8969999D03*
X7690000Y-8969999D03*
X7755000Y-8969999D03*
X7820000Y-8969999D03*
X7885000Y-8969999D03*
X7950000Y-8969999D03*
X7950000Y-8389999D03*
X7885000Y-8389999D03*
X7820000Y-8389999D03*
X7755000Y-8389999D03*
X7690000Y-8389999D03*
X7625000Y-8389999D03*
X7560000Y-8389999D03*
X7495000Y-8389999D03*
X7430000Y-8389999D03*
X7365000Y-8389999D03*
D23*
X11190000Y-17452499D03*
X11190000Y-17634999D03*
D12*
X12802500Y-19654999D03*
X13597500Y-19654999D03*
X12802500Y-20104999D03*
X13597500Y-20104999D03*
D14*
X10067500Y-18922499D03*
X10067500Y-19097499D03*
D12*
X11552500Y-2545000D03*
X12347500Y-2545000D03*
X11552500Y-2995000D03*
X12347500Y-2995000D03*
D23*
X5328822Y-24786249D03*
X5328822Y-24968749D03*
D28*
X9290000Y-6512499D03*
X9290000Y-6329999D03*
D12*
X12802500Y-22154999D03*
X13597500Y-22154999D03*
X12802500Y-22604999D03*
X13597500Y-22604999D03*
D14*
X10101322Y-25022499D03*
X10101322Y-25197499D03*
D28*
X8290000Y-21409999D03*
X8290000Y-21227499D03*
D16*
X10567000Y-15247999D03*
X10567000Y-14485999D03*
D28*
X9440000Y-392500D03*
X9440000Y-210000D03*
D33*
X9567500Y-22942999D03*
X9957500Y-22942999D03*
X9567500Y-23069999D03*
X9957500Y-23069999D03*
X9567500Y-23196999D03*
X9957500Y-23196999D03*
X9567500Y-23323999D03*
X9957500Y-23323999D03*
X9567500Y-23450999D03*
X9957500Y-23450999D03*
X9567500Y-23577999D03*
X9957500Y-23577999D03*
X9567500Y-23704999D03*
X9957500Y-23704999D03*
D18*
X9178050Y-13599799D03*
X8995550Y-13599799D03*
D28*
X10190000Y-12632499D03*
X10190000Y-12449999D03*
D26*
X8143822Y-24735999D03*
D27*
X8397822Y-24735999D03*
X8143822Y-24989999D03*
X8397822Y-24989999D03*
X8143822Y-25243999D03*
X8397822Y-25243999D03*
X8143822Y-25497999D03*
X8397822Y-25497999D03*
D13*
X5112500Y-18529999D03*
X5287500Y-18529999D03*
D18*
X8696072Y-26089999D03*
X8513572Y-26089999D03*
D19*
X11338750Y-13412499D03*
X11338750Y-13477499D03*
X11338750Y-13542499D03*
X11338750Y-13607499D03*
X11761250Y-13607499D03*
X11761250Y-13542499D03*
X11761250Y-13477499D03*
X11761250Y-13412499D03*
D23*
X11190000Y-23572499D03*
X11190000Y-23754999D03*
D12*
X1352500Y-2545000D03*
X2147500Y-2545000D03*
X1352500Y-2995000D03*
X2147500Y-2995000D03*
D21*
X14350000Y-19129999D03*
D14*
X9582500Y-565000D03*
X9582500Y-740000D03*
X9907500Y-18922499D03*
X9907500Y-19097499D03*
D13*
X11488500Y-7809999D03*
X11663500Y-7809999D03*
D32*
X13741275Y-27884999D03*
X13568775Y-27884999D03*
D21*
X15223822Y-27229999D03*
D34*
X7365000Y-21209999D03*
X7430000Y-21209999D03*
X7495000Y-21209999D03*
X7560000Y-21209999D03*
X7625000Y-21209999D03*
X7690000Y-21209999D03*
X7755000Y-21209999D03*
X7820000Y-21209999D03*
X7885000Y-21209999D03*
X7950000Y-21209999D03*
X7950000Y-20629999D03*
X7885000Y-20629999D03*
X7820000Y-20629999D03*
X7755000Y-20629999D03*
X7690000Y-20629999D03*
X7625000Y-20629999D03*
X7560000Y-20629999D03*
X7495000Y-20629999D03*
X7430000Y-20629999D03*
X7365000Y-20629999D03*
D28*
X10513822Y-24852499D03*
X10513822Y-24669999D03*
D17*
X11155000Y-7593749D03*
X11155000Y-7766249D03*
D28*
X10640000Y-12632499D03*
X10640000Y-12449999D03*
X10040000Y-18752499D03*
X10040000Y-18569999D03*
D13*
X4636322Y-24629999D03*
X4811322Y-24629999D03*
D17*
X6954022Y-28883149D03*
X6954022Y-29055649D03*
D23*
X5683822Y-24781249D03*
X5683822Y-24963749D03*
D20*
X8995550Y-13752199D03*
X9178050Y-13752199D03*
D14*
X10227500Y-6682499D03*
X10227500Y-6857499D03*
D28*
X9590000Y-12632499D03*
X9590000Y-12449999D03*
D12*
X2476322Y-28174999D03*
X3271322Y-28174999D03*
X2476322Y-28624999D03*
X3271322Y-28624999D03*
D20*
X6978750Y-17869999D03*
X7161250Y-17869999D03*
D28*
X10340000Y-12632499D03*
X10340000Y-12449999D03*
D15*
X7080200Y-22955649D03*
X7080200Y-22783149D03*
D28*
X9763822Y-24852499D03*
X9763822Y-24669999D03*
D35*
X11690000Y-23269999D03*
D36*
X11690000Y-23519999D03*
D35*
X11651322Y-29369999D03*
D36*
X11651322Y-29619999D03*
D35*
X11690000Y-17149999D03*
D36*
X11690000Y-17399999D03*
D35*
X11690000Y-4910000D03*
D36*
X11690000Y-5160000D03*
D35*
X11690000Y-11029999D03*
D36*
X11690000Y-11279999D03*
M02*
