%TF.GenerationSoftware,KiCad,Pcbnew,7.0.6-7.0.6~ubuntu20.04.1*%
%TF.CreationDate,2023-07-11T10:17:37+02:00*%
%TF.ProjectId,output_panel2023-07-11_081728.4517270000,6f757470-7574-45f7-9061-6e656c323032,rev?*%
%TF.SameCoordinates,Original*%
%TF.FileFunction,Copper,L2,Bot*%
%TF.FilePolarity,Positive*%
%FSLAX45Y45*%
G04 Gerber Fmt 4.5, Leading zero omitted, Abs format (unit mm)*
G04 Created by KiCad (PCBNEW 7.0.6-7.0.6~ubuntu20.04.1) date 2023-07-11 10:17:37*
%MOMM*%
%LPD*%
G01*
G04 APERTURE LIST*
G04 Aperture macros list*
%AMRoundRect*
0 Rectangle with rounded corners*
0 $1 Rounding radius*
0 $2 $3 $4 $5 $6 $7 $8 $9 X,Y pos of 4 corners*
0 Add a 4 corners polygon primitive as box body*
4,1,4,$2,$3,$4,$5,$6,$7,$8,$9,$2,$3,0*
0 Add four circle primitives for the rounded corners*
1,1,$1+$1,$2,$3*
1,1,$1+$1,$4,$5*
1,1,$1+$1,$6,$7*
1,1,$1+$1,$8,$9*
0 Add four rect primitives between the rounded corners*
20,1,$1+$1,$2,$3,$4,$5,0*
20,1,$1+$1,$4,$5,$6,$7,0*
20,1,$1+$1,$6,$7,$8,$9,0*
20,1,$1+$1,$8,$9,$2,$3,0*%
G04 Aperture macros list end*
%TA.AperFunction,Profile*%
%ADD10C,0.100000*%
%TD*%
%TA.AperFunction,ComponentPad*%
%ADD11C,5.600000*%
%TD*%
%TA.AperFunction,ComponentPad*%
%ADD12RoundRect,0.250000X0.600000X0.725000X-0.600000X0.725000X-0.600000X-0.725000X0.600000X-0.725000X0*%
%TD*%
%TA.AperFunction,ComponentPad*%
%ADD13O,1.700000X1.950000*%
%TD*%
%TA.AperFunction,ComponentPad*%
%ADD14R,1.700000X1.700000*%
%TD*%
%TA.AperFunction,ComponentPad*%
%ADD15O,1.700000X1.700000*%
%TD*%
%TA.AperFunction,ComponentPad*%
%ADD16RoundRect,0.250000X-0.750000X0.600000X-0.750000X-0.600000X0.750000X-0.600000X0.750000X0.600000X0*%
%TD*%
%TA.AperFunction,ComponentPad*%
%ADD17O,2.000000X1.700000*%
%TD*%
%TA.AperFunction,SMDPad,CuDef*%
%ADD18RoundRect,0.237500X-0.237500X0.300000X-0.237500X-0.300000X0.237500X-0.300000X0.237500X0.300000X0*%
%TD*%
%TA.AperFunction,ViaPad*%
%ADD19C,0.800000*%
%TD*%
%TA.AperFunction,Conductor*%
%ADD20C,0.250000*%
%TD*%
G04 APERTURE END LIST*
D10*
X1850000Y-6070000D02*
X50000Y-4670000D01*
X14250000Y-6070000D02*
X1850000Y-6070000D01*
X16050000Y-4670000D02*
X14250000Y-6070000D01*
X14270000Y-90000D02*
X16070000Y-1480000D01*
X16070000Y-1480000D02*
X16050000Y-4670000D01*
X50000Y-4670000D02*
X50000Y-1450000D01*
X50000Y-1450000D02*
X1850000Y-50000D01*
X1850000Y-50000D02*
X14270000Y-90000D01*
D11*
X14350000Y-4970000D03*
X15350000Y-2770000D03*
X1850000Y-4970000D03*
D12*
X12740400Y-496200D03*
D13*
X12490400Y-496200D03*
X12240400Y-496200D03*
D14*
X8270000Y-276000D03*
D15*
X8524000Y-276000D03*
X8270000Y-530000D03*
X8524000Y-530000D03*
X8270000Y-784000D03*
X8524000Y-784000D03*
X8270000Y-1038000D03*
X8524000Y-1038000D03*
D11*
X1850000Y-770000D03*
X850000Y-2770000D03*
D12*
X3825000Y-472500D03*
D13*
X3575000Y-472500D03*
X3325000Y-472500D03*
D11*
X14350000Y-770000D03*
D16*
X11690000Y-4910000D03*
D17*
X11690000Y-5160000D03*
D18*
X7890000Y-170000D03*
X7890000Y-342500D03*
D19*
X7714770Y-3797770D03*
X8832800Y-4077600D03*
X8299400Y-1740800D03*
X15411400Y-1766200D03*
X7770000Y-3250000D03*
X4387800Y-826400D03*
X10458400Y-1359800D03*
X3194000Y-2934600D03*
X8756600Y-978800D03*
X476200Y-3442600D03*
X654000Y-1918600D03*
X7613600Y-1055000D03*
X6470600Y-4331600D03*
X9163000Y-4179200D03*
X4006800Y-4103000D03*
X11982400Y-1055000D03*
X8324800Y-2680600D03*
X8731200Y-2680600D03*
X15538400Y-3442600D03*
X8985200Y-1867800D03*
X12109400Y-3925200D03*
X6165800Y-699400D03*
X7689800Y-1817000D03*
X7350000Y-4090000D03*
X13100000Y-2858400D03*
X8810000Y-3490000D03*
X3905200Y-5474600D03*
X10687000Y-1055000D03*
X5429200Y-5525400D03*
X8375600Y-5652400D03*
X984200Y-1055000D03*
X10712400Y-3671200D03*
X8045400Y-3163200D03*
X9620200Y-3696600D03*
X8310000Y-3410000D03*
X9730000Y-2830000D03*
X5429200Y-801000D03*
X10410000Y-2390000D03*
X7689800Y-2299600D03*
X14014400Y-369200D03*
X11118800Y-3747400D03*
X10179000Y-1385200D03*
X5870000Y-630000D03*
X15386000Y-4280800D03*
X5073600Y-826400D03*
X8807400Y-4433200D03*
X12312600Y-1207400D03*
X8147000Y-4814200D03*
X15005000Y-1232800D03*
X8909000Y-2960000D03*
X5683200Y-750200D03*
X8147000Y-2325000D03*
X11042600Y-4839600D03*
X11703000Y-5677800D03*
X13277800Y-5627000D03*
X704800Y-4357000D03*
X10001200Y-2223400D03*
X8807400Y-1842400D03*
X4895800Y-3849000D03*
X7283400Y-4788800D03*
X7969200Y-877200D03*
X3194000Y-3315600D03*
X10585400Y-3341000D03*
X11390000Y-4610000D03*
X12617400Y-775600D03*
X11170000Y-2530000D03*
X8350200Y-3264800D03*
X9569400Y-1944000D03*
X7715200Y-3899800D03*
X11050000Y-2090000D03*
X6927800Y-1105800D03*
X9188400Y-1740800D03*
X10639450Y-1791600D03*
X9330000Y-1250000D03*
X8629600Y-3264800D03*
X9366200Y-4722150D03*
X9061400Y-851800D03*
X9797570Y-1563430D03*
X9899170Y-1538030D03*
X9188400Y-851800D03*
X9315400Y-851800D03*
X10013470Y-1525330D03*
X10179000Y-1588400D03*
X9442400Y-851800D03*
X10179000Y-4712600D03*
X7461200Y-3696600D03*
X7365493Y-3729092D03*
X10179000Y-4839600D03*
X7512000Y-4534800D03*
X10153600Y-5220600D03*
X7300000Y-3000000D03*
X7150000Y-3150000D03*
X8554260Y-4280800D03*
X8375600Y-4484000D03*
X8324230Y-3848430D03*
X8614250Y-3849000D03*
X8629600Y-3518800D03*
X8070000Y-2890000D03*
X6369000Y-3899800D03*
X7334200Y-4585600D03*
X6880750Y-3569600D03*
X9442400Y-1388950D03*
X9090355Y-3722000D03*
X8458764Y-4539442D03*
X9544000Y-1461400D03*
X6953200Y-3468000D03*
X7890000Y-1930000D03*
X8370000Y-1490000D03*
X6850000Y-2990000D03*
X8030000Y-2090000D03*
X8379350Y-3747400D03*
X9650000Y-3070000D03*
X10250000Y-3070000D03*
X8945405Y-3732145D03*
X8350200Y-4382400D03*
X8807400Y-3192350D03*
X7512000Y-1613800D03*
X8673550Y-2318150D03*
X8528000Y-2325000D03*
X8401000Y-2325000D03*
X7487550Y-2990000D03*
X7757550Y-3398457D03*
X7550000Y-3130000D03*
X7390000Y-3390000D03*
X7130000Y-3590000D03*
D20*
X8832800Y-4077600D02*
X8147000Y-4077600D01*
X7867170Y-3797770D02*
X7714770Y-3797770D01*
X8147000Y-4077600D02*
X7867170Y-3797770D01*
X7890000Y-342500D02*
X7956500Y-276000D01*
X7956500Y-276000D02*
X8270000Y-276000D01*
X11390000Y-4145600D02*
X11390000Y-4610000D01*
X10890200Y-3645800D02*
X10585400Y-3341000D01*
X10890200Y-3645800D02*
X11390000Y-4145600D01*
X12364330Y-775600D02*
X11348330Y-1791600D01*
X5203231Y-472500D02*
X5836530Y-1105800D01*
X7875100Y-158500D02*
X8406500Y-158500D01*
X6927800Y-1105800D02*
X7875100Y-158500D01*
X3825000Y-472500D02*
X5203231Y-472500D01*
X8790000Y-830000D02*
X8870000Y-910000D01*
X9188400Y-1081330D02*
X9188400Y-1740800D01*
X10543650Y-1695800D02*
X9817600Y-1695800D01*
X8524000Y-276000D02*
X8790000Y-542000D01*
X8870000Y-910000D02*
X9017070Y-910000D01*
X11050000Y-2090000D02*
X11170000Y-2210000D01*
X7727440Y-3963760D02*
X7727440Y-3912039D01*
X11348330Y-1791600D02*
X10639450Y-1791600D01*
X9817600Y-1695800D02*
X9569400Y-1944000D01*
X10639450Y-1791600D02*
X10543650Y-1695800D01*
X8481600Y-318400D02*
X8524000Y-276000D01*
X8406500Y-158500D02*
X8524000Y-276000D01*
X9338750Y-4749600D02*
X8553400Y-4749600D01*
X9188400Y-1108400D02*
X9330000Y-1250000D01*
X8790000Y-542000D02*
X8790000Y-830000D01*
X8553400Y-4749600D02*
X8513280Y-4749600D01*
X8513280Y-4749600D02*
X7727440Y-3963760D01*
X9188400Y-1081330D02*
X9188400Y-1108400D01*
X5836530Y-1105800D02*
X6927800Y-1105800D01*
X9017070Y-910000D02*
X9188400Y-1081330D01*
X7727440Y-3912039D02*
X7715200Y-3899800D01*
X11170000Y-2210000D02*
X11170000Y-2530000D01*
X8629600Y-3264800D02*
X8350200Y-3264800D01*
X12617400Y-775600D02*
X12364330Y-775600D01*
X9366200Y-4722150D02*
X9338750Y-4749600D01*
X9221730Y-924300D02*
X9266730Y-969300D01*
X9061400Y-851800D02*
X9115900Y-851800D01*
X9115900Y-881830D02*
X9158370Y-924300D01*
X9115900Y-851800D02*
X9115900Y-881830D01*
X9266730Y-969300D02*
X9305621Y-969300D01*
X9158370Y-924300D02*
X9221730Y-924300D01*
X9305621Y-969300D02*
X9797570Y-1461249D01*
X9797570Y-1461249D02*
X9797570Y-1563430D01*
X9285370Y-924300D02*
X9324260Y-924300D01*
X9324260Y-924300D02*
X9899170Y-1499209D01*
X9242900Y-881830D02*
X9285370Y-924300D01*
X9899170Y-1499209D02*
X9899170Y-1538030D01*
X9242900Y-851800D02*
X9242900Y-881830D01*
X9188400Y-851800D02*
X9242900Y-851800D01*
X9988930Y-1525330D02*
X9315400Y-851800D01*
X10013470Y-1525330D02*
X9988930Y-1525330D01*
X9442400Y-915160D02*
X9980070Y-1452830D01*
X10043430Y-1452830D02*
X10179000Y-1588400D01*
X9980070Y-1452830D02*
X10043430Y-1452830D01*
X9442400Y-851800D02*
X9442400Y-915160D01*
X9823400Y-4794600D02*
X10057800Y-4794600D01*
X7568620Y-3868580D02*
X8470320Y-4770280D01*
X7461200Y-3761160D02*
X7568620Y-3868580D01*
X10057800Y-4794600D02*
X10077400Y-4794600D01*
X10077400Y-4794600D02*
X10097000Y-4794600D01*
X8494640Y-4794600D02*
X9823400Y-4794600D01*
X10097000Y-4794600D02*
X10179000Y-4712600D01*
X8470320Y-4770280D02*
X8494640Y-4794600D01*
X7461200Y-3696600D02*
X7461200Y-3761160D01*
X8476001Y-4839600D02*
X10179000Y-4839600D01*
X7365493Y-3729092D02*
X8476001Y-4839600D01*
X9036000Y-4884600D02*
X9817600Y-4884600D01*
X8457361Y-4884600D02*
X9036000Y-4884600D01*
X7512000Y-4534800D02*
X8107561Y-4534800D01*
X9817600Y-4884600D02*
X10153600Y-5220600D01*
X8165380Y-4592619D02*
X8457361Y-4884600D01*
X8107561Y-4534800D02*
X8165380Y-4592619D01*
X7150000Y-3150000D02*
X7300000Y-3000000D01*
X8554260Y-4280800D02*
X8554260Y-4322409D01*
X8554260Y-4322409D02*
X8370969Y-4505700D01*
X8324230Y-3848430D02*
X8613681Y-3848430D01*
X8613681Y-3848430D02*
X8614250Y-3849000D01*
X8382500Y-3390000D02*
X8382500Y-3379969D01*
X8629600Y-3518800D02*
X8500800Y-3390000D01*
X8277700Y-3294830D02*
X8277700Y-3275169D01*
X8101265Y-3098734D02*
X8092530Y-3090000D01*
X8277700Y-3275169D02*
X8101265Y-3098734D01*
X8382500Y-3379969D02*
X8339830Y-3337300D01*
X8101265Y-3098734D02*
X8070000Y-3067469D01*
X8070000Y-3067469D02*
X8070000Y-2890000D01*
X8339830Y-3337300D02*
X8320169Y-3337300D01*
X8500800Y-3390000D02*
X8382500Y-3390000D01*
X8320169Y-3337300D02*
X8277700Y-3294830D01*
X6648400Y-3899800D02*
X6369000Y-3899800D01*
X7334200Y-4585600D02*
X6648400Y-3899800D01*
X6880750Y-3569600D02*
X6880750Y-3437919D01*
X9442400Y-1651760D02*
X9442400Y-1388950D01*
X7518560Y-2457800D02*
X8636360Y-2457800D01*
X6880750Y-3437919D02*
X6985000Y-3333669D01*
X6985000Y-3333669D02*
X6985000Y-2991360D01*
X6985000Y-2991360D02*
X7518560Y-2457800D01*
X8636360Y-2457800D02*
X9442400Y-1651760D01*
X8458764Y-4539442D02*
X8537128Y-4539442D01*
X9090355Y-3986215D02*
X9090355Y-3722000D01*
X8537128Y-4539442D02*
X9090355Y-3986215D01*
X8655000Y-2502800D02*
X9544000Y-1613800D01*
X9544000Y-1613800D02*
X9544000Y-1461400D01*
X6953200Y-3468000D02*
X7030000Y-3391200D01*
X7537200Y-2502800D02*
X8655000Y-2502800D01*
X7030000Y-3391200D02*
X7030000Y-3010000D01*
X7030000Y-3010000D02*
X7537200Y-2502800D01*
X7890000Y-1930000D02*
X8330000Y-1490000D01*
X8330000Y-1490000D02*
X8370000Y-1490000D01*
X7210000Y-2310000D02*
X7350000Y-2170000D01*
X7350000Y-2170000D02*
X7370000Y-2170000D01*
X6850000Y-2990000D02*
X7210000Y-2630000D01*
X7210000Y-2630000D02*
X7210000Y-2310000D01*
X7370000Y-2170000D02*
X7950000Y-2170000D01*
X7950000Y-2170000D02*
X8030000Y-2090000D01*
X8379350Y-3747400D02*
X8930150Y-3747400D01*
X8930150Y-3747400D02*
X8945405Y-3732145D01*
X9650000Y-3070000D02*
X10250000Y-3070000D01*
X8350200Y-4382400D02*
X8582500Y-4150100D01*
X8582500Y-4150100D02*
X8862831Y-4150100D01*
X9017905Y-3402855D02*
X8807400Y-3192350D01*
X8862831Y-4150100D02*
X9017905Y-3995025D01*
X9017905Y-3995025D02*
X9017905Y-3402855D01*
X7512000Y-928000D02*
X7770000Y-670000D01*
X7770000Y-670000D02*
X8130000Y-670000D01*
X7512000Y-1613800D02*
X7512000Y-928000D01*
X8130000Y-670000D02*
X8270000Y-530000D01*
X8572670Y-666500D02*
X8387500Y-666500D01*
X8387500Y-666500D02*
X8270000Y-784000D01*
X8673550Y-2318150D02*
X8595000Y-2239600D01*
X8595000Y-2239600D02*
X8595000Y-1250000D01*
X8641500Y-1203500D02*
X8641500Y-735330D01*
X8641500Y-735330D02*
X8572670Y-666500D01*
X8595000Y-1250000D02*
X8641500Y-1203500D01*
X8455500Y-2397500D02*
X8370969Y-2397500D01*
X8370969Y-2397500D02*
X8324800Y-2351330D01*
X8324800Y-2351330D02*
X8324800Y-2298669D01*
X8502600Y-2120869D02*
X8502600Y-1270600D01*
X8324800Y-2298669D02*
X8502600Y-2120869D01*
X8502600Y-1270600D02*
X8270000Y-1038000D01*
X8528000Y-2325000D02*
X8455500Y-2397500D01*
X8550000Y-1230000D02*
X8550000Y-2176000D01*
X8550000Y-1230000D02*
X8549830Y-1230000D01*
X8406500Y-901500D02*
X8524000Y-784000D01*
X8549830Y-1230000D02*
X8406500Y-1086670D01*
X8550000Y-2176000D02*
X8401000Y-2325000D01*
X8406500Y-1086670D02*
X8406500Y-901500D01*
X7757550Y-3398457D02*
X7650000Y-3290907D01*
X7650000Y-3290907D02*
X7650000Y-3127469D01*
X7650000Y-3127469D02*
X7512530Y-2990000D01*
X7512530Y-2990000D02*
X7487550Y-2990000D01*
X7390000Y-3290000D02*
X7390000Y-3390000D01*
X7550000Y-3130000D02*
X7390000Y-3290000D01*
X5550000Y-3390000D02*
X5850000Y-3690000D01*
X7821500Y-438500D02*
X6510000Y-1750000D01*
X7030000Y-3690000D02*
X7130000Y-3590000D01*
X5550000Y-1970000D02*
X5550000Y-3390000D01*
X7821500Y-438500D02*
X7847500Y-412500D01*
X6510000Y-1750000D02*
X5770000Y-1750000D01*
X5850000Y-3690000D02*
X7030000Y-3690000D01*
X5770000Y-1750000D02*
X5550000Y-1970000D01*
X7847500Y-412500D02*
X8406500Y-412500D01*
X8406500Y-412500D02*
X8524000Y-530000D01*
%TA.AperFunction,Conductor*%
G36*
X7802763Y-69221D02*
G01*
X7808381Y-70587D01*
X7812769Y-74352D01*
X7814973Y-79697D01*
X7814514Y-85460D01*
X7811492Y-90389D01*
X7808477Y-93403D01*
X7808477Y-93404D01*
X7807966Y-93915D01*
X7807587Y-94529D01*
X7807587Y-94530D01*
X7804287Y-99880D01*
X7798909Y-108598D01*
X7798682Y-109283D01*
X7798682Y-109283D01*
X7795690Y-118312D01*
X7793483Y-124974D01*
X7793414Y-125647D01*
X7793414Y-125648D01*
X7792482Y-134769D01*
X7792482Y-134771D01*
X7792450Y-135082D01*
X7792450Y-135397D01*
X7792450Y-147554D01*
X7791506Y-152300D01*
X7788818Y-156323D01*
X6933023Y-1012118D01*
X6929000Y-1014806D01*
X6924255Y-1015750D01*
X6918335Y-1015750D01*
X6917699Y-1015885D01*
X6917699Y-1015885D01*
X6900456Y-1019550D01*
X6900455Y-1019550D01*
X6899820Y-1019685D01*
X6899226Y-1019949D01*
X6899225Y-1019950D01*
X6883121Y-1027120D01*
X6883120Y-1027120D01*
X6882527Y-1027385D01*
X6882002Y-1027766D01*
X6882001Y-1027767D01*
X6867739Y-1038129D01*
X6867738Y-1038129D01*
X6867213Y-1038511D01*
X6866778Y-1038994D01*
X6866778Y-1038994D01*
X6866640Y-1039147D01*
X6866473Y-1039269D01*
X6866295Y-1039429D01*
X6866278Y-1039410D01*
X6862468Y-1042178D01*
X6857425Y-1043250D01*
X5867576Y-1043250D01*
X5862830Y-1042306D01*
X5858808Y-1039618D01*
X5252959Y-433769D01*
X5252215Y-432951D01*
X5251809Y-432312D01*
X5246908Y-427709D01*
X5246628Y-427438D01*
X5244953Y-425763D01*
X5244953Y-425763D01*
X5244678Y-425488D01*
X5244360Y-425241D01*
X5243472Y-424483D01*
X5240857Y-422027D01*
X5240857Y-422027D01*
X5240289Y-421493D01*
X5239605Y-421118D01*
X5239605Y-421117D01*
X5238533Y-420528D01*
X5236907Y-419460D01*
X5235940Y-418710D01*
X5235940Y-418710D01*
X5235324Y-418232D01*
X5234608Y-417923D01*
X5234608Y-417922D01*
X5231315Y-416497D01*
X5230267Y-415984D01*
X5227124Y-414256D01*
X5227123Y-414255D01*
X5226440Y-413880D01*
X5225684Y-413686D01*
X5225684Y-413686D01*
X5224499Y-413382D01*
X5222659Y-412752D01*
X5221536Y-412266D01*
X5221536Y-412265D01*
X5220820Y-411956D01*
X5220050Y-411834D01*
X5220050Y-411834D01*
X5216506Y-411273D01*
X5215363Y-411036D01*
X5211888Y-410143D01*
X5211887Y-410143D01*
X5211132Y-409950D01*
X5210353Y-409950D01*
X5209129Y-409950D01*
X5207190Y-409797D01*
X5205211Y-409484D01*
X5204434Y-409557D01*
X5204434Y-409557D01*
X5200863Y-409895D01*
X5199696Y-409950D01*
X3972450Y-409950D01*
X3966250Y-408288D01*
X3961711Y-403750D01*
X3960050Y-397550D01*
X3960050Y-395314D01*
X3960050Y-394999D01*
X3959000Y-384720D01*
X3953481Y-368066D01*
X3946134Y-356154D01*
X3944650Y-353748D01*
X3944650Y-353748D01*
X3944271Y-353134D01*
X3931866Y-340729D01*
X3931251Y-340350D01*
X3931251Y-340349D01*
X3917548Y-331897D01*
X3916933Y-331518D01*
X3907411Y-328363D01*
X3900922Y-326213D01*
X3900922Y-326213D01*
X3900280Y-326000D01*
X3899606Y-325931D01*
X3899606Y-325931D01*
X3890314Y-324982D01*
X3890312Y-324982D01*
X3890001Y-324950D01*
X3889686Y-324950D01*
X3760314Y-324950D01*
X3760312Y-324950D01*
X3759999Y-324950D01*
X3759686Y-324982D01*
X3759686Y-324982D01*
X3750394Y-325931D01*
X3750393Y-325931D01*
X3749720Y-326000D01*
X3749078Y-326213D01*
X3749078Y-326213D01*
X3733752Y-331291D01*
X3733752Y-331291D01*
X3733067Y-331518D01*
X3732452Y-331897D01*
X3732452Y-331897D01*
X3718749Y-340349D01*
X3718748Y-340350D01*
X3718134Y-340729D01*
X3717624Y-341239D01*
X3717624Y-341239D01*
X3706239Y-352623D01*
X3706239Y-352624D01*
X3705729Y-353134D01*
X3705350Y-353748D01*
X3705350Y-353748D01*
X3696519Y-368066D01*
X3696441Y-368018D01*
X3693210Y-372044D01*
X3687815Y-374418D01*
X3681933Y-374032D01*
X3676894Y-370974D01*
X3662491Y-356572D01*
X3661664Y-355878D01*
X3643201Y-342950D01*
X3642268Y-342411D01*
X3621840Y-332885D01*
X3620826Y-332517D01*
X3601378Y-327305D01*
X3600255Y-327269D01*
X3600000Y-328363D01*
X3600000Y-616637D01*
X3600255Y-617731D01*
X3601378Y-617694D01*
X3620826Y-612483D01*
X3621840Y-612114D01*
X3642267Y-602589D01*
X3643202Y-602049D01*
X3661664Y-589121D01*
X3662490Y-588428D01*
X3676893Y-574025D01*
X3681933Y-570967D01*
X3687815Y-570581D01*
X3693210Y-572955D01*
X3696441Y-576981D01*
X3696519Y-576933D01*
X3705350Y-591251D01*
X3705350Y-591251D01*
X3705729Y-591865D01*
X3718134Y-604271D01*
X3718748Y-604650D01*
X3718749Y-604650D01*
X3723288Y-607450D01*
X3733067Y-613481D01*
X3749720Y-619000D01*
X3759999Y-620050D01*
X3890001Y-620050D01*
X3900280Y-619000D01*
X3916933Y-613481D01*
X3931866Y-604271D01*
X3944271Y-591865D01*
X3953481Y-576933D01*
X3959000Y-560279D01*
X3960050Y-550001D01*
X3960050Y-547450D01*
X3961711Y-541250D01*
X3966250Y-536711D01*
X3972450Y-535050D01*
X5172185Y-535050D01*
X5176931Y-535994D01*
X5180953Y-538682D01*
X5484053Y-841782D01*
X5786801Y-1144530D01*
X5787546Y-1145348D01*
X5787952Y-1145987D01*
X5792853Y-1150590D01*
X5793132Y-1150861D01*
X5795083Y-1152812D01*
X5795401Y-1153058D01*
X5796288Y-1153815D01*
X5797632Y-1155078D01*
X5798904Y-1156272D01*
X5798904Y-1156272D01*
X5799472Y-1156806D01*
X5800156Y-1157182D01*
X5800156Y-1157182D01*
X5801228Y-1157771D01*
X5802854Y-1158839D01*
X5804437Y-1160067D01*
X5808446Y-1161802D01*
X5809494Y-1162315D01*
X5813321Y-1164419D01*
X5815262Y-1164918D01*
X5817102Y-1165548D01*
X5818225Y-1166034D01*
X5818225Y-1166034D01*
X5818941Y-1166343D01*
X5823256Y-1167027D01*
X5824395Y-1167263D01*
X5828629Y-1168350D01*
X5830632Y-1168350D01*
X5832572Y-1168502D01*
X5834550Y-1168816D01*
X5838898Y-1168405D01*
X5840065Y-1168350D01*
X6857425Y-1168350D01*
X6862468Y-1169422D01*
X6866278Y-1172189D01*
X6866295Y-1172171D01*
X6866473Y-1172331D01*
X6866640Y-1172452D01*
X6867213Y-1173089D01*
X6882527Y-1184215D01*
X6899820Y-1191914D01*
X6918335Y-1195850D01*
X6936614Y-1195850D01*
X6937265Y-1195850D01*
X6945117Y-1194181D01*
X6951403Y-1194477D01*
X6956734Y-1197821D01*
X6959737Y-1203352D01*
X6959638Y-1209644D01*
X6956463Y-1215078D01*
X6487723Y-1683818D01*
X6483700Y-1686506D01*
X6478955Y-1687450D01*
X5777777Y-1687450D01*
X5776672Y-1687397D01*
X5775933Y-1687232D01*
X5775154Y-1687257D01*
X5775154Y-1687257D01*
X5769213Y-1687444D01*
X5768823Y-1687450D01*
X5766065Y-1687450D01*
X5765680Y-1687498D01*
X5765678Y-1687498D01*
X5765665Y-1687500D01*
X5764503Y-1687591D01*
X5760917Y-1687704D01*
X5760916Y-1687704D01*
X5760137Y-1687729D01*
X5759389Y-1687946D01*
X5759387Y-1687946D01*
X5758213Y-1688288D01*
X5756308Y-1688682D01*
X5755095Y-1688835D01*
X5755095Y-1688835D01*
X5754321Y-1688933D01*
X5753596Y-1689220D01*
X5753595Y-1689220D01*
X5750260Y-1690541D01*
X5749155Y-1690919D01*
X5745710Y-1691920D01*
X5745709Y-1691920D01*
X5744961Y-1692138D01*
X5744290Y-1692535D01*
X5744290Y-1692535D01*
X5743236Y-1693158D01*
X5741490Y-1694013D01*
X5740352Y-1694464D01*
X5740351Y-1694464D01*
X5739627Y-1694751D01*
X5738996Y-1695209D01*
X5738995Y-1695210D01*
X5736093Y-1697318D01*
X5735117Y-1697959D01*
X5732030Y-1699785D01*
X5732029Y-1699786D01*
X5731358Y-1700183D01*
X5730807Y-1700734D01*
X5730806Y-1700734D01*
X5729941Y-1701599D01*
X5728463Y-1702862D01*
X5727473Y-1703581D01*
X5727472Y-1703582D01*
X5726841Y-1704040D01*
X5726344Y-1704641D01*
X5726344Y-1704641D01*
X5724057Y-1707406D01*
X5723271Y-1708269D01*
X5511270Y-1920271D01*
X5510451Y-1921016D01*
X5509812Y-1921421D01*
X5509279Y-1921989D01*
X5509278Y-1921990D01*
X5505210Y-1926322D01*
X5504939Y-1926601D01*
X5503263Y-1928278D01*
X5503262Y-1928278D01*
X5502988Y-1928553D01*
X5502750Y-1928859D01*
X5502749Y-1928861D01*
X5502740Y-1928872D01*
X5501984Y-1929757D01*
X5499528Y-1932372D01*
X5499527Y-1932373D01*
X5498994Y-1932941D01*
X5498618Y-1933625D01*
X5498618Y-1933625D01*
X5498029Y-1934697D01*
X5496961Y-1936322D01*
X5496211Y-1937289D01*
X5496210Y-1937290D01*
X5495733Y-1937906D01*
X5495423Y-1938620D01*
X5495423Y-1938622D01*
X5493997Y-1941916D01*
X5493484Y-1942964D01*
X5491796Y-1946034D01*
X5491380Y-1946790D01*
X5491186Y-1947545D01*
X5491186Y-1947546D01*
X5490882Y-1948730D01*
X5490252Y-1950571D01*
X5489766Y-1951694D01*
X5489766Y-1951695D01*
X5489456Y-1952410D01*
X5489334Y-1953180D01*
X5489334Y-1953180D01*
X5488773Y-1956724D01*
X5488536Y-1957867D01*
X5487644Y-1961342D01*
X5487644Y-1961343D01*
X5487450Y-1962098D01*
X5487450Y-1962877D01*
X5487450Y-1964101D01*
X5487297Y-1966040D01*
X5486984Y-1968019D01*
X5487057Y-1968796D01*
X5487057Y-1968796D01*
X5487395Y-1972367D01*
X5487450Y-1973534D01*
X5487450Y-3382222D01*
X5487398Y-3383328D01*
X5487233Y-3384066D01*
X5487257Y-3384845D01*
X5487257Y-3384846D01*
X5487444Y-3390787D01*
X5487450Y-3391176D01*
X5487450Y-3393935D01*
X5487499Y-3394322D01*
X5487499Y-3394322D01*
X5487500Y-3394334D01*
X5487592Y-3395496D01*
X5487705Y-3399083D01*
X5487705Y-3399083D01*
X5487729Y-3399862D01*
X5487947Y-3400612D01*
X5487947Y-3400612D01*
X5488288Y-3401786D01*
X5488683Y-3403691D01*
X5488782Y-3404476D01*
X5488934Y-3405679D01*
X5489221Y-3406404D01*
X5489221Y-3406404D01*
X5490541Y-3409740D01*
X5490920Y-3410845D01*
X5491023Y-3411199D01*
X5492138Y-3415039D01*
X5492535Y-3415710D01*
X5492535Y-3415710D01*
X5493158Y-3416763D01*
X5494014Y-3418510D01*
X5494464Y-3419648D01*
X5494464Y-3419648D01*
X5494751Y-3420373D01*
X5496873Y-3423293D01*
X5497318Y-3423906D01*
X5497959Y-3424882D01*
X5499786Y-3427970D01*
X5499786Y-3427970D01*
X5500183Y-3428642D01*
X5500735Y-3429193D01*
X5501599Y-3430058D01*
X5502863Y-3431537D01*
X5503582Y-3432527D01*
X5503582Y-3432528D01*
X5504041Y-3433158D01*
X5504642Y-3433655D01*
X5504642Y-3433656D01*
X5507406Y-3435942D01*
X5508270Y-3436729D01*
X5800271Y-3728729D01*
X5801016Y-3729548D01*
X5801421Y-3730187D01*
X5801990Y-3730721D01*
X5801990Y-3730721D01*
X5806324Y-3734791D01*
X5806604Y-3735062D01*
X5808553Y-3737012D01*
X5808861Y-3737251D01*
X5808870Y-3737258D01*
X5809757Y-3738015D01*
X5810177Y-3738409D01*
X5812942Y-3741006D01*
X5813625Y-3741381D01*
X5813625Y-3741382D01*
X5814697Y-3741971D01*
X5816322Y-3743038D01*
X5817906Y-3744267D01*
X5818622Y-3744577D01*
X5818622Y-3744577D01*
X5821915Y-3746002D01*
X5822965Y-3746516D01*
X5826791Y-3748619D01*
X5828731Y-3749118D01*
X5830571Y-3749748D01*
X5831509Y-3750153D01*
X5832410Y-3750543D01*
X5836170Y-3751139D01*
X5836724Y-3751227D01*
X5837868Y-3751464D01*
X5841342Y-3752356D01*
X5841343Y-3752356D01*
X5842098Y-3752550D01*
X5844102Y-3752550D01*
X5846040Y-3752702D01*
X5848020Y-3753016D01*
X5851828Y-3752656D01*
X5852368Y-3752605D01*
X5853534Y-3752550D01*
X7022222Y-3752550D01*
X7023328Y-3752602D01*
X7024067Y-3752767D01*
X7030787Y-3752556D01*
X7031177Y-3752550D01*
X7033545Y-3752550D01*
X7033935Y-3752550D01*
X7034331Y-3752500D01*
X7035496Y-3752408D01*
X7039863Y-3752271D01*
X7041786Y-3751712D01*
X7043692Y-3751317D01*
X7045679Y-3751066D01*
X7049739Y-3749458D01*
X7050845Y-3749080D01*
X7055039Y-3747861D01*
X7056763Y-3746842D01*
X7058510Y-3745986D01*
X7059647Y-3745536D01*
X7059648Y-3745535D01*
X7060373Y-3745248D01*
X7063907Y-3742681D01*
X7064882Y-3742040D01*
X7068642Y-3739817D01*
X7070058Y-3738400D01*
X7071538Y-3737136D01*
X7073159Y-3735959D01*
X7075943Y-3732593D01*
X7076728Y-3731731D01*
X7124777Y-3683682D01*
X7128800Y-3680994D01*
X7133545Y-3680050D01*
X7138814Y-3680050D01*
X7139465Y-3680050D01*
X7157980Y-3676114D01*
X7175273Y-3668415D01*
X7190587Y-3657288D01*
X7203253Y-3643221D01*
X7212718Y-3626828D01*
X7218567Y-3608825D01*
X7220546Y-3590000D01*
X7218567Y-3571174D01*
X7212718Y-3553171D01*
X7203253Y-3536778D01*
X7190587Y-3522711D01*
X7190061Y-3522329D01*
X7190061Y-3522329D01*
X7175799Y-3511967D01*
X7175799Y-3511966D01*
X7175273Y-3511585D01*
X7174679Y-3511320D01*
X7158574Y-3504150D01*
X7158574Y-3504150D01*
X7157980Y-3503885D01*
X7157344Y-3503750D01*
X7157344Y-3503750D01*
X7140101Y-3500085D01*
X7140100Y-3500085D01*
X7139465Y-3499950D01*
X7120535Y-3499950D01*
X7119899Y-3500085D01*
X7119899Y-3500085D01*
X7102656Y-3503750D01*
X7102655Y-3503750D01*
X7102020Y-3503885D01*
X7101426Y-3504149D01*
X7101425Y-3504150D01*
X7085321Y-3511320D01*
X7085320Y-3511320D01*
X7084727Y-3511585D01*
X7084202Y-3511966D01*
X7084201Y-3511967D01*
X7069939Y-3522329D01*
X7069938Y-3522329D01*
X7069413Y-3522711D01*
X7068978Y-3523193D01*
X7068978Y-3523194D01*
X7057181Y-3536295D01*
X7057181Y-3536296D01*
X7056747Y-3536778D01*
X7056422Y-3537340D01*
X7056422Y-3537341D01*
X7047607Y-3552609D01*
X7047607Y-3552609D01*
X7047282Y-3553171D01*
X7047081Y-3553788D01*
X7047081Y-3553789D01*
X7041633Y-3570556D01*
X7041633Y-3570557D01*
X7041433Y-3571174D01*
X7041365Y-3571820D01*
X7041365Y-3571820D01*
X7039668Y-3587965D01*
X7038528Y-3592007D01*
X7036104Y-3595437D01*
X7007722Y-3623818D01*
X7003700Y-3626506D01*
X6998955Y-3627450D01*
X6972808Y-3627450D01*
X6966608Y-3625788D01*
X6962070Y-3621250D01*
X6960408Y-3615050D01*
X6962070Y-3608850D01*
X6962457Y-3608179D01*
X6963468Y-3606428D01*
X6969317Y-3588425D01*
X6971296Y-3569600D01*
X6971087Y-3567611D01*
X6971922Y-3561669D01*
X6975450Y-3556815D01*
X6979978Y-3554608D01*
X6979927Y-3554450D01*
X6980544Y-3554249D01*
X6981180Y-3554114D01*
X6998473Y-3546415D01*
X7013787Y-3535288D01*
X7026453Y-3521221D01*
X7035918Y-3504828D01*
X7041767Y-3486825D01*
X7043532Y-3470034D01*
X7044672Y-3465992D01*
X7047096Y-3462563D01*
X7068731Y-3440927D01*
X7069548Y-3440184D01*
X7070188Y-3439778D01*
X7074792Y-3434875D01*
X7075053Y-3434605D01*
X7077012Y-3432647D01*
X7077258Y-3432329D01*
X7078017Y-3431441D01*
X7081006Y-3428258D01*
X7081971Y-3426502D01*
X7083039Y-3424877D01*
X7084267Y-3423293D01*
X7086003Y-3419283D01*
X7086516Y-3418236D01*
X7088243Y-3415093D01*
X7088243Y-3415093D01*
X7088620Y-3414409D01*
X7089118Y-3412469D01*
X7089748Y-3410628D01*
X7089859Y-3410371D01*
X7090544Y-3408789D01*
X7091227Y-3404474D01*
X7091464Y-3403332D01*
X7091861Y-3401786D01*
X7092550Y-3399102D01*
X7092550Y-3397098D01*
X7092702Y-3395159D01*
X7093016Y-3393180D01*
X7092605Y-3388832D01*
X7092550Y-3387665D01*
X7092550Y-3242088D01*
X7094053Y-3236171D01*
X7098196Y-3231688D01*
X7103977Y-3229726D01*
X7109993Y-3230759D01*
X7122020Y-3236114D01*
X7140535Y-3240050D01*
X7158814Y-3240050D01*
X7159465Y-3240050D01*
X7177980Y-3236114D01*
X7195273Y-3228415D01*
X7210587Y-3217288D01*
X7223253Y-3203221D01*
X7232718Y-3186828D01*
X7238567Y-3168825D01*
X7240332Y-3152034D01*
X7241472Y-3147992D01*
X7243896Y-3144563D01*
X7294777Y-3093682D01*
X7298800Y-3090994D01*
X7303545Y-3090050D01*
X7308814Y-3090050D01*
X7309465Y-3090050D01*
X7327980Y-3086114D01*
X7345273Y-3078415D01*
X7360587Y-3067288D01*
X7373253Y-3053221D01*
X7382718Y-3036828D01*
X7384154Y-3032407D01*
X7387088Y-3027563D01*
X7391869Y-3024529D01*
X7397501Y-3023937D01*
X7402809Y-3025911D01*
X7406686Y-3030039D01*
X7413112Y-3041169D01*
X7414297Y-3043221D01*
X7414731Y-3043704D01*
X7414731Y-3043704D01*
X7423735Y-3053704D01*
X7426963Y-3057288D01*
X7442277Y-3068415D01*
X7459570Y-3076114D01*
X7460002Y-3076206D01*
X7465604Y-3079984D01*
X7468385Y-3086229D01*
X7467450Y-3092880D01*
X7467282Y-3093171D01*
X7467081Y-3093788D01*
X7467081Y-3093789D01*
X7461633Y-3110556D01*
X7461633Y-3110557D01*
X7461433Y-3111174D01*
X7461365Y-3111820D01*
X7461365Y-3111820D01*
X7459668Y-3127965D01*
X7458528Y-3132007D01*
X7456104Y-3135437D01*
X7351270Y-3240271D01*
X7350451Y-3241016D01*
X7349812Y-3241421D01*
X7349279Y-3241989D01*
X7349278Y-3241990D01*
X7345210Y-3246322D01*
X7344939Y-3246601D01*
X7343263Y-3248278D01*
X7343262Y-3248278D01*
X7342988Y-3248553D01*
X7342750Y-3248859D01*
X7342749Y-3248861D01*
X7342740Y-3248872D01*
X7341984Y-3249757D01*
X7339528Y-3252372D01*
X7339527Y-3252373D01*
X7338994Y-3252941D01*
X7338618Y-3253625D01*
X7338618Y-3253625D01*
X7338028Y-3254697D01*
X7336961Y-3256322D01*
X7336211Y-3257289D01*
X7336210Y-3257290D01*
X7335733Y-3257906D01*
X7335423Y-3258620D01*
X7335423Y-3258622D01*
X7333997Y-3261916D01*
X7333484Y-3262964D01*
X7331756Y-3266107D01*
X7331380Y-3266790D01*
X7331186Y-3267545D01*
X7331186Y-3267546D01*
X7330882Y-3268730D01*
X7330252Y-3270571D01*
X7329766Y-3271694D01*
X7329766Y-3271695D01*
X7329456Y-3272410D01*
X7329334Y-3273180D01*
X7329334Y-3273180D01*
X7328773Y-3276724D01*
X7328536Y-3277867D01*
X7327644Y-3281342D01*
X7327644Y-3281343D01*
X7327450Y-3282098D01*
X7327450Y-3282877D01*
X7327450Y-3284101D01*
X7327297Y-3286040D01*
X7326984Y-3288019D01*
X7327057Y-3288796D01*
X7327057Y-3288796D01*
X7327395Y-3292367D01*
X7327450Y-3293534D01*
X7327450Y-3320131D01*
X7326626Y-3324575D01*
X7324265Y-3328428D01*
X7317181Y-3336295D01*
X7317181Y-3336296D01*
X7316747Y-3336778D01*
X7316422Y-3337340D01*
X7316422Y-3337341D01*
X7307607Y-3352609D01*
X7307607Y-3352609D01*
X7307282Y-3353171D01*
X7307081Y-3353788D01*
X7307081Y-3353789D01*
X7301633Y-3370556D01*
X7301633Y-3370557D01*
X7301433Y-3371174D01*
X7301365Y-3371819D01*
X7301365Y-3371820D01*
X7300078Y-3384066D01*
X7299454Y-3390000D01*
X7299557Y-3390981D01*
X7301365Y-3408179D01*
X7301365Y-3408180D01*
X7301433Y-3408825D01*
X7301633Y-3409442D01*
X7301633Y-3409443D01*
X7307081Y-3426210D01*
X7307282Y-3426828D01*
X7307607Y-3427390D01*
X7307607Y-3427391D01*
X7316021Y-3441964D01*
X7316747Y-3443221D01*
X7317181Y-3443704D01*
X7317181Y-3443704D01*
X7325168Y-3452574D01*
X7329413Y-3457288D01*
X7344727Y-3468415D01*
X7362020Y-3476114D01*
X7380535Y-3480050D01*
X7398814Y-3480050D01*
X7399465Y-3480050D01*
X7417980Y-3476114D01*
X7435273Y-3468415D01*
X7450587Y-3457288D01*
X7463253Y-3443221D01*
X7472718Y-3426828D01*
X7478567Y-3408825D01*
X7480546Y-3390000D01*
X7478567Y-3371174D01*
X7472718Y-3353171D01*
X7463253Y-3336778D01*
X7462818Y-3336295D01*
X7456168Y-3328909D01*
X7453301Y-3323401D01*
X7453463Y-3317194D01*
X7456615Y-3311844D01*
X7544777Y-3223682D01*
X7548800Y-3220994D01*
X7553545Y-3220050D01*
X7558814Y-3220050D01*
X7559465Y-3220050D01*
X7572472Y-3217285D01*
X7577945Y-3217356D01*
X7582854Y-3219777D01*
X7586242Y-3224076D01*
X7587450Y-3229414D01*
X7587450Y-3283130D01*
X7587398Y-3284235D01*
X7587233Y-3284974D01*
X7587257Y-3285753D01*
X7587257Y-3285753D01*
X7587444Y-3291695D01*
X7587450Y-3292084D01*
X7587450Y-3294842D01*
X7587499Y-3295229D01*
X7587499Y-3295230D01*
X7587500Y-3295242D01*
X7587592Y-3296404D01*
X7587704Y-3299990D01*
X7587705Y-3299991D01*
X7587729Y-3300770D01*
X7587947Y-3301519D01*
X7587947Y-3301519D01*
X7588288Y-3302693D01*
X7588682Y-3304599D01*
X7588934Y-3306586D01*
X7589221Y-3307311D01*
X7589221Y-3307312D01*
X7590541Y-3310648D01*
X7590920Y-3311752D01*
X7592138Y-3315946D01*
X7592535Y-3316618D01*
X7592535Y-3316618D01*
X7593158Y-3317671D01*
X7594014Y-3319417D01*
X7594464Y-3320555D01*
X7594464Y-3320556D01*
X7594751Y-3321280D01*
X7595870Y-3322820D01*
X7597318Y-3324813D01*
X7597959Y-3325789D01*
X7599786Y-3328877D01*
X7599786Y-3328878D01*
X7600183Y-3329549D01*
X7600734Y-3330101D01*
X7600734Y-3330101D01*
X7601599Y-3330965D01*
X7602863Y-3332445D01*
X7603582Y-3333435D01*
X7603582Y-3333435D01*
X7604041Y-3334066D01*
X7604641Y-3334563D01*
X7604642Y-3334563D01*
X7607406Y-3336850D01*
X7608270Y-3337636D01*
X7663654Y-3393020D01*
X7666078Y-3396450D01*
X7667218Y-3400492D01*
X7668915Y-3416637D01*
X7668983Y-3417283D01*
X7669183Y-3417900D01*
X7669183Y-3417901D01*
X7674064Y-3432922D01*
X7674832Y-3435286D01*
X7675157Y-3435848D01*
X7675157Y-3435848D01*
X7682816Y-3449114D01*
X7684297Y-3451679D01*
X7684731Y-3452161D01*
X7684731Y-3452162D01*
X7696377Y-3465095D01*
X7696963Y-3465746D01*
X7712277Y-3476872D01*
X7729570Y-3484572D01*
X7748085Y-3488507D01*
X7766364Y-3488507D01*
X7767015Y-3488507D01*
X7785530Y-3484572D01*
X7802823Y-3476872D01*
X7818137Y-3465746D01*
X7830803Y-3451679D01*
X7840268Y-3435286D01*
X7846117Y-3417283D01*
X7848096Y-3398457D01*
X7846117Y-3379632D01*
X7840268Y-3361629D01*
X7830803Y-3345236D01*
X7829580Y-3343877D01*
X7818572Y-3331651D01*
X7818572Y-3331651D01*
X7818137Y-3331168D01*
X7817611Y-3330786D01*
X7817611Y-3330786D01*
X7803349Y-3320424D01*
X7803349Y-3320424D01*
X7802823Y-3320042D01*
X7802229Y-3319778D01*
X7786124Y-3312607D01*
X7786124Y-3312607D01*
X7785530Y-3312343D01*
X7784894Y-3312208D01*
X7784894Y-3312208D01*
X7767651Y-3308542D01*
X7767650Y-3308542D01*
X7767015Y-3308407D01*
X7766364Y-3308407D01*
X7761095Y-3308407D01*
X7756350Y-3307463D01*
X7752327Y-3304775D01*
X7716182Y-3268630D01*
X7713494Y-3264607D01*
X7712550Y-3259862D01*
X7712550Y-3135246D01*
X7712602Y-3134141D01*
X7712767Y-3133402D01*
X7712556Y-3126684D01*
X7712550Y-3126294D01*
X7712550Y-3123924D01*
X7712550Y-3123534D01*
X7712500Y-3123137D01*
X7712408Y-3121972D01*
X7712271Y-3117606D01*
X7711712Y-3115683D01*
X7711317Y-3113778D01*
X7711066Y-3111790D01*
X7709458Y-3107728D01*
X7709080Y-3106623D01*
X7709044Y-3106500D01*
X7707862Y-3102430D01*
X7707464Y-3101759D01*
X7707464Y-3101758D01*
X7706842Y-3100706D01*
X7705986Y-3098958D01*
X7705536Y-3097822D01*
X7705536Y-3097822D01*
X7705249Y-3097096D01*
X7702681Y-3093562D01*
X7702041Y-3092588D01*
X7699817Y-3088827D01*
X7698401Y-3087411D01*
X7697137Y-3085931D01*
X7696418Y-3084942D01*
X7696418Y-3084941D01*
X7695959Y-3084310D01*
X7692595Y-3081527D01*
X7691730Y-3080741D01*
X7575312Y-2964322D01*
X7572287Y-2959386D01*
X7570469Y-2953789D01*
X7570469Y-2953789D01*
X7570268Y-2953171D01*
X7560803Y-2936778D01*
X7548137Y-2922711D01*
X7547611Y-2922329D01*
X7547611Y-2922329D01*
X7533349Y-2911967D01*
X7533349Y-2911966D01*
X7532823Y-2911585D01*
X7529455Y-2910085D01*
X7516124Y-2904150D01*
X7516124Y-2904150D01*
X7515530Y-2903885D01*
X7514894Y-2903750D01*
X7514894Y-2903750D01*
X7497651Y-2900085D01*
X7497650Y-2900085D01*
X7497015Y-2899950D01*
X7478085Y-2899950D01*
X7477449Y-2900085D01*
X7477449Y-2900085D01*
X7460206Y-2903750D01*
X7460205Y-2903750D01*
X7459570Y-2903885D01*
X7458976Y-2904149D01*
X7458975Y-2904150D01*
X7442871Y-2911320D01*
X7442870Y-2911320D01*
X7442277Y-2911585D01*
X7441752Y-2911966D01*
X7441751Y-2911967D01*
X7427489Y-2922329D01*
X7427488Y-2922329D01*
X7426963Y-2922711D01*
X7426528Y-2923193D01*
X7426528Y-2923194D01*
X7414731Y-2936295D01*
X7414731Y-2936296D01*
X7414297Y-2936778D01*
X7413972Y-2937340D01*
X7413972Y-2937341D01*
X7405157Y-2952609D01*
X7405157Y-2952609D01*
X7404832Y-2953171D01*
X7404631Y-2953788D01*
X7404631Y-2953789D01*
X7403396Y-2957592D01*
X7400462Y-2962436D01*
X7395680Y-2965470D01*
X7390048Y-2966062D01*
X7384740Y-2964088D01*
X7380864Y-2959960D01*
X7380532Y-2959386D01*
X7373253Y-2946778D01*
X7360587Y-2932711D01*
X7360061Y-2932329D01*
X7360061Y-2932329D01*
X7345799Y-2921967D01*
X7345799Y-2921966D01*
X7345273Y-2921585D01*
X7344679Y-2921320D01*
X7328574Y-2914150D01*
X7328574Y-2914150D01*
X7327980Y-2913885D01*
X7327344Y-2913750D01*
X7327344Y-2913750D01*
X7310101Y-2910085D01*
X7310100Y-2910085D01*
X7309465Y-2909950D01*
X7290535Y-2909950D01*
X7289899Y-2910085D01*
X7289899Y-2910085D01*
X7272656Y-2913750D01*
X7272655Y-2913750D01*
X7272020Y-2913885D01*
X7271426Y-2914149D01*
X7271425Y-2914150D01*
X7255321Y-2921320D01*
X7255320Y-2921320D01*
X7254727Y-2921585D01*
X7254202Y-2921966D01*
X7254201Y-2921967D01*
X7239939Y-2932329D01*
X7239938Y-2932329D01*
X7239413Y-2932711D01*
X7238978Y-2933193D01*
X7238978Y-2933194D01*
X7227181Y-2946295D01*
X7227181Y-2946296D01*
X7226747Y-2946778D01*
X7226422Y-2947340D01*
X7226422Y-2947341D01*
X7217607Y-2962609D01*
X7217607Y-2962609D01*
X7217282Y-2963171D01*
X7217081Y-2963788D01*
X7217081Y-2963789D01*
X7211633Y-2980556D01*
X7211633Y-2980557D01*
X7211433Y-2981174D01*
X7211365Y-2981820D01*
X7211365Y-2981820D01*
X7209668Y-2997965D01*
X7208528Y-3002007D01*
X7206104Y-3005437D01*
X7155223Y-3056318D01*
X7151200Y-3059006D01*
X7146455Y-3059950D01*
X7140535Y-3059950D01*
X7139899Y-3060085D01*
X7139899Y-3060085D01*
X7122656Y-3063750D01*
X7122655Y-3063750D01*
X7122020Y-3063885D01*
X7109993Y-3069240D01*
X7103977Y-3070274D01*
X7098196Y-3068311D01*
X7094053Y-3063829D01*
X7092550Y-3057912D01*
X7092550Y-3041045D01*
X7093494Y-3036300D01*
X7096182Y-3032277D01*
X7358123Y-2770335D01*
X15019533Y-2770335D01*
X15021434Y-2805395D01*
X15021507Y-2806063D01*
X15027187Y-2840713D01*
X15027332Y-2841368D01*
X15036725Y-2875200D01*
X15036940Y-2875836D01*
X15049936Y-2908455D01*
X15050217Y-2909062D01*
X15066665Y-2940086D01*
X15067010Y-2940660D01*
X15086715Y-2969722D01*
X15087121Y-2970256D01*
X15098532Y-2983691D01*
X15099666Y-2984452D01*
X15100859Y-2983785D01*
X15313490Y-2771154D01*
X15314157Y-2770000D01*
X15385843Y-2770000D01*
X15386509Y-2771154D01*
X15599141Y-2983785D01*
X15600333Y-2984452D01*
X15601468Y-2983691D01*
X15612879Y-2970256D01*
X15613285Y-2969722D01*
X15632990Y-2940660D01*
X15633335Y-2940086D01*
X15649783Y-2909062D01*
X15650064Y-2908455D01*
X15663060Y-2875836D01*
X15663275Y-2875200D01*
X15672668Y-2841368D01*
X15672812Y-2840713D01*
X15678493Y-2806063D01*
X15678566Y-2805395D01*
X15680466Y-2770335D01*
X15680466Y-2769664D01*
X15678566Y-2734604D01*
X15678493Y-2733937D01*
X15672812Y-2699287D01*
X15672668Y-2698631D01*
X15663275Y-2664800D01*
X15663060Y-2664163D01*
X15650064Y-2631544D01*
X15649783Y-2630937D01*
X15633335Y-2599913D01*
X15632990Y-2599339D01*
X15613285Y-2570277D01*
X15612879Y-2569743D01*
X15601468Y-2556309D01*
X15600333Y-2555547D01*
X15599141Y-2556214D01*
X15386509Y-2768845D01*
X15385843Y-2770000D01*
X15314157Y-2770000D01*
X15313490Y-2768845D01*
X15100859Y-2556214D01*
X15099666Y-2555547D01*
X15098532Y-2556309D01*
X15087121Y-2569743D01*
X15086715Y-2570277D01*
X15067010Y-2599339D01*
X15066665Y-2599913D01*
X15050217Y-2630937D01*
X15049936Y-2631544D01*
X15036940Y-2664163D01*
X15036725Y-2664800D01*
X15027332Y-2698631D01*
X15027187Y-2699287D01*
X15021507Y-2733937D01*
X15021434Y-2734604D01*
X15019533Y-2769664D01*
X15019533Y-2770335D01*
X7358123Y-2770335D01*
X7559477Y-2568982D01*
X7563500Y-2566294D01*
X7568245Y-2565350D01*
X8647223Y-2565350D01*
X8648328Y-2565402D01*
X8649067Y-2565567D01*
X8655787Y-2565356D01*
X8656177Y-2565350D01*
X8658545Y-2565350D01*
X8658935Y-2565350D01*
X8659331Y-2565300D01*
X8660496Y-2565208D01*
X8664863Y-2565071D01*
X8666786Y-2564512D01*
X8668692Y-2564117D01*
X8670679Y-2563866D01*
X8674740Y-2562258D01*
X8675845Y-2561880D01*
X8680039Y-2560662D01*
X8681763Y-2559642D01*
X8683510Y-2558786D01*
X8684647Y-2558336D01*
X8684648Y-2558336D01*
X8685373Y-2558048D01*
X8688907Y-2555481D01*
X8689882Y-2554840D01*
X8693642Y-2552617D01*
X8695058Y-2551200D01*
X8696538Y-2549937D01*
X8698159Y-2548759D01*
X8700943Y-2545394D01*
X8701728Y-2544531D01*
X9156259Y-2090000D01*
X10959454Y-2090000D01*
X10959522Y-2090646D01*
X10961365Y-2108179D01*
X10961365Y-2108180D01*
X10961433Y-2108825D01*
X10961633Y-2109443D01*
X10961633Y-2109443D01*
X10966572Y-2124641D01*
X10967282Y-2126828D01*
X10976747Y-2143221D01*
X10989413Y-2157289D01*
X11004727Y-2168415D01*
X11022020Y-2176114D01*
X11040535Y-2180050D01*
X11046455Y-2180050D01*
X11051200Y-2180994D01*
X11055223Y-2183682D01*
X11103818Y-2232277D01*
X11106506Y-2236300D01*
X11107450Y-2241045D01*
X11107450Y-2460131D01*
X11106626Y-2464575D01*
X11104265Y-2468428D01*
X11097181Y-2476295D01*
X11097181Y-2476296D01*
X11096747Y-2476778D01*
X11096422Y-2477340D01*
X11096422Y-2477341D01*
X11087607Y-2492609D01*
X11087607Y-2492609D01*
X11087282Y-2493171D01*
X11087082Y-2493789D01*
X11087081Y-2493789D01*
X11081633Y-2510556D01*
X11081633Y-2510557D01*
X11081433Y-2511174D01*
X11081365Y-2511819D01*
X11081365Y-2511820D01*
X11079596Y-2528646D01*
X11079454Y-2530000D01*
X11079522Y-2530646D01*
X11081365Y-2548179D01*
X11081365Y-2548180D01*
X11081433Y-2548825D01*
X11081633Y-2549443D01*
X11081633Y-2549443D01*
X11086872Y-2565567D01*
X11087282Y-2566828D01*
X11096747Y-2583221D01*
X11109413Y-2597289D01*
X11109939Y-2597671D01*
X11109939Y-2597671D01*
X11117070Y-2602852D01*
X11124727Y-2608415D01*
X11142020Y-2616114D01*
X11160535Y-2620050D01*
X11178814Y-2620050D01*
X11179465Y-2620050D01*
X11197980Y-2616114D01*
X11215273Y-2608415D01*
X11230587Y-2597289D01*
X11243253Y-2583221D01*
X11252718Y-2566828D01*
X11258567Y-2548825D01*
X11260546Y-2530000D01*
X11259429Y-2519377D01*
X15135233Y-2519377D01*
X15135900Y-2520545D01*
X15348846Y-2733490D01*
X15350000Y-2734157D01*
X15351154Y-2733490D01*
X15564100Y-2520544D01*
X15564767Y-2519377D01*
X15564084Y-2518253D01*
X15563684Y-2517914D01*
X15535730Y-2496664D01*
X15535176Y-2496288D01*
X15505090Y-2478186D01*
X15504496Y-2477871D01*
X15472630Y-2463128D01*
X15472006Y-2462880D01*
X15438731Y-2451668D01*
X15438087Y-2451489D01*
X15403795Y-2443941D01*
X15403132Y-2443832D01*
X15368226Y-2440036D01*
X15367556Y-2440000D01*
X15332444Y-2440000D01*
X15331774Y-2440036D01*
X15296868Y-2443832D01*
X15296205Y-2443941D01*
X15261913Y-2451489D01*
X15261268Y-2451668D01*
X15227994Y-2462880D01*
X15227369Y-2463128D01*
X15195504Y-2477871D01*
X15194910Y-2478186D01*
X15164824Y-2496288D01*
X15164269Y-2496664D01*
X15136315Y-2517914D01*
X15135916Y-2518253D01*
X15135233Y-2519377D01*
X11259429Y-2519377D01*
X11258567Y-2511174D01*
X11252718Y-2493171D01*
X11243253Y-2476778D01*
X11235735Y-2468428D01*
X11233374Y-2464575D01*
X11232550Y-2460131D01*
X11232550Y-2217777D01*
X11232602Y-2216672D01*
X11232767Y-2215933D01*
X11232556Y-2209214D01*
X11232550Y-2208825D01*
X11232550Y-2206454D01*
X11232550Y-2206065D01*
X11232500Y-2205668D01*
X11232408Y-2204502D01*
X11232295Y-2200917D01*
X11232271Y-2200137D01*
X11231712Y-2198214D01*
X11231317Y-2196308D01*
X11231164Y-2195094D01*
X11231066Y-2194321D01*
X11229458Y-2190259D01*
X11229080Y-2189155D01*
X11228079Y-2185710D01*
X11228079Y-2185710D01*
X11227862Y-2184961D01*
X11227465Y-2184289D01*
X11227464Y-2184289D01*
X11226842Y-2183237D01*
X11225986Y-2181489D01*
X11225249Y-2179627D01*
X11224790Y-2178996D01*
X11224790Y-2178995D01*
X11222682Y-2176093D01*
X11222040Y-2175117D01*
X11220214Y-2172029D01*
X11220214Y-2172029D01*
X11219817Y-2171358D01*
X11218401Y-2169941D01*
X11217137Y-2168462D01*
X11216418Y-2167473D01*
X11216418Y-2167472D01*
X11215959Y-2166841D01*
X11212595Y-2164057D01*
X11211730Y-2163271D01*
X11143896Y-2095437D01*
X11141472Y-2092007D01*
X11140332Y-2087965D01*
X11138635Y-2071820D01*
X11138635Y-2071820D01*
X11138567Y-2071174D01*
X11132718Y-2053171D01*
X11123253Y-2036778D01*
X11117015Y-2029849D01*
X11111022Y-2023194D01*
X11111022Y-2023194D01*
X11110587Y-2022711D01*
X11110061Y-2022329D01*
X11110061Y-2022329D01*
X11095799Y-2011967D01*
X11095799Y-2011966D01*
X11095273Y-2011585D01*
X11094608Y-2011288D01*
X11078575Y-2004150D01*
X11078574Y-2004150D01*
X11077980Y-2003885D01*
X11077344Y-2003750D01*
X11077344Y-2003750D01*
X11060101Y-2000085D01*
X11060101Y-2000085D01*
X11059465Y-1999950D01*
X11040535Y-1999950D01*
X11039900Y-2000085D01*
X11039899Y-2000085D01*
X11022656Y-2003750D01*
X11022655Y-2003750D01*
X11022020Y-2003885D01*
X11021426Y-2004149D01*
X11021425Y-2004150D01*
X11005321Y-2011320D01*
X11005320Y-2011320D01*
X11004727Y-2011585D01*
X11004202Y-2011966D01*
X11004201Y-2011967D01*
X10989939Y-2022329D01*
X10989938Y-2022329D01*
X10989413Y-2022711D01*
X10988978Y-2023193D01*
X10988978Y-2023194D01*
X10977181Y-2036295D01*
X10977181Y-2036296D01*
X10976747Y-2036778D01*
X10976422Y-2037340D01*
X10976422Y-2037341D01*
X10967607Y-2052609D01*
X10967607Y-2052609D01*
X10967282Y-2053171D01*
X10967082Y-2053788D01*
X10967081Y-2053789D01*
X10961633Y-2070556D01*
X10961633Y-2070557D01*
X10961433Y-2071174D01*
X10961365Y-2071819D01*
X10961365Y-2071820D01*
X10959668Y-2087964D01*
X10959454Y-2090000D01*
X9156259Y-2090000D01*
X9582731Y-1663528D01*
X9583548Y-1662784D01*
X9584188Y-1662378D01*
X9588793Y-1657474D01*
X9589055Y-1657203D01*
X9591012Y-1655247D01*
X9591257Y-1654931D01*
X9592016Y-1654042D01*
X9595006Y-1650858D01*
X9595971Y-1649103D01*
X9597039Y-1647476D01*
X9598267Y-1645893D01*
X9600002Y-1641885D01*
X9600516Y-1640835D01*
X9602620Y-1637009D01*
X9602866Y-1636052D01*
X9603118Y-1635069D01*
X9603748Y-1633228D01*
X9604544Y-1631389D01*
X9605227Y-1627075D01*
X9605464Y-1625931D01*
X9605645Y-1625228D01*
X9606550Y-1621702D01*
X9606550Y-1619698D01*
X9606703Y-1617759D01*
X9607016Y-1615780D01*
X9606605Y-1611432D01*
X9606550Y-1610265D01*
X9606550Y-1531268D01*
X9607374Y-1526825D01*
X9609735Y-1522971D01*
X9611410Y-1521111D01*
X9617253Y-1514621D01*
X9626718Y-1498228D01*
X9632567Y-1480225D01*
X9634546Y-1461400D01*
X9633344Y-1449961D01*
X9632635Y-1443220D01*
X9632635Y-1443220D01*
X9632567Y-1442574D01*
X9626718Y-1424571D01*
X9617253Y-1408178D01*
X9615376Y-1406093D01*
X9605022Y-1394594D01*
X9605022Y-1394594D01*
X9604587Y-1394111D01*
X9604061Y-1393729D01*
X9604061Y-1393729D01*
X9589799Y-1383367D01*
X9589799Y-1383367D01*
X9589273Y-1382985D01*
X9588679Y-1382720D01*
X9572575Y-1375550D01*
X9572574Y-1375550D01*
X9571980Y-1375285D01*
X9571344Y-1375150D01*
X9571344Y-1375150D01*
X9554101Y-1371485D01*
X9554101Y-1371485D01*
X9553465Y-1371350D01*
X9540375Y-1371350D01*
X9535331Y-1370278D01*
X9531160Y-1367247D01*
X9528582Y-1362782D01*
X9525319Y-1352739D01*
X9525118Y-1352121D01*
X9515653Y-1335728D01*
X9502987Y-1321661D01*
X9502461Y-1321279D01*
X9502461Y-1321279D01*
X9488199Y-1310917D01*
X9488199Y-1310917D01*
X9487673Y-1310535D01*
X9487079Y-1310270D01*
X9470975Y-1303100D01*
X9470974Y-1303100D01*
X9470380Y-1302835D01*
X9469744Y-1302700D01*
X9469744Y-1302700D01*
X9452501Y-1299035D01*
X9452501Y-1299035D01*
X9451865Y-1298900D01*
X9432935Y-1298900D01*
X9432300Y-1299035D01*
X9432299Y-1299035D01*
X9428013Y-1299946D01*
X9421603Y-1299610D01*
X9416220Y-1296114D01*
X9413306Y-1290395D01*
X9413642Y-1283985D01*
X9418367Y-1269443D01*
X9418567Y-1268825D01*
X9420546Y-1250000D01*
X9418567Y-1231174D01*
X9412718Y-1213171D01*
X9403253Y-1196778D01*
X9402296Y-1195714D01*
X9391022Y-1183194D01*
X9391022Y-1183194D01*
X9390587Y-1182711D01*
X9390061Y-1182329D01*
X9390061Y-1182329D01*
X9375799Y-1171967D01*
X9375799Y-1171967D01*
X9375273Y-1171585D01*
X9374679Y-1171320D01*
X9358575Y-1164150D01*
X9358574Y-1164150D01*
X9357980Y-1163885D01*
X9357344Y-1163750D01*
X9357344Y-1163750D01*
X9340101Y-1160085D01*
X9340101Y-1160085D01*
X9339465Y-1159950D01*
X9338814Y-1159950D01*
X9333545Y-1159950D01*
X9328800Y-1159006D01*
X9324777Y-1156318D01*
X9254579Y-1086120D01*
X9252046Y-1082454D01*
X9250972Y-1078130D01*
X9250950Y-1077785D01*
X9250950Y-1077395D01*
X9250900Y-1076998D01*
X9250808Y-1075833D01*
X9250695Y-1072248D01*
X9250671Y-1071468D01*
X9250112Y-1069544D01*
X9249717Y-1067639D01*
X9249564Y-1066425D01*
X9249466Y-1065651D01*
X9247858Y-1061589D01*
X9247480Y-1060485D01*
X9246480Y-1057040D01*
X9246479Y-1057040D01*
X9246262Y-1056291D01*
X9245865Y-1055620D01*
X9245865Y-1055619D01*
X9245242Y-1054567D01*
X9244386Y-1052819D01*
X9243649Y-1050957D01*
X9243190Y-1050326D01*
X9242814Y-1049642D01*
X9242953Y-1049565D01*
X9241097Y-1044961D01*
X9241738Y-1038979D01*
X9245120Y-1034003D01*
X9250446Y-1031204D01*
X9256462Y-1031242D01*
X9258828Y-1031850D01*
X9260832Y-1031850D01*
X9262771Y-1032002D01*
X9263979Y-1032194D01*
X9263979Y-1032194D01*
X9264750Y-1032316D01*
X9268558Y-1031956D01*
X9269098Y-1031905D01*
X9270264Y-1031850D01*
X9274576Y-1031850D01*
X9279321Y-1032794D01*
X9283344Y-1035482D01*
X9731388Y-1483526D01*
X9734076Y-1487549D01*
X9735020Y-1492294D01*
X9735020Y-1493561D01*
X9734197Y-1498005D01*
X9731835Y-1501858D01*
X9724751Y-1509725D01*
X9724751Y-1509726D01*
X9724317Y-1510208D01*
X9723992Y-1510770D01*
X9723992Y-1510771D01*
X9715177Y-1526038D01*
X9715177Y-1526039D01*
X9714852Y-1526601D01*
X9714652Y-1527218D01*
X9714651Y-1527219D01*
X9709203Y-1543986D01*
X9709203Y-1543987D01*
X9709003Y-1544604D01*
X9708935Y-1545249D01*
X9708935Y-1545250D01*
X9707670Y-1557288D01*
X9707024Y-1563430D01*
X9707092Y-1564076D01*
X9708935Y-1581609D01*
X9708935Y-1581610D01*
X9709003Y-1582255D01*
X9709203Y-1582872D01*
X9709203Y-1582873D01*
X9712796Y-1593929D01*
X9714852Y-1600258D01*
X9715177Y-1600820D01*
X9715177Y-1600821D01*
X9723814Y-1615780D01*
X9724317Y-1616651D01*
X9724751Y-1617134D01*
X9724751Y-1617134D01*
X9732673Y-1625931D01*
X9736983Y-1630718D01*
X9737509Y-1631100D01*
X9737509Y-1631100D01*
X9739927Y-1632857D01*
X9752297Y-1641845D01*
X9755696Y-1643358D01*
X9757126Y-1643994D01*
X9761820Y-1647646D01*
X9764274Y-1653063D01*
X9763924Y-1658999D01*
X9760850Y-1664090D01*
X9574623Y-1850318D01*
X9570600Y-1853006D01*
X9565855Y-1853950D01*
X9559935Y-1853950D01*
X9559300Y-1854085D01*
X9559299Y-1854085D01*
X9542056Y-1857750D01*
X9542055Y-1857750D01*
X9541420Y-1857885D01*
X9540826Y-1858149D01*
X9540825Y-1858150D01*
X9524721Y-1865320D01*
X9524720Y-1865320D01*
X9524127Y-1865585D01*
X9523602Y-1865966D01*
X9523601Y-1865967D01*
X9509339Y-1876329D01*
X9509338Y-1876329D01*
X9508813Y-1876711D01*
X9508378Y-1877193D01*
X9508378Y-1877194D01*
X9496581Y-1890295D01*
X9496581Y-1890296D01*
X9496147Y-1890778D01*
X9495822Y-1891340D01*
X9495822Y-1891341D01*
X9487007Y-1906609D01*
X9487007Y-1906609D01*
X9486682Y-1907171D01*
X9486482Y-1907788D01*
X9486481Y-1907789D01*
X9481033Y-1924556D01*
X9481033Y-1924557D01*
X9480833Y-1925174D01*
X9480765Y-1925819D01*
X9480765Y-1925820D01*
X9479419Y-1938622D01*
X9478854Y-1944000D01*
X9478922Y-1944646D01*
X9480765Y-1962179D01*
X9480765Y-1962180D01*
X9480833Y-1962825D01*
X9481033Y-1963442D01*
X9481033Y-1963443D01*
X9486481Y-1980210D01*
X9486682Y-1980828D01*
X9487007Y-1981390D01*
X9487007Y-1981391D01*
X9495615Y-1996300D01*
X9496147Y-1997221D01*
X9496581Y-1997704D01*
X9496581Y-1997704D01*
X9506225Y-2008415D01*
X9508813Y-2011288D01*
X9524127Y-2022415D01*
X9541420Y-2030114D01*
X9559935Y-2034050D01*
X9578214Y-2034050D01*
X9578865Y-2034050D01*
X9597380Y-2030114D01*
X9614673Y-2022415D01*
X9629987Y-2011288D01*
X9642653Y-1997221D01*
X9652118Y-1980828D01*
X9657967Y-1962825D01*
X9659732Y-1946034D01*
X9660872Y-1941992D01*
X9663296Y-1938563D01*
X9839877Y-1761982D01*
X9843900Y-1759294D01*
X9848645Y-1758350D01*
X10512605Y-1758350D01*
X10517350Y-1759294D01*
X10521373Y-1761982D01*
X10545554Y-1786162D01*
X10547978Y-1789592D01*
X10549118Y-1793634D01*
X10550741Y-1809080D01*
X10550883Y-1810425D01*
X10551083Y-1811042D01*
X10551083Y-1811043D01*
X10556531Y-1827810D01*
X10556732Y-1828428D01*
X10557057Y-1828990D01*
X10557057Y-1828991D01*
X10564231Y-1841417D01*
X10566197Y-1844821D01*
X10566631Y-1845304D01*
X10566631Y-1845304D01*
X10574792Y-1854367D01*
X10578863Y-1858888D01*
X10594177Y-1870015D01*
X10611470Y-1877714D01*
X10629985Y-1881650D01*
X10648264Y-1881650D01*
X10648915Y-1881650D01*
X10667430Y-1877714D01*
X10684723Y-1870015D01*
X10700037Y-1858888D01*
X10700610Y-1858252D01*
X10700777Y-1858131D01*
X10700955Y-1857971D01*
X10700972Y-1857989D01*
X10704782Y-1855222D01*
X10709825Y-1854150D01*
X11340553Y-1854150D01*
X11341658Y-1854202D01*
X11342397Y-1854367D01*
X11349118Y-1854156D01*
X11349507Y-1854150D01*
X11351875Y-1854150D01*
X11352265Y-1854150D01*
X11352662Y-1854100D01*
X11353827Y-1854008D01*
X11358193Y-1853871D01*
X11360117Y-1853312D01*
X11362022Y-1852917D01*
X11364010Y-1852666D01*
X11368070Y-1851058D01*
X11369175Y-1850680D01*
X11373369Y-1849461D01*
X11375093Y-1848442D01*
X11376841Y-1847586D01*
X11377978Y-1847136D01*
X11377978Y-1847135D01*
X11378704Y-1846848D01*
X11382237Y-1844281D01*
X11383213Y-1843640D01*
X11386972Y-1841417D01*
X11388389Y-1840000D01*
X11389868Y-1838736D01*
X11391489Y-1837559D01*
X11394273Y-1834193D01*
X11395058Y-1833331D01*
X12207767Y-1020622D01*
X14135233Y-1020622D01*
X14135916Y-1021746D01*
X14136316Y-1022085D01*
X14164269Y-1043335D01*
X14164824Y-1043711D01*
X14194910Y-1061813D01*
X14195504Y-1062128D01*
X14227369Y-1076871D01*
X14227994Y-1077120D01*
X14261268Y-1088331D01*
X14261913Y-1088510D01*
X14296205Y-1096059D01*
X14296868Y-1096167D01*
X14331774Y-1099963D01*
X14332444Y-1100000D01*
X14367556Y-1100000D01*
X14368226Y-1099963D01*
X14403132Y-1096167D01*
X14403795Y-1096059D01*
X14438087Y-1088510D01*
X14438731Y-1088331D01*
X14472006Y-1077120D01*
X14472630Y-1076871D01*
X14504496Y-1062128D01*
X14505090Y-1061813D01*
X14535176Y-1043711D01*
X14535730Y-1043335D01*
X14563685Y-1022085D01*
X14564084Y-1021746D01*
X14564767Y-1020622D01*
X14564100Y-1019455D01*
X14351154Y-806509D01*
X14350000Y-805843D01*
X14348846Y-806509D01*
X14135900Y-1019455D01*
X14135233Y-1020622D01*
X12207767Y-1020622D01*
X12386607Y-841782D01*
X12390630Y-839094D01*
X12395376Y-838150D01*
X12547025Y-838150D01*
X12552068Y-839222D01*
X12555878Y-841989D01*
X12555895Y-841971D01*
X12556073Y-842131D01*
X12556240Y-842252D01*
X12556813Y-842888D01*
X12572127Y-854015D01*
X12589420Y-861714D01*
X12607935Y-865650D01*
X12626214Y-865650D01*
X12626865Y-865650D01*
X12645380Y-861714D01*
X12662673Y-854015D01*
X12677987Y-842888D01*
X12690653Y-828821D01*
X12700118Y-812428D01*
X12705967Y-794425D01*
X12707946Y-775600D01*
X12707393Y-770335D01*
X14019533Y-770335D01*
X14021434Y-805395D01*
X14021507Y-806063D01*
X14027187Y-840713D01*
X14027332Y-841368D01*
X14036725Y-875200D01*
X14036940Y-875836D01*
X14049936Y-908455D01*
X14050217Y-909062D01*
X14066665Y-940086D01*
X14067010Y-940660D01*
X14086715Y-969722D01*
X14087121Y-970256D01*
X14098532Y-983691D01*
X14099666Y-984452D01*
X14100859Y-983785D01*
X14313490Y-771154D01*
X14314157Y-770000D01*
X14385843Y-770000D01*
X14386509Y-771154D01*
X14599141Y-983785D01*
X14600333Y-984452D01*
X14601468Y-983691D01*
X14612879Y-970256D01*
X14613285Y-969722D01*
X14632990Y-940660D01*
X14633335Y-940086D01*
X14649783Y-909062D01*
X14650064Y-908455D01*
X14663060Y-875836D01*
X14663275Y-875200D01*
X14672668Y-841368D01*
X14672812Y-840713D01*
X14678493Y-806063D01*
X14678566Y-805395D01*
X14680466Y-770335D01*
X14680466Y-769664D01*
X14678566Y-734604D01*
X14678493Y-733937D01*
X14672812Y-699287D01*
X14672668Y-698631D01*
X14663275Y-664800D01*
X14663060Y-664163D01*
X14650064Y-631544D01*
X14649783Y-630937D01*
X14633335Y-599913D01*
X14632990Y-599339D01*
X14613285Y-570277D01*
X14612879Y-569743D01*
X14601468Y-556309D01*
X14600333Y-555547D01*
X14599141Y-556214D01*
X14386509Y-768845D01*
X14385843Y-770000D01*
X14314157Y-770000D01*
X14313490Y-768845D01*
X14100859Y-556214D01*
X14099666Y-555547D01*
X14098532Y-556309D01*
X14087121Y-569743D01*
X14086715Y-570277D01*
X14067010Y-599339D01*
X14066665Y-599913D01*
X14050217Y-630937D01*
X14049936Y-631544D01*
X14036940Y-664163D01*
X14036725Y-664800D01*
X14027332Y-698631D01*
X14027187Y-699287D01*
X14021507Y-733937D01*
X14021434Y-734604D01*
X14019533Y-769664D01*
X14019533Y-770335D01*
X12707393Y-770335D01*
X12705967Y-756774D01*
X12700118Y-738771D01*
X12690653Y-722378D01*
X12684051Y-715046D01*
X12678422Y-708794D01*
X12678422Y-708794D01*
X12677987Y-708311D01*
X12677461Y-707929D01*
X12677461Y-707929D01*
X12663199Y-697567D01*
X12663199Y-697567D01*
X12662673Y-697185D01*
X12662079Y-696920D01*
X12645974Y-689750D01*
X12645974Y-689750D01*
X12645380Y-689485D01*
X12644744Y-689350D01*
X12644744Y-689350D01*
X12627501Y-685685D01*
X12627500Y-685685D01*
X12626865Y-685550D01*
X12607935Y-685550D01*
X12607299Y-685685D01*
X12607299Y-685685D01*
X12590056Y-689350D01*
X12590055Y-689350D01*
X12589420Y-689485D01*
X12588826Y-689750D01*
X12588825Y-689750D01*
X12572721Y-696920D01*
X12572720Y-696920D01*
X12572127Y-697185D01*
X12571602Y-697566D01*
X12571601Y-697567D01*
X12557339Y-707929D01*
X12557338Y-707929D01*
X12556813Y-708311D01*
X12556378Y-708794D01*
X12556378Y-708794D01*
X12556240Y-708947D01*
X12556073Y-709069D01*
X12555895Y-709229D01*
X12555878Y-709210D01*
X12552068Y-711978D01*
X12547025Y-713050D01*
X12372108Y-713050D01*
X12371002Y-712997D01*
X12370264Y-712832D01*
X12369485Y-712857D01*
X12369484Y-712857D01*
X12363543Y-713044D01*
X12363154Y-713050D01*
X12360395Y-713050D01*
X12360011Y-713098D01*
X12360008Y-713098D01*
X12359996Y-713100D01*
X12358834Y-713191D01*
X12355248Y-713304D01*
X12355247Y-713304D01*
X12354468Y-713329D01*
X12353719Y-713546D01*
X12353718Y-713546D01*
X12352543Y-713888D01*
X12350639Y-714282D01*
X12349425Y-714435D01*
X12349425Y-714435D01*
X12348651Y-714533D01*
X12347926Y-714820D01*
X12347926Y-714820D01*
X12344590Y-716141D01*
X12343486Y-716519D01*
X12340041Y-717520D01*
X12340039Y-717520D01*
X12339291Y-717738D01*
X12338620Y-718135D01*
X12338620Y-718135D01*
X12337567Y-718758D01*
X12335821Y-719613D01*
X12334682Y-720064D01*
X12334682Y-720064D01*
X12333957Y-720351D01*
X12333327Y-720809D01*
X12333326Y-720810D01*
X12330424Y-722918D01*
X12329448Y-723559D01*
X12326360Y-725385D01*
X12326359Y-725386D01*
X12325688Y-725783D01*
X12325137Y-726334D01*
X12325136Y-726334D01*
X12324271Y-727199D01*
X12322793Y-728462D01*
X12321803Y-729181D01*
X12321802Y-729182D01*
X12321172Y-729640D01*
X12320675Y-730241D01*
X12320675Y-730241D01*
X12318388Y-733006D01*
X12317602Y-733869D01*
X11326053Y-1725418D01*
X11322030Y-1728106D01*
X11317285Y-1729050D01*
X10709825Y-1729050D01*
X10704782Y-1727978D01*
X10700972Y-1725210D01*
X10700955Y-1725229D01*
X10700777Y-1725069D01*
X10700610Y-1724947D01*
X10700037Y-1724311D01*
X10699511Y-1723929D01*
X10699511Y-1723929D01*
X10685249Y-1713567D01*
X10685249Y-1713566D01*
X10684723Y-1713185D01*
X10684129Y-1712920D01*
X10668025Y-1705750D01*
X10668024Y-1705750D01*
X10667430Y-1705485D01*
X10666794Y-1705350D01*
X10666794Y-1705350D01*
X10649551Y-1701685D01*
X10649551Y-1701685D01*
X10648915Y-1701550D01*
X10648264Y-1701550D01*
X10642995Y-1701550D01*
X10638250Y-1700606D01*
X10634227Y-1697918D01*
X10593379Y-1657069D01*
X10592634Y-1656251D01*
X10592229Y-1655612D01*
X10587328Y-1651009D01*
X10587048Y-1650738D01*
X10585373Y-1649063D01*
X10585373Y-1649063D01*
X10585097Y-1648788D01*
X10584779Y-1648541D01*
X10583891Y-1647783D01*
X10581277Y-1645327D01*
X10581277Y-1645327D01*
X10580708Y-1644793D01*
X10580025Y-1644418D01*
X10580024Y-1644417D01*
X10578953Y-1643828D01*
X10577327Y-1642760D01*
X10576360Y-1642010D01*
X10576359Y-1642010D01*
X10575744Y-1641532D01*
X10575028Y-1641223D01*
X10575028Y-1641222D01*
X10571735Y-1639797D01*
X10570686Y-1639284D01*
X10567543Y-1637556D01*
X10567542Y-1637555D01*
X10566859Y-1637180D01*
X10566104Y-1636986D01*
X10566103Y-1636986D01*
X10564919Y-1636682D01*
X10563078Y-1636052D01*
X10561956Y-1635566D01*
X10561955Y-1635565D01*
X10561240Y-1635256D01*
X10560469Y-1635134D01*
X10560469Y-1635134D01*
X10556926Y-1634573D01*
X10555782Y-1634336D01*
X10552307Y-1633443D01*
X10552306Y-1633443D01*
X10551552Y-1633250D01*
X10550772Y-1633250D01*
X10549548Y-1633250D01*
X10547610Y-1633097D01*
X10545630Y-1632784D01*
X10544854Y-1632857D01*
X10544854Y-1632857D01*
X10541282Y-1633195D01*
X10540116Y-1633250D01*
X10276179Y-1633250D01*
X10270549Y-1631898D01*
X10266147Y-1628138D01*
X10263931Y-1622789D01*
X10264386Y-1617018D01*
X10265804Y-1612653D01*
X10267567Y-1607225D01*
X10269546Y-1588400D01*
X10267567Y-1569574D01*
X10261718Y-1551571D01*
X10252253Y-1535178D01*
X10244024Y-1526038D01*
X10240022Y-1521594D01*
X10240022Y-1521594D01*
X10239587Y-1521111D01*
X10239061Y-1520729D01*
X10239061Y-1520729D01*
X10224799Y-1510367D01*
X10224799Y-1510366D01*
X10224273Y-1509985D01*
X10223679Y-1509720D01*
X10207575Y-1502550D01*
X10207574Y-1502550D01*
X10206980Y-1502285D01*
X10206344Y-1502150D01*
X10206344Y-1502150D01*
X10189101Y-1498485D01*
X10189101Y-1498485D01*
X10188465Y-1498350D01*
X10187814Y-1498350D01*
X10182545Y-1498350D01*
X10177800Y-1497406D01*
X10173777Y-1494718D01*
X10093159Y-1414099D01*
X10092414Y-1413281D01*
X10092009Y-1412642D01*
X10087107Y-1408039D01*
X10086828Y-1407768D01*
X10085153Y-1406093D01*
X10084877Y-1405818D01*
X10084559Y-1405571D01*
X10083671Y-1404813D01*
X10081057Y-1402357D01*
X10081057Y-1402357D01*
X10080488Y-1401823D01*
X10079805Y-1401448D01*
X10079804Y-1401447D01*
X10078732Y-1400858D01*
X10077107Y-1399790D01*
X10076139Y-1399040D01*
X10076139Y-1399040D01*
X10075524Y-1398562D01*
X10074808Y-1398252D01*
X10074808Y-1398252D01*
X10071515Y-1396827D01*
X10070466Y-1396314D01*
X10067323Y-1394586D01*
X10067322Y-1394585D01*
X10066639Y-1394210D01*
X10065883Y-1394016D01*
X10065883Y-1394016D01*
X10064699Y-1393712D01*
X10062858Y-1393082D01*
X10061736Y-1392596D01*
X10061735Y-1392595D01*
X10061020Y-1392286D01*
X10060249Y-1392164D01*
X10060249Y-1392164D01*
X10056706Y-1391603D01*
X10055562Y-1391366D01*
X10052087Y-1390473D01*
X10052086Y-1390473D01*
X10051332Y-1390280D01*
X10050552Y-1390280D01*
X10049328Y-1390280D01*
X10047390Y-1390127D01*
X10045410Y-1389814D01*
X10044634Y-1389887D01*
X10044633Y-1389887D01*
X10041062Y-1390225D01*
X10039895Y-1390280D01*
X10011115Y-1390280D01*
X10006369Y-1389336D01*
X10002347Y-1386648D01*
X9524236Y-908537D01*
X9521352Y-904010D01*
X9520651Y-898688D01*
X9522265Y-893569D01*
X9523782Y-890941D01*
X9525118Y-888628D01*
X9530967Y-870625D01*
X9532946Y-851800D01*
X9530967Y-832974D01*
X9525118Y-814971D01*
X9515653Y-798578D01*
X9511332Y-793779D01*
X9503422Y-784994D01*
X9503422Y-784994D01*
X9502987Y-784511D01*
X9502461Y-784129D01*
X9502461Y-784129D01*
X9488199Y-773767D01*
X9488199Y-773766D01*
X9487673Y-773385D01*
X9487079Y-773120D01*
X9470975Y-765950D01*
X9470974Y-765950D01*
X9470380Y-765685D01*
X9469744Y-765550D01*
X9469744Y-765550D01*
X9452501Y-761885D01*
X9452501Y-761885D01*
X9451865Y-761750D01*
X9432935Y-761750D01*
X9432300Y-761885D01*
X9432299Y-761885D01*
X9415056Y-765550D01*
X9415055Y-765550D01*
X9414420Y-765685D01*
X9413826Y-765949D01*
X9413825Y-765950D01*
X9397721Y-773120D01*
X9397720Y-773120D01*
X9397127Y-773385D01*
X9396602Y-773766D01*
X9396601Y-773767D01*
X9386189Y-781332D01*
X9381478Y-783429D01*
X9376322Y-783429D01*
X9371612Y-781332D01*
X9361199Y-773767D01*
X9361199Y-773766D01*
X9360673Y-773385D01*
X9360079Y-773120D01*
X9343975Y-765950D01*
X9343974Y-765950D01*
X9343380Y-765685D01*
X9342744Y-765550D01*
X9342744Y-765550D01*
X9325501Y-761885D01*
X9325501Y-761885D01*
X9324865Y-761750D01*
X9305935Y-761750D01*
X9305300Y-761885D01*
X9305299Y-761885D01*
X9288056Y-765550D01*
X9288055Y-765550D01*
X9287420Y-765685D01*
X9286826Y-765949D01*
X9286825Y-765950D01*
X9270721Y-773120D01*
X9270720Y-773120D01*
X9270127Y-773385D01*
X9269602Y-773766D01*
X9269601Y-773767D01*
X9259189Y-781332D01*
X9254478Y-783429D01*
X9249322Y-783429D01*
X9244612Y-781332D01*
X9234199Y-773767D01*
X9234199Y-773766D01*
X9233673Y-773385D01*
X9233079Y-773120D01*
X9216975Y-765950D01*
X9216974Y-765950D01*
X9216380Y-765685D01*
X9215744Y-765550D01*
X9215744Y-765550D01*
X9198501Y-761885D01*
X9198501Y-761885D01*
X9197865Y-761750D01*
X9178935Y-761750D01*
X9178300Y-761885D01*
X9178299Y-761885D01*
X9161056Y-765550D01*
X9161055Y-765550D01*
X9160420Y-765685D01*
X9159826Y-765949D01*
X9159825Y-765950D01*
X9143721Y-773120D01*
X9143720Y-773120D01*
X9143127Y-773385D01*
X9142602Y-773766D01*
X9142601Y-773767D01*
X9132189Y-781332D01*
X9127478Y-783429D01*
X9122322Y-783429D01*
X9117612Y-781332D01*
X9107199Y-773767D01*
X9107199Y-773766D01*
X9106673Y-773385D01*
X9106079Y-773120D01*
X9089975Y-765950D01*
X9089974Y-765950D01*
X9089380Y-765685D01*
X9088744Y-765550D01*
X9088744Y-765550D01*
X9071501Y-761885D01*
X9071501Y-761885D01*
X9070865Y-761750D01*
X9051935Y-761750D01*
X9051300Y-761885D01*
X9051299Y-761885D01*
X9034056Y-765550D01*
X9034055Y-765550D01*
X9033420Y-765685D01*
X9032826Y-765949D01*
X9032825Y-765950D01*
X9016721Y-773120D01*
X9016720Y-773120D01*
X9016127Y-773385D01*
X9015602Y-773766D01*
X9015601Y-773767D01*
X9001339Y-784129D01*
X9001338Y-784129D01*
X9000813Y-784511D01*
X9000378Y-784993D01*
X9000378Y-784994D01*
X8988581Y-798095D01*
X8988581Y-798096D01*
X8988147Y-798578D01*
X8987822Y-799140D01*
X8987822Y-799141D01*
X8979007Y-814409D01*
X8979007Y-814409D01*
X8978682Y-814971D01*
X8978482Y-815588D01*
X8978481Y-815589D01*
X8973033Y-832356D01*
X8973033Y-832357D01*
X8972833Y-832974D01*
X8972765Y-833620D01*
X8972765Y-833620D01*
X8972478Y-836346D01*
X8970426Y-841984D01*
X8965968Y-845998D01*
X8960146Y-847450D01*
X8901045Y-847450D01*
X8896300Y-846506D01*
X8892277Y-843818D01*
X8856182Y-807722D01*
X8853494Y-803700D01*
X8852550Y-798954D01*
X8852550Y-549777D01*
X8852602Y-548672D01*
X8852767Y-547933D01*
X8852556Y-541214D01*
X8852550Y-540825D01*
X8852550Y-538454D01*
X8852550Y-538065D01*
X8852500Y-537668D01*
X8852408Y-536502D01*
X8852392Y-535994D01*
X8852271Y-532137D01*
X8851712Y-530214D01*
X8851317Y-528308D01*
X8851164Y-527094D01*
X8851066Y-526321D01*
X8849458Y-522259D01*
X8849080Y-521155D01*
X8848080Y-517710D01*
X8848079Y-517710D01*
X8847862Y-516961D01*
X8846842Y-515236D01*
X8846528Y-514596D01*
X12105350Y-514596D01*
X12105373Y-514866D01*
X12105374Y-514866D01*
X12106819Y-531388D01*
X12106894Y-532241D01*
X12107034Y-532763D01*
X12107034Y-532763D01*
X12112869Y-554543D01*
X12112870Y-554544D01*
X12113010Y-555066D01*
X12122996Y-576483D01*
X12123307Y-576926D01*
X12123307Y-576927D01*
X12123742Y-577548D01*
X12136550Y-595840D01*
X12153260Y-612549D01*
X12153703Y-612860D01*
X12153703Y-612860D01*
X12164641Y-620518D01*
X12172617Y-626103D01*
X12173107Y-626332D01*
X12173107Y-626332D01*
X12175527Y-627460D01*
X12194034Y-636090D01*
X12216859Y-642206D01*
X12240400Y-644266D01*
X12263941Y-642206D01*
X12286766Y-636090D01*
X12308183Y-626103D01*
X12327540Y-612549D01*
X12344249Y-595840D01*
X12355273Y-580096D01*
X12359705Y-576210D01*
X12365430Y-574809D01*
X12371156Y-576210D01*
X12375588Y-580096D01*
X12386278Y-595364D01*
X12386972Y-596190D01*
X12402909Y-612128D01*
X12403736Y-612821D01*
X12422199Y-625750D01*
X12423132Y-626288D01*
X12443560Y-635814D01*
X12444574Y-636183D01*
X12464022Y-641394D01*
X12465145Y-641431D01*
X12465400Y-640337D01*
X12515400Y-640337D01*
X12515655Y-641431D01*
X12516778Y-641394D01*
X12536226Y-636183D01*
X12537240Y-635814D01*
X12557667Y-626289D01*
X12558602Y-625749D01*
X12577064Y-612821D01*
X12577890Y-612128D01*
X12592293Y-597725D01*
X12597333Y-594667D01*
X12603215Y-594281D01*
X12608610Y-596655D01*
X12611841Y-600681D01*
X12611919Y-600633D01*
X12620750Y-614951D01*
X12620750Y-614951D01*
X12621129Y-615565D01*
X12633534Y-627971D01*
X12634148Y-628350D01*
X12634149Y-628350D01*
X12638343Y-630937D01*
X12648467Y-637181D01*
X12665120Y-642700D01*
X12675399Y-643750D01*
X12805401Y-643750D01*
X12815680Y-642700D01*
X12832333Y-637181D01*
X12847266Y-627971D01*
X12859671Y-615565D01*
X12868881Y-600633D01*
X12874400Y-583979D01*
X12875450Y-573701D01*
X12875450Y-519377D01*
X14135233Y-519377D01*
X14135900Y-520544D01*
X14348846Y-733490D01*
X14350000Y-734156D01*
X14351154Y-733490D01*
X14564100Y-520544D01*
X14564767Y-519377D01*
X14564084Y-518253D01*
X14563684Y-517914D01*
X14535730Y-496664D01*
X14535176Y-496288D01*
X14505090Y-478186D01*
X14504496Y-477871D01*
X14472630Y-463128D01*
X14472006Y-462880D01*
X14438731Y-451668D01*
X14438087Y-451489D01*
X14403795Y-443941D01*
X14403132Y-443832D01*
X14368226Y-440036D01*
X14367556Y-440000D01*
X14332444Y-440000D01*
X14331774Y-440036D01*
X14296868Y-443832D01*
X14296205Y-443941D01*
X14261913Y-451489D01*
X14261268Y-451668D01*
X14227994Y-462880D01*
X14227369Y-463128D01*
X14195504Y-477871D01*
X14194910Y-478186D01*
X14164824Y-496288D01*
X14164269Y-496664D01*
X14136315Y-517914D01*
X14135916Y-518253D01*
X14135233Y-519377D01*
X12875450Y-519377D01*
X12875450Y-418699D01*
X12874400Y-408420D01*
X12868881Y-391766D01*
X12861768Y-380233D01*
X12860050Y-377448D01*
X12860050Y-377448D01*
X12859671Y-376834D01*
X12847266Y-364428D01*
X12846651Y-364050D01*
X12846651Y-364049D01*
X12833851Y-356154D01*
X12832333Y-355218D01*
X12828250Y-353865D01*
X12816322Y-349913D01*
X12816322Y-349913D01*
X12815680Y-349700D01*
X12815006Y-349631D01*
X12815006Y-349631D01*
X12805714Y-348682D01*
X12805712Y-348682D01*
X12805401Y-348650D01*
X12805086Y-348650D01*
X12675714Y-348650D01*
X12675712Y-348650D01*
X12675399Y-348650D01*
X12675086Y-348682D01*
X12675086Y-348682D01*
X12665794Y-349631D01*
X12665793Y-349631D01*
X12665120Y-349700D01*
X12664478Y-349912D01*
X12664478Y-349913D01*
X12649152Y-354991D01*
X12649152Y-354991D01*
X12648467Y-355218D01*
X12647852Y-355597D01*
X12647852Y-355597D01*
X12634149Y-364049D01*
X12634148Y-364050D01*
X12633534Y-364428D01*
X12633024Y-364939D01*
X12633024Y-364939D01*
X12621639Y-376323D01*
X12621639Y-376324D01*
X12621129Y-376834D01*
X12620750Y-377448D01*
X12620750Y-377448D01*
X12611919Y-391766D01*
X12611841Y-391718D01*
X12608610Y-395744D01*
X12603215Y-398118D01*
X12597333Y-397732D01*
X12592294Y-394674D01*
X12577891Y-380272D01*
X12577064Y-379578D01*
X12558601Y-366650D01*
X12557668Y-366111D01*
X12537240Y-356585D01*
X12536226Y-356216D01*
X12516778Y-351005D01*
X12515655Y-350968D01*
X12515400Y-352063D01*
X12515400Y-640337D01*
X12465400Y-640337D01*
X12465400Y-352063D01*
X12465145Y-350968D01*
X12464022Y-351005D01*
X12444574Y-356216D01*
X12443560Y-356585D01*
X12423133Y-366111D01*
X12422198Y-366650D01*
X12403736Y-379578D01*
X12402909Y-380272D01*
X12386972Y-396209D01*
X12386279Y-397035D01*
X12375588Y-412303D01*
X12371156Y-416189D01*
X12365430Y-417591D01*
X12359705Y-416189D01*
X12355273Y-412303D01*
X12355247Y-412266D01*
X12344249Y-396560D01*
X12327540Y-379850D01*
X12327097Y-379540D01*
X12327097Y-379540D01*
X12308626Y-366606D01*
X12308626Y-366606D01*
X12308183Y-366296D01*
X12307693Y-366068D01*
X12307693Y-366067D01*
X12287257Y-356538D01*
X12287257Y-356538D01*
X12286766Y-356309D01*
X12286244Y-356169D01*
X12286243Y-356169D01*
X12264463Y-350333D01*
X12264463Y-350333D01*
X12263941Y-350193D01*
X12263402Y-350146D01*
X12263402Y-350146D01*
X12240939Y-348181D01*
X12240400Y-348134D01*
X12239860Y-348181D01*
X12217398Y-350146D01*
X12217398Y-350146D01*
X12216859Y-350193D01*
X12216337Y-350333D01*
X12216336Y-350333D01*
X12194557Y-356169D01*
X12194556Y-356169D01*
X12194034Y-356309D01*
X12193543Y-356538D01*
X12193543Y-356538D01*
X12173108Y-366067D01*
X12173108Y-366067D01*
X12172617Y-366296D01*
X12172174Y-366606D01*
X12172173Y-366607D01*
X12153703Y-379540D01*
X12153703Y-379540D01*
X12153260Y-379850D01*
X12152877Y-380232D01*
X12152877Y-380233D01*
X12136933Y-396177D01*
X12136933Y-396177D01*
X12136550Y-396560D01*
X12136240Y-397003D01*
X12136240Y-397003D01*
X12123307Y-415473D01*
X12123307Y-415473D01*
X12122996Y-415917D01*
X12122768Y-416407D01*
X12122767Y-416408D01*
X12113239Y-436842D01*
X12113238Y-436843D01*
X12113010Y-437333D01*
X12112870Y-437855D01*
X12112869Y-437857D01*
X12107034Y-459636D01*
X12107033Y-459637D01*
X12106894Y-460159D01*
X12106846Y-460697D01*
X12106846Y-460698D01*
X12106634Y-463128D01*
X12105350Y-477803D01*
X12105350Y-514596D01*
X8846528Y-514596D01*
X8845986Y-513490D01*
X8845249Y-511626D01*
X8842681Y-508092D01*
X8842040Y-507117D01*
X8840214Y-504029D01*
X8840214Y-504029D01*
X8839817Y-503358D01*
X8838401Y-501941D01*
X8837137Y-500462D01*
X8835959Y-498841D01*
X8835358Y-498344D01*
X8835358Y-498343D01*
X8832594Y-496057D01*
X8831730Y-495271D01*
X8658024Y-321564D01*
X8654814Y-316006D01*
X8654814Y-309587D01*
X8657506Y-299541D01*
X8659566Y-276000D01*
X8657506Y-252459D01*
X8651390Y-229633D01*
X8641404Y-208217D01*
X8627850Y-188860D01*
X8611140Y-172150D01*
X8610697Y-171840D01*
X8610697Y-171840D01*
X8592226Y-158906D01*
X8592226Y-158906D01*
X8591783Y-158596D01*
X8591293Y-158368D01*
X8591293Y-158368D01*
X8570857Y-148838D01*
X8570857Y-148838D01*
X8570366Y-148609D01*
X8569844Y-148469D01*
X8569843Y-148469D01*
X8548063Y-142633D01*
X8548063Y-142633D01*
X8547541Y-142493D01*
X8547002Y-142446D01*
X8547002Y-142446D01*
X8524540Y-140481D01*
X8524000Y-140434D01*
X8523461Y-140481D01*
X8500999Y-142446D01*
X8500998Y-142446D01*
X8500459Y-142493D01*
X8499937Y-142633D01*
X8499936Y-142634D01*
X8490412Y-145185D01*
X8483994Y-145185D01*
X8478435Y-141976D01*
X8456229Y-119769D01*
X8455484Y-118951D01*
X8455079Y-118312D01*
X8450178Y-113709D01*
X8449898Y-113438D01*
X8448223Y-111763D01*
X8447947Y-111488D01*
X8447629Y-111241D01*
X8446741Y-110483D01*
X8444127Y-108027D01*
X8444127Y-108027D01*
X8443558Y-107493D01*
X8442875Y-107118D01*
X8442874Y-107117D01*
X8441803Y-106528D01*
X8440177Y-105460D01*
X8439210Y-104710D01*
X8439209Y-104710D01*
X8438594Y-104232D01*
X8437878Y-103923D01*
X8437878Y-103922D01*
X8434585Y-102497D01*
X8433536Y-101984D01*
X8430393Y-100256D01*
X8430392Y-100255D01*
X8429709Y-99880D01*
X8428954Y-99686D01*
X8428953Y-99686D01*
X8427769Y-99382D01*
X8425928Y-98752D01*
X8424806Y-98266D01*
X8424805Y-98265D01*
X8424090Y-97956D01*
X8423319Y-97834D01*
X8423319Y-97834D01*
X8419776Y-97273D01*
X8418632Y-97036D01*
X8415157Y-96143D01*
X8415156Y-96143D01*
X8414402Y-95950D01*
X8413622Y-95950D01*
X8413184Y-95894D01*
X8408151Y-93900D01*
X8407759Y-94292D01*
X8401565Y-95950D01*
X7979205Y-95950D01*
X7974460Y-95006D01*
X7970437Y-92318D01*
X7969072Y-90953D01*
X7966045Y-86009D01*
X7965596Y-80229D01*
X7967823Y-74877D01*
X7972239Y-71122D01*
X7977880Y-69785D01*
X8401605Y-71150D01*
X8407794Y-72828D01*
X8408215Y-73250D01*
X8408793Y-72710D01*
X8414778Y-71192D01*
X14265775Y-90036D01*
X14269757Y-90707D01*
X14273313Y-92621D01*
X14274326Y-93403D01*
X14281347Y-98825D01*
X14281381Y-98851D01*
X14846877Y-538682D01*
X16065063Y-1486160D01*
X16068606Y-1490534D01*
X16069849Y-1496025D01*
X16049988Y-4663959D01*
X16048710Y-4669364D01*
X16045201Y-4673669D01*
X14253341Y-6067338D01*
X14249752Y-6069278D01*
X14245728Y-6069950D01*
X1854272Y-6069950D01*
X1850248Y-6069278D01*
X1846659Y-6067338D01*
X758025Y-5220623D01*
X758025Y-5220622D01*
X1635233Y-5220622D01*
X1635916Y-5221746D01*
X1636316Y-5222086D01*
X1664269Y-5243335D01*
X1664824Y-5243711D01*
X1694910Y-5261813D01*
X1695504Y-5262128D01*
X1727369Y-5276871D01*
X1727994Y-5277120D01*
X1761268Y-5288331D01*
X1761913Y-5288510D01*
X1796205Y-5296059D01*
X1796868Y-5296167D01*
X1831774Y-5299963D01*
X1832444Y-5300000D01*
X1867556Y-5300000D01*
X1868226Y-5299963D01*
X1903132Y-5296167D01*
X1903795Y-5296059D01*
X1938087Y-5288510D01*
X1938731Y-5288331D01*
X1972006Y-5277120D01*
X1972630Y-5276871D01*
X2004496Y-5262128D01*
X2005090Y-5261813D01*
X2035176Y-5243711D01*
X2035730Y-5243335D01*
X2063685Y-5222085D01*
X2064084Y-5221746D01*
X2064767Y-5220623D01*
X2064100Y-5219455D01*
X1851154Y-5006509D01*
X1850000Y-5005843D01*
X1848846Y-5006509D01*
X1635900Y-5219455D01*
X1635233Y-5220622D01*
X758025Y-5220622D01*
X436227Y-4970335D01*
X1519533Y-4970335D01*
X1521434Y-5005396D01*
X1521507Y-5006063D01*
X1527187Y-5040713D01*
X1527332Y-5041368D01*
X1536725Y-5075200D01*
X1536940Y-5075837D01*
X1549936Y-5108455D01*
X1550217Y-5109062D01*
X1566665Y-5140087D01*
X1567010Y-5140660D01*
X1586715Y-5169722D01*
X1587121Y-5170256D01*
X1598532Y-5183691D01*
X1599666Y-5184452D01*
X1600859Y-5183785D01*
X1813490Y-4971154D01*
X1814157Y-4970000D01*
X1885843Y-4970000D01*
X1886509Y-4971154D01*
X2099141Y-5183785D01*
X2100333Y-5184452D01*
X2101468Y-5183691D01*
X2112879Y-5170256D01*
X2113285Y-5169722D01*
X2132990Y-5140660D01*
X2133335Y-5140087D01*
X2149783Y-5109062D01*
X2150064Y-5108455D01*
X2163060Y-5075837D01*
X2163275Y-5075200D01*
X2172668Y-5041368D01*
X2172813Y-5040713D01*
X2178493Y-5006063D01*
X2178566Y-5005396D01*
X2180467Y-4970335D01*
X2180467Y-4969664D01*
X2178566Y-4934604D01*
X2178493Y-4933937D01*
X2172813Y-4899287D01*
X2172668Y-4898631D01*
X2163275Y-4864800D01*
X2163060Y-4864163D01*
X2150064Y-4831544D01*
X2149783Y-4830937D01*
X2133335Y-4799913D01*
X2132990Y-4799339D01*
X2113285Y-4770277D01*
X2112879Y-4769743D01*
X2101468Y-4756309D01*
X2100333Y-4755547D01*
X2099141Y-4756214D01*
X1886509Y-4968845D01*
X1885843Y-4970000D01*
X1814157Y-4970000D01*
X1813490Y-4968845D01*
X1600859Y-4756214D01*
X1599666Y-4755547D01*
X1598532Y-4756309D01*
X1587121Y-4769743D01*
X1586715Y-4770277D01*
X1567010Y-4799339D01*
X1566665Y-4799913D01*
X1550217Y-4830937D01*
X1549936Y-4831544D01*
X1536940Y-4864163D01*
X1536725Y-4864800D01*
X1527332Y-4898631D01*
X1527187Y-4899287D01*
X1521507Y-4933937D01*
X1521434Y-4934604D01*
X1519533Y-4969664D01*
X1519533Y-4970335D01*
X436227Y-4970335D01*
X113566Y-4719377D01*
X1635233Y-4719377D01*
X1635900Y-4720545D01*
X1848846Y-4933490D01*
X1850000Y-4934157D01*
X1851154Y-4933490D01*
X2064100Y-4720544D01*
X2064767Y-4719377D01*
X2064084Y-4718253D01*
X2063684Y-4717914D01*
X2035730Y-4696664D01*
X2035176Y-4696288D01*
X2005090Y-4678186D01*
X2004496Y-4677871D01*
X1972630Y-4663128D01*
X1972006Y-4662880D01*
X1938731Y-4651668D01*
X1938087Y-4651489D01*
X1903795Y-4643941D01*
X1903132Y-4643832D01*
X1868226Y-4640036D01*
X1867556Y-4640000D01*
X1832444Y-4640000D01*
X1831774Y-4640036D01*
X1796868Y-4643832D01*
X1796205Y-4643941D01*
X1761913Y-4651489D01*
X1761268Y-4651668D01*
X1727994Y-4662880D01*
X1727369Y-4663128D01*
X1695504Y-4677871D01*
X1694910Y-4678186D01*
X1664824Y-4696288D01*
X1664269Y-4696664D01*
X1636315Y-4717914D01*
X1635916Y-4718253D01*
X1635233Y-4719377D01*
X113566Y-4719377D01*
X54837Y-4673699D01*
X51311Y-4669359D01*
X50050Y-4663911D01*
X50050Y-3899800D01*
X6278454Y-3899800D01*
X6278522Y-3900446D01*
X6280365Y-3917979D01*
X6280365Y-3917980D01*
X6280433Y-3918625D01*
X6280633Y-3919242D01*
X6280633Y-3919243D01*
X6285834Y-3935249D01*
X6286282Y-3936628D01*
X6295747Y-3953021D01*
X6296181Y-3953504D01*
X6296181Y-3953504D01*
X6304996Y-3963294D01*
X6308413Y-3967088D01*
X6323727Y-3978215D01*
X6341020Y-3985914D01*
X6359535Y-3989850D01*
X6377814Y-3989850D01*
X6378465Y-3989850D01*
X6396980Y-3985914D01*
X6414273Y-3978215D01*
X6429587Y-3967088D01*
X6430160Y-3966452D01*
X6430327Y-3966331D01*
X6430505Y-3966171D01*
X6430522Y-3966189D01*
X6434331Y-3963422D01*
X6439375Y-3962350D01*
X6617355Y-3962350D01*
X6622100Y-3963294D01*
X6626123Y-3965982D01*
X7240304Y-4580163D01*
X7242728Y-4583592D01*
X7243868Y-4587634D01*
X7245489Y-4603064D01*
X7245633Y-4604425D01*
X7245833Y-4605043D01*
X7245833Y-4605043D01*
X7251034Y-4621049D01*
X7251482Y-4622428D01*
X7251807Y-4622991D01*
X7251807Y-4622991D01*
X7258490Y-4634567D01*
X7260947Y-4638821D01*
X7261381Y-4639304D01*
X7261381Y-4639304D01*
X7272514Y-4651668D01*
X7273613Y-4652889D01*
X7288927Y-4664015D01*
X7306220Y-4671714D01*
X7324735Y-4675650D01*
X7343014Y-4675650D01*
X7343665Y-4675650D01*
X7362180Y-4671714D01*
X7379473Y-4664015D01*
X7394787Y-4652889D01*
X7407453Y-4638821D01*
X7416918Y-4622428D01*
X7422767Y-4604425D01*
X7423070Y-4601543D01*
X7424933Y-4596195D01*
X7428979Y-4592232D01*
X7434365Y-4590482D01*
X7439967Y-4591309D01*
X7444617Y-4594541D01*
X7451413Y-4602089D01*
X7451939Y-4602471D01*
X7451939Y-4602471D01*
X7456760Y-4605973D01*
X7466727Y-4613215D01*
X7484020Y-4620914D01*
X7502535Y-4624850D01*
X7520814Y-4624850D01*
X7521465Y-4624850D01*
X7539980Y-4620914D01*
X7557273Y-4613215D01*
X7572587Y-4602089D01*
X7573160Y-4601452D01*
X7573327Y-4601331D01*
X7573505Y-4601171D01*
X7573522Y-4601189D01*
X7577331Y-4598422D01*
X7582375Y-4597350D01*
X8076516Y-4597350D01*
X8081261Y-4598294D01*
X8085284Y-4600982D01*
X8115563Y-4631261D01*
X8407632Y-4923330D01*
X8408377Y-4924148D01*
X8408782Y-4924787D01*
X8413683Y-4929390D01*
X8413963Y-4929661D01*
X8415914Y-4931612D01*
X8416232Y-4931858D01*
X8417118Y-4932615D01*
X8418050Y-4933490D01*
X8419734Y-4935072D01*
X8419734Y-4935072D01*
X8420303Y-4935606D01*
X8420986Y-4935982D01*
X8420986Y-4935982D01*
X8422058Y-4936571D01*
X8423684Y-4937639D01*
X8425267Y-4938867D01*
X8429276Y-4940602D01*
X8430324Y-4941115D01*
X8434152Y-4943219D01*
X8436093Y-4943718D01*
X8437933Y-4944348D01*
X8439055Y-4944834D01*
X8439056Y-4944834D01*
X8439771Y-4945143D01*
X8444087Y-4945827D01*
X8445225Y-4946063D01*
X8449459Y-4947150D01*
X8451463Y-4947150D01*
X8453402Y-4947302D01*
X8454610Y-4947494D01*
X8454610Y-4947494D01*
X8455381Y-4947616D01*
X8459189Y-4947256D01*
X8459729Y-4947205D01*
X8460895Y-4947150D01*
X9028098Y-4947150D01*
X9039935Y-4947150D01*
X9786555Y-4947150D01*
X9791300Y-4948094D01*
X9795323Y-4950782D01*
X10059704Y-5215163D01*
X10062128Y-5218592D01*
X10063268Y-5222634D01*
X10064965Y-5238779D01*
X10065033Y-5239425D01*
X10065233Y-5240043D01*
X10065233Y-5240043D01*
X10070681Y-5256810D01*
X10070882Y-5257428D01*
X10071207Y-5257991D01*
X10071207Y-5257991D01*
X10074746Y-5264121D01*
X10080347Y-5273821D01*
X10080781Y-5274304D01*
X10080781Y-5274304D01*
X10083317Y-5277120D01*
X10093013Y-5287889D01*
X10093539Y-5288271D01*
X10093539Y-5288271D01*
X10099933Y-5292916D01*
X10108327Y-5299015D01*
X10125620Y-5306714D01*
X10144135Y-5310650D01*
X10162414Y-5310650D01*
X10163065Y-5310650D01*
X10181580Y-5306714D01*
X10198873Y-5299015D01*
X10214187Y-5287889D01*
X10226853Y-5273821D01*
X10236318Y-5257428D01*
X10242167Y-5239425D01*
X10244146Y-5220600D01*
X10242167Y-5201774D01*
X10236800Y-5185255D01*
X11542269Y-5185255D01*
X11542306Y-5186378D01*
X11547517Y-5205826D01*
X11547886Y-5206839D01*
X11557411Y-5227266D01*
X11557951Y-5228201D01*
X11570878Y-5246664D01*
X11571572Y-5247490D01*
X11587509Y-5263428D01*
X11588336Y-5264121D01*
X11606798Y-5277049D01*
X11607733Y-5277589D01*
X11628160Y-5287114D01*
X11629174Y-5287483D01*
X11650945Y-5293316D01*
X11652008Y-5293504D01*
X11663282Y-5294490D01*
X11664626Y-5294233D01*
X11665000Y-5292916D01*
X11715000Y-5292916D01*
X11715373Y-5294233D01*
X11716718Y-5294490D01*
X11727992Y-5293504D01*
X11729055Y-5293316D01*
X11750826Y-5287483D01*
X11751840Y-5287114D01*
X11772267Y-5277589D01*
X11773202Y-5277049D01*
X11791664Y-5264121D01*
X11792491Y-5263428D01*
X11808428Y-5247491D01*
X11809121Y-5246664D01*
X11822050Y-5228201D01*
X11822589Y-5227267D01*
X11825687Y-5220622D01*
X14135233Y-5220622D01*
X14135916Y-5221746D01*
X14136316Y-5222086D01*
X14164269Y-5243335D01*
X14164824Y-5243711D01*
X14194910Y-5261813D01*
X14195504Y-5262128D01*
X14227369Y-5276871D01*
X14227994Y-5277120D01*
X14261268Y-5288331D01*
X14261913Y-5288510D01*
X14296205Y-5296059D01*
X14296868Y-5296167D01*
X14331774Y-5299963D01*
X14332444Y-5300000D01*
X14367556Y-5300000D01*
X14368226Y-5299963D01*
X14403132Y-5296167D01*
X14403795Y-5296059D01*
X14438087Y-5288510D01*
X14438731Y-5288331D01*
X14472006Y-5277120D01*
X14472630Y-5276871D01*
X14504496Y-5262128D01*
X14505090Y-5261813D01*
X14535176Y-5243711D01*
X14535730Y-5243335D01*
X14563685Y-5222085D01*
X14564084Y-5221746D01*
X14564767Y-5220623D01*
X14564100Y-5219455D01*
X14351154Y-5006509D01*
X14350000Y-5005843D01*
X14348846Y-5006509D01*
X14135900Y-5219455D01*
X14135233Y-5220622D01*
X11825687Y-5220622D01*
X11832114Y-5206839D01*
X11832483Y-5205826D01*
X11837694Y-5186378D01*
X11837731Y-5185255D01*
X11836637Y-5185000D01*
X11716633Y-5185000D01*
X11715345Y-5185345D01*
X11715000Y-5186632D01*
X11715000Y-5292916D01*
X11665000Y-5292916D01*
X11665000Y-5186632D01*
X11664655Y-5185345D01*
X11663367Y-5185000D01*
X11543363Y-5185000D01*
X11542269Y-5185255D01*
X10236800Y-5185255D01*
X10236318Y-5183771D01*
X10226853Y-5167378D01*
X10214187Y-5153311D01*
X10213661Y-5152929D01*
X10213661Y-5152929D01*
X10199399Y-5142567D01*
X10199399Y-5142567D01*
X10198873Y-5142185D01*
X10198279Y-5141920D01*
X10182175Y-5134750D01*
X10182174Y-5134750D01*
X10181580Y-5134485D01*
X10180944Y-5134350D01*
X10180944Y-5134350D01*
X10163701Y-5130685D01*
X10163701Y-5130685D01*
X10163065Y-5130550D01*
X10162414Y-5130550D01*
X10157145Y-5130550D01*
X10152400Y-5129606D01*
X10148377Y-5126918D01*
X9996147Y-4974688D01*
X11539950Y-4974688D01*
X11539950Y-4975001D01*
X11539982Y-4975314D01*
X11539982Y-4975314D01*
X11540931Y-4984606D01*
X11540931Y-4984607D01*
X11541000Y-4985279D01*
X11546519Y-5001933D01*
X11546898Y-5002548D01*
X11555350Y-5016251D01*
X11555350Y-5016251D01*
X11555729Y-5016865D01*
X11568134Y-5029271D01*
X11568748Y-5029650D01*
X11568749Y-5029650D01*
X11583067Y-5038481D01*
X11583019Y-5038559D01*
X11587044Y-5041789D01*
X11589418Y-5047184D01*
X11589033Y-5053066D01*
X11585975Y-5058106D01*
X11571572Y-5072509D01*
X11570878Y-5073335D01*
X11557950Y-5091799D01*
X11557411Y-5092732D01*
X11547886Y-5113160D01*
X11547517Y-5114173D01*
X11542306Y-5133622D01*
X11542269Y-5134745D01*
X11543363Y-5135000D01*
X11836637Y-5135000D01*
X11837731Y-5134745D01*
X11837694Y-5133622D01*
X11832483Y-5114173D01*
X11832114Y-5113160D01*
X11822589Y-5092733D01*
X11822049Y-5091798D01*
X11809121Y-5073335D01*
X11808428Y-5072509D01*
X11794025Y-5058106D01*
X11790967Y-5053066D01*
X11790582Y-5047184D01*
X11792956Y-5041788D01*
X11796981Y-5038559D01*
X11796933Y-5038481D01*
X11811251Y-5029650D01*
X11811866Y-5029271D01*
X11824271Y-5016865D01*
X11833481Y-5001933D01*
X11839000Y-4985279D01*
X11840050Y-4975001D01*
X11840050Y-4970335D01*
X14019533Y-4970335D01*
X14021434Y-5005396D01*
X14021507Y-5006063D01*
X14027187Y-5040713D01*
X14027332Y-5041368D01*
X14036725Y-5075200D01*
X14036940Y-5075837D01*
X14049936Y-5108455D01*
X14050217Y-5109062D01*
X14066665Y-5140087D01*
X14067010Y-5140660D01*
X14086715Y-5169722D01*
X14087121Y-5170256D01*
X14098532Y-5183691D01*
X14099666Y-5184452D01*
X14100859Y-5183785D01*
X14313490Y-4971154D01*
X14314157Y-4970000D01*
X14385843Y-4970000D01*
X14386509Y-4971154D01*
X14599141Y-5183785D01*
X14600333Y-5184452D01*
X14601468Y-5183691D01*
X14612879Y-5170256D01*
X14613285Y-5169722D01*
X14632990Y-5140660D01*
X14633335Y-5140087D01*
X14649783Y-5109062D01*
X14650064Y-5108455D01*
X14663060Y-5075837D01*
X14663275Y-5075200D01*
X14672668Y-5041368D01*
X14672812Y-5040713D01*
X14678493Y-5006063D01*
X14678566Y-5005396D01*
X14680466Y-4970335D01*
X14680466Y-4969664D01*
X14678566Y-4934604D01*
X14678493Y-4933937D01*
X14672812Y-4899287D01*
X14672668Y-4898631D01*
X14663275Y-4864800D01*
X14663060Y-4864163D01*
X14650064Y-4831544D01*
X14649783Y-4830937D01*
X14633335Y-4799913D01*
X14632990Y-4799339D01*
X14613285Y-4770277D01*
X14612879Y-4769743D01*
X14601468Y-4756309D01*
X14600333Y-4755547D01*
X14599141Y-4756214D01*
X14386509Y-4968845D01*
X14385843Y-4970000D01*
X14314157Y-4970000D01*
X14313490Y-4968845D01*
X14100859Y-4756214D01*
X14099666Y-4755547D01*
X14098532Y-4756309D01*
X14087121Y-4769743D01*
X14086715Y-4770277D01*
X14067010Y-4799339D01*
X14066665Y-4799913D01*
X14050217Y-4830937D01*
X14049936Y-4831544D01*
X14036940Y-4864163D01*
X14036725Y-4864800D01*
X14027332Y-4898631D01*
X14027187Y-4899287D01*
X14021507Y-4933937D01*
X14021434Y-4934604D01*
X14019533Y-4969664D01*
X14019533Y-4970335D01*
X11840050Y-4970335D01*
X11840050Y-4844999D01*
X11839000Y-4834720D01*
X11833481Y-4818066D01*
X11824271Y-4803134D01*
X11811866Y-4790729D01*
X11811251Y-4790350D01*
X11811251Y-4790349D01*
X11797548Y-4781897D01*
X11796933Y-4781518D01*
X11780280Y-4776000D01*
X11779606Y-4775931D01*
X11779606Y-4775931D01*
X11770314Y-4774982D01*
X11770312Y-4774982D01*
X11770001Y-4774950D01*
X11769686Y-4774950D01*
X11610314Y-4774950D01*
X11610312Y-4774950D01*
X11609999Y-4774950D01*
X11609686Y-4774982D01*
X11609686Y-4774982D01*
X11600394Y-4775931D01*
X11600393Y-4775931D01*
X11599720Y-4776000D01*
X11599078Y-4776213D01*
X11599078Y-4776213D01*
X11583752Y-4781291D01*
X11583752Y-4781291D01*
X11583067Y-4781518D01*
X11582452Y-4781897D01*
X11582452Y-4781897D01*
X11568749Y-4790349D01*
X11568748Y-4790350D01*
X11568134Y-4790729D01*
X11567624Y-4791239D01*
X11567624Y-4791239D01*
X11556239Y-4802624D01*
X11556239Y-4802624D01*
X11555729Y-4803134D01*
X11555350Y-4803748D01*
X11555350Y-4803749D01*
X11546898Y-4817452D01*
X11546519Y-4818066D01*
X11546291Y-4818751D01*
X11546291Y-4818752D01*
X11542052Y-4831544D01*
X11541000Y-4834720D01*
X11540931Y-4835393D01*
X11540931Y-4835394D01*
X11539982Y-4844686D01*
X11539982Y-4844687D01*
X11539950Y-4844999D01*
X11539950Y-4845314D01*
X11539950Y-4845314D01*
X11539950Y-4974686D01*
X11539950Y-4974688D01*
X9996147Y-4974688D01*
X9944777Y-4923318D01*
X9941752Y-4918382D01*
X9941298Y-4912610D01*
X9943514Y-4907261D01*
X9947916Y-4903501D01*
X9953545Y-4902150D01*
X10108625Y-4902150D01*
X10113669Y-4903222D01*
X10117478Y-4905989D01*
X10117495Y-4905971D01*
X10117673Y-4906131D01*
X10117840Y-4906252D01*
X10118413Y-4906889D01*
X10133727Y-4918015D01*
X10151020Y-4925714D01*
X10169535Y-4929650D01*
X10187814Y-4929650D01*
X10188465Y-4929650D01*
X10206980Y-4925714D01*
X10224273Y-4918015D01*
X10239587Y-4906889D01*
X10252253Y-4892821D01*
X10261718Y-4876428D01*
X10267567Y-4858425D01*
X10269546Y-4839600D01*
X10267567Y-4820774D01*
X10261718Y-4802771D01*
X10252253Y-4786378D01*
X10251819Y-4785896D01*
X10251818Y-4785895D01*
X10250470Y-4784397D01*
X10247653Y-4779100D01*
X10247653Y-4773100D01*
X10250470Y-4767802D01*
X10251818Y-4766305D01*
X10251818Y-4766304D01*
X10252253Y-4765821D01*
X10261718Y-4749428D01*
X10267567Y-4731425D01*
X10268834Y-4719377D01*
X14135233Y-4719377D01*
X14135900Y-4720545D01*
X14348846Y-4933490D01*
X14350000Y-4934157D01*
X14351154Y-4933490D01*
X14564100Y-4720544D01*
X14564767Y-4719377D01*
X14564084Y-4718253D01*
X14563684Y-4717914D01*
X14535730Y-4696664D01*
X14535176Y-4696288D01*
X14505090Y-4678186D01*
X14504496Y-4677871D01*
X14472630Y-4663128D01*
X14472006Y-4662880D01*
X14438731Y-4651668D01*
X14438087Y-4651489D01*
X14403795Y-4643941D01*
X14403132Y-4643832D01*
X14368226Y-4640036D01*
X14367556Y-4640000D01*
X14332444Y-4640000D01*
X14331774Y-4640036D01*
X14296868Y-4643832D01*
X14296205Y-4643941D01*
X14261913Y-4651489D01*
X14261268Y-4651668D01*
X14227994Y-4662880D01*
X14227369Y-4663128D01*
X14195504Y-4677871D01*
X14194910Y-4678186D01*
X14164824Y-4696288D01*
X14164269Y-4696664D01*
X14136315Y-4717914D01*
X14135916Y-4718253D01*
X14135233Y-4719377D01*
X10268834Y-4719377D01*
X10269546Y-4712600D01*
X10267832Y-4696288D01*
X10267635Y-4694420D01*
X10267635Y-4694420D01*
X10267567Y-4693774D01*
X10261718Y-4675771D01*
X10252253Y-4659378D01*
X10247842Y-4654479D01*
X10240022Y-4645794D01*
X10240022Y-4645794D01*
X10239587Y-4645311D01*
X10239061Y-4644929D01*
X10239061Y-4644929D01*
X10224799Y-4634567D01*
X10224799Y-4634567D01*
X10224273Y-4634185D01*
X10219894Y-4632235D01*
X10207575Y-4626750D01*
X10207574Y-4626750D01*
X10206980Y-4626485D01*
X10206344Y-4626350D01*
X10206344Y-4626350D01*
X10189101Y-4622685D01*
X10189101Y-4622685D01*
X10188465Y-4622550D01*
X10169535Y-4622550D01*
X10168900Y-4622685D01*
X10168899Y-4622685D01*
X10151656Y-4626350D01*
X10151655Y-4626350D01*
X10151020Y-4626485D01*
X10150426Y-4626750D01*
X10150425Y-4626750D01*
X10134321Y-4633920D01*
X10134320Y-4633920D01*
X10133727Y-4634185D01*
X10133202Y-4634566D01*
X10133201Y-4634567D01*
X10118939Y-4644929D01*
X10118938Y-4644929D01*
X10118413Y-4645311D01*
X10117978Y-4645793D01*
X10117978Y-4645794D01*
X10106181Y-4658895D01*
X10106181Y-4658896D01*
X10105747Y-4659378D01*
X10105422Y-4659940D01*
X10105422Y-4659941D01*
X10096607Y-4675209D01*
X10096607Y-4675209D01*
X10096282Y-4675771D01*
X10096082Y-4676389D01*
X10096081Y-4676389D01*
X10090633Y-4693156D01*
X10090633Y-4693157D01*
X10090433Y-4693774D01*
X10090365Y-4694420D01*
X10090365Y-4694420D01*
X10088668Y-4710565D01*
X10087528Y-4714607D01*
X10085104Y-4718037D01*
X10074723Y-4728418D01*
X10070700Y-4731106D01*
X10065955Y-4732050D01*
X10065702Y-4732050D01*
X9831302Y-4732050D01*
X9468952Y-4732050D01*
X9463130Y-4730598D01*
X9458672Y-4726584D01*
X9456620Y-4720946D01*
X9454835Y-4703970D01*
X9454835Y-4703970D01*
X9454767Y-4703324D01*
X9448918Y-4685321D01*
X9439453Y-4668928D01*
X9426787Y-4654861D01*
X9426261Y-4654479D01*
X9426261Y-4654479D01*
X9411999Y-4644117D01*
X9411999Y-4644117D01*
X9411473Y-4643735D01*
X9405559Y-4641102D01*
X9394775Y-4636300D01*
X9394774Y-4636300D01*
X9394180Y-4636035D01*
X9393544Y-4635900D01*
X9393544Y-4635900D01*
X9376301Y-4632235D01*
X9376301Y-4632235D01*
X9375665Y-4632100D01*
X9356735Y-4632100D01*
X9356100Y-4632235D01*
X9356099Y-4632235D01*
X9338856Y-4635900D01*
X9338855Y-4635900D01*
X9338220Y-4636035D01*
X9337626Y-4636300D01*
X9337625Y-4636300D01*
X9321521Y-4643470D01*
X9321520Y-4643470D01*
X9320927Y-4643735D01*
X9320402Y-4644116D01*
X9320401Y-4644117D01*
X9306139Y-4654479D01*
X9306138Y-4654479D01*
X9305613Y-4654861D01*
X9305178Y-4655343D01*
X9305178Y-4655344D01*
X9293381Y-4668445D01*
X9293381Y-4668446D01*
X9292947Y-4668928D01*
X9292622Y-4669490D01*
X9292622Y-4669491D01*
X9286064Y-4680850D01*
X9281525Y-4685388D01*
X9275325Y-4687050D01*
X8561302Y-4687050D01*
X8544325Y-4687050D01*
X8539580Y-4686106D01*
X8535557Y-4683418D01*
X8493241Y-4641102D01*
X8490167Y-4636011D01*
X8489816Y-4630074D01*
X8492271Y-4624657D01*
X8496965Y-4621006D01*
X8504037Y-4617857D01*
X8519351Y-4606731D01*
X8519924Y-4606094D01*
X8520091Y-4605973D01*
X8520269Y-4605813D01*
X8520285Y-4605832D01*
X8524095Y-4603064D01*
X8529138Y-4601992D01*
X8529350Y-4601992D01*
X8530456Y-4602044D01*
X8531194Y-4602209D01*
X8537915Y-4601998D01*
X8538305Y-4601992D01*
X8540673Y-4601992D01*
X8541063Y-4601992D01*
X8541459Y-4601942D01*
X8542624Y-4601850D01*
X8546990Y-4601713D01*
X8548914Y-4601154D01*
X8550819Y-4600760D01*
X8552807Y-4600509D01*
X8556867Y-4598901D01*
X8557973Y-4598522D01*
X8562167Y-4597304D01*
X8563891Y-4596284D01*
X8565638Y-4595428D01*
X8566775Y-4594978D01*
X8566775Y-4594978D01*
X8567501Y-4594691D01*
X8571035Y-4592123D01*
X8572010Y-4591482D01*
X8575770Y-4589259D01*
X8577186Y-4587843D01*
X8578666Y-4586579D01*
X8580286Y-4585402D01*
X8583071Y-4582036D01*
X8583856Y-4581173D01*
X9129086Y-4035943D01*
X9129903Y-4035199D01*
X9130543Y-4034793D01*
X9135147Y-4029890D01*
X9135408Y-4029620D01*
X9137367Y-4027662D01*
X9137613Y-4027344D01*
X9138372Y-4026456D01*
X9141361Y-4023273D01*
X9142326Y-4021517D01*
X9143394Y-4019892D01*
X9144622Y-4018308D01*
X9146357Y-4014300D01*
X9146870Y-4013252D01*
X9148975Y-4009424D01*
X9149473Y-4007483D01*
X9150103Y-4005642D01*
X9150899Y-4003804D01*
X9151582Y-3999489D01*
X9151818Y-3998349D01*
X9152905Y-3994117D01*
X9152905Y-3992113D01*
X9153058Y-3990173D01*
X9153249Y-3988966D01*
X9153249Y-3988966D01*
X9153371Y-3988195D01*
X9152960Y-3983847D01*
X9152905Y-3982680D01*
X9152905Y-3791868D01*
X9153729Y-3787425D01*
X9156090Y-3783571D01*
X9157222Y-3782314D01*
X9163608Y-3775221D01*
X9173073Y-3758828D01*
X9178922Y-3740825D01*
X9180901Y-3722000D01*
X9179765Y-3711189D01*
X9178990Y-3703820D01*
X9178990Y-3703820D01*
X9178922Y-3703174D01*
X9173073Y-3685171D01*
X9163608Y-3668778D01*
X9162937Y-3668033D01*
X9151377Y-3655194D01*
X9151377Y-3655194D01*
X9150942Y-3654711D01*
X9150416Y-3654329D01*
X9150416Y-3654329D01*
X9136154Y-3643967D01*
X9136154Y-3643966D01*
X9135628Y-3643585D01*
X9135034Y-3643320D01*
X9118929Y-3636150D01*
X9118929Y-3636150D01*
X9118335Y-3635885D01*
X9117699Y-3635750D01*
X9117699Y-3635750D01*
X9100456Y-3632085D01*
X9100455Y-3632085D01*
X9099820Y-3631950D01*
X9092855Y-3631950D01*
X9086655Y-3630288D01*
X9082116Y-3625750D01*
X9080455Y-3619550D01*
X9080455Y-3410632D01*
X9080507Y-3409526D01*
X9080672Y-3408788D01*
X9080461Y-3402067D01*
X9080455Y-3401678D01*
X9080455Y-3399309D01*
X9080455Y-3398920D01*
X9080405Y-3398522D01*
X9080313Y-3397356D01*
X9080274Y-3396113D01*
X9080176Y-3392992D01*
X9079617Y-3391069D01*
X9079222Y-3389163D01*
X9079069Y-3387949D01*
X9078971Y-3387175D01*
X9077363Y-3383114D01*
X9076985Y-3382010D01*
X9075984Y-3378565D01*
X9075984Y-3378564D01*
X9075767Y-3377816D01*
X9074747Y-3376091D01*
X9073891Y-3374345D01*
X9073154Y-3372481D01*
X9070586Y-3368947D01*
X9069945Y-3367972D01*
X9068119Y-3364884D01*
X9068119Y-3364884D01*
X9067722Y-3364213D01*
X9066305Y-3362796D01*
X9065042Y-3361317D01*
X9063864Y-3359696D01*
X9063263Y-3359199D01*
X9063263Y-3359198D01*
X9060499Y-3356912D01*
X9059635Y-3356126D01*
X9044509Y-3341000D01*
X10494854Y-3341000D01*
X10494922Y-3341646D01*
X10496765Y-3359179D01*
X10496765Y-3359180D01*
X10496833Y-3359825D01*
X10497033Y-3360442D01*
X10497033Y-3360443D01*
X10502378Y-3376893D01*
X10502682Y-3377828D01*
X10503007Y-3378390D01*
X10503007Y-3378391D01*
X10511750Y-3393534D01*
X10512147Y-3394221D01*
X10512581Y-3394704D01*
X10512581Y-3394704D01*
X10520860Y-3403898D01*
X10524813Y-3408288D01*
X10525339Y-3408670D01*
X10525339Y-3408671D01*
X10528385Y-3410883D01*
X10540127Y-3419415D01*
X10557420Y-3427114D01*
X10575935Y-3431050D01*
X10581855Y-3431050D01*
X10586600Y-3431994D01*
X10590623Y-3434681D01*
X10848753Y-3692812D01*
X10848753Y-3692812D01*
X10848754Y-3692812D01*
X11323818Y-4167877D01*
X11326506Y-4171900D01*
X11327450Y-4176645D01*
X11327450Y-4540131D01*
X11326626Y-4544575D01*
X11324265Y-4548428D01*
X11317181Y-4556295D01*
X11317181Y-4556296D01*
X11316747Y-4556778D01*
X11316422Y-4557340D01*
X11316422Y-4557341D01*
X11307607Y-4572609D01*
X11307607Y-4572609D01*
X11307282Y-4573171D01*
X11307081Y-4573789D01*
X11307081Y-4573789D01*
X11301633Y-4590556D01*
X11301633Y-4590557D01*
X11301433Y-4591174D01*
X11301365Y-4591819D01*
X11301365Y-4591820D01*
X11299757Y-4607113D01*
X11299454Y-4610000D01*
X11299522Y-4610646D01*
X11301365Y-4628179D01*
X11301365Y-4628180D01*
X11301433Y-4628825D01*
X11301633Y-4629443D01*
X11301633Y-4629443D01*
X11307081Y-4646210D01*
X11307282Y-4646828D01*
X11307607Y-4647391D01*
X11307607Y-4647391D01*
X11311699Y-4654479D01*
X11316747Y-4663221D01*
X11317181Y-4663704D01*
X11317181Y-4663704D01*
X11322884Y-4670038D01*
X11329413Y-4677289D01*
X11344727Y-4688415D01*
X11362020Y-4696114D01*
X11380535Y-4700050D01*
X11398814Y-4700050D01*
X11399465Y-4700050D01*
X11417980Y-4696114D01*
X11435273Y-4688415D01*
X11450587Y-4677289D01*
X11463253Y-4663221D01*
X11472718Y-4646828D01*
X11478567Y-4628825D01*
X11480546Y-4610000D01*
X11479379Y-4598901D01*
X11478635Y-4591820D01*
X11478635Y-4591820D01*
X11478567Y-4591174D01*
X11472718Y-4573171D01*
X11463253Y-4556778D01*
X11455735Y-4548428D01*
X11453374Y-4544575D01*
X11452550Y-4540131D01*
X11452550Y-4153377D01*
X11452602Y-4152271D01*
X11452767Y-4151533D01*
X11452556Y-4144814D01*
X11452550Y-4144425D01*
X11452550Y-4142054D01*
X11452550Y-4141665D01*
X11452500Y-4141268D01*
X11452408Y-4140102D01*
X11452368Y-4138826D01*
X11452271Y-4135737D01*
X11451712Y-4133814D01*
X11451317Y-4131908D01*
X11451164Y-4130694D01*
X11451066Y-4129920D01*
X11449458Y-4125858D01*
X11449080Y-4124754D01*
X11447862Y-4120561D01*
X11447464Y-4119889D01*
X11446842Y-4118837D01*
X11445986Y-4117089D01*
X11445536Y-4115952D01*
X11445536Y-4115952D01*
X11445249Y-4115226D01*
X11442681Y-4111693D01*
X11442041Y-4110718D01*
X11439817Y-4106958D01*
X11438400Y-4105541D01*
X11437137Y-4104061D01*
X11436418Y-4103073D01*
X11436418Y-4103072D01*
X11435959Y-4102441D01*
X11432595Y-4099657D01*
X11431730Y-4098871D01*
X10931648Y-3598789D01*
X10931647Y-3598788D01*
X10931647Y-3598787D01*
X10679296Y-3346437D01*
X10676872Y-3343007D01*
X10675732Y-3338965D01*
X10675630Y-3337989D01*
X10674096Y-3323401D01*
X10674035Y-3322820D01*
X10674035Y-3322820D01*
X10673967Y-3322174D01*
X10673677Y-3321280D01*
X10672162Y-3316618D01*
X10668118Y-3304171D01*
X10658653Y-3287778D01*
X10657081Y-3286032D01*
X10646422Y-3274194D01*
X10646422Y-3274194D01*
X10645987Y-3273711D01*
X10645461Y-3273329D01*
X10645461Y-3273329D01*
X10631199Y-3262967D01*
X10631199Y-3262966D01*
X10630673Y-3262585D01*
X10630079Y-3262320D01*
X10613975Y-3255150D01*
X10613974Y-3255150D01*
X10613380Y-3254885D01*
X10612744Y-3254750D01*
X10612744Y-3254750D01*
X10595501Y-3251085D01*
X10595501Y-3251085D01*
X10594865Y-3250950D01*
X10575935Y-3250950D01*
X10575300Y-3251085D01*
X10575299Y-3251085D01*
X10558056Y-3254750D01*
X10558055Y-3254750D01*
X10557420Y-3254885D01*
X10556826Y-3255149D01*
X10556825Y-3255150D01*
X10540721Y-3262320D01*
X10540720Y-3262320D01*
X10540127Y-3262585D01*
X10539602Y-3262966D01*
X10539601Y-3262967D01*
X10525339Y-3273329D01*
X10525338Y-3273329D01*
X10524813Y-3273711D01*
X10524378Y-3274193D01*
X10524378Y-3274194D01*
X10512581Y-3287295D01*
X10512581Y-3287296D01*
X10512147Y-3287778D01*
X10511822Y-3288340D01*
X10511822Y-3288341D01*
X10503007Y-3303609D01*
X10503007Y-3303609D01*
X10502682Y-3304171D01*
X10502482Y-3304788D01*
X10502481Y-3304789D01*
X10497033Y-3321556D01*
X10497033Y-3321557D01*
X10496833Y-3322174D01*
X10496765Y-3322819D01*
X10496765Y-3322820D01*
X10495118Y-3338486D01*
X10494854Y-3341000D01*
X9044509Y-3341000D01*
X8901296Y-3197787D01*
X8898872Y-3194357D01*
X8897732Y-3190315D01*
X8897319Y-3186385D01*
X8895967Y-3173524D01*
X8890118Y-3155521D01*
X8880653Y-3139128D01*
X8879076Y-3137377D01*
X8868422Y-3125544D01*
X8868422Y-3125544D01*
X8867987Y-3125061D01*
X8867461Y-3124679D01*
X8867461Y-3124679D01*
X8853199Y-3114317D01*
X8853199Y-3114316D01*
X8852673Y-3113935D01*
X8852079Y-3113670D01*
X8835975Y-3106500D01*
X8835974Y-3106500D01*
X8835380Y-3106235D01*
X8834744Y-3106100D01*
X8834744Y-3106100D01*
X8817501Y-3102435D01*
X8817501Y-3102435D01*
X8816865Y-3102300D01*
X8797935Y-3102300D01*
X8797300Y-3102435D01*
X8797299Y-3102435D01*
X8780056Y-3106100D01*
X8780055Y-3106100D01*
X8779420Y-3106235D01*
X8778826Y-3106499D01*
X8778825Y-3106500D01*
X8762721Y-3113670D01*
X8762720Y-3113670D01*
X8762127Y-3113935D01*
X8761602Y-3114316D01*
X8761601Y-3114317D01*
X8747339Y-3124679D01*
X8747338Y-3124679D01*
X8746813Y-3125061D01*
X8746378Y-3125543D01*
X8746378Y-3125544D01*
X8734581Y-3138645D01*
X8734581Y-3138646D01*
X8734147Y-3139128D01*
X8733822Y-3139690D01*
X8733822Y-3139691D01*
X8725007Y-3154959D01*
X8725007Y-3154959D01*
X8724682Y-3155521D01*
X8724482Y-3156138D01*
X8724481Y-3156139D01*
X8719033Y-3172906D01*
X8719033Y-3172907D01*
X8718833Y-3173524D01*
X8718765Y-3174169D01*
X8718765Y-3174170D01*
X8717481Y-3186385D01*
X8716854Y-3192350D01*
X8716922Y-3192996D01*
X8716922Y-3192996D01*
X8717003Y-3193769D01*
X8716102Y-3199871D01*
X8712373Y-3204783D01*
X8706739Y-3207292D01*
X8700593Y-3206776D01*
X8695456Y-3203363D01*
X8690622Y-3197994D01*
X8690622Y-3197994D01*
X8690187Y-3197511D01*
X8689661Y-3197129D01*
X8689661Y-3197129D01*
X8675399Y-3186767D01*
X8675399Y-3186766D01*
X8674873Y-3186385D01*
X8674279Y-3186120D01*
X8658175Y-3178950D01*
X8658174Y-3178950D01*
X8657580Y-3178685D01*
X8656944Y-3178550D01*
X8656944Y-3178550D01*
X8639701Y-3174885D01*
X8639701Y-3174885D01*
X8639065Y-3174750D01*
X8620135Y-3174750D01*
X8619500Y-3174885D01*
X8619499Y-3174885D01*
X8602256Y-3178550D01*
X8602255Y-3178550D01*
X8601620Y-3178685D01*
X8601026Y-3178949D01*
X8601025Y-3178950D01*
X8584921Y-3186120D01*
X8584920Y-3186120D01*
X8584327Y-3186385D01*
X8583802Y-3186766D01*
X8583801Y-3186767D01*
X8569539Y-3197129D01*
X8569538Y-3197129D01*
X8569013Y-3197511D01*
X8568578Y-3197994D01*
X8568578Y-3197994D01*
X8568440Y-3198147D01*
X8568273Y-3198269D01*
X8568095Y-3198429D01*
X8568078Y-3198410D01*
X8564269Y-3201178D01*
X8559225Y-3202250D01*
X8420575Y-3202250D01*
X8415532Y-3201178D01*
X8411722Y-3198410D01*
X8411705Y-3198429D01*
X8411527Y-3198269D01*
X8411360Y-3198147D01*
X8411314Y-3198096D01*
X8410787Y-3197511D01*
X8410261Y-3197129D01*
X8410261Y-3197129D01*
X8395999Y-3186767D01*
X8395999Y-3186766D01*
X8395473Y-3186385D01*
X8394879Y-3186120D01*
X8378774Y-3178950D01*
X8378774Y-3178950D01*
X8378180Y-3178685D01*
X8377544Y-3178550D01*
X8377544Y-3178550D01*
X8360301Y-3174885D01*
X8360300Y-3174885D01*
X8359665Y-3174750D01*
X8340735Y-3174750D01*
X8340099Y-3174885D01*
X8340099Y-3174885D01*
X8322856Y-3178550D01*
X8322855Y-3178550D01*
X8322220Y-3178685D01*
X8321626Y-3178949D01*
X8321625Y-3178950D01*
X8305521Y-3186120D01*
X8305520Y-3186120D01*
X8304927Y-3186385D01*
X8304402Y-3186766D01*
X8304401Y-3186766D01*
X8297536Y-3191754D01*
X8292188Y-3193969D01*
X8286416Y-3193515D01*
X8281480Y-3190490D01*
X8160989Y-3070000D01*
X9559454Y-3070000D01*
X9559522Y-3070646D01*
X9561365Y-3088179D01*
X9561365Y-3088180D01*
X9561433Y-3088825D01*
X9561633Y-3089442D01*
X9561633Y-3089443D01*
X9566097Y-3103179D01*
X9567282Y-3106828D01*
X9567607Y-3107390D01*
X9567607Y-3107391D01*
X9576362Y-3122556D01*
X9576747Y-3123221D01*
X9577181Y-3123704D01*
X9577181Y-3123704D01*
X9587574Y-3135246D01*
X9589413Y-3137288D01*
X9589939Y-3137670D01*
X9589939Y-3137671D01*
X9597070Y-3142852D01*
X9604727Y-3148415D01*
X9622020Y-3156114D01*
X9640535Y-3160050D01*
X9658814Y-3160050D01*
X9659465Y-3160050D01*
X9677980Y-3156114D01*
X9695273Y-3148415D01*
X9710587Y-3137288D01*
X9711160Y-3136652D01*
X9711327Y-3136531D01*
X9711505Y-3136371D01*
X9711522Y-3136389D01*
X9715332Y-3133622D01*
X9720375Y-3132550D01*
X10179625Y-3132550D01*
X10184669Y-3133622D01*
X10188478Y-3136389D01*
X10188495Y-3136371D01*
X10188673Y-3136531D01*
X10188840Y-3136652D01*
X10189413Y-3137288D01*
X10189939Y-3137670D01*
X10189939Y-3137671D01*
X10197070Y-3142852D01*
X10204727Y-3148415D01*
X10222020Y-3156114D01*
X10240535Y-3160050D01*
X10258814Y-3160050D01*
X10259465Y-3160050D01*
X10277980Y-3156114D01*
X10295273Y-3148415D01*
X10310587Y-3137288D01*
X10323253Y-3123221D01*
X10332718Y-3106828D01*
X10338567Y-3088825D01*
X10340546Y-3070000D01*
X10338567Y-3051174D01*
X10332718Y-3033171D01*
X10325473Y-3020622D01*
X15135233Y-3020622D01*
X15135916Y-3021746D01*
X15136316Y-3022085D01*
X15164269Y-3043335D01*
X15164824Y-3043711D01*
X15194910Y-3061813D01*
X15195504Y-3062128D01*
X15227369Y-3076871D01*
X15227994Y-3077120D01*
X15261268Y-3088331D01*
X15261913Y-3088510D01*
X15296205Y-3096058D01*
X15296868Y-3096167D01*
X15331774Y-3099963D01*
X15332444Y-3100000D01*
X15367556Y-3100000D01*
X15368226Y-3099963D01*
X15403132Y-3096167D01*
X15403795Y-3096058D01*
X15438087Y-3088510D01*
X15438731Y-3088331D01*
X15472006Y-3077120D01*
X15472630Y-3076871D01*
X15504496Y-3062128D01*
X15505090Y-3061813D01*
X15535176Y-3043711D01*
X15535730Y-3043335D01*
X15563685Y-3022085D01*
X15564084Y-3021746D01*
X15564767Y-3020622D01*
X15564100Y-3019455D01*
X15351154Y-2806509D01*
X15350000Y-2805843D01*
X15348846Y-2806509D01*
X15135900Y-3019455D01*
X15135233Y-3020622D01*
X10325473Y-3020622D01*
X10323253Y-3016778D01*
X10316093Y-3008825D01*
X10311022Y-3003194D01*
X10311022Y-3003194D01*
X10310587Y-3002711D01*
X10310061Y-3002329D01*
X10310061Y-3002329D01*
X10295799Y-2991967D01*
X10295799Y-2991966D01*
X10295273Y-2991585D01*
X10294679Y-2991320D01*
X10278575Y-2984150D01*
X10278574Y-2984150D01*
X10277980Y-2983885D01*
X10277344Y-2983750D01*
X10277344Y-2983750D01*
X10260101Y-2980085D01*
X10260101Y-2980085D01*
X10259465Y-2979950D01*
X10240535Y-2979950D01*
X10239900Y-2980085D01*
X10239899Y-2980085D01*
X10222656Y-2983750D01*
X10222655Y-2983750D01*
X10222020Y-2983885D01*
X10221426Y-2984149D01*
X10221425Y-2984150D01*
X10205321Y-2991320D01*
X10205320Y-2991320D01*
X10204727Y-2991585D01*
X10204202Y-2991966D01*
X10204201Y-2991967D01*
X10189939Y-3002329D01*
X10189938Y-3002329D01*
X10189413Y-3002711D01*
X10188978Y-3003194D01*
X10188978Y-3003194D01*
X10188840Y-3003347D01*
X10188673Y-3003469D01*
X10188495Y-3003629D01*
X10188478Y-3003610D01*
X10184669Y-3006378D01*
X10179625Y-3007450D01*
X9720375Y-3007450D01*
X9715332Y-3006378D01*
X9711522Y-3003610D01*
X9711505Y-3003629D01*
X9711327Y-3003469D01*
X9711160Y-3003347D01*
X9710587Y-3002711D01*
X9710061Y-3002329D01*
X9710061Y-3002329D01*
X9695799Y-2991967D01*
X9695799Y-2991966D01*
X9695273Y-2991585D01*
X9694679Y-2991320D01*
X9678575Y-2984150D01*
X9678574Y-2984150D01*
X9677980Y-2983885D01*
X9677344Y-2983750D01*
X9677344Y-2983750D01*
X9660101Y-2980085D01*
X9660101Y-2980085D01*
X9659465Y-2979950D01*
X9640535Y-2979950D01*
X9639900Y-2980085D01*
X9639899Y-2980085D01*
X9622656Y-2983750D01*
X9622655Y-2983750D01*
X9622020Y-2983885D01*
X9621426Y-2984149D01*
X9621425Y-2984150D01*
X9605321Y-2991320D01*
X9605320Y-2991320D01*
X9604727Y-2991585D01*
X9604202Y-2991966D01*
X9604201Y-2991967D01*
X9589939Y-3002329D01*
X9589938Y-3002329D01*
X9589413Y-3002711D01*
X9588978Y-3003193D01*
X9588978Y-3003194D01*
X9577181Y-3016295D01*
X9577181Y-3016296D01*
X9576747Y-3016778D01*
X9576422Y-3017340D01*
X9576422Y-3017341D01*
X9567607Y-3032609D01*
X9567607Y-3032609D01*
X9567282Y-3033171D01*
X9567082Y-3033788D01*
X9567081Y-3033789D01*
X9561633Y-3050556D01*
X9561633Y-3050557D01*
X9561433Y-3051174D01*
X9561365Y-3051819D01*
X9561365Y-3051820D01*
X9559699Y-3067671D01*
X9559454Y-3070000D01*
X8160989Y-3070000D01*
X8142712Y-3051722D01*
X8136182Y-3045192D01*
X8133494Y-3041169D01*
X8132550Y-3036424D01*
X8132550Y-2959868D01*
X8133374Y-2955425D01*
X8135735Y-2951571D01*
X8143253Y-2943221D01*
X8152718Y-2926828D01*
X8158567Y-2908825D01*
X8160546Y-2890000D01*
X8158567Y-2871174D01*
X8152718Y-2853171D01*
X8143253Y-2836778D01*
X8130587Y-2822711D01*
X8130061Y-2822329D01*
X8130061Y-2822329D01*
X8115799Y-2811967D01*
X8115799Y-2811966D01*
X8115273Y-2811585D01*
X8114679Y-2811320D01*
X8098574Y-2804150D01*
X8098574Y-2804150D01*
X8097980Y-2803885D01*
X8097344Y-2803750D01*
X8097344Y-2803750D01*
X8080101Y-2800085D01*
X8080100Y-2800085D01*
X8079465Y-2799950D01*
X8060535Y-2799950D01*
X8059899Y-2800085D01*
X8059899Y-2800085D01*
X8042656Y-2803750D01*
X8042655Y-2803750D01*
X8042020Y-2803885D01*
X8041426Y-2804149D01*
X8041425Y-2804150D01*
X8025321Y-2811320D01*
X8025320Y-2811320D01*
X8024727Y-2811585D01*
X8024202Y-2811966D01*
X8024201Y-2811967D01*
X8009939Y-2822329D01*
X8009938Y-2822329D01*
X8009413Y-2822711D01*
X8008978Y-2823193D01*
X8008978Y-2823194D01*
X7997181Y-2836295D01*
X7997181Y-2836296D01*
X7996747Y-2836778D01*
X7996422Y-2837340D01*
X7996422Y-2837341D01*
X7987607Y-2852609D01*
X7987607Y-2852609D01*
X7987282Y-2853171D01*
X7987081Y-2853788D01*
X7987081Y-2853789D01*
X7981633Y-2870556D01*
X7981633Y-2870557D01*
X7981433Y-2871174D01*
X7981365Y-2871819D01*
X7981365Y-2871820D01*
X7979596Y-2888646D01*
X7979454Y-2890000D01*
X7979522Y-2890646D01*
X7981365Y-2908179D01*
X7981365Y-2908180D01*
X7981433Y-2908825D01*
X7981633Y-2909442D01*
X7981633Y-2909443D01*
X7987081Y-2926210D01*
X7987282Y-2926828D01*
X7987607Y-2927390D01*
X7987607Y-2927391D01*
X7990458Y-2932329D01*
X7996747Y-2943221D01*
X7997181Y-2943704D01*
X7997181Y-2943704D01*
X8004265Y-2951571D01*
X8006626Y-2955425D01*
X8007450Y-2959868D01*
X8007450Y-3059692D01*
X8007398Y-3060797D01*
X8007233Y-3061536D01*
X8007257Y-3062315D01*
X8007257Y-3062315D01*
X8007444Y-3068257D01*
X8007450Y-3068646D01*
X8007450Y-3071404D01*
X8007499Y-3071791D01*
X8007499Y-3071792D01*
X8007500Y-3071804D01*
X8007592Y-3072966D01*
X8007704Y-3076552D01*
X8007705Y-3076553D01*
X8007729Y-3077332D01*
X8007947Y-3078081D01*
X8007947Y-3078081D01*
X8008288Y-3079255D01*
X8008682Y-3081161D01*
X8008729Y-3081527D01*
X8008934Y-3083148D01*
X8009221Y-3083873D01*
X8009221Y-3083874D01*
X8010541Y-3087210D01*
X8010920Y-3088314D01*
X8012138Y-3092508D01*
X8012535Y-3093180D01*
X8012535Y-3093180D01*
X8013158Y-3094233D01*
X8014014Y-3095979D01*
X8014464Y-3097117D01*
X8014464Y-3097118D01*
X8014751Y-3097842D01*
X8016319Y-3100000D01*
X8017318Y-3101375D01*
X8017959Y-3102351D01*
X8019786Y-3105439D01*
X8019786Y-3105440D01*
X8020183Y-3106111D01*
X8020734Y-3106663D01*
X8021599Y-3107527D01*
X8022863Y-3109007D01*
X8023582Y-3109997D01*
X8023582Y-3109997D01*
X8024041Y-3110628D01*
X8024641Y-3111125D01*
X8024642Y-3111125D01*
X8027406Y-3113412D01*
X8028270Y-3114198D01*
X8051448Y-3137376D01*
X8051448Y-3137377D01*
X8212070Y-3297998D01*
X8214350Y-3301137D01*
X8215421Y-3304431D01*
X8215429Y-3304693D01*
X8215646Y-3305441D01*
X8215647Y-3305442D01*
X8215988Y-3306616D01*
X8216382Y-3308522D01*
X8216634Y-3310509D01*
X8216921Y-3311234D01*
X8216921Y-3311235D01*
X8218241Y-3314571D01*
X8218620Y-3315675D01*
X8219838Y-3319869D01*
X8220235Y-3320541D01*
X8220235Y-3320541D01*
X8220858Y-3321594D01*
X8221714Y-3323340D01*
X8222164Y-3324478D01*
X8222164Y-3324478D01*
X8222451Y-3325203D01*
X8224011Y-3327350D01*
X8225018Y-3328736D01*
X8225659Y-3329712D01*
X8227486Y-3332800D01*
X8227486Y-3332801D01*
X8227883Y-3333472D01*
X8228434Y-3334024D01*
X8229299Y-3334888D01*
X8230563Y-3336368D01*
X8231282Y-3337358D01*
X8231282Y-3337358D01*
X8231741Y-3337989D01*
X8232341Y-3338486D01*
X8232342Y-3338486D01*
X8235106Y-3340773D01*
X8235970Y-3341559D01*
X8270440Y-3376029D01*
X8271185Y-3376848D01*
X8271591Y-3377487D01*
X8272159Y-3378021D01*
X8272159Y-3378021D01*
X8276492Y-3382090D01*
X8276771Y-3382361D01*
X8278722Y-3384312D01*
X8279040Y-3384558D01*
X8279927Y-3385315D01*
X8281135Y-3386450D01*
X8282543Y-3387772D01*
X8282543Y-3387772D01*
X8283111Y-3388306D01*
X8283795Y-3388681D01*
X8283795Y-3388682D01*
X8284867Y-3389271D01*
X8286493Y-3390339D01*
X8288076Y-3391567D01*
X8292085Y-3393302D01*
X8293133Y-3393815D01*
X8296960Y-3395919D01*
X8298901Y-3396418D01*
X8300741Y-3397048D01*
X8301864Y-3397534D01*
X8301864Y-3397534D01*
X8302580Y-3397843D01*
X8306895Y-3398527D01*
X8308035Y-3398763D01*
X8311207Y-3399577D01*
X8316891Y-3402820D01*
X8320719Y-3406648D01*
X8323744Y-3411584D01*
X8325212Y-3416102D01*
X8325212Y-3416102D01*
X8325453Y-3416844D01*
X8325871Y-3417502D01*
X8325871Y-3417502D01*
X8325891Y-3417533D01*
X8326950Y-3419612D01*
X8326964Y-3419648D01*
X8326964Y-3419648D01*
X8327251Y-3420373D01*
X8330513Y-3424862D01*
X8330950Y-3425505D01*
X8331583Y-3426503D01*
X8333921Y-3430187D01*
X8334490Y-3430721D01*
X8334491Y-3430722D01*
X8334516Y-3430746D01*
X8336060Y-3432497D01*
X8336541Y-3433158D01*
X8337141Y-3433655D01*
X8337141Y-3433656D01*
X8340815Y-3436694D01*
X8341399Y-3437209D01*
X8345442Y-3441006D01*
X8346159Y-3441400D01*
X8348088Y-3442711D01*
X8348718Y-3443232D01*
X8349424Y-3443564D01*
X8349424Y-3443565D01*
X8353736Y-3445594D01*
X8354430Y-3445947D01*
X8358153Y-3447994D01*
X8359291Y-3448619D01*
X8360081Y-3448822D01*
X8362278Y-3449613D01*
X8362311Y-3449629D01*
X8362312Y-3449629D01*
X8363017Y-3449961D01*
X8368467Y-3451000D01*
X8369226Y-3451170D01*
X8374598Y-3452550D01*
X8375415Y-3452550D01*
X8377739Y-3452769D01*
X8378541Y-3452922D01*
X8384076Y-3452574D01*
X8384854Y-3452550D01*
X8469755Y-3452550D01*
X8474500Y-3453494D01*
X8478523Y-3456182D01*
X8535704Y-3513363D01*
X8538128Y-3516792D01*
X8539268Y-3520834D01*
X8539516Y-3523194D01*
X8541033Y-3537625D01*
X8541233Y-3538242D01*
X8541233Y-3538243D01*
X8546499Y-3554450D01*
X8546882Y-3555628D01*
X8547207Y-3556190D01*
X8547207Y-3556191D01*
X8555858Y-3571174D01*
X8556347Y-3572021D01*
X8569013Y-3586088D01*
X8569539Y-3586470D01*
X8569539Y-3586471D01*
X8571595Y-3587965D01*
X8584327Y-3597215D01*
X8601620Y-3604914D01*
X8620135Y-3608850D01*
X8638414Y-3608850D01*
X8639065Y-3608850D01*
X8657580Y-3604914D01*
X8674873Y-3597215D01*
X8690187Y-3586088D01*
X8702853Y-3572021D01*
X8712318Y-3555628D01*
X8718167Y-3537625D01*
X8720146Y-3518800D01*
X8718167Y-3499974D01*
X8712318Y-3481971D01*
X8702853Y-3465578D01*
X8690187Y-3451511D01*
X8689661Y-3451129D01*
X8689661Y-3451129D01*
X8675399Y-3440767D01*
X8675399Y-3440766D01*
X8674873Y-3440385D01*
X8674279Y-3440120D01*
X8658175Y-3432950D01*
X8658174Y-3432950D01*
X8657580Y-3432685D01*
X8656944Y-3432550D01*
X8656944Y-3432550D01*
X8639701Y-3428885D01*
X8639701Y-3428885D01*
X8639065Y-3428750D01*
X8638414Y-3428750D01*
X8633145Y-3428750D01*
X8628400Y-3427806D01*
X8624377Y-3425118D01*
X8588613Y-3389354D01*
X8550529Y-3351269D01*
X8549784Y-3350451D01*
X8549379Y-3349812D01*
X8548810Y-3349278D01*
X8548809Y-3349277D01*
X8548289Y-3348789D01*
X8545084Y-3343877D01*
X8544496Y-3338041D01*
X8546655Y-3332588D01*
X8551079Y-3328737D01*
X8556778Y-3327350D01*
X8559225Y-3327350D01*
X8564269Y-3328422D01*
X8568078Y-3331189D01*
X8568095Y-3331171D01*
X8568273Y-3331331D01*
X8568440Y-3331452D01*
X8569013Y-3332088D01*
X8569539Y-3332470D01*
X8569539Y-3332471D01*
X8570866Y-3333435D01*
X8584327Y-3343215D01*
X8601620Y-3350914D01*
X8620135Y-3354850D01*
X8638414Y-3354850D01*
X8639065Y-3354850D01*
X8657580Y-3350914D01*
X8674873Y-3343215D01*
X8690187Y-3332088D01*
X8702853Y-3318021D01*
X8712318Y-3301628D01*
X8718167Y-3283625D01*
X8720146Y-3264800D01*
X8719997Y-3263380D01*
X8720898Y-3257279D01*
X8724626Y-3252366D01*
X8730261Y-3249857D01*
X8736407Y-3250373D01*
X8741544Y-3253787D01*
X8743827Y-3256322D01*
X8746813Y-3259638D01*
X8747339Y-3260020D01*
X8747339Y-3260021D01*
X8751964Y-3263381D01*
X8762127Y-3270765D01*
X8779420Y-3278464D01*
X8797935Y-3282400D01*
X8803855Y-3282400D01*
X8808600Y-3283344D01*
X8812623Y-3286032D01*
X8951723Y-3425132D01*
X8954411Y-3429155D01*
X8955355Y-3433900D01*
X8955355Y-3629695D01*
X8953694Y-3635895D01*
X8949155Y-3640433D01*
X8942955Y-3642095D01*
X8935940Y-3642095D01*
X8935304Y-3642230D01*
X8935304Y-3642230D01*
X8918061Y-3645895D01*
X8918060Y-3645895D01*
X8917425Y-3646030D01*
X8916831Y-3646295D01*
X8916830Y-3646295D01*
X8900726Y-3653465D01*
X8900725Y-3653465D01*
X8900132Y-3653730D01*
X8899607Y-3654111D01*
X8899606Y-3654112D01*
X8885344Y-3664474D01*
X8885343Y-3664474D01*
X8884818Y-3664856D01*
X8884383Y-3665338D01*
X8884383Y-3665339D01*
X8872587Y-3678440D01*
X8872586Y-3678440D01*
X8872152Y-3678923D01*
X8871827Y-3679486D01*
X8871643Y-3679738D01*
X8867241Y-3683498D01*
X8861612Y-3684850D01*
X8449725Y-3684850D01*
X8444682Y-3683778D01*
X8440872Y-3681010D01*
X8440855Y-3681029D01*
X8440677Y-3680869D01*
X8440510Y-3680747D01*
X8439937Y-3680111D01*
X8439411Y-3679729D01*
X8439411Y-3679729D01*
X8425149Y-3669367D01*
X8425149Y-3669366D01*
X8424623Y-3668985D01*
X8424029Y-3668720D01*
X8407925Y-3661550D01*
X8407924Y-3661550D01*
X8407330Y-3661285D01*
X8406694Y-3661150D01*
X8406694Y-3661150D01*
X8389451Y-3657485D01*
X8389451Y-3657485D01*
X8388815Y-3657350D01*
X8369885Y-3657350D01*
X8369249Y-3657485D01*
X8369249Y-3657485D01*
X8352006Y-3661150D01*
X8352005Y-3661150D01*
X8351370Y-3661285D01*
X8350776Y-3661549D01*
X8350775Y-3661550D01*
X8334671Y-3668720D01*
X8334670Y-3668720D01*
X8334077Y-3668985D01*
X8333552Y-3669366D01*
X8333551Y-3669367D01*
X8319289Y-3679729D01*
X8319288Y-3679729D01*
X8318763Y-3680111D01*
X8318328Y-3680593D01*
X8318328Y-3680594D01*
X8306531Y-3693695D01*
X8306531Y-3693696D01*
X8306097Y-3694178D01*
X8305772Y-3694740D01*
X8305772Y-3694741D01*
X8296957Y-3710009D01*
X8296957Y-3710009D01*
X8296632Y-3710571D01*
X8296431Y-3711188D01*
X8296431Y-3711189D01*
X8290983Y-3727956D01*
X8290983Y-3727957D01*
X8290783Y-3728574D01*
X8290715Y-3729219D01*
X8290715Y-3729220D01*
X8289300Y-3742681D01*
X8288804Y-3747400D01*
X8288872Y-3748046D01*
X8288872Y-3748046D01*
X8289693Y-3755856D01*
X8289154Y-3760984D01*
X8286576Y-3765450D01*
X8282404Y-3768480D01*
X8279551Y-3769751D01*
X8279550Y-3769751D01*
X8278957Y-3770015D01*
X8278432Y-3770397D01*
X8278432Y-3770397D01*
X8264169Y-3780759D01*
X8264169Y-3780760D01*
X8263643Y-3781141D01*
X8263209Y-3781624D01*
X8263208Y-3781624D01*
X8251412Y-3794726D01*
X8251411Y-3794726D01*
X8250977Y-3795209D01*
X8250653Y-3795771D01*
X8250652Y-3795771D01*
X8241837Y-3811039D01*
X8241837Y-3811040D01*
X8241513Y-3811602D01*
X8241312Y-3812219D01*
X8241312Y-3812220D01*
X8235864Y-3828987D01*
X8235864Y-3828987D01*
X8235663Y-3829605D01*
X8235595Y-3830250D01*
X8235595Y-3830251D01*
X8233930Y-3846095D01*
X8233684Y-3848430D01*
X8233752Y-3849076D01*
X8235595Y-3866610D01*
X8235595Y-3866610D01*
X8235663Y-3867256D01*
X8235864Y-3867873D01*
X8235864Y-3867874D01*
X8241312Y-3884641D01*
X8241513Y-3885259D01*
X8241837Y-3885821D01*
X8241837Y-3885821D01*
X8250281Y-3900446D01*
X8250977Y-3901652D01*
X8251412Y-3902134D01*
X8251412Y-3902134D01*
X8260342Y-3912052D01*
X8263643Y-3915719D01*
X8264169Y-3916101D01*
X8264169Y-3916101D01*
X8268494Y-3919243D01*
X8278957Y-3926845D01*
X8296250Y-3934545D01*
X8314766Y-3938480D01*
X8333045Y-3938480D01*
X8333695Y-3938480D01*
X8352211Y-3934545D01*
X8369503Y-3926845D01*
X8384818Y-3915719D01*
X8385391Y-3915082D01*
X8385558Y-3914961D01*
X8385735Y-3914801D01*
X8385752Y-3914820D01*
X8389562Y-3912052D01*
X8394605Y-3910980D01*
X8543363Y-3910980D01*
X8548406Y-3912052D01*
X8552577Y-3915083D01*
X8553663Y-3916288D01*
X8554189Y-3916670D01*
X8554189Y-3916671D01*
X8556879Y-3918625D01*
X8568977Y-3927415D01*
X8586270Y-3935114D01*
X8604785Y-3939050D01*
X8623064Y-3939050D01*
X8623715Y-3939050D01*
X8642230Y-3935114D01*
X8659523Y-3927415D01*
X8674837Y-3916288D01*
X8687503Y-3902221D01*
X8696968Y-3885828D01*
X8702817Y-3867825D01*
X8704796Y-3849000D01*
X8702817Y-3830174D01*
X8701520Y-3826181D01*
X8701066Y-3820410D01*
X8703281Y-3815061D01*
X8707684Y-3811301D01*
X8713313Y-3809950D01*
X8896126Y-3809950D01*
X8901169Y-3811022D01*
X8913688Y-3816595D01*
X8917425Y-3818259D01*
X8935940Y-3822195D01*
X8936591Y-3822195D01*
X8942955Y-3822195D01*
X8949155Y-3823856D01*
X8953694Y-3828395D01*
X8955355Y-3834595D01*
X8955355Y-3963980D01*
X8954411Y-3968725D01*
X8951723Y-3972748D01*
X8912469Y-4012002D01*
X8906701Y-4015266D01*
X8900076Y-4015092D01*
X8894486Y-4011531D01*
X8893822Y-4010794D01*
X8893822Y-4010794D01*
X8893387Y-4010311D01*
X8892861Y-4009929D01*
X8892861Y-4009929D01*
X8878599Y-3999567D01*
X8878599Y-3999566D01*
X8878073Y-3999185D01*
X8876193Y-3998348D01*
X8861375Y-3991750D01*
X8861374Y-3991750D01*
X8860780Y-3991485D01*
X8860144Y-3991350D01*
X8860144Y-3991350D01*
X8842901Y-3987685D01*
X8842901Y-3987685D01*
X8842265Y-3987550D01*
X8823335Y-3987550D01*
X8822700Y-3987685D01*
X8822699Y-3987685D01*
X8805456Y-3991350D01*
X8805455Y-3991350D01*
X8804820Y-3991485D01*
X8804226Y-3991749D01*
X8804225Y-3991750D01*
X8788121Y-3998920D01*
X8788120Y-3998920D01*
X8787527Y-3999185D01*
X8787002Y-3999566D01*
X8787001Y-3999567D01*
X8772739Y-4009929D01*
X8772738Y-4009929D01*
X8772213Y-4010311D01*
X8771778Y-4010794D01*
X8771778Y-4010794D01*
X8771640Y-4010947D01*
X8771473Y-4011069D01*
X8771295Y-4011229D01*
X8771278Y-4011210D01*
X8767469Y-4013978D01*
X8762425Y-4015050D01*
X8178045Y-4015050D01*
X8173300Y-4014106D01*
X8169277Y-4011418D01*
X7916899Y-3759039D01*
X7916154Y-3758221D01*
X7915749Y-3757582D01*
X7910848Y-3752980D01*
X7910568Y-3752708D01*
X7908893Y-3751033D01*
X7908617Y-3750758D01*
X7908299Y-3750511D01*
X7907411Y-3749753D01*
X7904797Y-3747298D01*
X7904797Y-3747297D01*
X7904228Y-3746764D01*
X7903545Y-3746388D01*
X7903544Y-3746387D01*
X7902473Y-3745798D01*
X7900847Y-3744730D01*
X7899880Y-3743980D01*
X7899879Y-3743980D01*
X7899264Y-3743502D01*
X7898548Y-3743193D01*
X7898548Y-3743193D01*
X7895255Y-3741768D01*
X7894206Y-3741254D01*
X7891063Y-3739526D01*
X7891062Y-3739526D01*
X7890379Y-3739150D01*
X7889624Y-3738956D01*
X7889623Y-3738956D01*
X7888439Y-3738652D01*
X7886598Y-3738022D01*
X7885476Y-3737536D01*
X7885475Y-3737536D01*
X7884760Y-3737226D01*
X7883989Y-3737104D01*
X7883989Y-3737104D01*
X7880446Y-3736543D01*
X7879302Y-3736306D01*
X7875827Y-3735414D01*
X7875826Y-3735413D01*
X7875072Y-3735220D01*
X7874292Y-3735220D01*
X7873068Y-3735220D01*
X7871130Y-3735067D01*
X7869150Y-3734754D01*
X7868374Y-3734827D01*
X7868374Y-3734827D01*
X7864802Y-3735165D01*
X7863636Y-3735220D01*
X7785145Y-3735220D01*
X7780102Y-3734148D01*
X7776292Y-3731380D01*
X7776275Y-3731399D01*
X7776097Y-3731239D01*
X7775930Y-3731117D01*
X7775357Y-3730481D01*
X7774831Y-3730099D01*
X7774831Y-3730099D01*
X7760569Y-3719737D01*
X7760569Y-3719737D01*
X7760043Y-3719355D01*
X7759449Y-3719090D01*
X7743345Y-3711920D01*
X7743344Y-3711920D01*
X7742750Y-3711655D01*
X7742114Y-3711520D01*
X7742114Y-3711520D01*
X7724871Y-3707855D01*
X7724871Y-3707855D01*
X7724235Y-3707720D01*
X7705305Y-3707720D01*
X7704670Y-3707855D01*
X7704669Y-3707855D01*
X7687426Y-3711520D01*
X7687425Y-3711520D01*
X7686790Y-3711655D01*
X7686196Y-3711920D01*
X7686195Y-3711920D01*
X7670091Y-3719090D01*
X7670090Y-3719090D01*
X7669497Y-3719355D01*
X7668972Y-3719736D01*
X7668971Y-3719737D01*
X7654709Y-3730099D01*
X7654708Y-3730099D01*
X7654183Y-3730481D01*
X7653748Y-3730963D01*
X7653748Y-3730964D01*
X7641951Y-3744065D01*
X7641951Y-3744066D01*
X7641517Y-3744548D01*
X7641192Y-3745110D01*
X7641192Y-3745111D01*
X7632377Y-3760379D01*
X7632377Y-3760379D01*
X7632052Y-3760941D01*
X7631852Y-3761559D01*
X7631851Y-3761559D01*
X7626403Y-3778326D01*
X7626403Y-3778327D01*
X7626203Y-3778944D01*
X7626135Y-3779589D01*
X7626135Y-3779590D01*
X7624844Y-3791868D01*
X7624224Y-3797770D01*
X7624292Y-3798416D01*
X7624292Y-3798416D01*
X7625022Y-3805358D01*
X7624170Y-3811339D01*
X7620593Y-3816208D01*
X7615140Y-3818809D01*
X7609105Y-3818525D01*
X7603921Y-3815422D01*
X7542597Y-3754097D01*
X7539713Y-3749570D01*
X7539012Y-3744248D01*
X7540626Y-3739129D01*
X7543918Y-3733428D01*
X7549767Y-3715425D01*
X7551746Y-3696600D01*
X7550007Y-3680050D01*
X7549835Y-3678420D01*
X7549835Y-3678420D01*
X7549767Y-3677774D01*
X7543918Y-3659771D01*
X7534453Y-3643378D01*
X7533419Y-3642230D01*
X7522222Y-3629794D01*
X7522222Y-3629794D01*
X7521787Y-3629311D01*
X7521261Y-3628929D01*
X7521261Y-3628929D01*
X7506999Y-3618567D01*
X7506999Y-3618566D01*
X7506473Y-3618185D01*
X7505879Y-3617920D01*
X7489774Y-3610750D01*
X7489774Y-3610750D01*
X7489180Y-3610485D01*
X7488544Y-3610350D01*
X7488544Y-3610350D01*
X7471301Y-3606685D01*
X7471300Y-3606685D01*
X7470665Y-3606550D01*
X7451735Y-3606550D01*
X7451099Y-3606685D01*
X7451099Y-3606685D01*
X7433856Y-3610350D01*
X7433855Y-3610350D01*
X7433220Y-3610485D01*
X7432626Y-3610749D01*
X7432625Y-3610750D01*
X7416521Y-3617920D01*
X7416520Y-3617920D01*
X7415927Y-3618185D01*
X7415402Y-3618566D01*
X7415401Y-3618567D01*
X7401139Y-3628929D01*
X7401138Y-3628929D01*
X7400613Y-3629311D01*
X7400179Y-3629793D01*
X7400178Y-3629794D01*
X7393927Y-3636736D01*
X7388544Y-3640232D01*
X7382134Y-3640568D01*
X7374958Y-3639042D01*
X7356029Y-3639042D01*
X7355393Y-3639177D01*
X7355392Y-3639178D01*
X7338149Y-3642843D01*
X7338148Y-3642843D01*
X7337513Y-3642978D01*
X7336919Y-3643242D01*
X7336919Y-3643242D01*
X7320814Y-3650413D01*
X7320813Y-3650413D01*
X7320220Y-3650677D01*
X7319695Y-3651059D01*
X7319694Y-3651059D01*
X7305432Y-3661421D01*
X7305431Y-3661422D01*
X7304906Y-3661804D01*
X7304472Y-3662286D01*
X7304471Y-3662287D01*
X7292674Y-3675388D01*
X7292674Y-3675389D01*
X7292240Y-3675871D01*
X7291915Y-3676433D01*
X7291915Y-3676433D01*
X7283100Y-3691701D01*
X7283100Y-3691702D01*
X7282775Y-3692264D01*
X7282575Y-3692881D01*
X7282574Y-3692882D01*
X7277126Y-3709649D01*
X7277126Y-3709650D01*
X7276926Y-3710267D01*
X7276858Y-3710912D01*
X7276858Y-3710913D01*
X7275089Y-3727739D01*
X7274947Y-3729092D01*
X7275015Y-3729738D01*
X7276858Y-3747272D01*
X7276858Y-3747273D01*
X7276926Y-3747918D01*
X7277126Y-3748535D01*
X7277126Y-3748536D01*
X7282574Y-3765303D01*
X7282775Y-3765921D01*
X7283100Y-3766483D01*
X7283100Y-3766483D01*
X7291842Y-3781624D01*
X7292240Y-3782314D01*
X7292674Y-3782796D01*
X7292674Y-3782797D01*
X7304471Y-3795898D01*
X7304906Y-3796381D01*
X7305432Y-3796763D01*
X7305432Y-3796763D01*
X7307707Y-3798416D01*
X7320220Y-3807507D01*
X7337513Y-3815207D01*
X7356029Y-3819142D01*
X7361948Y-3819142D01*
X7366693Y-3820086D01*
X7370716Y-3822774D01*
X7999023Y-4451082D01*
X8002048Y-4456018D01*
X8002502Y-4461790D01*
X8000287Y-4467138D01*
X7995885Y-4470898D01*
X7990255Y-4472250D01*
X7582375Y-4472250D01*
X7577331Y-4471178D01*
X7573522Y-4468410D01*
X7573505Y-4468429D01*
X7573327Y-4468269D01*
X7573160Y-4468147D01*
X7572587Y-4467511D01*
X7572061Y-4467129D01*
X7572061Y-4467129D01*
X7557799Y-4456767D01*
X7557799Y-4456767D01*
X7557273Y-4456385D01*
X7556449Y-4456018D01*
X7540574Y-4448950D01*
X7540574Y-4448950D01*
X7539980Y-4448685D01*
X7539344Y-4448550D01*
X7539344Y-4448550D01*
X7522101Y-4444885D01*
X7522100Y-4444885D01*
X7521465Y-4444750D01*
X7502535Y-4444750D01*
X7501899Y-4444885D01*
X7501899Y-4444885D01*
X7484656Y-4448550D01*
X7484655Y-4448550D01*
X7484020Y-4448685D01*
X7483426Y-4448950D01*
X7483425Y-4448950D01*
X7467321Y-4456120D01*
X7467320Y-4456120D01*
X7466727Y-4456385D01*
X7466202Y-4456766D01*
X7466201Y-4456767D01*
X7451939Y-4467129D01*
X7451938Y-4467129D01*
X7451413Y-4467511D01*
X7450978Y-4467993D01*
X7450978Y-4467994D01*
X7439181Y-4481095D01*
X7439181Y-4481096D01*
X7438747Y-4481578D01*
X7438422Y-4482140D01*
X7438422Y-4482141D01*
X7429607Y-4497409D01*
X7429607Y-4497409D01*
X7429282Y-4497971D01*
X7429081Y-4498589D01*
X7429081Y-4498589D01*
X7423633Y-4515356D01*
X7423633Y-4515357D01*
X7423433Y-4515974D01*
X7423365Y-4516620D01*
X7423365Y-4516620D01*
X7423130Y-4518857D01*
X7421267Y-4524205D01*
X7417221Y-4528167D01*
X7411835Y-4529917D01*
X7406233Y-4529090D01*
X7401583Y-4525858D01*
X7394787Y-4518311D01*
X7394261Y-4517929D01*
X7394261Y-4517929D01*
X7379999Y-4507567D01*
X7379999Y-4507567D01*
X7379473Y-4507185D01*
X7378879Y-4506920D01*
X7362774Y-4499750D01*
X7362774Y-4499750D01*
X7362180Y-4499485D01*
X7361544Y-4499350D01*
X7361544Y-4499350D01*
X7344301Y-4495685D01*
X7344300Y-4495685D01*
X7343665Y-4495550D01*
X7343014Y-4495550D01*
X7337745Y-4495550D01*
X7333000Y-4494606D01*
X7328977Y-4491918D01*
X7013704Y-4176645D01*
X6698129Y-3861069D01*
X6697384Y-3860251D01*
X6696979Y-3859612D01*
X6692077Y-3855009D01*
X6691798Y-3854738D01*
X6690123Y-3853063D01*
X6690123Y-3853063D01*
X6689847Y-3852788D01*
X6689529Y-3852541D01*
X6688641Y-3851783D01*
X6686027Y-3849327D01*
X6686027Y-3849327D01*
X6685458Y-3848793D01*
X6684775Y-3848418D01*
X6684774Y-3848417D01*
X6683702Y-3847828D01*
X6682077Y-3846760D01*
X6681109Y-3846010D01*
X6681109Y-3846010D01*
X6680494Y-3845532D01*
X6679778Y-3845223D01*
X6679778Y-3845222D01*
X6676485Y-3843797D01*
X6675436Y-3843284D01*
X6672293Y-3841556D01*
X6672292Y-3841555D01*
X6671609Y-3841180D01*
X6670853Y-3840986D01*
X6670853Y-3840986D01*
X6669669Y-3840682D01*
X6667828Y-3840052D01*
X6666706Y-3839566D01*
X6666705Y-3839565D01*
X6665990Y-3839256D01*
X6665219Y-3839134D01*
X6665219Y-3839134D01*
X6661676Y-3838573D01*
X6660532Y-3838336D01*
X6657057Y-3837443D01*
X6657056Y-3837443D01*
X6656302Y-3837250D01*
X6655522Y-3837250D01*
X6654298Y-3837250D01*
X6652360Y-3837097D01*
X6650380Y-3836784D01*
X6649604Y-3836857D01*
X6649603Y-3836857D01*
X6646032Y-3837195D01*
X6644865Y-3837250D01*
X6439375Y-3837250D01*
X6434331Y-3836178D01*
X6430522Y-3833410D01*
X6430505Y-3833429D01*
X6430327Y-3833269D01*
X6430160Y-3833147D01*
X6429587Y-3832511D01*
X6429061Y-3832129D01*
X6429061Y-3832129D01*
X6414799Y-3821767D01*
X6414799Y-3821766D01*
X6414273Y-3821385D01*
X6413679Y-3821120D01*
X6397574Y-3813950D01*
X6397574Y-3813950D01*
X6396980Y-3813685D01*
X6396344Y-3813550D01*
X6396344Y-3813550D01*
X6379101Y-3809885D01*
X6379100Y-3809885D01*
X6378465Y-3809750D01*
X6359535Y-3809750D01*
X6358899Y-3809885D01*
X6358899Y-3809885D01*
X6341656Y-3813550D01*
X6341655Y-3813550D01*
X6341020Y-3813685D01*
X6340426Y-3813949D01*
X6340425Y-3813950D01*
X6324321Y-3821120D01*
X6324320Y-3821120D01*
X6323727Y-3821385D01*
X6323202Y-3821766D01*
X6323201Y-3821767D01*
X6308939Y-3832129D01*
X6308938Y-3832129D01*
X6308413Y-3832511D01*
X6307978Y-3832993D01*
X6307978Y-3832994D01*
X6296181Y-3846095D01*
X6296181Y-3846096D01*
X6295747Y-3846578D01*
X6295422Y-3847140D01*
X6295422Y-3847141D01*
X6286607Y-3862409D01*
X6286607Y-3862409D01*
X6286282Y-3862971D01*
X6286081Y-3863588D01*
X6286081Y-3863589D01*
X6280633Y-3880356D01*
X6280633Y-3880357D01*
X6280433Y-3880974D01*
X6280365Y-3881619D01*
X6280365Y-3881620D01*
X6278596Y-3898446D01*
X6278454Y-3899800D01*
X50050Y-3899800D01*
X50050Y-3020622D01*
X635233Y-3020622D01*
X635916Y-3021746D01*
X636316Y-3022085D01*
X664269Y-3043335D01*
X664824Y-3043711D01*
X694910Y-3061813D01*
X695504Y-3062128D01*
X727369Y-3076871D01*
X727994Y-3077120D01*
X761268Y-3088331D01*
X761913Y-3088510D01*
X796205Y-3096058D01*
X796868Y-3096167D01*
X831774Y-3099963D01*
X832444Y-3100000D01*
X867556Y-3100000D01*
X868226Y-3099963D01*
X903132Y-3096167D01*
X903795Y-3096058D01*
X938087Y-3088510D01*
X938731Y-3088331D01*
X972006Y-3077120D01*
X972630Y-3076871D01*
X1004496Y-3062128D01*
X1005090Y-3061813D01*
X1035176Y-3043711D01*
X1035730Y-3043335D01*
X1063685Y-3022085D01*
X1064084Y-3021746D01*
X1064767Y-3020622D01*
X1064100Y-3019455D01*
X851154Y-2806509D01*
X850000Y-2805843D01*
X848846Y-2806509D01*
X635900Y-3019455D01*
X635233Y-3020622D01*
X50050Y-3020622D01*
X50050Y-2770335D01*
X519533Y-2770335D01*
X521434Y-2805395D01*
X521507Y-2806063D01*
X527187Y-2840713D01*
X527332Y-2841368D01*
X536725Y-2875200D01*
X536940Y-2875836D01*
X549936Y-2908455D01*
X550217Y-2909062D01*
X566665Y-2940086D01*
X567010Y-2940660D01*
X586715Y-2969722D01*
X587121Y-2970256D01*
X598532Y-2983691D01*
X599666Y-2984452D01*
X600859Y-2983785D01*
X813490Y-2771154D01*
X814157Y-2770000D01*
X885843Y-2770000D01*
X886509Y-2771154D01*
X1099141Y-2983785D01*
X1100333Y-2984452D01*
X1101468Y-2983691D01*
X1112879Y-2970256D01*
X1113285Y-2969722D01*
X1132990Y-2940660D01*
X1133335Y-2940086D01*
X1149783Y-2909062D01*
X1150064Y-2908455D01*
X1163060Y-2875836D01*
X1163275Y-2875200D01*
X1172668Y-2841368D01*
X1172813Y-2840713D01*
X1178493Y-2806063D01*
X1178566Y-2805395D01*
X1180467Y-2770335D01*
X1180467Y-2769664D01*
X1178566Y-2734604D01*
X1178493Y-2733937D01*
X1172813Y-2699287D01*
X1172668Y-2698631D01*
X1163275Y-2664800D01*
X1163060Y-2664163D01*
X1150064Y-2631544D01*
X1149783Y-2630937D01*
X1133335Y-2599913D01*
X1132990Y-2599339D01*
X1113285Y-2570277D01*
X1112879Y-2569743D01*
X1101468Y-2556309D01*
X1100333Y-2555547D01*
X1099141Y-2556214D01*
X886509Y-2768845D01*
X885843Y-2770000D01*
X814157Y-2770000D01*
X813490Y-2768845D01*
X600859Y-2556214D01*
X599666Y-2555547D01*
X598532Y-2556309D01*
X587121Y-2569743D01*
X586715Y-2570277D01*
X567010Y-2599339D01*
X566665Y-2599913D01*
X550217Y-2630937D01*
X549936Y-2631544D01*
X536940Y-2664163D01*
X536725Y-2664800D01*
X527332Y-2698631D01*
X527187Y-2699287D01*
X521507Y-2733937D01*
X521434Y-2734604D01*
X519533Y-2769664D01*
X519533Y-2770335D01*
X50050Y-2770335D01*
X50050Y-2519377D01*
X635233Y-2519377D01*
X635900Y-2520545D01*
X848846Y-2733490D01*
X850000Y-2734157D01*
X851154Y-2733490D01*
X1064100Y-2520544D01*
X1064767Y-2519377D01*
X1064084Y-2518253D01*
X1063684Y-2517914D01*
X1035730Y-2496664D01*
X1035176Y-2496288D01*
X1005090Y-2478186D01*
X1004496Y-2477871D01*
X972630Y-2463128D01*
X972006Y-2462880D01*
X938731Y-2451668D01*
X938087Y-2451489D01*
X903795Y-2443941D01*
X903132Y-2443832D01*
X868226Y-2440036D01*
X867556Y-2440000D01*
X832444Y-2440000D01*
X831774Y-2440036D01*
X796868Y-2443832D01*
X796205Y-2443941D01*
X761913Y-2451489D01*
X761268Y-2451668D01*
X727994Y-2462880D01*
X727369Y-2463128D01*
X695504Y-2477871D01*
X694910Y-2478186D01*
X664824Y-2496288D01*
X664269Y-2496664D01*
X636315Y-2517914D01*
X635916Y-2518253D01*
X635233Y-2519377D01*
X50050Y-2519377D01*
X50050Y-1456089D01*
X51311Y-1450641D01*
X54837Y-1446301D01*
X180511Y-1348554D01*
X602138Y-1020622D01*
X1635233Y-1020622D01*
X1635916Y-1021746D01*
X1636316Y-1022085D01*
X1664269Y-1043335D01*
X1664824Y-1043711D01*
X1694910Y-1061813D01*
X1695504Y-1062128D01*
X1727369Y-1076871D01*
X1727994Y-1077120D01*
X1761268Y-1088331D01*
X1761913Y-1088510D01*
X1796205Y-1096059D01*
X1796868Y-1096167D01*
X1831774Y-1099963D01*
X1832444Y-1100000D01*
X1867556Y-1100000D01*
X1868226Y-1099963D01*
X1903132Y-1096167D01*
X1903795Y-1096059D01*
X1938087Y-1088510D01*
X1938731Y-1088331D01*
X1972006Y-1077120D01*
X1972630Y-1076871D01*
X2004496Y-1062128D01*
X2005090Y-1061813D01*
X2035176Y-1043711D01*
X2035730Y-1043335D01*
X2063685Y-1022085D01*
X2064084Y-1021746D01*
X2064767Y-1020622D01*
X2064100Y-1019455D01*
X1851154Y-806509D01*
X1850000Y-805843D01*
X1848846Y-806509D01*
X1635900Y-1019455D01*
X1635233Y-1020622D01*
X602138Y-1020622D01*
X923935Y-770335D01*
X1519533Y-770335D01*
X1521434Y-805395D01*
X1521507Y-806063D01*
X1527187Y-840713D01*
X1527332Y-841368D01*
X1536725Y-875200D01*
X1536940Y-875836D01*
X1549936Y-908455D01*
X1550217Y-909062D01*
X1566665Y-940086D01*
X1567010Y-940660D01*
X1586715Y-969722D01*
X1587121Y-970256D01*
X1598532Y-983691D01*
X1599666Y-984452D01*
X1600859Y-983785D01*
X1813490Y-771154D01*
X1814157Y-770000D01*
X1885843Y-770000D01*
X1886509Y-771154D01*
X2099141Y-983785D01*
X2100333Y-984452D01*
X2101468Y-983691D01*
X2112879Y-970256D01*
X2113285Y-969722D01*
X2132990Y-940660D01*
X2133335Y-940086D01*
X2149783Y-909062D01*
X2150064Y-908455D01*
X2163060Y-875836D01*
X2163275Y-875200D01*
X2172668Y-841368D01*
X2172813Y-840713D01*
X2178493Y-806063D01*
X2178566Y-805395D01*
X2180467Y-770335D01*
X2180467Y-769664D01*
X2178566Y-734604D01*
X2178493Y-733937D01*
X2172813Y-699287D01*
X2172668Y-698631D01*
X2163275Y-664800D01*
X2163060Y-664163D01*
X2150064Y-631544D01*
X2149783Y-630937D01*
X2133335Y-599913D01*
X2132990Y-599339D01*
X2113285Y-570277D01*
X2112879Y-569743D01*
X2101468Y-556309D01*
X2100333Y-555547D01*
X2099141Y-556214D01*
X1886509Y-768845D01*
X1885843Y-770000D01*
X1814157Y-770000D01*
X1813490Y-768845D01*
X1600859Y-556214D01*
X1599666Y-555547D01*
X1598532Y-556309D01*
X1587121Y-569743D01*
X1586715Y-570277D01*
X1567010Y-599339D01*
X1566665Y-599913D01*
X1550217Y-630937D01*
X1549936Y-631544D01*
X1536940Y-664163D01*
X1536725Y-664800D01*
X1527332Y-698631D01*
X1527187Y-699287D01*
X1521507Y-733937D01*
X1521434Y-734604D01*
X1519533Y-769664D01*
X1519533Y-770335D01*
X923935Y-770335D01*
X1246596Y-519377D01*
X1635233Y-519377D01*
X1635900Y-520544D01*
X1848846Y-733490D01*
X1850000Y-734156D01*
X1851154Y-733490D01*
X2064100Y-520544D01*
X2064767Y-519377D01*
X2064084Y-518253D01*
X2063684Y-517914D01*
X2035730Y-496664D01*
X2035176Y-496288D01*
X2026215Y-490896D01*
X3189950Y-490896D01*
X3189973Y-491166D01*
X3189974Y-491166D01*
X3191413Y-507620D01*
X3191494Y-508540D01*
X3191634Y-509063D01*
X3191634Y-509063D01*
X3197469Y-530843D01*
X3197470Y-530844D01*
X3197610Y-531366D01*
X3197838Y-531857D01*
X3197839Y-531857D01*
X3199768Y-535994D01*
X3207596Y-552783D01*
X3207907Y-553226D01*
X3207907Y-553227D01*
X3210127Y-556396D01*
X3221150Y-572140D01*
X3237860Y-588849D01*
X3238303Y-589160D01*
X3238303Y-589160D01*
X3241290Y-591251D01*
X3257217Y-602403D01*
X3257707Y-602632D01*
X3257707Y-602632D01*
X3260067Y-603732D01*
X3278634Y-612390D01*
X3279157Y-612530D01*
X3279157Y-612530D01*
X3281291Y-613102D01*
X3301459Y-618506D01*
X3325000Y-620566D01*
X3348541Y-618506D01*
X3371366Y-612390D01*
X3392783Y-602403D01*
X3412140Y-588849D01*
X3428849Y-572140D01*
X3439873Y-556396D01*
X3444305Y-552510D01*
X3450030Y-551109D01*
X3455756Y-552510D01*
X3460188Y-556396D01*
X3470878Y-571664D01*
X3471572Y-572490D01*
X3487509Y-588428D01*
X3488336Y-589121D01*
X3506799Y-602050D01*
X3507732Y-602588D01*
X3528160Y-612114D01*
X3529174Y-612483D01*
X3548622Y-617694D01*
X3549745Y-617731D01*
X3550000Y-616637D01*
X3550000Y-328363D01*
X3549745Y-327269D01*
X3548622Y-327305D01*
X3529174Y-332517D01*
X3528160Y-332885D01*
X3507733Y-342411D01*
X3506798Y-342951D01*
X3488336Y-355878D01*
X3487509Y-356572D01*
X3471572Y-372509D01*
X3470879Y-373335D01*
X3460188Y-388603D01*
X3455756Y-392489D01*
X3450030Y-393891D01*
X3444305Y-392489D01*
X3439873Y-388603D01*
X3435720Y-382672D01*
X3428849Y-372860D01*
X3412140Y-356150D01*
X3411697Y-355840D01*
X3411697Y-355840D01*
X3393226Y-342906D01*
X3393226Y-342906D01*
X3392783Y-342596D01*
X3392293Y-342368D01*
X3392293Y-342368D01*
X3371857Y-332838D01*
X3371857Y-332838D01*
X3371366Y-332609D01*
X3370844Y-332469D01*
X3370843Y-332469D01*
X3349063Y-326633D01*
X3349063Y-326633D01*
X3348541Y-326493D01*
X3348002Y-326446D01*
X3348002Y-326446D01*
X3325539Y-324481D01*
X3325000Y-324434D01*
X3324460Y-324481D01*
X3301998Y-326446D01*
X3301998Y-326446D01*
X3301459Y-326493D01*
X3300937Y-326633D01*
X3300936Y-326633D01*
X3279157Y-332469D01*
X3279156Y-332470D01*
X3278634Y-332609D01*
X3278143Y-332838D01*
X3278143Y-332838D01*
X3257708Y-342367D01*
X3257708Y-342367D01*
X3257217Y-342596D01*
X3256774Y-342907D01*
X3256773Y-342907D01*
X3238303Y-355840D01*
X3238303Y-355840D01*
X3237860Y-356150D01*
X3237477Y-356532D01*
X3237477Y-356533D01*
X3221533Y-372477D01*
X3221533Y-372477D01*
X3221150Y-372860D01*
X3220840Y-373303D01*
X3220840Y-373303D01*
X3207907Y-391773D01*
X3207907Y-391773D01*
X3207596Y-392217D01*
X3207368Y-392707D01*
X3207367Y-392708D01*
X3197839Y-413142D01*
X3197838Y-413143D01*
X3197610Y-413633D01*
X3197470Y-414155D01*
X3197469Y-414157D01*
X3191634Y-435936D01*
X3191633Y-435937D01*
X3191494Y-436459D01*
X3191446Y-436997D01*
X3191446Y-436998D01*
X3191371Y-437857D01*
X3189950Y-454103D01*
X3189950Y-490896D01*
X2026215Y-490896D01*
X2005090Y-478186D01*
X2004496Y-477871D01*
X1972630Y-463128D01*
X1972006Y-462880D01*
X1938731Y-451668D01*
X1938087Y-451489D01*
X1903795Y-443941D01*
X1903132Y-443832D01*
X1868226Y-440036D01*
X1867556Y-440000D01*
X1832444Y-440000D01*
X1831774Y-440036D01*
X1796868Y-443832D01*
X1796205Y-443941D01*
X1761913Y-451489D01*
X1761268Y-451668D01*
X1727994Y-462880D01*
X1727369Y-463128D01*
X1695504Y-477871D01*
X1694910Y-478186D01*
X1664824Y-496288D01*
X1664269Y-496664D01*
X1636315Y-517914D01*
X1635916Y-518253D01*
X1635233Y-519377D01*
X1246596Y-519377D01*
X1846642Y-52675D01*
X1850249Y-50728D01*
X1854293Y-50063D01*
X7802763Y-69221D01*
G37*
%TD.AperFunction*%
%TA.AperFunction,Conductor*%
G36*
X8123328Y-732602D02*
G01*
X8124067Y-732767D01*
X8127394Y-732662D01*
X8133004Y-733809D01*
X8137501Y-737354D01*
X8139926Y-742542D01*
X8139761Y-748266D01*
X8136634Y-759936D01*
X8136633Y-759937D01*
X8136494Y-760459D01*
X8136446Y-760997D01*
X8136446Y-760998D01*
X8135363Y-773385D01*
X8134434Y-784000D01*
X8134481Y-784539D01*
X8136403Y-806509D01*
X8136494Y-807540D01*
X8136634Y-808063D01*
X8136634Y-808063D01*
X8142469Y-829843D01*
X8142470Y-829843D01*
X8142610Y-830366D01*
X8142838Y-830857D01*
X8142839Y-830857D01*
X8152368Y-851292D01*
X8152368Y-851293D01*
X8152596Y-851783D01*
X8152906Y-852225D01*
X8152907Y-852226D01*
X8165840Y-870696D01*
X8165840Y-870697D01*
X8166150Y-871140D01*
X8182860Y-887849D01*
X8183303Y-888160D01*
X8183304Y-888160D01*
X8201416Y-900842D01*
X8205302Y-905274D01*
X8206703Y-911000D01*
X8205302Y-916725D01*
X8201416Y-921157D01*
X8186596Y-931534D01*
X8182860Y-934150D01*
X8182477Y-934532D01*
X8182477Y-934533D01*
X8166533Y-950477D01*
X8166533Y-950477D01*
X8166150Y-950860D01*
X8165840Y-951303D01*
X8165840Y-951303D01*
X8152907Y-969773D01*
X8152907Y-969773D01*
X8152596Y-970217D01*
X8152368Y-970707D01*
X8152367Y-970708D01*
X8142839Y-991142D01*
X8142838Y-991143D01*
X8142610Y-991633D01*
X8142470Y-992155D01*
X8142469Y-992157D01*
X8136634Y-1013936D01*
X8136633Y-1013937D01*
X8136494Y-1014459D01*
X8136446Y-1014997D01*
X8136446Y-1014998D01*
X8134959Y-1032002D01*
X8134434Y-1038000D01*
X8134481Y-1038539D01*
X8136401Y-1060485D01*
X8136494Y-1061541D01*
X8136634Y-1062063D01*
X8136634Y-1062063D01*
X8142469Y-1083843D01*
X8142470Y-1083844D01*
X8142610Y-1084366D01*
X8142838Y-1084857D01*
X8142839Y-1084857D01*
X8152368Y-1105292D01*
X8152368Y-1105293D01*
X8152596Y-1105783D01*
X8152906Y-1106225D01*
X8152907Y-1106226D01*
X8165840Y-1124696D01*
X8165840Y-1124697D01*
X8166150Y-1125140D01*
X8182860Y-1141849D01*
X8183303Y-1142160D01*
X8183303Y-1142160D01*
X8195343Y-1150590D01*
X8202217Y-1155403D01*
X8202707Y-1155632D01*
X8202707Y-1155632D01*
X8205225Y-1156806D01*
X8223634Y-1165390D01*
X8246459Y-1171506D01*
X8270000Y-1173566D01*
X8293541Y-1171506D01*
X8303587Y-1168814D01*
X8310006Y-1168814D01*
X8315565Y-1172023D01*
X8436418Y-1292877D01*
X8439106Y-1296900D01*
X8440050Y-1301645D01*
X8440050Y-1405250D01*
X8438223Y-1411729D01*
X8433280Y-1416298D01*
X8426677Y-1417612D01*
X8420362Y-1415282D01*
X8415799Y-1411967D01*
X8415799Y-1411966D01*
X8415273Y-1411585D01*
X8408886Y-1408741D01*
X8398575Y-1404150D01*
X8398574Y-1404150D01*
X8397980Y-1403885D01*
X8397344Y-1403750D01*
X8397344Y-1403750D01*
X8380101Y-1400085D01*
X8380100Y-1400085D01*
X8379465Y-1399950D01*
X8360535Y-1399950D01*
X8359899Y-1400085D01*
X8359899Y-1400085D01*
X8342656Y-1403750D01*
X8342655Y-1403750D01*
X8342020Y-1403885D01*
X8341426Y-1404149D01*
X8341425Y-1404150D01*
X8325321Y-1411320D01*
X8325320Y-1411320D01*
X8324727Y-1411585D01*
X8324202Y-1411966D01*
X8324201Y-1411967D01*
X8309939Y-1422329D01*
X8309938Y-1422329D01*
X8309413Y-1422711D01*
X8308978Y-1423193D01*
X8308978Y-1423194D01*
X8297597Y-1435834D01*
X8294695Y-1438209D01*
X8292029Y-1439786D01*
X8292029Y-1439786D01*
X8291358Y-1440183D01*
X8290807Y-1440734D01*
X8290806Y-1440734D01*
X8289941Y-1441599D01*
X8288463Y-1442862D01*
X8287473Y-1443581D01*
X8287472Y-1443582D01*
X8286841Y-1444040D01*
X8286344Y-1444641D01*
X8286344Y-1444641D01*
X8284057Y-1447406D01*
X8283271Y-1448269D01*
X7895223Y-1836318D01*
X7891200Y-1839006D01*
X7886455Y-1839950D01*
X7880535Y-1839950D01*
X7879899Y-1840085D01*
X7879899Y-1840085D01*
X7862656Y-1843750D01*
X7862655Y-1843750D01*
X7862020Y-1843885D01*
X7861426Y-1844149D01*
X7861425Y-1844150D01*
X7845321Y-1851320D01*
X7845320Y-1851320D01*
X7844727Y-1851585D01*
X7844202Y-1851966D01*
X7844201Y-1851967D01*
X7829939Y-1862329D01*
X7829938Y-1862329D01*
X7829413Y-1862711D01*
X7828978Y-1863193D01*
X7828978Y-1863194D01*
X7817181Y-1876295D01*
X7817181Y-1876296D01*
X7816747Y-1876778D01*
X7816422Y-1877340D01*
X7816422Y-1877341D01*
X7807607Y-1892609D01*
X7807607Y-1892609D01*
X7807282Y-1893171D01*
X7807081Y-1893788D01*
X7807081Y-1893789D01*
X7801633Y-1910556D01*
X7801633Y-1910557D01*
X7801433Y-1911174D01*
X7801365Y-1911819D01*
X7801365Y-1911820D01*
X7799961Y-1925174D01*
X7799454Y-1930000D01*
X7799522Y-1930646D01*
X7801365Y-1948179D01*
X7801365Y-1948180D01*
X7801433Y-1948825D01*
X7801633Y-1949442D01*
X7801633Y-1949443D01*
X7806396Y-1964101D01*
X7807282Y-1966828D01*
X7807607Y-1967390D01*
X7807607Y-1967391D01*
X7811154Y-1973534D01*
X7816747Y-1983221D01*
X7829413Y-1997288D01*
X7844727Y-2008415D01*
X7862020Y-2016114D01*
X7880535Y-2020050D01*
X7898814Y-2020050D01*
X7899465Y-2020050D01*
X7917980Y-2016114D01*
X7935273Y-2008415D01*
X7950587Y-1997288D01*
X7963253Y-1983221D01*
X7972718Y-1966828D01*
X7978567Y-1948825D01*
X7980332Y-1932034D01*
X7981472Y-1927992D01*
X7983896Y-1924563D01*
X8329398Y-1579060D01*
X8335272Y-1575771D01*
X8341829Y-1576029D01*
X8342020Y-1576114D01*
X8360535Y-1580050D01*
X8378814Y-1580050D01*
X8379465Y-1580050D01*
X8397980Y-1576114D01*
X8415273Y-1568415D01*
X8420362Y-1564718D01*
X8426677Y-1562388D01*
X8433280Y-1563701D01*
X8438223Y-1568271D01*
X8440050Y-1574750D01*
X8440050Y-2089824D01*
X8439106Y-2094569D01*
X8436418Y-2098592D01*
X8286070Y-2248940D01*
X8285251Y-2249685D01*
X8284612Y-2250091D01*
X8284079Y-2250659D01*
X8284078Y-2250659D01*
X8280010Y-2254992D01*
X8279739Y-2255271D01*
X8278063Y-2256947D01*
X8278062Y-2256948D01*
X8277788Y-2257222D01*
X8277550Y-2257529D01*
X8277549Y-2257530D01*
X8277540Y-2257542D01*
X8276784Y-2258426D01*
X8274328Y-2261042D01*
X8274327Y-2261043D01*
X8273794Y-2261611D01*
X8273418Y-2262294D01*
X8273418Y-2262295D01*
X8272828Y-2263367D01*
X8271761Y-2264992D01*
X8271011Y-2265959D01*
X8271010Y-2265960D01*
X8270533Y-2266576D01*
X8270223Y-2267290D01*
X8270223Y-2267291D01*
X8268797Y-2270585D01*
X8268284Y-2271634D01*
X8266180Y-2275460D01*
X8265986Y-2276215D01*
X8265986Y-2276215D01*
X8265682Y-2277400D01*
X8265052Y-2279240D01*
X8264566Y-2280364D01*
X8264566Y-2280364D01*
X8264256Y-2281080D01*
X8264134Y-2281850D01*
X8264134Y-2281850D01*
X8263573Y-2285393D01*
X8263336Y-2286537D01*
X8262444Y-2290012D01*
X8262444Y-2290013D01*
X8262250Y-2290767D01*
X8262250Y-2291547D01*
X8262250Y-2292771D01*
X8262097Y-2294709D01*
X8261784Y-2296689D01*
X8261857Y-2297465D01*
X8261857Y-2297466D01*
X8262195Y-2301037D01*
X8262250Y-2302204D01*
X8262250Y-2343553D01*
X8262198Y-2344658D01*
X8262033Y-2345397D01*
X8262057Y-2346176D01*
X8262057Y-2346176D01*
X8262244Y-2352118D01*
X8262250Y-2352507D01*
X8262250Y-2355265D01*
X8262299Y-2355652D01*
X8262299Y-2355653D01*
X8262300Y-2355665D01*
X8262392Y-2356827D01*
X8262504Y-2360413D01*
X8262505Y-2360414D01*
X8262529Y-2361193D01*
X8262747Y-2361942D01*
X8262747Y-2361942D01*
X8263088Y-2363116D01*
X8263482Y-2365022D01*
X8263734Y-2367009D01*
X8264021Y-2367734D01*
X8264021Y-2367735D01*
X8265341Y-2371071D01*
X8265720Y-2372175D01*
X8266938Y-2376369D01*
X8267335Y-2377041D01*
X8267645Y-2377757D01*
X8267405Y-2377860D01*
X8268764Y-2382753D01*
X8267135Y-2388994D01*
X8262593Y-2393572D01*
X8256365Y-2395250D01*
X7526338Y-2395250D01*
X7525232Y-2395198D01*
X7524494Y-2395032D01*
X7523715Y-2395057D01*
X7523714Y-2395057D01*
X7517772Y-2395244D01*
X7517382Y-2395250D01*
X7514625Y-2395250D01*
X7514240Y-2395298D01*
X7514239Y-2395298D01*
X7514234Y-2395299D01*
X7514227Y-2395300D01*
X7513065Y-2395391D01*
X7509477Y-2395504D01*
X7509477Y-2395504D01*
X7508698Y-2395529D01*
X7507949Y-2395746D01*
X7507949Y-2395746D01*
X7506773Y-2396088D01*
X7504869Y-2396482D01*
X7503655Y-2396635D01*
X7503654Y-2396636D01*
X7502881Y-2396733D01*
X7502156Y-2397020D01*
X7502156Y-2397020D01*
X7498820Y-2398341D01*
X7497716Y-2398719D01*
X7494270Y-2399720D01*
X7494270Y-2399720D01*
X7493521Y-2399938D01*
X7492850Y-2400335D01*
X7492850Y-2400335D01*
X7491797Y-2400958D01*
X7490051Y-2401813D01*
X7488912Y-2402264D01*
X7488912Y-2402264D01*
X7488187Y-2402551D01*
X7487557Y-2403009D01*
X7487556Y-2403010D01*
X7484654Y-2405118D01*
X7483678Y-2405759D01*
X7480590Y-2407585D01*
X7480589Y-2407586D01*
X7479918Y-2407983D01*
X7479367Y-2408534D01*
X7479366Y-2408535D01*
X7478501Y-2409400D01*
X7477023Y-2410662D01*
X7476033Y-2411381D01*
X7476032Y-2411382D01*
X7475402Y-2411840D01*
X7474905Y-2412441D01*
X7474904Y-2412441D01*
X7472618Y-2415206D01*
X7471831Y-2416069D01*
X7293718Y-2594183D01*
X7288782Y-2597208D01*
X7283010Y-2597662D01*
X7277661Y-2595447D01*
X7273901Y-2591044D01*
X7272550Y-2585415D01*
X7272550Y-2341045D01*
X7273494Y-2336300D01*
X7276182Y-2332277D01*
X7372277Y-2236182D01*
X7376300Y-2233494D01*
X7381045Y-2232550D01*
X7942222Y-2232550D01*
X7943328Y-2232602D01*
X7944067Y-2232767D01*
X7950787Y-2232556D01*
X7951177Y-2232550D01*
X7953545Y-2232550D01*
X7953935Y-2232550D01*
X7954331Y-2232500D01*
X7955496Y-2232408D01*
X7959863Y-2232271D01*
X7961786Y-2231712D01*
X7963692Y-2231317D01*
X7965679Y-2231066D01*
X7969739Y-2229458D01*
X7970845Y-2229080D01*
X7975039Y-2227862D01*
X7976763Y-2226842D01*
X7978510Y-2225986D01*
X7979647Y-2225536D01*
X7979648Y-2225536D01*
X7980373Y-2225248D01*
X7983907Y-2222681D01*
X7984882Y-2222040D01*
X7988642Y-2219817D01*
X7990058Y-2218400D01*
X7991538Y-2217137D01*
X7993159Y-2215959D01*
X7995943Y-2212594D01*
X7996727Y-2211732D01*
X8024777Y-2183681D01*
X8028800Y-2180994D01*
X8033545Y-2180050D01*
X8038814Y-2180050D01*
X8039465Y-2180050D01*
X8057980Y-2176114D01*
X8075273Y-2168415D01*
X8090587Y-2157289D01*
X8103253Y-2143221D01*
X8112718Y-2126828D01*
X8118567Y-2108825D01*
X8120546Y-2090000D01*
X8118567Y-2071174D01*
X8112718Y-2053171D01*
X8103253Y-2036778D01*
X8097015Y-2029849D01*
X8091022Y-2023194D01*
X8091022Y-2023194D01*
X8090587Y-2022711D01*
X8090061Y-2022329D01*
X8090061Y-2022329D01*
X8075799Y-2011967D01*
X8075799Y-2011966D01*
X8075273Y-2011585D01*
X8074608Y-2011288D01*
X8058574Y-2004150D01*
X8058574Y-2004150D01*
X8057980Y-2003885D01*
X8057344Y-2003750D01*
X8057344Y-2003750D01*
X8040101Y-2000085D01*
X8040100Y-2000085D01*
X8039465Y-1999950D01*
X8020535Y-1999950D01*
X8019899Y-2000085D01*
X8019899Y-2000085D01*
X8002656Y-2003750D01*
X8002655Y-2003750D01*
X8002020Y-2003885D01*
X8001426Y-2004149D01*
X8001425Y-2004150D01*
X7985321Y-2011320D01*
X7985320Y-2011320D01*
X7984727Y-2011585D01*
X7984202Y-2011966D01*
X7984201Y-2011967D01*
X7969939Y-2022329D01*
X7969938Y-2022329D01*
X7969413Y-2022711D01*
X7968978Y-2023193D01*
X7968978Y-2023194D01*
X7957181Y-2036295D01*
X7957181Y-2036296D01*
X7956747Y-2036778D01*
X7956422Y-2037340D01*
X7956422Y-2037341D01*
X7947607Y-2052609D01*
X7947607Y-2052609D01*
X7947282Y-2053171D01*
X7947081Y-2053788D01*
X7947081Y-2053789D01*
X7941633Y-2070556D01*
X7941633Y-2070557D01*
X7941433Y-2071174D01*
X7941365Y-2071819D01*
X7941365Y-2071820D01*
X7939668Y-2087964D01*
X7938528Y-2092007D01*
X7936104Y-2095436D01*
X7927723Y-2103818D01*
X7923700Y-2106506D01*
X7918955Y-2107450D01*
X7377902Y-2107450D01*
X7357777Y-2107450D01*
X7356672Y-2107398D01*
X7355933Y-2107232D01*
X7355154Y-2107257D01*
X7355154Y-2107257D01*
X7349213Y-2107444D01*
X7348823Y-2107450D01*
X7346065Y-2107450D01*
X7345680Y-2107498D01*
X7345678Y-2107498D01*
X7345665Y-2107500D01*
X7344503Y-2107592D01*
X7340917Y-2107704D01*
X7340916Y-2107704D01*
X7340137Y-2107729D01*
X7339389Y-2107946D01*
X7339387Y-2107947D01*
X7338213Y-2108288D01*
X7336308Y-2108682D01*
X7335095Y-2108836D01*
X7335095Y-2108836D01*
X7334321Y-2108933D01*
X7333596Y-2109220D01*
X7333595Y-2109221D01*
X7330260Y-2110541D01*
X7329155Y-2110919D01*
X7325710Y-2111920D01*
X7325709Y-2111921D01*
X7324961Y-2112138D01*
X7324290Y-2112535D01*
X7324290Y-2112535D01*
X7323236Y-2113158D01*
X7321490Y-2114013D01*
X7320352Y-2114464D01*
X7320351Y-2114464D01*
X7319627Y-2114751D01*
X7318996Y-2115209D01*
X7318995Y-2115210D01*
X7316093Y-2117318D01*
X7315117Y-2117959D01*
X7312030Y-2119785D01*
X7312029Y-2119786D01*
X7311358Y-2120183D01*
X7310807Y-2120734D01*
X7310806Y-2120735D01*
X7309941Y-2121600D01*
X7308463Y-2122862D01*
X7307473Y-2123581D01*
X7307472Y-2123582D01*
X7306841Y-2124040D01*
X7306344Y-2124641D01*
X7306344Y-2124641D01*
X7304057Y-2127406D01*
X7303271Y-2128269D01*
X7171270Y-2260271D01*
X7170451Y-2261016D01*
X7169812Y-2261421D01*
X7169279Y-2261989D01*
X7169278Y-2261990D01*
X7165210Y-2266322D01*
X7164939Y-2266601D01*
X7163263Y-2268278D01*
X7163262Y-2268278D01*
X7162988Y-2268553D01*
X7162750Y-2268859D01*
X7162749Y-2268861D01*
X7162740Y-2268872D01*
X7161984Y-2269757D01*
X7159528Y-2272372D01*
X7159527Y-2272373D01*
X7158994Y-2272942D01*
X7158618Y-2273625D01*
X7158618Y-2273625D01*
X7158028Y-2274697D01*
X7156961Y-2276322D01*
X7156211Y-2277289D01*
X7156210Y-2277290D01*
X7155733Y-2277906D01*
X7155423Y-2278621D01*
X7155423Y-2278622D01*
X7153997Y-2281916D01*
X7153484Y-2282964D01*
X7151831Y-2285971D01*
X7151380Y-2286791D01*
X7151186Y-2287545D01*
X7151186Y-2287546D01*
X7150882Y-2288730D01*
X7150252Y-2290571D01*
X7149766Y-2291695D01*
X7149766Y-2291695D01*
X7149456Y-2292410D01*
X7149334Y-2293180D01*
X7149334Y-2293180D01*
X7148773Y-2296724D01*
X7148536Y-2297867D01*
X7147644Y-2301343D01*
X7147644Y-2301343D01*
X7147450Y-2302098D01*
X7147450Y-2302877D01*
X7147450Y-2304101D01*
X7147297Y-2306040D01*
X7146984Y-2308019D01*
X7147057Y-2308796D01*
X7147057Y-2308796D01*
X7147395Y-2312367D01*
X7147450Y-2313534D01*
X7147450Y-2598955D01*
X7146506Y-2603700D01*
X7143818Y-2607723D01*
X6855223Y-2896318D01*
X6851200Y-2899006D01*
X6846455Y-2899950D01*
X6840535Y-2899950D01*
X6839899Y-2900085D01*
X6839899Y-2900085D01*
X6822656Y-2903750D01*
X6822655Y-2903750D01*
X6822020Y-2903885D01*
X6821426Y-2904149D01*
X6821425Y-2904150D01*
X6805321Y-2911320D01*
X6805320Y-2911320D01*
X6804727Y-2911585D01*
X6804202Y-2911966D01*
X6804201Y-2911967D01*
X6789939Y-2922329D01*
X6789938Y-2922329D01*
X6789413Y-2922711D01*
X6788978Y-2923193D01*
X6788978Y-2923194D01*
X6777181Y-2936295D01*
X6777181Y-2936296D01*
X6776747Y-2936778D01*
X6776422Y-2937340D01*
X6776422Y-2937341D01*
X6767607Y-2952609D01*
X6767607Y-2952609D01*
X6767282Y-2953171D01*
X6767081Y-2953788D01*
X6767081Y-2953789D01*
X6761633Y-2970556D01*
X6761633Y-2970557D01*
X6761433Y-2971174D01*
X6761365Y-2971819D01*
X6761365Y-2971820D01*
X6760107Y-2983785D01*
X6759454Y-2990000D01*
X6759522Y-2990646D01*
X6761365Y-3008179D01*
X6761365Y-3008180D01*
X6761433Y-3008825D01*
X6761633Y-3009442D01*
X6761633Y-3009443D01*
X6766984Y-3025911D01*
X6767282Y-3026828D01*
X6767607Y-3027390D01*
X6767607Y-3027391D01*
X6775490Y-3041045D01*
X6776747Y-3043221D01*
X6777181Y-3043704D01*
X6777181Y-3043704D01*
X6786185Y-3053704D01*
X6789413Y-3057288D01*
X6804727Y-3068415D01*
X6822020Y-3076114D01*
X6840535Y-3080050D01*
X6858814Y-3080050D01*
X6859465Y-3080050D01*
X6877980Y-3076114D01*
X6895273Y-3068415D01*
X6902761Y-3062974D01*
X6909077Y-3060644D01*
X6915679Y-3061957D01*
X6920623Y-3066527D01*
X6922450Y-3073006D01*
X6922450Y-3302624D01*
X6921506Y-3307369D01*
X6918818Y-3311392D01*
X6842020Y-3388190D01*
X6841201Y-3388935D01*
X6840562Y-3389341D01*
X6840029Y-3389909D01*
X6840028Y-3389909D01*
X6835960Y-3394242D01*
X6835689Y-3394521D01*
X6834013Y-3396197D01*
X6834012Y-3396198D01*
X6833738Y-3396472D01*
X6833500Y-3396779D01*
X6833499Y-3396780D01*
X6833490Y-3396792D01*
X6832734Y-3397676D01*
X6830278Y-3400292D01*
X6830277Y-3400293D01*
X6829744Y-3400861D01*
X6829368Y-3401544D01*
X6829368Y-3401545D01*
X6828778Y-3402617D01*
X6827711Y-3404242D01*
X6826961Y-3405209D01*
X6826960Y-3405210D01*
X6826483Y-3405826D01*
X6826173Y-3406540D01*
X6826173Y-3406541D01*
X6824747Y-3409835D01*
X6824234Y-3410883D01*
X6822506Y-3414026D01*
X6822130Y-3414710D01*
X6821936Y-3415465D01*
X6821936Y-3415465D01*
X6821632Y-3416650D01*
X6821002Y-3418490D01*
X6820516Y-3419614D01*
X6820516Y-3419614D01*
X6820206Y-3420330D01*
X6820084Y-3421099D01*
X6820084Y-3421100D01*
X6819523Y-3424643D01*
X6819286Y-3425787D01*
X6818394Y-3429262D01*
X6818394Y-3429263D01*
X6818200Y-3430017D01*
X6818200Y-3430797D01*
X6818200Y-3432021D01*
X6818047Y-3433959D01*
X6817734Y-3435939D01*
X6817807Y-3436715D01*
X6817807Y-3436716D01*
X6818145Y-3440287D01*
X6818200Y-3441454D01*
X6818200Y-3499731D01*
X6817376Y-3504175D01*
X6815015Y-3508028D01*
X6807931Y-3515895D01*
X6807931Y-3515896D01*
X6807497Y-3516378D01*
X6807172Y-3516940D01*
X6807172Y-3516941D01*
X6798357Y-3532209D01*
X6798357Y-3532209D01*
X6798032Y-3532771D01*
X6797831Y-3533388D01*
X6797831Y-3533389D01*
X6792383Y-3550156D01*
X6792383Y-3550157D01*
X6792183Y-3550774D01*
X6792115Y-3551419D01*
X6792115Y-3551420D01*
X6791548Y-3556815D01*
X6790204Y-3569600D01*
X6790272Y-3570246D01*
X6792115Y-3587779D01*
X6792115Y-3587780D01*
X6792183Y-3588425D01*
X6792383Y-3589042D01*
X6792383Y-3589043D01*
X6797584Y-3605049D01*
X6798032Y-3606428D01*
X6798357Y-3606990D01*
X6798357Y-3606991D01*
X6799430Y-3608850D01*
X6801091Y-3615050D01*
X6799430Y-3621250D01*
X6794891Y-3625788D01*
X6788691Y-3627450D01*
X5881045Y-3627450D01*
X5876300Y-3626506D01*
X5872277Y-3623818D01*
X5616182Y-3367722D01*
X5613494Y-3363700D01*
X5612550Y-3358954D01*
X5612550Y-2001045D01*
X5613494Y-1996300D01*
X5616182Y-1992277D01*
X5792277Y-1816182D01*
X5796300Y-1813494D01*
X5801045Y-1812550D01*
X6502222Y-1812550D01*
X6503328Y-1812602D01*
X6504067Y-1812767D01*
X6510787Y-1812556D01*
X6511177Y-1812550D01*
X6513545Y-1812550D01*
X6513935Y-1812550D01*
X6514331Y-1812500D01*
X6515496Y-1812408D01*
X6519863Y-1812271D01*
X6521786Y-1811712D01*
X6523692Y-1811317D01*
X6525679Y-1811066D01*
X6529739Y-1809458D01*
X6530845Y-1809080D01*
X6535039Y-1807861D01*
X6536763Y-1806842D01*
X6538510Y-1805986D01*
X6539647Y-1805536D01*
X6539648Y-1805535D01*
X6540373Y-1805248D01*
X6543907Y-1802681D01*
X6544882Y-1802040D01*
X6548642Y-1799817D01*
X6550058Y-1798400D01*
X6551538Y-1797136D01*
X6553159Y-1795959D01*
X6555943Y-1792593D01*
X6556728Y-1791731D01*
X7428058Y-920400D01*
X7434121Y-917067D01*
X7441026Y-917501D01*
X7446624Y-921568D01*
X7449171Y-928001D01*
X7449395Y-930367D01*
X7449450Y-931534D01*
X7449450Y-1543931D01*
X7448626Y-1548375D01*
X7446265Y-1552228D01*
X7439181Y-1560095D01*
X7439181Y-1560096D01*
X7438747Y-1560578D01*
X7438422Y-1561140D01*
X7438422Y-1561141D01*
X7429607Y-1576409D01*
X7429607Y-1576409D01*
X7429282Y-1576971D01*
X7429081Y-1577588D01*
X7429081Y-1577589D01*
X7423633Y-1594356D01*
X7423633Y-1594357D01*
X7423433Y-1594974D01*
X7423365Y-1595619D01*
X7423365Y-1595620D01*
X7422080Y-1607843D01*
X7421454Y-1613800D01*
X7421522Y-1614446D01*
X7423365Y-1631979D01*
X7423365Y-1631980D01*
X7423433Y-1632625D01*
X7423633Y-1633242D01*
X7423633Y-1633243D01*
X7429081Y-1650010D01*
X7429282Y-1650628D01*
X7429607Y-1651190D01*
X7429607Y-1651191D01*
X7436066Y-1662378D01*
X7438747Y-1667021D01*
X7439181Y-1667504D01*
X7439181Y-1667504D01*
X7449738Y-1679228D01*
X7451413Y-1681088D01*
X7466727Y-1692215D01*
X7484020Y-1699914D01*
X7502535Y-1703850D01*
X7520814Y-1703850D01*
X7521465Y-1703850D01*
X7539980Y-1699914D01*
X7557273Y-1692215D01*
X7572587Y-1681088D01*
X7585253Y-1667021D01*
X7594718Y-1650628D01*
X7600567Y-1632625D01*
X7602546Y-1613800D01*
X7600567Y-1594974D01*
X7594718Y-1576971D01*
X7585253Y-1560578D01*
X7577735Y-1552228D01*
X7575374Y-1548375D01*
X7574550Y-1543931D01*
X7574550Y-959045D01*
X7575494Y-954300D01*
X7578182Y-950277D01*
X7792277Y-736182D01*
X7796300Y-733494D01*
X7801045Y-732550D01*
X8122222Y-732550D01*
X8123328Y-732602D01*
G37*
%TD.AperFunction*%
%TA.AperFunction,Conductor*%
G36*
X8721730Y-834577D02*
G01*
X8726482Y-838508D01*
X8728752Y-844243D01*
X8728934Y-845679D01*
X8729221Y-846404D01*
X8729221Y-846404D01*
X8730541Y-849740D01*
X8730920Y-850845D01*
X8732138Y-855039D01*
X8732535Y-855710D01*
X8732535Y-855710D01*
X8733158Y-856763D01*
X8734014Y-858510D01*
X8734464Y-859648D01*
X8734464Y-859648D01*
X8734751Y-860373D01*
X8735824Y-861849D01*
X8737318Y-863906D01*
X8737959Y-864882D01*
X8739786Y-867970D01*
X8739786Y-867970D01*
X8740183Y-868642D01*
X8740734Y-869193D01*
X8740735Y-869193D01*
X8741599Y-870058D01*
X8742863Y-871537D01*
X8743582Y-872527D01*
X8743582Y-872528D01*
X8744041Y-873158D01*
X8744642Y-873655D01*
X8744642Y-873656D01*
X8747406Y-875942D01*
X8748270Y-876729D01*
X8820271Y-948729D01*
X8821016Y-949548D01*
X8821421Y-950187D01*
X8825800Y-954300D01*
X8826322Y-954790D01*
X8826602Y-955061D01*
X8828553Y-957012D01*
X8828871Y-957258D01*
X8829757Y-958015D01*
X8830854Y-959045D01*
X8832373Y-960472D01*
X8832373Y-960472D01*
X8832942Y-961006D01*
X8833625Y-961381D01*
X8833625Y-961382D01*
X8834697Y-961971D01*
X8836323Y-963039D01*
X8837906Y-964267D01*
X8841915Y-966002D01*
X8842963Y-966515D01*
X8846791Y-968619D01*
X8848496Y-969057D01*
X8848731Y-969117D01*
X8850572Y-969748D01*
X8852410Y-970543D01*
X8856727Y-971227D01*
X8857866Y-971463D01*
X8862098Y-972550D01*
X8864102Y-972550D01*
X8866040Y-972702D01*
X8868020Y-973016D01*
X8871828Y-972656D01*
X8872368Y-972605D01*
X8873535Y-972550D01*
X8986024Y-972550D01*
X8990770Y-973494D01*
X8994792Y-976182D01*
X9122218Y-1103607D01*
X9124906Y-1107630D01*
X9125850Y-1112375D01*
X9125850Y-1670931D01*
X9125026Y-1675375D01*
X9122665Y-1679228D01*
X9115581Y-1687095D01*
X9115581Y-1687096D01*
X9115147Y-1687578D01*
X9114822Y-1688140D01*
X9114822Y-1688141D01*
X9106007Y-1703409D01*
X9106007Y-1703409D01*
X9105682Y-1703971D01*
X9105482Y-1704588D01*
X9105481Y-1704589D01*
X9100033Y-1721356D01*
X9100033Y-1721357D01*
X9099833Y-1721974D01*
X9099765Y-1722619D01*
X9099765Y-1722620D01*
X9099190Y-1728091D01*
X9097854Y-1740800D01*
X9097922Y-1741446D01*
X9099765Y-1758979D01*
X9099765Y-1758980D01*
X9099833Y-1759625D01*
X9100033Y-1760242D01*
X9100033Y-1760243D01*
X9105481Y-1777010D01*
X9105682Y-1777628D01*
X9115147Y-1794021D01*
X9115581Y-1794504D01*
X9115581Y-1794504D01*
X9127378Y-1807605D01*
X9127813Y-1808088D01*
X9128339Y-1808470D01*
X9128339Y-1808471D01*
X9133569Y-1812271D01*
X9143127Y-1819215D01*
X9156647Y-1825234D01*
X9161341Y-1828885D01*
X9163795Y-1834302D01*
X9163445Y-1840239D01*
X9160371Y-1845330D01*
X8753186Y-2252515D01*
X8747418Y-2255779D01*
X8740792Y-2255605D01*
X8735203Y-2252044D01*
X8734572Y-2251344D01*
X8734572Y-2251344D01*
X8734137Y-2250861D01*
X8733612Y-2250479D01*
X8733611Y-2250479D01*
X8719349Y-2240117D01*
X8719349Y-2240117D01*
X8718823Y-2239735D01*
X8718230Y-2239471D01*
X8702125Y-2232300D01*
X8702124Y-2232300D01*
X8701531Y-2232036D01*
X8700895Y-2231900D01*
X8700894Y-2231900D01*
X8683651Y-2228235D01*
X8683651Y-2228235D01*
X8683015Y-2228100D01*
X8682365Y-2228100D01*
X8677096Y-2228100D01*
X8672350Y-2227156D01*
X8668328Y-2224468D01*
X8661182Y-2217323D01*
X8658494Y-2213300D01*
X8657550Y-2208554D01*
X8657550Y-1281045D01*
X8658494Y-1276300D01*
X8661182Y-1272277D01*
X8680232Y-1253226D01*
X8681048Y-1252484D01*
X8681688Y-1252078D01*
X8686292Y-1247175D01*
X8686554Y-1246905D01*
X8688512Y-1244947D01*
X8688759Y-1244629D01*
X8689517Y-1243741D01*
X8692506Y-1240558D01*
X8693471Y-1238802D01*
X8694539Y-1237177D01*
X8695767Y-1235593D01*
X8697502Y-1231585D01*
X8698015Y-1230537D01*
X8700120Y-1226709D01*
X8700618Y-1224768D01*
X8701248Y-1222927D01*
X8702044Y-1221089D01*
X8702727Y-1216774D01*
X8702963Y-1215634D01*
X8704050Y-1211402D01*
X8704050Y-1209398D01*
X8704203Y-1207458D01*
X8704394Y-1206251D01*
X8704394Y-1206251D01*
X8704516Y-1205480D01*
X8704105Y-1201132D01*
X8704050Y-1199965D01*
X8704050Y-845797D01*
X8705584Y-839823D01*
X8709806Y-835327D01*
X8715671Y-833421D01*
X8721730Y-834577D01*
G37*
%TD.AperFunction*%
%TA.AperFunction,Conductor*%
G36*
X8128800Y-222711D02*
G01*
X8133339Y-227250D01*
X8135000Y-233450D01*
X8135000Y-249367D01*
X8135345Y-250655D01*
X8136633Y-251000D01*
X8282600Y-251000D01*
X8288800Y-252661D01*
X8293339Y-257200D01*
X8295000Y-263400D01*
X8295000Y-288600D01*
X8293339Y-294800D01*
X8288800Y-299338D01*
X8282600Y-301000D01*
X8136633Y-301000D01*
X8135345Y-301345D01*
X8135000Y-302632D01*
X8135000Y-337550D01*
X8133339Y-343750D01*
X8128800Y-348288D01*
X8122600Y-349950D01*
X7877400Y-349950D01*
X7871200Y-348288D01*
X7866661Y-343750D01*
X7865000Y-337550D01*
X7865000Y-329900D01*
X7866661Y-323700D01*
X7871200Y-319161D01*
X7877400Y-317500D01*
X7985867Y-317500D01*
X7987155Y-317155D01*
X7987500Y-315867D01*
X7987500Y-307900D01*
X7987468Y-307272D01*
X7986537Y-298158D01*
X7986255Y-296842D01*
X7981272Y-281805D01*
X7980666Y-280504D01*
X7972374Y-267061D01*
X7971483Y-265935D01*
X7970602Y-265053D01*
X7967392Y-259494D01*
X7967392Y-253075D01*
X7970602Y-247516D01*
X7972034Y-246085D01*
X7981091Y-231401D01*
X7981704Y-229549D01*
X7984292Y-225117D01*
X7988454Y-222112D01*
X7993475Y-221050D01*
X8122600Y-221050D01*
X8128800Y-222711D01*
G37*
%TD.AperFunction*%
M02*
