%TF.GenerationSoftware,KiCad,Pcbnew,7.0.5-7.0.5~ubuntu20.04.1*%
%TF.CreationDate,2023-06-15T15:06:09+02:00*%
%TF.ProjectId,Controler_NRF24L01_Exclude_v3,436f6e74-726f-46c6-9572-5f4e52463234,rev?*%
%TF.SameCoordinates,Original*%
%TF.FileFunction,Plated,1,2,PTH,Drill*%
%TF.FilePolarity,Positive*%
%FSLAX46Y46*%
G04 Gerber Fmt 4.6, Leading zero omitted, Abs format (unit mm)*
G04 Created by KiCad (PCBNEW 7.0.5-7.0.5~ubuntu20.04.1) date 2023-06-15 15:06:09*
%MOMM*%
%LPD*%
G01*
G04 APERTURE LIST*
%TA.AperFunction,ViaDrill*%
%ADD10C,0.800000*%
%TD*%
%TA.AperFunction,ComponentDrill*%
%ADD11C,0.950000*%
%TD*%
%TA.AperFunction,ComponentDrill*%
%ADD12C,1.000000*%
%TD*%
%TA.AperFunction,ComponentDrill*%
%ADD13C,3.200000*%
%TD*%
G04 APERTURE END LIST*
D10*
X86410000Y-86040000D03*
X87680000Y-90640000D03*
X89157963Y-85915481D03*
X90580000Y-84160000D03*
X91760000Y-95810000D03*
X94825285Y-83582655D03*
X100070000Y-84260500D03*
X101950000Y-96720000D03*
X114350000Y-71340000D03*
X117900000Y-71250000D03*
X123070000Y-70940000D03*
X127400000Y-76089500D03*
X131407202Y-99617202D03*
X135880000Y-120590000D03*
X136420000Y-94410000D03*
X136615591Y-105399569D03*
X137390000Y-103720000D03*
X138080000Y-93520000D03*
X138480000Y-91320000D03*
X138640000Y-88870000D03*
X139008774Y-101373303D03*
X139320000Y-73800000D03*
X140240000Y-104140000D03*
X142460000Y-85100000D03*
X143960000Y-86370000D03*
X144230000Y-90510000D03*
X146140000Y-87908555D03*
X146360000Y-82330000D03*
X146600000Y-98680000D03*
X147609500Y-80635804D03*
X147610000Y-77690000D03*
X147900000Y-103100000D03*
X148700000Y-93400000D03*
X148841250Y-83571250D03*
X149050000Y-89220000D03*
X151020000Y-93120000D03*
X152475040Y-73247192D03*
X152660000Y-91420000D03*
X153670000Y-82140000D03*
X153836246Y-79246572D03*
X153880000Y-74450000D03*
X154110000Y-89290000D03*
X155560000Y-73160000D03*
X155910000Y-111570000D03*
X156170000Y-86650000D03*
X156660000Y-84100000D03*
X157280000Y-79860000D03*
X157450000Y-73730000D03*
X158540000Y-86890000D03*
X160080000Y-89310000D03*
X161780000Y-79160000D03*
X162070000Y-88290000D03*
X162449500Y-85840188D03*
X164050000Y-87740000D03*
X165220000Y-85960000D03*
X165690000Y-96190000D03*
X166500000Y-87940000D03*
X167190000Y-116880000D03*
X167550000Y-107950000D03*
X167700000Y-121600000D03*
X168550000Y-110540000D03*
X172030000Y-74120000D03*
X173000000Y-79600000D03*
X173300000Y-82100000D03*
X174740000Y-95630000D03*
X176800000Y-83100000D03*
X179000000Y-83200000D03*
X183680000Y-78180000D03*
X186040000Y-86290000D03*
X188290000Y-94240000D03*
X189160000Y-78220000D03*
X193400000Y-95040000D03*
X193630000Y-90630000D03*
X196600000Y-83650000D03*
X197380000Y-99580000D03*
X200650000Y-90330000D03*
D11*
%TO.C,J3*%
X96440000Y-68925000D03*
X98940000Y-68925000D03*
X101440000Y-68925000D03*
%TO.C,J4*%
X185594000Y-69162000D03*
X188094000Y-69162000D03*
X190594000Y-69162000D03*
D12*
%TO.C,U2*%
X145890000Y-66960000D03*
X145890000Y-69500000D03*
X145890000Y-72040000D03*
X145890000Y-74580000D03*
X148430000Y-66960000D03*
X148430000Y-69500000D03*
X148430000Y-72040000D03*
X148430000Y-74580000D03*
%TO.C,J1*%
X180965000Y-113300000D03*
X180965000Y-115800000D03*
D13*
%TO.C,H2*%
X71690000Y-91900000D03*
%TO.C,H1*%
X81690000Y-71900000D03*
%TO.C,H3*%
X81690000Y-113900000D03*
%TO.C,H4*%
X206690000Y-71900000D03*
%TO.C,H6*%
X206690000Y-113900000D03*
%TO.C,H5*%
X216690000Y-91900000D03*
M02*
