%TF.GenerationSoftware,KiCad,Pcbnew,7.0.5-7.0.5~ubuntu20.04.1*%
%TF.CreationDate,2023-06-19T07:22:00+00:00*%
%TF.ProjectId,Controler_NRF24L01_Exclude_v3,436f6e74-726f-46c6-9572-5f4e52463234,rev?*%
%TF.SameCoordinates,Original*%
%TF.FileFunction,Other,User*%
%FSLAX45Y45*%
G04 Gerber Fmt 4.5, Leading zero omitted, Abs format (unit mm)*
G04 Created by KiCad (PCBNEW 7.0.5-7.0.5~ubuntu20.04.1) date 2023-06-19 07:22:00*
%MOMM*%
%LPD*%
G01*
G04 APERTURE LIST*
%TA.AperFunction,Profile*%
%ADD10C,0.050000*%
%TD*%
%TA.AperFunction,Profile*%
%ADD11C,0.100000*%
%TD*%
%ADD12C,0.050000*%
G04 APERTURE END LIST*
D10*
X20569000Y-12290000D02*
G75*
G03*
X20569000Y-6490000I-1674316J2900000D01*
G01*
D11*
X8169000Y-6490000D02*
X20569000Y-6490000D01*
X8169000Y-12290000D02*
X20569000Y-12290000D01*
D10*
X8169000Y-6490000D02*
G75*
G03*
X8169000Y-12290000I1674316J-2900000D01*
G01*
D12*
X16779500Y-6905000D02*
X16779500Y-7235000D01*
X16633500Y-6905000D02*
X16779500Y-6905000D01*
X16779500Y-7235000D02*
X16633500Y-7235000D01*
X16633500Y-7235000D02*
X16633500Y-6905000D01*
X17730000Y-8037000D02*
X18060000Y-8037000D01*
X17730000Y-8183000D02*
X17730000Y-8037000D01*
X18060000Y-8037000D02*
X18060000Y-8183000D01*
X18060000Y-8183000D02*
X17730000Y-8183000D01*
X15654500Y-6907500D02*
X15654500Y-7237500D01*
X15508500Y-6907500D02*
X15654500Y-6907500D01*
X15654500Y-7237500D02*
X15508500Y-7237500D01*
X15508500Y-7237500D02*
X15508500Y-6907500D01*
X17730000Y-7884600D02*
X18060000Y-7884600D01*
X17730000Y-8030600D02*
X17730000Y-7884600D01*
X18060000Y-7884600D02*
X18060000Y-8030600D01*
X18060000Y-8030600D02*
X17730000Y-8030600D01*
X12309000Y-8480000D02*
X12629000Y-8480000D01*
X12629000Y-8480000D02*
X12629000Y-7500000D01*
X12309000Y-7500000D02*
X12309000Y-8480000D01*
X12629000Y-7500000D02*
X12309000Y-7500000D01*
X16939500Y-6905000D02*
X16939500Y-7235000D01*
X16793500Y-6905000D02*
X16939500Y-6905000D01*
X16939500Y-7235000D02*
X16793500Y-7235000D01*
X16793500Y-7235000D02*
X16793500Y-6905000D01*
X16736000Y-6886250D02*
X16736000Y-6556250D01*
X16882000Y-6886250D02*
X16736000Y-6886250D01*
X16736000Y-6556250D02*
X16882000Y-6556250D01*
X16882000Y-6556250D02*
X16882000Y-6886250D01*
X16299500Y-6905000D02*
X16299500Y-7235000D01*
X16153500Y-6905000D02*
X16299500Y-6905000D01*
X16299500Y-7235000D02*
X16153500Y-7235000D01*
X16153500Y-7235000D02*
X16153500Y-6905000D01*
X15215000Y-8123000D02*
X14885000Y-8123000D01*
X15215000Y-7977000D02*
X15215000Y-8123000D01*
X14885000Y-8123000D02*
X14885000Y-7977000D01*
X14885000Y-7977000D02*
X15215000Y-7977000D01*
X11354000Y-6517000D02*
X11684000Y-6517000D01*
X11354000Y-6663000D02*
X11354000Y-6517000D01*
X11684000Y-6517000D02*
X11684000Y-6663000D01*
X11684000Y-6663000D02*
X11354000Y-6663000D01*
X16813500Y-8487000D02*
X17143500Y-8487000D01*
X16813500Y-8633000D02*
X16813500Y-8487000D01*
X17143500Y-8487000D02*
X17143500Y-8633000D01*
X17143500Y-8633000D02*
X16813500Y-8633000D01*
X15986000Y-6886250D02*
X15986000Y-6556250D01*
X16132000Y-6886250D02*
X15986000Y-6886250D01*
X15986000Y-6556250D02*
X16132000Y-6556250D01*
X16132000Y-6556250D02*
X16132000Y-6886250D01*
X8474000Y-7190000D02*
G75*
G03*
X8474000Y-7190000I-305000J0D01*
G01*
X15386000Y-6886250D02*
X15386000Y-6556250D01*
X15532000Y-6886250D02*
X15386000Y-6886250D01*
X15386000Y-6556250D02*
X15532000Y-6556250D01*
X15532000Y-6556250D02*
X15532000Y-6886250D01*
X8474000Y-11390000D02*
G75*
G03*
X8474000Y-11390000I-305000J0D01*
G01*
X15533000Y-6886250D02*
X15533000Y-6556250D01*
X15679000Y-6886250D02*
X15533000Y-6886250D01*
X15533000Y-6556250D02*
X15679000Y-6556250D01*
X15679000Y-6556250D02*
X15679000Y-6886250D01*
X16586000Y-6886250D02*
X16586000Y-6556250D01*
X16732000Y-6886250D02*
X16586000Y-6886250D01*
X16586000Y-6556250D02*
X16732000Y-6556250D01*
X16732000Y-6556250D02*
X16732000Y-6886250D01*
X8884798Y-9918000D02*
X8554798Y-9918000D01*
X8884798Y-9772000D02*
X8884798Y-9918000D01*
X8554798Y-9918000D02*
X8554798Y-9772000D01*
X8554798Y-9772000D02*
X8884798Y-9772000D01*
X8819000Y-7490000D02*
X8819000Y-8230000D01*
X8819000Y-8230000D02*
X9819000Y-8230000D01*
X9819000Y-7490000D02*
X8819000Y-7490000D01*
X9819000Y-8230000D02*
X9819000Y-7490000D01*
X12090000Y-9020000D02*
X12090000Y-9760000D01*
X12090000Y-9760000D02*
X13090000Y-9760000D01*
X13090000Y-9020000D02*
X12090000Y-9020000D01*
X13090000Y-9760000D02*
X13090000Y-9020000D01*
X14785000Y-8127000D02*
X15115000Y-8127000D01*
X14785000Y-8273000D02*
X14785000Y-8127000D01*
X15115000Y-8127000D02*
X15115000Y-8273000D01*
X15115000Y-8273000D02*
X14785000Y-8273000D01*
X19354400Y-7201200D02*
X19354400Y-6526200D01*
X19354400Y-6526200D02*
X18264400Y-6526200D01*
X18264400Y-7201200D02*
X19354400Y-7201200D01*
X18264400Y-6526200D02*
X18264400Y-7201200D01*
X20974000Y-7190000D02*
G75*
G03*
X20974000Y-7190000I-305000J0D01*
G01*
X16136000Y-6886250D02*
X16136000Y-6556250D01*
X16282000Y-6886250D02*
X16136000Y-6886250D01*
X16136000Y-6556250D02*
X16282000Y-6556250D01*
X16282000Y-6556250D02*
X16282000Y-6886250D01*
X13539000Y-10908000D02*
X13869000Y-10908000D01*
X14199000Y-10908000D02*
X13869000Y-10908000D01*
X13494000Y-10765000D02*
X13539000Y-10765000D01*
X13539000Y-10765000D02*
X13539000Y-10908000D01*
X14199000Y-10765000D02*
X14199000Y-10908000D01*
X14244000Y-10765000D02*
X14199000Y-10765000D01*
X13351000Y-10720000D02*
X13494000Y-10720000D01*
X13494000Y-10720000D02*
X13494000Y-10765000D01*
X14244000Y-10720000D02*
X14244000Y-10765000D01*
X14387000Y-10720000D02*
X14244000Y-10720000D01*
X13351000Y-10390000D02*
X13351000Y-10720000D01*
X13351000Y-10390000D02*
X13351000Y-10060000D01*
X14387000Y-10390000D02*
X14387000Y-10720000D01*
X14387000Y-10390000D02*
X14387000Y-10060000D01*
X13351000Y-10060000D02*
X13494000Y-10060000D01*
X13494000Y-10060000D02*
X13494000Y-10015000D01*
X14244000Y-10060000D02*
X14244000Y-10015000D01*
X14387000Y-10060000D02*
X14244000Y-10060000D01*
X13494000Y-10015000D02*
X13539000Y-10015000D01*
X13539000Y-10015000D02*
X13539000Y-9872000D01*
X14199000Y-10015000D02*
X14199000Y-9872000D01*
X14244000Y-10015000D02*
X14199000Y-10015000D01*
X13539000Y-9872000D02*
X13869000Y-9872000D01*
X14199000Y-9872000D02*
X13869000Y-9872000D01*
X15494400Y-6907500D02*
X15494400Y-7237500D01*
X15348400Y-6907500D02*
X15494400Y-6907500D01*
X15494400Y-7237500D02*
X15348400Y-7237500D01*
X15348400Y-7237500D02*
X15348400Y-6907500D01*
X17119000Y-6570000D02*
X17119000Y-7310000D01*
X17119000Y-7310000D02*
X18119000Y-7310000D01*
X18119000Y-6570000D02*
X17119000Y-6570000D01*
X18119000Y-7310000D02*
X18119000Y-6570000D01*
X17582000Y-11558750D02*
X17582000Y-11888750D01*
X17436000Y-11558750D02*
X17582000Y-11558750D01*
X17582000Y-11888750D02*
X17436000Y-11888750D01*
X17436000Y-11888750D02*
X17436000Y-11558750D01*
X7569000Y-8820000D02*
X7569000Y-9560000D01*
X7569000Y-9560000D02*
X8569000Y-9560000D01*
X8569000Y-8820000D02*
X7569000Y-8820000D01*
X8569000Y-9560000D02*
X8569000Y-8820000D01*
X10439000Y-7177500D02*
X10439000Y-6502500D01*
X10439000Y-6502500D02*
X9349000Y-6502500D01*
X9349000Y-7177500D02*
X10439000Y-7177500D01*
X9349000Y-6502500D02*
X9349000Y-7177500D01*
X15236000Y-6886250D02*
X15236000Y-6556250D01*
X15382000Y-6886250D02*
X15236000Y-6886250D01*
X15236000Y-6556250D02*
X15382000Y-6556250D01*
X15382000Y-6556250D02*
X15382000Y-6886250D01*
X15814500Y-6907500D02*
X15814500Y-7237500D01*
X15668500Y-6907500D02*
X15814500Y-6907500D01*
X15814500Y-7237500D02*
X15668500Y-7237500D01*
X15668500Y-7237500D02*
X15668500Y-6907500D01*
X17102000Y-6905000D02*
X17102000Y-7235000D01*
X16956000Y-6905000D02*
X17102000Y-6905000D01*
X17102000Y-7235000D02*
X16956000Y-7235000D01*
X16956000Y-7235000D02*
X16956000Y-6905000D01*
X17769000Y-8820000D02*
X17769000Y-9560000D01*
X17769000Y-9560000D02*
X18769000Y-9560000D01*
X18769000Y-8820000D02*
X17769000Y-8820000D01*
X18769000Y-9560000D02*
X18769000Y-8820000D01*
X15315000Y-7873000D02*
X14985000Y-7873000D01*
X15315000Y-7727000D02*
X15315000Y-7873000D01*
X14985000Y-7873000D02*
X14985000Y-7727000D01*
X14985000Y-7727000D02*
X15315000Y-7727000D01*
X16436000Y-6886250D02*
X16436000Y-6556250D01*
X16582000Y-6886250D02*
X16436000Y-6886250D01*
X16436000Y-6556250D02*
X16582000Y-6556250D01*
X16582000Y-6556250D02*
X16582000Y-6886250D01*
X16286000Y-6886250D02*
X16286000Y-6556250D01*
X16432000Y-6886250D02*
X16286000Y-6886250D01*
X16286000Y-6556250D02*
X16432000Y-6556250D01*
X16432000Y-6556250D02*
X16432000Y-6886250D01*
X16619500Y-6905000D02*
X16619500Y-7235000D01*
X16473500Y-6905000D02*
X16619500Y-6905000D01*
X16619500Y-7235000D02*
X16473500Y-7235000D01*
X16473500Y-7235000D02*
X16473500Y-6905000D01*
X15469000Y-9020000D02*
X15469000Y-9760000D01*
X15469000Y-9760000D02*
X16469000Y-9760000D01*
X16469000Y-9020000D02*
X15469000Y-9020000D01*
X16469000Y-9760000D02*
X16469000Y-9020000D01*
X11494500Y-6675000D02*
X11494500Y-7005000D01*
X11348500Y-6675000D02*
X11494500Y-6675000D01*
X11494500Y-7005000D02*
X11348500Y-7005000D01*
X11348500Y-7005000D02*
X11348500Y-6675000D01*
X14409000Y-6516000D02*
X14409000Y-7636000D01*
X14409000Y-7636000D02*
X15024000Y-7636000D01*
X15024000Y-6516000D02*
X14409000Y-6516000D01*
X15024000Y-7636000D02*
X15024000Y-6516000D01*
X13472200Y-10764400D02*
X13472200Y-11094400D01*
X13326200Y-10764400D02*
X13472200Y-10764400D01*
X13472200Y-11094400D02*
X13326200Y-11094400D01*
X13326200Y-11094400D02*
X13326200Y-10764400D01*
X21974000Y-9190000D02*
G75*
G03*
X21974000Y-9190000I-305000J0D01*
G01*
X11704000Y-6517000D02*
X12034000Y-6517000D01*
X11704000Y-6663000D02*
X11704000Y-6517000D01*
X12034000Y-6517000D02*
X12034000Y-6663000D01*
X12034000Y-6663000D02*
X11704000Y-6663000D01*
X12389000Y-8487000D02*
X12719000Y-8487000D01*
X12389000Y-8633000D02*
X12389000Y-8487000D01*
X12719000Y-8487000D02*
X12719000Y-8633000D01*
X12719000Y-8633000D02*
X12389000Y-8633000D01*
X8894798Y-9772000D02*
X9224798Y-9772000D01*
X8894798Y-9918000D02*
X8894798Y-9772000D01*
X9224798Y-9772000D02*
X9224798Y-9918000D01*
X9224798Y-9918000D02*
X8894798Y-9918000D01*
X8819000Y-9990000D02*
X8819000Y-10730000D01*
X8819000Y-10730000D02*
X9819000Y-10730000D01*
X9819000Y-9990000D02*
X8819000Y-9990000D01*
X9819000Y-10730000D02*
X9819000Y-9990000D01*
X14412000Y-9672200D02*
X14412000Y-10002200D01*
X14266000Y-9672200D02*
X14412000Y-9672200D01*
X14412000Y-10002200D02*
X14266000Y-10002200D01*
X14266000Y-10002200D02*
X14266000Y-9672200D01*
X16138000Y-6906250D02*
X16138000Y-7236250D01*
X15992000Y-6906250D02*
X16138000Y-6906250D01*
X16138000Y-7236250D02*
X15992000Y-7236250D01*
X15992000Y-7236250D02*
X15992000Y-6906250D01*
X12202000Y-6667500D02*
X12202000Y-6997500D01*
X12056000Y-6667500D02*
X12202000Y-6667500D01*
X12202000Y-6997500D02*
X12056000Y-6997500D01*
X12056000Y-6997500D02*
X12056000Y-6667500D01*
X14564400Y-9672200D02*
X14564400Y-10002200D01*
X14418400Y-9672200D02*
X14564400Y-9672200D01*
X14564400Y-10002200D02*
X14418400Y-10002200D01*
X14418400Y-10002200D02*
X14418400Y-9672200D01*
X19019000Y-7570000D02*
X19019000Y-8310000D01*
X19019000Y-8310000D02*
X20019000Y-8310000D01*
X20019000Y-7570000D02*
X19019000Y-7570000D01*
X20019000Y-8310000D02*
X20019000Y-7570000D01*
X7474000Y-9190000D02*
G75*
G03*
X7474000Y-9190000I-305000J0D01*
G01*
X16459500Y-6905000D02*
X16459500Y-7235000D01*
X16313500Y-6905000D02*
X16459500Y-6905000D01*
X16459500Y-7235000D02*
X16313500Y-7235000D01*
X16313500Y-7235000D02*
X16313500Y-6905000D01*
X11144500Y-6672500D02*
X11144500Y-7002500D01*
X10998500Y-6672500D02*
X11144500Y-6672500D01*
X11144500Y-7002500D02*
X10998500Y-7002500D01*
X10998500Y-7002500D02*
X10998500Y-6672500D01*
X10304000Y-7367000D02*
X10634000Y-7367000D01*
X10304000Y-7513000D02*
X10304000Y-7367000D01*
X10634000Y-7367000D02*
X10634000Y-7513000D01*
X10634000Y-7513000D02*
X10304000Y-7513000D01*
X11847000Y-6672500D02*
X11847000Y-7002500D01*
X11701000Y-6672500D02*
X11847000Y-6672500D01*
X11847000Y-7002500D02*
X11701000Y-7002500D01*
X11701000Y-7002500D02*
X11701000Y-6672500D01*
X11004000Y-6517000D02*
X11334000Y-6517000D01*
X11004000Y-6663000D02*
X11004000Y-6517000D01*
X11334000Y-6517000D02*
X11334000Y-6663000D01*
X11334000Y-6663000D02*
X11004000Y-6663000D01*
X16726000Y-8480000D02*
X17046000Y-8480000D01*
X17046000Y-8480000D02*
X17046000Y-7500000D01*
X16726000Y-7500000D02*
X16726000Y-8480000D01*
X17046000Y-7500000D02*
X16726000Y-7500000D01*
X17551000Y-7515000D02*
X17551000Y-7865000D01*
X17551000Y-7865000D02*
X18187000Y-7865000D01*
X18187000Y-7515000D02*
X17551000Y-7515000D01*
X18187000Y-7865000D02*
X18187000Y-7515000D01*
X20265202Y-9918000D02*
X19935202Y-9918000D01*
X20265202Y-9772000D02*
X20265202Y-9918000D01*
X19935202Y-9918000D02*
X19935202Y-9772000D01*
X19935202Y-9772000D02*
X20265202Y-9772000D01*
X15974500Y-6907500D02*
X15974500Y-7237500D01*
X15828500Y-6907500D02*
X15974500Y-6907500D01*
X15974500Y-7237500D02*
X15828500Y-7237500D01*
X15828500Y-7237500D02*
X15828500Y-6907500D01*
X20285202Y-9772000D02*
X20615202Y-9772000D01*
X20285202Y-9918000D02*
X20285202Y-9772000D01*
X20615202Y-9772000D02*
X20615202Y-9918000D01*
X20615202Y-9918000D02*
X20285202Y-9918000D01*
X17782000Y-11558750D02*
X17782000Y-11888750D01*
X17636000Y-11558750D02*
X17782000Y-11558750D01*
X17782000Y-11888750D02*
X17636000Y-11888750D01*
X17636000Y-11888750D02*
X17636000Y-11558750D01*
X15651500Y-10889000D02*
X15651500Y-11879000D01*
X15651500Y-11879000D02*
X16511500Y-11879000D01*
X16511500Y-10889000D02*
X15651500Y-10889000D01*
X16511500Y-11879000D02*
X16511500Y-10889000D01*
X17547000Y-7815000D02*
X17547000Y-8145000D01*
X17401000Y-7815000D02*
X17547000Y-7815000D01*
X17547000Y-8145000D02*
X17401000Y-8145000D01*
X17401000Y-8145000D02*
X17401000Y-7815000D01*
X20974000Y-11390000D02*
G75*
G03*
X20974000Y-11390000I-305000J0D01*
G01*
X15632400Y-8266400D02*
X16652400Y-8266400D01*
X16652400Y-8266400D02*
X16652400Y-7496400D01*
X15632400Y-7496400D02*
X15632400Y-8266400D01*
X16652400Y-7496400D02*
X15632400Y-7496400D01*
X15334500Y-6907500D02*
X15334500Y-7237500D01*
X15188500Y-6907500D02*
X15334500Y-6907500D01*
X15334500Y-7237500D02*
X15188500Y-7237500D01*
X15188500Y-7237500D02*
X15188500Y-6907500D01*
X15836000Y-6886250D02*
X15836000Y-6556250D01*
X15982000Y-6886250D02*
X15836000Y-6886250D01*
X15836000Y-6556250D02*
X15982000Y-6556250D01*
X15982000Y-6556250D02*
X15982000Y-6886250D01*
X19019000Y-10070000D02*
X19019000Y-10810000D01*
X19019000Y-10810000D02*
X20019000Y-10810000D01*
X20019000Y-10070000D02*
X19019000Y-10070000D01*
X20019000Y-10810000D02*
X20019000Y-10070000D01*
X17782000Y-11205000D02*
X17782000Y-11535000D01*
X17636000Y-11205000D02*
X17782000Y-11205000D01*
X17782000Y-11535000D02*
X17636000Y-11535000D01*
X17636000Y-11535000D02*
X17636000Y-11205000D01*
X10069000Y-8820000D02*
X10069000Y-9560000D01*
X10069000Y-9560000D02*
X11069000Y-9560000D01*
X11069000Y-8820000D02*
X10069000Y-8820000D01*
X11069000Y-9560000D02*
X11069000Y-8820000D01*
X15686000Y-6886250D02*
X15686000Y-6556250D01*
X15832000Y-6886250D02*
X15686000Y-6886250D01*
X15686000Y-6556250D02*
X15832000Y-6556250D01*
X15832000Y-6556250D02*
X15832000Y-6886250D01*
X20269000Y-8820000D02*
X20269000Y-9560000D01*
X20269000Y-9560000D02*
X21269000Y-9560000D01*
X21269000Y-8820000D02*
X20269000Y-8820000D01*
X21269000Y-9560000D02*
X21269000Y-8820000D01*
X18704000Y-7317000D02*
X19034000Y-7317000D01*
X18704000Y-7463000D02*
X18704000Y-7317000D01*
X19034000Y-7317000D02*
X19034000Y-7463000D01*
X19034000Y-7463000D02*
X18704000Y-7463000D01*
X17341500Y-8873250D02*
X17341500Y-9203250D01*
X17195500Y-8873250D02*
X17341500Y-8873250D01*
X17341500Y-9203250D02*
X17195500Y-9203250D01*
X17195500Y-9203250D02*
X17195500Y-8873250D01*
X12054000Y-6517000D02*
X12384000Y-6517000D01*
X12054000Y-6663000D02*
X12054000Y-6517000D01*
X12384000Y-6517000D02*
X12384000Y-6663000D01*
X12384000Y-6663000D02*
X12054000Y-6663000D01*
X16886000Y-6886250D02*
X16886000Y-6556250D01*
X17032000Y-6886250D02*
X16886000Y-6886250D01*
X16886000Y-6556250D02*
X17032000Y-6556250D01*
X17032000Y-6556250D02*
X17032000Y-6886250D01*
M02*
