%TF.GenerationSoftware,KiCad,Pcbnew,7.0.5-7.0.5~ubuntu20.04.1*%
%TF.CreationDate,2023-06-19T07:22:00+00:00*%
%TF.ProjectId,Controler_NRF24L01_Exclude_v3,436f6e74-726f-46c6-9572-5f4e52463234,rev?*%
%TF.SameCoordinates,Original*%
%TF.FileFunction,Other,User*%
%FSLAX45Y45*%
G04 Gerber Fmt 4.5, Leading zero omitted, Abs format (unit mm)*
G04 Created by KiCad (PCBNEW 7.0.5-7.0.5~ubuntu20.04.1) date 2023-06-19 07:22:00*
%MOMM*%
%LPD*%
G01*
G04 APERTURE LIST*
%TA.AperFunction,Profile*%
%ADD10C,0.050000*%
%TD*%
%TA.AperFunction,Profile*%
%ADD11C,0.100000*%
%TD*%
%ADD12C,0.050000*%
G04 APERTURE END LIST*
D10*
X20569000Y-12290000D02*
G75*
G03*
X20569000Y-6490000I-1674316J2900000D01*
G01*
D11*
X8169000Y-6490000D02*
X20569000Y-6490000D01*
X8169000Y-12290000D02*
X20569000Y-12290000D01*
D10*
X8169000Y-6490000D02*
G75*
G03*
X8169000Y-12290000I1674316J-2900000D01*
G01*
D12*
X8945000Y-9365000D02*
X8945000Y-8635000D01*
X9655000Y-9365000D02*
X8945000Y-9365000D01*
X9655000Y-9365000D02*
X9655000Y-8635000D01*
X9655000Y-8635000D02*
X8945000Y-8635000D01*
X10065000Y-9593000D02*
X10065000Y-9447000D01*
X10065000Y-9447000D02*
X9735000Y-9447000D01*
X9735000Y-9593000D02*
X10065000Y-9593000D01*
X9735000Y-9447000D02*
X9735000Y-9593000D01*
X19777000Y-9915000D02*
X19923000Y-9915000D01*
X19923000Y-9915000D02*
X19923000Y-9585000D01*
X19777000Y-9585000D02*
X19777000Y-9915000D01*
X19923000Y-9585000D02*
X19777000Y-9585000D01*
X18486500Y-11035000D02*
X18486500Y-11875000D01*
X17811500Y-11035000D02*
X18486500Y-11035000D01*
X18486500Y-11875000D02*
X17811500Y-11875000D01*
X17811500Y-11875000D02*
X17811500Y-11035000D01*
X19245000Y-9365000D02*
X19245000Y-8635000D01*
X19955000Y-9365000D02*
X19245000Y-9365000D01*
X19955000Y-9365000D02*
X19955000Y-8635000D01*
X19955000Y-8635000D02*
X19245000Y-8635000D01*
X9427000Y-9915000D02*
X9573000Y-9915000D01*
X9573000Y-9915000D02*
X9573000Y-9585000D01*
X9427000Y-9585000D02*
X9427000Y-9915000D01*
X9573000Y-9585000D02*
X9427000Y-9585000D01*
X14217000Y-6492000D02*
X14217000Y-6597000D01*
X14007000Y-6492000D02*
X14217000Y-6492000D01*
X14287000Y-6597000D02*
X14402000Y-6712000D01*
X14217000Y-6597000D02*
X14287000Y-6597000D01*
X14007000Y-6597000D02*
X14007000Y-6492000D01*
X13937000Y-6597000D02*
X14007000Y-6597000D01*
X13937000Y-6597000D02*
X13822000Y-6712000D01*
X14402000Y-6712000D02*
X14402000Y-7177000D01*
X13822000Y-6712000D02*
X13822000Y-7177000D01*
X14217000Y-7177000D02*
X14402000Y-7177000D01*
X14007000Y-7177000D02*
X14007000Y-7282000D01*
X13822000Y-7177000D02*
X14007000Y-7177000D01*
X14217000Y-7282000D02*
X14217000Y-7177000D01*
X14007000Y-7282000D02*
X14217000Y-7282000D01*
X19445000Y-9427000D02*
X19445000Y-9573000D01*
X19445000Y-9573000D02*
X19775000Y-9573000D01*
X19775000Y-9427000D02*
X19445000Y-9427000D01*
X19775000Y-9573000D02*
X19775000Y-9427000D01*
M02*
