%TF.GenerationSoftware,KiCad,Pcbnew,7.0.5-7.0.5~ubuntu20.04.1*%
%TF.CreationDate,2023-06-19T07:22:00+00:00*%
%TF.ProjectId,Controler_NRF24L01_Exclude_v3,436f6e74-726f-46c6-9572-5f4e52463234,rev?*%
%TF.SameCoordinates,Original*%
%TF.FileFunction,Copper,L2,Bot*%
%TF.FilePolarity,Positive*%
%FSLAX45Y45*%
G04 Gerber Fmt 4.5, Leading zero omitted, Abs format (unit mm)*
G04 Created by KiCad (PCBNEW 7.0.5-7.0.5~ubuntu20.04.1) date 2023-06-19 07:22:00*
%MOMM*%
%LPD*%
G01*
G04 APERTURE LIST*
G04 Aperture macros list*
%AMRoundRect*
0 Rectangle with rounded corners*
0 $1 Rounding radius*
0 $2 $3 $4 $5 $6 $7 $8 $9 X,Y pos of 4 corners*
0 Add a 4 corners polygon primitive as box body*
4,1,4,$2,$3,$4,$5,$6,$7,$8,$9,$2,$3,0*
0 Add four circle primitives for the rounded corners*
1,1,$1+$1,$2,$3*
1,1,$1+$1,$4,$5*
1,1,$1+$1,$6,$7*
1,1,$1+$1,$8,$9*
0 Add four rect primitives between the rounded corners*
20,1,$1+$1,$2,$3,$4,$5,0*
20,1,$1+$1,$4,$5,$6,$7,0*
20,1,$1+$1,$6,$7,$8,$9,0*
20,1,$1+$1,$8,$9,$2,$3,0*%
G04 Aperture macros list end*
%TA.AperFunction,Profile*%
%ADD10C,0.050000*%
%TD*%
%TA.AperFunction,Profile*%
%ADD11C,0.100000*%
%TD*%
%ADD12C,0.300000*%
%TA.AperFunction,NonConductor*%
%ADD13C,0.300000*%
%TD*%
%TA.AperFunction,ComponentPad*%
%ADD14C,5.600000*%
%TD*%
%TA.AperFunction,ComponentPad*%
%ADD15RoundRect,0.250000X0.600000X0.725000X-0.600000X0.725000X-0.600000X-0.725000X0.600000X-0.725000X0*%
%TD*%
%TA.AperFunction,ComponentPad*%
%ADD16O,1.700000X1.950000*%
%TD*%
%TA.AperFunction,ComponentPad*%
%ADD17R,1.700000X1.700000*%
%TD*%
%TA.AperFunction,ComponentPad*%
%ADD18O,1.700000X1.700000*%
%TD*%
%TA.AperFunction,SMDPad,CuDef*%
%ADD19R,0.400000X1.000000*%
%TD*%
%TA.AperFunction,SMDPad,CuDef*%
%ADD20RoundRect,0.237500X0.250000X0.237500X-0.250000X0.237500X-0.250000X-0.237500X0.250000X-0.237500X0*%
%TD*%
%TA.AperFunction,SMDPad,CuDef*%
%ADD21RoundRect,0.237500X0.237500X-0.250000X0.237500X0.250000X-0.237500X0.250000X-0.237500X-0.250000X0*%
%TD*%
%TA.AperFunction,ComponentPad*%
%ADD22RoundRect,0.250000X-0.750000X0.600000X-0.750000X-0.600000X0.750000X-0.600000X0.750000X0.600000X0*%
%TD*%
%TA.AperFunction,ComponentPad*%
%ADD23O,2.000000X1.700000*%
%TD*%
%TA.AperFunction,SMDPad,CuDef*%
%ADD24RoundRect,0.250000X-0.550000X1.250000X-0.550000X-1.250000X0.550000X-1.250000X0.550000X1.250000X0*%
%TD*%
%TA.AperFunction,SMDPad,CuDef*%
%ADD25RoundRect,0.237500X-0.250000X-0.237500X0.250000X-0.237500X0.250000X0.237500X-0.250000X0.237500X0*%
%TD*%
%TA.AperFunction,ViaPad*%
%ADD26C,1.600000*%
%TD*%
%TA.AperFunction,Conductor*%
%ADD27C,0.400000*%
%TD*%
G04 APERTURE END LIST*
D10*
X20569000Y-12290000D02*
G75*
G03*
X20569000Y-6490000I-1674316J2900000D01*
G01*
D11*
X8169000Y-6490000D02*
X20569000Y-6490000D01*
X8169000Y-12290000D02*
X20569000Y-12290000D01*
D10*
X8169000Y-6490000D02*
G75*
G03*
X8169000Y-12290000I1674316J-2900000D01*
G01*
D12*
D13*
X9054549Y-11422511D02*
X9033120Y-11429654D01*
X9033120Y-11429654D02*
X9025977Y-11436797D01*
X9025977Y-11436797D02*
X9018835Y-11451083D01*
X9018835Y-11451083D02*
X9018835Y-11472511D01*
X9018835Y-11472511D02*
X9025977Y-11486797D01*
X9025977Y-11486797D02*
X9033120Y-11493940D01*
X9033120Y-11493940D02*
X9047406Y-11501083D01*
X9047406Y-11501083D02*
X9104549Y-11501083D01*
X9104549Y-11501083D02*
X9104549Y-11351083D01*
X9104549Y-11351083D02*
X9054549Y-11351083D01*
X9054549Y-11351083D02*
X9040263Y-11358226D01*
X9040263Y-11358226D02*
X9033120Y-11365368D01*
X9033120Y-11365368D02*
X9025977Y-11379654D01*
X9025977Y-11379654D02*
X9025977Y-11393940D01*
X9025977Y-11393940D02*
X9033120Y-11408226D01*
X9033120Y-11408226D02*
X9040263Y-11415368D01*
X9040263Y-11415368D02*
X9054549Y-11422511D01*
X9054549Y-11422511D02*
X9104549Y-11422511D01*
D14*
X8169000Y-7190000D03*
X8169000Y-11390000D03*
D15*
X19059400Y-6916200D03*
D16*
X18809400Y-6916200D03*
X18559400Y-6916200D03*
D14*
X20669000Y-7190000D03*
D15*
X10144000Y-6892500D03*
D16*
X9894000Y-6892500D03*
X9644000Y-6892500D03*
D17*
X14589000Y-6696000D03*
D18*
X14843000Y-6696000D03*
X14589000Y-6950000D03*
X14843000Y-6950000D03*
X14589000Y-7204000D03*
X14843000Y-7204000D03*
X14589000Y-7458000D03*
X14843000Y-7458000D03*
D14*
X21669000Y-9190000D03*
X7169000Y-9190000D03*
X20669000Y-11390000D03*
D19*
X9592500Y-9290000D03*
X9527500Y-9290000D03*
X9462500Y-9290000D03*
X9397500Y-9290000D03*
X9332500Y-9290000D03*
X9267500Y-9290000D03*
X9202500Y-9290000D03*
X9137500Y-9290000D03*
X9072500Y-9290000D03*
X9007500Y-9290000D03*
X9007500Y-8710000D03*
X9072500Y-8710000D03*
X9137500Y-8710000D03*
X9202500Y-8710000D03*
X9267500Y-8710000D03*
X9332500Y-8710000D03*
X9397500Y-8710000D03*
X9462500Y-8710000D03*
X9527500Y-8710000D03*
X9592500Y-8710000D03*
D20*
X9991250Y-9520000D03*
X9808750Y-9520000D03*
D21*
X19850000Y-9841250D03*
X19850000Y-9658750D03*
D22*
X18096500Y-11330000D03*
D23*
X18096500Y-11580000D03*
D19*
X19892500Y-9290000D03*
X19827500Y-9290000D03*
X19762500Y-9290000D03*
X19697500Y-9290000D03*
X19632500Y-9290000D03*
X19567500Y-9290000D03*
X19502500Y-9290000D03*
X19437500Y-9290000D03*
X19372500Y-9290000D03*
X19307500Y-9290000D03*
X19307500Y-8710000D03*
X19372500Y-8710000D03*
X19437500Y-8710000D03*
X19502500Y-8710000D03*
X19567500Y-8710000D03*
X19632500Y-8710000D03*
X19697500Y-8710000D03*
X19762500Y-8710000D03*
X19827500Y-8710000D03*
X19892500Y-8710000D03*
D21*
X9500000Y-9841250D03*
X9500000Y-9658750D03*
D24*
X14112000Y-6667000D03*
X14112000Y-7107000D03*
D25*
X19518750Y-9500000D03*
X19701250Y-9500000D03*
D26*
X19340000Y-9504000D03*
X12740000Y-7608950D03*
X18368000Y-7818000D03*
X10195000Y-9672000D03*
X14760950Y-8063580D03*
X13588000Y-12059000D03*
X19738000Y-9958000D03*
X14660000Y-9868000D03*
X15591000Y-11157000D03*
X15666000Y-8410000D03*
X17474000Y-9563000D03*
X9176000Y-9581000D03*
X17680000Y-8310000D03*
X17330000Y-8210000D03*
X17300000Y-7960000D03*
X15367000Y-8214000D03*
X17203000Y-7412000D03*
X14870000Y-9340000D03*
X14761000Y-7769000D03*
X11790000Y-7125000D03*
X17900000Y-8320000D03*
X14636000Y-8233000D03*
X14790000Y-10310000D03*
X12307000Y-7094000D03*
X11435000Y-7134000D03*
X15728000Y-7986000D03*
X13642000Y-9441000D03*
X16207000Y-8829000D03*
X13808000Y-9352000D03*
X16008000Y-8931000D03*
X13848000Y-9132000D03*
X15854000Y-8689000D03*
X13864000Y-8887000D03*
X15617000Y-8665000D03*
X16244950Y-8584019D03*
X15247504Y-7324719D03*
X15388000Y-7445000D03*
X16405000Y-8774000D03*
X15556000Y-7316000D03*
X16522000Y-8596000D03*
X16650000Y-8794000D03*
X15745000Y-7373000D03*
X13739000Y-10372000D03*
X16755000Y-10795000D03*
X13661559Y-10539957D03*
X16855000Y-11054000D03*
X16770000Y-12160000D03*
X16719000Y-11688000D03*
X10007000Y-8426050D03*
X18916000Y-7822000D03*
X14884125Y-8357125D03*
X14024000Y-10414000D03*
X14905000Y-8922000D03*
X13900877Y-10137330D03*
X14423000Y-9051000D03*
X13140720Y-9961720D03*
X16178000Y-7916000D03*
X15383625Y-7924657D03*
X20065000Y-9033000D03*
X18604000Y-8629000D03*
X19363000Y-9063000D03*
X18829000Y-9424000D03*
X8768000Y-9064000D03*
X19660000Y-8365000D03*
X9058000Y-8416000D03*
X8641000Y-8604000D03*
X8915796Y-8591548D03*
X9482529Y-8358265D03*
X16569000Y-9619000D03*
X14246000Y-8510000D03*
X15411000Y-8929000D03*
X14396000Y-8637000D03*
X15266000Y-9142000D03*
X14614000Y-8790856D03*
X15102000Y-9312000D03*
X13932000Y-7380000D03*
D27*
X9991250Y-9520000D02*
X10043000Y-9520000D01*
X14916370Y-8219000D02*
X14760950Y-8063580D01*
X15666000Y-8410000D02*
X15328000Y-8410000D01*
X14843000Y-6696000D02*
X14681000Y-6534000D01*
X19518750Y-9500000D02*
X19344000Y-9500000D01*
X19632500Y-9290000D02*
X19632500Y-9386250D01*
X9332500Y-9424500D02*
X9332500Y-9290000D01*
X19567500Y-9290000D02*
X19567500Y-9451250D01*
X17112000Y-9925000D02*
X14717000Y-9925000D01*
X17474000Y-9563000D02*
X19281000Y-9563000D01*
X17474000Y-9563000D02*
X17112000Y-9925000D01*
X19567500Y-9451250D02*
X19518750Y-9500000D01*
X13815000Y-6667000D02*
X10369500Y-6667000D01*
X12857000Y-7625000D02*
X12756050Y-7625000D01*
X13588000Y-12059000D02*
X14689000Y-12059000D01*
X13815000Y-6667000D02*
X12857000Y-7625000D01*
X14717000Y-9925000D02*
X14660000Y-9868000D01*
X10369500Y-6667000D02*
X10144000Y-6892500D01*
X19632500Y-9290000D02*
X19567500Y-9290000D01*
X19281000Y-9563000D02*
X19340000Y-9504000D01*
X18368000Y-7818000D02*
X18368000Y-7812000D01*
X9500000Y-9841250D02*
X9239750Y-9581000D01*
X15328000Y-8410000D02*
X15137000Y-8219000D01*
X19344000Y-9500000D02*
X19340000Y-9504000D01*
X12756050Y-7625000D02*
X12740000Y-7608950D01*
X9176000Y-9581000D02*
X9332500Y-9424500D01*
X19632500Y-9386250D02*
X19518750Y-9500000D01*
X9239750Y-9581000D02*
X9176000Y-9581000D01*
X18368000Y-7812000D02*
X19059400Y-7120600D01*
X19059400Y-7120600D02*
X19059400Y-6916200D01*
X14681000Y-6534000D02*
X14245000Y-6534000D01*
X19850000Y-9841250D02*
X19738000Y-9953250D01*
X15137000Y-8219000D02*
X14916370Y-8219000D01*
X14112000Y-6667000D02*
X13815000Y-6667000D01*
X19738000Y-9953250D02*
X19738000Y-9958000D01*
X14245000Y-6534000D02*
X14112000Y-6667000D01*
X10043000Y-9520000D02*
X10195000Y-9672000D01*
X14689000Y-12059000D02*
X15591000Y-11157000D01*
X19567500Y-8710000D02*
X19567500Y-8800000D01*
X20207000Y-8910000D02*
X20207000Y-9145000D01*
X9267500Y-9352500D02*
X9202500Y-9417500D01*
X20137000Y-8840000D02*
X20207000Y-8910000D01*
X19892500Y-9205500D02*
X19903000Y-9195000D01*
X9592500Y-9072500D02*
X9592500Y-9290000D01*
X11444000Y-7125000D02*
X11435000Y-7134000D01*
X19903000Y-9195000D02*
X19512000Y-9195000D01*
X9480000Y-8960000D02*
X9592500Y-9072500D01*
X15728000Y-7986000D02*
X15595000Y-7986000D01*
X19377500Y-9195000D02*
X19372500Y-9200000D01*
X9072500Y-9137500D02*
X9155000Y-9055000D01*
X19607500Y-8840000D02*
X20137000Y-8840000D01*
X19567500Y-8800000D02*
X19607500Y-8840000D01*
X20157000Y-9195000D02*
X19903000Y-9195000D01*
X9072500Y-9290000D02*
X9072500Y-9137500D01*
X19892500Y-9290000D02*
X19892500Y-9205500D01*
X19502500Y-9204500D02*
X19512000Y-9195000D01*
X9267500Y-9290000D02*
X9267500Y-9352500D01*
X9202500Y-9102500D02*
X9155000Y-9055000D01*
X9267500Y-8960000D02*
X9480000Y-8960000D01*
X9155000Y-9055000D02*
X9267500Y-8942500D01*
X9267500Y-8805000D02*
X9267500Y-8960000D01*
X9072500Y-9290000D02*
X9072500Y-9400000D01*
X19512000Y-9195000D02*
X19377500Y-9195000D01*
X11790000Y-7125000D02*
X12276000Y-7125000D01*
X9267500Y-9290000D02*
X9267500Y-8805000D01*
X9072500Y-9417500D02*
X9010000Y-9480000D01*
X9267500Y-8805000D02*
X9267500Y-8743995D01*
X9202500Y-9417500D02*
X9202500Y-9290000D01*
X20207000Y-9145000D02*
X20157000Y-9195000D01*
X9267500Y-8942500D02*
X9267500Y-8805000D01*
X15595000Y-7986000D02*
X15367000Y-8214000D01*
X11790000Y-7125000D02*
X11444000Y-7125000D01*
X19502500Y-9290000D02*
X19502500Y-9204500D01*
X12276000Y-7125000D02*
X12307000Y-7094000D01*
X19372500Y-9200000D02*
X19372500Y-9290000D01*
X9202500Y-9290000D02*
X9202500Y-9102500D01*
X16207000Y-8829000D02*
X16207000Y-9017000D01*
X13944050Y-9743050D02*
X13642000Y-9441000D01*
X16207000Y-9017000D02*
X15480950Y-9743050D01*
X15480950Y-9743050D02*
X13944050Y-9743050D01*
X14115000Y-9659000D02*
X13808000Y-9352000D01*
X15447000Y-9659000D02*
X14115000Y-9659000D01*
X16008000Y-9098000D02*
X15447000Y-9659000D01*
X16008000Y-8931000D02*
X16008000Y-9098000D01*
X15854000Y-8689000D02*
X15854000Y-9119000D01*
X14282000Y-9566000D02*
X13848000Y-9132000D01*
X15407000Y-9566000D02*
X14282000Y-9566000D01*
X15854000Y-9119000D02*
X15407000Y-9566000D01*
X14466000Y-9489000D02*
X13864000Y-8887000D01*
X15372000Y-9489000D02*
X14466000Y-9489000D01*
X15617000Y-9244000D02*
X15372000Y-9489000D01*
X15617000Y-8665000D02*
X15617000Y-9244000D01*
X16324000Y-8504969D02*
X16244950Y-8584019D01*
X16324000Y-7885000D02*
X16324000Y-8504969D01*
X16290000Y-8602000D02*
X16272019Y-8584019D01*
X15247504Y-7324719D02*
X15247504Y-7589504D01*
X16203000Y-7764000D02*
X16324000Y-7885000D01*
X15247504Y-7589504D02*
X15422000Y-7764000D01*
X15422000Y-7764000D02*
X16203000Y-7764000D01*
X15491000Y-7687000D02*
X16251000Y-7687000D01*
X16251000Y-7687000D02*
X16397050Y-7833050D01*
X16397050Y-7833050D02*
X16397050Y-8766050D01*
X15388000Y-7445000D02*
X15388000Y-7584000D01*
X16397050Y-8766050D02*
X16405000Y-8774000D01*
X15388000Y-7584000D02*
X15491000Y-7687000D01*
X16522000Y-7848000D02*
X16522000Y-8596000D01*
X15556000Y-7316000D02*
X15556000Y-7525000D01*
X15556000Y-7525000D02*
X15620000Y-7589000D01*
X16263000Y-7589000D02*
X16522000Y-7848000D01*
X15620000Y-7589000D02*
X16263000Y-7589000D01*
X16650000Y-7829000D02*
X16650000Y-8794000D01*
X15745000Y-7373000D02*
X16194000Y-7373000D01*
X16194000Y-7373000D02*
X16650000Y-7829000D01*
X14153000Y-10786000D02*
X13739000Y-10372000D01*
X16746000Y-10786000D02*
X14153000Y-10786000D01*
X16755000Y-10795000D02*
X16746000Y-10786000D01*
X16717000Y-10916000D02*
X14037602Y-10916000D01*
X16855000Y-11054000D02*
X16717000Y-10916000D01*
X14037602Y-10916000D02*
X13661559Y-10539957D01*
X16770000Y-12160000D02*
X16730000Y-12120000D01*
X16730000Y-12120000D02*
X16730000Y-11699000D01*
X16730000Y-11699000D02*
X16719000Y-11688000D01*
X9608950Y-8426050D02*
X10007000Y-8426050D01*
X9397500Y-8637500D02*
X9608950Y-8426050D01*
X9397500Y-8710000D02*
X9397500Y-8637500D01*
X19697450Y-8603450D02*
X19697500Y-8603500D01*
X19697450Y-8588097D02*
X19697450Y-8603450D01*
X18931353Y-7822000D02*
X19697450Y-8588097D01*
X19697500Y-8603500D02*
X19697500Y-8710000D01*
X18916000Y-7822000D02*
X18931353Y-7822000D01*
X13267000Y-9146076D02*
X13863076Y-8550000D01*
X14813250Y-8428000D02*
X14884125Y-8357125D01*
X14082647Y-8455647D02*
X14208294Y-8330000D01*
X14494000Y-8330000D02*
X14592000Y-8428000D01*
X14082647Y-8626941D02*
X14082647Y-8600000D01*
X17640000Y-9766000D02*
X19660000Y-9766000D01*
X9808750Y-9628750D02*
X10286000Y-10106000D01*
X14351000Y-10087000D02*
X17319000Y-10087000D01*
X19660000Y-9766000D02*
X19767250Y-9658750D01*
X13173147Y-10106000D02*
X13267000Y-10012147D01*
X9672500Y-9520000D02*
X9808750Y-9520000D01*
X14082647Y-8600000D02*
X14082647Y-8455647D01*
X14592000Y-8428000D02*
X14813250Y-8428000D01*
X14208294Y-8330000D02*
X14494000Y-8330000D01*
X19767250Y-9658750D02*
X19850000Y-9658750D01*
X19827500Y-9290000D02*
X19827500Y-9636250D01*
X13267000Y-10012147D02*
X13267000Y-9146076D01*
X13863076Y-8550000D02*
X14082647Y-8550000D01*
X14082647Y-8550000D02*
X14082647Y-8600000D01*
X19827500Y-9636250D02*
X19850000Y-9658750D01*
X9527500Y-9375000D02*
X9672500Y-9520000D01*
X9527500Y-9290000D02*
X9527500Y-9375000D01*
X14905000Y-8922000D02*
X14377706Y-8922000D01*
X17319000Y-10087000D02*
X17640000Y-9766000D01*
X14024000Y-10414000D02*
X14351000Y-10087000D01*
X14377706Y-8922000D02*
X14082647Y-8626941D01*
X9808750Y-9520000D02*
X9808750Y-9628750D01*
X10286000Y-10106000D02*
X13173147Y-10106000D01*
X13775000Y-8730000D02*
X13982000Y-8730000D01*
X13900877Y-10137330D02*
X14033208Y-10005000D01*
X13271000Y-10200000D02*
X13357000Y-10114000D01*
X19697500Y-9496250D02*
X19697500Y-9290000D01*
X19701250Y-9578750D02*
X19701250Y-9500000D01*
X9728750Y-9658750D02*
X10270000Y-10200000D01*
X13982000Y-8730000D02*
X14303000Y-9051000D01*
X13357000Y-9148000D02*
X13775000Y-8730000D01*
X10270000Y-10200000D02*
X13271000Y-10200000D01*
X19606000Y-9674000D02*
X19701250Y-9578750D01*
X19701250Y-9500000D02*
X19697500Y-9496250D01*
X17599000Y-9674000D02*
X19606000Y-9674000D01*
X14303000Y-9051000D02*
X14423000Y-9051000D01*
X13357000Y-10114000D02*
X13357000Y-9148000D01*
X9500000Y-9658750D02*
X9728750Y-9658750D01*
X9397500Y-9290000D02*
X9397500Y-9556250D01*
X17268000Y-10005000D02*
X17599000Y-9674000D01*
X9397500Y-9556250D02*
X9500000Y-9658750D01*
X14033208Y-10005000D02*
X17268000Y-10005000D01*
X15457282Y-7851000D02*
X15383625Y-7924657D01*
X16178000Y-7916000D02*
X16113000Y-7851000D01*
X13148720Y-9953720D02*
X13148720Y-9043280D01*
X13148720Y-9043280D02*
X14267343Y-7924657D01*
X13140720Y-9961720D02*
X13148720Y-9953720D01*
X14267343Y-7924657D02*
X15383625Y-7924657D01*
X16113000Y-7851000D02*
X15457282Y-7851000D01*
X19372500Y-8710000D02*
X19372500Y-8805000D01*
X19372500Y-8805000D02*
X19600500Y-9033000D01*
X19600500Y-9033000D02*
X20065000Y-9033000D01*
X18687000Y-8629000D02*
X18749000Y-8567000D01*
X18604000Y-8629000D02*
X18687000Y-8629000D01*
X18749000Y-8567000D02*
X19454500Y-8567000D01*
X19454500Y-8567000D02*
X19502500Y-8615000D01*
X19502500Y-8615000D02*
X19502500Y-8710000D01*
X19363000Y-9063000D02*
X19307500Y-9118500D01*
X19307500Y-9118500D02*
X19307500Y-9290000D01*
X18829000Y-8972000D02*
X19074000Y-8727000D01*
X19091000Y-8710000D02*
X19307500Y-8710000D01*
X18829000Y-9424000D02*
X18829000Y-8972000D01*
X19074000Y-8727000D02*
X19091000Y-8710000D01*
X9007500Y-9290000D02*
X8994000Y-9290000D01*
X8994000Y-9290000D02*
X8768000Y-9064000D01*
X19827500Y-8710000D02*
X19827500Y-8532500D01*
X19827500Y-8532500D02*
X19660000Y-8365000D01*
X9072500Y-8710000D02*
X9072500Y-8430500D01*
X9072500Y-8430500D02*
X9058000Y-8416000D01*
X9204000Y-8385000D02*
X9204000Y-8479000D01*
X8794000Y-8283000D02*
X9102000Y-8283000D01*
X9102000Y-8283000D02*
X9204000Y-8385000D01*
X9204000Y-8479000D02*
X9202500Y-8480500D01*
X9202500Y-8480500D02*
X9202500Y-8710000D01*
X8652000Y-8593000D02*
X8652000Y-8425000D01*
X8652000Y-8425000D02*
X8794000Y-8283000D01*
X8641000Y-8604000D02*
X8652000Y-8593000D01*
X9007500Y-8710000D02*
X8915796Y-8618296D01*
X8915796Y-8618296D02*
X8915796Y-8591548D01*
X9332500Y-8710000D02*
X9332500Y-8508294D01*
X9332500Y-8508294D02*
X9482529Y-8358265D01*
X16793000Y-9619000D02*
X17910000Y-8502000D01*
X17910000Y-8502000D02*
X19519500Y-8502000D01*
X19632500Y-8615000D02*
X19632500Y-8715000D01*
X19519500Y-8502000D02*
X19632500Y-8615000D01*
X16569000Y-9619000D02*
X16793000Y-9619000D01*
X15411000Y-8929000D02*
X15411000Y-8579000D01*
X15342000Y-8510000D02*
X14246000Y-8510000D01*
X15411000Y-8579000D02*
X15342000Y-8510000D01*
X15266000Y-8752000D02*
X15151000Y-8637000D01*
X15151000Y-8637000D02*
X14396000Y-8637000D01*
X15266000Y-9142000D02*
X15266000Y-8752000D01*
X15102000Y-9312000D02*
X15102000Y-8857000D01*
X15035855Y-8790856D02*
X14614000Y-8790856D01*
X15102000Y-8857000D02*
X15035855Y-8790856D01*
X14325995Y-7588000D02*
X14896848Y-7588000D01*
X14973000Y-7080000D02*
X14843000Y-6950000D01*
X14973000Y-7511848D02*
X14973000Y-7080000D01*
X14117995Y-7380000D02*
X14325995Y-7588000D01*
X13932000Y-7380000D02*
X14117995Y-7380000D01*
X14896848Y-7588000D02*
X14973000Y-7511848D01*
%TA.AperFunction,Conductor*%
G36*
X14012790Y-8860076D02*
G01*
X14014285Y-8861351D01*
X14251705Y-9098771D01*
X14252217Y-9099315D01*
X14256207Y-9103818D01*
X14261157Y-9107235D01*
X14261760Y-9107679D01*
X14266494Y-9111388D01*
X14267418Y-9111804D01*
X14269372Y-9112905D01*
X14270207Y-9113482D01*
X14275833Y-9115615D01*
X14276522Y-9115901D01*
X14282007Y-9118370D01*
X14283004Y-9118552D01*
X14285166Y-9119155D01*
X14286113Y-9119514D01*
X14292084Y-9120239D01*
X14292818Y-9120351D01*
X14298739Y-9121436D01*
X14304410Y-9121093D01*
X14304743Y-9121073D01*
X14305492Y-9121050D01*
X14306833Y-9121050D01*
X14313537Y-9123019D01*
X14316990Y-9126338D01*
X14322995Y-9134914D01*
X14339086Y-9151005D01*
X14357726Y-9164057D01*
X14357726Y-9164057D01*
X14357727Y-9164057D01*
X14378350Y-9173674D01*
X14400331Y-9179564D01*
X14423000Y-9181547D01*
X14445669Y-9179564D01*
X14467650Y-9173674D01*
X14488273Y-9164057D01*
X14506914Y-9151005D01*
X14523005Y-9134914D01*
X14536057Y-9116273D01*
X14545674Y-9095650D01*
X14551563Y-9073669D01*
X14553547Y-9051000D01*
X14553292Y-9048086D01*
X14552050Y-9033887D01*
X14551563Y-9028331D01*
X14546025Y-9007659D01*
X14546191Y-9000674D01*
X14550107Y-8994888D01*
X14556530Y-8992138D01*
X14558002Y-8992050D01*
X14788833Y-8992050D01*
X14795537Y-8994019D01*
X14798990Y-8997338D01*
X14804995Y-9005914D01*
X14821086Y-9022005D01*
X14839726Y-9035057D01*
X14839726Y-9035057D01*
X14839727Y-9035057D01*
X14860350Y-9044674D01*
X14882331Y-9050564D01*
X14905000Y-9052547D01*
X14927669Y-9050564D01*
X14949650Y-9044674D01*
X14970273Y-9035057D01*
X14988914Y-9022005D01*
X15005005Y-9005914D01*
X15009392Y-8999647D01*
X15014850Y-8995285D01*
X15021800Y-8994566D01*
X15028035Y-8997718D01*
X15031577Y-9003741D01*
X15031950Y-9006760D01*
X15031950Y-9195833D01*
X15029981Y-9202537D01*
X15026662Y-9205990D01*
X15018086Y-9211995D01*
X15001995Y-9228086D01*
X14988943Y-9246726D01*
X14979326Y-9267350D01*
X14973436Y-9289331D01*
X14971453Y-9312000D01*
X14973436Y-9334669D01*
X14979326Y-9356650D01*
X14988943Y-9377274D01*
X15001995Y-9395914D01*
X15003863Y-9397782D01*
X15007212Y-9403914D01*
X15006713Y-9410883D01*
X15002526Y-9416477D01*
X14995980Y-9418918D01*
X14995095Y-9418950D01*
X14500152Y-9418950D01*
X14493448Y-9416982D01*
X14491384Y-9415318D01*
X13996103Y-8920037D01*
X13992754Y-8913905D01*
X13992518Y-8910188D01*
X13993700Y-8896674D01*
X13994547Y-8887000D01*
X13994208Y-8883129D01*
X13993164Y-8871200D01*
X13994541Y-8864350D01*
X13999403Y-8859332D01*
X14006205Y-8857738D01*
X14012790Y-8860076D01*
G37*
%TD.AperFunction*%
%TA.AperFunction,Conductor*%
G36*
X9256754Y-9271969D02*
G01*
X9261329Y-9277249D01*
X9262450Y-9282400D01*
X9262450Y-9297600D01*
X9260482Y-9304304D01*
X9255201Y-9308879D01*
X9250050Y-9310000D01*
X9219950Y-9310000D01*
X9213246Y-9308032D01*
X9208671Y-9302751D01*
X9207550Y-9297600D01*
X9207550Y-9282400D01*
X9209518Y-9275696D01*
X9214799Y-9271121D01*
X9219950Y-9270000D01*
X9250050Y-9270000D01*
X9256754Y-9271969D01*
G37*
%TD.AperFunction*%
%TA.AperFunction,Conductor*%
G36*
X16043236Y-7923018D02*
G01*
X16047812Y-7928299D01*
X16048885Y-7932369D01*
X16049436Y-7938669D01*
X16055326Y-7960650D01*
X16064943Y-7981273D01*
X16077995Y-7999914D01*
X16094086Y-8016005D01*
X16112726Y-8029057D01*
X16112726Y-8029057D01*
X16112727Y-8029057D01*
X16133350Y-8038674D01*
X16155331Y-8044563D01*
X16178000Y-8046547D01*
X16200669Y-8044563D01*
X16222650Y-8038674D01*
X16236310Y-8032304D01*
X16243217Y-8031255D01*
X16249596Y-8034107D01*
X16253420Y-8039954D01*
X16253950Y-8043542D01*
X16253950Y-8441322D01*
X16251981Y-8448026D01*
X16246701Y-8452601D01*
X16242631Y-8453675D01*
X16222281Y-8455455D01*
X16200300Y-8461345D01*
X16179676Y-8470962D01*
X16161036Y-8484014D01*
X16144945Y-8500105D01*
X16131893Y-8518745D01*
X16122276Y-8539369D01*
X16116386Y-8561350D01*
X16114403Y-8584019D01*
X16116386Y-8606688D01*
X16122276Y-8628669D01*
X16131893Y-8649292D01*
X16144945Y-8667933D01*
X16161036Y-8684024D01*
X16163087Y-8685460D01*
X16167449Y-8690917D01*
X16168169Y-8697867D01*
X16165017Y-8704102D01*
X16161215Y-8706855D01*
X16141726Y-8715943D01*
X16123086Y-8728995D01*
X16106995Y-8745086D01*
X16093943Y-8763726D01*
X16084326Y-8784350D01*
X16078922Y-8804519D01*
X16075285Y-8810485D01*
X16069001Y-8813538D01*
X16062063Y-8812709D01*
X16061704Y-8812548D01*
X16052650Y-8808326D01*
X16030669Y-8802436D01*
X16008000Y-8800453D01*
X15985331Y-8802436D01*
X15963350Y-8808326D01*
X15948700Y-8815158D01*
X15944109Y-8817299D01*
X15941743Y-8818402D01*
X15941570Y-8818031D01*
X15936935Y-8819591D01*
X15930159Y-8817886D01*
X15925381Y-8812789D01*
X15924050Y-8807201D01*
X15924050Y-8805167D01*
X15926018Y-8798463D01*
X15929337Y-8795010D01*
X15937914Y-8789005D01*
X15954005Y-8772914D01*
X15967057Y-8754273D01*
X15976674Y-8733650D01*
X15982563Y-8711669D01*
X15984547Y-8689000D01*
X15984237Y-8685460D01*
X15982851Y-8669612D01*
X15982563Y-8666331D01*
X15976674Y-8644350D01*
X15967057Y-8623727D01*
X15964482Y-8620050D01*
X15954005Y-8605086D01*
X15937914Y-8588995D01*
X15919273Y-8575943D01*
X15898650Y-8566326D01*
X15876669Y-8560436D01*
X15854000Y-8558453D01*
X15831331Y-8560436D01*
X15809350Y-8566326D01*
X15788726Y-8575943D01*
X15770086Y-8588995D01*
X15753995Y-8605086D01*
X15753445Y-8605872D01*
X15747987Y-8610234D01*
X15741037Y-8610953D01*
X15734802Y-8607801D01*
X15732049Y-8604000D01*
X15730057Y-8599726D01*
X15717005Y-8581086D01*
X15700914Y-8564995D01*
X15692007Y-8558758D01*
X15687644Y-8553301D01*
X15686925Y-8546351D01*
X15690077Y-8540115D01*
X15695910Y-8536623D01*
X15710650Y-8532674D01*
X15731273Y-8523057D01*
X15749914Y-8510005D01*
X15766005Y-8493914D01*
X15779057Y-8475273D01*
X15788674Y-8454650D01*
X15794563Y-8432669D01*
X15796547Y-8410000D01*
X15796446Y-8408854D01*
X15795827Y-8401775D01*
X15794563Y-8387331D01*
X15788674Y-8365350D01*
X15779057Y-8344727D01*
X15777243Y-8342136D01*
X15766005Y-8326086D01*
X15749914Y-8309995D01*
X15731273Y-8296943D01*
X15710650Y-8287326D01*
X15688669Y-8281436D01*
X15666000Y-8279453D01*
X15643331Y-8281436D01*
X15621350Y-8287326D01*
X15600726Y-8296943D01*
X15582086Y-8309995D01*
X15565995Y-8326086D01*
X15559990Y-8334662D01*
X15554533Y-8339025D01*
X15549833Y-8339950D01*
X15362152Y-8339950D01*
X15355448Y-8337981D01*
X15353384Y-8336318D01*
X15188294Y-8171228D01*
X15187782Y-8170685D01*
X15183793Y-8166182D01*
X15178843Y-8162765D01*
X15178240Y-8162322D01*
X15173505Y-8158612D01*
X15172581Y-8158196D01*
X15170627Y-8157094D01*
X15169793Y-8156518D01*
X15169793Y-8156518D01*
X15169793Y-8156518D01*
X15164170Y-8154386D01*
X15163478Y-8154099D01*
X15157993Y-8151630D01*
X15156995Y-8151447D01*
X15154834Y-8150845D01*
X15153887Y-8150486D01*
X15147917Y-8149761D01*
X15147177Y-8149648D01*
X15141261Y-8148564D01*
X15135257Y-8148927D01*
X15134508Y-8148950D01*
X14950521Y-8148950D01*
X14943818Y-8146981D01*
X14941753Y-8145318D01*
X14893053Y-8096617D01*
X14889704Y-8090485D01*
X14889468Y-8086769D01*
X14891497Y-8063580D01*
X14890075Y-8047331D01*
X14889513Y-8040911D01*
X14883624Y-8018931D01*
X14880554Y-8012347D01*
X14879505Y-8005440D01*
X14882357Y-7999062D01*
X14888204Y-7995238D01*
X14891792Y-7994707D01*
X15267457Y-7994707D01*
X15274161Y-7996676D01*
X15277615Y-7999995D01*
X15283620Y-8008571D01*
X15299710Y-8024662D01*
X15318351Y-8037714D01*
X15318351Y-8037714D01*
X15318351Y-8037714D01*
X15338975Y-8047331D01*
X15360955Y-8053221D01*
X15383625Y-8055204D01*
X15406294Y-8053221D01*
X15428274Y-8047331D01*
X15448898Y-8037714D01*
X15467538Y-8024662D01*
X15483629Y-8008571D01*
X15496681Y-7989931D01*
X15506298Y-7969307D01*
X15512188Y-7947326D01*
X15513497Y-7932369D01*
X15516042Y-7925862D01*
X15521701Y-7921764D01*
X15525849Y-7921050D01*
X16036532Y-7921050D01*
X16043236Y-7923018D01*
G37*
%TD.AperFunction*%
%TA.AperFunction,Conductor*%
G36*
X14636812Y-7996676D02*
G01*
X14641387Y-8001956D01*
X14642381Y-8008872D01*
X14641346Y-8012347D01*
X14640018Y-8015195D01*
X14638276Y-8018931D01*
X14632386Y-8040911D01*
X14630403Y-8063580D01*
X14632386Y-8086249D01*
X14638276Y-8108230D01*
X14647893Y-8128854D01*
X14660945Y-8147494D01*
X14677036Y-8163585D01*
X14695676Y-8176637D01*
X14695676Y-8176637D01*
X14695677Y-8176637D01*
X14716300Y-8186254D01*
X14738281Y-8192144D01*
X14753394Y-8193466D01*
X14760950Y-8194127D01*
X14760950Y-8194127D01*
X14760950Y-8194127D01*
X14774114Y-8192975D01*
X14784138Y-8192098D01*
X14790988Y-8193475D01*
X14793987Y-8195683D01*
X14822370Y-8224066D01*
X14825718Y-8230198D01*
X14825220Y-8237168D01*
X14821033Y-8242761D01*
X14818863Y-8244060D01*
X14800211Y-8257120D01*
X14784120Y-8273211D01*
X14771068Y-8291851D01*
X14761451Y-8312475D01*
X14755561Y-8334456D01*
X14754496Y-8346631D01*
X14751951Y-8353138D01*
X14746292Y-8357235D01*
X14742143Y-8357950D01*
X14626152Y-8357950D01*
X14619448Y-8355981D01*
X14617384Y-8354318D01*
X14545294Y-8282228D01*
X14544782Y-8281685D01*
X14540793Y-8277182D01*
X14535843Y-8273765D01*
X14535240Y-8273322D01*
X14530505Y-8269612D01*
X14529581Y-8269196D01*
X14527627Y-8268094D01*
X14526793Y-8267518D01*
X14526793Y-8267518D01*
X14526793Y-8267518D01*
X14521170Y-8265386D01*
X14520478Y-8265099D01*
X14514993Y-8262630D01*
X14513995Y-8262447D01*
X14511834Y-8261845D01*
X14510887Y-8261486D01*
X14504917Y-8260761D01*
X14504177Y-8260648D01*
X14498261Y-8259564D01*
X14492257Y-8259927D01*
X14491508Y-8259950D01*
X14210786Y-8259950D01*
X14210037Y-8259927D01*
X14204033Y-8259564D01*
X14198117Y-8260648D01*
X14197377Y-8260761D01*
X14191406Y-8261486D01*
X14190459Y-8261845D01*
X14188299Y-8262448D01*
X14187301Y-8262630D01*
X14181815Y-8265099D01*
X14181124Y-8265386D01*
X14175501Y-8267518D01*
X14174667Y-8268094D01*
X14172712Y-8269196D01*
X14171788Y-8269612D01*
X14167054Y-8273321D01*
X14166451Y-8273765D01*
X14161501Y-8277182D01*
X14157512Y-8281684D01*
X14156999Y-8282229D01*
X14034876Y-8404352D01*
X14034331Y-8404865D01*
X14029829Y-8408854D01*
X14026412Y-8413804D01*
X14025968Y-8414407D01*
X14022259Y-8419141D01*
X14021843Y-8420066D01*
X14020741Y-8422020D01*
X14020165Y-8422854D01*
X14018032Y-8428478D01*
X14017746Y-8429169D01*
X14015277Y-8434654D01*
X14015094Y-8435652D01*
X14014492Y-8437812D01*
X14014133Y-8438760D01*
X14013408Y-8444730D01*
X14013295Y-8445470D01*
X14012211Y-8451386D01*
X14012574Y-8457390D01*
X14012597Y-8458139D01*
X14012597Y-8467550D01*
X14010628Y-8474254D01*
X14005348Y-8478829D01*
X14000197Y-8479950D01*
X13865567Y-8479950D01*
X13864818Y-8479927D01*
X13858815Y-8479564D01*
X13852900Y-8480648D01*
X13852160Y-8480761D01*
X13846188Y-8481486D01*
X13845240Y-8481846D01*
X13843080Y-8482448D01*
X13842083Y-8482631D01*
X13842083Y-8482631D01*
X13840602Y-8482902D01*
X13840562Y-8482679D01*
X13835679Y-8483354D01*
X13829340Y-8480416D01*
X13825595Y-8474518D01*
X13825633Y-8467531D01*
X13828743Y-8462322D01*
X14292726Y-7998339D01*
X14298859Y-7994991D01*
X14301495Y-7994707D01*
X14630108Y-7994707D01*
X14636812Y-7996676D01*
G37*
%TD.AperFunction*%
%TA.AperFunction,Conductor*%
G36*
X13984735Y-6493018D02*
G01*
X13989310Y-6498299D01*
X13990304Y-6505215D01*
X13988585Y-6509959D01*
X13988519Y-6510067D01*
X13983000Y-6526720D01*
X13981982Y-6536686D01*
X13981982Y-6536688D01*
X13981950Y-6536999D01*
X13981950Y-6537314D01*
X13981950Y-6584550D01*
X13979981Y-6591254D01*
X13974701Y-6595829D01*
X13969550Y-6596950D01*
X13817492Y-6596950D01*
X13816743Y-6596927D01*
X13813759Y-6596747D01*
X13810739Y-6596564D01*
X13810739Y-6596564D01*
X13809742Y-6596747D01*
X13807507Y-6596950D01*
X10371992Y-6596950D01*
X10371243Y-6596927D01*
X10365239Y-6596564D01*
X10359323Y-6597648D01*
X10358583Y-6597761D01*
X10352612Y-6598486D01*
X10351665Y-6598845D01*
X10349505Y-6599448D01*
X10348507Y-6599630D01*
X10343023Y-6602099D01*
X10342331Y-6602385D01*
X10336707Y-6604518D01*
X10335872Y-6605094D01*
X10333919Y-6606196D01*
X10332995Y-6606612D01*
X10328261Y-6610321D01*
X10327658Y-6610764D01*
X10322707Y-6614182D01*
X10318718Y-6618685D01*
X10318204Y-6619230D01*
X10196116Y-6741318D01*
X10189984Y-6744667D01*
X10187348Y-6744950D01*
X10079314Y-6744950D01*
X10079312Y-6744950D01*
X10078999Y-6744950D01*
X10078686Y-6744982D01*
X10078686Y-6744982D01*
X10068720Y-6746000D01*
X10052067Y-6751519D01*
X10037134Y-6760729D01*
X10024729Y-6773134D01*
X10015155Y-6788656D01*
X10009960Y-6793328D01*
X10003064Y-6794451D01*
X9996656Y-6791666D01*
X9995833Y-6790914D01*
X9981108Y-6776189D01*
X9961758Y-6762640D01*
X9940349Y-6752657D01*
X9919000Y-6746936D01*
X9919000Y-6851698D01*
X9907520Y-6846455D01*
X9897398Y-6845000D01*
X9890603Y-6845000D01*
X9880480Y-6846455D01*
X9869000Y-6851698D01*
X9869000Y-6746936D01*
X9869000Y-6746936D01*
X9847651Y-6752657D01*
X9826242Y-6762640D01*
X9806892Y-6776189D01*
X9790189Y-6792892D01*
X9779188Y-6808603D01*
X9773730Y-6812966D01*
X9766780Y-6813685D01*
X9760545Y-6810533D01*
X9758873Y-6808603D01*
X9752745Y-6799851D01*
X9747850Y-6792860D01*
X9731140Y-6776150D01*
X9711783Y-6762596D01*
X9690366Y-6752610D01*
X9684250Y-6750971D01*
X9667541Y-6746494D01*
X9644000Y-6744434D01*
X9620459Y-6746494D01*
X9597634Y-6752610D01*
X9576217Y-6762596D01*
X9556860Y-6776150D01*
X9540151Y-6792860D01*
X9526597Y-6812217D01*
X9516610Y-6833634D01*
X9510494Y-6856459D01*
X9509163Y-6871668D01*
X9508950Y-6874103D01*
X9508950Y-6910897D01*
X9508974Y-6911166D01*
X9508974Y-6911167D01*
X9510494Y-6928541D01*
X9513395Y-6939370D01*
X9516610Y-6951366D01*
X9526597Y-6972783D01*
X9540151Y-6992140D01*
X9556860Y-7008849D01*
X9576217Y-7022403D01*
X9597634Y-7032390D01*
X9620459Y-7038506D01*
X9644000Y-7040566D01*
X9667541Y-7038506D01*
X9690366Y-7032390D01*
X9711783Y-7022403D01*
X9731140Y-7008849D01*
X9747850Y-6992140D01*
X9758873Y-6976396D01*
X9764331Y-6972034D01*
X9771281Y-6971315D01*
X9777516Y-6974467D01*
X9779188Y-6976397D01*
X9790189Y-6992108D01*
X9806892Y-7008811D01*
X9826242Y-7022360D01*
X9847651Y-7032343D01*
X9869000Y-7038063D01*
X9869000Y-6933302D01*
X9880480Y-6938545D01*
X9890603Y-6940000D01*
X9897398Y-6940000D01*
X9907520Y-6938545D01*
X9919000Y-6933302D01*
X9919000Y-7038063D01*
X9940349Y-7032343D01*
X9961758Y-7022360D01*
X9981108Y-7008811D01*
X9995833Y-6994086D01*
X10001965Y-6990737D01*
X10008935Y-6991235D01*
X10014528Y-6995423D01*
X10015155Y-6996344D01*
X10024729Y-7011866D01*
X10037134Y-7024271D01*
X10037134Y-7024271D01*
X10052067Y-7033481D01*
X10063108Y-7037140D01*
X10068720Y-7039000D01*
X10078686Y-7040018D01*
X10078686Y-7040018D01*
X10078999Y-7040050D01*
X10209001Y-7040050D01*
X10219280Y-7039000D01*
X10235933Y-7033481D01*
X10250866Y-7024271D01*
X10263271Y-7011866D01*
X10272481Y-6996933D01*
X10278000Y-6980280D01*
X10279050Y-6970001D01*
X10279050Y-6861652D01*
X10281018Y-6854948D01*
X10282681Y-6852884D01*
X10394884Y-6740682D01*
X10401016Y-6737333D01*
X10403652Y-6737050D01*
X13615948Y-6737050D01*
X13622652Y-6739018D01*
X13627227Y-6744299D01*
X13628222Y-6751215D01*
X13625319Y-6757570D01*
X13624716Y-6758218D01*
X12857719Y-7525215D01*
X12851587Y-7528563D01*
X12844618Y-7528065D01*
X12840183Y-7525215D01*
X12823914Y-7508945D01*
X12805273Y-7495893D01*
X12784650Y-7486276D01*
X12762669Y-7480386D01*
X12740000Y-7478403D01*
X12717331Y-7480386D01*
X12695350Y-7486276D01*
X12674726Y-7495893D01*
X12656086Y-7508945D01*
X12639995Y-7525036D01*
X12626943Y-7543676D01*
X12617326Y-7564300D01*
X12611436Y-7586281D01*
X12609453Y-7608950D01*
X12611436Y-7631619D01*
X12617326Y-7653600D01*
X12626943Y-7674223D01*
X12639995Y-7692864D01*
X12656086Y-7708955D01*
X12674726Y-7722007D01*
X12674726Y-7722007D01*
X12674727Y-7722007D01*
X12695350Y-7731624D01*
X12717331Y-7737513D01*
X12740000Y-7739497D01*
X12762669Y-7737513D01*
X12784650Y-7731624D01*
X12805273Y-7722007D01*
X12823914Y-7708955D01*
X12834187Y-7698682D01*
X12840319Y-7695333D01*
X12842955Y-7695050D01*
X12854508Y-7695050D01*
X12855257Y-7695073D01*
X12855571Y-7695091D01*
X12861261Y-7695436D01*
X12867178Y-7694351D01*
X12867918Y-7694239D01*
X12873887Y-7693514D01*
X12874833Y-7693155D01*
X12876996Y-7692552D01*
X12877993Y-7692369D01*
X12883481Y-7689900D01*
X12884167Y-7689615D01*
X12889793Y-7687482D01*
X12890627Y-7686906D01*
X12892582Y-7685803D01*
X12893506Y-7685388D01*
X12898241Y-7681677D01*
X12898842Y-7681235D01*
X12903793Y-7677818D01*
X12907782Y-7673315D01*
X12908292Y-7672773D01*
X13499066Y-7082000D01*
X13982000Y-7082000D01*
X14087000Y-7082000D01*
X14087000Y-6907000D01*
X14137000Y-6907000D01*
X14137000Y-7082000D01*
X14242000Y-7082000D01*
X14242000Y-6977317D01*
X14241968Y-6976689D01*
X14240951Y-6966730D01*
X14235436Y-6950088D01*
X14226232Y-6935165D01*
X14213834Y-6922768D01*
X14198912Y-6913564D01*
X14182270Y-6908049D01*
X14172311Y-6907032D01*
X14171683Y-6907000D01*
X14137000Y-6907000D01*
X14087000Y-6907000D01*
X14052317Y-6907000D01*
X14051689Y-6907032D01*
X14041730Y-6908049D01*
X14025088Y-6913564D01*
X14010165Y-6922768D01*
X13997768Y-6935165D01*
X13988564Y-6950088D01*
X13983049Y-6966730D01*
X13982032Y-6976689D01*
X13982000Y-6977317D01*
X13982000Y-7082000D01*
X13499066Y-7082000D01*
X13840384Y-6740682D01*
X13846516Y-6737333D01*
X13849152Y-6737050D01*
X13969550Y-6737050D01*
X13976254Y-6739018D01*
X13980829Y-6744299D01*
X13981950Y-6749450D01*
X13981950Y-6797001D01*
X13981982Y-6797314D01*
X13981982Y-6797314D01*
X13983000Y-6807280D01*
X13988519Y-6823933D01*
X13997729Y-6838866D01*
X14010134Y-6851271D01*
X14010134Y-6851271D01*
X14025067Y-6860481D01*
X14035507Y-6863941D01*
X14041720Y-6866000D01*
X14051686Y-6867018D01*
X14051686Y-6867018D01*
X14051999Y-6867050D01*
X14172001Y-6867050D01*
X14182280Y-6866000D01*
X14198933Y-6860481D01*
X14213866Y-6851271D01*
X14226271Y-6838866D01*
X14235481Y-6823933D01*
X14241000Y-6807280D01*
X14242050Y-6797001D01*
X14242050Y-6641152D01*
X14244018Y-6634448D01*
X14245682Y-6632384D01*
X14270384Y-6607682D01*
X14276516Y-6604333D01*
X14279152Y-6604050D01*
X14441600Y-6604050D01*
X14448304Y-6606018D01*
X14452879Y-6611299D01*
X14454000Y-6616450D01*
X14454000Y-6671000D01*
X14545631Y-6671000D01*
X14543051Y-6675016D01*
X14539000Y-6688811D01*
X14539000Y-6703189D01*
X14543051Y-6716984D01*
X14545631Y-6721000D01*
X14454000Y-6721000D01*
X14454000Y-6785452D01*
X14454035Y-6786113D01*
X14454640Y-6791737D01*
X14459665Y-6805209D01*
X14468281Y-6816719D01*
X14479791Y-6825335D01*
X14492947Y-6830242D01*
X14498540Y-6834429D01*
X14500982Y-6840976D01*
X14499497Y-6847803D01*
X14497382Y-6850628D01*
X14485150Y-6862860D01*
X14471596Y-6882217D01*
X14461610Y-6903634D01*
X14455494Y-6926459D01*
X14453434Y-6950000D01*
X14455494Y-6973541D01*
X14459153Y-6987199D01*
X14461610Y-6996366D01*
X14471596Y-7017783D01*
X14485150Y-7037140D01*
X14501860Y-7053849D01*
X14520416Y-7066843D01*
X14524778Y-7072300D01*
X14525498Y-7079250D01*
X14522345Y-7085485D01*
X14520416Y-7087157D01*
X14508907Y-7095216D01*
X14501859Y-7100151D01*
X14485150Y-7116860D01*
X14471596Y-7136217D01*
X14461610Y-7157634D01*
X14455494Y-7180459D01*
X14453434Y-7204000D01*
X14455494Y-7227541D01*
X14458112Y-7237311D01*
X14461610Y-7250366D01*
X14471596Y-7271783D01*
X14485150Y-7291140D01*
X14501860Y-7307849D01*
X14520416Y-7320843D01*
X14524778Y-7326300D01*
X14525498Y-7333250D01*
X14522345Y-7339485D01*
X14520416Y-7341157D01*
X14511518Y-7347388D01*
X14501859Y-7354151D01*
X14485150Y-7370860D01*
X14471596Y-7390217D01*
X14461610Y-7411634D01*
X14455494Y-7434459D01*
X14453434Y-7458000D01*
X14455494Y-7481541D01*
X14456704Y-7486057D01*
X14461067Y-7502341D01*
X14460901Y-7509326D01*
X14456984Y-7515112D01*
X14450562Y-7517862D01*
X14449089Y-7517950D01*
X14360147Y-7517950D01*
X14353443Y-7515981D01*
X14351379Y-7514318D01*
X14169289Y-7332228D01*
X14168777Y-7331685D01*
X14165026Y-7327451D01*
X14162054Y-7321128D01*
X14162973Y-7314201D01*
X14167490Y-7308871D01*
X14173048Y-7306893D01*
X14182269Y-7305951D01*
X14198912Y-7300436D01*
X14213834Y-7291232D01*
X14226232Y-7278834D01*
X14235436Y-7263912D01*
X14240951Y-7247270D01*
X14241968Y-7237311D01*
X14242000Y-7236683D01*
X14242000Y-7132000D01*
X13982000Y-7132000D01*
X13982000Y-7236683D01*
X13982032Y-7237311D01*
X13982458Y-7241479D01*
X13981181Y-7248349D01*
X13976393Y-7253437D01*
X13969614Y-7255129D01*
X13966913Y-7254717D01*
X13954669Y-7251436D01*
X13932000Y-7249453D01*
X13909331Y-7251436D01*
X13887350Y-7257326D01*
X13866726Y-7266943D01*
X13848086Y-7279995D01*
X13831995Y-7296086D01*
X13818943Y-7314726D01*
X13809326Y-7335350D01*
X13803436Y-7357331D01*
X13801453Y-7380000D01*
X13803436Y-7402669D01*
X13809326Y-7424650D01*
X13818943Y-7445273D01*
X13831995Y-7463914D01*
X13848086Y-7480005D01*
X13866726Y-7493057D01*
X13866726Y-7493057D01*
X13866727Y-7493057D01*
X13887350Y-7502674D01*
X13909331Y-7508563D01*
X13932000Y-7510547D01*
X13954669Y-7508563D01*
X13976650Y-7502674D01*
X13997273Y-7493057D01*
X14015914Y-7480005D01*
X14032005Y-7463914D01*
X14036146Y-7458000D01*
X14038010Y-7455338D01*
X14043467Y-7450975D01*
X14048167Y-7450050D01*
X14083843Y-7450050D01*
X14090547Y-7452018D01*
X14092611Y-7453682D01*
X14274701Y-7635771D01*
X14275213Y-7636315D01*
X14279202Y-7640818D01*
X14284153Y-7644235D01*
X14284754Y-7644678D01*
X14289113Y-7648093D01*
X14289489Y-7648388D01*
X14290414Y-7648804D01*
X14292367Y-7649906D01*
X14293202Y-7650482D01*
X14298828Y-7652615D01*
X14299514Y-7652900D01*
X14305002Y-7655369D01*
X14305998Y-7655552D01*
X14308160Y-7656155D01*
X14309108Y-7656514D01*
X14315080Y-7657239D01*
X14315815Y-7657351D01*
X14321734Y-7658436D01*
X14327737Y-7658073D01*
X14328486Y-7658050D01*
X14894356Y-7658050D01*
X14895104Y-7658073D01*
X14895418Y-7658091D01*
X14901108Y-7658436D01*
X14907026Y-7657351D01*
X14907766Y-7657239D01*
X14913735Y-7656514D01*
X14914681Y-7656155D01*
X14916844Y-7655552D01*
X14917841Y-7655369D01*
X14923329Y-7652900D01*
X14924015Y-7652615D01*
X14929641Y-7650482D01*
X14930475Y-7649906D01*
X14932430Y-7648803D01*
X14933353Y-7648388D01*
X14938089Y-7644677D01*
X14938690Y-7644235D01*
X14943641Y-7640818D01*
X14947630Y-7636315D01*
X14948140Y-7635773D01*
X15020773Y-7563140D01*
X15021315Y-7562630D01*
X15025818Y-7558641D01*
X15029238Y-7553687D01*
X15029677Y-7553090D01*
X15033388Y-7548353D01*
X15033803Y-7547430D01*
X15034906Y-7545475D01*
X15035482Y-7544641D01*
X15037615Y-7539015D01*
X15037899Y-7538329D01*
X15040369Y-7532841D01*
X15040552Y-7531843D01*
X15041155Y-7529682D01*
X15041514Y-7528735D01*
X15042239Y-7522766D01*
X15042351Y-7522025D01*
X15042723Y-7520000D01*
X15043436Y-7516108D01*
X15043073Y-7510104D01*
X15043050Y-7509356D01*
X15043050Y-7082492D01*
X15043073Y-7081743D01*
X15043359Y-7077000D01*
X15043436Y-7075739D01*
X15042351Y-7069818D01*
X15042239Y-7069084D01*
X15041514Y-7063113D01*
X15041155Y-7062166D01*
X15040552Y-7060004D01*
X15040369Y-7059007D01*
X15037901Y-7053522D01*
X15037615Y-7052833D01*
X15035482Y-7047207D01*
X15035482Y-7047207D01*
X15035482Y-7047207D01*
X15034906Y-7046373D01*
X15033803Y-7044418D01*
X15033388Y-7043494D01*
X15029678Y-7038759D01*
X15029235Y-7038157D01*
X15028685Y-7037360D01*
X15027538Y-7035699D01*
X15025818Y-7033207D01*
X15025076Y-7032549D01*
X15021315Y-7029218D01*
X15020771Y-7028706D01*
X14979265Y-6987199D01*
X14975917Y-6981067D01*
X14976056Y-6975222D01*
X14976506Y-6973541D01*
X14978566Y-6950000D01*
X14976506Y-6926459D01*
X14975827Y-6923926D01*
X14970390Y-6903634D01*
X14960403Y-6882217D01*
X14946849Y-6862860D01*
X14930140Y-6846150D01*
X14911584Y-6833157D01*
X14907222Y-6827700D01*
X14906502Y-6820750D01*
X14909654Y-6814514D01*
X14911584Y-6812843D01*
X14930140Y-6799849D01*
X14946849Y-6783140D01*
X14960403Y-6763783D01*
X14970390Y-6742366D01*
X14976506Y-6719541D01*
X14978566Y-6696000D01*
X14976506Y-6672459D01*
X14970390Y-6649634D01*
X14960403Y-6628217D01*
X14946849Y-6608860D01*
X14930140Y-6592150D01*
X14910783Y-6578596D01*
X14889366Y-6568610D01*
X14883250Y-6566971D01*
X14866541Y-6562494D01*
X14843000Y-6560434D01*
X14819459Y-6562494D01*
X14817777Y-6562944D01*
X14810792Y-6562778D01*
X14805800Y-6559735D01*
X14758284Y-6512218D01*
X14754935Y-6506086D01*
X14755434Y-6499117D01*
X14759621Y-6493523D01*
X14766167Y-6491082D01*
X14767052Y-6491050D01*
X20565274Y-6491050D01*
X20571655Y-6492817D01*
X20622521Y-6523342D01*
X20665256Y-6548987D01*
X20665612Y-6549209D01*
X20695597Y-6568610D01*
X20760064Y-6610321D01*
X20760196Y-6610406D01*
X20760544Y-6610639D01*
X20813549Y-6647532D01*
X20853012Y-6674999D01*
X20853352Y-6675244D01*
X20943160Y-6742366D01*
X20943592Y-6742689D01*
X20943922Y-6742944D01*
X21031139Y-6812842D01*
X21031832Y-6813398D01*
X21032154Y-6813665D01*
X21096262Y-6868700D01*
X21117636Y-6887049D01*
X21117949Y-6887327D01*
X21199476Y-6962245D01*
X21200901Y-6963554D01*
X21201204Y-6963842D01*
X21281542Y-7042834D01*
X21281831Y-7043128D01*
X21331345Y-7095216D01*
X21359450Y-7124783D01*
X21359733Y-7125092D01*
X21365111Y-7131146D01*
X21421094Y-7194172D01*
X21434549Y-7209320D01*
X21434820Y-7209636D01*
X21461236Y-7241479D01*
X21506753Y-7296348D01*
X21507014Y-7296675D01*
X21575972Y-7385761D01*
X21576222Y-7386096D01*
X21617976Y-7443975D01*
X21638918Y-7473005D01*
X21642134Y-7477463D01*
X21642373Y-7477806D01*
X21693809Y-7554435D01*
X21705161Y-7571347D01*
X21705388Y-7571697D01*
X21759452Y-7658436D01*
X21764982Y-7667307D01*
X21765196Y-7667665D01*
X21814307Y-7752726D01*
X21821525Y-7765230D01*
X21821729Y-7765596D01*
X21874115Y-7863853D01*
X21874731Y-7865009D01*
X21874921Y-7865380D01*
X21883698Y-7883273D01*
X21924536Y-7966527D01*
X21924714Y-7966906D01*
X21970885Y-8069672D01*
X21971050Y-8070057D01*
X22013722Y-8174320D01*
X22013875Y-8174710D01*
X22053002Y-8280357D01*
X22053141Y-8280752D01*
X22073610Y-8342331D01*
X22088621Y-8387492D01*
X22088677Y-8387658D01*
X22088802Y-8388057D01*
X22099943Y-8425785D01*
X22120707Y-8496103D01*
X22120819Y-8496507D01*
X22149058Y-8605572D01*
X22149156Y-8605979D01*
X22173695Y-8715933D01*
X22173779Y-8716343D01*
X22194590Y-8827063D01*
X22194661Y-8827476D01*
X22211720Y-8938836D01*
X22211777Y-8939251D01*
X22225065Y-9051122D01*
X22225108Y-9051539D01*
X22234611Y-9163796D01*
X22234639Y-9164214D01*
X22240345Y-9276730D01*
X22240359Y-9277149D01*
X22242262Y-9389791D01*
X22242262Y-9390209D01*
X22240359Y-9502851D01*
X22240345Y-9503270D01*
X22234639Y-9615786D01*
X22234611Y-9616204D01*
X22225108Y-9728461D01*
X22225065Y-9728878D01*
X22211777Y-9840749D01*
X22211720Y-9841164D01*
X22194661Y-9952524D01*
X22194590Y-9952937D01*
X22173779Y-10063657D01*
X22173695Y-10064067D01*
X22149156Y-10174021D01*
X22149058Y-10174428D01*
X22120819Y-10283493D01*
X22120707Y-10283897D01*
X22088802Y-10391942D01*
X22088677Y-10392342D01*
X22053141Y-10499248D01*
X22053002Y-10499643D01*
X22013875Y-10605290D01*
X22013722Y-10605680D01*
X21971050Y-10709943D01*
X21970885Y-10710328D01*
X21924714Y-10813094D01*
X21924536Y-10813473D01*
X21874922Y-10914618D01*
X21874731Y-10914991D01*
X21821729Y-11014404D01*
X21821525Y-11014770D01*
X21765197Y-11112334D01*
X21764982Y-11112693D01*
X21705388Y-11208301D01*
X21705161Y-11208653D01*
X21642373Y-11302193D01*
X21642134Y-11302537D01*
X21576222Y-11393904D01*
X21575972Y-11394239D01*
X21507014Y-11483325D01*
X21506753Y-11483652D01*
X21434821Y-11570362D01*
X21434549Y-11570680D01*
X21359733Y-11654908D01*
X21359450Y-11655217D01*
X21281833Y-11736870D01*
X21281540Y-11737168D01*
X21201205Y-11816157D01*
X21200901Y-11816446D01*
X21117949Y-11892673D01*
X21117636Y-11892951D01*
X21032154Y-11966334D01*
X21031832Y-11966602D01*
X20943923Y-12037055D01*
X20943592Y-12037311D01*
X20853352Y-12104756D01*
X20853012Y-12105001D01*
X20760544Y-12169361D01*
X20760196Y-12169594D01*
X20665612Y-12230791D01*
X20665256Y-12231012D01*
X20571655Y-12287182D01*
X20565274Y-12288950D01*
X16851903Y-12288950D01*
X16845200Y-12286981D01*
X16840624Y-12281701D01*
X16839630Y-12274785D01*
X16842532Y-12268430D01*
X16844791Y-12266392D01*
X16853914Y-12260005D01*
X16870005Y-12243914D01*
X16879038Y-12231012D01*
X16883057Y-12225273D01*
X16892674Y-12204650D01*
X16898564Y-12182669D01*
X16900547Y-12160000D01*
X16898564Y-12137331D01*
X16892674Y-12115350D01*
X16883057Y-12094727D01*
X16877313Y-12086523D01*
X16870005Y-12076086D01*
X16853914Y-12059995D01*
X16835274Y-12046943D01*
X16814650Y-12037326D01*
X16809241Y-12035877D01*
X16803274Y-12032240D01*
X16800222Y-12025955D01*
X16800050Y-12023899D01*
X16800050Y-11928453D01*
X16800050Y-11796004D01*
X16802018Y-11789301D01*
X16803681Y-11787237D01*
X16819005Y-11771914D01*
X16832057Y-11753273D01*
X16841674Y-11732650D01*
X16847564Y-11710669D01*
X16849547Y-11688000D01*
X16847564Y-11665331D01*
X16841674Y-11643350D01*
X16832057Y-11622727D01*
X16819645Y-11605000D01*
X16819005Y-11604086D01*
X16802914Y-11587995D01*
X16784274Y-11574943D01*
X16763650Y-11565326D01*
X16741669Y-11559436D01*
X16719000Y-11557453D01*
X16696331Y-11559436D01*
X16674350Y-11565326D01*
X16653726Y-11574943D01*
X16635086Y-11587995D01*
X16618995Y-11604086D01*
X16605943Y-11622726D01*
X16596326Y-11643350D01*
X16590436Y-11665331D01*
X16588453Y-11688000D01*
X16590436Y-11710669D01*
X16596326Y-11732650D01*
X16605943Y-11753273D01*
X16618995Y-11771914D01*
X16635086Y-11788005D01*
X16654615Y-11801679D01*
X16654378Y-11802018D01*
X16658032Y-11805234D01*
X16659950Y-11811858D01*
X16659950Y-12086523D01*
X16657981Y-12093227D01*
X16657708Y-12093635D01*
X16656943Y-12094726D01*
X16647326Y-12115350D01*
X16641436Y-12137331D01*
X16639453Y-12160000D01*
X16641436Y-12182669D01*
X16647326Y-12204650D01*
X16656943Y-12225273D01*
X16669995Y-12243914D01*
X16686086Y-12260005D01*
X16695209Y-12266392D01*
X16699571Y-12271850D01*
X16700291Y-12278800D01*
X16697139Y-12285035D01*
X16691116Y-12288577D01*
X16688097Y-12288950D01*
X8172726Y-12288950D01*
X8166345Y-12287182D01*
X8072744Y-12231012D01*
X8072388Y-12230791D01*
X7977804Y-12169594D01*
X7977456Y-12169361D01*
X7884988Y-12105001D01*
X7884648Y-12104756D01*
X7823428Y-12059000D01*
X13457453Y-12059000D01*
X13459436Y-12081669D01*
X13465326Y-12103650D01*
X13474943Y-12124273D01*
X13487995Y-12142914D01*
X13504086Y-12159005D01*
X13522726Y-12172057D01*
X13522726Y-12172057D01*
X13522727Y-12172057D01*
X13543350Y-12181674D01*
X13565331Y-12187563D01*
X13588000Y-12189547D01*
X13610669Y-12187563D01*
X13632650Y-12181674D01*
X13653273Y-12172057D01*
X13671914Y-12159005D01*
X13688005Y-12142914D01*
X13690359Y-12139551D01*
X13694010Y-12134338D01*
X13699467Y-12129975D01*
X13704167Y-12129050D01*
X14686508Y-12129050D01*
X14687257Y-12129073D01*
X14687571Y-12129091D01*
X14693261Y-12129436D01*
X14699178Y-12128351D01*
X14699918Y-12128239D01*
X14705887Y-12127514D01*
X14706833Y-12127155D01*
X14708996Y-12126552D01*
X14709993Y-12126369D01*
X14715481Y-12123900D01*
X14716167Y-12123615D01*
X14721793Y-12121482D01*
X14722627Y-12120906D01*
X14724582Y-12119803D01*
X14725506Y-12119388D01*
X14730241Y-12115677D01*
X14730842Y-12115235D01*
X14735793Y-12111818D01*
X14739782Y-12107315D01*
X14740292Y-12106773D01*
X15452378Y-11394688D01*
X17946450Y-11394688D01*
X17946450Y-11395001D01*
X17946482Y-11395314D01*
X17946482Y-11395314D01*
X17947500Y-11405280D01*
X17953019Y-11421933D01*
X17962229Y-11436866D01*
X17974634Y-11449271D01*
X17990156Y-11458845D01*
X17994828Y-11464040D01*
X17995951Y-11470936D01*
X17993166Y-11477344D01*
X17992414Y-11478167D01*
X17977689Y-11492892D01*
X17964140Y-11512242D01*
X17954157Y-11533651D01*
X17948436Y-11555000D01*
X17948436Y-11555000D01*
X18053131Y-11555000D01*
X18050551Y-11559016D01*
X18046500Y-11572811D01*
X18046500Y-11587189D01*
X18050551Y-11600984D01*
X18053131Y-11605000D01*
X17948436Y-11605000D01*
X17954157Y-11626349D01*
X17964140Y-11647758D01*
X17977689Y-11667108D01*
X17994392Y-11683811D01*
X18013742Y-11697360D01*
X18035151Y-11707343D01*
X18057968Y-11713457D01*
X18071500Y-11714641D01*
X18071500Y-11714641D01*
X18071500Y-11623550D01*
X18082269Y-11628468D01*
X18092924Y-11630000D01*
X18100076Y-11630000D01*
X18110732Y-11628468D01*
X18121500Y-11623550D01*
X18121500Y-11714641D01*
X18135032Y-11713457D01*
X18157849Y-11707343D01*
X18179258Y-11697360D01*
X18198608Y-11683811D01*
X18215311Y-11667108D01*
X18228860Y-11647758D01*
X18238843Y-11626349D01*
X18244564Y-11605000D01*
X18139869Y-11605000D01*
X18142449Y-11600984D01*
X18146500Y-11587189D01*
X18146500Y-11572811D01*
X18142449Y-11559016D01*
X18139869Y-11555000D01*
X18244564Y-11555000D01*
X18244564Y-11555000D01*
X18238843Y-11533651D01*
X18228860Y-11512242D01*
X18215311Y-11492892D01*
X18200586Y-11478167D01*
X18197237Y-11472034D01*
X18197736Y-11465065D01*
X18201923Y-11459472D01*
X18202844Y-11458845D01*
X18203433Y-11458481D01*
X18203433Y-11458481D01*
X18218366Y-11449271D01*
X18230771Y-11436866D01*
X18239981Y-11421933D01*
X18245500Y-11405280D01*
X18246550Y-11395001D01*
X18246550Y-11390336D01*
X20338534Y-11390336D01*
X20340434Y-11425396D01*
X20340507Y-11426063D01*
X20346187Y-11460713D01*
X20346332Y-11461368D01*
X20355725Y-11495200D01*
X20355940Y-11495837D01*
X20368936Y-11528455D01*
X20369217Y-11529063D01*
X20385665Y-11560087D01*
X20386010Y-11560661D01*
X20405715Y-11589722D01*
X20406121Y-11590257D01*
X20418644Y-11605000D01*
X20418644Y-11605000D01*
X20539227Y-11484418D01*
X20555513Y-11503487D01*
X20574582Y-11519773D01*
X20453726Y-11640629D01*
X20454805Y-11641652D01*
X20455316Y-11642086D01*
X20483269Y-11663336D01*
X20483824Y-11663712D01*
X20513910Y-11681814D01*
X20514504Y-11682128D01*
X20546370Y-11696871D01*
X20546994Y-11697120D01*
X20580268Y-11708331D01*
X20580913Y-11708510D01*
X20615205Y-11716059D01*
X20615868Y-11716167D01*
X20650774Y-11719964D01*
X20651444Y-11720000D01*
X20686556Y-11720000D01*
X20687226Y-11719964D01*
X20722132Y-11716167D01*
X20722795Y-11716059D01*
X20757087Y-11708510D01*
X20757732Y-11708331D01*
X20791006Y-11697120D01*
X20791630Y-11696871D01*
X20823496Y-11682128D01*
X20824090Y-11681814D01*
X20854176Y-11663712D01*
X20854731Y-11663336D01*
X20882685Y-11642086D01*
X20883195Y-11641652D01*
X20884274Y-11640630D01*
X20884274Y-11640629D01*
X20763418Y-11519773D01*
X20782487Y-11503487D01*
X20798773Y-11484418D01*
X20919356Y-11605000D01*
X20919356Y-11605000D01*
X20931879Y-11590257D01*
X20932285Y-11589722D01*
X20951990Y-11560661D01*
X20952335Y-11560087D01*
X20968783Y-11529063D01*
X20969064Y-11528455D01*
X20982060Y-11495837D01*
X20982275Y-11495200D01*
X20991668Y-11461368D01*
X20991813Y-11460713D01*
X20997493Y-11426063D01*
X20997566Y-11425396D01*
X20999467Y-11390336D01*
X20999467Y-11389664D01*
X20997566Y-11354604D01*
X20997493Y-11353937D01*
X20991813Y-11319287D01*
X20991668Y-11318631D01*
X20982275Y-11284800D01*
X20982060Y-11284163D01*
X20969064Y-11251545D01*
X20968783Y-11250937D01*
X20952335Y-11219913D01*
X20951990Y-11219339D01*
X20932285Y-11190277D01*
X20931879Y-11189743D01*
X20919356Y-11175000D01*
X20919356Y-11174999D01*
X20798773Y-11295582D01*
X20782487Y-11276513D01*
X20763418Y-11260227D01*
X20884274Y-11139370D01*
X20883194Y-11138347D01*
X20882684Y-11137914D01*
X20854731Y-11116664D01*
X20854176Y-11116288D01*
X20824090Y-11098186D01*
X20823496Y-11097871D01*
X20791630Y-11083129D01*
X20791006Y-11082880D01*
X20757732Y-11071668D01*
X20757087Y-11071490D01*
X20722795Y-11063941D01*
X20722132Y-11063833D01*
X20687226Y-11060036D01*
X20686556Y-11060000D01*
X20651444Y-11060000D01*
X20650774Y-11060036D01*
X20615868Y-11063833D01*
X20615205Y-11063941D01*
X20580913Y-11071490D01*
X20580268Y-11071668D01*
X20546994Y-11082880D01*
X20546370Y-11083129D01*
X20514504Y-11097871D01*
X20513910Y-11098186D01*
X20483824Y-11116288D01*
X20483269Y-11116664D01*
X20455315Y-11137915D01*
X20454805Y-11138347D01*
X20453726Y-11139370D01*
X20453726Y-11139370D01*
X20574582Y-11260227D01*
X20555513Y-11276513D01*
X20539227Y-11295582D01*
X20418644Y-11174999D01*
X20418644Y-11175000D01*
X20406121Y-11189743D01*
X20405715Y-11190277D01*
X20386010Y-11219339D01*
X20385665Y-11219913D01*
X20369217Y-11250937D01*
X20368936Y-11251545D01*
X20355940Y-11284163D01*
X20355725Y-11284800D01*
X20346332Y-11318631D01*
X20346187Y-11319287D01*
X20340507Y-11353937D01*
X20340434Y-11354604D01*
X20338534Y-11389664D01*
X20338534Y-11390336D01*
X18246550Y-11390336D01*
X18246550Y-11264999D01*
X18245500Y-11254720D01*
X18239981Y-11238067D01*
X18230771Y-11223134D01*
X18230771Y-11223134D01*
X18218366Y-11210729D01*
X18203433Y-11201519D01*
X18186780Y-11196000D01*
X18176814Y-11194982D01*
X18176812Y-11194982D01*
X18176501Y-11194950D01*
X18176186Y-11194950D01*
X18016814Y-11194950D01*
X18016812Y-11194950D01*
X18016499Y-11194950D01*
X18016186Y-11194982D01*
X18016186Y-11194982D01*
X18006220Y-11196000D01*
X17989567Y-11201519D01*
X17974634Y-11210729D01*
X17962229Y-11223134D01*
X17953019Y-11238066D01*
X17947500Y-11254720D01*
X17946482Y-11264686D01*
X17946482Y-11264688D01*
X17946450Y-11264999D01*
X17946450Y-11265314D01*
X17946450Y-11265314D01*
X17946450Y-11394686D01*
X17946450Y-11394688D01*
X15452378Y-11394688D01*
X15557963Y-11289103D01*
X15564095Y-11285754D01*
X15567811Y-11285518D01*
X15591000Y-11287547D01*
X15613669Y-11285563D01*
X15635650Y-11279674D01*
X15656273Y-11270057D01*
X15674914Y-11257005D01*
X15691005Y-11240914D01*
X15704057Y-11222273D01*
X15713674Y-11201650D01*
X15719563Y-11179669D01*
X15721547Y-11157000D01*
X15721285Y-11154005D01*
X15719563Y-11134331D01*
X15719563Y-11134331D01*
X15713674Y-11112350D01*
X15704057Y-11091727D01*
X15698037Y-11083129D01*
X15691005Y-11073086D01*
X15674914Y-11056995D01*
X15656273Y-11043943D01*
X15635650Y-11034326D01*
X15613669Y-11028436D01*
X15591000Y-11026453D01*
X15568331Y-11028436D01*
X15546350Y-11034326D01*
X15525726Y-11043943D01*
X15507086Y-11056995D01*
X15490995Y-11073086D01*
X15477943Y-11091726D01*
X15468326Y-11112350D01*
X15462436Y-11134331D01*
X15460453Y-11157000D01*
X15462482Y-11180188D01*
X15461105Y-11187038D01*
X15458897Y-11190037D01*
X14663616Y-11985318D01*
X14657484Y-11988667D01*
X14654848Y-11988950D01*
X13704167Y-11988950D01*
X13697463Y-11986981D01*
X13694010Y-11983662D01*
X13688005Y-11975086D01*
X13671914Y-11958995D01*
X13653273Y-11945943D01*
X13632650Y-11936326D01*
X13610669Y-11930436D01*
X13588000Y-11928453D01*
X13565331Y-11930436D01*
X13543350Y-11936326D01*
X13522726Y-11945943D01*
X13504086Y-11958995D01*
X13487995Y-11975086D01*
X13474943Y-11993726D01*
X13465326Y-12014350D01*
X13459436Y-12036331D01*
X13457453Y-12059000D01*
X7823428Y-12059000D01*
X7794408Y-12037311D01*
X7794077Y-12037055D01*
X7793174Y-12036331D01*
X7706168Y-11966602D01*
X7705845Y-11966334D01*
X7620364Y-11892951D01*
X7620051Y-11892673D01*
X7537098Y-11816446D01*
X7536795Y-11816157D01*
X7532423Y-11811858D01*
X7456458Y-11737166D01*
X7456169Y-11736872D01*
X7378550Y-11655217D01*
X7378266Y-11654908D01*
X7356142Y-11630000D01*
X7303450Y-11570678D01*
X7303180Y-11570364D01*
X7231247Y-11483652D01*
X7230985Y-11483325D01*
X7162028Y-11394239D01*
X7161777Y-11393904D01*
X7159203Y-11390336D01*
X7838533Y-11390336D01*
X7840434Y-11425396D01*
X7840507Y-11426063D01*
X7846187Y-11460713D01*
X7846332Y-11461368D01*
X7855725Y-11495200D01*
X7855940Y-11495837D01*
X7868936Y-11528455D01*
X7869217Y-11529063D01*
X7885665Y-11560087D01*
X7886010Y-11560661D01*
X7905715Y-11589722D01*
X7906121Y-11590257D01*
X7918644Y-11605000D01*
X7918644Y-11605000D01*
X8039227Y-11484418D01*
X8055513Y-11503487D01*
X8074582Y-11519773D01*
X7953725Y-11640629D01*
X7954805Y-11641652D01*
X7955316Y-11642086D01*
X7983269Y-11663336D01*
X7983824Y-11663712D01*
X8013910Y-11681814D01*
X8014504Y-11682128D01*
X8046369Y-11696871D01*
X8046994Y-11697120D01*
X8080268Y-11708331D01*
X8080913Y-11708510D01*
X8115205Y-11716059D01*
X8115868Y-11716167D01*
X8150774Y-11719964D01*
X8151444Y-11720000D01*
X8186556Y-11720000D01*
X8187226Y-11719964D01*
X8222132Y-11716167D01*
X8222795Y-11716059D01*
X8257087Y-11708510D01*
X8257731Y-11708331D01*
X8291006Y-11697120D01*
X8291630Y-11696871D01*
X8323496Y-11682128D01*
X8324090Y-11681814D01*
X8354176Y-11663712D01*
X8354730Y-11663336D01*
X8382685Y-11642086D01*
X8383195Y-11641652D01*
X8384274Y-11640630D01*
X8384274Y-11640629D01*
X8263418Y-11519773D01*
X8282487Y-11503487D01*
X8298773Y-11484418D01*
X8419356Y-11605000D01*
X8419356Y-11605000D01*
X8431879Y-11590257D01*
X8432285Y-11589722D01*
X8451990Y-11560661D01*
X8452335Y-11560087D01*
X8468783Y-11529063D01*
X8469064Y-11528455D01*
X8482060Y-11495837D01*
X8482275Y-11495200D01*
X8491668Y-11461368D01*
X8491813Y-11460713D01*
X8497493Y-11426063D01*
X8497566Y-11425396D01*
X8499466Y-11390336D01*
X8499466Y-11389664D01*
X8497566Y-11354604D01*
X8497493Y-11353937D01*
X8491813Y-11319287D01*
X8491668Y-11318631D01*
X8482275Y-11284800D01*
X8482060Y-11284163D01*
X8469064Y-11251545D01*
X8468783Y-11250937D01*
X8454778Y-11224521D01*
X8893521Y-11224521D01*
X8893521Y-11592479D01*
X9231479Y-11592479D01*
X9231479Y-11224521D01*
X8893521Y-11224521D01*
X8454778Y-11224521D01*
X8452335Y-11219913D01*
X8451990Y-11219339D01*
X8432285Y-11190277D01*
X8431879Y-11189743D01*
X8419356Y-11175000D01*
X8419356Y-11174999D01*
X8298773Y-11295582D01*
X8282487Y-11276513D01*
X8263418Y-11260227D01*
X8384274Y-11139370D01*
X8383194Y-11138347D01*
X8382684Y-11137914D01*
X8354730Y-11116664D01*
X8354176Y-11116288D01*
X8324090Y-11098186D01*
X8323496Y-11097871D01*
X8291630Y-11083129D01*
X8291006Y-11082880D01*
X8257731Y-11071668D01*
X8257087Y-11071490D01*
X8222795Y-11063941D01*
X8222132Y-11063833D01*
X8187226Y-11060036D01*
X8186556Y-11060000D01*
X8151444Y-11060000D01*
X8150774Y-11060036D01*
X8115868Y-11063833D01*
X8115205Y-11063941D01*
X8080913Y-11071490D01*
X8080268Y-11071668D01*
X8046994Y-11082880D01*
X8046369Y-11083129D01*
X8014504Y-11097871D01*
X8013910Y-11098186D01*
X7983824Y-11116288D01*
X7983269Y-11116664D01*
X7955315Y-11137915D01*
X7954805Y-11138347D01*
X7953726Y-11139370D01*
X7953725Y-11139370D01*
X8074582Y-11260227D01*
X8055513Y-11276513D01*
X8039227Y-11295582D01*
X7918644Y-11174999D01*
X7918644Y-11175000D01*
X7906121Y-11189743D01*
X7905715Y-11190277D01*
X7886010Y-11219339D01*
X7885665Y-11219913D01*
X7869217Y-11250937D01*
X7868936Y-11251545D01*
X7855940Y-11284163D01*
X7855725Y-11284800D01*
X7846332Y-11318631D01*
X7846187Y-11319287D01*
X7840507Y-11353937D01*
X7840434Y-11354604D01*
X7838533Y-11389664D01*
X7838533Y-11390336D01*
X7159203Y-11390336D01*
X7095866Y-11302537D01*
X7095627Y-11302193D01*
X7091244Y-11295663D01*
X7032837Y-11208650D01*
X7032613Y-11208304D01*
X6973016Y-11112689D01*
X6972805Y-11112337D01*
X6916473Y-11014768D01*
X6916272Y-11014406D01*
X6863267Y-10914987D01*
X6863080Y-10914622D01*
X6822019Y-10830914D01*
X6813464Y-10813473D01*
X6813286Y-10813094D01*
X6767115Y-10710328D01*
X6766950Y-10709943D01*
X6751554Y-10672326D01*
X6724276Y-10605677D01*
X6724127Y-10605293D01*
X6684998Y-10499642D01*
X6684859Y-10499248D01*
X6676694Y-10474683D01*
X6649322Y-10392337D01*
X6649199Y-10391947D01*
X6617292Y-10283894D01*
X6617181Y-10283496D01*
X6588941Y-10174427D01*
X6588844Y-10174021D01*
X6585714Y-10159999D01*
X6564305Y-10064067D01*
X6564221Y-10063657D01*
X6561749Y-10050506D01*
X6543409Y-9952935D01*
X6543339Y-9952524D01*
X6543287Y-9952182D01*
X6526279Y-9841163D01*
X6526223Y-9840749D01*
X6512934Y-9728873D01*
X6512893Y-9728467D01*
X6503389Y-9616203D01*
X6503361Y-9615786D01*
X6502901Y-9606727D01*
X6500016Y-9549824D01*
X6500000Y-9549203D01*
X6500000Y-9230796D01*
X6500016Y-9230176D01*
X6502036Y-9190336D01*
X6838533Y-9190336D01*
X6840434Y-9225396D01*
X6840507Y-9226063D01*
X6846187Y-9260713D01*
X6846332Y-9261368D01*
X6855725Y-9295200D01*
X6855940Y-9295837D01*
X6868936Y-9328455D01*
X6869217Y-9329063D01*
X6885665Y-9360087D01*
X6886010Y-9360661D01*
X6905715Y-9389723D01*
X6906121Y-9390257D01*
X6918644Y-9405000D01*
X6918644Y-9405000D01*
X7039227Y-9284418D01*
X7055513Y-9303487D01*
X7074582Y-9319773D01*
X6953725Y-9440630D01*
X6954805Y-9441652D01*
X6955316Y-9442086D01*
X6983269Y-9463336D01*
X6983824Y-9463712D01*
X7013910Y-9481814D01*
X7014504Y-9482129D01*
X7046369Y-9496871D01*
X7046994Y-9497120D01*
X7080268Y-9508332D01*
X7080913Y-9508510D01*
X7115205Y-9516059D01*
X7115868Y-9516167D01*
X7150774Y-9519964D01*
X7151444Y-9520000D01*
X7186556Y-9520000D01*
X7187226Y-9519964D01*
X7222132Y-9516167D01*
X7222795Y-9516059D01*
X7257087Y-9508510D01*
X7257731Y-9508332D01*
X7291006Y-9497120D01*
X7291630Y-9496871D01*
X7323496Y-9482129D01*
X7324090Y-9481814D01*
X7354176Y-9463712D01*
X7354730Y-9463336D01*
X7382685Y-9442086D01*
X7383195Y-9441652D01*
X7384274Y-9440630D01*
X7384274Y-9440630D01*
X7263418Y-9319773D01*
X7282487Y-9303487D01*
X7298773Y-9284418D01*
X7419356Y-9405000D01*
X7419356Y-9405000D01*
X7431879Y-9390257D01*
X7432285Y-9389723D01*
X7451990Y-9360661D01*
X7452335Y-9360087D01*
X7468783Y-9329063D01*
X7469064Y-9328455D01*
X7482060Y-9295837D01*
X7482275Y-9295200D01*
X7491668Y-9261368D01*
X7491812Y-9260713D01*
X7497493Y-9226063D01*
X7497566Y-9225396D01*
X7499466Y-9190336D01*
X7499466Y-9189664D01*
X7497566Y-9154604D01*
X7497493Y-9153937D01*
X7491812Y-9119287D01*
X7491668Y-9118632D01*
X7482275Y-9084800D01*
X7482060Y-9084163D01*
X7474027Y-9064000D01*
X8637453Y-9064000D01*
X8639436Y-9086669D01*
X8645326Y-9108650D01*
X8654943Y-9129274D01*
X8667995Y-9147914D01*
X8684086Y-9164005D01*
X8702726Y-9177057D01*
X8702727Y-9177057D01*
X8702727Y-9177057D01*
X8723350Y-9186674D01*
X8745331Y-9192564D01*
X8760444Y-9193886D01*
X8768000Y-9194547D01*
X8768000Y-9194547D01*
X8768000Y-9194547D01*
X8781164Y-9193395D01*
X8791188Y-9192518D01*
X8798038Y-9193895D01*
X8801037Y-9196103D01*
X8933818Y-9328884D01*
X8937167Y-9335016D01*
X8937450Y-9337652D01*
X8937450Y-9344456D01*
X8937450Y-9344458D01*
X8937450Y-9344787D01*
X8937485Y-9345115D01*
X8937485Y-9345116D01*
X8938091Y-9350748D01*
X8940292Y-9356650D01*
X8943120Y-9364233D01*
X8951745Y-9375755D01*
X8963267Y-9384380D01*
X8976752Y-9389409D01*
X8982713Y-9390050D01*
X9032287Y-9390050D01*
X9038248Y-9389409D01*
X9038249Y-9389409D01*
X9038909Y-9389338D01*
X9041560Y-9389338D01*
X9047387Y-9389965D01*
X9048048Y-9390000D01*
X9052500Y-9390000D01*
X9052505Y-9389995D01*
X9054469Y-9383308D01*
X9057469Y-9380086D01*
X9063255Y-9375755D01*
X9063255Y-9375755D01*
X9064682Y-9374686D01*
X9064874Y-9374943D01*
X9068165Y-9372478D01*
X9075134Y-9371979D01*
X9080253Y-9374773D01*
X9080318Y-9374686D01*
X9080922Y-9375138D01*
X9081267Y-9375327D01*
X9081439Y-9375526D01*
X9082213Y-9376105D01*
X9087531Y-9380086D01*
X9091718Y-9385679D01*
X9092497Y-9389997D01*
X9092500Y-9390000D01*
X9096952Y-9390000D01*
X9097613Y-9389965D01*
X9103440Y-9389338D01*
X9106091Y-9389338D01*
X9106751Y-9389409D01*
X9106752Y-9389409D01*
X9112713Y-9390050D01*
X9162287Y-9390050D01*
X9168248Y-9389409D01*
X9168249Y-9389409D01*
X9168909Y-9389338D01*
X9171560Y-9389338D01*
X9177387Y-9389965D01*
X9178048Y-9390000D01*
X9182500Y-9390000D01*
X9182505Y-9389995D01*
X9184469Y-9383308D01*
X9187469Y-9380086D01*
X9193255Y-9375755D01*
X9200174Y-9366512D01*
X9205767Y-9362325D01*
X9212736Y-9361827D01*
X9218868Y-9365175D01*
X9222217Y-9371308D01*
X9222500Y-9373943D01*
X9222500Y-9390000D01*
X9226952Y-9390000D01*
X9227613Y-9389965D01*
X9233674Y-9389313D01*
X9236326Y-9389313D01*
X9239717Y-9389678D01*
X9246172Y-9392351D01*
X9250157Y-9398091D01*
X9250406Y-9405073D01*
X9247160Y-9410775D01*
X9209037Y-9448897D01*
X9202905Y-9452246D01*
X9199188Y-9452482D01*
X9176000Y-9450453D01*
X9153331Y-9452436D01*
X9131350Y-9458326D01*
X9110726Y-9467943D01*
X9092086Y-9480995D01*
X9075995Y-9497086D01*
X9062943Y-9515726D01*
X9053326Y-9536350D01*
X9047436Y-9558331D01*
X9045453Y-9581000D01*
X9047436Y-9603669D01*
X9053326Y-9625650D01*
X9062943Y-9646274D01*
X9075995Y-9664914D01*
X9092086Y-9681005D01*
X9110726Y-9694057D01*
X9110727Y-9694057D01*
X9110727Y-9694057D01*
X9131350Y-9703674D01*
X9153331Y-9709564D01*
X9176000Y-9711547D01*
X9198669Y-9709564D01*
X9220650Y-9703674D01*
X9241273Y-9694057D01*
X9241274Y-9694056D01*
X9241907Y-9693761D01*
X9248815Y-9692712D01*
X9255193Y-9695564D01*
X9255916Y-9696231D01*
X9398818Y-9839134D01*
X9402167Y-9845266D01*
X9402450Y-9847902D01*
X9402450Y-9870853D01*
X9402450Y-9870855D01*
X9402450Y-9871168D01*
X9402482Y-9871481D01*
X9402482Y-9871481D01*
X9403483Y-9881275D01*
X9408909Y-9897652D01*
X9417966Y-9912335D01*
X9430165Y-9924534D01*
X9444848Y-9933591D01*
X9461225Y-9939017D01*
X9471019Y-9940018D01*
X9471019Y-9940018D01*
X9471332Y-9940050D01*
X9528668Y-9940050D01*
X9538775Y-9939017D01*
X9555152Y-9933591D01*
X9569835Y-9924534D01*
X9582034Y-9912335D01*
X9591091Y-9897652D01*
X9596517Y-9881275D01*
X9597550Y-9871168D01*
X9597550Y-9811332D01*
X9596517Y-9801225D01*
X9591091Y-9784848D01*
X9582034Y-9770165D01*
X9582034Y-9770165D01*
X9582034Y-9770165D01*
X9570637Y-9758768D01*
X9567289Y-9752636D01*
X9567787Y-9745667D01*
X9570637Y-9741232D01*
X9579437Y-9732432D01*
X9585570Y-9729083D01*
X9588205Y-9728800D01*
X9690745Y-9728800D01*
X9697449Y-9730769D01*
X9699513Y-9732432D01*
X10185803Y-10218722D01*
X10186315Y-10219266D01*
X10190304Y-10223768D01*
X10195255Y-10227186D01*
X10195857Y-10227629D01*
X10200591Y-10231338D01*
X10200591Y-10231338D01*
X10200591Y-10231338D01*
X10201515Y-10231754D01*
X10203470Y-10232856D01*
X10204304Y-10233432D01*
X10204304Y-10233432D01*
X10205543Y-10234288D01*
X10205533Y-10234302D01*
X10206599Y-10234903D01*
X10208494Y-10236388D01*
X10209417Y-10236803D01*
X10211373Y-10237906D01*
X10212207Y-10238482D01*
X10217832Y-10240615D01*
X10218523Y-10240901D01*
X10224007Y-10243369D01*
X10225003Y-10243552D01*
X10227165Y-10244155D01*
X10228113Y-10244514D01*
X10228113Y-10244514D01*
X10234086Y-10245239D01*
X10234820Y-10245351D01*
X10240739Y-10246436D01*
X10246742Y-10246073D01*
X10247491Y-10246050D01*
X12611763Y-10246050D01*
X13192508Y-10246050D01*
X13193257Y-10246073D01*
X13193571Y-10246092D01*
X13199261Y-10246436D01*
X13205178Y-10245351D01*
X13205918Y-10245239D01*
X13211887Y-10244514D01*
X13212833Y-10244155D01*
X13214996Y-10243552D01*
X13215993Y-10243370D01*
X13221481Y-10240900D01*
X13222167Y-10240615D01*
X13227793Y-10238482D01*
X13228627Y-10237906D01*
X13230582Y-10236804D01*
X13231506Y-10236388D01*
X13236241Y-10232678D01*
X13236842Y-10232236D01*
X13241793Y-10228818D01*
X13245782Y-10224315D01*
X13246292Y-10223773D01*
X13404773Y-10065292D01*
X13405315Y-10064782D01*
X13409818Y-10060793D01*
X13413235Y-10055842D01*
X13413677Y-10055241D01*
X13417388Y-10050506D01*
X13417803Y-10049582D01*
X13418906Y-10047627D01*
X13419482Y-10046793D01*
X13421615Y-10041168D01*
X13421900Y-10040480D01*
X13424369Y-10034993D01*
X13424552Y-10033996D01*
X13425155Y-10031834D01*
X13425514Y-10030887D01*
X13426239Y-10024918D01*
X13426351Y-10024178D01*
X13426517Y-10023273D01*
X13427436Y-10018261D01*
X13427073Y-10012257D01*
X13427050Y-10011508D01*
X13427050Y-9182152D01*
X13429018Y-9175448D01*
X13430681Y-9173384D01*
X13713332Y-8890734D01*
X13719464Y-8887386D01*
X13726433Y-8887884D01*
X13732026Y-8892071D01*
X13734452Y-8898421D01*
X13735436Y-8909669D01*
X13741326Y-8931650D01*
X13750943Y-8952274D01*
X13763995Y-8970914D01*
X13780086Y-8987005D01*
X13790928Y-8994596D01*
X13795290Y-9000054D01*
X13796010Y-9007003D01*
X13792857Y-9013239D01*
X13789056Y-9015992D01*
X13782727Y-9018943D01*
X13764086Y-9031995D01*
X13747995Y-9048086D01*
X13734943Y-9066726D01*
X13725326Y-9087350D01*
X13719436Y-9109331D01*
X13717453Y-9132000D01*
X13719436Y-9154669D01*
X13725326Y-9176650D01*
X13734943Y-9197274D01*
X13747995Y-9215914D01*
X13749503Y-9217422D01*
X13752852Y-9223554D01*
X13752353Y-9230523D01*
X13748166Y-9236117D01*
X13745976Y-9237428D01*
X13742726Y-9238943D01*
X13724086Y-9251995D01*
X13707995Y-9268086D01*
X13694943Y-9286727D01*
X13685321Y-9307362D01*
X13680703Y-9312606D01*
X13673984Y-9314521D01*
X13670873Y-9314099D01*
X13664669Y-9312436D01*
X13642000Y-9310453D01*
X13619331Y-9312436D01*
X13597350Y-9318326D01*
X13576726Y-9327943D01*
X13558086Y-9340995D01*
X13541995Y-9357086D01*
X13528943Y-9375726D01*
X13519326Y-9396350D01*
X13513436Y-9418331D01*
X13511453Y-9441000D01*
X13513436Y-9463669D01*
X13519326Y-9485650D01*
X13528943Y-9506274D01*
X13541995Y-9524914D01*
X13558086Y-9541005D01*
X13576726Y-9554057D01*
X13576726Y-9554057D01*
X13576727Y-9554057D01*
X13597350Y-9563674D01*
X13619331Y-9569564D01*
X13634443Y-9570886D01*
X13642000Y-9571547D01*
X13642000Y-9571547D01*
X13642000Y-9571547D01*
X13655164Y-9570395D01*
X13665188Y-9569518D01*
X13672038Y-9570895D01*
X13675037Y-9573103D01*
X13892756Y-9790822D01*
X13893268Y-9791365D01*
X13897257Y-9795868D01*
X13902208Y-9799286D01*
X13902810Y-9799729D01*
X13907544Y-9803438D01*
X13907544Y-9803438D01*
X13907544Y-9803438D01*
X13908468Y-9803854D01*
X13910423Y-9804956D01*
X13911257Y-9805532D01*
X13916882Y-9807665D01*
X13917572Y-9807951D01*
X13923057Y-9810420D01*
X13924053Y-9810602D01*
X13926215Y-9811205D01*
X13927163Y-9811564D01*
X13933134Y-9812289D01*
X13933868Y-9812401D01*
X13939789Y-9813486D01*
X13945460Y-9813143D01*
X13945793Y-9813123D01*
X13946542Y-9813100D01*
X14523913Y-9813100D01*
X14530617Y-9815069D01*
X14535192Y-9820349D01*
X14536186Y-9827265D01*
X14535890Y-9828709D01*
X14535344Y-9830747D01*
X14531436Y-9845331D01*
X14529453Y-9868000D01*
X14531436Y-9890669D01*
X14537326Y-9912650D01*
X14539499Y-9917310D01*
X14540548Y-9924217D01*
X14537696Y-9930596D01*
X14531848Y-9934420D01*
X14528261Y-9934950D01*
X14035700Y-9934950D01*
X14034951Y-9934927D01*
X14028947Y-9934564D01*
X14023030Y-9935648D01*
X14022290Y-9935761D01*
X14016320Y-9936486D01*
X14015372Y-9936845D01*
X14013212Y-9937448D01*
X14012215Y-9937630D01*
X14006730Y-9940099D01*
X14006038Y-9940385D01*
X14000415Y-9942518D01*
X13999580Y-9943094D01*
X13997626Y-9944196D01*
X13996702Y-9944612D01*
X13991967Y-9948321D01*
X13991364Y-9948765D01*
X13986415Y-9952182D01*
X13982426Y-9956684D01*
X13981913Y-9957229D01*
X13933914Y-10005227D01*
X13927782Y-10008576D01*
X13924066Y-10008812D01*
X13900877Y-10006783D01*
X13878208Y-10008767D01*
X13856228Y-10014656D01*
X13835604Y-10024274D01*
X13816963Y-10037326D01*
X13800873Y-10053416D01*
X13787821Y-10072057D01*
X13778203Y-10092681D01*
X13772314Y-10114661D01*
X13770330Y-10137330D01*
X13772314Y-10159999D01*
X13778203Y-10181980D01*
X13787821Y-10202604D01*
X13800873Y-10221244D01*
X13816963Y-10237335D01*
X13835604Y-10250387D01*
X13835604Y-10250387D01*
X13835604Y-10250387D01*
X13856228Y-10260004D01*
X13878208Y-10265894D01*
X13893321Y-10267216D01*
X13900877Y-10267877D01*
X13900877Y-10267877D01*
X13900877Y-10267877D01*
X13923547Y-10265894D01*
X13945527Y-10260004D01*
X13966151Y-10250387D01*
X13984791Y-10237335D01*
X14000882Y-10221244D01*
X14013934Y-10202604D01*
X14023551Y-10181980D01*
X14029441Y-10160000D01*
X14031424Y-10137330D01*
X14031200Y-10134771D01*
X14029395Y-10114142D01*
X14030772Y-10107292D01*
X14032980Y-10104294D01*
X14058592Y-10078682D01*
X14064724Y-10075333D01*
X14067360Y-10075050D01*
X14233948Y-10075050D01*
X14240652Y-10077019D01*
X14245227Y-10082299D01*
X14246222Y-10089215D01*
X14243319Y-10095570D01*
X14242716Y-10096218D01*
X14057037Y-10281897D01*
X14050905Y-10285246D01*
X14047188Y-10285482D01*
X14024000Y-10283453D01*
X14001331Y-10285436D01*
X13979350Y-10291326D01*
X13958726Y-10300943D01*
X13940086Y-10313995D01*
X13923995Y-10330086D01*
X13910943Y-10348726D01*
X13901326Y-10369350D01*
X13895436Y-10391331D01*
X13894694Y-10399820D01*
X13892148Y-10406327D01*
X13886489Y-10410425D01*
X13879513Y-10410812D01*
X13873573Y-10407507D01*
X13871103Y-10405037D01*
X13867754Y-10398905D01*
X13867518Y-10395188D01*
X13869547Y-10372000D01*
X13867563Y-10349331D01*
X13867563Y-10349331D01*
X13861674Y-10327350D01*
X13852057Y-10306727D01*
X13839005Y-10288086D01*
X13839005Y-10288086D01*
X13822914Y-10271995D01*
X13804273Y-10258943D01*
X13783650Y-10249326D01*
X13761669Y-10243436D01*
X13739000Y-10241453D01*
X13716331Y-10243436D01*
X13694350Y-10249326D01*
X13673726Y-10258943D01*
X13655086Y-10271995D01*
X13638995Y-10288086D01*
X13625943Y-10306726D01*
X13616326Y-10327350D01*
X13610436Y-10349331D01*
X13608453Y-10372000D01*
X13610436Y-10394669D01*
X13613849Y-10407404D01*
X13613682Y-10414389D01*
X13609766Y-10420175D01*
X13607112Y-10421852D01*
X13596285Y-10426900D01*
X13577645Y-10439952D01*
X13561554Y-10456043D01*
X13548502Y-10474683D01*
X13538885Y-10495307D01*
X13532995Y-10517288D01*
X13531012Y-10539957D01*
X13532995Y-10562626D01*
X13538885Y-10584607D01*
X13548502Y-10605230D01*
X13561554Y-10623871D01*
X13577645Y-10639962D01*
X13596285Y-10653014D01*
X13596286Y-10653014D01*
X13596286Y-10653014D01*
X13616909Y-10662631D01*
X13638890Y-10668520D01*
X13654003Y-10669843D01*
X13661559Y-10670504D01*
X13661559Y-10670504D01*
X13661559Y-10670504D01*
X13674723Y-10669352D01*
X13684747Y-10668475D01*
X13691597Y-10669852D01*
X13694596Y-10672060D01*
X13986307Y-10963771D01*
X13986819Y-10964315D01*
X13990809Y-10968818D01*
X13995760Y-10972235D01*
X13996362Y-10972679D01*
X14001097Y-10976388D01*
X14002020Y-10976804D01*
X14003974Y-10977905D01*
X14004809Y-10978482D01*
X14010435Y-10980615D01*
X14011124Y-10980901D01*
X14016609Y-10983370D01*
X14017607Y-10983552D01*
X14019768Y-10984155D01*
X14020715Y-10984514D01*
X14026686Y-10985239D01*
X14027421Y-10985351D01*
X14033342Y-10986436D01*
X14039012Y-10986093D01*
X14039346Y-10986073D01*
X14040094Y-10986050D01*
X16682848Y-10986050D01*
X16689552Y-10988019D01*
X16691616Y-10989682D01*
X16722897Y-11020963D01*
X16726246Y-11027095D01*
X16726482Y-11030812D01*
X16724453Y-11054000D01*
X16726436Y-11076669D01*
X16732326Y-11098650D01*
X16741943Y-11119274D01*
X16754995Y-11137914D01*
X16771086Y-11154005D01*
X16789726Y-11167057D01*
X16789727Y-11167057D01*
X16789727Y-11167057D01*
X16810350Y-11176674D01*
X16832331Y-11182564D01*
X16847444Y-11183886D01*
X16855000Y-11184547D01*
X16855000Y-11184547D01*
X16855000Y-11184547D01*
X16877669Y-11182564D01*
X16899650Y-11176674D01*
X16920273Y-11167057D01*
X16938914Y-11154005D01*
X16955005Y-11137914D01*
X16968057Y-11119273D01*
X16977674Y-11098650D01*
X16983564Y-11076669D01*
X16985547Y-11054000D01*
X16983564Y-11031331D01*
X16977674Y-11009350D01*
X16968057Y-10988727D01*
X16966183Y-10986050D01*
X16955005Y-10970086D01*
X16938914Y-10953995D01*
X16920274Y-10940943D01*
X16899650Y-10931326D01*
X16877669Y-10925436D01*
X16855000Y-10923453D01*
X16836288Y-10925090D01*
X16829438Y-10923714D01*
X16824420Y-10918852D01*
X16822827Y-10912049D01*
X16825164Y-10905465D01*
X16828095Y-10902580D01*
X16838914Y-10895005D01*
X16855005Y-10878914D01*
X16868057Y-10860274D01*
X16868057Y-10860273D01*
X16877674Y-10839650D01*
X16883564Y-10817669D01*
X16885547Y-10795000D01*
X16883564Y-10772331D01*
X16877674Y-10750350D01*
X16868057Y-10729727D01*
X16857763Y-10715025D01*
X16855005Y-10711086D01*
X16838914Y-10694995D01*
X16820274Y-10681943D01*
X16799650Y-10672326D01*
X16777669Y-10666436D01*
X16755000Y-10664453D01*
X16732331Y-10666436D01*
X16710350Y-10672326D01*
X16689726Y-10681943D01*
X16671086Y-10694995D01*
X16654228Y-10711853D01*
X16654039Y-10711664D01*
X16649835Y-10715025D01*
X16645134Y-10715950D01*
X14187152Y-10715950D01*
X14180448Y-10713982D01*
X14178384Y-10712318D01*
X14030493Y-10564427D01*
X14027144Y-10558295D01*
X14027643Y-10551326D01*
X14031830Y-10545732D01*
X14038180Y-10543306D01*
X14040161Y-10543133D01*
X14046669Y-10542564D01*
X14068650Y-10536674D01*
X14089273Y-10527057D01*
X14107914Y-10514005D01*
X14124005Y-10497914D01*
X14137057Y-10479273D01*
X14146674Y-10458650D01*
X14152563Y-10436669D01*
X14154547Y-10414000D01*
X14154234Y-10410425D01*
X14152518Y-10390812D01*
X14153895Y-10383962D01*
X14156102Y-10380963D01*
X14376384Y-10160682D01*
X14382516Y-10157333D01*
X14385152Y-10157050D01*
X17316508Y-10157050D01*
X17317257Y-10157073D01*
X17317571Y-10157092D01*
X17323261Y-10157436D01*
X17329178Y-10156351D01*
X17329918Y-10156239D01*
X17335887Y-10155514D01*
X17336834Y-10155155D01*
X17338996Y-10154552D01*
X17339993Y-10154370D01*
X17345481Y-10151900D01*
X17346167Y-10151615D01*
X17351793Y-10149482D01*
X17352627Y-10148906D01*
X17354582Y-10147804D01*
X17355506Y-10147388D01*
X17360241Y-10143678D01*
X17360842Y-10143236D01*
X17365793Y-10139818D01*
X17369782Y-10135315D01*
X17370292Y-10134773D01*
X17665384Y-9839682D01*
X17671516Y-9836333D01*
X17674152Y-9836050D01*
X19646099Y-9836050D01*
X19652803Y-9838019D01*
X19657379Y-9843299D01*
X19658373Y-9850215D01*
X19655471Y-9856570D01*
X19654800Y-9857175D01*
X19654853Y-9857228D01*
X19637995Y-9874086D01*
X19624943Y-9892726D01*
X19615326Y-9913350D01*
X19609436Y-9935331D01*
X19607453Y-9958000D01*
X19609436Y-9980669D01*
X19615326Y-10002650D01*
X19624943Y-10023274D01*
X19637995Y-10041914D01*
X19654086Y-10058005D01*
X19672726Y-10071057D01*
X19672727Y-10071057D01*
X19672727Y-10071057D01*
X19693350Y-10080674D01*
X19715331Y-10086564D01*
X19730444Y-10087886D01*
X19738000Y-10088547D01*
X19738000Y-10088547D01*
X19738000Y-10088547D01*
X19760669Y-10086564D01*
X19782650Y-10080674D01*
X19803273Y-10071057D01*
X19821914Y-10058005D01*
X19838005Y-10041914D01*
X19851057Y-10023273D01*
X19860674Y-10002650D01*
X19866564Y-9980669D01*
X19868547Y-9958000D01*
X19868145Y-9953408D01*
X19869522Y-9946558D01*
X19874383Y-9941540D01*
X19879238Y-9939992D01*
X19888775Y-9939017D01*
X19905152Y-9933591D01*
X19919835Y-9924534D01*
X19932034Y-9912335D01*
X19941091Y-9897652D01*
X19946517Y-9881275D01*
X19947550Y-9871168D01*
X19947550Y-9811332D01*
X19946517Y-9801225D01*
X19941091Y-9784848D01*
X19932034Y-9770165D01*
X19932034Y-9770165D01*
X19932034Y-9770165D01*
X19920637Y-9758768D01*
X19917289Y-9752636D01*
X19917787Y-9745667D01*
X19920637Y-9741232D01*
X19932034Y-9729835D01*
X19932034Y-9729835D01*
X19941091Y-9715152D01*
X19946517Y-9698775D01*
X19947550Y-9688668D01*
X19947550Y-9628832D01*
X19946517Y-9618725D01*
X19941091Y-9602348D01*
X19932034Y-9587665D01*
X19932034Y-9587665D01*
X19932034Y-9587665D01*
X19919835Y-9575466D01*
X19907926Y-9568120D01*
X19905152Y-9566409D01*
X19905152Y-9566409D01*
X19903918Y-9565648D01*
X19904098Y-9565356D01*
X19900304Y-9562728D01*
X19897623Y-9556276D01*
X19897550Y-9554936D01*
X19897550Y-9402400D01*
X19899519Y-9395696D01*
X19904799Y-9391121D01*
X19909950Y-9390000D01*
X19916952Y-9390000D01*
X19917613Y-9389965D01*
X19923237Y-9389360D01*
X19936709Y-9384335D01*
X19948219Y-9375719D01*
X19956835Y-9364209D01*
X19961860Y-9350737D01*
X19962465Y-9345113D01*
X19962500Y-9344452D01*
X19962500Y-9310000D01*
X19909950Y-9310000D01*
X19903246Y-9308032D01*
X19898671Y-9302751D01*
X19897550Y-9297600D01*
X19897550Y-9284536D01*
X19897550Y-9284534D01*
X19897550Y-9282400D01*
X19899518Y-9275696D01*
X19904799Y-9271121D01*
X19909950Y-9270000D01*
X19962500Y-9270000D01*
X19962500Y-9235548D01*
X19962465Y-9234887D01*
X19961860Y-9229263D01*
X19956835Y-9215791D01*
X19948219Y-9204281D01*
X19936709Y-9195665D01*
X19923237Y-9190640D01*
X19920406Y-9190336D01*
X21338534Y-9190336D01*
X21340434Y-9225396D01*
X21340507Y-9226063D01*
X21346187Y-9260713D01*
X21346332Y-9261368D01*
X21355725Y-9295200D01*
X21355940Y-9295837D01*
X21368936Y-9328455D01*
X21369217Y-9329063D01*
X21385665Y-9360087D01*
X21386010Y-9360661D01*
X21405715Y-9389723D01*
X21406121Y-9390257D01*
X21418644Y-9405000D01*
X21418644Y-9405000D01*
X21539227Y-9284418D01*
X21555513Y-9303487D01*
X21574582Y-9319773D01*
X21453726Y-9440630D01*
X21454805Y-9441652D01*
X21455316Y-9442086D01*
X21483269Y-9463336D01*
X21483824Y-9463712D01*
X21513910Y-9481814D01*
X21514504Y-9482129D01*
X21546370Y-9496871D01*
X21546994Y-9497120D01*
X21580268Y-9508332D01*
X21580913Y-9508510D01*
X21615205Y-9516059D01*
X21615868Y-9516167D01*
X21650774Y-9519964D01*
X21651444Y-9520000D01*
X21686556Y-9520000D01*
X21687226Y-9519964D01*
X21722132Y-9516167D01*
X21722795Y-9516059D01*
X21757087Y-9508510D01*
X21757732Y-9508332D01*
X21791006Y-9497120D01*
X21791630Y-9496871D01*
X21823496Y-9482129D01*
X21824090Y-9481814D01*
X21854176Y-9463712D01*
X21854731Y-9463336D01*
X21882685Y-9442086D01*
X21883195Y-9441652D01*
X21884274Y-9440630D01*
X21884274Y-9440630D01*
X21763418Y-9319773D01*
X21782487Y-9303487D01*
X21798773Y-9284418D01*
X21919356Y-9405000D01*
X21919356Y-9405000D01*
X21931879Y-9390257D01*
X21932285Y-9389723D01*
X21951990Y-9360661D01*
X21952335Y-9360087D01*
X21968783Y-9329063D01*
X21969064Y-9328455D01*
X21982060Y-9295837D01*
X21982275Y-9295200D01*
X21991668Y-9261368D01*
X21991813Y-9260713D01*
X21997493Y-9226063D01*
X21997566Y-9225396D01*
X21999467Y-9190336D01*
X21999467Y-9189664D01*
X21997566Y-9154604D01*
X21997493Y-9153937D01*
X21991813Y-9119287D01*
X21991668Y-9118632D01*
X21982275Y-9084800D01*
X21982060Y-9084163D01*
X21969064Y-9051545D01*
X21968783Y-9050937D01*
X21952335Y-9019913D01*
X21951990Y-9019339D01*
X21932285Y-8990277D01*
X21931879Y-8989743D01*
X21919356Y-8975000D01*
X21919356Y-8974999D01*
X21798773Y-9095582D01*
X21782487Y-9076513D01*
X21763418Y-9060227D01*
X21884274Y-8939370D01*
X21883194Y-8938347D01*
X21882684Y-8937914D01*
X21854731Y-8916664D01*
X21854176Y-8916288D01*
X21824090Y-8898186D01*
X21823496Y-8897871D01*
X21791630Y-8883129D01*
X21791006Y-8882880D01*
X21757732Y-8871668D01*
X21757087Y-8871490D01*
X21722795Y-8863941D01*
X21722132Y-8863833D01*
X21687226Y-8860036D01*
X21686556Y-8860000D01*
X21651444Y-8860000D01*
X21650774Y-8860036D01*
X21615868Y-8863833D01*
X21615205Y-8863941D01*
X21580913Y-8871490D01*
X21580268Y-8871668D01*
X21546994Y-8882880D01*
X21546370Y-8883129D01*
X21514504Y-8897871D01*
X21513910Y-8898186D01*
X21483824Y-8916288D01*
X21483269Y-8916664D01*
X21455315Y-8937915D01*
X21454805Y-8938347D01*
X21453726Y-8939370D01*
X21453726Y-8939370D01*
X21574582Y-9060227D01*
X21555513Y-9076513D01*
X21539227Y-9095582D01*
X21418644Y-8974999D01*
X21418644Y-8975000D01*
X21406121Y-8989743D01*
X21405715Y-8990277D01*
X21386010Y-9019339D01*
X21385665Y-9019913D01*
X21369217Y-9050937D01*
X21368936Y-9051545D01*
X21355940Y-9084163D01*
X21355725Y-9084800D01*
X21346332Y-9118632D01*
X21346187Y-9119287D01*
X21340507Y-9153937D01*
X21340434Y-9154604D01*
X21338534Y-9189664D01*
X21338534Y-9190336D01*
X19920406Y-9190336D01*
X19917613Y-9190035D01*
X19916952Y-9190000D01*
X19912500Y-9190000D01*
X19912500Y-9206057D01*
X19910532Y-9212760D01*
X19905251Y-9217336D01*
X19898335Y-9218330D01*
X19891980Y-9215428D01*
X19890173Y-9213488D01*
X19886080Y-9208020D01*
X19883255Y-9204245D01*
X19877469Y-9199914D01*
X19873282Y-9194321D01*
X19872503Y-9190003D01*
X19872500Y-9190000D01*
X19868048Y-9190000D01*
X19867388Y-9190035D01*
X19861560Y-9190662D01*
X19858909Y-9190662D01*
X19852617Y-9189985D01*
X19852616Y-9189985D01*
X19852287Y-9189950D01*
X19851955Y-9189950D01*
X19803044Y-9189950D01*
X19803042Y-9189950D01*
X19802713Y-9189950D01*
X19802385Y-9189985D01*
X19802384Y-9189985D01*
X19796325Y-9190637D01*
X19793675Y-9190637D01*
X19787617Y-9189985D01*
X19787616Y-9189985D01*
X19787287Y-9189950D01*
X19786955Y-9189950D01*
X19738044Y-9189950D01*
X19738042Y-9189950D01*
X19737713Y-9189950D01*
X19737385Y-9189985D01*
X19737384Y-9189985D01*
X19731325Y-9190637D01*
X19728675Y-9190637D01*
X19722617Y-9189985D01*
X19722616Y-9189985D01*
X19722287Y-9189950D01*
X19721955Y-9189950D01*
X19673044Y-9189950D01*
X19673042Y-9189950D01*
X19672713Y-9189950D01*
X19672385Y-9189985D01*
X19672384Y-9189985D01*
X19666325Y-9190637D01*
X19663675Y-9190637D01*
X19657617Y-9189985D01*
X19657616Y-9189985D01*
X19657287Y-9189950D01*
X19656955Y-9189950D01*
X19608044Y-9189950D01*
X19608042Y-9189950D01*
X19607713Y-9189950D01*
X19607385Y-9189985D01*
X19607384Y-9189985D01*
X19601325Y-9190637D01*
X19598675Y-9190637D01*
X19592617Y-9189985D01*
X19592616Y-9189985D01*
X19592287Y-9189950D01*
X19591955Y-9189950D01*
X19543044Y-9189950D01*
X19543042Y-9189950D01*
X19542713Y-9189950D01*
X19542385Y-9189985D01*
X19542384Y-9189985D01*
X19536091Y-9190662D01*
X19533440Y-9190662D01*
X19527612Y-9190035D01*
X19526952Y-9190000D01*
X19522500Y-9190000D01*
X19522495Y-9190005D01*
X19520532Y-9196691D01*
X19517531Y-9199914D01*
X19510318Y-9205314D01*
X19510126Y-9205057D01*
X19506831Y-9207523D01*
X19499861Y-9208020D01*
X19494747Y-9205226D01*
X19494682Y-9205314D01*
X19494072Y-9204857D01*
X19493730Y-9204670D01*
X19493559Y-9204474D01*
X19490972Y-9202537D01*
X19487469Y-9199914D01*
X19483282Y-9194321D01*
X19482503Y-9190003D01*
X19482500Y-9190000D01*
X19478048Y-9190000D01*
X19477388Y-9190035D01*
X19471560Y-9190662D01*
X19468909Y-9190662D01*
X19462617Y-9189985D01*
X19462616Y-9189985D01*
X19462287Y-9189950D01*
X19461955Y-9189950D01*
X19447760Y-9189950D01*
X19441056Y-9187982D01*
X19436480Y-9182701D01*
X19435486Y-9175785D01*
X19438388Y-9169430D01*
X19440647Y-9167393D01*
X19446914Y-9163005D01*
X19463005Y-9146914D01*
X19476057Y-9128273D01*
X19485674Y-9107650D01*
X19491564Y-9085669D01*
X19493547Y-9063000D01*
X19493071Y-9057564D01*
X19492884Y-9055419D01*
X19494260Y-9048569D01*
X19499122Y-9043551D01*
X19505925Y-9041957D01*
X19512509Y-9044295D01*
X19514005Y-9045570D01*
X19549206Y-9080772D01*
X19549718Y-9081315D01*
X19553707Y-9085818D01*
X19558658Y-9089236D01*
X19559260Y-9089679D01*
X19563994Y-9093388D01*
X19563994Y-9093388D01*
X19563994Y-9093388D01*
X19564918Y-9093804D01*
X19566873Y-9094906D01*
X19567707Y-9095482D01*
X19573331Y-9097615D01*
X19574022Y-9097901D01*
X19579507Y-9100370D01*
X19580504Y-9100552D01*
X19582666Y-9101155D01*
X19583613Y-9101514D01*
X19589584Y-9102239D01*
X19590319Y-9102351D01*
X19596239Y-9103436D01*
X19601910Y-9103093D01*
X19602243Y-9103073D01*
X19602992Y-9103050D01*
X19948833Y-9103050D01*
X19955537Y-9105019D01*
X19958990Y-9108338D01*
X19964995Y-9116914D01*
X19981086Y-9133005D01*
X19999726Y-9146057D01*
X19999727Y-9146057D01*
X19999727Y-9146057D01*
X20020350Y-9155674D01*
X20042331Y-9161564D01*
X20065000Y-9163547D01*
X20087669Y-9161564D01*
X20109650Y-9155674D01*
X20130273Y-9146057D01*
X20148914Y-9133005D01*
X20165005Y-9116914D01*
X20178057Y-9098273D01*
X20187674Y-9077650D01*
X20193564Y-9055669D01*
X20195547Y-9033000D01*
X20195197Y-9029005D01*
X20194069Y-9016110D01*
X20193564Y-9010331D01*
X20187674Y-8988350D01*
X20178057Y-8967727D01*
X20177608Y-8967086D01*
X20165005Y-8949086D01*
X20148914Y-8932995D01*
X20130274Y-8919943D01*
X20109650Y-8910326D01*
X20087669Y-8904436D01*
X20065000Y-8902453D01*
X20042331Y-8904436D01*
X20020350Y-8910326D01*
X19999726Y-8919943D01*
X19981086Y-8932995D01*
X19964995Y-8949086D01*
X19958990Y-8957662D01*
X19953533Y-8962025D01*
X19948833Y-8962950D01*
X19634652Y-8962950D01*
X19627948Y-8960982D01*
X19625884Y-8959318D01*
X19497784Y-8831218D01*
X19494435Y-8825086D01*
X19494934Y-8818117D01*
X19499121Y-8812523D01*
X19505667Y-8810082D01*
X19506551Y-8810050D01*
X19527287Y-8810050D01*
X19533248Y-8809409D01*
X19533249Y-8809409D01*
X19533909Y-8809338D01*
X19536560Y-8809338D01*
X19542387Y-8809965D01*
X19543048Y-8810000D01*
X19547500Y-8810000D01*
X19547505Y-8809995D01*
X19549468Y-8803309D01*
X19552468Y-8800086D01*
X19558255Y-8795755D01*
X19558255Y-8795755D01*
X19559682Y-8794686D01*
X19559874Y-8794942D01*
X19563167Y-8792478D01*
X19570136Y-8791979D01*
X19575253Y-8794773D01*
X19575318Y-8794686D01*
X19575924Y-8795140D01*
X19576268Y-8795328D01*
X19576440Y-8795526D01*
X19576745Y-8795755D01*
X19582531Y-8800086D01*
X19586718Y-8805679D01*
X19587497Y-8809997D01*
X19587500Y-8810000D01*
X19591952Y-8810000D01*
X19592613Y-8809965D01*
X19598440Y-8809338D01*
X19601091Y-8809338D01*
X19601751Y-8809409D01*
X19601752Y-8809409D01*
X19607713Y-8810050D01*
X19657287Y-8810050D01*
X19663248Y-8809409D01*
X19663248Y-8809409D01*
X19663675Y-8809363D01*
X19666326Y-8809363D01*
X19666752Y-8809409D01*
X19666752Y-8809409D01*
X19672713Y-8810050D01*
X19722287Y-8810050D01*
X19728248Y-8809409D01*
X19728248Y-8809409D01*
X19728675Y-8809363D01*
X19731326Y-8809363D01*
X19731752Y-8809409D01*
X19731752Y-8809409D01*
X19737713Y-8810050D01*
X19787287Y-8810050D01*
X19793248Y-8809409D01*
X19793248Y-8809409D01*
X19793675Y-8809363D01*
X19796326Y-8809363D01*
X19796752Y-8809409D01*
X19796752Y-8809409D01*
X19802713Y-8810050D01*
X19852287Y-8810050D01*
X19858248Y-8809409D01*
X19858248Y-8809409D01*
X19858675Y-8809363D01*
X19861326Y-8809363D01*
X19861752Y-8809409D01*
X19861752Y-8809409D01*
X19867713Y-8810050D01*
X19917287Y-8810050D01*
X19923248Y-8809409D01*
X19936733Y-8804380D01*
X19948255Y-8795755D01*
X19956880Y-8784233D01*
X19961909Y-8770748D01*
X19962550Y-8764787D01*
X19962550Y-8655213D01*
X19961909Y-8649252D01*
X19956880Y-8635767D01*
X19948255Y-8624245D01*
X19936733Y-8615620D01*
X19923248Y-8610591D01*
X19917287Y-8609950D01*
X19916955Y-8609950D01*
X19909950Y-8609950D01*
X19903246Y-8607982D01*
X19898671Y-8602701D01*
X19897550Y-8597550D01*
X19897550Y-8534992D01*
X19897573Y-8534243D01*
X19897668Y-8532674D01*
X19897936Y-8528239D01*
X19896851Y-8522319D01*
X19896739Y-8521584D01*
X19896014Y-8515613D01*
X19895655Y-8514666D01*
X19895052Y-8512504D01*
X19894870Y-8511507D01*
X19892401Y-8506022D01*
X19892115Y-8505333D01*
X19889982Y-8499707D01*
X19889982Y-8499707D01*
X19889982Y-8499707D01*
X19889406Y-8498873D01*
X19888303Y-8496918D01*
X19887888Y-8495994D01*
X19884178Y-8491259D01*
X19883735Y-8490657D01*
X19880318Y-8485707D01*
X19879805Y-8485252D01*
X19875815Y-8481718D01*
X19875272Y-8481206D01*
X19792103Y-8398037D01*
X19788754Y-8391905D01*
X19788518Y-8388188D01*
X19790547Y-8365000D01*
X19788689Y-8343761D01*
X19788564Y-8342331D01*
X19782674Y-8320350D01*
X19773057Y-8299727D01*
X19767543Y-8291852D01*
X19760005Y-8281086D01*
X19743914Y-8264995D01*
X19725274Y-8251943D01*
X19704650Y-8242326D01*
X19682669Y-8236436D01*
X19660000Y-8234453D01*
X19637331Y-8236436D01*
X19615350Y-8242326D01*
X19594726Y-8251943D01*
X19576086Y-8264995D01*
X19559995Y-8281086D01*
X19546943Y-8299727D01*
X19542089Y-8310136D01*
X19537472Y-8315380D01*
X19530752Y-8317295D01*
X19524064Y-8315273D01*
X19522083Y-8313664D01*
X19049338Y-7840919D01*
X19045989Y-7834787D01*
X19045753Y-7831070D01*
X19046547Y-7822000D01*
X19046237Y-7818454D01*
X19044564Y-7799331D01*
X19044564Y-7799331D01*
X19038674Y-7777350D01*
X19029057Y-7756727D01*
X19016005Y-7738086D01*
X19016005Y-7738086D01*
X18999914Y-7721995D01*
X18981274Y-7708943D01*
X18960650Y-7699326D01*
X18938669Y-7693436D01*
X18916000Y-7691453D01*
X18893331Y-7693436D01*
X18871350Y-7699326D01*
X18850726Y-7708943D01*
X18832086Y-7721995D01*
X18815995Y-7738086D01*
X18802943Y-7756726D01*
X18793326Y-7777350D01*
X18787436Y-7799331D01*
X18785453Y-7822000D01*
X18787436Y-7844669D01*
X18793326Y-7866650D01*
X18802943Y-7887273D01*
X18815995Y-7905914D01*
X18832086Y-7922005D01*
X18850726Y-7935057D01*
X18850727Y-7935057D01*
X18850727Y-7935057D01*
X18871350Y-7944674D01*
X18893331Y-7950563D01*
X18916000Y-7952547D01*
X18938669Y-7950563D01*
X18949248Y-7947729D01*
X18956233Y-7947895D01*
X18961226Y-7950938D01*
X19421070Y-8410782D01*
X19424418Y-8416914D01*
X19423920Y-8423883D01*
X19419732Y-8429477D01*
X19413186Y-8431918D01*
X19412301Y-8431950D01*
X17912491Y-8431950D01*
X17911742Y-8431927D01*
X17905739Y-8431564D01*
X17899824Y-8432648D01*
X17899084Y-8432761D01*
X17893112Y-8433486D01*
X17892164Y-8433846D01*
X17890004Y-8434448D01*
X17889007Y-8434631D01*
X17883523Y-8437098D01*
X17882832Y-8437385D01*
X17877207Y-8439518D01*
X17876373Y-8440094D01*
X17874418Y-8441196D01*
X17873495Y-8441612D01*
X17868760Y-8445321D01*
X17868157Y-8445765D01*
X17863207Y-8449182D01*
X17859218Y-8453685D01*
X17858704Y-8454230D01*
X16767616Y-9545318D01*
X16761484Y-9548667D01*
X16758848Y-9548950D01*
X16685167Y-9548950D01*
X16678463Y-9546982D01*
X16675010Y-9543662D01*
X16669005Y-9535086D01*
X16652914Y-9518995D01*
X16634273Y-9505943D01*
X16613650Y-9496326D01*
X16591669Y-9490436D01*
X16569000Y-9488453D01*
X16546331Y-9490436D01*
X16524350Y-9496326D01*
X16503726Y-9505943D01*
X16485086Y-9518995D01*
X16468995Y-9535086D01*
X16455943Y-9553726D01*
X16446326Y-9574350D01*
X16440436Y-9596331D01*
X16438453Y-9619000D01*
X16440436Y-9641669D01*
X16446326Y-9663650D01*
X16455943Y-9684274D01*
X16468995Y-9702914D01*
X16485086Y-9719005D01*
X16503726Y-9732057D01*
X16503726Y-9732057D01*
X16503727Y-9732057D01*
X16524350Y-9741674D01*
X16546331Y-9747564D01*
X16561443Y-9748886D01*
X16569000Y-9749547D01*
X16569000Y-9749547D01*
X16569000Y-9749547D01*
X16591669Y-9747564D01*
X16613650Y-9741674D01*
X16634273Y-9732057D01*
X16652914Y-9719005D01*
X16669005Y-9702914D01*
X16671359Y-9699551D01*
X16675010Y-9694338D01*
X16680467Y-9689975D01*
X16685167Y-9689050D01*
X16790508Y-9689050D01*
X16791257Y-9689073D01*
X16791571Y-9689092D01*
X16797261Y-9689436D01*
X16803178Y-9688351D01*
X16803918Y-9688239D01*
X16809887Y-9687514D01*
X16810834Y-9687155D01*
X16812996Y-9686552D01*
X16813993Y-9686370D01*
X16819481Y-9683900D01*
X16820167Y-9683615D01*
X16825793Y-9681482D01*
X16826627Y-9680906D01*
X16828582Y-9679804D01*
X16829506Y-9679388D01*
X16834241Y-9675678D01*
X16834842Y-9675236D01*
X16839793Y-9671818D01*
X16843782Y-9667315D01*
X16844292Y-9666773D01*
X17935384Y-8575682D01*
X17941516Y-8572333D01*
X17944152Y-8572050D01*
X18468462Y-8572050D01*
X18475166Y-8574019D01*
X18479741Y-8579299D01*
X18480736Y-8586215D01*
X18480440Y-8587659D01*
X18475436Y-8606331D01*
X18473453Y-8629000D01*
X18475436Y-8651669D01*
X18481326Y-8673650D01*
X18490943Y-8694274D01*
X18503995Y-8712914D01*
X18520086Y-8729005D01*
X18538726Y-8742057D01*
X18538727Y-8742057D01*
X18538727Y-8742057D01*
X18559350Y-8751674D01*
X18581331Y-8757564D01*
X18591581Y-8758460D01*
X18604000Y-8759547D01*
X18604000Y-8759547D01*
X18604000Y-8759547D01*
X18626669Y-8757564D01*
X18648650Y-8751674D01*
X18669273Y-8742057D01*
X18687914Y-8729005D01*
X18704005Y-8712914D01*
X18717002Y-8694352D01*
X18720114Y-8691260D01*
X18720627Y-8690906D01*
X18722582Y-8689803D01*
X18722791Y-8689709D01*
X18723506Y-8689388D01*
X18728241Y-8685678D01*
X18728842Y-8685236D01*
X18733793Y-8681818D01*
X18737782Y-8677315D01*
X18738292Y-8676773D01*
X18774384Y-8640682D01*
X18780516Y-8637333D01*
X18783152Y-8637050D01*
X19034491Y-8637050D01*
X19041194Y-8639019D01*
X19045770Y-8644299D01*
X19046764Y-8651215D01*
X19043862Y-8657570D01*
X19043772Y-8657673D01*
X19040219Y-8661683D01*
X19039706Y-8662228D01*
X19027463Y-8674471D01*
X18781229Y-8920705D01*
X18780684Y-8921218D01*
X18776182Y-8925207D01*
X18772765Y-8930157D01*
X18772321Y-8930760D01*
X18768612Y-8935494D01*
X18768196Y-8936419D01*
X18767094Y-8938373D01*
X18766518Y-8939207D01*
X18764385Y-8944831D01*
X18764099Y-8945522D01*
X18761630Y-8951007D01*
X18761448Y-8952005D01*
X18760845Y-8954165D01*
X18760486Y-8955113D01*
X18759761Y-8961081D01*
X18759649Y-8961822D01*
X18758564Y-8967739D01*
X18758927Y-8973743D01*
X18758950Y-8974492D01*
X18758950Y-9307833D01*
X18756982Y-9314537D01*
X18753662Y-9317990D01*
X18745086Y-9323995D01*
X18728995Y-9340086D01*
X18715943Y-9358726D01*
X18706326Y-9379350D01*
X18700436Y-9401331D01*
X18698453Y-9424000D01*
X18700436Y-9446669D01*
X18706326Y-9468650D01*
X18709432Y-9475310D01*
X18710481Y-9482217D01*
X18707629Y-9488596D01*
X18701781Y-9492420D01*
X18698194Y-9492950D01*
X17590167Y-9492950D01*
X17583463Y-9490982D01*
X17580010Y-9487662D01*
X17574005Y-9479086D01*
X17557914Y-9462995D01*
X17539274Y-9449943D01*
X17518650Y-9440326D01*
X17496669Y-9434436D01*
X17474000Y-9432453D01*
X17451331Y-9434436D01*
X17429350Y-9440326D01*
X17408726Y-9449943D01*
X17390086Y-9462995D01*
X17373995Y-9479086D01*
X17360943Y-9497726D01*
X17351326Y-9518350D01*
X17345436Y-9540331D01*
X17343453Y-9563000D01*
X17345482Y-9586188D01*
X17344105Y-9593038D01*
X17341897Y-9596037D01*
X17086616Y-9851318D01*
X17080484Y-9854667D01*
X17077848Y-9854950D01*
X14800656Y-9854950D01*
X14793952Y-9852982D01*
X14789376Y-9847701D01*
X14788678Y-9845759D01*
X14784656Y-9830747D01*
X14784110Y-9828709D01*
X14784276Y-9821724D01*
X14788192Y-9815938D01*
X14794615Y-9813188D01*
X14796087Y-9813100D01*
X15478458Y-9813100D01*
X15479207Y-9813123D01*
X15479521Y-9813142D01*
X15485211Y-9813486D01*
X15491128Y-9812401D01*
X15491868Y-9812289D01*
X15497837Y-9811564D01*
X15498783Y-9811205D01*
X15500946Y-9810602D01*
X15501943Y-9810420D01*
X15507431Y-9807950D01*
X15508117Y-9807665D01*
X15513743Y-9805532D01*
X15514577Y-9804956D01*
X15516532Y-9803854D01*
X15517456Y-9803438D01*
X15522191Y-9799728D01*
X15522792Y-9799286D01*
X15527743Y-9795868D01*
X15531732Y-9791365D01*
X15532242Y-9790823D01*
X16254772Y-9068293D01*
X16255314Y-9067783D01*
X16259818Y-9063793D01*
X16263236Y-9058841D01*
X16263679Y-9058239D01*
X16267387Y-9053506D01*
X16267387Y-9053506D01*
X16267388Y-9053506D01*
X16267804Y-9052581D01*
X16268906Y-9050627D01*
X16269482Y-9049793D01*
X16271615Y-9044167D01*
X16271899Y-9043481D01*
X16274369Y-9037993D01*
X16274552Y-9036996D01*
X16275155Y-9034834D01*
X16275514Y-9033887D01*
X16276239Y-9027918D01*
X16276351Y-9027178D01*
X16276669Y-9025445D01*
X16277436Y-9021261D01*
X16277073Y-9015257D01*
X16277050Y-9014508D01*
X16277050Y-8945167D01*
X16279018Y-8938463D01*
X16282337Y-8935010D01*
X16290914Y-8929005D01*
X16307005Y-8912914D01*
X16320057Y-8894273D01*
X16321190Y-8891844D01*
X16325807Y-8886600D01*
X16332526Y-8884684D01*
X16339214Y-8886706D01*
X16339538Y-8886925D01*
X16339727Y-8887057D01*
X16360350Y-8896674D01*
X16382331Y-8902564D01*
X16405000Y-8904547D01*
X16427669Y-8902564D01*
X16449650Y-8896674D01*
X16470273Y-8887057D01*
X16488914Y-8874005D01*
X16505005Y-8857914D01*
X16511476Y-8848671D01*
X16516934Y-8844309D01*
X16523884Y-8843589D01*
X16530119Y-8846742D01*
X16532872Y-8850543D01*
X16536943Y-8859273D01*
X16549995Y-8877914D01*
X16566086Y-8894005D01*
X16584726Y-8907057D01*
X16584726Y-8907057D01*
X16584727Y-8907057D01*
X16605350Y-8916674D01*
X16627331Y-8922564D01*
X16642443Y-8923886D01*
X16650000Y-8924547D01*
X16650000Y-8924547D01*
X16650000Y-8924547D01*
X16672669Y-8922564D01*
X16694650Y-8916674D01*
X16715273Y-8907057D01*
X16733914Y-8894005D01*
X16750005Y-8877914D01*
X16763057Y-8859273D01*
X16772674Y-8838650D01*
X16778564Y-8816669D01*
X16780547Y-8794000D01*
X16780110Y-8789005D01*
X16779703Y-8784350D01*
X16778564Y-8771331D01*
X16772674Y-8749350D01*
X16763057Y-8728727D01*
X16761619Y-8726674D01*
X16753792Y-8715494D01*
X16750005Y-8710086D01*
X16733914Y-8693995D01*
X16731268Y-8692143D01*
X16725338Y-8687990D01*
X16720975Y-8682532D01*
X16720050Y-8677833D01*
X16720050Y-7831492D01*
X16720073Y-7830743D01*
X16720436Y-7824739D01*
X16719351Y-7818818D01*
X16719239Y-7818084D01*
X16719229Y-7818000D01*
X18237453Y-7818000D01*
X18239436Y-7840669D01*
X18245326Y-7862650D01*
X18254943Y-7883273D01*
X18267995Y-7901914D01*
X18284086Y-7918005D01*
X18302726Y-7931057D01*
X18302727Y-7931057D01*
X18302727Y-7931057D01*
X18323350Y-7940674D01*
X18345331Y-7946563D01*
X18368000Y-7948547D01*
X18390669Y-7946563D01*
X18412650Y-7940674D01*
X18433273Y-7931057D01*
X18451914Y-7918005D01*
X18468005Y-7901914D01*
X18481057Y-7883273D01*
X18490674Y-7862650D01*
X18496564Y-7840669D01*
X18498547Y-7818000D01*
X18496564Y-7795331D01*
X18495705Y-7792128D01*
X18495872Y-7785143D01*
X18498915Y-7780151D01*
X19088730Y-7190336D01*
X20338534Y-7190336D01*
X20340434Y-7225396D01*
X20340507Y-7226063D01*
X20346187Y-7260713D01*
X20346332Y-7261368D01*
X20355725Y-7295200D01*
X20355940Y-7295837D01*
X20368936Y-7328455D01*
X20369217Y-7329063D01*
X20385665Y-7360087D01*
X20386010Y-7360661D01*
X20405715Y-7389722D01*
X20406121Y-7390257D01*
X20418644Y-7405000D01*
X20418644Y-7405000D01*
X20539227Y-7284418D01*
X20555513Y-7303487D01*
X20574582Y-7319773D01*
X20453726Y-7440629D01*
X20454805Y-7441652D01*
X20455316Y-7442086D01*
X20483269Y-7463336D01*
X20483824Y-7463712D01*
X20513910Y-7481814D01*
X20514504Y-7482128D01*
X20546370Y-7496871D01*
X20546994Y-7497120D01*
X20580268Y-7508331D01*
X20580913Y-7508510D01*
X20615205Y-7516059D01*
X20615868Y-7516167D01*
X20650774Y-7519964D01*
X20651444Y-7520000D01*
X20686556Y-7520000D01*
X20687226Y-7519964D01*
X20722132Y-7516167D01*
X20722795Y-7516059D01*
X20757087Y-7508510D01*
X20757732Y-7508331D01*
X20791006Y-7497120D01*
X20791630Y-7496871D01*
X20823496Y-7482128D01*
X20824090Y-7481814D01*
X20854176Y-7463712D01*
X20854731Y-7463336D01*
X20882685Y-7442086D01*
X20883195Y-7441652D01*
X20884274Y-7440630D01*
X20884274Y-7440629D01*
X20763418Y-7319773D01*
X20782487Y-7303487D01*
X20798773Y-7284418D01*
X20919356Y-7405000D01*
X20919356Y-7405000D01*
X20931879Y-7390257D01*
X20932285Y-7389722D01*
X20951990Y-7360661D01*
X20952335Y-7360087D01*
X20968783Y-7329063D01*
X20969064Y-7328455D01*
X20982060Y-7295837D01*
X20982275Y-7295200D01*
X20991668Y-7261368D01*
X20991813Y-7260713D01*
X20997493Y-7226063D01*
X20997566Y-7225396D01*
X20999467Y-7190336D01*
X20999467Y-7189664D01*
X20997566Y-7154604D01*
X20997493Y-7153937D01*
X20991813Y-7119287D01*
X20991668Y-7118631D01*
X20982275Y-7084800D01*
X20982060Y-7084163D01*
X20969064Y-7051545D01*
X20968783Y-7050937D01*
X20952335Y-7019913D01*
X20951990Y-7019339D01*
X20932285Y-6990277D01*
X20931879Y-6989743D01*
X20919356Y-6974999D01*
X20919356Y-6974999D01*
X20798773Y-7095582D01*
X20782487Y-7076513D01*
X20763418Y-7060227D01*
X20884274Y-6939370D01*
X20883194Y-6938347D01*
X20882684Y-6937914D01*
X20854731Y-6916664D01*
X20854176Y-6916288D01*
X20824090Y-6898186D01*
X20823496Y-6897871D01*
X20791630Y-6883129D01*
X20791006Y-6882880D01*
X20757732Y-6871668D01*
X20757087Y-6871489D01*
X20722795Y-6863941D01*
X20722132Y-6863832D01*
X20687226Y-6860036D01*
X20686556Y-6860000D01*
X20651444Y-6860000D01*
X20650774Y-6860036D01*
X20615868Y-6863832D01*
X20615205Y-6863941D01*
X20580913Y-6871489D01*
X20580268Y-6871668D01*
X20546994Y-6882880D01*
X20546370Y-6883129D01*
X20514504Y-6897871D01*
X20513910Y-6898186D01*
X20483824Y-6916288D01*
X20483269Y-6916664D01*
X20455315Y-6937915D01*
X20454805Y-6938347D01*
X20453726Y-6939370D01*
X20453726Y-6939370D01*
X20574582Y-7060227D01*
X20555513Y-7076513D01*
X20539227Y-7095582D01*
X20418644Y-6974999D01*
X20418644Y-6974999D01*
X20406121Y-6989743D01*
X20405715Y-6990277D01*
X20386010Y-7019339D01*
X20385665Y-7019913D01*
X20369217Y-7050937D01*
X20368936Y-7051545D01*
X20355940Y-7084163D01*
X20355725Y-7084800D01*
X20346332Y-7118631D01*
X20346187Y-7119287D01*
X20340507Y-7153937D01*
X20340434Y-7154604D01*
X20338534Y-7189664D01*
X20338534Y-7190336D01*
X19088730Y-7190336D01*
X19107172Y-7171893D01*
X19107714Y-7171383D01*
X19112218Y-7167393D01*
X19115636Y-7162441D01*
X19116079Y-7161839D01*
X19119788Y-7157106D01*
X19119788Y-7157106D01*
X19119788Y-7157106D01*
X19120204Y-7156181D01*
X19121306Y-7154227D01*
X19121882Y-7153393D01*
X19124015Y-7147767D01*
X19124299Y-7147081D01*
X19126770Y-7141593D01*
X19126952Y-7140596D01*
X19127555Y-7138434D01*
X19127914Y-7137487D01*
X19128639Y-7131518D01*
X19128751Y-7130778D01*
X19129836Y-7124861D01*
X19129473Y-7118857D01*
X19129450Y-7118108D01*
X19129450Y-7073387D01*
X19131419Y-7066683D01*
X19136699Y-7062107D01*
X19137949Y-7061617D01*
X19151333Y-7057181D01*
X19166266Y-7047971D01*
X19178671Y-7035566D01*
X19187881Y-7020633D01*
X19193400Y-7003980D01*
X19194450Y-6993701D01*
X19194450Y-6838699D01*
X19193400Y-6828420D01*
X19187881Y-6811767D01*
X19178774Y-6797001D01*
X19178671Y-6796834D01*
X19166266Y-6784429D01*
X19151333Y-6775219D01*
X19134680Y-6769700D01*
X19124714Y-6768682D01*
X19124712Y-6768682D01*
X19124401Y-6768650D01*
X19124086Y-6768650D01*
X18994714Y-6768650D01*
X18994712Y-6768650D01*
X18994399Y-6768650D01*
X18994086Y-6768682D01*
X18994086Y-6768682D01*
X18984120Y-6769700D01*
X18967467Y-6775219D01*
X18952534Y-6784429D01*
X18940129Y-6796834D01*
X18930555Y-6812356D01*
X18925360Y-6817028D01*
X18918464Y-6818151D01*
X18912056Y-6815366D01*
X18911233Y-6814614D01*
X18896508Y-6799889D01*
X18877158Y-6786340D01*
X18855749Y-6776357D01*
X18834400Y-6770636D01*
X18834400Y-6875398D01*
X18822920Y-6870155D01*
X18812798Y-6868700D01*
X18806003Y-6868700D01*
X18795880Y-6870155D01*
X18784400Y-6875398D01*
X18784400Y-6770636D01*
X18784400Y-6770636D01*
X18763051Y-6776357D01*
X18741642Y-6786340D01*
X18722292Y-6799889D01*
X18705589Y-6816592D01*
X18694588Y-6832303D01*
X18689130Y-6836666D01*
X18682180Y-6837385D01*
X18675945Y-6834233D01*
X18674273Y-6832303D01*
X18673700Y-6831485D01*
X18663250Y-6816560D01*
X18646540Y-6799850D01*
X18627183Y-6786296D01*
X18605766Y-6776310D01*
X18599650Y-6774671D01*
X18582941Y-6770194D01*
X18559400Y-6768134D01*
X18535859Y-6770194D01*
X18513034Y-6776310D01*
X18491617Y-6786296D01*
X18472260Y-6799850D01*
X18455551Y-6816560D01*
X18441997Y-6835917D01*
X18432010Y-6857334D01*
X18425894Y-6880159D01*
X18424928Y-6891200D01*
X18424350Y-6897803D01*
X18424350Y-6934597D01*
X18424374Y-6934866D01*
X18424374Y-6934867D01*
X18425894Y-6952241D01*
X18428964Y-6963700D01*
X18432010Y-6975066D01*
X18441997Y-6996483D01*
X18455551Y-7015840D01*
X18472260Y-7032549D01*
X18491617Y-7046103D01*
X18513034Y-7056090D01*
X18535859Y-7062206D01*
X18559400Y-7064266D01*
X18582941Y-7062206D01*
X18605766Y-7056090D01*
X18627183Y-7046103D01*
X18646540Y-7032549D01*
X18663250Y-7015840D01*
X18674273Y-7000096D01*
X18679731Y-6995734D01*
X18686681Y-6995015D01*
X18692916Y-6998167D01*
X18694588Y-7000097D01*
X18705589Y-7015808D01*
X18722292Y-7032511D01*
X18741642Y-7046060D01*
X18763051Y-7056043D01*
X18784400Y-7061763D01*
X18784400Y-6957002D01*
X18795880Y-6962245D01*
X18806003Y-6963700D01*
X18812798Y-6963700D01*
X18822920Y-6962245D01*
X18834400Y-6957002D01*
X18834400Y-7061763D01*
X18855749Y-7056043D01*
X18877158Y-7046060D01*
X18896508Y-7032511D01*
X18911233Y-7017786D01*
X18917365Y-7014437D01*
X18924335Y-7014935D01*
X18929928Y-7019123D01*
X18930555Y-7020044D01*
X18940129Y-7035566D01*
X18952534Y-7047971D01*
X18952534Y-7047971D01*
X18967467Y-7057181D01*
X18980851Y-7061616D01*
X18986595Y-7065593D01*
X18989277Y-7072045D01*
X18989350Y-7073387D01*
X18989350Y-7086448D01*
X18987382Y-7093152D01*
X18985718Y-7095216D01*
X18395520Y-7685414D01*
X18389388Y-7688763D01*
X18385671Y-7688999D01*
X18368000Y-7687453D01*
X18345331Y-7689436D01*
X18323350Y-7695326D01*
X18302726Y-7704943D01*
X18284086Y-7717995D01*
X18267995Y-7734086D01*
X18254943Y-7752726D01*
X18245326Y-7773350D01*
X18239436Y-7795331D01*
X18237453Y-7818000D01*
X16719229Y-7818000D01*
X16718514Y-7812113D01*
X16718155Y-7811166D01*
X16717552Y-7809004D01*
X16717369Y-7808007D01*
X16714901Y-7802522D01*
X16714615Y-7801833D01*
X16712482Y-7796207D01*
X16712482Y-7796207D01*
X16712482Y-7796207D01*
X16711906Y-7795373D01*
X16710803Y-7793418D01*
X16710388Y-7792494D01*
X16706678Y-7787759D01*
X16706235Y-7787157D01*
X16702818Y-7782207D01*
X16700497Y-7780151D01*
X16698315Y-7778218D01*
X16697771Y-7777706D01*
X16245294Y-7325228D01*
X16244782Y-7324685D01*
X16240793Y-7320182D01*
X16240302Y-7319843D01*
X16235844Y-7316765D01*
X16235240Y-7316322D01*
X16232371Y-7314073D01*
X16230506Y-7312612D01*
X16230505Y-7312612D01*
X16230505Y-7312612D01*
X16229581Y-7312196D01*
X16227627Y-7311094D01*
X16226793Y-7310518D01*
X16226793Y-7310518D01*
X16226793Y-7310518D01*
X16221170Y-7308386D01*
X16220478Y-7308099D01*
X16214993Y-7305630D01*
X16213995Y-7305447D01*
X16211834Y-7304845D01*
X16210887Y-7304486D01*
X16204917Y-7303761D01*
X16204177Y-7303648D01*
X16198261Y-7302564D01*
X16192257Y-7302927D01*
X16191508Y-7302950D01*
X15861167Y-7302950D01*
X15854463Y-7300981D01*
X15851010Y-7297662D01*
X15845005Y-7289086D01*
X15828914Y-7272995D01*
X15810273Y-7259943D01*
X15789650Y-7250326D01*
X15767669Y-7244436D01*
X15745000Y-7242453D01*
X15722331Y-7244436D01*
X15700350Y-7250326D01*
X15685731Y-7257143D01*
X15678823Y-7258192D01*
X15672445Y-7255340D01*
X15669252Y-7251145D01*
X15669057Y-7250727D01*
X15659663Y-7237311D01*
X15656005Y-7232086D01*
X15639914Y-7215995D01*
X15621273Y-7202943D01*
X15600650Y-7193326D01*
X15578669Y-7187436D01*
X15556000Y-7185453D01*
X15533331Y-7187436D01*
X15511350Y-7193326D01*
X15490726Y-7202943D01*
X15472086Y-7215995D01*
X15455995Y-7232086D01*
X15442943Y-7250726D01*
X15433326Y-7271350D01*
X15427436Y-7293331D01*
X15426365Y-7305576D01*
X15423820Y-7312082D01*
X15418161Y-7316180D01*
X15411184Y-7316568D01*
X15410803Y-7316472D01*
X15410669Y-7316436D01*
X15387434Y-7314404D01*
X15380927Y-7311858D01*
X15376829Y-7306199D01*
X15376162Y-7303131D01*
X15376067Y-7302050D01*
X15375781Y-7300981D01*
X15370178Y-7280070D01*
X15360561Y-7259446D01*
X15359683Y-7258192D01*
X15347509Y-7240805D01*
X15331418Y-7224714D01*
X15312777Y-7211662D01*
X15292154Y-7202045D01*
X15270173Y-7196156D01*
X15247504Y-7194172D01*
X15224835Y-7196156D01*
X15202854Y-7202045D01*
X15182230Y-7211662D01*
X15163590Y-7224714D01*
X15147499Y-7240805D01*
X15134447Y-7259446D01*
X15124830Y-7280069D01*
X15118940Y-7302050D01*
X15116957Y-7324719D01*
X15118940Y-7347388D01*
X15124830Y-7369369D01*
X15134447Y-7389993D01*
X15147499Y-7408633D01*
X15163590Y-7424724D01*
X15163590Y-7424724D01*
X15172166Y-7430729D01*
X15176529Y-7436186D01*
X15177454Y-7440886D01*
X15177454Y-7587012D01*
X15177431Y-7587761D01*
X15177068Y-7593765D01*
X15178152Y-7599681D01*
X15178265Y-7600421D01*
X15178990Y-7606391D01*
X15179349Y-7607338D01*
X15179951Y-7609499D01*
X15180134Y-7610497D01*
X15182603Y-7615982D01*
X15182890Y-7616674D01*
X15185022Y-7622297D01*
X15185022Y-7622297D01*
X15185598Y-7623131D01*
X15186700Y-7625085D01*
X15187116Y-7626009D01*
X15190826Y-7630744D01*
X15191269Y-7631348D01*
X15194506Y-7636036D01*
X15194686Y-7636297D01*
X15199189Y-7640286D01*
X15199732Y-7640798D01*
X15341417Y-7782483D01*
X15344766Y-7788615D01*
X15344267Y-7795584D01*
X15340080Y-7801178D01*
X15337890Y-7802489D01*
X15318351Y-7811600D01*
X15299710Y-7824652D01*
X15283620Y-7840743D01*
X15277615Y-7849319D01*
X15272157Y-7853682D01*
X15267457Y-7854607D01*
X14269835Y-7854607D01*
X14269086Y-7854585D01*
X14263082Y-7854221D01*
X14257165Y-7855305D01*
X14256426Y-7855418D01*
X14250455Y-7856143D01*
X14249508Y-7856502D01*
X14247347Y-7857105D01*
X14246350Y-7857288D01*
X14240865Y-7859756D01*
X14240174Y-7860042D01*
X14234550Y-7862175D01*
X14233715Y-7862751D01*
X14231761Y-7863853D01*
X14230837Y-7864269D01*
X14226104Y-7867978D01*
X14225501Y-7868421D01*
X14220550Y-7871839D01*
X14216560Y-7876342D01*
X14216047Y-7876887D01*
X13100949Y-8991985D01*
X13100404Y-8992498D01*
X13095902Y-8996487D01*
X13092485Y-9001437D01*
X13092041Y-9002040D01*
X13088332Y-9006774D01*
X13087916Y-9007698D01*
X13086814Y-9009652D01*
X13086238Y-9010487D01*
X13084105Y-9016110D01*
X13083819Y-9016802D01*
X13081350Y-9022287D01*
X13081168Y-9023285D01*
X13080566Y-9025445D01*
X13080206Y-9026393D01*
X13079481Y-9032363D01*
X13079368Y-9033102D01*
X13078284Y-9039019D01*
X13078648Y-9045023D01*
X13078670Y-9045772D01*
X13078670Y-9839951D01*
X13076702Y-9846655D01*
X13073382Y-9850109D01*
X13056806Y-9861715D01*
X13040715Y-9877806D01*
X13027663Y-9896447D01*
X13018046Y-9917070D01*
X13012157Y-9939051D01*
X13010173Y-9961720D01*
X13012157Y-9984389D01*
X13018046Y-10006370D01*
X13023614Y-10018310D01*
X13024663Y-10025217D01*
X13021811Y-10031596D01*
X13015963Y-10035420D01*
X13012376Y-10035950D01*
X10320152Y-10035950D01*
X10313448Y-10033982D01*
X10311384Y-10032318D01*
X9889235Y-9610170D01*
X9885887Y-9604037D01*
X9886385Y-9597068D01*
X9889235Y-9592634D01*
X9891232Y-9590637D01*
X9897364Y-9587289D01*
X9904333Y-9587787D01*
X9908768Y-9590637D01*
X9920165Y-9602034D01*
X9934848Y-9611091D01*
X9951225Y-9616517D01*
X9961019Y-9617518D01*
X9961019Y-9617518D01*
X9961332Y-9617550D01*
X10021168Y-9617550D01*
X10030667Y-9616580D01*
X10032627Y-9616379D01*
X10032647Y-9616580D01*
X10037889Y-9616399D01*
X10043576Y-9619642D01*
X10062897Y-9638963D01*
X10066246Y-9645095D01*
X10066482Y-9648812D01*
X10064453Y-9672000D01*
X10066436Y-9694669D01*
X10072326Y-9716650D01*
X10081943Y-9737274D01*
X10094995Y-9755914D01*
X10111086Y-9772005D01*
X10129726Y-9785057D01*
X10129727Y-9785057D01*
X10129727Y-9785057D01*
X10150350Y-9794674D01*
X10172331Y-9800564D01*
X10195000Y-9802547D01*
X10217669Y-9800564D01*
X10239650Y-9794674D01*
X10260273Y-9785057D01*
X10278914Y-9772005D01*
X10295005Y-9755914D01*
X10308057Y-9737273D01*
X10317674Y-9716650D01*
X10323564Y-9694669D01*
X10325547Y-9672000D01*
X10323564Y-9649331D01*
X10317674Y-9627350D01*
X10308057Y-9606727D01*
X10306174Y-9604037D01*
X10295005Y-9588086D01*
X10278914Y-9571995D01*
X10260274Y-9558943D01*
X10239650Y-9549326D01*
X10217669Y-9543436D01*
X10195000Y-9541453D01*
X10171812Y-9543482D01*
X10164962Y-9542105D01*
X10161963Y-9539897D01*
X10094294Y-9472228D01*
X10093782Y-9471685D01*
X10089793Y-9467182D01*
X10089793Y-9467182D01*
X10089793Y-9467182D01*
X10084844Y-9463766D01*
X10084240Y-9463322D01*
X10082904Y-9462275D01*
X10079998Y-9459024D01*
X10074534Y-9450165D01*
X10062335Y-9437966D01*
X10053915Y-9432773D01*
X10047652Y-9428909D01*
X10031275Y-9423483D01*
X10021481Y-9422482D01*
X10021479Y-9422482D01*
X10021168Y-9422450D01*
X10020853Y-9422450D01*
X9961647Y-9422450D01*
X9961645Y-9422450D01*
X9961332Y-9422450D01*
X9961019Y-9422482D01*
X9961019Y-9422482D01*
X9951225Y-9423483D01*
X9934848Y-9428909D01*
X9920165Y-9437966D01*
X9908768Y-9449363D01*
X9902636Y-9452711D01*
X9895667Y-9452213D01*
X9891232Y-9449363D01*
X9879835Y-9437966D01*
X9871415Y-9432773D01*
X9865152Y-9428909D01*
X9848775Y-9423483D01*
X9838981Y-9422482D01*
X9838979Y-9422482D01*
X9838668Y-9422450D01*
X9838353Y-9422450D01*
X9779147Y-9422450D01*
X9779145Y-9422450D01*
X9778832Y-9422450D01*
X9778519Y-9422482D01*
X9778519Y-9422482D01*
X9768725Y-9423483D01*
X9752348Y-9428909D01*
X9742014Y-9435284D01*
X9737665Y-9437966D01*
X9729313Y-9446318D01*
X9723181Y-9449667D01*
X9720545Y-9449950D01*
X9706652Y-9449950D01*
X9699948Y-9447982D01*
X9697884Y-9446318D01*
X9646366Y-9394800D01*
X9643017Y-9388668D01*
X9643516Y-9381699D01*
X9647703Y-9376105D01*
X9647703Y-9376105D01*
X9648219Y-9375719D01*
X9656835Y-9364209D01*
X9661860Y-9350737D01*
X9662465Y-9345113D01*
X9662500Y-9344452D01*
X9662500Y-9310000D01*
X9609950Y-9310000D01*
X9603246Y-9308032D01*
X9598671Y-9302751D01*
X9597550Y-9297600D01*
X9597550Y-9284536D01*
X9597550Y-9284534D01*
X9597550Y-9282400D01*
X9599518Y-9275696D01*
X9604799Y-9271121D01*
X9609950Y-9270000D01*
X9662500Y-9270000D01*
X9662500Y-9235548D01*
X9662465Y-9234887D01*
X9661860Y-9229263D01*
X9656835Y-9215791D01*
X9648219Y-9204281D01*
X9636709Y-9195665D01*
X9623237Y-9190640D01*
X9617613Y-9190035D01*
X9616952Y-9190000D01*
X9612500Y-9190000D01*
X9612500Y-9206057D01*
X9610532Y-9212760D01*
X9605251Y-9217336D01*
X9598335Y-9218330D01*
X9591980Y-9215428D01*
X9590173Y-9213488D01*
X9586080Y-9208020D01*
X9583255Y-9204245D01*
X9577469Y-9199914D01*
X9573282Y-9194321D01*
X9572503Y-9190003D01*
X9572500Y-9190000D01*
X9568048Y-9190000D01*
X9567388Y-9190035D01*
X9561560Y-9190662D01*
X9558909Y-9190662D01*
X9552617Y-9189985D01*
X9552616Y-9189985D01*
X9552287Y-9189950D01*
X9551955Y-9189950D01*
X9503044Y-9189950D01*
X9503042Y-9189950D01*
X9502713Y-9189950D01*
X9502385Y-9189985D01*
X9502384Y-9189985D01*
X9496325Y-9190637D01*
X9493675Y-9190637D01*
X9487617Y-9189985D01*
X9487616Y-9189985D01*
X9487287Y-9189950D01*
X9486955Y-9189950D01*
X9438044Y-9189950D01*
X9438042Y-9189950D01*
X9437713Y-9189950D01*
X9437385Y-9189985D01*
X9437384Y-9189985D01*
X9431325Y-9190637D01*
X9428675Y-9190637D01*
X9422617Y-9189985D01*
X9422616Y-9189985D01*
X9422287Y-9189950D01*
X9421955Y-9189950D01*
X9373044Y-9189950D01*
X9373042Y-9189950D01*
X9372713Y-9189950D01*
X9372385Y-9189985D01*
X9372384Y-9189985D01*
X9366325Y-9190637D01*
X9363675Y-9190637D01*
X9357617Y-9189985D01*
X9357616Y-9189985D01*
X9357287Y-9189950D01*
X9356955Y-9189950D01*
X9308044Y-9189950D01*
X9308042Y-9189950D01*
X9307713Y-9189950D01*
X9307385Y-9189985D01*
X9307384Y-9189985D01*
X9301091Y-9190662D01*
X9298440Y-9190662D01*
X9292612Y-9190035D01*
X9291952Y-9190000D01*
X9287500Y-9190000D01*
X9287495Y-9190005D01*
X9285532Y-9196691D01*
X9282531Y-9199914D01*
X9276745Y-9204245D01*
X9269827Y-9213488D01*
X9264233Y-9217675D01*
X9257264Y-9218173D01*
X9251132Y-9214825D01*
X9247783Y-9208692D01*
X9247500Y-9206057D01*
X9247500Y-9190000D01*
X9243048Y-9190000D01*
X9242388Y-9190035D01*
X9236325Y-9190687D01*
X9233675Y-9190687D01*
X9227612Y-9190035D01*
X9226952Y-9190000D01*
X9222500Y-9190000D01*
X9222500Y-9206057D01*
X9220532Y-9212760D01*
X9215251Y-9217336D01*
X9208335Y-9218330D01*
X9201980Y-9215428D01*
X9200173Y-9213488D01*
X9193255Y-9204245D01*
X9190972Y-9202537D01*
X9187469Y-9199914D01*
X9183282Y-9194321D01*
X9182503Y-9190003D01*
X9182500Y-9190000D01*
X9178048Y-9190000D01*
X9177388Y-9190035D01*
X9171560Y-9190662D01*
X9168909Y-9190662D01*
X9162617Y-9189985D01*
X9162616Y-9189985D01*
X9162287Y-9189950D01*
X9161955Y-9189950D01*
X9113044Y-9189950D01*
X9113042Y-9189950D01*
X9112713Y-9189950D01*
X9112385Y-9189985D01*
X9112384Y-9189985D01*
X9106091Y-9190662D01*
X9103440Y-9190662D01*
X9097612Y-9190035D01*
X9096952Y-9190000D01*
X9092500Y-9190000D01*
X9092495Y-9190005D01*
X9090532Y-9196691D01*
X9087531Y-9199914D01*
X9080318Y-9205314D01*
X9080126Y-9205057D01*
X9076832Y-9207523D01*
X9069863Y-9208021D01*
X9064747Y-9205226D01*
X9064682Y-9205314D01*
X9064074Y-9204859D01*
X9063731Y-9204671D01*
X9063560Y-9204474D01*
X9057469Y-9199914D01*
X9053282Y-9194321D01*
X9052503Y-9190003D01*
X9052500Y-9190000D01*
X9048048Y-9190000D01*
X9047388Y-9190035D01*
X9041560Y-9190662D01*
X9038909Y-9190662D01*
X9032617Y-9189985D01*
X9032616Y-9189985D01*
X9032287Y-9189950D01*
X9031955Y-9189950D01*
X8998152Y-9189950D01*
X8991448Y-9187982D01*
X8989384Y-9186318D01*
X8900103Y-9097037D01*
X8896754Y-9090905D01*
X8896518Y-9087188D01*
X8898111Y-9068984D01*
X8898547Y-9064000D01*
X8896564Y-9041331D01*
X8890674Y-9019350D01*
X8881057Y-8998727D01*
X8878647Y-8995285D01*
X8868005Y-8980086D01*
X8851914Y-8963995D01*
X8833274Y-8950943D01*
X8812650Y-8941326D01*
X8790669Y-8935436D01*
X8768000Y-8933453D01*
X8745331Y-8935436D01*
X8723350Y-8941326D01*
X8702726Y-8950943D01*
X8684086Y-8963995D01*
X8667995Y-8980086D01*
X8654943Y-8998726D01*
X8645326Y-9019350D01*
X8639436Y-9041331D01*
X8637453Y-9064000D01*
X7474027Y-9064000D01*
X7469064Y-9051545D01*
X7468783Y-9050937D01*
X7452335Y-9019913D01*
X7451990Y-9019339D01*
X7432285Y-8990277D01*
X7431879Y-8989743D01*
X7419356Y-8975000D01*
X7419356Y-8974999D01*
X7298773Y-9095582D01*
X7282487Y-9076513D01*
X7263418Y-9060227D01*
X7384274Y-8939370D01*
X7383194Y-8938347D01*
X7382684Y-8937914D01*
X7354730Y-8916664D01*
X7354176Y-8916288D01*
X7324090Y-8898186D01*
X7323496Y-8897871D01*
X7291630Y-8883129D01*
X7291006Y-8882880D01*
X7257731Y-8871668D01*
X7257087Y-8871490D01*
X7222795Y-8863941D01*
X7222132Y-8863833D01*
X7187226Y-8860036D01*
X7186556Y-8860000D01*
X7151444Y-8860000D01*
X7150774Y-8860036D01*
X7115868Y-8863833D01*
X7115205Y-8863941D01*
X7080913Y-8871490D01*
X7080268Y-8871668D01*
X7046994Y-8882880D01*
X7046369Y-8883129D01*
X7014504Y-8897871D01*
X7013910Y-8898186D01*
X6983824Y-8916288D01*
X6983269Y-8916664D01*
X6955315Y-8937915D01*
X6954805Y-8938347D01*
X6953726Y-8939370D01*
X6953725Y-8939370D01*
X7074582Y-9060227D01*
X7055513Y-9076513D01*
X7039227Y-9095582D01*
X6918644Y-8974999D01*
X6918644Y-8975000D01*
X6906121Y-8989743D01*
X6905715Y-8990277D01*
X6886010Y-9019339D01*
X6885665Y-9019913D01*
X6869217Y-9050937D01*
X6868936Y-9051545D01*
X6855940Y-9084163D01*
X6855725Y-9084800D01*
X6846332Y-9118632D01*
X6846187Y-9119287D01*
X6840507Y-9153937D01*
X6840434Y-9154604D01*
X6838533Y-9189664D01*
X6838533Y-9190336D01*
X6502036Y-9190336D01*
X6503361Y-9164213D01*
X6503389Y-9163796D01*
X6503578Y-9161564D01*
X6512893Y-9051533D01*
X6512934Y-9051128D01*
X6526223Y-8939249D01*
X6526280Y-8938836D01*
X6526351Y-8938373D01*
X6543340Y-8827473D01*
X6543410Y-8827063D01*
X6543530Y-8826422D01*
X6564221Y-8716342D01*
X6564305Y-8715933D01*
X6588844Y-8605976D01*
X6588941Y-8605575D01*
X6589349Y-8604000D01*
X8510453Y-8604000D01*
X8512436Y-8626669D01*
X8518326Y-8648650D01*
X8527943Y-8669274D01*
X8540995Y-8687914D01*
X8557086Y-8704005D01*
X8575726Y-8717057D01*
X8575727Y-8717057D01*
X8575727Y-8717057D01*
X8596350Y-8726674D01*
X8618331Y-8732564D01*
X8630745Y-8733650D01*
X8641000Y-8734547D01*
X8641000Y-8734547D01*
X8641000Y-8734547D01*
X8663669Y-8732564D01*
X8685650Y-8726674D01*
X8706273Y-8717057D01*
X8724914Y-8704005D01*
X8741005Y-8687914D01*
X8754057Y-8669273D01*
X8763674Y-8648650D01*
X8768089Y-8632172D01*
X8771725Y-8626207D01*
X8778010Y-8623154D01*
X8784948Y-8623983D01*
X8790335Y-8628432D01*
X8792044Y-8632172D01*
X8793122Y-8636197D01*
X8802740Y-8656822D01*
X8815792Y-8675462D01*
X8831882Y-8691553D01*
X8850523Y-8704605D01*
X8850523Y-8704605D01*
X8850523Y-8704605D01*
X8871147Y-8714222D01*
X8893127Y-8720112D01*
X8915796Y-8722095D01*
X8915796Y-8722095D01*
X8916487Y-8722155D01*
X8922994Y-8724701D01*
X8924174Y-8725740D01*
X8933818Y-8735384D01*
X8937167Y-8741516D01*
X8937450Y-8744152D01*
X8937450Y-8764456D01*
X8937450Y-8764458D01*
X8937450Y-8764787D01*
X8937485Y-8765115D01*
X8937485Y-8765116D01*
X8938091Y-8770748D01*
X8939477Y-8774463D01*
X8943120Y-8784233D01*
X8951745Y-8795755D01*
X8963267Y-8804380D01*
X8976752Y-8809409D01*
X8982713Y-8810050D01*
X9032287Y-8810050D01*
X9038248Y-8809409D01*
X9038248Y-8809409D01*
X9038675Y-8809363D01*
X9041326Y-8809363D01*
X9041752Y-8809409D01*
X9041752Y-8809409D01*
X9047713Y-8810050D01*
X9097287Y-8810050D01*
X9103248Y-8809409D01*
X9103248Y-8809409D01*
X9103675Y-8809363D01*
X9106326Y-8809363D01*
X9106752Y-8809409D01*
X9106752Y-8809409D01*
X9112713Y-8810050D01*
X9162287Y-8810050D01*
X9168248Y-8809409D01*
X9168248Y-8809409D01*
X9168675Y-8809363D01*
X9171326Y-8809363D01*
X9171752Y-8809409D01*
X9171752Y-8809409D01*
X9177713Y-8810050D01*
X9227287Y-8810050D01*
X9233248Y-8809409D01*
X9233249Y-8809409D01*
X9233909Y-8809338D01*
X9236560Y-8809338D01*
X9242387Y-8809965D01*
X9243048Y-8810000D01*
X9247500Y-8810000D01*
X9247505Y-8809995D01*
X9249469Y-8803308D01*
X9252469Y-8800086D01*
X9258255Y-8795755D01*
X9258255Y-8795755D01*
X9259682Y-8794686D01*
X9259874Y-8794942D01*
X9263167Y-8792478D01*
X9270136Y-8791979D01*
X9275253Y-8794773D01*
X9275318Y-8794686D01*
X9275924Y-8795140D01*
X9276268Y-8795328D01*
X9276440Y-8795526D01*
X9276745Y-8795755D01*
X9282531Y-8800086D01*
X9286718Y-8805679D01*
X9287497Y-8809997D01*
X9287500Y-8810000D01*
X9291952Y-8810000D01*
X9292613Y-8809965D01*
X9298440Y-8809338D01*
X9301091Y-8809338D01*
X9301751Y-8809409D01*
X9301752Y-8809409D01*
X9307713Y-8810050D01*
X9357287Y-8810050D01*
X9363248Y-8809409D01*
X9363248Y-8809409D01*
X9363675Y-8809363D01*
X9366326Y-8809363D01*
X9366752Y-8809409D01*
X9366752Y-8809409D01*
X9372713Y-8810050D01*
X9422287Y-8810050D01*
X9428248Y-8809409D01*
X9428248Y-8809409D01*
X9428675Y-8809363D01*
X9431326Y-8809363D01*
X9431752Y-8809409D01*
X9431752Y-8809409D01*
X9437713Y-8810050D01*
X9487287Y-8810050D01*
X9493248Y-8809409D01*
X9493248Y-8809409D01*
X9493675Y-8809363D01*
X9496326Y-8809363D01*
X9496752Y-8809409D01*
X9496752Y-8809409D01*
X9502713Y-8810050D01*
X9552287Y-8810050D01*
X9558248Y-8809409D01*
X9558248Y-8809409D01*
X9558675Y-8809363D01*
X9561326Y-8809363D01*
X9561752Y-8809409D01*
X9561752Y-8809409D01*
X9567713Y-8810050D01*
X9617287Y-8810050D01*
X9623248Y-8809409D01*
X9636733Y-8804380D01*
X9648255Y-8795755D01*
X9656880Y-8784233D01*
X9661909Y-8770748D01*
X9662550Y-8764787D01*
X9662550Y-8655213D01*
X9661909Y-8649252D01*
X9656880Y-8635767D01*
X9648255Y-8624245D01*
X9636733Y-8615620D01*
X9623248Y-8610591D01*
X9617287Y-8609950D01*
X9616955Y-8609950D01*
X9568044Y-8609950D01*
X9568042Y-8609950D01*
X9567713Y-8609950D01*
X9567385Y-8609985D01*
X9567384Y-8609985D01*
X9561325Y-8610637D01*
X9558675Y-8610637D01*
X9556370Y-8610389D01*
X9552619Y-8609986D01*
X9546164Y-8607312D01*
X9542180Y-8601573D01*
X9541930Y-8594590D01*
X9545177Y-8588889D01*
X9634334Y-8499732D01*
X9640466Y-8496383D01*
X9643102Y-8496100D01*
X9890833Y-8496100D01*
X9897537Y-8498069D01*
X9900990Y-8501388D01*
X9906995Y-8509964D01*
X9923086Y-8526055D01*
X9941726Y-8539107D01*
X9941727Y-8539107D01*
X9941727Y-8539107D01*
X9962350Y-8548724D01*
X9984331Y-8554614D01*
X9999444Y-8555936D01*
X10007000Y-8556597D01*
X10007000Y-8556597D01*
X10007000Y-8556597D01*
X10029669Y-8554614D01*
X10051650Y-8548724D01*
X10072273Y-8539107D01*
X10090914Y-8526055D01*
X10107005Y-8509964D01*
X10120057Y-8491323D01*
X10129674Y-8470700D01*
X10135564Y-8448719D01*
X10137547Y-8426050D01*
X10135564Y-8403381D01*
X10129674Y-8381400D01*
X10120057Y-8360777D01*
X10119722Y-8360299D01*
X10107005Y-8342136D01*
X10090914Y-8326045D01*
X10072274Y-8312993D01*
X10051650Y-8303376D01*
X10029669Y-8297486D01*
X10007000Y-8295503D01*
X9984331Y-8297486D01*
X9962350Y-8303376D01*
X9941726Y-8312993D01*
X9923086Y-8326045D01*
X9906995Y-8342136D01*
X9900990Y-8350712D01*
X9895533Y-8355075D01*
X9890833Y-8356000D01*
X9624240Y-8356000D01*
X9617536Y-8354031D01*
X9612960Y-8348751D01*
X9611887Y-8344681D01*
X9611092Y-8335596D01*
X9611092Y-8335596D01*
X9605202Y-8313616D01*
X9595585Y-8292992D01*
X9594787Y-8291852D01*
X9582533Y-8274351D01*
X9566443Y-8258261D01*
X9547802Y-8245209D01*
X9527178Y-8235592D01*
X9505197Y-8229702D01*
X9482528Y-8227719D01*
X9459860Y-8229702D01*
X9437879Y-8235592D01*
X9417255Y-8245209D01*
X9398614Y-8258261D01*
X9382524Y-8274351D01*
X9369472Y-8292992D01*
X9359855Y-8313616D01*
X9353965Y-8335596D01*
X9351982Y-8358265D01*
X9354010Y-8381454D01*
X9352634Y-8388304D01*
X9350426Y-8391303D01*
X9295218Y-8446510D01*
X9289086Y-8449859D01*
X9282117Y-8449360D01*
X9276523Y-8445173D01*
X9274082Y-8438627D01*
X9274050Y-8437742D01*
X9274050Y-8387492D01*
X9274073Y-8386743D01*
X9274098Y-8386320D01*
X9274436Y-8380739D01*
X9273351Y-8374818D01*
X9273239Y-8374084D01*
X9272514Y-8368113D01*
X9272155Y-8367166D01*
X9271552Y-8365004D01*
X9271370Y-8364007D01*
X9268901Y-8358522D01*
X9268615Y-8357833D01*
X9266482Y-8352207D01*
X9266482Y-8352207D01*
X9266482Y-8352207D01*
X9265906Y-8351373D01*
X9264803Y-8349418D01*
X9264388Y-8348494D01*
X9260678Y-8343759D01*
X9260235Y-8343157D01*
X9259665Y-8342331D01*
X9256818Y-8338207D01*
X9252315Y-8334218D01*
X9251772Y-8333706D01*
X9153294Y-8235228D01*
X9152782Y-8234685D01*
X9148793Y-8230182D01*
X9148098Y-8229702D01*
X9143844Y-8226765D01*
X9143241Y-8226322D01*
X9138505Y-8222612D01*
X9137581Y-8222196D01*
X9135627Y-8221094D01*
X9134793Y-8220518D01*
X9134793Y-8220518D01*
X9134793Y-8220518D01*
X9129170Y-8218386D01*
X9128478Y-8218099D01*
X9122993Y-8215630D01*
X9121995Y-8215447D01*
X9119834Y-8214845D01*
X9118887Y-8214486D01*
X9112917Y-8213761D01*
X9112177Y-8213648D01*
X9106261Y-8212564D01*
X9100257Y-8212927D01*
X9099508Y-8212950D01*
X8796491Y-8212950D01*
X8795742Y-8212927D01*
X8789739Y-8212564D01*
X8783824Y-8213648D01*
X8783084Y-8213761D01*
X8777112Y-8214486D01*
X8776164Y-8214846D01*
X8774004Y-8215448D01*
X8773007Y-8215630D01*
X8767523Y-8218098D01*
X8766832Y-8218385D01*
X8761207Y-8220518D01*
X8760373Y-8221094D01*
X8758418Y-8222196D01*
X8757494Y-8222612D01*
X8752759Y-8226322D01*
X8752157Y-8226765D01*
X8747207Y-8230182D01*
X8743218Y-8234684D01*
X8742705Y-8235229D01*
X8604229Y-8373705D01*
X8603684Y-8374218D01*
X8599182Y-8378207D01*
X8595765Y-8383157D01*
X8595321Y-8383760D01*
X8591612Y-8388494D01*
X8591196Y-8389419D01*
X8590094Y-8391373D01*
X8589518Y-8392207D01*
X8587385Y-8397831D01*
X8587099Y-8398522D01*
X8584630Y-8404007D01*
X8584448Y-8405005D01*
X8583845Y-8407165D01*
X8583486Y-8408113D01*
X8582761Y-8414083D01*
X8582648Y-8414823D01*
X8581564Y-8420739D01*
X8581927Y-8426743D01*
X8581950Y-8427492D01*
X8581950Y-8480142D01*
X8579982Y-8486845D01*
X8576384Y-8489990D01*
X8576615Y-8490321D01*
X8557086Y-8503995D01*
X8540995Y-8520086D01*
X8527943Y-8538726D01*
X8518326Y-8559350D01*
X8512436Y-8581331D01*
X8510453Y-8604000D01*
X6589349Y-8604000D01*
X6617182Y-8496502D01*
X6617291Y-8496108D01*
X6649200Y-8388052D01*
X6649321Y-8387664D01*
X6684860Y-8280749D01*
X6684997Y-8280359D01*
X6724127Y-8174705D01*
X6724275Y-8174325D01*
X6766950Y-8070055D01*
X6767115Y-8069672D01*
X6769852Y-8063580D01*
X6813286Y-7966906D01*
X6813464Y-7966527D01*
X6816347Y-7960650D01*
X6863081Y-7865376D01*
X6863265Y-7865015D01*
X6916274Y-7765591D01*
X6916472Y-7765235D01*
X6972806Y-7667660D01*
X6973015Y-7667313D01*
X7032615Y-7571693D01*
X7032836Y-7571352D01*
X7095629Y-7477802D01*
X7095863Y-7477467D01*
X7161779Y-7386094D01*
X7162027Y-7385763D01*
X7230988Y-7296672D01*
X7231245Y-7296351D01*
X7303182Y-7209633D01*
X7303447Y-7209324D01*
X7320314Y-7190336D01*
X7838533Y-7190336D01*
X7840434Y-7225396D01*
X7840507Y-7226063D01*
X7846187Y-7260713D01*
X7846332Y-7261368D01*
X7855725Y-7295200D01*
X7855940Y-7295837D01*
X7868936Y-7328455D01*
X7869217Y-7329063D01*
X7885665Y-7360087D01*
X7886010Y-7360661D01*
X7905715Y-7389722D01*
X7906121Y-7390257D01*
X7918644Y-7405000D01*
X7918644Y-7405000D01*
X8039227Y-7284418D01*
X8055513Y-7303487D01*
X8074582Y-7319773D01*
X7953725Y-7440629D01*
X7954805Y-7441652D01*
X7955316Y-7442086D01*
X7983269Y-7463336D01*
X7983824Y-7463712D01*
X8013910Y-7481814D01*
X8014504Y-7482128D01*
X8046369Y-7496871D01*
X8046994Y-7497120D01*
X8080268Y-7508331D01*
X8080913Y-7508510D01*
X8115205Y-7516059D01*
X8115868Y-7516167D01*
X8150774Y-7519964D01*
X8151444Y-7520000D01*
X8186556Y-7520000D01*
X8187226Y-7519964D01*
X8222132Y-7516167D01*
X8222795Y-7516059D01*
X8257087Y-7508510D01*
X8257731Y-7508331D01*
X8291006Y-7497120D01*
X8291630Y-7496871D01*
X8323496Y-7482128D01*
X8324090Y-7481814D01*
X8354176Y-7463712D01*
X8354730Y-7463336D01*
X8382685Y-7442086D01*
X8383195Y-7441652D01*
X8384274Y-7440630D01*
X8384274Y-7440629D01*
X8263418Y-7319773D01*
X8282487Y-7303487D01*
X8298773Y-7284418D01*
X8419356Y-7405000D01*
X8419356Y-7405000D01*
X8431879Y-7390257D01*
X8432285Y-7389722D01*
X8451990Y-7360661D01*
X8452335Y-7360087D01*
X8468783Y-7329063D01*
X8469064Y-7328455D01*
X8482060Y-7295837D01*
X8482275Y-7295200D01*
X8491668Y-7261368D01*
X8491813Y-7260713D01*
X8497493Y-7226063D01*
X8497566Y-7225396D01*
X8499466Y-7190336D01*
X8499466Y-7189664D01*
X8497566Y-7154604D01*
X8497493Y-7153937D01*
X8491813Y-7119287D01*
X8491668Y-7118631D01*
X8482275Y-7084800D01*
X8482060Y-7084163D01*
X8469064Y-7051545D01*
X8468783Y-7050937D01*
X8452335Y-7019913D01*
X8451990Y-7019339D01*
X8432285Y-6990277D01*
X8431879Y-6989743D01*
X8419356Y-6974999D01*
X8419356Y-6974999D01*
X8298773Y-7095582D01*
X8282487Y-7076513D01*
X8263418Y-7060227D01*
X8384274Y-6939370D01*
X8383194Y-6938347D01*
X8382684Y-6937914D01*
X8354730Y-6916664D01*
X8354176Y-6916288D01*
X8324090Y-6898186D01*
X8323496Y-6897871D01*
X8291630Y-6883129D01*
X8291006Y-6882880D01*
X8257731Y-6871668D01*
X8257087Y-6871489D01*
X8222795Y-6863941D01*
X8222132Y-6863832D01*
X8187226Y-6860036D01*
X8186556Y-6860000D01*
X8151444Y-6860000D01*
X8150774Y-6860036D01*
X8115868Y-6863832D01*
X8115205Y-6863941D01*
X8080913Y-6871489D01*
X8080268Y-6871668D01*
X8046994Y-6882880D01*
X8046369Y-6883129D01*
X8014504Y-6897871D01*
X8013910Y-6898186D01*
X7983824Y-6916288D01*
X7983269Y-6916664D01*
X7955315Y-6937915D01*
X7954805Y-6938347D01*
X7953726Y-6939370D01*
X7953725Y-6939370D01*
X8074582Y-7060227D01*
X8055513Y-7076513D01*
X8039227Y-7095582D01*
X7918644Y-6974999D01*
X7918644Y-6974999D01*
X7906121Y-6989743D01*
X7905715Y-6990277D01*
X7886010Y-7019339D01*
X7885665Y-7019913D01*
X7869217Y-7050937D01*
X7868936Y-7051545D01*
X7855940Y-7084163D01*
X7855725Y-7084800D01*
X7846332Y-7118631D01*
X7846187Y-7119287D01*
X7840507Y-7153937D01*
X7840434Y-7154604D01*
X7838533Y-7189664D01*
X7838533Y-7190336D01*
X7320314Y-7190336D01*
X7378269Y-7125089D01*
X7378547Y-7124786D01*
X7456172Y-7043125D01*
X7456455Y-7042837D01*
X7536798Y-6963839D01*
X7537095Y-6963557D01*
X7620054Y-6887325D01*
X7620361Y-6887052D01*
X7705849Y-6813662D01*
X7706164Y-6813401D01*
X7794081Y-6742942D01*
X7794404Y-6742692D01*
X7884651Y-6675242D01*
X7884984Y-6675001D01*
X7977459Y-6610637D01*
X7977800Y-6610408D01*
X8072390Y-6549208D01*
X8072742Y-6548988D01*
X8166345Y-6492817D01*
X8172726Y-6491050D01*
X13978031Y-6491050D01*
X13984735Y-6493018D01*
G37*
%TD.AperFunction*%
M02*
