M48
; DRILL file {KiCad 7.0.5-7.0.5~ubuntu20.04.1} date Thu Jul  6 15:08:56 2023
; FORMAT={-:-/ absolute / metric / decimal}
; #@! TF.CreationDate,2023-07-06T15:08:56+02:00
; #@! TF.GenerationSoftware,Kicad,Pcbnew,7.0.5-7.0.5~ubuntu20.04.1
; #@! TF.FileFunction,MixedPlating,1,2
FMAT,2
METRIC
; #@! TA.AperFunction,Plated,PTH,ViaDrill
T1C0.400
; #@! TA.AperFunction,Plated,PTH,ViaDrill
T2C0.800
; #@! TA.AperFunction,Plated,PTH,ComponentDrill
T3C0.950
; #@! TA.AperFunction,Plated,PTH,ComponentDrill
T4C1.000
; #@! TA.AperFunction,Plated,PTH,ComponentDrill
T5C3.200
%
G90
G05
T1
X4.762Y-34.426
X4.762Y-95.626
X4.762Y-156.826
X4.762Y-218.026
X4.762Y-279.226
X4.762Y-340.426
X4.762Y-401.626
X6.54Y-19.186
X6.54Y-80.386
X6.54Y-141.586
X6.54Y-202.786
X6.54Y-263.986
X6.54Y-325.186
X6.54Y-386.386
X7.048Y-43.57
X7.048Y-104.77
X7.048Y-165.97
X7.048Y-227.17
X7.048Y-288.37
X7.048Y-349.57
X7.048Y-410.77
X9.842Y-10.55
X9.842Y-71.75
X9.842Y-132.95
X9.842Y-194.15
X9.842Y-255.35
X9.842Y-316.55
X9.842Y-377.75
X31.94Y-29.346
X31.94Y-33.156
X31.94Y-90.546
X31.94Y-94.356
X31.94Y-151.746
X31.94Y-155.556
X31.94Y-212.946
X31.94Y-216.756
X31.94Y-274.146
X31.94Y-277.956
X31.94Y-335.346
X31.94Y-339.156
X31.94Y-396.546
X31.94Y-400.356
X39.052Y-54.746
X39.052Y-115.946
X39.052Y-177.146
X39.052Y-238.346
X39.052Y-299.546
X39.052Y-360.746
X39.052Y-421.946
X40.068Y-41.03
X40.068Y-102.23
X40.068Y-163.43
X40.068Y-224.63
X40.068Y-285.83
X40.068Y-347.03
X40.068Y-408.23
X43.878Y-8.264
X43.878Y-69.464
X43.878Y-130.664
X43.878Y-191.864
X43.878Y-253.064
X43.878Y-314.264
X43.878Y-375.464
X48.958Y-38.49
X48.958Y-99.69
X48.958Y-160.89
X48.958Y-222.09
X48.958Y-283.29
X48.958Y-344.49
X48.958Y-405.69
X50.736Y-8.264
X50.736Y-69.464
X50.736Y-130.664
X50.736Y-191.864
X50.736Y-253.064
X50.736Y-314.264
X50.736Y-375.464
X54.292Y-8.01
X54.292Y-55.254
X54.292Y-69.21
X54.292Y-116.454
X54.292Y-130.41
X54.292Y-177.654
X54.292Y-191.61
X54.292Y-238.854
X54.292Y-252.81
X54.292Y-300.054
X54.292Y-314.01
X54.292Y-361.254
X54.292Y-375.21
X54.292Y-422.454
X56.832Y-7.502
X56.832Y-68.702
X56.832Y-129.902
X56.832Y-191.102
X56.832Y-252.302
X56.832Y-313.502
X56.832Y-374.702
X58.7Y-6.3
X58.7Y-67.5
X58.7Y-128.7
X58.7Y-189.9
X58.7Y-251.1
X58.7Y-312.3
X58.7Y-373.5
X61.658Y-6.994
X61.658Y-68.194
X61.658Y-129.394
X61.658Y-190.594
X61.658Y-251.794
X61.658Y-312.994
X61.658Y-374.194
X63.69Y-38.998
X63.69Y-100.198
X63.69Y-161.398
X63.69Y-222.598
X63.69Y-283.798
X63.69Y-344.998
X63.69Y-406.198
X64.706Y-43.316
X64.706Y-104.516
X64.706Y-165.716
X64.706Y-226.916
X64.706Y-288.116
X64.706Y-349.316
X64.706Y-410.516
X68.5Y-29.9
X68.5Y-91.1
X68.5Y-152.3
X68.5Y-213.5
X68.5Y-274.7
X68.5Y-335.9
X68.5Y-397.1
X68.807Y-35.696
X68.807Y-96.896
X68.807Y-158.096
X68.807Y-219.296
X68.807Y-280.496
X68.807Y-341.696
X68.807Y-402.896
X69.278Y-11.058
X69.278Y-72.258
X69.278Y-133.458
X69.278Y-194.658
X69.278Y-255.858
X69.278Y-317.058
X69.278Y-378.258
X69.532Y-34.68
X69.532Y-95.88
X69.532Y-157.08
X69.532Y-218.28
X69.532Y-279.48
X69.532Y-340.68
X69.532Y-401.88
X71.3Y-35.9
X71.3Y-97.1
X71.3Y-158.3
X71.3Y-219.5
X71.3Y-280.7
X71.3Y-341.9
X71.3Y-403.1
X71.5Y-31.5
X71.5Y-92.7
X71.5Y-153.9
X71.5Y-215.1
X71.5Y-276.3
X71.5Y-337.5
X71.5Y-398.7
X72.834Y-47.888
X72.834Y-109.088
X72.834Y-170.288
X72.834Y-231.488
X72.834Y-292.688
X72.834Y-353.888
X72.834Y-415.088
X73.0Y-30.0
X73.0Y-91.2
X73.0Y-152.4
X73.0Y-213.6
X73.0Y-274.8
X73.0Y-336.0
X73.0Y-397.2
X73.342Y-45.856
X73.342Y-107.056
X73.342Y-168.256
X73.342Y-229.456
X73.342Y-290.656
X73.342Y-351.856
X73.342Y-413.056
X73.5Y-40.9
X73.5Y-102.1
X73.5Y-163.3
X73.5Y-224.5
X73.5Y-285.7
X73.5Y-346.9
X73.5Y-408.1
X73.655Y-37.291
X73.655Y-98.491
X73.655Y-159.691
X73.655Y-220.891
X73.655Y-282.091
X73.655Y-343.291
X73.655Y-404.491
X73.9Y-33.9
X73.9Y-95.1
X73.9Y-156.3
X73.9Y-217.5
X73.9Y-278.7
X73.9Y-339.9
X73.9Y-401.1
X74.612Y-36.966
X74.612Y-98.166
X74.612Y-159.366
X74.612Y-220.566
X74.612Y-281.766
X74.612Y-342.966
X74.612Y-404.166
X74.876Y-29.9
X74.876Y-91.1
X74.876Y-152.3
X74.876Y-213.5
X74.876Y-274.7
X74.876Y-335.9
X74.876Y-397.1
X75.12Y-16.138
X75.12Y-45.348
X75.12Y-77.338
X75.12Y-106.548
X75.12Y-138.538
X75.12Y-167.748
X75.12Y-199.738
X75.12Y-228.948
X75.12Y-260.938
X75.12Y-290.148
X75.12Y-322.138
X75.12Y-351.348
X75.12Y-383.338
X75.12Y-412.548
X75.5Y-31.3
X75.5Y-92.5
X75.5Y-153.7
X75.5Y-214.9
X75.5Y-276.1
X75.5Y-337.3
X75.5Y-398.5
X76.136Y-10.55
X76.136Y-71.75
X76.136Y-132.95
X76.136Y-194.15
X76.136Y-255.35
X76.136Y-316.55
X76.136Y-377.75
X76.898Y-18.17
X76.898Y-22.996
X76.898Y-79.37
X76.898Y-84.196
X76.898Y-140.57
X76.898Y-145.396
X76.898Y-201.77
X76.898Y-206.596
X76.898Y-262.97
X76.898Y-267.796
X76.898Y-324.17
X76.898Y-328.996
X76.898Y-385.37
X76.898Y-390.196
X77.148Y-37.978
X77.148Y-99.178
X77.148Y-160.378
X77.148Y-221.578
X77.148Y-282.778
X77.148Y-343.978
X77.148Y-405.178
X77.152Y-38.998
X77.152Y-100.198
X77.152Y-161.398
X77.152Y-222.598
X77.152Y-283.798
X77.152Y-344.998
X77.152Y-406.198
X77.575Y-33.985
X77.575Y-95.185
X77.575Y-156.385
X77.575Y-217.585
X77.575Y-278.785
X77.575Y-339.985
X77.575Y-401.185
X77.7Y-32.5
X77.7Y-93.7
X77.7Y-154.9
X77.7Y-216.1
X77.7Y-277.3
X77.7Y-338.5
X77.7Y-399.7
X78.9Y-19.3
X78.9Y-80.5
X78.9Y-141.7
X78.9Y-202.9
X78.9Y-264.1
X78.9Y-325.3
X78.9Y-386.5
X79.692Y-8.772
X79.692Y-69.972
X79.692Y-131.172
X79.692Y-192.372
X79.692Y-253.572
X79.692Y-314.772
X79.692Y-375.972
X80.3Y-20.9
X80.3Y-82.1
X80.3Y-143.3
X80.3Y-204.5
X80.3Y-265.7
X80.3Y-326.9
X80.3Y-388.1
X80.454Y-31.632
X80.454Y-92.832
X80.454Y-154.032
X80.454Y-215.232
X80.454Y-276.432
X80.454Y-337.632
X80.454Y-398.832
X80.7Y-28.9
X80.7Y-90.1
X80.7Y-151.3
X80.7Y-212.5
X80.7Y-273.7
X80.7Y-334.9
X80.7Y-396.1
X81.47Y-23.25
X81.47Y-48.142
X81.47Y-84.45
X81.47Y-109.342
X81.47Y-145.65
X81.47Y-170.542
X81.47Y-206.85
X81.47Y-231.742
X81.47Y-268.05
X81.47Y-292.942
X81.47Y-329.25
X81.47Y-354.142
X81.47Y-390.45
X81.47Y-415.342
X82.994Y-17.408
X82.994Y-78.608
X82.994Y-139.808
X82.994Y-201.008
X82.994Y-262.208
X82.994Y-323.408
X82.994Y-384.608
X83.1Y-34.1
X83.1Y-95.3
X83.1Y-156.5
X83.1Y-217.7
X83.1Y-278.9
X83.1Y-340.1
X83.1Y-401.3
X83.242Y-38.484
X83.242Y-99.684
X83.242Y-160.884
X83.242Y-222.084
X83.242Y-283.284
X83.242Y-344.484
X83.242Y-405.684
X83.248Y-26.806
X83.248Y-88.006
X83.248Y-149.206
X83.248Y-210.406
X83.248Y-271.606
X83.248Y-332.806
X83.248Y-394.006
X83.502Y-32.648
X83.502Y-43.824
X83.502Y-93.848
X83.502Y-105.024
X83.502Y-155.048
X83.502Y-166.224
X83.502Y-216.248
X83.502Y-227.424
X83.502Y-277.448
X83.502Y-288.624
X83.502Y-338.648
X83.502Y-349.824
X83.502Y-399.848
X83.502Y-411.024
X83.7Y-14.9
X83.7Y-76.1
X83.7Y-137.3
X83.7Y-198.5
X83.7Y-259.7
X83.7Y-320.9
X83.7Y-382.1
X83.756Y-44.84
X83.756Y-56.524
X83.756Y-106.04
X83.756Y-117.724
X83.756Y-167.24
X83.756Y-178.924
X83.756Y-228.44
X83.756Y-240.124
X83.756Y-289.64
X83.756Y-301.324
X83.756Y-350.84
X83.756Y-362.524
X83.756Y-412.04
X83.756Y-423.724
X83.793Y-37.474
X83.793Y-98.674
X83.793Y-159.874
X83.793Y-221.074
X83.793Y-282.274
X83.793Y-343.474
X83.793Y-404.674
X84.01Y-23.25
X84.01Y-84.45
X84.01Y-145.65
X84.01Y-206.85
X84.01Y-268.05
X84.01Y-329.25
X84.01Y-390.45
X84.588Y-45.394
X84.588Y-106.594
X84.588Y-167.794
X84.588Y-228.994
X84.588Y-290.194
X84.588Y-351.394
X84.588Y-412.594
X85.28Y-23.25
X85.28Y-84.45
X85.28Y-145.65
X85.28Y-206.85
X85.28Y-268.05
X85.28Y-329.25
X85.28Y-390.45
X85.543Y-42.808
X85.543Y-104.008
X85.543Y-165.208
X85.543Y-226.408
X85.543Y-287.608
X85.543Y-348.808
X85.543Y-410.008
X86.142Y-38.49
X86.142Y-99.69
X86.142Y-160.89
X86.142Y-222.09
X86.142Y-283.29
X86.142Y-344.49
X86.142Y-405.69
X86.296Y-32.648
X86.296Y-35.188
X86.296Y-93.848
X86.296Y-96.388
X86.296Y-155.048
X86.296Y-157.588
X86.296Y-216.248
X86.296Y-218.788
X86.296Y-277.448
X86.296Y-279.988
X86.296Y-338.648
X86.296Y-341.188
X86.296Y-399.848
X86.296Y-402.388
X86.736Y-23.181
X86.736Y-84.381
X86.736Y-145.581
X86.736Y-206.781
X86.736Y-267.981
X86.736Y-329.181
X86.736Y-390.381
X87.312Y-26.806
X87.312Y-88.006
X87.312Y-149.206
X87.312Y-210.406
X87.312Y-271.606
X87.312Y-332.806
X87.312Y-394.006
X87.566Y-9.788
X87.566Y-70.988
X87.566Y-132.188
X87.566Y-193.388
X87.566Y-254.588
X87.566Y-315.788
X87.566Y-376.988
X88.074Y-18.424
X88.074Y-31.923
X88.074Y-44.332
X88.074Y-79.624
X88.074Y-93.123
X88.074Y-105.532
X88.074Y-140.824
X88.074Y-154.323
X88.074Y-166.732
X88.074Y-202.024
X88.074Y-215.523
X88.074Y-227.932
X88.074Y-263.224
X88.074Y-276.723
X88.074Y-289.132
X88.074Y-324.424
X88.074Y-337.923
X88.074Y-350.332
X88.074Y-385.624
X88.074Y-399.123
X88.074Y-411.532
X88.1Y-34.9
X88.1Y-96.1
X88.1Y-157.3
X88.1Y-218.5
X88.1Y-279.7
X88.1Y-340.9
X88.1Y-402.1
X88.328Y-40.776
X88.328Y-101.976
X88.328Y-163.176
X88.328Y-224.376
X88.328Y-285.576
X88.328Y-346.776
X88.328Y-407.976
X89.09Y-29.6
X89.09Y-90.8
X89.09Y-152.0
X89.09Y-213.2
X89.09Y-274.4
X89.09Y-335.6
X89.09Y-396.8
X89.454Y-37.321
X89.454Y-98.521
X89.454Y-159.721
X89.454Y-220.921
X89.454Y-282.121
X89.454Y-343.321
X89.454Y-404.521
X89.852Y-18.678
X89.852Y-79.878
X89.852Y-141.078
X89.852Y-202.278
X89.852Y-263.478
X89.852Y-324.678
X89.852Y-385.878
X90.614Y-8.518
X90.614Y-69.718
X90.614Y-130.918
X90.614Y-192.118
X90.614Y-253.318
X90.614Y-314.518
X90.614Y-375.718
X90.904Y-37.22
X90.904Y-98.42
X90.904Y-159.62
X90.904Y-220.82
X90.904Y-282.02
X90.904Y-343.22
X90.904Y-404.42
X91.63Y-41.792
X91.63Y-102.992
X91.63Y-164.192
X91.63Y-225.392
X91.63Y-286.592
X91.63Y-347.792
X91.63Y-408.992
X91.884Y-8.518
X91.884Y-17.408
X91.884Y-69.718
X91.884Y-78.608
X91.884Y-130.918
X91.884Y-139.808
X91.884Y-192.118
X91.884Y-201.008
X91.884Y-253.318
X91.884Y-262.208
X91.884Y-314.518
X91.884Y-323.408
X91.884Y-375.718
X91.884Y-384.608
X93.154Y-8.518
X93.154Y-69.718
X93.154Y-130.918
X93.154Y-192.118
X93.154Y-253.318
X93.154Y-314.518
X93.154Y-375.718
X93.3Y-12.5
X93.3Y-73.7
X93.3Y-134.9
X93.3Y-196.1
X93.3Y-257.3
X93.3Y-318.5
X93.3Y-379.7
X93.662Y-47.221
X93.662Y-108.421
X93.662Y-169.621
X93.662Y-230.821
X93.662Y-292.021
X93.662Y-353.221
X93.662Y-414.421
X94.424Y-8.518
X94.424Y-13.889
X94.424Y-69.718
X94.424Y-75.089
X94.424Y-130.918
X94.424Y-136.289
X94.424Y-192.118
X94.424Y-197.489
X94.424Y-253.318
X94.424Y-258.689
X94.424Y-314.518
X94.424Y-319.889
X94.424Y-375.718
X94.424Y-381.089
X95.44Y-14.614
X95.44Y-75.814
X95.44Y-137.014
X95.44Y-198.214
X95.44Y-259.414
X95.44Y-320.614
X95.44Y-381.814
X95.694Y-19.44
X95.694Y-80.64
X95.694Y-141.84
X95.694Y-203.04
X95.694Y-264.24
X95.694Y-325.44
X95.694Y-386.64
X96.202Y-36.966
X96.202Y-98.166
X96.202Y-159.366
X96.202Y-220.566
X96.202Y-281.766
X96.202Y-342.966
X96.202Y-404.166
X96.5Y-30.7
X96.5Y-91.9
X96.5Y-153.1
X96.5Y-214.3
X96.5Y-275.5
X96.5Y-336.7
X96.5Y-397.9
X97.3Y-28.3
X97.3Y-89.5
X97.3Y-150.7
X97.3Y-211.9
X97.3Y-273.1
X97.3Y-334.3
X97.3Y-395.5
X97.976Y-15.634
X97.976Y-76.834
X97.976Y-138.034
X97.976Y-199.234
X97.976Y-260.434
X97.976Y-321.634
X97.976Y-382.834
X98.992Y-15.38
X98.992Y-76.58
X98.992Y-137.78
X98.992Y-198.98
X98.992Y-260.18
X98.992Y-321.38
X98.992Y-382.58
X100.012Y-22.234
X100.012Y-83.434
X100.012Y-144.634
X100.012Y-205.834
X100.012Y-267.034
X100.012Y-328.234
X100.012Y-389.434
X100.135Y-15.253
X100.135Y-76.453
X100.135Y-137.653
X100.135Y-198.853
X100.135Y-260.053
X100.135Y-321.253
X100.135Y-382.453
X101.536Y-52.206
X101.536Y-113.406
X101.536Y-174.606
X101.536Y-235.806
X101.536Y-297.006
X101.536Y-358.206
X101.536Y-419.406
X101.79Y-13.852
X101.79Y-15.884
X101.79Y-47.126
X101.79Y-48.396
X101.79Y-75.052
X101.79Y-77.084
X101.79Y-108.326
X101.79Y-109.596
X101.79Y-136.252
X101.79Y-138.284
X101.79Y-169.526
X101.79Y-170.796
X101.79Y-197.452
X101.79Y-199.484
X101.79Y-230.726
X101.79Y-231.996
X101.79Y-258.652
X101.79Y-260.684
X101.79Y-291.926
X101.79Y-293.196
X101.79Y-319.852
X101.79Y-321.884
X101.79Y-353.126
X101.79Y-354.396
X101.79Y-381.052
X101.79Y-383.084
X101.79Y-414.326
X101.79Y-415.596
X102.5Y-30.7
X102.5Y-91.9
X102.5Y-153.1
X102.5Y-214.3
X102.5Y-275.5
X102.5Y-336.7
X102.5Y-397.9
X104.1Y-23.9
X104.1Y-85.1
X104.1Y-146.3
X104.1Y-207.5
X104.1Y-268.7
X104.1Y-329.9
X104.1Y-391.1
X104.584Y-13.598
X104.584Y-74.798
X104.584Y-135.998
X104.584Y-197.198
X104.584Y-258.398
X104.584Y-319.598
X104.584Y-380.798
X105.854Y-33.41
X105.854Y-94.61
X105.854Y-155.81
X105.854Y-217.01
X105.854Y-278.21
X105.854Y-339.41
X105.854Y-400.61
X106.394Y-17.916
X106.394Y-79.116
X106.394Y-140.316
X106.394Y-201.516
X106.394Y-262.716
X106.394Y-323.916
X106.394Y-385.116
X106.87Y-10.55
X106.87Y-71.75
X106.87Y-132.95
X106.87Y-194.15
X106.87Y-255.35
X106.87Y-316.55
X106.87Y-377.75
X107.124Y-36.712
X107.124Y-97.912
X107.124Y-159.112
X107.124Y-220.312
X107.124Y-281.512
X107.124Y-342.712
X107.124Y-403.912
X110.426Y-48.396
X110.426Y-109.596
X110.426Y-170.796
X110.426Y-231.996
X110.426Y-293.196
X110.426Y-354.396
X110.426Y-415.596
X110.5Y-20.9
X110.5Y-82.1
X110.5Y-143.3
X110.5Y-204.5
X110.5Y-265.7
X110.5Y-326.9
X110.5Y-388.1
X111.188Y-37.474
X111.188Y-98.674
X111.188Y-159.874
X111.188Y-221.074
X111.188Y-282.274
X111.188Y-343.474
X111.188Y-404.674
X111.7Y-25.3
X111.7Y-86.5
X111.7Y-147.7
X111.7Y-208.9
X111.7Y-270.1
X111.7Y-331.3
X111.7Y-392.5
X113.9Y-46.1
X113.9Y-107.3
X113.9Y-168.5
X113.9Y-229.7
X113.9Y-290.9
X113.9Y-352.1
X113.9Y-413.3
X117.03Y-56.778
X117.03Y-117.978
X117.03Y-179.178
X117.03Y-240.378
X117.03Y-301.578
X117.03Y-362.778
X117.03Y-423.978
X119.824Y-10.55
X119.824Y-71.75
X119.824Y-132.95
X119.824Y-194.15
X119.824Y-255.35
X119.824Y-316.55
X119.824Y-377.75
X121.094Y-39.252
X121.094Y-100.452
X121.094Y-161.652
X121.094Y-222.852
X121.094Y-284.052
X121.094Y-345.252
X121.094Y-406.452
X123.126Y-12.074
X123.126Y-73.274
X123.126Y-134.474
X123.126Y-195.674
X123.126Y-256.874
X123.126Y-318.074
X123.126Y-379.274
X126.174Y-7.756
X126.174Y-68.956
X126.174Y-130.156
X126.174Y-191.356
X126.174Y-252.556
X126.174Y-313.756
X126.174Y-374.956
X131.0Y-28.584
X131.0Y-89.784
X131.0Y-150.984
X131.0Y-212.184
X131.0Y-273.384
X131.0Y-334.584
X131.0Y-395.784
X132.778Y-56.27
X132.778Y-117.47
X132.778Y-178.67
X132.778Y-239.87
X132.778Y-301.07
X132.778Y-362.27
X132.778Y-423.47
X140.144Y-3.692
X140.144Y-64.892
X140.144Y-126.092
X140.144Y-187.292
X140.144Y-248.492
X140.144Y-309.692
X140.144Y-370.892
X150.05Y-12.328
X150.05Y-73.528
X150.05Y-134.728
X150.05Y-195.928
X150.05Y-257.128
X150.05Y-318.328
X150.05Y-379.528
X153.86Y-42.808
X153.86Y-104.008
X153.86Y-165.208
X153.86Y-226.408
X153.86Y-287.608
X153.86Y-348.808
X153.86Y-410.008
X154.114Y-17.662
X154.114Y-78.862
X154.114Y-140.062
X154.114Y-201.262
X154.114Y-262.462
X154.114Y-323.662
X154.114Y-384.862
X155.384Y-34.426
X155.384Y-95.626
X155.384Y-156.826
X155.384Y-218.026
X155.384Y-279.226
X155.384Y-340.426
X155.384Y-401.626
T2
X21.958Y-450.04
X23.228Y-454.64
X24.706Y-449.915
X26.128Y-448.16
X27.308Y-459.81
X30.374Y-447.583
X35.618Y-448.26
X37.498Y-460.72
X49.898Y-435.34
X53.448Y-435.25
X58.618Y-434.94
X62.948Y-440.089
X66.955Y-463.617
X71.428Y-484.59
X71.968Y-458.41
X72.164Y-469.4
X72.938Y-467.72
X73.628Y-457.52
X74.028Y-455.32
X74.188Y-452.87
X74.557Y-465.373
X74.868Y-437.8
X75.788Y-468.14
X78.008Y-449.1
X79.508Y-450.37
X79.778Y-454.51
X81.688Y-451.909
X81.908Y-446.33
X82.148Y-462.68
X83.158Y-444.636
X83.158Y-441.69
X83.448Y-467.1
X84.248Y-457.4
X84.389Y-447.571
X84.598Y-453.22
X86.568Y-457.12
X88.023Y-437.247
X88.208Y-455.42
X89.218Y-446.14
X89.384Y-443.247
X89.428Y-438.45
X89.658Y-453.29
X91.108Y-437.16
X91.458Y-475.57
X91.718Y-450.65
X92.208Y-448.1
X92.828Y-443.86
X92.998Y-437.73
X94.088Y-450.89
X95.628Y-453.31
X97.328Y-443.16
X97.618Y-452.29
X97.998Y-449.84
X99.598Y-451.74
X100.768Y-449.96
X101.238Y-460.19
X102.048Y-451.94
X102.738Y-480.88
X103.098Y-471.95
X103.248Y-485.6
X104.098Y-474.54
X107.578Y-438.12
X108.548Y-443.6
X108.848Y-446.1
X110.288Y-459.63
X112.348Y-447.1
X114.548Y-447.2
X119.228Y-442.18
X121.588Y-450.29
X123.838Y-458.24
X124.708Y-442.22
X128.948Y-459.04
X129.178Y-454.63
X132.148Y-447.65
X132.928Y-463.58
X136.198Y-454.33
X183.158Y-21.64
X183.158Y-82.84
X183.158Y-141.84
X183.158Y-200.84
X183.158Y-259.84
X183.158Y-318.84
X183.158Y-377.84
X183.158Y-436.84
X184.428Y-26.24
X184.428Y-87.44
X184.428Y-146.44
X184.428Y-205.44
X184.428Y-264.44
X184.428Y-323.44
X184.428Y-382.44
X184.428Y-441.44
X185.906Y-21.515
X185.906Y-82.715
X185.906Y-141.715
X185.906Y-200.715
X185.906Y-259.715
X185.906Y-318.715
X185.906Y-377.715
X185.906Y-436.715
X187.328Y-19.76
X187.328Y-80.96
X187.328Y-139.96
X187.328Y-198.96
X187.328Y-257.96
X187.328Y-316.96
X187.328Y-375.96
X187.328Y-434.96
X188.508Y-31.41
X188.508Y-92.61
X188.508Y-151.61
X188.508Y-210.61
X188.508Y-269.61
X188.508Y-328.61
X188.508Y-387.61
X188.508Y-446.61
X191.573Y-19.183
X191.573Y-80.383
X191.573Y-139.383
X191.573Y-198.383
X191.573Y-257.383
X191.573Y-316.383
X191.573Y-375.383
X191.573Y-434.383
X196.818Y-19.86
X196.818Y-81.06
X196.818Y-140.06
X196.818Y-199.06
X196.818Y-258.06
X196.818Y-317.06
X196.818Y-376.06
X196.818Y-435.06
X198.698Y-32.32
X198.698Y-93.52
X198.698Y-152.52
X198.698Y-211.52
X198.698Y-270.52
X198.698Y-329.52
X198.698Y-388.52
X198.698Y-447.52
X211.098Y-6.94
X211.098Y-68.14
X211.098Y-127.14
X211.098Y-186.14
X211.098Y-245.14
X211.098Y-304.14
X211.098Y-363.14
X211.098Y-422.14
X214.648Y-6.85
X214.648Y-68.05
X214.648Y-127.05
X214.648Y-186.05
X214.648Y-245.05
X214.648Y-304.05
X214.648Y-363.05
X214.648Y-422.05
X219.818Y-6.54
X219.818Y-67.74
X219.818Y-126.74
X219.818Y-185.74
X219.818Y-244.74
X219.818Y-303.74
X219.818Y-362.74
X219.818Y-421.74
X224.148Y-11.689
X224.148Y-72.889
X224.148Y-131.889
X224.148Y-190.889
X224.148Y-249.889
X224.148Y-308.889
X224.148Y-367.889
X224.148Y-426.889
X228.155Y-35.217
X228.155Y-96.417
X228.155Y-155.417
X228.155Y-214.417
X228.155Y-273.417
X228.155Y-332.417
X228.155Y-391.417
X228.155Y-450.417
X232.628Y-56.19
X232.628Y-117.39
X232.628Y-176.39
X232.628Y-235.39
X232.628Y-294.39
X232.628Y-353.39
X232.628Y-412.39
X232.628Y-471.39
X233.168Y-30.01
X233.168Y-91.21
X233.168Y-150.21
X233.168Y-209.21
X233.168Y-268.21
X233.168Y-327.21
X233.168Y-386.21
X233.168Y-445.21
X233.364Y-41.0
X233.364Y-102.2
X233.364Y-161.2
X233.364Y-220.2
X233.364Y-279.2
X233.364Y-338.2
X233.364Y-397.2
X233.364Y-456.2
X234.138Y-39.32
X234.138Y-100.52
X234.138Y-159.52
X234.138Y-218.52
X234.138Y-277.52
X234.138Y-336.52
X234.138Y-395.52
X234.138Y-454.52
X234.828Y-29.12
X234.828Y-90.32
X234.828Y-149.32
X234.828Y-208.32
X234.828Y-267.32
X234.828Y-326.32
X234.828Y-385.32
X234.828Y-444.32
X235.228Y-26.92
X235.228Y-88.12
X235.228Y-147.12
X235.228Y-206.12
X235.228Y-265.12
X235.228Y-324.12
X235.228Y-383.12
X235.228Y-442.12
X235.388Y-24.47
X235.388Y-85.67
X235.388Y-144.67
X235.388Y-203.67
X235.388Y-262.67
X235.388Y-321.67
X235.388Y-380.67
X235.388Y-439.67
X235.757Y-36.973
X235.757Y-98.173
X235.757Y-157.173
X235.757Y-216.173
X235.757Y-275.173
X235.757Y-334.173
X235.757Y-393.173
X235.757Y-452.173
X236.068Y-9.4
X236.068Y-70.6
X236.068Y-129.6
X236.068Y-188.6
X236.068Y-247.6
X236.068Y-306.6
X236.068Y-365.6
X236.068Y-424.6
X236.988Y-39.74
X236.988Y-100.94
X236.988Y-159.94
X236.988Y-218.94
X236.988Y-277.94
X236.988Y-336.94
X236.988Y-395.94
X236.988Y-454.94
X239.208Y-20.7
X239.208Y-81.9
X239.208Y-140.9
X239.208Y-199.9
X239.208Y-258.9
X239.208Y-317.9
X239.208Y-376.9
X239.208Y-435.9
X240.708Y-21.97
X240.708Y-83.17
X240.708Y-142.17
X240.708Y-201.17
X240.708Y-260.17
X240.708Y-319.17
X240.708Y-378.17
X240.708Y-437.17
X240.978Y-26.11
X240.978Y-87.31
X240.978Y-146.31
X240.978Y-205.31
X240.978Y-264.31
X240.978Y-323.31
X240.978Y-382.31
X240.978Y-441.31
X242.888Y-23.509
X242.888Y-84.709
X242.888Y-143.709
X242.888Y-202.709
X242.888Y-261.709
X242.888Y-320.709
X242.888Y-379.709
X242.888Y-438.709
X243.108Y-17.93
X243.108Y-79.13
X243.108Y-138.13
X243.108Y-197.13
X243.108Y-256.13
X243.108Y-315.13
X243.108Y-374.13
X243.108Y-433.13
X243.348Y-34.28
X243.348Y-95.48
X243.348Y-154.48
X243.348Y-213.48
X243.348Y-272.48
X243.348Y-331.48
X243.348Y-390.48
X243.348Y-449.48
X244.358Y-16.236
X244.358Y-77.436
X244.358Y-136.436
X244.358Y-195.436
X244.358Y-254.436
X244.358Y-313.436
X244.358Y-372.436
X244.358Y-431.436
X244.358Y-13.29
X244.358Y-74.49
X244.358Y-133.49
X244.358Y-192.49
X244.358Y-251.49
X244.358Y-310.49
X244.358Y-369.49
X244.358Y-428.49
X244.648Y-38.7
X244.648Y-99.9
X244.648Y-158.9
X244.648Y-217.9
X244.648Y-276.9
X244.648Y-335.9
X244.648Y-394.9
X244.648Y-453.9
X245.448Y-29.0
X245.448Y-90.2
X245.448Y-149.2
X245.448Y-208.2
X245.448Y-267.2
X245.448Y-326.2
X245.448Y-385.2
X245.448Y-444.2
X245.589Y-19.171
X245.589Y-80.371
X245.589Y-139.371
X245.589Y-198.371
X245.589Y-257.371
X245.589Y-316.371
X245.589Y-375.371
X245.589Y-434.371
X245.798Y-24.82
X245.798Y-86.02
X245.798Y-145.02
X245.798Y-204.02
X245.798Y-263.02
X245.798Y-322.02
X245.798Y-381.02
X245.798Y-440.02
X247.768Y-28.72
X247.768Y-89.92
X247.768Y-148.92
X247.768Y-207.92
X247.768Y-266.92
X247.768Y-325.92
X247.768Y-384.92
X247.768Y-443.92
X249.223Y-8.847
X249.223Y-70.047
X249.223Y-129.047
X249.223Y-188.047
X249.223Y-247.047
X249.223Y-306.047
X249.223Y-365.047
X249.223Y-424.047
X249.408Y-27.02
X249.408Y-88.22
X249.408Y-147.22
X249.408Y-206.22
X249.408Y-265.22
X249.408Y-324.22
X249.408Y-383.22
X249.408Y-442.22
X250.418Y-17.74
X250.418Y-78.94
X250.418Y-137.94
X250.418Y-196.94
X250.418Y-255.94
X250.418Y-314.94
X250.418Y-373.94
X250.418Y-432.94
X250.584Y-14.847
X250.584Y-76.047
X250.584Y-135.047
X250.584Y-194.047
X250.584Y-253.047
X250.584Y-312.047
X250.584Y-371.047
X250.584Y-430.047
X250.628Y-10.05
X250.628Y-71.25
X250.628Y-130.25
X250.628Y-189.25
X250.628Y-248.25
X250.628Y-307.25
X250.628Y-366.25
X250.628Y-425.25
X250.858Y-24.89
X250.858Y-86.09
X250.858Y-145.09
X250.858Y-204.09
X250.858Y-263.09
X250.858Y-322.09
X250.858Y-381.09
X250.858Y-440.09
X252.308Y-8.76
X252.308Y-69.96
X252.308Y-128.96
X252.308Y-187.96
X252.308Y-246.96
X252.308Y-305.96
X252.308Y-364.96
X252.308Y-423.96
X252.658Y-47.17
X252.658Y-108.37
X252.658Y-167.37
X252.658Y-226.37
X252.658Y-285.37
X252.658Y-344.37
X252.658Y-403.37
X252.658Y-462.37
X252.918Y-22.25
X252.918Y-83.45
X252.918Y-142.45
X252.918Y-201.45
X252.918Y-260.45
X252.918Y-319.45
X252.918Y-378.45
X252.918Y-437.45
X253.408Y-19.7
X253.408Y-80.9
X253.408Y-139.9
X253.408Y-198.9
X253.408Y-257.9
X253.408Y-316.9
X253.408Y-375.9
X253.408Y-434.9
X254.028Y-15.46
X254.028Y-76.66
X254.028Y-135.66
X254.028Y-194.66
X254.028Y-253.66
X254.028Y-312.66
X254.028Y-371.66
X254.028Y-430.66
X254.198Y-9.33
X254.198Y-70.53
X254.198Y-129.53
X254.198Y-188.53
X254.198Y-247.53
X254.198Y-306.53
X254.198Y-365.53
X254.198Y-424.53
X255.288Y-22.49
X255.288Y-83.69
X255.288Y-142.69
X255.288Y-201.69
X255.288Y-260.69
X255.288Y-319.69
X255.288Y-378.69
X255.288Y-437.69
X256.828Y-24.91
X256.828Y-86.11
X256.828Y-145.11
X256.828Y-204.11
X256.828Y-263.11
X256.828Y-322.11
X256.828Y-381.11
X256.828Y-440.11
X258.528Y-14.76
X258.528Y-75.96
X258.528Y-134.96
X258.528Y-193.96
X258.528Y-252.96
X258.528Y-311.96
X258.528Y-370.96
X258.528Y-429.96
X258.818Y-23.89
X258.818Y-85.09
X258.818Y-144.09
X258.818Y-203.09
X258.818Y-262.09
X258.818Y-321.09
X258.818Y-380.09
X258.818Y-439.09
X259.198Y-21.44
X259.198Y-82.64
X259.198Y-141.64
X259.198Y-200.64
X259.198Y-259.64
X259.198Y-318.64
X259.198Y-377.64
X259.198Y-436.64
X260.798Y-23.34
X260.798Y-84.54
X260.798Y-143.54
X260.798Y-202.54
X260.798Y-261.54
X260.798Y-320.54
X260.798Y-379.54
X260.798Y-438.54
X261.968Y-21.56
X261.968Y-82.76
X261.968Y-141.76
X261.968Y-200.76
X261.968Y-259.76
X261.968Y-318.76
X261.968Y-377.76
X261.968Y-436.76
X262.438Y-31.79
X262.438Y-92.99
X262.438Y-151.99
X262.438Y-210.99
X262.438Y-269.99
X262.438Y-328.99
X262.438Y-387.99
X262.438Y-446.99
X263.248Y-23.54
X263.248Y-84.74
X263.248Y-143.74
X263.248Y-202.74
X263.248Y-261.74
X263.248Y-320.74
X263.248Y-379.74
X263.248Y-438.74
X263.938Y-52.48
X263.938Y-113.68
X263.938Y-172.68
X263.938Y-231.68
X263.938Y-290.68
X263.938Y-349.68
X263.938Y-408.68
X263.938Y-467.68
X264.298Y-43.55
X264.298Y-104.75
X264.298Y-163.75
X264.298Y-222.75
X264.298Y-281.75
X264.298Y-340.75
X264.298Y-399.75
X264.298Y-458.75
X264.448Y-57.2
X264.448Y-118.4
X264.448Y-177.4
X264.448Y-236.4
X264.448Y-295.4
X264.448Y-354.4
X264.448Y-413.4
X264.448Y-472.4
X265.298Y-46.14
X265.298Y-107.34
X265.298Y-166.34
X265.298Y-225.34
X265.298Y-284.34
X265.298Y-343.34
X265.298Y-402.34
X265.298Y-461.34
X268.778Y-9.72
X268.778Y-70.92
X268.778Y-129.92
X268.778Y-188.92
X268.778Y-247.92
X268.778Y-306.92
X268.778Y-365.92
X268.778Y-424.92
X269.748Y-15.2
X269.748Y-76.4
X269.748Y-135.4
X269.748Y-194.4
X269.748Y-253.4
X269.748Y-312.4
X269.748Y-371.4
X269.748Y-430.4
X270.048Y-17.7
X270.048Y-78.9
X270.048Y-137.9
X270.048Y-196.9
X270.048Y-255.9
X270.048Y-314.9
X270.048Y-373.9
X270.048Y-432.9
X271.488Y-31.23
X271.488Y-92.43
X271.488Y-151.43
X271.488Y-210.43
X271.488Y-269.43
X271.488Y-328.43
X271.488Y-387.43
X271.488Y-446.43
X273.548Y-18.7
X273.548Y-79.9
X273.548Y-138.9
X273.548Y-197.9
X273.548Y-256.9
X273.548Y-315.9
X273.548Y-374.9
X273.548Y-433.9
X275.748Y-18.8
X275.748Y-80.0
X275.748Y-139.0
X275.748Y-198.0
X275.748Y-257.0
X275.748Y-316.0
X275.748Y-375.0
X275.748Y-434.0
X280.428Y-13.78
X280.428Y-74.98
X280.428Y-133.98
X280.428Y-192.98
X280.428Y-251.98
X280.428Y-310.98
X280.428Y-369.98
X280.428Y-428.98
X282.788Y-21.89
X282.788Y-83.09
X282.788Y-142.09
X282.788Y-201.09
X282.788Y-260.09
X282.788Y-319.09
X282.788Y-378.09
X282.788Y-437.09
X285.038Y-29.84
X285.038Y-91.04
X285.038Y-150.04
X285.038Y-209.04
X285.038Y-268.04
X285.038Y-327.04
X285.038Y-386.04
X285.038Y-445.04
X285.908Y-13.82
X285.908Y-75.02
X285.908Y-134.02
X285.908Y-193.02
X285.908Y-252.02
X285.908Y-311.02
X285.908Y-370.02
X285.908Y-429.02
X290.148Y-30.64
X290.148Y-91.84
X290.148Y-150.84
X290.148Y-209.84
X290.148Y-268.84
X290.148Y-327.84
X290.148Y-386.84
X290.148Y-445.84
X290.378Y-26.23
X290.378Y-87.43
X290.378Y-146.43
X290.378Y-205.43
X290.378Y-264.43
X290.378Y-323.43
X290.378Y-382.43
X290.378Y-441.43
X293.348Y-19.25
X293.348Y-80.45
X293.348Y-139.45
X293.348Y-198.45
X293.348Y-257.45
X293.348Y-316.45
X293.348Y-375.45
X293.348Y-434.45
X294.128Y-35.18
X294.128Y-96.38
X294.128Y-155.38
X294.128Y-214.38
X294.128Y-273.38
X294.128Y-332.38
X294.128Y-391.38
X294.128Y-450.38
X297.398Y-25.93
X297.398Y-87.13
X297.398Y-146.13
X297.398Y-205.13
X297.398Y-264.13
X297.398Y-323.13
X297.398Y-382.13
X297.398Y-441.13
X341.635Y-21.64
X341.635Y-82.84
X341.635Y-141.84
X341.635Y-200.84
X341.635Y-259.84
X341.635Y-318.84
X341.635Y-377.84
X341.635Y-436.84
X342.905Y-26.24
X342.905Y-87.44
X342.905Y-146.44
X342.905Y-205.44
X342.905Y-264.44
X342.905Y-323.44
X342.905Y-382.44
X342.905Y-441.44
X344.383Y-21.515
X344.383Y-82.715
X344.383Y-141.715
X344.383Y-200.715
X344.383Y-259.715
X344.383Y-318.715
X344.383Y-377.715
X344.383Y-436.715
X345.805Y-19.76
X345.805Y-80.96
X345.805Y-139.96
X345.805Y-198.96
X345.805Y-257.96
X345.805Y-316.96
X345.805Y-375.96
X345.805Y-434.96
X346.985Y-31.41
X346.985Y-92.61
X346.985Y-151.61
X346.985Y-210.61
X346.985Y-269.61
X346.985Y-328.61
X346.985Y-387.61
X346.985Y-446.61
X350.05Y-19.183
X350.05Y-80.383
X350.05Y-139.383
X350.05Y-198.383
X350.05Y-257.383
X350.05Y-316.383
X350.05Y-375.383
X350.05Y-434.383
X355.295Y-19.86
X355.295Y-81.06
X355.295Y-140.06
X355.295Y-199.06
X355.295Y-258.06
X355.295Y-317.06
X355.295Y-376.06
X355.295Y-435.06
X357.175Y-32.32
X357.175Y-93.52
X357.175Y-152.52
X357.175Y-211.52
X357.175Y-270.52
X357.175Y-329.52
X357.175Y-388.52
X357.175Y-447.52
X369.575Y-6.94
X369.575Y-68.14
X369.575Y-127.14
X369.575Y-186.14
X369.575Y-245.14
X369.575Y-304.14
X369.575Y-363.14
X369.575Y-422.14
X373.125Y-6.85
X373.125Y-68.05
X373.125Y-127.05
X373.125Y-186.05
X373.125Y-245.05
X373.125Y-304.05
X373.125Y-363.05
X373.125Y-422.05
X378.295Y-6.54
X378.295Y-67.74
X378.295Y-126.74
X378.295Y-185.74
X378.295Y-244.74
X378.295Y-303.74
X378.295Y-362.74
X378.295Y-421.74
X382.625Y-11.689
X382.625Y-72.889
X382.625Y-131.889
X382.625Y-190.889
X382.625Y-249.889
X382.625Y-308.889
X382.625Y-367.889
X382.625Y-426.889
X386.632Y-35.217
X386.632Y-96.417
X386.632Y-155.417
X386.632Y-214.417
X386.632Y-273.417
X386.632Y-332.417
X386.632Y-391.417
X386.632Y-450.417
X391.105Y-56.19
X391.105Y-117.39
X391.105Y-176.39
X391.105Y-235.39
X391.105Y-294.39
X391.105Y-353.39
X391.105Y-412.39
X391.105Y-471.39
X391.645Y-30.01
X391.645Y-91.21
X391.645Y-150.21
X391.645Y-209.21
X391.645Y-268.21
X391.645Y-327.21
X391.645Y-386.21
X391.645Y-445.21
X391.84Y-41.0
X391.84Y-102.2
X391.84Y-161.2
X391.84Y-220.2
X391.84Y-279.2
X391.84Y-338.2
X391.84Y-397.2
X391.84Y-456.2
X392.615Y-39.32
X392.615Y-100.52
X392.615Y-159.52
X392.615Y-218.52
X392.615Y-277.52
X392.615Y-336.52
X392.615Y-395.52
X392.615Y-454.52
X393.305Y-29.12
X393.305Y-90.32
X393.305Y-149.32
X393.305Y-208.32
X393.305Y-267.32
X393.305Y-326.32
X393.305Y-385.32
X393.305Y-444.32
X393.705Y-26.92
X393.705Y-88.12
X393.705Y-147.12
X393.705Y-206.12
X393.705Y-265.12
X393.705Y-324.12
X393.705Y-383.12
X393.705Y-442.12
X393.865Y-24.47
X393.865Y-85.67
X393.865Y-144.67
X393.865Y-203.67
X393.865Y-262.67
X393.865Y-321.67
X393.865Y-380.67
X393.865Y-439.67
X394.233Y-36.973
X394.233Y-98.173
X394.233Y-157.173
X394.233Y-216.173
X394.233Y-275.173
X394.233Y-334.173
X394.233Y-393.173
X394.233Y-452.173
X394.545Y-9.4
X394.545Y-70.6
X394.545Y-129.6
X394.545Y-188.6
X394.545Y-247.6
X394.545Y-306.6
X394.545Y-365.6
X394.545Y-424.6
X395.465Y-39.74
X395.465Y-100.94
X395.465Y-159.94
X395.465Y-218.94
X395.465Y-277.94
X395.465Y-336.94
X395.465Y-395.94
X395.465Y-454.94
X397.685Y-20.7
X397.685Y-81.9
X397.685Y-140.9
X397.685Y-199.9
X397.685Y-258.9
X397.685Y-317.9
X397.685Y-376.9
X397.685Y-435.9
X399.185Y-21.97
X399.185Y-83.17
X399.185Y-142.17
X399.185Y-201.17
X399.185Y-260.17
X399.185Y-319.17
X399.185Y-378.17
X399.185Y-437.17
X399.455Y-26.11
X399.455Y-87.31
X399.455Y-146.31
X399.455Y-205.31
X399.455Y-264.31
X399.455Y-323.31
X399.455Y-382.31
X399.455Y-441.31
X401.365Y-23.509
X401.365Y-84.709
X401.365Y-143.709
X401.365Y-202.709
X401.365Y-261.709
X401.365Y-320.709
X401.365Y-379.709
X401.365Y-438.709
X401.585Y-17.93
X401.585Y-79.13
X401.585Y-138.13
X401.585Y-197.13
X401.585Y-256.13
X401.585Y-315.13
X401.585Y-374.13
X401.585Y-433.13
X401.825Y-34.28
X401.825Y-95.48
X401.825Y-154.48
X401.825Y-213.48
X401.825Y-272.48
X401.825Y-331.48
X401.825Y-390.48
X401.825Y-449.48
X402.834Y-16.236
X402.834Y-77.436
X402.834Y-136.436
X402.834Y-195.436
X402.834Y-254.436
X402.834Y-313.436
X402.834Y-372.436
X402.834Y-431.436
X402.835Y-13.29
X402.835Y-74.49
X402.835Y-133.49
X402.835Y-192.49
X402.835Y-251.49
X402.835Y-310.49
X402.835Y-369.49
X402.835Y-428.49
X403.125Y-38.7
X403.125Y-99.9
X403.125Y-158.9
X403.125Y-217.9
X403.125Y-276.9
X403.125Y-335.9
X403.125Y-394.9
X403.125Y-453.9
X403.925Y-29.0
X403.925Y-90.2
X403.925Y-149.2
X403.925Y-208.2
X403.925Y-267.2
X403.925Y-326.2
X403.925Y-385.2
X403.925Y-444.2
X404.066Y-19.171
X404.066Y-80.371
X404.066Y-139.371
X404.066Y-198.371
X404.066Y-257.371
X404.066Y-316.371
X404.066Y-375.371
X404.066Y-434.371
X404.275Y-24.82
X404.275Y-86.02
X404.275Y-145.02
X404.275Y-204.02
X404.275Y-263.02
X404.275Y-322.02
X404.275Y-381.02
X404.275Y-440.02
X406.245Y-28.72
X406.245Y-89.92
X406.245Y-148.92
X406.245Y-207.92
X406.245Y-266.92
X406.245Y-325.92
X406.245Y-384.92
X406.245Y-443.92
X407.7Y-8.847
X407.7Y-70.047
X407.7Y-129.047
X407.7Y-188.047
X407.7Y-247.047
X407.7Y-306.047
X407.7Y-365.047
X407.7Y-424.047
X407.885Y-27.02
X407.885Y-88.22
X407.885Y-147.22
X407.885Y-206.22
X407.885Y-265.22
X407.885Y-324.22
X407.885Y-383.22
X407.885Y-442.22
X408.895Y-17.74
X408.895Y-78.94
X408.895Y-137.94
X408.895Y-196.94
X408.895Y-255.94
X408.895Y-314.94
X408.895Y-373.94
X408.895Y-432.94
X409.061Y-14.847
X409.061Y-76.047
X409.061Y-135.047
X409.061Y-194.047
X409.061Y-253.047
X409.061Y-312.047
X409.061Y-371.047
X409.061Y-430.047
X409.105Y-10.05
X409.105Y-71.25
X409.105Y-130.25
X409.105Y-189.25
X409.105Y-248.25
X409.105Y-307.25
X409.105Y-366.25
X409.105Y-425.25
X409.335Y-24.89
X409.335Y-86.09
X409.335Y-145.09
X409.335Y-204.09
X409.335Y-263.09
X409.335Y-322.09
X409.335Y-381.09
X409.335Y-440.09
X410.785Y-8.76
X410.785Y-69.96
X410.785Y-128.96
X410.785Y-187.96
X410.785Y-246.96
X410.785Y-305.96
X410.785Y-364.96
X410.785Y-423.96
X411.135Y-47.17
X411.135Y-108.37
X411.135Y-167.37
X411.135Y-226.37
X411.135Y-285.37
X411.135Y-344.37
X411.135Y-403.37
X411.135Y-462.37
X411.395Y-22.25
X411.395Y-83.45
X411.395Y-142.45
X411.395Y-201.45
X411.395Y-260.45
X411.395Y-319.45
X411.395Y-378.45
X411.395Y-437.45
X411.885Y-19.7
X411.885Y-80.9
X411.885Y-139.9
X411.885Y-198.9
X411.885Y-257.9
X411.885Y-316.9
X411.885Y-375.9
X411.885Y-434.9
X412.505Y-15.46
X412.505Y-76.66
X412.505Y-135.66
X412.505Y-194.66
X412.505Y-253.66
X412.505Y-312.66
X412.505Y-371.66
X412.505Y-430.66
X412.675Y-9.33
X412.675Y-70.53
X412.675Y-129.53
X412.675Y-188.53
X412.675Y-247.53
X412.675Y-306.53
X412.675Y-365.53
X412.675Y-424.53
X413.765Y-22.49
X413.765Y-83.69
X413.765Y-142.69
X413.765Y-201.69
X413.765Y-260.69
X413.765Y-319.69
X413.765Y-378.69
X413.765Y-437.69
X415.305Y-24.91
X415.305Y-86.11
X415.305Y-145.11
X415.305Y-204.11
X415.305Y-263.11
X415.305Y-322.11
X415.305Y-381.11
X415.305Y-440.11
X417.005Y-14.76
X417.005Y-75.96
X417.005Y-134.96
X417.005Y-193.96
X417.005Y-252.96
X417.005Y-311.96
X417.005Y-370.96
X417.005Y-429.96
X417.295Y-23.89
X417.295Y-85.09
X417.295Y-144.09
X417.295Y-203.09
X417.295Y-262.09
X417.295Y-321.09
X417.295Y-380.09
X417.295Y-439.09
X417.674Y-21.44
X417.674Y-82.64
X417.674Y-141.64
X417.674Y-200.64
X417.674Y-259.64
X417.674Y-318.64
X417.674Y-377.64
X417.674Y-436.64
X419.275Y-23.34
X419.275Y-84.54
X419.275Y-143.54
X419.275Y-202.54
X419.275Y-261.54
X419.275Y-320.54
X419.275Y-379.54
X419.275Y-438.54
X420.445Y-21.56
X420.445Y-82.76
X420.445Y-141.76
X420.445Y-200.76
X420.445Y-259.76
X420.445Y-318.76
X420.445Y-377.76
X420.445Y-436.76
X420.915Y-31.79
X420.915Y-92.99
X420.915Y-151.99
X420.915Y-210.99
X420.915Y-269.99
X420.915Y-328.99
X420.915Y-387.99
X420.915Y-446.99
X421.725Y-23.54
X421.725Y-84.74
X421.725Y-143.74
X421.725Y-202.74
X421.725Y-261.74
X421.725Y-320.74
X421.725Y-379.74
X421.725Y-438.74
X422.415Y-52.48
X422.415Y-113.68
X422.415Y-172.68
X422.415Y-231.68
X422.415Y-290.68
X422.415Y-349.68
X422.415Y-408.68
X422.415Y-467.68
X422.775Y-43.55
X422.775Y-104.75
X422.775Y-163.75
X422.775Y-222.75
X422.775Y-281.75
X422.775Y-340.75
X422.775Y-399.75
X422.775Y-458.75
X422.925Y-57.2
X422.925Y-118.4
X422.925Y-177.4
X422.925Y-236.4
X422.925Y-295.4
X422.925Y-354.4
X422.925Y-413.4
X422.925Y-472.4
X423.775Y-46.14
X423.775Y-107.34
X423.775Y-166.34
X423.775Y-225.34
X423.775Y-284.34
X423.775Y-343.34
X423.775Y-402.34
X423.775Y-461.34
X427.255Y-9.72
X427.255Y-70.92
X427.255Y-129.92
X427.255Y-188.92
X427.255Y-247.92
X427.255Y-306.92
X427.255Y-365.92
X427.255Y-424.92
X428.225Y-15.2
X428.225Y-76.4
X428.225Y-135.4
X428.225Y-194.4
X428.225Y-253.4
X428.225Y-312.4
X428.225Y-371.4
X428.225Y-430.4
X428.525Y-17.7
X428.525Y-78.9
X428.525Y-137.9
X428.525Y-196.9
X428.525Y-255.9
X428.525Y-314.9
X428.525Y-373.9
X428.525Y-432.9
X429.965Y-31.23
X429.965Y-92.43
X429.965Y-151.43
X429.965Y-210.43
X429.965Y-269.43
X429.965Y-328.43
X429.965Y-387.43
X429.965Y-446.43
X432.025Y-18.7
X432.025Y-79.9
X432.025Y-138.9
X432.025Y-197.9
X432.025Y-256.9
X432.025Y-315.9
X432.025Y-374.9
X432.025Y-433.9
X434.225Y-18.8
X434.225Y-80.0
X434.225Y-139.0
X434.225Y-198.0
X434.225Y-257.0
X434.225Y-316.0
X434.225Y-375.0
X434.225Y-434.0
X438.905Y-13.78
X438.905Y-74.98
X438.905Y-133.98
X438.905Y-192.98
X438.905Y-251.98
X438.905Y-310.98
X438.905Y-369.98
X438.905Y-428.98
X441.265Y-21.89
X441.265Y-83.09
X441.265Y-142.09
X441.265Y-201.09
X441.265Y-260.09
X441.265Y-319.09
X441.265Y-378.09
X441.265Y-437.09
X443.515Y-29.84
X443.515Y-91.04
X443.515Y-150.04
X443.515Y-209.04
X443.515Y-268.04
X443.515Y-327.04
X443.515Y-386.04
X443.515Y-445.04
X444.385Y-13.82
X444.385Y-75.02
X444.385Y-134.02
X444.385Y-193.02
X444.385Y-252.02
X444.385Y-311.02
X444.385Y-370.02
X444.385Y-429.02
X448.625Y-30.64
X448.625Y-91.84
X448.625Y-150.84
X448.625Y-209.84
X448.625Y-268.84
X448.625Y-327.84
X448.625Y-386.84
X448.625Y-445.84
X448.855Y-26.23
X448.855Y-87.43
X448.855Y-146.43
X448.855Y-205.43
X448.855Y-264.43
X448.855Y-323.43
X448.855Y-382.43
X448.855Y-441.43
X451.825Y-19.25
X451.825Y-80.45
X451.825Y-139.45
X451.825Y-198.45
X451.825Y-257.45
X451.825Y-316.45
X451.825Y-375.45
X451.825Y-434.45
X452.605Y-35.18
X452.605Y-96.38
X452.605Y-155.38
X452.605Y-214.38
X452.605Y-273.38
X452.605Y-332.38
X452.605Y-391.38
X452.605Y-450.38
X455.875Y-25.93
X455.875Y-87.13
X455.875Y-146.13
X455.875Y-205.13
X455.875Y-264.13
X455.875Y-323.13
X455.875Y-382.13
X455.875Y-441.13
T3
X31.988Y-432.925
X33.25Y-4.725
X33.25Y-65.925
X33.25Y-127.125
X33.25Y-188.325
X33.25Y-249.525
X33.25Y-310.725
X33.25Y-371.925
X34.488Y-432.925
X35.75Y-4.725
X35.75Y-65.925
X35.75Y-127.125
X35.75Y-188.325
X35.75Y-249.525
X35.75Y-310.725
X35.75Y-371.925
X36.988Y-432.925
X38.25Y-4.725
X38.25Y-65.925
X38.25Y-127.125
X38.25Y-188.325
X38.25Y-249.525
X38.25Y-310.725
X38.25Y-371.925
X121.142Y-433.162
X122.404Y-4.962
X122.404Y-66.162
X122.404Y-127.362
X122.404Y-188.562
X122.404Y-249.762
X122.404Y-310.962
X122.404Y-372.162
X123.642Y-433.162
X124.904Y-4.962
X124.904Y-66.162
X124.904Y-127.362
X124.904Y-188.562
X124.904Y-249.762
X124.904Y-310.962
X124.904Y-372.162
X126.142Y-433.162
X127.404Y-4.962
X127.404Y-66.162
X127.404Y-127.362
X127.404Y-188.562
X127.404Y-249.762
X127.404Y-310.962
X127.404Y-372.162
X193.188Y-4.525
X193.188Y-65.725
X193.188Y-124.725
X193.188Y-183.725
X193.188Y-242.725
X193.188Y-301.725
X193.188Y-360.725
X193.188Y-419.725
X195.688Y-4.525
X195.688Y-65.725
X195.688Y-124.725
X195.688Y-183.725
X195.688Y-242.725
X195.688Y-301.725
X195.688Y-360.725
X195.688Y-419.725
X198.188Y-4.525
X198.188Y-65.725
X198.188Y-124.725
X198.188Y-183.725
X198.188Y-242.725
X198.188Y-301.725
X198.188Y-360.725
X198.188Y-419.725
X282.342Y-4.762
X282.342Y-65.962
X282.342Y-124.962
X282.342Y-183.962
X282.342Y-242.962
X282.342Y-301.962
X282.342Y-360.962
X282.342Y-419.962
X284.842Y-4.762
X284.842Y-65.962
X284.842Y-124.962
X284.842Y-183.962
X284.842Y-242.962
X284.842Y-301.962
X284.842Y-360.962
X284.842Y-419.962
X287.342Y-4.762
X287.342Y-65.962
X287.342Y-124.962
X287.342Y-183.962
X287.342Y-242.962
X287.342Y-301.962
X287.342Y-360.962
X287.342Y-419.962
X351.665Y-4.525
X351.665Y-65.725
X351.665Y-124.725
X351.665Y-183.725
X351.665Y-242.725
X351.665Y-301.725
X351.665Y-360.725
X351.665Y-419.725
X354.165Y-4.525
X354.165Y-65.725
X354.165Y-124.725
X354.165Y-183.725
X354.165Y-242.725
X354.165Y-301.725
X354.165Y-360.725
X354.165Y-419.725
X356.665Y-4.525
X356.665Y-65.725
X356.665Y-124.725
X356.665Y-183.725
X356.665Y-242.725
X356.665Y-301.725
X356.665Y-360.725
X356.665Y-419.725
X440.819Y-4.762
X440.819Y-65.962
X440.819Y-124.962
X440.819Y-183.962
X440.819Y-242.962
X440.819Y-301.962
X440.819Y-360.962
X440.819Y-419.962
X443.319Y-4.762
X443.319Y-65.962
X443.319Y-124.962
X443.319Y-183.962
X443.319Y-242.962
X443.319Y-301.962
X443.319Y-360.962
X443.319Y-419.962
X445.819Y-4.762
X445.819Y-65.962
X445.819Y-124.962
X445.819Y-183.962
X445.819Y-242.962
X445.819Y-301.962
X445.819Y-360.962
X445.819Y-419.962
T4
X81.438Y-430.96
X81.438Y-433.5
X81.438Y-436.04
X81.438Y-438.58
X82.7Y-2.76
X82.7Y-5.3
X82.7Y-7.84
X82.7Y-10.38
X82.7Y-63.96
X82.7Y-66.5
X82.7Y-69.04
X82.7Y-71.58
X82.7Y-125.16
X82.7Y-127.7
X82.7Y-130.24
X82.7Y-132.78
X82.7Y-186.36
X82.7Y-188.9
X82.7Y-191.44
X82.7Y-193.98
X82.7Y-247.56
X82.7Y-250.1
X82.7Y-252.64
X82.7Y-255.18
X82.7Y-308.76
X82.7Y-311.3
X82.7Y-313.84
X82.7Y-316.38
X82.7Y-369.96
X82.7Y-372.5
X82.7Y-375.04
X82.7Y-377.58
X83.978Y-430.96
X83.978Y-433.5
X83.978Y-436.04
X83.978Y-438.58
X85.24Y-2.76
X85.24Y-5.3
X85.24Y-7.84
X85.24Y-10.38
X85.24Y-63.96
X85.24Y-66.5
X85.24Y-69.04
X85.24Y-71.58
X85.24Y-125.16
X85.24Y-127.7
X85.24Y-130.24
X85.24Y-132.78
X85.24Y-186.36
X85.24Y-188.9
X85.24Y-191.44
X85.24Y-193.98
X85.24Y-247.56
X85.24Y-250.1
X85.24Y-252.64
X85.24Y-255.18
X85.24Y-308.76
X85.24Y-311.3
X85.24Y-313.84
X85.24Y-316.38
X85.24Y-369.96
X85.24Y-372.5
X85.24Y-375.04
X85.24Y-377.58
X116.513Y-477.3
X116.513Y-479.8
X116.9Y-49.1
X116.9Y-51.6
X116.9Y-110.3
X116.9Y-112.8
X116.9Y-171.5
X116.9Y-174.0
X116.9Y-232.7
X116.9Y-235.2
X116.9Y-293.9
X116.9Y-296.4
X116.9Y-355.1
X116.9Y-357.6
X116.9Y-416.3
X116.9Y-418.8
X242.638Y-2.56
X242.638Y-5.1
X242.638Y-7.64
X242.638Y-10.18
X242.638Y-63.76
X242.638Y-66.3
X242.638Y-68.84
X242.638Y-71.38
X242.638Y-122.76
X242.638Y-125.3
X242.638Y-127.84
X242.638Y-130.38
X242.638Y-181.76
X242.638Y-184.3
X242.638Y-186.84
X242.638Y-189.38
X242.638Y-240.76
X242.638Y-243.3
X242.638Y-245.84
X242.638Y-248.38
X242.638Y-299.76
X242.638Y-302.3
X242.638Y-304.84
X242.638Y-307.38
X242.638Y-358.76
X242.638Y-361.3
X242.638Y-363.84
X242.638Y-366.38
X242.638Y-417.76
X242.638Y-420.3
X242.638Y-422.84
X242.638Y-425.38
X245.178Y-2.56
X245.178Y-5.1
X245.178Y-7.64
X245.178Y-10.18
X245.178Y-63.76
X245.178Y-66.3
X245.178Y-68.84
X245.178Y-71.38
X245.178Y-122.76
X245.178Y-125.3
X245.178Y-127.84
X245.178Y-130.38
X245.178Y-181.76
X245.178Y-184.3
X245.178Y-186.84
X245.178Y-189.38
X245.178Y-240.76
X245.178Y-243.3
X245.178Y-245.84
X245.178Y-248.38
X245.178Y-299.76
X245.178Y-302.3
X245.178Y-304.84
X245.178Y-307.38
X245.178Y-358.76
X245.178Y-361.3
X245.178Y-363.84
X245.178Y-366.38
X245.178Y-417.76
X245.178Y-420.3
X245.178Y-422.84
X245.178Y-425.38
X277.713Y-48.9
X277.713Y-51.4
X277.713Y-110.1
X277.713Y-112.6
X277.713Y-169.1
X277.713Y-171.6
X277.713Y-228.1
X277.713Y-230.6
X277.713Y-287.1
X277.713Y-289.6
X277.713Y-346.1
X277.713Y-348.6
X277.713Y-405.1
X277.713Y-407.6
X277.713Y-464.1
X277.713Y-466.6
X401.115Y-2.56
X401.115Y-5.1
X401.115Y-7.64
X401.115Y-10.18
X401.115Y-63.76
X401.115Y-66.3
X401.115Y-68.84
X401.115Y-71.38
X401.115Y-122.76
X401.115Y-125.3
X401.115Y-127.84
X401.115Y-130.38
X401.115Y-181.76
X401.115Y-184.3
X401.115Y-186.84
X401.115Y-189.38
X401.115Y-240.76
X401.115Y-243.3
X401.115Y-245.84
X401.115Y-248.38
X401.115Y-299.76
X401.115Y-302.3
X401.115Y-304.84
X401.115Y-307.38
X401.115Y-358.76
X401.115Y-361.3
X401.115Y-363.84
X401.115Y-366.38
X401.115Y-417.76
X401.115Y-420.3
X401.115Y-422.84
X401.115Y-425.38
X403.655Y-2.56
X403.655Y-5.1
X403.655Y-7.64
X403.655Y-10.18
X403.655Y-63.76
X403.655Y-66.3
X403.655Y-68.84
X403.655Y-71.38
X403.655Y-122.76
X403.655Y-125.3
X403.655Y-127.84
X403.655Y-130.38
X403.655Y-181.76
X403.655Y-184.3
X403.655Y-186.84
X403.655Y-189.38
X403.655Y-240.76
X403.655Y-243.3
X403.655Y-245.84
X403.655Y-248.38
X403.655Y-299.76
X403.655Y-302.3
X403.655Y-304.84
X403.655Y-307.38
X403.655Y-358.76
X403.655Y-361.3
X403.655Y-363.84
X403.655Y-366.38
X403.655Y-417.76
X403.655Y-420.3
X403.655Y-422.84
X403.655Y-425.38
X436.19Y-48.9
X436.19Y-51.4
X436.19Y-110.1
X436.19Y-112.6
X436.19Y-169.1
X436.19Y-171.6
X436.19Y-228.1
X436.19Y-230.6
X436.19Y-287.1
X436.19Y-289.6
X436.19Y-346.1
X436.19Y-348.6
X436.19Y-405.1
X436.19Y-407.6
X436.19Y-464.1
X436.19Y-466.6
T5
X7.238Y-455.9
X8.5Y-27.7
X8.5Y-88.9
X8.5Y-150.1
X8.5Y-211.3
X8.5Y-272.5
X8.5Y-333.7
X8.5Y-394.9
X17.238Y-435.9
X17.238Y-477.9
X18.5Y-7.7
X18.5Y-49.7
X18.5Y-68.9
X18.5Y-110.9
X18.5Y-130.1
X18.5Y-172.1
X18.5Y-191.3
X18.5Y-233.3
X18.5Y-252.5
X18.5Y-294.5
X18.5Y-313.7
X18.5Y-355.7
X18.5Y-374.9
X18.5Y-416.9
X142.238Y-435.9
X142.238Y-477.9
X143.5Y-7.7
X143.5Y-49.7
X143.5Y-68.9
X143.5Y-110.9
X143.5Y-130.1
X143.5Y-172.1
X143.5Y-191.3
X143.5Y-233.3
X143.5Y-252.5
X143.5Y-294.5
X143.5Y-313.7
X143.5Y-355.7
X143.5Y-374.9
X143.5Y-416.9
X152.238Y-455.9
X153.5Y-27.7
X153.5Y-88.9
X153.5Y-150.1
X153.5Y-211.3
X153.5Y-272.5
X153.5Y-333.7
X153.5Y-394.9
X168.438Y-27.5
X168.438Y-88.7
X168.438Y-147.7
X168.438Y-206.7
X168.438Y-265.7
X168.438Y-324.7
X168.438Y-383.7
X168.438Y-442.7
X178.438Y-7.5
X178.438Y-49.5
X178.438Y-68.7
X178.438Y-110.7
X178.438Y-127.7
X178.438Y-169.7
X178.438Y-186.7
X178.438Y-228.7
X178.438Y-245.7
X178.438Y-287.7
X178.438Y-304.7
X178.438Y-346.7
X178.438Y-363.7
X178.438Y-405.7
X178.438Y-422.7
X178.438Y-464.7
X303.438Y-7.5
X303.438Y-49.5
X303.438Y-68.7
X303.438Y-110.7
X303.438Y-127.7
X303.438Y-169.7
X303.438Y-186.7
X303.438Y-228.7
X303.438Y-245.7
X303.438Y-287.7
X303.438Y-304.7
X303.438Y-346.7
X303.438Y-363.7
X303.438Y-405.7
X303.438Y-422.7
X303.438Y-464.7
X313.438Y-27.5
X313.438Y-88.7
X313.438Y-147.7
X313.438Y-206.7
X313.438Y-265.7
X313.438Y-324.7
X313.438Y-383.7
X313.438Y-442.7
X326.915Y-27.5
X326.915Y-88.7
X326.915Y-147.7
X326.915Y-206.7
X326.915Y-265.7
X326.915Y-324.7
X326.915Y-383.7
X326.915Y-442.7
X336.915Y-7.5
X336.915Y-49.5
X336.915Y-68.7
X336.915Y-110.7
X336.915Y-127.7
X336.915Y-169.7
X336.915Y-186.7
X336.915Y-228.7
X336.915Y-245.7
X336.915Y-287.7
X336.915Y-304.7
X336.915Y-346.7
X336.915Y-363.7
X336.915Y-405.7
X336.915Y-422.7
X336.915Y-464.7
X461.915Y-7.5
X461.915Y-49.5
X461.915Y-68.7
X461.915Y-110.7
X461.915Y-127.7
X461.915Y-169.7
X461.915Y-186.7
X461.915Y-228.7
X461.915Y-245.7
X461.915Y-287.7
X461.915Y-304.7
X461.915Y-346.7
X461.915Y-363.7
X461.915Y-405.7
X461.915Y-422.7
X461.915Y-464.7
X471.915Y-27.5
X471.915Y-88.7
X471.915Y-147.7
X471.915Y-206.7
X471.915Y-265.7
X471.915Y-324.7
X471.915Y-383.7
X471.915Y-442.7
T0
M30
