%TF.GenerationSoftware,KiCad,Pcbnew,7.0.5-7.0.5~ubuntu20.04.1*%
%TF.CreationDate,2023-07-06T15:08:56+02:00*%
%TF.ProjectId,output_panel_QWYz9GD,6f757470-7574-45f7-9061-6e656c5f5157,rev?*%
%TF.SameCoordinates,Original*%
%TF.FileFunction,Soldermask,Bot*%
%TF.FilePolarity,Negative*%
%FSLAX45Y45*%
G04 Gerber Fmt 4.5, Leading zero omitted, Abs format (unit mm)*
G04 Created by KiCad (PCBNEW 7.0.5-7.0.5~ubuntu20.04.1) date 2023-07-06 15:08:56*
%MOMM*%
%LPD*%
G01*
G04 APERTURE LIST*
G04 Aperture macros list*
%AMRoundRect*
0 Rectangle with rounded corners*
0 $1 Rounding radius*
0 $2 $3 $4 $5 $6 $7 $8 $9 X,Y pos of 4 corners*
0 Add a 4 corners polygon primitive as box body*
4,1,4,$2,$3,$4,$5,$6,$7,$8,$9,$2,$3,0*
0 Add four circle primitives for the rounded corners*
1,1,$1+$1,$2,$3*
1,1,$1+$1,$4,$5*
1,1,$1+$1,$6,$7*
1,1,$1+$1,$8,$9*
0 Add four rect primitives between the rounded corners*
20,1,$1+$1,$2,$3,$4,$5,0*
20,1,$1+$1,$4,$5,$6,$7,0*
20,1,$1+$1,$6,$7,$8,$9,0*
20,1,$1+$1,$8,$9,$2,$3,0*%
G04 Aperture macros list end*
%TA.AperFunction,Profile*%
%ADD10C,0.050000*%
%TD*%
%TA.AperFunction,Profile*%
%ADD11C,0.100000*%
%TD*%
%ADD12R,1.700000X1.700000*%
%ADD13O,1.700000X1.700000*%
%ADD14RoundRect,0.250000X0.600000X0.725000X-0.600000X0.725000X-0.600000X-0.725000X0.600000X-0.725000X0*%
%ADD15O,1.700000X1.950000*%
%ADD16C,5.600000*%
%ADD17RoundRect,0.237500X0.237500X-0.250000X0.237500X0.250000X-0.237500X0.250000X-0.237500X-0.250000X0*%
%ADD18RoundRect,0.237500X-0.250000X-0.237500X0.250000X-0.237500X0.250000X0.237500X-0.250000X0.237500X0*%
%ADD19RoundRect,0.250000X-0.750000X0.600000X-0.750000X-0.600000X0.750000X-0.600000X0.750000X0.600000X0*%
%ADD20O,2.000000X1.700000*%
%ADD21RoundRect,0.237500X0.250000X0.237500X-0.250000X0.237500X-0.250000X-0.237500X0.250000X-0.237500X0*%
%ADD22R,0.400000X1.000000*%
%ADD23RoundRect,0.250000X-0.550000X1.250000X-0.550000X-1.250000X0.550000X-1.250000X0.550000X1.250000X0*%
%ADD24RoundRect,0.237500X-0.237500X0.300000X-0.237500X-0.300000X0.237500X-0.300000X0.237500X0.300000X0*%
G04 APERTURE END LIST*
D10*
X30243821Y-23770000D02*
G75*
G03*
X30243821Y-17970000I-1674316J2900000D01*
G01*
D11*
X50000Y-38169998D02*
X1850000Y-36769998D01*
D10*
X46091466Y-23770000D02*
G75*
G03*
X46091466Y-17970000I-1674316J2900000D01*
G01*
D11*
X1723822Y-42889998D02*
X14123822Y-42889998D01*
X17843821Y-11970000D02*
X30243821Y-11970000D01*
X17843821Y-29770000D02*
X30243821Y-29770000D01*
X14250000Y-6070000D02*
X1850000Y-6070000D01*
X1850000Y-12289999D02*
X14270000Y-12329999D01*
X50000Y-4670000D02*
X50000Y-1450000D01*
X33691466Y-23870000D02*
X46091466Y-23870000D01*
D10*
X17843822Y-41570000D02*
G75*
G03*
X17843821Y-47370000I1674316J-2900000D01*
G01*
D11*
X1850000Y-36769998D02*
X14270000Y-36809998D01*
X16050000Y-23029999D02*
X14250000Y-24429999D01*
X14250000Y-18309999D02*
X1850000Y-18309999D01*
X17843821Y-23870000D02*
X30243821Y-23870000D01*
X14250000Y-42789998D02*
X1850000Y-42789998D01*
X16070000Y-32079998D02*
X16050000Y-35269998D01*
X33691466Y-11970000D02*
X46091466Y-11970000D01*
X33691466Y-47370000D02*
X46091466Y-47370000D01*
D10*
X33691466Y-23870000D02*
G75*
G03*
X33691466Y-29670000I1674316J-2900000D01*
G01*
X33691466Y-6170000D02*
G75*
G03*
X33691466Y-11970000I1674316J-2900000D01*
G01*
D11*
X16050000Y-41389998D02*
X14250000Y-42789998D01*
X50000Y-29149998D02*
X50000Y-25929998D01*
X1850000Y-12189999D02*
X50000Y-10789999D01*
X1850000Y-18309999D02*
X50000Y-16909999D01*
X14270000Y-24569998D02*
X16070000Y-25959998D01*
X17843821Y-29670000D02*
X30243821Y-29670000D01*
X16070000Y-1480000D02*
X16050000Y-4670000D01*
X17843821Y-17870000D02*
X30243821Y-17870000D01*
X1850000Y-42789998D02*
X50000Y-41389998D01*
D10*
X46091466Y-11970000D02*
G75*
G03*
X46091466Y-6170000I-1674316J2900000D01*
G01*
D11*
X14250000Y-36669998D02*
X1850000Y-36669998D01*
D10*
X17843822Y-12070000D02*
G75*
G03*
X17843821Y-17870000I1674316J-2900000D01*
G01*
D11*
X50000Y-35269998D02*
X50000Y-32049998D01*
X33691466Y-12070000D02*
X46091466Y-12070000D01*
X50000Y-25929998D02*
X1850000Y-24529998D01*
X1850000Y-6169999D02*
X14270000Y-6209999D01*
D10*
X17843822Y-6170000D02*
G75*
G03*
X17843821Y-11970000I1674316J-2900000D01*
G01*
D11*
X33691466Y-29670000D02*
X46091466Y-29670000D01*
X17843821Y-35570000D02*
X30243821Y-35570000D01*
X17843821Y-41470000D02*
X30243821Y-41470000D01*
X16050000Y-10789999D02*
X14250000Y-12189999D01*
X14250000Y-24429999D02*
X1850000Y-24429999D01*
X17843821Y-12070000D02*
X30243821Y-12070000D01*
D10*
X33691466Y-41570000D02*
G75*
G03*
X33691466Y-47370000I1674316J-2900000D01*
G01*
X17843822Y-35670000D02*
G75*
G03*
X17843821Y-41470000I1674316J-2900000D01*
G01*
D11*
X33691466Y-41470000D02*
X46091466Y-41470000D01*
D10*
X1723822Y-42889998D02*
G75*
G03*
X1723822Y-48689998I1674316J-2900000D01*
G01*
D11*
X33691466Y-50000D02*
X46091466Y-50000D01*
D10*
X46091466Y-17870000D02*
G75*
G03*
X46091466Y-12070000I-1674316J2900000D01*
G01*
D11*
X14270000Y-30689998D02*
X16070000Y-32079998D01*
X17843821Y-35670000D02*
X30243821Y-35670000D01*
X1850000Y-24429999D02*
X50000Y-23029999D01*
X50000Y-32049998D02*
X1850000Y-30649998D01*
X16050000Y-4670000D02*
X14250000Y-6070000D01*
D10*
X46091466Y-35570000D02*
G75*
G03*
X46091466Y-29770000I-1674316J2900000D01*
G01*
D11*
X14270000Y-90000D02*
X16070000Y-1480000D01*
X16070000Y-13719999D02*
X16050000Y-16909999D01*
D10*
X30243821Y-29670000D02*
G75*
G03*
X30243821Y-23870000I-1674316J2900000D01*
G01*
D11*
X1850000Y-30649998D02*
X14270000Y-30689998D01*
X1850000Y-18409999D02*
X14270000Y-18449999D01*
X50000Y-13689999D02*
X1850000Y-12289999D01*
X14270000Y-6209999D02*
X16070000Y-7599999D01*
X50000Y-7569999D02*
X1850000Y-6169999D01*
D10*
X30243821Y-35570000D02*
G75*
G03*
X30243821Y-29770000I-1674316J2900000D01*
G01*
D11*
X16070000Y-25959998D02*
X16050000Y-29149998D01*
X50000Y-1450000D02*
X1850000Y-50000D01*
X33691466Y-23770000D02*
X46091466Y-23770000D01*
X17843821Y-23770000D02*
X30243821Y-23770000D01*
D10*
X17843821Y-50000D02*
G75*
G03*
X17843821Y-5850000I1674316J-2900000D01*
G01*
X46091466Y-47370000D02*
G75*
G03*
X46091466Y-41570000I-1674316J2900000D01*
G01*
D11*
X33691466Y-35670000D02*
X46091466Y-35670000D01*
X1723822Y-48689998D02*
X14123822Y-48689998D01*
X17843821Y-17970000D02*
X30243821Y-17970000D01*
D10*
X14123822Y-48689998D02*
G75*
G03*
X14123822Y-42889998I-1674316J2900000D01*
G01*
D11*
X50000Y-19809999D02*
X1850000Y-18409999D01*
D10*
X30243821Y-41470000D02*
G75*
G03*
X30243821Y-35670000I-1674316J2900000D01*
G01*
D11*
X16050000Y-29149998D02*
X14250000Y-30549998D01*
D10*
X33691466Y-12070000D02*
G75*
G03*
X33691466Y-17870000I1674316J-2900000D01*
G01*
D11*
X16070000Y-7599999D02*
X16050000Y-10789999D01*
X17843821Y-50000D02*
X30243821Y-50000D01*
D10*
X30243821Y-47370000D02*
G75*
G03*
X30243821Y-41570000I-1674316J2900000D01*
G01*
D11*
X17843821Y-47370000D02*
X30243821Y-47370000D01*
X14250000Y-12189999D02*
X1850000Y-12189999D01*
D10*
X30243821Y-11970000D02*
G75*
G03*
X30243821Y-6170000I-1674316J2900000D01*
G01*
D11*
X16050000Y-16909999D02*
X14250000Y-18309999D01*
X14270000Y-12329999D02*
X16070000Y-13719999D01*
X50000Y-16909999D02*
X50000Y-13689999D01*
X14270000Y-18449999D02*
X16070000Y-19839999D01*
X33691466Y-6170000D02*
X46091466Y-6170000D01*
X14270000Y-36809998D02*
X16070000Y-38199998D01*
X33691466Y-5850000D02*
X46091466Y-5850000D01*
D10*
X33691466Y-17970000D02*
G75*
G03*
X33691466Y-23770000I1674316J-2900000D01*
G01*
D11*
X33691466Y-41570000D02*
X46091466Y-41570000D01*
X16070000Y-38199998D02*
X16050000Y-41389998D01*
X1850000Y-50000D02*
X14270000Y-90000D01*
X14250000Y-30549998D02*
X1850000Y-30549998D01*
D10*
X33691466Y-35670000D02*
G75*
G03*
X33691466Y-41470000I1674316J-2900000D01*
G01*
X30243821Y-5850000D02*
G75*
G03*
X30243821Y-50000I-1674316J2900000D01*
G01*
X17843822Y-29770000D02*
G75*
G03*
X17843821Y-35570000I1674316J-2900000D01*
G01*
D11*
X1850000Y-6070000D02*
X50000Y-4670000D01*
X16050000Y-35269998D02*
X14250000Y-36669998D01*
D10*
X46091466Y-41470000D02*
G75*
G03*
X46091466Y-35670000I-1674316J2900000D01*
G01*
D11*
X1850000Y-36669998D02*
X50000Y-35269998D01*
D10*
X30243821Y-17870000D02*
G75*
G03*
X30243821Y-12070000I-1674316J2900000D01*
G01*
D11*
X50000Y-23029999D02*
X50000Y-19809999D01*
X1850000Y-24529998D02*
X14270000Y-24569998D01*
D10*
X17843822Y-17970000D02*
G75*
G03*
X17843821Y-23770000I1674316J-2900000D01*
G01*
X46091466Y-29670000D02*
G75*
G03*
X46091466Y-23870000I-1674316J2900000D01*
G01*
D11*
X50000Y-10789999D02*
X50000Y-7569999D01*
D10*
X33691466Y-29770000D02*
G75*
G03*
X33691466Y-35570000I1674316J-2900000D01*
G01*
D11*
X50000Y-41389998D02*
X50000Y-38169998D01*
D10*
X33691466Y-50000D02*
G75*
G03*
X33691466Y-5850000I1674316J-2900000D01*
G01*
X17843822Y-23870000D02*
G75*
G03*
X17843821Y-29670000I1674316J-2900000D01*
G01*
D11*
X17843821Y-41570000D02*
X30243821Y-41570000D01*
X17843821Y-6170000D02*
X30243821Y-6170000D01*
X17843821Y-5850000D02*
X30243821Y-5850000D01*
X16070000Y-19839999D02*
X16050000Y-23029999D01*
D10*
X46091466Y-5850000D02*
G75*
G03*
X46091466Y-50000I-1674316J2900000D01*
G01*
D11*
X33691466Y-17970000D02*
X46091466Y-17970000D01*
X33691466Y-35570000D02*
X46091466Y-35570000D01*
X33691466Y-17870000D02*
X46091466Y-17870000D01*
X33691466Y-29770000D02*
X46091466Y-29770000D01*
X1850000Y-30549998D02*
X50000Y-29149998D01*
D12*
X24263821Y-12276000D03*
D13*
X24517821Y-12276000D03*
X24263821Y-12530000D03*
X24517821Y-12530000D03*
X24263821Y-12784000D03*
X24517821Y-12784000D03*
X24263821Y-13038000D03*
X24517821Y-13038000D03*
D14*
X19818821Y-18372500D03*
D15*
X19568821Y-18372500D03*
X19318821Y-18372500D03*
D16*
X30343821Y-4950000D03*
X15350000Y-33369998D03*
X33691466Y-28770000D03*
X30343821Y-12770000D03*
X16843821Y-8870000D03*
X17843821Y-6870000D03*
X1850000Y-35569998D03*
X16843821Y-2750000D03*
D12*
X8270000Y-276000D03*
D13*
X8524000Y-276000D03*
X8270000Y-530000D03*
X8524000Y-530000D03*
X8270000Y-784000D03*
X8524000Y-784000D03*
X8270000Y-1038000D03*
X8524000Y-1038000D03*
D16*
X46191466Y-11070000D03*
X30343821Y-40570000D03*
X1850000Y-6889999D03*
D12*
X8270000Y-24755998D03*
D13*
X8524000Y-24755998D03*
X8270000Y-25009998D03*
X8524000Y-25009998D03*
X8270000Y-25263998D03*
X8524000Y-25263998D03*
X8270000Y-25517998D03*
X8524000Y-25517998D03*
D16*
X31343821Y-44270000D03*
D14*
X35666466Y-18372500D03*
D15*
X35416466Y-18372500D03*
X35166466Y-18372500D03*
D16*
X30343821Y-22870000D03*
D12*
X8270000Y-30875998D03*
D13*
X8524000Y-30875998D03*
X8270000Y-31129998D03*
X8524000Y-31129998D03*
X8270000Y-31383998D03*
X8524000Y-31383998D03*
X8270000Y-31637998D03*
X8524000Y-31637998D03*
D16*
X47191466Y-38370000D03*
D14*
X19818821Y-6572500D03*
D15*
X19568821Y-6572500D03*
X19318821Y-6572500D03*
D16*
X46191466Y-6870000D03*
X31343821Y-26570000D03*
X31343821Y-2750000D03*
X33691466Y-11070000D03*
D14*
X19818821Y-30172500D03*
D15*
X19568821Y-30172500D03*
X19318821Y-30172500D03*
D14*
X44581866Y-18396200D03*
D15*
X44331866Y-18396200D03*
X44081866Y-18396200D03*
D14*
X19818821Y-41972500D03*
D15*
X19568821Y-41972500D03*
X19318821Y-41972500D03*
D16*
X46191466Y-40570000D03*
D12*
X8270000Y-6395999D03*
D13*
X8524000Y-6395999D03*
X8270000Y-6649999D03*
X8524000Y-6649999D03*
X8270000Y-6903999D03*
X8524000Y-6903999D03*
X8270000Y-7157999D03*
X8524000Y-7157999D03*
D14*
X12740400Y-24976198D03*
D15*
X12490400Y-24976198D03*
X12240400Y-24976198D03*
D16*
X46191466Y-46470000D03*
D14*
X35666466Y-41972500D03*
D15*
X35416466Y-41972500D03*
X35166466Y-41972500D03*
D16*
X1850000Y-770000D03*
X46191466Y-18670000D03*
X33691466Y-42270000D03*
X33691466Y-750000D03*
X30343821Y-30470000D03*
D14*
X35666466Y-30172500D03*
D15*
X35416466Y-30172500D03*
X35166466Y-30172500D03*
D12*
X40111466Y-24076000D03*
D13*
X40365466Y-24076000D03*
X40111466Y-24330000D03*
X40365466Y-24330000D03*
X40111466Y-24584000D03*
X40365466Y-24584000D03*
X40111466Y-24838000D03*
X40365466Y-24838000D03*
D16*
X15350000Y-39489998D03*
D14*
X44581866Y-6596200D03*
D15*
X44331866Y-6596200D03*
X44081866Y-6596200D03*
D16*
X14350000Y-770000D03*
D14*
X35666466Y-6572500D03*
D15*
X35416466Y-6572500D03*
X35166466Y-6572500D03*
D12*
X24263821Y-6376000D03*
D13*
X24517821Y-6376000D03*
X24263821Y-6630000D03*
X24517821Y-6630000D03*
X24263821Y-6884000D03*
X24517821Y-6884000D03*
X24263821Y-7138000D03*
X24517821Y-7138000D03*
D14*
X3825000Y-24952498D03*
D15*
X3575000Y-24952498D03*
X3325000Y-24952498D03*
D16*
X31343821Y-32470000D03*
X15350000Y-2770000D03*
D14*
X28734221Y-41996200D03*
D15*
X28484221Y-41996200D03*
X28234221Y-41996200D03*
D16*
X15350000Y-8889999D03*
X14350000Y-13009999D03*
X47191466Y-20670000D03*
D14*
X28734221Y-24296200D03*
D15*
X28484221Y-24296200D03*
X28234221Y-24296200D03*
D14*
X12740400Y-6616199D03*
D15*
X12490400Y-6616199D03*
X12240400Y-6616199D03*
D14*
X28734221Y-6596200D03*
D15*
X28484221Y-6596200D03*
X28234221Y-6596200D03*
D12*
X40111466Y-29976000D03*
D13*
X40365466Y-29976000D03*
X40111466Y-30230000D03*
X40365466Y-30230000D03*
X40111466Y-30484000D03*
X40365466Y-30484000D03*
X40111466Y-30738000D03*
X40365466Y-30738000D03*
D16*
X33691466Y-24570000D03*
X33691466Y-46470000D03*
X32691466Y-20670000D03*
X16843821Y-38370000D03*
X850000Y-21129999D03*
X14350000Y-25249998D03*
D14*
X35666466Y-36072500D03*
D15*
X35416466Y-36072500D03*
X35166466Y-36072500D03*
D14*
X28734221Y-12496200D03*
D15*
X28484221Y-12496200D03*
X28234221Y-12496200D03*
D16*
X17843821Y-40570000D03*
D14*
X12740400Y-12736199D03*
D15*
X12490400Y-12736199D03*
X12240400Y-12736199D03*
D14*
X19818821Y-36072500D03*
D15*
X19568821Y-36072500D03*
X19318821Y-36072500D03*
D16*
X1850000Y-13009999D03*
X16843821Y-32470000D03*
D14*
X28734221Y-30196200D03*
D15*
X28484221Y-30196200D03*
X28234221Y-30196200D03*
D12*
X8143822Y-43095998D03*
D13*
X8397822Y-43095998D03*
X8143822Y-43349998D03*
X8397822Y-43349998D03*
X8143822Y-43603998D03*
X8397822Y-43603998D03*
X8143822Y-43857998D03*
X8397822Y-43857998D03*
D16*
X33691466Y-22870000D03*
D12*
X40111466Y-18176000D03*
D13*
X40365466Y-18176000D03*
X40111466Y-18430000D03*
X40365466Y-18430000D03*
X40111466Y-18684000D03*
X40365466Y-18684000D03*
X40111466Y-18938000D03*
X40365466Y-18938000D03*
D16*
X32691466Y-44270000D03*
X30343821Y-28770000D03*
X14350000Y-37489998D03*
X1850000Y-17209999D03*
X850000Y-39489998D03*
X15223822Y-45589998D03*
X30343821Y-11070000D03*
D14*
X35666466Y-12472500D03*
D15*
X35416466Y-12472500D03*
X35166466Y-12472500D03*
D16*
X850000Y-15009999D03*
X17843821Y-46470000D03*
X14350000Y-4970000D03*
X14350000Y-11089999D03*
D12*
X8270000Y-18635999D03*
D13*
X8524000Y-18635999D03*
X8270000Y-18889999D03*
X8524000Y-18889999D03*
X8270000Y-19143999D03*
X8524000Y-19143999D03*
X8270000Y-19397999D03*
X8524000Y-19397999D03*
D14*
X19818821Y-452500D03*
D15*
X19568821Y-452500D03*
X19318821Y-452500D03*
D16*
X47191466Y-32470000D03*
D14*
X3825000Y-37192498D03*
D15*
X3575000Y-37192498D03*
X3325000Y-37192498D03*
D16*
X14350000Y-35569998D03*
X32691466Y-38370000D03*
X46191466Y-4950000D03*
X31343821Y-20670000D03*
X17843821Y-12770000D03*
X46191466Y-28770000D03*
X46191466Y-750000D03*
X723822Y-45589998D03*
D14*
X3825000Y-31072498D03*
D15*
X3575000Y-31072498D03*
X3325000Y-31072498D03*
D12*
X40111466Y-256000D03*
D13*
X40365466Y-256000D03*
X40111466Y-510000D03*
X40365466Y-510000D03*
X40111466Y-764000D03*
X40365466Y-764000D03*
X40111466Y-1018000D03*
X40365466Y-1018000D03*
D16*
X14350000Y-17209999D03*
X17843821Y-4950000D03*
D14*
X44581866Y-30196200D03*
D15*
X44331866Y-30196200D03*
X44081866Y-30196200D03*
D16*
X14223822Y-43589998D03*
X15350000Y-27249998D03*
X1850000Y-41689998D03*
D14*
X19818821Y-12472500D03*
D15*
X19568821Y-12472500D03*
X19318821Y-12472500D03*
D16*
X30343821Y-46470000D03*
X1850000Y-25249998D03*
D14*
X12740400Y-496200D03*
D15*
X12490400Y-496200D03*
X12240400Y-496200D03*
D14*
X28734221Y-36096200D03*
D15*
X28484221Y-36096200D03*
X28234221Y-36096200D03*
D16*
X1850000Y-11089999D03*
X33691466Y-12770000D03*
X16843821Y-20670000D03*
X1850000Y-4970000D03*
X17843821Y-24570000D03*
D14*
X28734221Y-476200D03*
D15*
X28484221Y-476200D03*
X28234221Y-476200D03*
D14*
X28734221Y-18396200D03*
D15*
X28484221Y-18396200D03*
X28234221Y-18396200D03*
D16*
X32691466Y-32470000D03*
D14*
X3825000Y-18832499D03*
D15*
X3575000Y-18832499D03*
X3325000Y-18832499D03*
D16*
X47191466Y-26570000D03*
X33691466Y-30470000D03*
X47191466Y-2750000D03*
D14*
X3825000Y-12712499D03*
D15*
X3575000Y-12712499D03*
X3325000Y-12712499D03*
D16*
X33691466Y-18670000D03*
D14*
X35666466Y-24272500D03*
D15*
X35416466Y-24272500D03*
X35166466Y-24272500D03*
D14*
X12740400Y-18856199D03*
D15*
X12490400Y-18856199D03*
X12240400Y-18856199D03*
D12*
X40111466Y-6376000D03*
D13*
X40365466Y-6376000D03*
X40111466Y-6630000D03*
X40365466Y-6630000D03*
X40111466Y-6884000D03*
X40365466Y-6884000D03*
X40111466Y-7138000D03*
X40365466Y-7138000D03*
D12*
X8270000Y-12515999D03*
D13*
X8524000Y-12515999D03*
X8270000Y-12769999D03*
X8524000Y-12769999D03*
X8270000Y-13023999D03*
X8524000Y-13023999D03*
X8270000Y-13277999D03*
X8524000Y-13277999D03*
D16*
X17843821Y-750000D03*
X16843821Y-14770000D03*
X17843821Y-34670000D03*
X17843821Y-11070000D03*
X32691466Y-26570000D03*
X17843821Y-36370000D03*
X16843821Y-44270000D03*
D14*
X12740400Y-37216198D03*
D15*
X12490400Y-37216198D03*
X12240400Y-37216198D03*
D16*
X850000Y-8889999D03*
X30343821Y-750000D03*
D14*
X3825000Y-6592499D03*
D15*
X3575000Y-6592499D03*
X3325000Y-6592499D03*
D16*
X30343821Y-16970000D03*
X46191466Y-12770000D03*
D14*
X35666466Y-452500D03*
D15*
X35416466Y-452500D03*
X35166466Y-452500D03*
D16*
X30343821Y-24570000D03*
X30343821Y-18670000D03*
D12*
X24263821Y-256000D03*
D13*
X24517821Y-256000D03*
X24263821Y-510000D03*
X24517821Y-510000D03*
X24263821Y-764000D03*
X24517821Y-764000D03*
X24263821Y-1018000D03*
X24517821Y-1018000D03*
D16*
X14350000Y-41689998D03*
X46191466Y-36370000D03*
D14*
X19818821Y-24272500D03*
D15*
X19568821Y-24272500D03*
X19318821Y-24272500D03*
D16*
X47191466Y-44270000D03*
X33691466Y-34670000D03*
X30343821Y-34670000D03*
X47191466Y-14770000D03*
X1850000Y-31369998D03*
X46191466Y-30470000D03*
X1850000Y-19129999D03*
X31343821Y-38370000D03*
X15350000Y-15009999D03*
D12*
X24263821Y-24076000D03*
D13*
X24517821Y-24076000D03*
X24263821Y-24330000D03*
X24517821Y-24330000D03*
X24263821Y-24584000D03*
X24517821Y-24584000D03*
X24263821Y-24838000D03*
X24517821Y-24838000D03*
D16*
X1723822Y-43589998D03*
X850000Y-2770000D03*
D12*
X40111466Y-12276000D03*
D13*
X40365466Y-12276000D03*
X40111466Y-12530000D03*
X40365466Y-12530000D03*
X40111466Y-12784000D03*
X40365466Y-12784000D03*
X40111466Y-13038000D03*
X40365466Y-13038000D03*
D12*
X8270000Y-36995998D03*
D13*
X8524000Y-36995998D03*
X8270000Y-37249998D03*
X8524000Y-37249998D03*
X8270000Y-37503998D03*
X8524000Y-37503998D03*
X8270000Y-37757998D03*
X8524000Y-37757998D03*
D14*
X44581866Y-476200D03*
D15*
X44331866Y-476200D03*
X44081866Y-476200D03*
D12*
X24263821Y-29976000D03*
D13*
X24517821Y-29976000D03*
X24263821Y-30230000D03*
X24517821Y-30230000D03*
X24263821Y-30484000D03*
X24517821Y-30484000D03*
X24263821Y-30738000D03*
X24517821Y-30738000D03*
D14*
X44581866Y-12496200D03*
D15*
X44331866Y-12496200D03*
X44081866Y-12496200D03*
D16*
X32691466Y-14770000D03*
X30343821Y-36370000D03*
D14*
X12740400Y-31096198D03*
D15*
X12490400Y-31096198D03*
X12240400Y-31096198D03*
D16*
X14350000Y-19129999D03*
X31343821Y-8870000D03*
X33691466Y-40570000D03*
X17843821Y-30470000D03*
X1723822Y-47789998D03*
X30343821Y-6870000D03*
D14*
X3825000Y-472500D03*
D15*
X3575000Y-472500D03*
X3325000Y-472500D03*
D16*
X17843821Y-28770000D03*
X17843821Y-22870000D03*
X31343821Y-14770000D03*
X850000Y-33369998D03*
X33691466Y-4950000D03*
D12*
X40111466Y-41776000D03*
D13*
X40365466Y-41776000D03*
X40111466Y-42030000D03*
X40365466Y-42030000D03*
X40111466Y-42284000D03*
X40365466Y-42284000D03*
X40111466Y-42538000D03*
X40365466Y-42538000D03*
D16*
X30343821Y-42270000D03*
X14223822Y-47789998D03*
X14350000Y-6889999D03*
X16843821Y-26570000D03*
X14350000Y-31369998D03*
X46191466Y-42270000D03*
D14*
X12614222Y-43316198D03*
D15*
X12364222Y-43316198D03*
X12114222Y-43316198D03*
D16*
X46191466Y-22870000D03*
X47191466Y-8870000D03*
D14*
X44581866Y-41996200D03*
D15*
X44331866Y-41996200D03*
X44081866Y-41996200D03*
D16*
X33691466Y-16970000D03*
X32691466Y-2750000D03*
D14*
X3698822Y-43292498D03*
D15*
X3448822Y-43292498D03*
X3198822Y-43292498D03*
D16*
X850000Y-27249998D03*
D14*
X44581866Y-24296200D03*
D15*
X44331866Y-24296200D03*
X44081866Y-24296200D03*
D16*
X46191466Y-24570000D03*
X17843821Y-16970000D03*
D12*
X24263821Y-35876000D03*
D13*
X24517821Y-35876000D03*
X24263821Y-36130000D03*
X24517821Y-36130000D03*
X24263821Y-36384000D03*
X24517821Y-36384000D03*
X24263821Y-36638000D03*
X24517821Y-36638000D03*
D16*
X1850000Y-29449998D03*
X32691466Y-8870000D03*
X46191466Y-16970000D03*
X33691466Y-36370000D03*
X33691466Y-6870000D03*
X14350000Y-23329999D03*
D14*
X44581866Y-36096200D03*
D15*
X44331866Y-36096200D03*
X44081866Y-36096200D03*
D16*
X1850000Y-23329999D03*
X17843821Y-18670000D03*
X15350000Y-21129999D03*
D12*
X40111466Y-35876000D03*
D13*
X40365466Y-35876000D03*
X40111466Y-36130000D03*
X40365466Y-36130000D03*
X40111466Y-36384000D03*
X40365466Y-36384000D03*
X40111466Y-36638000D03*
X40365466Y-36638000D03*
D16*
X17843821Y-42270000D03*
X46191466Y-34670000D03*
X14350000Y-29449998D03*
D12*
X24263821Y-18176000D03*
D13*
X24517821Y-18176000D03*
X24263821Y-18430000D03*
X24517821Y-18430000D03*
X24263821Y-18684000D03*
X24517821Y-18684000D03*
X24263821Y-18938000D03*
X24517821Y-18938000D03*
D12*
X24263821Y-41776000D03*
D13*
X24517821Y-41776000D03*
X24263821Y-42030000D03*
X24517821Y-42030000D03*
X24263821Y-42284000D03*
X24517821Y-42284000D03*
X24263821Y-42538000D03*
X24517821Y-42538000D03*
D16*
X1850000Y-37489998D03*
D17*
X29524821Y-3401250D03*
X29524821Y-3218750D03*
D18*
X45041216Y-15080000D03*
X45223716Y-15080000D03*
D19*
X27771321Y-34610000D03*
D20*
X27771321Y-34860000D03*
D17*
X45372466Y-44921250D03*
X45372466Y-44738750D03*
D21*
X19666071Y-15100000D03*
X19483571Y-15100000D03*
D22*
X19267321Y-14870000D03*
X19202321Y-14870000D03*
X19137321Y-14870000D03*
X19072321Y-14870000D03*
X19007321Y-14870000D03*
X18942321Y-14870000D03*
X18877321Y-14870000D03*
X18812321Y-14870000D03*
X18747321Y-14870000D03*
X18682321Y-14870000D03*
X18682321Y-14290000D03*
X18747321Y-14290000D03*
X18812321Y-14290000D03*
X18877321Y-14290000D03*
X18942321Y-14290000D03*
X19007321Y-14290000D03*
X19072321Y-14290000D03*
X19137321Y-14290000D03*
X19202321Y-14290000D03*
X19267321Y-14290000D03*
D17*
X19174821Y-27221250D03*
X19174821Y-27038750D03*
D22*
X19267321Y-44370000D03*
X19202321Y-44370000D03*
X19137321Y-44370000D03*
X19072321Y-44370000D03*
X19007321Y-44370000D03*
X18942321Y-44370000D03*
X18877321Y-44370000D03*
X18812321Y-44370000D03*
X18747321Y-44370000D03*
X18682321Y-44370000D03*
X18682321Y-43790000D03*
X18747321Y-43790000D03*
X18812321Y-43790000D03*
X18877321Y-43790000D03*
X18942321Y-43790000D03*
X19007321Y-43790000D03*
X19072321Y-43790000D03*
X19137321Y-43790000D03*
X19202321Y-43790000D03*
X19267321Y-43790000D03*
D17*
X35022466Y-27221250D03*
X35022466Y-27038750D03*
D19*
X43618966Y-4890000D03*
D20*
X43618966Y-5140000D03*
D17*
X45372466Y-39021250D03*
X45372466Y-38838750D03*
D19*
X27771321Y-28710000D03*
D20*
X27771321Y-28960000D03*
D23*
X23786821Y-227000D03*
X23786821Y-667000D03*
D22*
X3147322Y-45689998D03*
X3082322Y-45689998D03*
X3017322Y-45689998D03*
X2952322Y-45689998D03*
X2887322Y-45689998D03*
X2822322Y-45689998D03*
X2757322Y-45689998D03*
X2692322Y-45689998D03*
X2627322Y-45689998D03*
X2562322Y-45689998D03*
X2562322Y-45109998D03*
X2627322Y-45109998D03*
X2692322Y-45109998D03*
X2757322Y-45109998D03*
X2822322Y-45109998D03*
X2887322Y-45109998D03*
X2952322Y-45109998D03*
X3017322Y-45109998D03*
X3082322Y-45109998D03*
X3147322Y-45109998D03*
D17*
X35022466Y-44921250D03*
X35022466Y-44738750D03*
D18*
X45041216Y-20980000D03*
X45223716Y-20980000D03*
D17*
X13404822Y-46241248D03*
X13404822Y-46058748D03*
D19*
X43618966Y-34610000D03*
D20*
X43618966Y-34860000D03*
D22*
X35114966Y-2850000D03*
X35049966Y-2850000D03*
X34984966Y-2850000D03*
X34919966Y-2850000D03*
X34854966Y-2850000D03*
X34789966Y-2850000D03*
X34724966Y-2850000D03*
X34659966Y-2850000D03*
X34594966Y-2850000D03*
X34529966Y-2850000D03*
X34529966Y-2270000D03*
X34594966Y-2270000D03*
X34659966Y-2270000D03*
X34724966Y-2270000D03*
X34789966Y-2270000D03*
X34854966Y-2270000D03*
X34919966Y-2270000D03*
X34984966Y-2270000D03*
X35049966Y-2270000D03*
X35114966Y-2270000D03*
D17*
X29524821Y-39021250D03*
X29524821Y-38838750D03*
D18*
X29193571Y-38680000D03*
X29376071Y-38680000D03*
D23*
X39634466Y-24047000D03*
X39634466Y-24487000D03*
D24*
X7890000Y-24649998D03*
X7890000Y-24822498D03*
D19*
X11690000Y-17149999D03*
D20*
X11690000Y-17399999D03*
D22*
X29567321Y-14870000D03*
X29502321Y-14870000D03*
X29437321Y-14870000D03*
X29372321Y-14870000D03*
X29307321Y-14870000D03*
X29242321Y-14870000D03*
X29177321Y-14870000D03*
X29112321Y-14870000D03*
X29047321Y-14870000D03*
X28982321Y-14870000D03*
X28982321Y-14290000D03*
X29047321Y-14290000D03*
X29112321Y-14290000D03*
X29177321Y-14290000D03*
X29242321Y-14290000D03*
X29307321Y-14290000D03*
X29372321Y-14290000D03*
X29437321Y-14290000D03*
X29502321Y-14290000D03*
X29567321Y-14290000D03*
D21*
X19666071Y-32800000D03*
X19483571Y-32800000D03*
D22*
X35114966Y-44370000D03*
X35049966Y-44370000D03*
X34984966Y-44370000D03*
X34919966Y-44370000D03*
X34854966Y-44370000D03*
X34789966Y-44370000D03*
X34724966Y-44370000D03*
X34659966Y-44370000D03*
X34594966Y-44370000D03*
X34529966Y-44370000D03*
X34529966Y-43790000D03*
X34594966Y-43790000D03*
X34659966Y-43790000D03*
X34724966Y-43790000D03*
X34789966Y-43790000D03*
X34854966Y-43790000D03*
X34919966Y-43790000D03*
X34984966Y-43790000D03*
X35049966Y-43790000D03*
X35114966Y-43790000D03*
D19*
X43618966Y-40510000D03*
D20*
X43618966Y-40760000D03*
D18*
X45041216Y-9180000D03*
X45223716Y-9180000D03*
D22*
X29567321Y-44370000D03*
X29502321Y-44370000D03*
X29437321Y-44370000D03*
X29372321Y-44370000D03*
X29307321Y-44370000D03*
X29242321Y-44370000D03*
X29177321Y-44370000D03*
X29112321Y-44370000D03*
X29047321Y-44370000D03*
X28982321Y-44370000D03*
X28982321Y-43790000D03*
X29047321Y-43790000D03*
X29112321Y-43790000D03*
X29177321Y-43790000D03*
X29242321Y-43790000D03*
X29307321Y-43790000D03*
X29372321Y-43790000D03*
X29437321Y-43790000D03*
X29502321Y-43790000D03*
X29567321Y-43790000D03*
D17*
X29524821Y-33121250D03*
X29524821Y-32938750D03*
D22*
X19267321Y-2850000D03*
X19202321Y-2850000D03*
X19137321Y-2850000D03*
X19072321Y-2850000D03*
X19007321Y-2850000D03*
X18942321Y-2850000D03*
X18877321Y-2850000D03*
X18812321Y-2850000D03*
X18747321Y-2850000D03*
X18682321Y-2850000D03*
X18682321Y-2270000D03*
X18747321Y-2270000D03*
X18812321Y-2270000D03*
X18877321Y-2270000D03*
X18942321Y-2270000D03*
X19007321Y-2270000D03*
X19072321Y-2270000D03*
X19137321Y-2270000D03*
X19202321Y-2270000D03*
X19267321Y-2270000D03*
D17*
X29524821Y-44921250D03*
X29524821Y-44738750D03*
D22*
X19267321Y-8970000D03*
X19202321Y-8970000D03*
X19137321Y-8970000D03*
X19072321Y-8970000D03*
X19007321Y-8970000D03*
X18942321Y-8970000D03*
X18877321Y-8970000D03*
X18812321Y-8970000D03*
X18747321Y-8970000D03*
X18682321Y-8970000D03*
X18682321Y-8390000D03*
X18747321Y-8390000D03*
X18812321Y-8390000D03*
X18877321Y-8390000D03*
X18942321Y-8390000D03*
X19007321Y-8390000D03*
X19072321Y-8390000D03*
X19137321Y-8390000D03*
X19202321Y-8390000D03*
X19267321Y-8390000D03*
D17*
X29524821Y-9521250D03*
X29524821Y-9338750D03*
D23*
X23786821Y-41747000D03*
X23786821Y-42187000D03*
D17*
X29524821Y-21321250D03*
X29524821Y-21138750D03*
D22*
X35114966Y-8970000D03*
X35049966Y-8970000D03*
X34984966Y-8970000D03*
X34919966Y-8970000D03*
X34854966Y-8970000D03*
X34789966Y-8970000D03*
X34724966Y-8970000D03*
X34659966Y-8970000D03*
X34594966Y-8970000D03*
X34529966Y-8970000D03*
X34529966Y-8390000D03*
X34594966Y-8390000D03*
X34659966Y-8390000D03*
X34724966Y-8390000D03*
X34789966Y-8390000D03*
X34854966Y-8390000D03*
X34919966Y-8390000D03*
X34984966Y-8390000D03*
X35049966Y-8390000D03*
X35114966Y-8390000D03*
D18*
X45041216Y-44580000D03*
X45223716Y-44580000D03*
D19*
X27771321Y-16910000D03*
D20*
X27771321Y-17160000D03*
D22*
X45414966Y-26670000D03*
X45349966Y-26670000D03*
X45284966Y-26670000D03*
X45219966Y-26670000D03*
X45154966Y-26670000D03*
X45089966Y-26670000D03*
X45024966Y-26670000D03*
X44959966Y-26670000D03*
X44894966Y-26670000D03*
X44829966Y-26670000D03*
X44829966Y-26090000D03*
X44894966Y-26090000D03*
X44959966Y-26090000D03*
X45024966Y-26090000D03*
X45089966Y-26090000D03*
X45154966Y-26090000D03*
X45219966Y-26090000D03*
X45284966Y-26090000D03*
X45349966Y-26090000D03*
X45414966Y-26090000D03*
X45414966Y-32570000D03*
X45349966Y-32570000D03*
X45284966Y-32570000D03*
X45219966Y-32570000D03*
X45154966Y-32570000D03*
X45089966Y-32570000D03*
X45024966Y-32570000D03*
X44959966Y-32570000D03*
X44894966Y-32570000D03*
X44829966Y-32570000D03*
X44829966Y-31990000D03*
X44894966Y-31990000D03*
X44959966Y-31990000D03*
X45024966Y-31990000D03*
X45089966Y-31990000D03*
X45154966Y-31990000D03*
X45219966Y-31990000D03*
X45284966Y-31990000D03*
X45349966Y-31990000D03*
X45414966Y-31990000D03*
X45414966Y-20770000D03*
X45349966Y-20770000D03*
X45284966Y-20770000D03*
X45219966Y-20770000D03*
X45154966Y-20770000D03*
X45089966Y-20770000D03*
X45024966Y-20770000D03*
X44959966Y-20770000D03*
X44894966Y-20770000D03*
X44829966Y-20770000D03*
X44829966Y-20190000D03*
X44894966Y-20190000D03*
X44959966Y-20190000D03*
X45024966Y-20190000D03*
X45089966Y-20190000D03*
X45154966Y-20190000D03*
X45219966Y-20190000D03*
X45284966Y-20190000D03*
X45349966Y-20190000D03*
X45414966Y-20190000D03*
D17*
X45372466Y-21321250D03*
X45372466Y-21138750D03*
D19*
X11690000Y-23269999D03*
D20*
X11690000Y-23519999D03*
D21*
X35513716Y-44600000D03*
X35331216Y-44600000D03*
D17*
X19174821Y-15421250D03*
X19174821Y-15238750D03*
D22*
X45414966Y-14870000D03*
X45349966Y-14870000D03*
X45284966Y-14870000D03*
X45219966Y-14870000D03*
X45154966Y-14870000D03*
X45089966Y-14870000D03*
X45024966Y-14870000D03*
X44959966Y-14870000D03*
X44894966Y-14870000D03*
X44829966Y-14870000D03*
X44829966Y-14290000D03*
X44894966Y-14290000D03*
X44959966Y-14290000D03*
X45024966Y-14290000D03*
X45089966Y-14290000D03*
X45154966Y-14290000D03*
X45219966Y-14290000D03*
X45284966Y-14290000D03*
X45349966Y-14290000D03*
X45414966Y-14290000D03*
D17*
X29524821Y-27221250D03*
X29524821Y-27038750D03*
D19*
X27771321Y-40510000D03*
D20*
X27771321Y-40760000D03*
D24*
X7890000Y-6289999D03*
X7890000Y-6462499D03*
D22*
X35114966Y-14870000D03*
X35049966Y-14870000D03*
X34984966Y-14870000D03*
X34919966Y-14870000D03*
X34854966Y-14870000D03*
X34789966Y-14870000D03*
X34724966Y-14870000D03*
X34659966Y-14870000D03*
X34594966Y-14870000D03*
X34529966Y-14870000D03*
X34529966Y-14290000D03*
X34594966Y-14290000D03*
X34659966Y-14290000D03*
X34724966Y-14290000D03*
X34789966Y-14290000D03*
X34854966Y-14290000D03*
X34919966Y-14290000D03*
X34984966Y-14290000D03*
X35049966Y-14290000D03*
X35114966Y-14290000D03*
D18*
X29193571Y-9180000D03*
X29376071Y-9180000D03*
D19*
X11690000Y-4910000D03*
D20*
X11690000Y-5160000D03*
D17*
X35022466Y-39021250D03*
X35022466Y-38838750D03*
X19174821Y-3401250D03*
X19174821Y-3218750D03*
D21*
X35513716Y-21000000D03*
X35331216Y-21000000D03*
D22*
X45414966Y-8970000D03*
X45349966Y-8970000D03*
X45284966Y-8970000D03*
X45219966Y-8970000D03*
X45154966Y-8970000D03*
X45089966Y-8970000D03*
X45024966Y-8970000D03*
X44959966Y-8970000D03*
X44894966Y-8970000D03*
X44829966Y-8970000D03*
X44829966Y-8390000D03*
X44894966Y-8390000D03*
X44959966Y-8390000D03*
X45024966Y-8390000D03*
X45089966Y-8390000D03*
X45154966Y-8390000D03*
X45219966Y-8390000D03*
X45284966Y-8390000D03*
X45349966Y-8390000D03*
X45414966Y-8390000D03*
D23*
X39634466Y-227000D03*
X39634466Y-667000D03*
D19*
X27771321Y-11010000D03*
D20*
X27771321Y-11260000D03*
D22*
X35114966Y-26670000D03*
X35049966Y-26670000D03*
X34984966Y-26670000D03*
X34919966Y-26670000D03*
X34854966Y-26670000D03*
X34789966Y-26670000D03*
X34724966Y-26670000D03*
X34659966Y-26670000D03*
X34594966Y-26670000D03*
X34529966Y-26670000D03*
X34529966Y-26090000D03*
X34594966Y-26090000D03*
X34659966Y-26090000D03*
X34724966Y-26090000D03*
X34789966Y-26090000D03*
X34854966Y-26090000D03*
X34919966Y-26090000D03*
X34984966Y-26090000D03*
X35049966Y-26090000D03*
X35114966Y-26090000D03*
D18*
X29193571Y-15080000D03*
X29376071Y-15080000D03*
D21*
X3546072Y-45919998D03*
X3363572Y-45919998D03*
D17*
X45372466Y-15421250D03*
X45372466Y-15238750D03*
D22*
X35114966Y-38470000D03*
X35049966Y-38470000D03*
X34984966Y-38470000D03*
X34919966Y-38470000D03*
X34854966Y-38470000D03*
X34789966Y-38470000D03*
X34724966Y-38470000D03*
X34659966Y-38470000D03*
X34594966Y-38470000D03*
X34529966Y-38470000D03*
X34529966Y-37890000D03*
X34594966Y-37890000D03*
X34659966Y-37890000D03*
X34724966Y-37890000D03*
X34789966Y-37890000D03*
X34854966Y-37890000D03*
X34919966Y-37890000D03*
X34984966Y-37890000D03*
X35049966Y-37890000D03*
X35114966Y-37890000D03*
X29567321Y-2850000D03*
X29502321Y-2850000D03*
X29437321Y-2850000D03*
X29372321Y-2850000D03*
X29307321Y-2850000D03*
X29242321Y-2850000D03*
X29177321Y-2850000D03*
X29112321Y-2850000D03*
X29047321Y-2850000D03*
X28982321Y-2850000D03*
X28982321Y-2270000D03*
X29047321Y-2270000D03*
X29112321Y-2270000D03*
X29177321Y-2270000D03*
X29242321Y-2270000D03*
X29307321Y-2270000D03*
X29372321Y-2270000D03*
X29437321Y-2270000D03*
X29502321Y-2270000D03*
X29567321Y-2270000D03*
D24*
X7890000Y-18529999D03*
X7890000Y-18702499D03*
D23*
X23786821Y-6347000D03*
X23786821Y-6787000D03*
D19*
X11690000Y-11029999D03*
D20*
X11690000Y-11279999D03*
D23*
X23786821Y-35847000D03*
X23786821Y-36287000D03*
D22*
X19267321Y-32570000D03*
X19202321Y-32570000D03*
X19137321Y-32570000D03*
X19072321Y-32570000D03*
X19007321Y-32570000D03*
X18942321Y-32570000D03*
X18877321Y-32570000D03*
X18812321Y-32570000D03*
X18747321Y-32570000D03*
X18682321Y-32570000D03*
X18682321Y-31990000D03*
X18747321Y-31990000D03*
X18812321Y-31990000D03*
X18877321Y-31990000D03*
X18942321Y-31990000D03*
X19007321Y-31990000D03*
X19072321Y-31990000D03*
X19137321Y-31990000D03*
X19202321Y-31990000D03*
X19267321Y-31990000D03*
D17*
X19174821Y-9521250D03*
X19174821Y-9338750D03*
D23*
X23786821Y-24047000D03*
X23786821Y-24487000D03*
D21*
X19666071Y-26900000D03*
X19483571Y-26900000D03*
D17*
X29524821Y-15421250D03*
X29524821Y-15238750D03*
D21*
X19666071Y-3080000D03*
X19483571Y-3080000D03*
D23*
X39634466Y-18147000D03*
X39634466Y-18587000D03*
D22*
X35114966Y-32570000D03*
X35049966Y-32570000D03*
X34984966Y-32570000D03*
X34919966Y-32570000D03*
X34854966Y-32570000D03*
X34789966Y-32570000D03*
X34724966Y-32570000D03*
X34659966Y-32570000D03*
X34594966Y-32570000D03*
X34529966Y-32570000D03*
X34529966Y-31990000D03*
X34594966Y-31990000D03*
X34659966Y-31990000D03*
X34724966Y-31990000D03*
X34789966Y-31990000D03*
X34854966Y-31990000D03*
X34919966Y-31990000D03*
X34984966Y-31990000D03*
X35049966Y-31990000D03*
X35114966Y-31990000D03*
D18*
X29193571Y-32780000D03*
X29376071Y-32780000D03*
D17*
X3054822Y-46241248D03*
X3054822Y-46058748D03*
D21*
X19666071Y-21000000D03*
X19483571Y-21000000D03*
D19*
X11651322Y-47729998D03*
D20*
X11651322Y-47979998D03*
D22*
X29567321Y-26670000D03*
X29502321Y-26670000D03*
X29437321Y-26670000D03*
X29372321Y-26670000D03*
X29307321Y-26670000D03*
X29242321Y-26670000D03*
X29177321Y-26670000D03*
X29112321Y-26670000D03*
X29047321Y-26670000D03*
X28982321Y-26670000D03*
X28982321Y-26090000D03*
X29047321Y-26090000D03*
X29112321Y-26090000D03*
X29177321Y-26090000D03*
X29242321Y-26090000D03*
X29307321Y-26090000D03*
X29372321Y-26090000D03*
X29437321Y-26090000D03*
X29502321Y-26090000D03*
X29567321Y-26090000D03*
D23*
X39634466Y-41747000D03*
X39634466Y-42187000D03*
D22*
X19267321Y-20770000D03*
X19202321Y-20770000D03*
X19137321Y-20770000D03*
X19072321Y-20770000D03*
X19007321Y-20770000D03*
X18942321Y-20770000D03*
X18877321Y-20770000D03*
X18812321Y-20770000D03*
X18747321Y-20770000D03*
X18682321Y-20770000D03*
X18682321Y-20190000D03*
X18747321Y-20190000D03*
X18812321Y-20190000D03*
X18877321Y-20190000D03*
X18942321Y-20190000D03*
X19007321Y-20190000D03*
X19072321Y-20190000D03*
X19137321Y-20190000D03*
X19202321Y-20190000D03*
X19267321Y-20190000D03*
D18*
X45041216Y-3060000D03*
X45223716Y-3060000D03*
D21*
X35513716Y-9200000D03*
X35331216Y-9200000D03*
D17*
X35022466Y-21321250D03*
X35022466Y-21138750D03*
D24*
X7890000Y-170000D03*
X7890000Y-342500D03*
D19*
X11690000Y-35509998D03*
D20*
X11690000Y-35759998D03*
D23*
X23786821Y-29947000D03*
X23786821Y-30387000D03*
D17*
X19174821Y-21321250D03*
X19174821Y-21138750D03*
D18*
X29193571Y-3060000D03*
X29376071Y-3060000D03*
D17*
X45372466Y-9521250D03*
X45372466Y-9338750D03*
D21*
X19666071Y-38700000D03*
X19483571Y-38700000D03*
X19666071Y-9200000D03*
X19483571Y-9200000D03*
D18*
X29193571Y-20980000D03*
X29376071Y-20980000D03*
D17*
X35022466Y-33121250D03*
X35022466Y-32938750D03*
D22*
X19267321Y-38470000D03*
X19202321Y-38470000D03*
X19137321Y-38470000D03*
X19072321Y-38470000D03*
X19007321Y-38470000D03*
X18942321Y-38470000D03*
X18877321Y-38470000D03*
X18812321Y-38470000D03*
X18747321Y-38470000D03*
X18682321Y-38470000D03*
X18682321Y-37890000D03*
X18747321Y-37890000D03*
X18812321Y-37890000D03*
X18877321Y-37890000D03*
X18942321Y-37890000D03*
X19007321Y-37890000D03*
X19072321Y-37890000D03*
X19137321Y-37890000D03*
X19202321Y-37890000D03*
X19267321Y-37890000D03*
D23*
X39634466Y-35847000D03*
X39634466Y-36287000D03*
D19*
X11690000Y-41629998D03*
D20*
X11690000Y-41879998D03*
D23*
X39634466Y-12247000D03*
X39634466Y-12687000D03*
D19*
X43618966Y-22810000D03*
D20*
X43618966Y-23060000D03*
D21*
X35513716Y-38700000D03*
X35331216Y-38700000D03*
D22*
X45414966Y-44370000D03*
X45349966Y-44370000D03*
X45284966Y-44370000D03*
X45219966Y-44370000D03*
X45154966Y-44370000D03*
X45089966Y-44370000D03*
X45024966Y-44370000D03*
X44959966Y-44370000D03*
X44894966Y-44370000D03*
X44829966Y-44370000D03*
X44829966Y-43790000D03*
X44894966Y-43790000D03*
X44959966Y-43790000D03*
X45024966Y-43790000D03*
X45089966Y-43790000D03*
X45154966Y-43790000D03*
X45219966Y-43790000D03*
X45284966Y-43790000D03*
X45349966Y-43790000D03*
X45414966Y-43790000D03*
X45414966Y-38470000D03*
X45349966Y-38470000D03*
X45284966Y-38470000D03*
X45219966Y-38470000D03*
X45154966Y-38470000D03*
X45089966Y-38470000D03*
X45024966Y-38470000D03*
X44959966Y-38470000D03*
X44894966Y-38470000D03*
X44829966Y-38470000D03*
X44829966Y-37890000D03*
X44894966Y-37890000D03*
X44959966Y-37890000D03*
X45024966Y-37890000D03*
X45089966Y-37890000D03*
X45154966Y-37890000D03*
X45219966Y-37890000D03*
X45284966Y-37890000D03*
X45349966Y-37890000D03*
X45414966Y-37890000D03*
D17*
X35022466Y-15421250D03*
X35022466Y-15238750D03*
D18*
X29193571Y-44580000D03*
X29376071Y-44580000D03*
D19*
X43618966Y-46410000D03*
D20*
X43618966Y-46660000D03*
D23*
X39634466Y-29947000D03*
X39634466Y-30387000D03*
D21*
X35513716Y-15100000D03*
X35331216Y-15100000D03*
D18*
X45041216Y-32780000D03*
X45223716Y-32780000D03*
D22*
X29567321Y-20770000D03*
X29502321Y-20770000D03*
X29437321Y-20770000D03*
X29372321Y-20770000D03*
X29307321Y-20770000D03*
X29242321Y-20770000D03*
X29177321Y-20770000D03*
X29112321Y-20770000D03*
X29047321Y-20770000D03*
X28982321Y-20770000D03*
X28982321Y-20190000D03*
X29047321Y-20190000D03*
X29112321Y-20190000D03*
X29177321Y-20190000D03*
X29242321Y-20190000D03*
X29307321Y-20190000D03*
X29372321Y-20190000D03*
X29437321Y-20190000D03*
X29502321Y-20190000D03*
X29567321Y-20190000D03*
X29567321Y-32570000D03*
X29502321Y-32570000D03*
X29437321Y-32570000D03*
X29372321Y-32570000D03*
X29307321Y-32570000D03*
X29242321Y-32570000D03*
X29177321Y-32570000D03*
X29112321Y-32570000D03*
X29047321Y-32570000D03*
X28982321Y-32570000D03*
X28982321Y-31990000D03*
X29047321Y-31990000D03*
X29112321Y-31990000D03*
X29177321Y-31990000D03*
X29242321Y-31990000D03*
X29307321Y-31990000D03*
X29372321Y-31990000D03*
X29437321Y-31990000D03*
X29502321Y-31990000D03*
X29567321Y-31990000D03*
D17*
X19174821Y-33121250D03*
X19174821Y-32938750D03*
X19174821Y-39021250D03*
X19174821Y-38838750D03*
D21*
X35513716Y-3080000D03*
X35331216Y-3080000D03*
D24*
X7890000Y-12409999D03*
X7890000Y-12582499D03*
D17*
X19174821Y-44921250D03*
X19174821Y-44738750D03*
D18*
X29193571Y-26880000D03*
X29376071Y-26880000D03*
D24*
X7890000Y-30769998D03*
X7890000Y-30942498D03*
D22*
X29567321Y-8970000D03*
X29502321Y-8970000D03*
X29437321Y-8970000D03*
X29372321Y-8970000D03*
X29307321Y-8970000D03*
X29242321Y-8970000D03*
X29177321Y-8970000D03*
X29112321Y-8970000D03*
X29047321Y-8970000D03*
X28982321Y-8970000D03*
X28982321Y-8390000D03*
X29047321Y-8390000D03*
X29112321Y-8390000D03*
X29177321Y-8390000D03*
X29242321Y-8390000D03*
X29307321Y-8390000D03*
X29372321Y-8390000D03*
X29437321Y-8390000D03*
X29502321Y-8390000D03*
X29567321Y-8390000D03*
D19*
X27771321Y-22810000D03*
D20*
X27771321Y-23060000D03*
D21*
X35513716Y-26900000D03*
X35331216Y-26900000D03*
D23*
X23786821Y-18147000D03*
X23786821Y-18587000D03*
D18*
X13073572Y-45899998D03*
X13256072Y-45899998D03*
D22*
X13447322Y-45689998D03*
X13382322Y-45689998D03*
X13317322Y-45689998D03*
X13252322Y-45689998D03*
X13187322Y-45689998D03*
X13122322Y-45689998D03*
X13057322Y-45689998D03*
X12992322Y-45689998D03*
X12927322Y-45689998D03*
X12862322Y-45689998D03*
X12862322Y-45109998D03*
X12927322Y-45109998D03*
X12992322Y-45109998D03*
X13057322Y-45109998D03*
X13122322Y-45109998D03*
X13187322Y-45109998D03*
X13252322Y-45109998D03*
X13317322Y-45109998D03*
X13382322Y-45109998D03*
X13447322Y-45109998D03*
D19*
X43618966Y-11010000D03*
D20*
X43618966Y-11260000D03*
D17*
X45372466Y-27221250D03*
X45372466Y-27038750D03*
D18*
X45041216Y-38680000D03*
X45223716Y-38680000D03*
D19*
X27771321Y-46410000D03*
D20*
X27771321Y-46660000D03*
D19*
X27771321Y-4890000D03*
D20*
X27771321Y-5140000D03*
D24*
X7890000Y-36889998D03*
X7890000Y-37062498D03*
D21*
X19666071Y-44600000D03*
X19483571Y-44600000D03*
D22*
X45414966Y-2850000D03*
X45349966Y-2850000D03*
X45284966Y-2850000D03*
X45219966Y-2850000D03*
X45154966Y-2850000D03*
X45089966Y-2850000D03*
X45024966Y-2850000D03*
X44959966Y-2850000D03*
X44894966Y-2850000D03*
X44829966Y-2850000D03*
X44829966Y-2270000D03*
X44894966Y-2270000D03*
X44959966Y-2270000D03*
X45024966Y-2270000D03*
X45089966Y-2270000D03*
X45154966Y-2270000D03*
X45219966Y-2270000D03*
X45284966Y-2270000D03*
X45349966Y-2270000D03*
X45414966Y-2270000D03*
X29567321Y-38470000D03*
X29502321Y-38470000D03*
X29437321Y-38470000D03*
X29372321Y-38470000D03*
X29307321Y-38470000D03*
X29242321Y-38470000D03*
X29177321Y-38470000D03*
X29112321Y-38470000D03*
X29047321Y-38470000D03*
X28982321Y-38470000D03*
X28982321Y-37890000D03*
X29047321Y-37890000D03*
X29112321Y-37890000D03*
X29177321Y-37890000D03*
X29242321Y-37890000D03*
X29307321Y-37890000D03*
X29372321Y-37890000D03*
X29437321Y-37890000D03*
X29502321Y-37890000D03*
X29567321Y-37890000D03*
X35114966Y-20770000D03*
X35049966Y-20770000D03*
X34984966Y-20770000D03*
X34919966Y-20770000D03*
X34854966Y-20770000D03*
X34789966Y-20770000D03*
X34724966Y-20770000D03*
X34659966Y-20770000D03*
X34594966Y-20770000D03*
X34529966Y-20770000D03*
X34529966Y-20190000D03*
X34594966Y-20190000D03*
X34659966Y-20190000D03*
X34724966Y-20190000D03*
X34789966Y-20190000D03*
X34854966Y-20190000D03*
X34919966Y-20190000D03*
X34984966Y-20190000D03*
X35049966Y-20190000D03*
X35114966Y-20190000D03*
D23*
X23786821Y-12247000D03*
X23786821Y-12687000D03*
D17*
X35022466Y-3401250D03*
X35022466Y-3218750D03*
D21*
X35513716Y-32800000D03*
X35331216Y-32800000D03*
D19*
X43618966Y-16910000D03*
D20*
X43618966Y-17160000D03*
D17*
X45372466Y-33121250D03*
X45372466Y-32938750D03*
X45372466Y-3401250D03*
X45372466Y-3218750D03*
D23*
X39634466Y-6347000D03*
X39634466Y-6787000D03*
D22*
X19267321Y-26670000D03*
X19202321Y-26670000D03*
X19137321Y-26670000D03*
X19072321Y-26670000D03*
X19007321Y-26670000D03*
X18942321Y-26670000D03*
X18877321Y-26670000D03*
X18812321Y-26670000D03*
X18747321Y-26670000D03*
X18682321Y-26670000D03*
X18682321Y-26090000D03*
X18747321Y-26090000D03*
X18812321Y-26090000D03*
X18877321Y-26090000D03*
X18942321Y-26090000D03*
X19007321Y-26090000D03*
X19072321Y-26090000D03*
X19137321Y-26090000D03*
X19202321Y-26090000D03*
X19267321Y-26090000D03*
D18*
X45041216Y-26880000D03*
X45223716Y-26880000D03*
D17*
X35022466Y-9521250D03*
X35022466Y-9338750D03*
D23*
X7666822Y-43066998D03*
X7666822Y-43506998D03*
D19*
X11690000Y-29389998D03*
D20*
X11690000Y-29639998D03*
D19*
X43618966Y-28710000D03*
D20*
X43618966Y-28960000D03*
M02*
